//Event file generated from Sappy .s format.
	#include "MPlayDef.event"

	#define	song2C_grp  voicegroup000
	#define	song2C_pri  0
	#define	song2C_rev  0
	#define	song2C_mvl  127
	#define	song2C_key  0
	#define	song2C_tbs  1
	#define	song2C_exg  0
	#define	song2C_cmp  1

	// .rodata
	//	song2C
	ALIGN 4


//**************** Track 1 (Midi-Chn.0) ****************//

song2C_001:
//  #01 //000   ----------------------------------------
 BYTE   KEYSH   song2C_key+0
Label_568092:
 BYTE   TEMPO   38*song2C_tbs/2
 BYTE   VOICE   16
 BYTE   VOL   61*song2C_mvl/mxv
 BYTE   PAN   c_v-25
 BYTE   W42
 BYTE   N44  Dn3  v104
 BYTE   W48
 BYTE   Fn3
 BYTE   W06
//  #01 //001   ----------------------------------------
 BYTE   W42
 BYTE   N92  Dn3
 BYTE   W54
//  #01 //002   ----------------------------------------
Label_5680A5:
 BYTE   W42
 BYTE   N44  Dn3  v104
 BYTE   W48
 BYTE   Fn3
 BYTE   W06
 BYTE   PEND 
//  #01 //003   ----------------------------------------
 BYTE   W42
 BYTE   N92  Gn3
 BYTE   W54
//  #01 //004   ----------------------------------------
 BYTE   PATT
  POIN2 Label_5680A5
//  #01 //005   ----------------------------------------
 BYTE   W42
 BYTE   N92  Dn3  v104
 BYTE   W54
//  #01 //006   ----------------------------------------
 BYTE   PATT
  POIN2 Label_5680A5
//  #01 //007   ----------------------------------------
 BYTE   W42
 BYTE   N92  Gn3  v104
 BYTE   W54
//  #01 //008   ----------------------------------------
 BYTE   PATT
  POIN2 Label_5680A5
//  #01 //009   ----------------------------------------
 BYTE   W42
 BYTE   N92  Dn3  v104
 BYTE   W54
//  #01 //010   ----------------------------------------
 BYTE   PATT
  POIN2 Label_5680A5
//  #01 //011   ----------------------------------------
 BYTE   W42
 BYTE   N92  Gn3  v104
 BYTE   W54
//  #01 //012   ----------------------------------------
 BYTE   W42
 BYTE   GoTo
  POIN2 Label_568092
//  #01 //013   ----------------------------------------
 BYTE   N44  Dn3  v104
 BYTE   W48
 BYTE   Fn3
 BYTE   W06
 BYTE   W42
//  #01 //014   ----------------------------------------
 BYTE   N92  Dn3
 BYTE   W54
//  #01 //015   ----------------------------------------
 BYTE   PATT
  POIN2 Label_5680A5
//  #01 //016   ----------------------------------------
 BYTE   W42
 BYTE   N92  Gn3  v104
 BYTE   W54
//  #01 //017   ----------------------------------------
 BYTE   W40
 BYTE   W01
 BYTE   FINE

//**************** Track 2 (Midi-Chn.1) ****************//

song2C_002:
//  #02 //000   ----------------------------------------
 BYTE   KEYSH   song2C_key+0
Label_5680FA:
 BYTE   VOICE   16
 BYTE   VOL   61*song2C_mvl/mxv
 BYTE   PAN   c_v+25
 BYTE   W42
 BYTE   N44  Ds3  v104
 BYTE   W48
 BYTE   Fs3
 BYTE   W06
//  #02 //001   ----------------------------------------
 BYTE   W42
 BYTE   N92  Ds3
 BYTE   W54
//  #02 //002   ----------------------------------------
Label_56810B:
 BYTE   W42
 BYTE   N44  Ds3  v104
 BYTE   W48
 BYTE   Fs3
 BYTE   W06
 BYTE   PEND 
//  #02 //003   ----------------------------------------
 BYTE   W42
 BYTE   N92  Gs3
 BYTE   W54
//  #02 //004   ----------------------------------------
 BYTE   PATT
  POIN2 Label_56810B
//  #02 //005   ----------------------------------------
 BYTE   W42
 BYTE   N92  Ds3  v104
 BYTE   W54
//  #02 //006   ----------------------------------------
 BYTE   PATT
  POIN2 Label_56810B
//  #02 //007   ----------------------------------------
 BYTE   W42
 BYTE   N92  Gs3  v104
 BYTE   W54
//  #02 //008   ----------------------------------------
 BYTE   PATT
  POIN2 Label_56810B
//  #02 //009   ----------------------------------------
 BYTE   W42
 BYTE   N92  Ds3  v104
 BYTE   W54
//  #02 //010   ----------------------------------------
 BYTE   PATT
  POIN2 Label_56810B
//  #02 //011   ----------------------------------------
 BYTE   W42
 BYTE   N92  Gs3  v104
 BYTE   W54
//  #02 //012   ----------------------------------------
 BYTE   W42
 BYTE   GoTo
  POIN2 Label_5680FA
//  #02 //013   ----------------------------------------
 BYTE   N44  Ds3  v104
 BYTE   W48
 BYTE   Fs3
 BYTE   W06
 BYTE   W42
//  #02 //014   ----------------------------------------
 BYTE   N92  Ds3
 BYTE   W54
//  #02 //015   ----------------------------------------
 BYTE   PATT
  POIN2 Label_56810B
//  #02 //016   ----------------------------------------
 BYTE   W42
 BYTE   N92  Gs3  v104
 BYTE   W54
//  #02 //017   ----------------------------------------
 BYTE   W40
 BYTE   W01
 BYTE   FINE

//**************** Track 3 (Midi-Chn.2) ****************//

song2C_003:
//  #03 //000   ----------------------------------------
 BYTE   KEYSH   song2C_key+0
Label_567C6A:
 BYTE   VOICE   16
 BYTE   VOL   61*song2C_mvl/mxv
 BYTE   PAN   c_v-25
 BYTE   W42
 BYTE   N44  Gn3  v104
 BYTE   W48
 BYTE   As3
 BYTE   W06
//  #03 //001   ----------------------------------------
 BYTE   W42
 BYTE   N92  Gn3
 BYTE   W54
//  #03 //002   ----------------------------------------
Label_567C7B:
 BYTE   W42
 BYTE   N44  Gn3  v104
 BYTE   W48
 BYTE   As3
 BYTE   W06
 BYTE   PEND 
//  #03 //003   ----------------------------------------
 BYTE   W42
 BYTE   N92  Cn4
 BYTE   W54
//  #03 //004   ----------------------------------------
 BYTE   PATT
  POIN2 Label_567C7B
//  #03 //005   ----------------------------------------
 BYTE   W42
 BYTE   N92  Gn3  v104
 BYTE   W54
//  #03 //006   ----------------------------------------
 BYTE   PATT
  POIN2 Label_567C7B
//  #03 //007   ----------------------------------------
 BYTE   W42
 BYTE   N92  Cn4  v104
 BYTE   W54
//  #03 //008   ----------------------------------------
 BYTE   PATT
  POIN2 Label_567C7B
//  #03 //009   ----------------------------------------
 BYTE   W42
 BYTE   N92  Gn3  v104
 BYTE   W54
//  #03 //010   ----------------------------------------
 BYTE   PATT
  POIN2 Label_567C7B
//  #03 //011   ----------------------------------------
 BYTE   W42
 BYTE   N92  Cn4  v104
 BYTE   W54
//  #03 //012   ----------------------------------------
 BYTE   W42
 BYTE   GoTo
  POIN2 Label_567C6A
//  #03 //013   ----------------------------------------
 BYTE   N44  Gn3  v104
 BYTE   W48
 BYTE   As3
 BYTE   W06
 BYTE   W42
//  #03 //014   ----------------------------------------
 BYTE   N92  Gn3
 BYTE   W54
//  #03 //015   ----------------------------------------
 BYTE   PATT
  POIN2 Label_567C7B
//  #03 //016   ----------------------------------------
 BYTE   W42
 BYTE   N92  Cn4  v104
 BYTE   W54
//  #03 //017   ----------------------------------------
 BYTE   W40
 BYTE   W01
 BYTE   FINE

//**************** Track 4 (Midi-Chn.3) ****************//

song2C_004:
//  #04 //000   ----------------------------------------
 BYTE   KEYSH   song2C_key+0
Label_567CCE:
 BYTE   VOICE   40
 BYTE   VOL   22*song2C_mvl/mxv
 BYTE   PAN   c_v-14
 BYTE   W42
 BYTE   N44  Dn4  v104
 BYTE   W48
 BYTE   Fn4
 BYTE   W06
//  #04 //001   ----------------------------------------
 BYTE   W42
 BYTE   N92  Dn4
 BYTE   W54
//  #04 //002   ----------------------------------------
Label_567CDF:
 BYTE   W42
 BYTE   N44  Dn4  v104
 BYTE   W48
 BYTE   Fn4
 BYTE   W06
 BYTE   PEND 
//  #04 //003   ----------------------------------------
 BYTE   W42
 BYTE   N92  Gn4
 BYTE   W54
//  #04 //004   ----------------------------------------
 BYTE   PATT
  POIN2 Label_567CDF
//  #04 //005   ----------------------------------------
 BYTE   W42
 BYTE   N92  Dn4  v104
 BYTE   W54
//  #04 //006   ----------------------------------------
 BYTE   PATT
  POIN2 Label_567CDF
//  #04 //007   ----------------------------------------
 BYTE   W42
 BYTE   N92  Gn4  v104
 BYTE   W54
//  #04 //008   ----------------------------------------
 BYTE   PATT
  POIN2 Label_567CDF
//  #04 //009   ----------------------------------------
 BYTE   W42
 BYTE   N92  Dn4  v104
 BYTE   W54
//  #04 //010   ----------------------------------------
 BYTE   PATT
  POIN2 Label_567CDF
//  #04 //011   ----------------------------------------
 BYTE   W42
 BYTE   N92  Gn4  v104
 BYTE   W54
//  #04 //012   ----------------------------------------
 BYTE   W42
 BYTE   GoTo
  POIN2 Label_567CCE
//  #04 //013   ----------------------------------------
 BYTE   N44  Dn4  v104
 BYTE   W48
 BYTE   Fn4
 BYTE   W06
 BYTE   W42
//  #04 //014   ----------------------------------------
 BYTE   N92  Dn4
 BYTE   W54
//  #04 //015   ----------------------------------------
 BYTE   PATT
  POIN2 Label_567CDF
//  #04 //016   ----------------------------------------
 BYTE   W42
 BYTE   N92  Gn4  v104
 BYTE   W54
//  #04 //017   ----------------------------------------
 BYTE   W40
 BYTE   W01
 BYTE   FINE

//**************** Track 5 (Midi-Chn.4) ****************//

song2C_005:
//  #05 //000   ----------------------------------------
 BYTE   KEYSH   song2C_key+0
Label_56816E:
 BYTE   VOICE   40
 BYTE   VOL   23*song2C_mvl/mxv
 BYTE   PAN   c_v+14
 BYTE   W42
 BYTE   N44  Ds4  v104
 BYTE   W48
 BYTE   Fs4
 BYTE   W06
//  #05 //001   ----------------------------------------
 BYTE   W42
 BYTE   N92  Ds4
 BYTE   W54
//  #05 //002   ----------------------------------------
Label_56817F:
 BYTE   W42
 BYTE   N44  Ds4  v104
 BYTE   W48
 BYTE   Fs4
 BYTE   W06
 BYTE   PEND 
//  #05 //003   ----------------------------------------
 BYTE   W42
 BYTE   N92  Gs4
 BYTE   W54
//  #05 //004   ----------------------------------------
 BYTE   PATT
  POIN2 Label_56817F
//  #05 //005   ----------------------------------------
 BYTE   W42
 BYTE   N92  Ds4  v104
 BYTE   W54
//  #05 //006   ----------------------------------------
 BYTE   PATT
  POIN2 Label_56817F
//  #05 //007   ----------------------------------------
 BYTE   W42
 BYTE   N92  Gs4  v104
 BYTE   W54
//  #05 //008   ----------------------------------------
 BYTE   PATT
  POIN2 Label_56817F
//  #05 //009   ----------------------------------------
 BYTE   W42
 BYTE   N92  Ds4  v104
 BYTE   W54
//  #05 //010   ----------------------------------------
 BYTE   PATT
  POIN2 Label_56817F
//  #05 //011   ----------------------------------------
 BYTE   W42
 BYTE   N92  Gs4  v104
 BYTE   W54
//  #05 //012   ----------------------------------------
 BYTE   W42
 BYTE   GoTo
  POIN2 Label_56816E
//  #05 //013   ----------------------------------------
 BYTE   N44  Ds4  v104
 BYTE   W48
 BYTE   Fs4
 BYTE   W06
 BYTE   W42
//  #05 //014   ----------------------------------------
 BYTE   N92  Ds4
 BYTE   W54
//  #05 //015   ----------------------------------------
 BYTE   PATT
  POIN2 Label_56817F
//  #05 //016   ----------------------------------------
 BYTE   W42
 BYTE   N92  Gs4  v104
 BYTE   W54
//  #05 //017   ----------------------------------------
 BYTE   W40
 BYTE   W01
 BYTE   FINE

//**************** Track 6 (Midi-Chn.5) ****************//

song2C_006:
//  #06 //000   ----------------------------------------
 BYTE   KEYSH   song2C_key+0
Label_5681D2:
 BYTE   VOICE   40
 BYTE   VOL   25*song2C_mvl/mxv
 BYTE   PAN   c_v+14
 BYTE   W42
 BYTE   N44  Gn4  v104
 BYTE   W48
 BYTE   As4
 BYTE   W06
//  #06 //001   ----------------------------------------
 BYTE   W42
 BYTE   N92  Gn4
 BYTE   W54
//  #06 //002   ----------------------------------------
Label_5681E3:
 BYTE   W42
 BYTE   N44  Gn4  v104
 BYTE   W48
 BYTE   As4
 BYTE   W06
 BYTE   PEND 
//  #06 //003   ----------------------------------------
 BYTE   W42
 BYTE   N92  Cn5
 BYTE   W54
//  #06 //004   ----------------------------------------
 BYTE   PATT
  POIN2 Label_5681E3
//  #06 //005   ----------------------------------------
 BYTE   W42
 BYTE   N92  Gn4  v104
 BYTE   W54
//  #06 //006   ----------------------------------------
 BYTE   PATT
  POIN2 Label_5681E3
//  #06 //007   ----------------------------------------
 BYTE   W42
 BYTE   N92  Cn5  v104
 BYTE   W54
//  #06 //008   ----------------------------------------
 BYTE   PATT
  POIN2 Label_5681E3
//  #06 //009   ----------------------------------------
 BYTE   W42
 BYTE   N92  Gn4  v104
 BYTE   W54
//  #06 //010   ----------------------------------------
 BYTE   PATT
  POIN2 Label_5681E3
//  #06 //011   ----------------------------------------
 BYTE   W42
 BYTE   N92  Cn5  v104
 BYTE   W54
//  #06 //012   ----------------------------------------
 BYTE   W42
 BYTE   GoTo
  POIN2 Label_5681D2
//  #06 //013   ----------------------------------------
 BYTE   N44  Gn4  v104
 BYTE   W48
 BYTE   As4
 BYTE   W06
 BYTE   W42
//  #06 //014   ----------------------------------------
 BYTE   N92  Gn4
 BYTE   W54
//  #06 //015   ----------------------------------------
 BYTE   PATT
  POIN2 Label_5681E3
//  #06 //016   ----------------------------------------
 BYTE   W42
 BYTE   N92  Cn5  v104
 BYTE   W54
//  #06 //017   ----------------------------------------
 BYTE   W40
 BYTE   W01
 BYTE   FINE

//**************** Track 7 (Midi-Chn.6) ****************//

song2C_007:
//  #07 //000   ----------------------------------------
 BYTE   KEYSH   song2C_key+0
Label_568236:
 BYTE   VOICE   14
 BYTE   VOL   56*song2C_mvl/mxv
 BYTE   PAN   c_v-49
 BYTE   N11  Cn3  v104
 BYTE   W12
 BYTE   N11
 BYTE   W12
 BYTE   N11
 BYTE   W12
 BYTE   N11
 BYTE   W12
 BYTE   N11
 BYTE   W12
 BYTE   N11
 BYTE   W12
 BYTE   N11
 BYTE   W12
 BYTE   N11
 BYTE   W12
//  #07 //001   ----------------------------------------
Label_56824E:
 BYTE   N11  Cn3  v104
 BYTE   W12
 BYTE   N11
 BYTE   W12
 BYTE   N11
 BYTE   W12
 BYTE   N11
 BYTE   W12
 BYTE   N11
 BYTE   W12
 BYTE   N11
 BYTE   W12
 BYTE   N11
 BYTE   W12
 BYTE   N11
 BYTE   W12
 BYTE   PEND 
//  #07 //002   ----------------------------------------
 BYTE   PATT
  POIN2 Label_56824E
//  #07 //003   ----------------------------------------
 BYTE   PATT
  POIN2 Label_56824E
//  #07 //004   ----------------------------------------
 BYTE   PATT
  POIN2 Label_56824E
//  #07 //005   ----------------------------------------
 BYTE   PATT
  POIN2 Label_56824E
//  #07 //006   ----------------------------------------
 BYTE   PATT
  POIN2 Label_56824E
//  #07 //007   ----------------------------------------
 BYTE   PATT
  POIN2 Label_56824E
//  #07 //008   ----------------------------------------
 BYTE   PATT
  POIN2 Label_56824E
//  #07 //009   ----------------------------------------
 BYTE   PATT
  POIN2 Label_56824E
//  #07 //010   ----------------------------------------
 BYTE   PATT
  POIN2 Label_56824E
//  #07 //011   ----------------------------------------
 BYTE   PATT
  POIN2 Label_56824E
//  #07 //012   ----------------------------------------
 BYTE   N11  Cn3  v104
 BYTE   W12
 BYTE   N11
 BYTE   W12
 BYTE   N11
 BYTE   W12
 BYTE   N11
 BYTE   W06
 BYTE   GoTo
  POIN2 Label_568236
//  #07 //013   ----------------------------------------
 BYTE   W06
 BYTE   N11  Cn3  v104
 BYTE   W12
 BYTE   N11
 BYTE   W12
 BYTE   N11
 BYTE   W12
 BYTE   N11
 BYTE   W12
//  #07 //014   ----------------------------------------
 BYTE   PATT
  POIN2 Label_56824E
//  #07 //015   ----------------------------------------
 BYTE   PATT
  POIN2 Label_56824E
//  #07 //016   ----------------------------------------
 BYTE   PATT
  POIN2 Label_56824E
//  #07 //017   ----------------------------------------
 BYTE   N11  Cn3  v104
 BYTE   W12
 BYTE   N11
 BYTE   W12
 BYTE   N11
 BYTE   W12
 BYTE   N05
 BYTE   W05
 BYTE   FINE

//**************** Track 8 (Midi-Chn.7) ****************//

song2C_008:
//  #08 //000   ----------------------------------------
 BYTE   KEYSH   song2C_key+0
Label_5682CA:
 BYTE   VOICE   14
 BYTE   VOL   55*song2C_mvl/mxv
 BYTE   PAN   c_v+49
 BYTE   N11  Cn3  v104
 BYTE   W12
 BYTE   N11
 BYTE   W12
 BYTE   N11
 BYTE   W12
 BYTE   N11
 BYTE   W12
 BYTE   N11
 BYTE   W12
 BYTE   N11
 BYTE   W12
 BYTE   N11
 BYTE   W12
 BYTE   N11
 BYTE   W12
//  #08 //001   ----------------------------------------
Label_5682E2:
 BYTE   N11  Cn3  v104
 BYTE   W12
 BYTE   N11
 BYTE   W12
 BYTE   N11
 BYTE   W12
 BYTE   N11
 BYTE   W12
 BYTE   N11
 BYTE   W12
 BYTE   N11
 BYTE   W12
 BYTE   N11
 BYTE   W12
 BYTE   N11
 BYTE   W12
 BYTE   PEND 
//  #08 //002   ----------------------------------------
 BYTE   PATT
  POIN2 Label_5682E2
//  #08 //003   ----------------------------------------
 BYTE   PATT
  POIN2 Label_5682E2
//  #08 //004   ----------------------------------------
 BYTE   PATT
  POIN2 Label_5682E2
//  #08 //005   ----------------------------------------
 BYTE   PATT
  POIN2 Label_5682E2
//  #08 //006   ----------------------------------------
 BYTE   PATT
  POIN2 Label_5682E2
//  #08 //007   ----------------------------------------
 BYTE   PATT
  POIN2 Label_5682E2
//  #08 //008   ----------------------------------------
 BYTE   PATT
  POIN2 Label_5682E2
//  #08 //009   ----------------------------------------
 BYTE   PATT
  POIN2 Label_5682E2
//  #08 //010   ----------------------------------------
 BYTE   PATT
  POIN2 Label_5682E2
//  #08 //011   ----------------------------------------
 BYTE   PATT
  POIN2 Label_5682E2
//  #08 //012   ----------------------------------------
 BYTE   N11  Cn3  v104
 BYTE   W12
 BYTE   N11
 BYTE   W12
 BYTE   N11
 BYTE   W12
 BYTE   N11
 BYTE   W06
 BYTE   GoTo
  POIN2 Label_5682CA
//  #08 //013   ----------------------------------------
 BYTE   W06
 BYTE   N11  Cn3  v104
 BYTE   W12
 BYTE   N11
 BYTE   W12
 BYTE   N11
 BYTE   W12
 BYTE   N11
 BYTE   W12
//  #08 //014   ----------------------------------------
 BYTE   PATT
  POIN2 Label_5682E2
//  #08 //015   ----------------------------------------
 BYTE   PATT
  POIN2 Label_5682E2
//  #08 //016   ----------------------------------------
 BYTE   PATT
  POIN2 Label_5682E2
//  #08 //017   ----------------------------------------
 BYTE   N11  Cn3  v104
 BYTE   W12
 BYTE   N11
 BYTE   W12
 BYTE   N11
 BYTE   W12
 BYTE   N05
 BYTE   W05
 BYTE   FINE

//******************************************************//
	ALIGN 4

song2C:
	BYTE	8	// NumTrks
	BYTE	0	// NumBlks
	BYTE	song2C_pri	// Priority
	BYTE	song2C_rev	// Reverb.
    
	POIN2	song2C_grp
    
	POIN2	song2C_001
	POIN2	song2C_002
	POIN2	song2C_003
	POIN2	song2C_004
	POIN2	song2C_005
	POIN2	song2C_006
	POIN2	song2C_007
	POIN2	song2C_008

	
