//Event file generated from Sappy .s format.
	#include "MPlayDef.event"

	#define	song14_grp  voicegroup000
	#define	song14_pri  0
	#define	song14_rev  0
	#define	song14_mvl  127
	#define	song14_key  0
	#define	song14_tbs  1
	#define	song14_exg  0
	#define	song14_cmp  1

	// .rodata
	//	song14
	ALIGN 4


//**************** Track 1 (Midi-Chn.0) ****************//

song14_001:
//  #01 //000   ----------------------------------------
 BYTE   KEYSH   song14_key+0
 BYTE   TEMPO   50*song14_tbs/2
 BYTE   VOICE   14
 BYTE   VOL   33*song14_mvl/mxv
 BYTE   PAN   c_v+14
 BYTE   W06
Label_0101B55F:
 BYTE   VOICE   14
 BYTE   VOL   33*song14_mvl/mxv
 BYTE   PAN   c_v+14
 BYTE   W02
 BYTE   N06  Ds3  v104
 BYTE   W08
 BYTE   N03  Ds3  v040
 BYTE   W04
 BYTE   N06  Ds3  v096
 BYTE   W08
 BYTE   N03  Ds3  v032
 BYTE   W04
 BYTE   N06  Ds3  v096
 BYTE   W08
 BYTE   N03  Ds3  v032
 BYTE   W04
 BYTE   N06  Ds3  v096
 BYTE   W08
 BYTE   N03  Ds3  v032
 BYTE   W04
 BYTE   N06  Ds3  v104
 BYTE   W08
 BYTE   N03  Ds3  v040
 BYTE   W04
 BYTE   N06  Ds3  v096
 BYTE   W08
 BYTE   N03  Ds3  v032
 BYTE   W04
 BYTE   N06  Ds3  v096
 BYTE   W08
 BYTE   N03  Ds3  v032
 BYTE   W04
 BYTE   N06  Ds3  v096
 BYTE   W04
//  #01 //001   ----------------------------------------
Label_0101B5A2:
 BYTE   W04
 BYTE   N03  Ds3  v032
 BYTE   W04
 BYTE   N06  Ds3  v104
 BYTE   W08
 BYTE   N03  Ds3  v040
 BYTE   W04
 BYTE   N06  Ds3  v096
 BYTE   W08
 BYTE   N03  Ds3  v032
 BYTE   W04
 BYTE   N06  Ds3  v096
 BYTE   W08
 BYTE   N03  Ds3  v032
 BYTE   W04
 BYTE   N06  Ds3  v096
 BYTE   W08
 BYTE   N03  Ds3  v032
 BYTE   W04
 BYTE   N06  Ds3  v104
 BYTE   W08
 BYTE   N03  Ds3  v040
 BYTE   W04
 BYTE   N06  Ds3  v096
 BYTE   W08
 BYTE   N03  Ds3  v032
 BYTE   W04
 BYTE   N06  Ds3  v096
 BYTE   W08
 BYTE   N03  Ds3  v032
 BYTE   W04
 BYTE   N06  Ds3  v096
 BYTE   W04
 BYTE   PEND 
//  #01 //002   ----------------------------------------
 BYTE   PATT
  POIN2 Label_0101B5A2
//  #01 //003   ----------------------------------------
 BYTE   PATT
  POIN2 Label_0101B5A2
//  #01 //004   ----------------------------------------
 BYTE   PATT
  POIN2 Label_0101B5A2
//  #01 //005   ----------------------------------------
 BYTE   PATT
  POIN2 Label_0101B5A2
//  #01 //006   ----------------------------------------
 BYTE   W04
 BYTE   N03  Ds3  v032
 BYTE   W04
 BYTE   N06  Cs3  v104
 BYTE   W08
 BYTE   N03  Cs3  v040
 BYTE   W04
 BYTE   N06  Cs3  v096
 BYTE   W08
 BYTE   N03  Cs3  v032
 BYTE   W04
 BYTE   N06  Cs3  v096
 BYTE   W08
 BYTE   N03  Cs3  v032
 BYTE   W04
 BYTE   N06  Cs3  v096
 BYTE   W08
 BYTE   N03  Cs3  v032
 BYTE   W04
 BYTE   N06  Cs3  v104
 BYTE   W08
 BYTE   N03  Cs3  v040
 BYTE   W04
 BYTE   N06  Cs3  v096
 BYTE   W08
 BYTE   N03  Cs3  v032
 BYTE   W04
 BYTE   N06  Cs3  v096
 BYTE   W08
 BYTE   N03  Cs3  v032
 BYTE   W04
 BYTE   N06  Cs3  v096
 BYTE   W04
//  #01 //007   ----------------------------------------
Label_0101B639:
 BYTE   W04
 BYTE   N03  Cs3  v032
 BYTE   W04
 BYTE   N06  Cs3  v104
 BYTE   W08
 BYTE   N03  Cs3  v040
 BYTE   W04
 BYTE   N06  Cs3  v096
 BYTE   W08
 BYTE   N03  Cs3  v032
 BYTE   W04
 BYTE   N06  Cs3  v096
 BYTE   W08
 BYTE   N03  Cs3  v032
 BYTE   W04
 BYTE   N06  Cs3  v096
 BYTE   W08
 BYTE   N03  Cs3  v032
 BYTE   W04
 BYTE   N06  Cs3  v104
 BYTE   W08
 BYTE   N03  Cs3  v040
 BYTE   W04
 BYTE   N06  Cs3  v096
 BYTE   W08
 BYTE   N03  Cs3  v032
 BYTE   W04
 BYTE   N06  Cs3  v096
 BYTE   W08
 BYTE   N03  Cs3  v032
 BYTE   W04
 BYTE   N06  Cs3  v096
 BYTE   W04
 BYTE   PEND 
//  #01 //008   ----------------------------------------
 BYTE   PATT
  POIN2 Label_0101B639
//  #01 //009   ----------------------------------------
 BYTE   W04
 BYTE   N03  Cs3  v032
 BYTE   W04
 BYTE   N06  Ds3  v104
 BYTE   W08
 BYTE   N03  Ds3  v040
 BYTE   W04
 BYTE   N06  Ds3  v096
 BYTE   W08
 BYTE   N03  Ds3  v032
 BYTE   W04
 BYTE   N06  Ds3  v096
 BYTE   W08
 BYTE   N03  Ds3  v032
 BYTE   W04
 BYTE   N06  Ds3  v096
 BYTE   W08
 BYTE   N03  Ds3  v032
 BYTE   W04
 BYTE   N06  Ds3  v104
 BYTE   W08
 BYTE   N03  Ds3  v040
 BYTE   W04
 BYTE   N06  Ds3  v096
 BYTE   W08
 BYTE   N03  Ds3  v032
 BYTE   W04
 BYTE   N06  Ds3  v096
 BYTE   W08
 BYTE   N03  Ds3  v032
 BYTE   W04
 BYTE   N06  Ds3  v096
 BYTE   W04
//  #01 //010   ----------------------------------------
 BYTE   PATT
  POIN2 Label_0101B5A2
//  #01 //011   ----------------------------------------
 BYTE   PATT
  POIN2 Label_0101B5A2
//  #01 //012   ----------------------------------------
 BYTE   PATT
  POIN2 Label_0101B5A2
//  #01 //013   ----------------------------------------
 BYTE   W04
 BYTE   N03  Ds3  v032
 BYTE   W04
 BYTE   VOICE   41
 BYTE   VOL   60*song14_mvl/mxv
 BYTE   PAN   c_v-25
 BYTE   VOL   30*song14_mvl/mxv
 BYTE   N14  Cs3
 BYTE   W01
 BYTE   VOL   32*song14_mvl/mxv
 BYTE   W01
 BYTE   VOL   34*song14_mvl/mxv
 BYTE   W01
 BYTE   VOL   36*song14_mvl/mxv
 BYTE   W01
 BYTE   VOL   37*song14_mvl/mxv
 BYTE   W01
 BYTE   VOL   39*song14_mvl/mxv
 BYTE   W01
 BYTE   VOL   40*song14_mvl/mxv
 BYTE   W01
 BYTE   VOL   42*song14_mvl/mxv
 BYTE   W01
 BYTE   VOL   44*song14_mvl/mxv
 BYTE   W01
 BYTE   VOL   46*song14_mvl/mxv
 BYTE   W01
 BYTE   VOL   47*song14_mvl/mxv
 BYTE   W01
 BYTE   VOL   49*song14_mvl/mxv
 BYTE   W01
 BYTE   VOL   50*song14_mvl/mxv
 BYTE   W01
 BYTE   VOL   52*song14_mvl/mxv
 BYTE   W01
 BYTE   VOL   54*song14_mvl/mxv
 BYTE   W01
 BYTE   VOL   56*song14_mvl/mxv
 BYTE   W01
 BYTE   VOL   57*song14_mvl/mxv
 BYTE   W01
 BYTE   VOL   59*song14_mvl/mxv
 BYTE   W01
 BYTE   VOL   60*song14_mvl/mxv
 BYTE   N02
 BYTE   W03
 BYTE   N02
 BYTE   W03
 BYTE   N04
 BYTE   W06
 BYTE   N02
 BYTE   W03
 BYTE   N02
 BYTE   W03
 BYTE   N04
 BYTE   W06
 BYTE   N02
 BYTE   W03
 BYTE   N02
 BYTE   W03
 BYTE   N04
 BYTE   W06
 BYTE   N04
 BYTE   W06
 BYTE   N04
 BYTE   W06
 BYTE   N04
 BYTE   W06
 BYTE   VOL   50*song14_mvl/mxv
 BYTE   N14  Fn3
 BYTE   W01
 BYTE   VOL   50*song14_mvl/mxv
 BYTE   W01
 BYTE   VOL   51*song14_mvl/mxv
 BYTE   W01
 BYTE   VOL   52*song14_mvl/mxv
 BYTE   W01
 BYTE   VOL   52*song14_mvl/mxv
 BYTE   W01
 BYTE   VOL   53*song14_mvl/mxv
 BYTE   W02
 BYTE   VOL   54*song14_mvl/mxv
 BYTE   W01
 BYTE   VOL   54*song14_mvl/mxv
 BYTE   W01
 BYTE   VOL   55*song14_mvl/mxv
 BYTE   W01
 BYTE   VOL   56*song14_mvl/mxv
 BYTE   W01
 BYTE   VOL   56*song14_mvl/mxv
 BYTE   W02
 BYTE   VOL   57*song14_mvl/mxv
 BYTE   W01
 BYTE   VOL   58*song14_mvl/mxv
 BYTE   W01
 BYTE   VOL   58*song14_mvl/mxv
 BYTE   W01
//  #01 //014   ----------------------------------------
 BYTE   VOL   59*song14_mvl/mxv
 BYTE   W01
 BYTE   VOL   60*song14_mvl/mxv
 BYTE   W01
 BYTE   N02
 BYTE   W03
 BYTE   N02
 BYTE   W03
 BYTE   N04
 BYTE   W06
 BYTE   N02
 BYTE   W03
 BYTE   N02
 BYTE   W03
 BYTE   N04
 BYTE   W06
 BYTE   N02
 BYTE   W03
 BYTE   N02
 BYTE   W03
 BYTE   N04
 BYTE   W06
 BYTE   N04
 BYTE   W06
 BYTE   N04
 BYTE   W06
 BYTE   N04
 BYTE   W06
 BYTE   VOL   50*song14_mvl/mxv
 BYTE   N14  Gs3
 BYTE   W01
 BYTE   VOL   50*song14_mvl/mxv
 BYTE   W01
 BYTE   VOL   51*song14_mvl/mxv
 BYTE   W01
 BYTE   VOL   52*song14_mvl/mxv
 BYTE   W01
 BYTE   VOL   52*song14_mvl/mxv
 BYTE   W01
 BYTE   VOL   53*song14_mvl/mxv
 BYTE   W02
 BYTE   VOL   54*song14_mvl/mxv
 BYTE   W01
 BYTE   VOL   54*song14_mvl/mxv
 BYTE   W01
 BYTE   VOL   55*song14_mvl/mxv
 BYTE   W01
 BYTE   VOL   56*song14_mvl/mxv
 BYTE   W01
 BYTE   VOL   56*song14_mvl/mxv
 BYTE   W02
 BYTE   VOL   57*song14_mvl/mxv
 BYTE   W01
 BYTE   VOL   58*song14_mvl/mxv
 BYTE   W01
 BYTE   VOL   58*song14_mvl/mxv
 BYTE   W01
 BYTE   VOL   59*song14_mvl/mxv
 BYTE   W01
 BYTE   VOL   60*song14_mvl/mxv
 BYTE   W01
 BYTE   N02
 BYTE   W03
 BYTE   N02
 BYTE   W03
 BYTE   N04
 BYTE   W06
 BYTE   N02
 BYTE   W03
 BYTE   N02
 BYTE   W03
 BYTE   N04
 BYTE   W04
//  #01 //015   ----------------------------------------
 BYTE   W02
 BYTE   N02
 BYTE   W03
 BYTE   N02
 BYTE   W03
 BYTE   N04
 BYTE   W06
 BYTE   N04
 BYTE   W06
 BYTE   N04
 BYTE   W06
 BYTE   N04
 BYTE   W06
 BYTE   VOL   34*song14_mvl/mxv
 BYTE   N36
 BYTE   W01
 BYTE   VOL   35*song14_mvl/mxv
 BYTE   W01
 BYTE   VOL   36*song14_mvl/mxv
 BYTE   W01
 BYTE   VOL   37*song14_mvl/mxv
 BYTE   W01
 BYTE   VOL   38*song14_mvl/mxv
 BYTE   W01
 BYTE   VOL   39*song14_mvl/mxv
 BYTE   W01
 BYTE   VOL   40*song14_mvl/mxv
 BYTE   W01
 BYTE   VOL   42*song14_mvl/mxv
 BYTE   W01
 BYTE   VOL   42*song14_mvl/mxv
 BYTE   W01
 BYTE   VOL   44*song14_mvl/mxv
 BYTE   W01
 BYTE   VOL   45*song14_mvl/mxv
 BYTE   W01
 BYTE   VOL   46*song14_mvl/mxv
 BYTE   W01
 BYTE   VOL   47*song14_mvl/mxv
 BYTE   W01
 BYTE   VOL   48*song14_mvl/mxv
 BYTE   W01
 BYTE   VOL   49*song14_mvl/mxv
 BYTE   W01
 BYTE   VOL   50*song14_mvl/mxv
 BYTE   W01
 BYTE   VOL   52*song14_mvl/mxv
 BYTE   W01
 BYTE   VOL   52*song14_mvl/mxv
 BYTE   W01
 BYTE   VOL   54*song14_mvl/mxv
 BYTE   W01
 BYTE   VOL   55*song14_mvl/mxv
 BYTE   W01
 BYTE   VOL   56*song14_mvl/mxv
 BYTE   W01
 BYTE   VOL   57*song14_mvl/mxv
 BYTE   W01
 BYTE   VOL   58*song14_mvl/mxv
 BYTE   W01
 BYTE   VOL   59*song14_mvl/mxv
 BYTE   W01
 BYTE   VOL   60*song14_mvl/mxv
 BYTE   W24
 BYTE   VOICE   14
 BYTE   VOL   33*song14_mvl/mxv
 BYTE   PAN   c_v+14
 BYTE   N06  Cs3  v104
 BYTE   W08
 BYTE   N03  Cs3  v040
 BYTE   W04
 BYTE   N06  Cs3  v096
 BYTE   W04
//  #01 //016   ----------------------------------------
Label_0101B7DC:
 BYTE   W04
 BYTE   N03  Cs3  v032
 BYTE   W04
 BYTE   N06  Cs3  v096
 BYTE   W08
 BYTE   N03  Cs3  v032
 BYTE   W04
 BYTE   N06  Cs3  v096
 BYTE   W08
 BYTE   N03  Cs3  v032
 BYTE   W04
 BYTE   N06  Cs3  v104
 BYTE   W08
 BYTE   N03  Cs3  v040
 BYTE   W04
 BYTE   N06  Cs3  v096
 BYTE   W08
 BYTE   N03  Cs3  v032
 BYTE   W04
 BYTE   N06  Cs3  v096
 BYTE   W08
 BYTE   N03  Cs3  v032
 BYTE   W04
 BYTE   N06  Cs3  v096
 BYTE   W08
 BYTE   N03  Cs3  v032
 BYTE   W04
 BYTE   N06  Cs3  v104
 BYTE   W08
 BYTE   N03  Cs3  v040
 BYTE   W04
 BYTE   N06  Cs3  v096
 BYTE   W04
 BYTE   PEND 
//  #01 //017   ----------------------------------------
 BYTE   PATT
  POIN2 Label_0101B7DC
//  #01 //018   ----------------------------------------
 BYTE   W04
 BYTE   N03  Cs3  v032
 BYTE   W04
 BYTE   N06  Cs3  v096
 BYTE   W08
 BYTE   N03  Cs3  v032
 BYTE   W04
 BYTE   N06  Cs3  v096
 BYTE   W08
 BYTE   N03  Cs3  v032
 BYTE   W04
 BYTE   N06  Cs3  v104
 BYTE   W08
 BYTE   N03  Cs3  v040
 BYTE   W04
 BYTE   N06  Cs3  v096
 BYTE   W08
 BYTE   N03  Cs3  v032
 BYTE   W04
 BYTE   N06  Cs3  v096
 BYTE   W08
 BYTE   N03  Cs3  v032
 BYTE   W04
 BYTE   N06  Cs3  v096
 BYTE   W08
 BYTE   N03  Cs3  v032
 BYTE   W02
 BYTE   GoTo
  POIN2 Label_0101B55F
//  #01 //019   ----------------------------------------
 BYTE   VOICE   14
 BYTE   VOL   33*song14_mvl/mxv
 BYTE   PAN   c_v+14
 BYTE   W03
 BYTE   N06  Ds3  v104
 BYTE   W08
 BYTE   N03  Ds3  v040
 BYTE   W04
 BYTE   N06  Ds3  v096
 BYTE   W03
Label_0101B870:
 BYTE   W05
 BYTE   N03  Ds3  v032
 BYTE   W04
 BYTE   N06  Ds3  v096
 BYTE   W08
 BYTE   N03  Ds3  v032
 BYTE   W04
 BYTE   N06  Ds3  v096
 BYTE   W08
 BYTE   N03  Ds3  v032
 BYTE   W04
 BYTE   N06  Ds3  v104
 BYTE   W08
 BYTE   N03  Ds3  v040
 BYTE   W04
 BYTE   N06  Ds3  v096
 BYTE   W08
 BYTE   N03  Ds3  v032
 BYTE   W04
 BYTE   N06  Ds3  v096
 BYTE   W08
 BYTE   N03  Ds3  v032
 BYTE   W04
 BYTE   N06  Ds3  v096
 BYTE   W08
 BYTE   N03  Ds3  v032
 BYTE   W04
//  #01 //020   ----------------------------------------
 BYTE   N06  Ds3  v104
 BYTE   W08
 BYTE   N03  Ds3  v040
 BYTE   W04
 BYTE   N06  Ds3  v096
 BYTE   W03
 BYTE   PEND 
//  #01 //021   ----------------------------------------
 BYTE   PATT
  POIN2 Label_0101B870
//  #01 //022   ----------------------------------------
 BYTE   PATT
  POIN2 Label_0101B870
//  #01 //023   ----------------------------------------
 BYTE   PATT
  POIN2 Label_0101B870
//  #01 //024   ----------------------------------------
 BYTE   PATT
  POIN2 Label_0101B870
//  #01 //025   ----------------------------------------
 BYTE   W05
 BYTE   N03  Ds3  v032
 BYTE   W04
 BYTE   N06  Ds3  v096
 BYTE   W08
 BYTE   N03  Ds3  v032
 BYTE   W04
 BYTE   N06  Ds3  v096
 BYTE   W08
 BYTE   N03  Ds3  v032
 BYTE   W04
 BYTE   N06  Ds3  v104
 BYTE   W08
 BYTE   N03  Ds3  v040
 BYTE   W04
 BYTE   N06  Ds3  v096
 BYTE   W08
 BYTE   N03  Ds3  v032
 BYTE   W04
 BYTE   N06  Ds3  v096
 BYTE   W08
 BYTE   N03  Ds3  v032
 BYTE   W04
 BYTE   N06  Ds3  v096
 BYTE   W08
 BYTE   N03  Ds3  v032
 BYTE   W04
 BYTE   N06  Cs3  v104
 BYTE   W08
 BYTE   N03  Cs3  v040
 BYTE   W04
 BYTE   N06  Cs3  v096
 BYTE   W03
//  #01 //026   ----------------------------------------
Label_0101B907:
 BYTE   W05
 BYTE   N03  Cs3  v032
 BYTE   W04
 BYTE   N06  Cs3  v096
 BYTE   W08
 BYTE   N03  Cs3  v032
 BYTE   W04
 BYTE   N06  Cs3  v096
 BYTE   W08
 BYTE   N03  Cs3  v032
 BYTE   W04
 BYTE   N06  Cs3  v104
 BYTE   W08
 BYTE   N03  Cs3  v040
 BYTE   W04
 BYTE   N06  Cs3  v096
 BYTE   W08
 BYTE   N03  Cs3  v032
 BYTE   W04
 BYTE   N06  Cs3  v096
 BYTE   W08
 BYTE   N03  Cs3  v032
 BYTE   W04
 BYTE   N06  Cs3  v096
 BYTE   W08
 BYTE   N03  Cs3  v032
 BYTE   W04
 BYTE   N06  Cs3  v104
 BYTE   W08
 BYTE   N03  Cs3  v040
 BYTE   W04
 BYTE   N06  Cs3  v096
 BYTE   W03
 BYTE   PEND 
//  #01 //027   ----------------------------------------
 BYTE   PATT
  POIN2 Label_0101B907
//  #01 //028   ----------------------------------------
 BYTE   W05
 BYTE   N03  Cs3  v032
 BYTE   W04
 BYTE   N06  Cs3  v096
 BYTE   W08
 BYTE   N03  Cs3  v032
 BYTE   W04
 BYTE   N06  Cs3  v096
 BYTE   W08
 BYTE   N03  Cs3  v032
 BYTE   W04
 BYTE   N06  Cs3  v104
 BYTE   W08
 BYTE   N03  Cs3  v040
 BYTE   W04
 BYTE   N06  Cs3  v096
 BYTE   W08
 BYTE   N03  Cs3  v032
 BYTE   W04
 BYTE   N06  Cs3  v096
 BYTE   W08
 BYTE   N03  Cs3  v032
 BYTE   W04
 BYTE   N06  Cs3  v096
 BYTE   W08
 BYTE   N03  Cs3  v032
 BYTE   W04
 BYTE   N06  Ds3  v104
 BYTE   W08
 BYTE   N03  Ds3  v040
 BYTE   W04
 BYTE   N06  Ds3  v096
 BYTE   W03
//  #01 //029   ----------------------------------------
 BYTE   PATT
  POIN2 Label_0101B870
//  #01 //030   ----------------------------------------
 BYTE   PATT
  POIN2 Label_0101B870
//  #01 //031   ----------------------------------------
 BYTE   PATT
  POIN2 Label_0101B870
//  #01 //032   ----------------------------------------
 BYTE   W05
 BYTE   N03  Ds3  v032
 BYTE   W04
 BYTE   N06  Ds3  v096
 BYTE   W08
 BYTE   N03  Ds3  v032
 BYTE   W04
 BYTE   N06  Ds3  v096
 BYTE   W08
 BYTE   N03  Ds3  v032
 BYTE   W04
 BYTE   N06  Ds3  v104
 BYTE   W08
 BYTE   N03  Ds3  v040
 BYTE   W04
 BYTE   N06  Ds3  v096
 BYTE   W08
 BYTE   N03  Ds3  v032
 BYTE   W04
 BYTE   N06  Ds3  v096
 BYTE   W08
 BYTE   N03  Ds3  v032
 BYTE   W04
 BYTE   N06  Ds3  v096
 BYTE   W08
 BYTE   N03  Ds3  v032
 BYTE   W04
 BYTE   VOICE   41
 BYTE   VOL   60*song14_mvl/mxv
 BYTE   PAN   c_v-25
 BYTE   VOL   32*song14_mvl/mxv
 BYTE   N14  Cs3
 BYTE   W01
 BYTE   VOL   33*song14_mvl/mxv
 BYTE   W01
 BYTE   VOL   35*song14_mvl/mxv
 BYTE   W01
 BYTE   VOL   36*song14_mvl/mxv
 BYTE   W01
 BYTE   VOL   38*song14_mvl/mxv
 BYTE   W01
 BYTE   VOL   40*song14_mvl/mxv
 BYTE   W01
 BYTE   VOL   42*song14_mvl/mxv
 BYTE   W01
 BYTE   VOL   43*song14_mvl/mxv
 BYTE   W01
 BYTE   VOL   45*song14_mvl/mxv
 BYTE   W01
 BYTE   VOL   46*song14_mvl/mxv
 BYTE   W01
 BYTE   VOL   48*song14_mvl/mxv
 BYTE   W01
 BYTE   VOL   50*song14_mvl/mxv
 BYTE   W01
 BYTE   VOL   52*song14_mvl/mxv
 BYTE   W01
 BYTE   VOL   53*song14_mvl/mxv
 BYTE   W01
 BYTE   VOL   55*song14_mvl/mxv
 BYTE   W01
//  #01 //033   ----------------------------------------
 BYTE   VOL   56*song14_mvl/mxv
 BYTE   W01
 BYTE   VOL   58*song14_mvl/mxv
 BYTE   W01
 BYTE   VOL   60*song14_mvl/mxv
 BYTE   W01
 BYTE   N02
 BYTE   W03
 BYTE   N02
 BYTE   W03
 BYTE   N04
 BYTE   W06
 BYTE   N02
 BYTE   W03
 BYTE   N02
 BYTE   W03
 BYTE   N04
 BYTE   W06
 BYTE   N02
 BYTE   W03
 BYTE   N02
 BYTE   W03
 BYTE   N04
 BYTE   W06
 BYTE   N04
 BYTE   W06
 BYTE   N04
 BYTE   W06
 BYTE   N04
 BYTE   W06
 BYTE   VOL   50*song14_mvl/mxv
 BYTE   N14  Fn3
 BYTE   W01
 BYTE   VOL   51*song14_mvl/mxv
 BYTE   W01
 BYTE   VOL   52*song14_mvl/mxv
 BYTE   W02
 BYTE   VOL   52*song14_mvl/mxv
 BYTE   W01
 BYTE   VOL   53*song14_mvl/mxv
 BYTE   W01
 BYTE   VOL   54*song14_mvl/mxv
 BYTE   W01
 BYTE   VOL   54*song14_mvl/mxv
 BYTE   W01
 BYTE   VOL   55*song14_mvl/mxv
 BYTE   W02
 BYTE   VOL   56*song14_mvl/mxv
 BYTE   W01
 BYTE   VOL   56*song14_mvl/mxv
 BYTE   W01
 BYTE   VOL   57*song14_mvl/mxv
 BYTE   W01
 BYTE   VOL   58*song14_mvl/mxv
 BYTE   W01
 BYTE   VOL   58*song14_mvl/mxv
 BYTE   W02
 BYTE   VOL   59*song14_mvl/mxv
 BYTE   W01
 BYTE   VOL   60*song14_mvl/mxv
 BYTE   W01
 BYTE   N02
 BYTE   W03
 BYTE   N02
 BYTE   W03
 BYTE   N04
 BYTE   W06
 BYTE   N02
 BYTE   W03
 BYTE   N02
 BYTE   W03
 BYTE   N04
 BYTE   W03
//  #01 //034   ----------------------------------------
 BYTE   W03
 BYTE   N02
 BYTE   W03
 BYTE   N02
 BYTE   W03
 BYTE   N04
 BYTE   W06
 BYTE   N04
 BYTE   W06
 BYTE   N04
 BYTE   W06
 BYTE   N04
 BYTE   W06
 BYTE   VOL   50*song14_mvl/mxv
 BYTE   N14  Gs3
 BYTE   W01
 BYTE   VOL   51*song14_mvl/mxv
 BYTE   W01
 BYTE   VOL   52*song14_mvl/mxv
 BYTE   W02
 BYTE   VOL   52*song14_mvl/mxv
 BYTE   W01
 BYTE   VOL   53*song14_mvl/mxv
 BYTE   W01
 BYTE   VOL   54*song14_mvl/mxv
 BYTE   W01
 BYTE   VOL   54*song14_mvl/mxv
 BYTE   W01
 BYTE   VOL   55*song14_mvl/mxv
 BYTE   W02
 BYTE   VOL   56*song14_mvl/mxv
 BYTE   W01
 BYTE   VOL   56*song14_mvl/mxv
 BYTE   W01
 BYTE   VOL   57*song14_mvl/mxv
 BYTE   W01
 BYTE   VOL   58*song14_mvl/mxv
 BYTE   W01
 BYTE   VOL   58*song14_mvl/mxv
 BYTE   W02
 BYTE   VOL   59*song14_mvl/mxv
 BYTE   W01
 BYTE   VOL   60*song14_mvl/mxv
 BYTE   W01
 BYTE   N02
 BYTE   W03
 BYTE   N02
 BYTE   W03
 BYTE   N04
 BYTE   W06
 BYTE   N02
 BYTE   W03
 BYTE   N02
 BYTE   W03
 BYTE   N04
 BYTE   W06
 BYTE   N02
 BYTE   W03
 BYTE   N02
 BYTE   W03
 BYTE   N04
 BYTE   W06
 BYTE   N04
 BYTE   W06
 BYTE   N04
 BYTE   W03
//  #01 //035   ----------------------------------------
 BYTE   W03
 BYTE   N04
 BYTE   W06
 BYTE   VOL   34*song14_mvl/mxv
 BYTE   N36
 BYTE   W01
 BYTE   VOL   35*song14_mvl/mxv
 BYTE   W01
 BYTE   VOL   36*song14_mvl/mxv
 BYTE   W01
 BYTE   VOL   38*song14_mvl/mxv
 BYTE   W01
 BYTE   VOL   38*song14_mvl/mxv
 BYTE   W01
 BYTE   VOL   40*song14_mvl/mxv
 BYTE   W01
 BYTE   VOL   41*song14_mvl/mxv
 BYTE   W01
 BYTE   VOL   42*song14_mvl/mxv
 BYTE   W01
 BYTE   VOL   43*song14_mvl/mxv
 BYTE   W01
 BYTE   VOL   44*song14_mvl/mxv
 BYTE   W01
 BYTE   VOL   45*song14_mvl/mxv
 BYTE   W01
 BYTE   VOL   46*song14_mvl/mxv
 BYTE   W01
 BYTE   VOL   48*song14_mvl/mxv
 BYTE   W01
 BYTE   VOL   48*song14_mvl/mxv
 BYTE   W01
 BYTE   VOL   50*song14_mvl/mxv
 BYTE   W01
 BYTE   VOL   51*song14_mvl/mxv
 BYTE   W01
 BYTE   VOL   52*song14_mvl/mxv
 BYTE   W01
 BYTE   VOL   53*song14_mvl/mxv
 BYTE   W01
 BYTE   VOL   54*song14_mvl/mxv
 BYTE   W01
 BYTE   VOL   55*song14_mvl/mxv
 BYTE   W01
 BYTE   VOL   56*song14_mvl/mxv
 BYTE   W01
 BYTE   VOL   58*song14_mvl/mxv
 BYTE   W01
 BYTE   VOL   58*song14_mvl/mxv
 BYTE   W01
 BYTE   VOL   60*song14_mvl/mxv
 BYTE   W24
 BYTE   W01
 BYTE   VOICE   14
 BYTE   VOL   33*song14_mvl/mxv
 BYTE   PAN   c_v+14
 BYTE   N06  Cs3  v104
 BYTE   W08
 BYTE   N03  Cs3  v040
 BYTE   W04
 BYTE   N06  Cs3  v096
 BYTE   W08
 BYTE   N03  Cs3  v032
 BYTE   W04
 BYTE   N06  Cs3  v096
 BYTE   W08
 BYTE   N03  Cs3  v032
 BYTE   W04
 BYTE   N06  Cs3  v096
 BYTE   W03
//  #01 //036   ----------------------------------------
Label_0101BAE5:
 BYTE   W05
 BYTE   N03  Cs3  v032
 BYTE   W04
 BYTE   N06  Cs3  v104
 BYTE   W08
 BYTE   N03  Cs3  v040
 BYTE   W04
 BYTE   N06  Cs3  v096
 BYTE   W08
 BYTE   N03  Cs3  v032
 BYTE   W04
 BYTE   N06  Cs3  v096
 BYTE   W08
 BYTE   N03  Cs3  v032
 BYTE   W04
 BYTE   N06  Cs3  v096
 BYTE   W08
 BYTE   N03  Cs3  v032
 BYTE   W04
 BYTE   N06  Cs3  v104
 BYTE   W08
 BYTE   N03  Cs3  v040
 BYTE   W04
 BYTE   N06  Cs3  v096
 BYTE   W08
 BYTE   N03  Cs3  v032
 BYTE   W04
 BYTE   N06  Cs3  v096
 BYTE   W08
 BYTE   N03  Cs3  v032
 BYTE   W04
 BYTE   N06  Cs3  v096
 BYTE   W03
 BYTE   PEND 
//  #01 //037   ----------------------------------------
 BYTE   PATT
  POIN2 Label_0101BAE5
//  #01 //038   ----------------------------------------
 BYTE   W05
 BYTE   N03  Cs3  v032
 BYTE   W04
 BYTE   N06  Cs3  v104
 BYTE   W08
 BYTE   N03  Cs3  v040
 BYTE   W04
 BYTE   N06  Cs3  v096
 BYTE   W08
 BYTE   N03  Cs3  v032
 BYTE   W04
 BYTE   N06  Cs3  v096
 BYTE   W08
 BYTE   N03  Cs3  v032
 BYTE   W04
 BYTE   N06  Cs3  v096
 BYTE   W08
 BYTE   N03  Cs3  v032
 BYTE   W03
 BYTE   FINE

//**************** Track 2 (Midi-Chn.1) ****************//

song14_002:
//  #02 //000   ----------------------------------------
 BYTE   KEYSH   song14_key+0
 BYTE   VOICE   14
 BYTE   VOL   53*song14_mvl/mxv
 BYTE   PAN   c_v+25
 BYTE   W06
Label_0101BB5D:
 BYTE   VOICE   14
 BYTE   VOL   53*song14_mvl/mxv
 BYTE   PAN   c_v+25
 BYTE   N05  Ds3  v104
 BYTE   W07
 BYTE   N03  Ds3  v044
 BYTE   W05
 BYTE   N05  Ds3  v104
 BYTE   W07
 BYTE   N03  Ds3  v044
 BYTE   W05
 BYTE   N05  Ds3  v104
 BYTE   W07
 BYTE   N03  Ds3  v044
 BYTE   W05
 BYTE   N05  Ds3  v104
 BYTE   W07
 BYTE   N03  Ds3  v044
 BYTE   W05
 BYTE   N05  Ds3  v104
 BYTE   W07
 BYTE   N03  Ds3  v044
 BYTE   W05
 BYTE   N05  Ds3  v104
 BYTE   W07
 BYTE   N03  Ds3  v044
 BYTE   W05
 BYTE   N05  Ds3  v104
 BYTE   W07
 BYTE   N03  Ds3  v044
 BYTE   W05
 BYTE   N05  Ds3  v104
 BYTE   W06
//  #02 //001   ----------------------------------------
Label_0101BB9F:
 BYTE   W01
 BYTE   N03  Ds3  v044
 BYTE   W05
 BYTE   N05  Ds3  v104
 BYTE   W07
 BYTE   N03  Ds3  v044
 BYTE   W05
 BYTE   N05  Ds3  v104
 BYTE   W07
 BYTE   N03  Ds3  v044
 BYTE   W05
 BYTE   N05  Ds3  v104
 BYTE   W07
 BYTE   N03  Ds3  v044
 BYTE   W05
 BYTE   N05  Ds3  v104
 BYTE   W07
 BYTE   N03  Ds3  v044
 BYTE   W05
 BYTE   N05  Ds3  v104
 BYTE   W07
 BYTE   N03  Ds3  v044
 BYTE   W05
 BYTE   N05  Ds3  v104
 BYTE   W07
 BYTE   N03  Ds3  v044
 BYTE   W05
 BYTE   N05  Ds3  v104
 BYTE   W07
 BYTE   N03  Ds3  v044
 BYTE   W05
 BYTE   N05  Ds3  v104
 BYTE   W06
 BYTE   PEND 
//  #02 //002   ----------------------------------------
 BYTE   PATT
  POIN2 Label_0101BB9F
//  #02 //003   ----------------------------------------
 BYTE   PATT
  POIN2 Label_0101BB9F
//  #02 //004   ----------------------------------------
 BYTE   PATT
  POIN2 Label_0101BB9F
//  #02 //005   ----------------------------------------
 BYTE   PATT
  POIN2 Label_0101BB9F
//  #02 //006   ----------------------------------------
 BYTE   W01
 BYTE   N03  Ds3  v044
 BYTE   W05
 BYTE   N05  Cs3  v104
 BYTE   W07
 BYTE   N03  Cs3  v044
 BYTE   W05
 BYTE   N05  Cs3  v104
 BYTE   W07
 BYTE   N03  Cs3  v044
 BYTE   W05
 BYTE   N05  Cs3  v104
 BYTE   W07
 BYTE   N03  Cs3  v044
 BYTE   W05
 BYTE   N05  Cs3  v104
 BYTE   W07
 BYTE   N03  Cs3  v044
 BYTE   W05
 BYTE   N05  Cs3  v104
 BYTE   W07
 BYTE   N03  Cs3  v044
 BYTE   W05
 BYTE   N05  Cs3  v104
 BYTE   W07
 BYTE   N03  Cs3  v044
 BYTE   W05
 BYTE   N05  Cs3  v104
 BYTE   W07
 BYTE   N03  Cs3  v044
 BYTE   W05
 BYTE   N05  Cs3  v104
 BYTE   W06
//  #02 //007   ----------------------------------------
Label_0101BC36:
 BYTE   W01
 BYTE   N03  Cs3  v044
 BYTE   W05
 BYTE   N05  Cs3  v104
 BYTE   W07
 BYTE   N03  Cs3  v044
 BYTE   W05
 BYTE   N05  Cs3  v104
 BYTE   W07
 BYTE   N03  Cs3  v044
 BYTE   W05
 BYTE   N05  Cs3  v104
 BYTE   W07
 BYTE   N03  Cs3  v044
 BYTE   W05
 BYTE   N05  Cs3  v104
 BYTE   W07
 BYTE   N03  Cs3  v044
 BYTE   W05
 BYTE   N05  Cs3  v104
 BYTE   W07
 BYTE   N03  Cs3  v044
 BYTE   W05
 BYTE   N05  Cs3  v104
 BYTE   W07
 BYTE   N03  Cs3  v044
 BYTE   W05
 BYTE   N05  Cs3  v104
 BYTE   W07
 BYTE   N03  Cs3  v044
 BYTE   W05
 BYTE   N05  Cs3  v104
 BYTE   W06
 BYTE   PEND 
//  #02 //008   ----------------------------------------
 BYTE   PATT
  POIN2 Label_0101BC36
//  #02 //009   ----------------------------------------
 BYTE   W01
 BYTE   N03  Cs3  v044
 BYTE   W05
 BYTE   N05  Ds3  v104
 BYTE   W07
 BYTE   N03  Ds3  v044
 BYTE   W05
 BYTE   N05  Ds3  v104
 BYTE   W07
 BYTE   N03  Ds3  v044
 BYTE   W05
 BYTE   N05  Ds3  v104
 BYTE   W07
 BYTE   N03  Ds3  v044
 BYTE   W05
 BYTE   N05  Ds3  v104
 BYTE   W07
 BYTE   N03  Ds3  v044
 BYTE   W05
 BYTE   N05  Ds3  v104
 BYTE   W07
 BYTE   N03  Ds3  v044
 BYTE   W05
 BYTE   N05  Ds3  v104
 BYTE   W07
 BYTE   N03  Ds3  v044
 BYTE   W05
 BYTE   N05  Ds3  v104
 BYTE   W07
 BYTE   N03  Ds3  v044
 BYTE   W05
 BYTE   N05  Ds3  v104
 BYTE   W06
//  #02 //010   ----------------------------------------
 BYTE   PATT
  POIN2 Label_0101BB9F
//  #02 //011   ----------------------------------------
 BYTE   PATT
  POIN2 Label_0101BB9F
//  #02 //012   ----------------------------------------
 BYTE   PATT
  POIN2 Label_0101BB9F
//  #02 //013   ----------------------------------------
 BYTE   W01
 BYTE   N03  Ds3  v044
 BYTE   W05
 BYTE   VOICE   41
 BYTE   VOL   63*song14_mvl/mxv
 BYTE   PAN   c_v+25
 BYTE   VOL   32*song14_mvl/mxv
 BYTE   N14  Cs3
 BYTE   W01
 BYTE   VOL   34*song14_mvl/mxv
 BYTE   W01
 BYTE   VOL   35*song14_mvl/mxv
 BYTE   W01
 BYTE   VOL   37*song14_mvl/mxv
 BYTE   W01
 BYTE   VOL   39*song14_mvl/mxv
 BYTE   W01
 BYTE   VOL   41*song14_mvl/mxv
 BYTE   W01
 BYTE   VOL   42*song14_mvl/mxv
 BYTE   W01
 BYTE   VOL   44*song14_mvl/mxv
 BYTE   W01
 BYTE   VOL   46*song14_mvl/mxv
 BYTE   W01
 BYTE   VOL   48*song14_mvl/mxv
 BYTE   W01
 BYTE   VOL   50*song14_mvl/mxv
 BYTE   W01
 BYTE   VOL   52*song14_mvl/mxv
 BYTE   W01
 BYTE   VOL   54*song14_mvl/mxv
 BYTE   W01
 BYTE   VOL   56*song14_mvl/mxv
 BYTE   W01
 BYTE   VOL   58*song14_mvl/mxv
 BYTE   W01
 BYTE   VOL   59*song14_mvl/mxv
 BYTE   W01
 BYTE   VOL   61*song14_mvl/mxv
 BYTE   W01
 BYTE   VOL   63*song14_mvl/mxv
 BYTE   W01
 BYTE   N02
 BYTE   W03
 BYTE   N02
 BYTE   W03
 BYTE   N04
 BYTE   W06
 BYTE   N02
 BYTE   W03
 BYTE   N02
 BYTE   W03
 BYTE   N04
 BYTE   W06
 BYTE   N02
 BYTE   W03
 BYTE   N02
 BYTE   W03
 BYTE   N04
 BYTE   W06
 BYTE   N04
 BYTE   W06
 BYTE   N04
 BYTE   W06
 BYTE   N04
 BYTE   W06
 BYTE   VOL   54*song14_mvl/mxv
 BYTE   N14  Fn3
 BYTE   W01
 BYTE   VOL   54*song14_mvl/mxv
 BYTE   W01
 BYTE   VOL   55*song14_mvl/mxv
 BYTE   W02
 BYTE   VOL   56*song14_mvl/mxv
 BYTE   W01
 BYTE   VOL   56*song14_mvl/mxv
 BYTE   W01
 BYTE   VOL   57*song14_mvl/mxv
 BYTE   W01
 BYTE   VOL   58*song14_mvl/mxv
 BYTE   W01
 BYTE   VOL   58*song14_mvl/mxv
 BYTE   W02
 BYTE   VOL   59*song14_mvl/mxv
 BYTE   W01
 BYTE   VOL   60*song14_mvl/mxv
 BYTE   W01
 BYTE   VOL   60*song14_mvl/mxv
 BYTE   W01
 BYTE   VOL   61*song14_mvl/mxv
 BYTE   W01
 BYTE   VOL   62*song14_mvl/mxv
 BYTE   W02
 BYTE   VOL   62*song14_mvl/mxv
 BYTE   W01
 BYTE   VOL   63*song14_mvl/mxv
 BYTE   W01
//  #02 //014   ----------------------------------------
 BYTE   N02
 BYTE   W03
 BYTE   N02
 BYTE   W03
 BYTE   N04
 BYTE   W06
 BYTE   N02
 BYTE   W03
 BYTE   N02
 BYTE   W03
 BYTE   N04
 BYTE   W06
 BYTE   N02
 BYTE   W03
 BYTE   N02
 BYTE   W03
 BYTE   N04
 BYTE   W06
 BYTE   N04
 BYTE   W06
 BYTE   N04
 BYTE   W06
 BYTE   N04
 BYTE   W06
 BYTE   VOL   54*song14_mvl/mxv
 BYTE   N14  Gs3
 BYTE   W01
 BYTE   VOL   54*song14_mvl/mxv
 BYTE   W01
 BYTE   VOL   55*song14_mvl/mxv
 BYTE   W02
 BYTE   VOL   56*song14_mvl/mxv
 BYTE   W01
 BYTE   VOL   56*song14_mvl/mxv
 BYTE   W01
 BYTE   VOL   57*song14_mvl/mxv
 BYTE   W01
 BYTE   VOL   58*song14_mvl/mxv
 BYTE   W01
 BYTE   VOL   58*song14_mvl/mxv
 BYTE   W02
 BYTE   VOL   59*song14_mvl/mxv
 BYTE   W01
 BYTE   VOL   60*song14_mvl/mxv
 BYTE   W01
 BYTE   VOL   60*song14_mvl/mxv
 BYTE   W01
 BYTE   VOL   61*song14_mvl/mxv
 BYTE   W01
 BYTE   VOL   62*song14_mvl/mxv
 BYTE   W02
 BYTE   VOL   62*song14_mvl/mxv
 BYTE   W01
 BYTE   VOL   63*song14_mvl/mxv
 BYTE   W01
 BYTE   N02
 BYTE   W03
 BYTE   N02
 BYTE   W03
 BYTE   N04
 BYTE   W06
 BYTE   N02
 BYTE   W03
 BYTE   N02
 BYTE   W03
 BYTE   N04
 BYTE   W06
//  #02 //015   ----------------------------------------
 BYTE   N02
 BYTE   W03
 BYTE   N02
 BYTE   W03
 BYTE   N04
 BYTE   W06
 BYTE   N04
 BYTE   W06
 BYTE   N04
 BYTE   W06
 BYTE   N04
 BYTE   W06
 BYTE   VOL   34*song14_mvl/mxv
 BYTE   N36
 BYTE   W01
 BYTE   VOL   36*song14_mvl/mxv
 BYTE   W01
 BYTE   VOL   37*song14_mvl/mxv
 BYTE   W01
 BYTE   VOL   38*song14_mvl/mxv
 BYTE   W01
 BYTE   VOL   39*song14_mvl/mxv
 BYTE   W01
 BYTE   VOL   40*song14_mvl/mxv
 BYTE   W01
 BYTE   VOL   42*song14_mvl/mxv
 BYTE   W01
 BYTE   VOL   43*song14_mvl/mxv
 BYTE   W01
 BYTE   VOL   44*song14_mvl/mxv
 BYTE   W01
 BYTE   VOL   46*song14_mvl/mxv
 BYTE   W01
 BYTE   VOL   47*song14_mvl/mxv
 BYTE   W01
 BYTE   VOL   48*song14_mvl/mxv
 BYTE   W01
 BYTE   VOL   49*song14_mvl/mxv
 BYTE   W01
 BYTE   VOL   50*song14_mvl/mxv
 BYTE   W01
 BYTE   VOL   52*song14_mvl/mxv
 BYTE   W01
 BYTE   VOL   53*song14_mvl/mxv
 BYTE   W01
 BYTE   VOL   54*song14_mvl/mxv
 BYTE   W01
 BYTE   VOL   56*song14_mvl/mxv
 BYTE   W01
 BYTE   VOL   57*song14_mvl/mxv
 BYTE   W01
 BYTE   VOL   58*song14_mvl/mxv
 BYTE   W01
 BYTE   VOL   59*song14_mvl/mxv
 BYTE   W01
 BYTE   VOL   60*song14_mvl/mxv
 BYTE   W01
 BYTE   VOL   62*song14_mvl/mxv
 BYTE   W01
 BYTE   VOL   63*song14_mvl/mxv
 BYTE   W24
 BYTE   W01
 BYTE   VOICE   14
 BYTE   VOL   53*song14_mvl/mxv
 BYTE   PAN   c_v+25
 BYTE   N05  Cs3  v104
 BYTE   W07
 BYTE   N03  Cs3  v044
 BYTE   W05
 BYTE   N05  Cs3  v104
 BYTE   W06
//  #02 //016   ----------------------------------------
 BYTE   PATT
  POIN2 Label_0101BC36
//  #02 //017   ----------------------------------------
 BYTE   PATT
  POIN2 Label_0101BC36
//  #02 //018   ----------------------------------------
 BYTE   W01
 BYTE   N03  Cs3  v044
 BYTE   W05
 BYTE   N05  Cs3  v104
 BYTE   W07
 BYTE   N03  Cs3  v044
 BYTE   W05
 BYTE   N05  Cs3  v104
 BYTE   W07
 BYTE   N03  Cs3  v044
 BYTE   W05
 BYTE   N05  Cs3  v104
 BYTE   W07
 BYTE   N03  Cs3  v044
 BYTE   W05
 BYTE   N05  Cs3  v104
 BYTE   W07
 BYTE   N03  Cs3  v044
 BYTE   W05
 BYTE   N05  Cs3  v104
 BYTE   W07
 BYTE   N03  Cs3  v044
 BYTE   W05
 BYTE   N05  Cs3  v104
 BYTE   W07
 BYTE   N03  Cs3  v044
 BYTE   W05
 BYTE   GoTo
  POIN2 Label_0101BB5D
//  #02 //019   ----------------------------------------
 BYTE   VOICE   14
 BYTE   VOL   53*song14_mvl/mxv
 BYTE   PAN   c_v+25
 BYTE   N05  Ds3  v104
 BYTE   W07
 BYTE   N03  Ds3  v044
 BYTE   W05
 BYTE   N05  Ds3  v104
 BYTE   W06
//  #02 //020   ----------------------------------------
 BYTE   PATT
  POIN2 Label_0101BB9F
//  #02 //021   ----------------------------------------
 BYTE   PATT
  POIN2 Label_0101BB9F
//  #02 //022   ----------------------------------------
 BYTE   PATT
  POIN2 Label_0101BB9F
//  #02 //023   ----------------------------------------
 BYTE   PATT
  POIN2 Label_0101BB9F
//  #02 //024   ----------------------------------------
 BYTE   PATT
  POIN2 Label_0101BB9F
//  #02 //025   ----------------------------------------
 BYTE   W01
 BYTE   N03  Ds3  v044
 BYTE   W05
 BYTE   N05  Ds3  v104
 BYTE   W07
 BYTE   N03  Ds3  v044
 BYTE   W05
 BYTE   N05  Ds3  v104
 BYTE   W07
 BYTE   N03  Ds3  v044
 BYTE   W05
 BYTE   N05  Ds3  v104
 BYTE   W07
 BYTE   N03  Ds3  v044
 BYTE   W05
 BYTE   N05  Ds3  v104
 BYTE   W07
 BYTE   N03  Ds3  v044
 BYTE   W05
 BYTE   N05  Ds3  v104
 BYTE   W07
 BYTE   N03  Ds3  v044
 BYTE   W05
 BYTE   N05  Ds3  v104
 BYTE   W07
 BYTE   N03  Ds3  v044
 BYTE   W05
 BYTE   N05  Cs3  v104
 BYTE   W07
 BYTE   N03  Cs3  v044
 BYTE   W05
 BYTE   N05  Cs3  v104
 BYTE   W06
//  #02 //026   ----------------------------------------
 BYTE   PATT
  POIN2 Label_0101BC36
//  #02 //027   ----------------------------------------
 BYTE   PATT
  POIN2 Label_0101BC36
//  #02 //028   ----------------------------------------
 BYTE   W01
 BYTE   N03  Cs3  v044
 BYTE   W05
 BYTE   N05  Cs3  v104
 BYTE   W07
 BYTE   N03  Cs3  v044
 BYTE   W05
 BYTE   N05  Cs3  v104
 BYTE   W07
 BYTE   N03  Cs3  v044
 BYTE   W05
 BYTE   N05  Cs3  v104
 BYTE   W07
 BYTE   N03  Cs3  v044
 BYTE   W05
 BYTE   N05  Cs3  v104
 BYTE   W07
 BYTE   N03  Cs3  v044
 BYTE   W05
 BYTE   N05  Cs3  v104
 BYTE   W07
 BYTE   N03  Cs3  v044
 BYTE   W05
 BYTE   N05  Cs3  v104
 BYTE   W07
 BYTE   N03  Cs3  v044
 BYTE   W05
 BYTE   N05  Ds3  v104
 BYTE   W07
 BYTE   N03  Ds3  v044
 BYTE   W05
 BYTE   N05  Ds3  v104
 BYTE   W06
//  #02 //029   ----------------------------------------
 BYTE   PATT
  POIN2 Label_0101BB9F
//  #02 //030   ----------------------------------------
 BYTE   PATT
  POIN2 Label_0101BB9F
//  #02 //031   ----------------------------------------
 BYTE   PATT
  POIN2 Label_0101BB9F
//  #02 //032   ----------------------------------------
 BYTE   W01
 BYTE   N03  Ds3  v044
 BYTE   W05
 BYTE   N05  Ds3  v104
 BYTE   W07
 BYTE   N03  Ds3  v044
 BYTE   W05
 BYTE   N05  Ds3  v104
 BYTE   W07
 BYTE   N03  Ds3  v044
 BYTE   W05
 BYTE   N05  Ds3  v104
 BYTE   W07
 BYTE   N03  Ds3  v044
 BYTE   W05
 BYTE   N05  Ds3  v104
 BYTE   W07
 BYTE   N03  Ds3  v044
 BYTE   W05
 BYTE   N05  Ds3  v104
 BYTE   W07
 BYTE   N03  Ds3  v044
 BYTE   W05
 BYTE   N05  Ds3  v104
 BYTE   W07
 BYTE   N03  Ds3  v044
 BYTE   W05
 BYTE   VOICE   41
 BYTE   VOL   63*song14_mvl/mxv
 BYTE   PAN   c_v+25
 BYTE   VOL   30*song14_mvl/mxv
 BYTE   N14  Cs3
 BYTE   W01
 BYTE   VOL   32*song14_mvl/mxv
 BYTE   W01
 BYTE   VOL   34*song14_mvl/mxv
 BYTE   W01
 BYTE   VOL   36*song14_mvl/mxv
 BYTE   W01
 BYTE   VOL   38*song14_mvl/mxv
 BYTE   W01
 BYTE   VOL   40*song14_mvl/mxv
 BYTE   W01
 BYTE   VOL   42*song14_mvl/mxv
 BYTE   W01
 BYTE   VOL   44*song14_mvl/mxv
 BYTE   W01
 BYTE   VOL   46*song14_mvl/mxv
 BYTE   W01
 BYTE   VOL   47*song14_mvl/mxv
 BYTE   W01
 BYTE   VOL   49*song14_mvl/mxv
 BYTE   W01
 BYTE   VOL   51*song14_mvl/mxv
 BYTE   W01
 BYTE   VOL   53*song14_mvl/mxv
 BYTE   W01
 BYTE   VOL   55*song14_mvl/mxv
 BYTE   W01
 BYTE   VOL   56*song14_mvl/mxv
 BYTE   W01
 BYTE   VOL   58*song14_mvl/mxv
 BYTE   W01
 BYTE   VOL   60*song14_mvl/mxv
 BYTE   W01
 BYTE   VOL   62*song14_mvl/mxv
 BYTE   W01
//  #02 //033   ----------------------------------------
 BYTE   VOL   63*song14_mvl/mxv
 BYTE   N02
 BYTE   W03
 BYTE   N02
 BYTE   W03
 BYTE   N04
 BYTE   W06
 BYTE   N02
 BYTE   W03
 BYTE   N02
 BYTE   W03
 BYTE   N04
 BYTE   W06
 BYTE   N02
 BYTE   W03
 BYTE   N02
 BYTE   W03
 BYTE   N04
 BYTE   W06
 BYTE   N04
 BYTE   W06
 BYTE   N04
 BYTE   W06
 BYTE   N04
 BYTE   W06
 BYTE   VOL   53*song14_mvl/mxv
 BYTE   N14  Fn3
 BYTE   W01
 BYTE   VOL   54*song14_mvl/mxv
 BYTE   W01
 BYTE   VOL   54*song14_mvl/mxv
 BYTE   W01
 BYTE   VOL   55*song14_mvl/mxv
 BYTE   W01
 BYTE   VOL   56*song14_mvl/mxv
 BYTE   W01
 BYTE   VOL   56*song14_mvl/mxv
 BYTE   W02
 BYTE   VOL   57*song14_mvl/mxv
 BYTE   W01
 BYTE   VOL   58*song14_mvl/mxv
 BYTE   W01
 BYTE   VOL   58*song14_mvl/mxv
 BYTE   W01
 BYTE   VOL   59*song14_mvl/mxv
 BYTE   W01
 BYTE   VOL   60*song14_mvl/mxv
 BYTE   W02
 BYTE   VOL   60*song14_mvl/mxv
 BYTE   W01
 BYTE   VOL   61*song14_mvl/mxv
 BYTE   W01
 BYTE   VOL   62*song14_mvl/mxv
 BYTE   W01
 BYTE   VOL   62*song14_mvl/mxv
 BYTE   W01
 BYTE   VOL   63*song14_mvl/mxv
 BYTE   W01
 BYTE   N02
 BYTE   W03
 BYTE   N02
 BYTE   W03
 BYTE   N04
 BYTE   W06
 BYTE   N02
 BYTE   W03
 BYTE   N02
 BYTE   W03
 BYTE   N04
 BYTE   W06
//  #02 //034   ----------------------------------------
 BYTE   N02
 BYTE   W03
 BYTE   N02
 BYTE   W03
 BYTE   N04
 BYTE   W06
 BYTE   N04
 BYTE   W06
 BYTE   N04
 BYTE   W06
 BYTE   N04
 BYTE   W06
 BYTE   VOL   53*song14_mvl/mxv
 BYTE   N14  Gs3
 BYTE   W01
 BYTE   VOL   54*song14_mvl/mxv
 BYTE   W01
 BYTE   VOL   54*song14_mvl/mxv
 BYTE   W01
 BYTE   VOL   55*song14_mvl/mxv
 BYTE   W01
 BYTE   VOL   56*song14_mvl/mxv
 BYTE   W01
 BYTE   VOL   56*song14_mvl/mxv
 BYTE   W02
 BYTE   VOL   57*song14_mvl/mxv
 BYTE   W01
 BYTE   VOL   58*song14_mvl/mxv
 BYTE   W01
 BYTE   VOL   58*song14_mvl/mxv
 BYTE   W01
 BYTE   VOL   59*song14_mvl/mxv
 BYTE   W01
 BYTE   VOL   60*song14_mvl/mxv
 BYTE   W02
 BYTE   VOL   60*song14_mvl/mxv
 BYTE   W01
 BYTE   VOL   61*song14_mvl/mxv
 BYTE   W01
 BYTE   VOL   62*song14_mvl/mxv
 BYTE   W01
 BYTE   VOL   62*song14_mvl/mxv
 BYTE   W01
 BYTE   VOL   63*song14_mvl/mxv
 BYTE   W01
 BYTE   N02
 BYTE   W03
 BYTE   N02
 BYTE   W03
 BYTE   N04
 BYTE   W06
 BYTE   N02
 BYTE   W03
 BYTE   N02
 BYTE   W03
 BYTE   N04
 BYTE   W06
 BYTE   N02
 BYTE   W03
 BYTE   N02
 BYTE   W03
 BYTE   N04
 BYTE   W06
 BYTE   N04
 BYTE   W06
 BYTE   N04
 BYTE   W06
//  #02 //035   ----------------------------------------
 BYTE   N04
 BYTE   W06
 BYTE   VOL   34*song14_mvl/mxv
 BYTE   N36
 BYTE   W01
 BYTE   VOL   35*song14_mvl/mxv
 BYTE   W01
 BYTE   VOL   36*song14_mvl/mxv
 BYTE   W01
 BYTE   VOL   38*song14_mvl/mxv
 BYTE   W01
 BYTE   VOL   38*song14_mvl/mxv
 BYTE   W01
 BYTE   VOL   40*song14_mvl/mxv
 BYTE   W01
 BYTE   VOL   41*song14_mvl/mxv
 BYTE   W01
 BYTE   VOL   42*song14_mvl/mxv
 BYTE   W01
 BYTE   VOL   44*song14_mvl/mxv
 BYTE   W01
 BYTE   VOL   45*song14_mvl/mxv
 BYTE   W01
 BYTE   VOL   46*song14_mvl/mxv
 BYTE   W01
 BYTE   VOL   48*song14_mvl/mxv
 BYTE   W01
 BYTE   VOL   48*song14_mvl/mxv
 BYTE   W01
 BYTE   VOL   50*song14_mvl/mxv
 BYTE   W01
 BYTE   VOL   51*song14_mvl/mxv
 BYTE   W01
 BYTE   VOL   52*song14_mvl/mxv
 BYTE   W01
 BYTE   VOL   54*song14_mvl/mxv
 BYTE   W01
 BYTE   VOL   55*song14_mvl/mxv
 BYTE   W01
 BYTE   VOL   56*song14_mvl/mxv
 BYTE   W01
 BYTE   VOL   58*song14_mvl/mxv
 BYTE   W01
 BYTE   VOL   58*song14_mvl/mxv
 BYTE   W01
 BYTE   VOL   60*song14_mvl/mxv
 BYTE   W01
 BYTE   VOL   61*song14_mvl/mxv
 BYTE   W01
 BYTE   VOL   62*song14_mvl/mxv
 BYTE   W01
 BYTE   VOL   63*song14_mvl/mxv
 BYTE   W24
 BYTE   VOICE   14
 BYTE   VOL   53*song14_mvl/mxv
 BYTE   PAN   c_v+25
 BYTE   N05  Cs3  v104
 BYTE   W07
 BYTE   N03  Cs3  v044
 BYTE   W05
 BYTE   N05  Cs3  v104
 BYTE   W07
 BYTE   N03  Cs3  v044
 BYTE   W05
 BYTE   N05  Cs3  v104
 BYTE   W07
 BYTE   N03  Cs3  v044
 BYTE   W05
 BYTE   N05  Cs3  v104
 BYTE   W06
//  #02 //036   ----------------------------------------
 BYTE   PATT
  POIN2 Label_0101BC36
//  #02 //037   ----------------------------------------
 BYTE   PATT
  POIN2 Label_0101BC36
//  #02 //038   ----------------------------------------
 BYTE   W01
 BYTE   N03  Cs3  v044
 BYTE   W05
 BYTE   N05  Cs3  v104
 BYTE   W07
 BYTE   N03  Cs3  v044
 BYTE   W05
 BYTE   N05  Cs3  v104
 BYTE   W07
 BYTE   N03  Cs3  v044
 BYTE   W05
 BYTE   N05  Cs3  v104
 BYTE   W07
 BYTE   N03  Cs3  v044
 BYTE   W05
 BYTE   N05  Cs3  v104
 BYTE   W07
 BYTE   N03  Cs3  v044
 BYTE   W07
 BYTE   FINE

//**************** Track 3 (Midi-Chn.2) ****************//

song14_003:
//  #03 //000   ----------------------------------------
 BYTE   KEYSH   song14_key+0
 BYTE   VOICE   14
 BYTE   VOL   66*song14_mvl/mxv
 BYTE   PAN   c_v+14
 BYTE   W06
Label_0101C061:
 BYTE   VOICE   14
 BYTE   VOL   66*song14_mvl/mxv
 BYTE   PAN   c_v+14
 BYTE   N03  Ds1  v116
 BYTE   W05
 BYTE   N06  Ds1  v052
 BYTE   W07
 BYTE   N03  Ds1  v116
 BYTE   W05
 BYTE   N06  Ds1  v052
 BYTE   W07
 BYTE   N03  Ds1  v116
 BYTE   W05
 BYTE   N06  Ds1  v052
 BYTE   W07
 BYTE   N03  Ds1  v116
 BYTE   W05
 BYTE   N06  Ds1  v052
 BYTE   W07
 BYTE   N03  Ds1  v116
 BYTE   W05
 BYTE   N06  Ds1  v052
 BYTE   W07
 BYTE   N03  Ds1  v116
 BYTE   W05
 BYTE   N06  Ds1  v052
 BYTE   W07
 BYTE   N03  Ds1  v116
 BYTE   W05
 BYTE   N06  Ds1  v052
 BYTE   W07
 BYTE   N03  Ds1  v116
 BYTE   W05
 BYTE   N06  Ds1  v052
 BYTE   W01
//  #03 //001   ----------------------------------------
Label_0101C0A7:
 BYTE   W06
 BYTE   N03  Ds1  v116
 BYTE   W05
 BYTE   N06  Ds1  v052
 BYTE   W07
 BYTE   N03  Ds1  v116
 BYTE   W05
 BYTE   N06  Ds1  v052
 BYTE   W07
 BYTE   N03  Ds1  v116
 BYTE   W05
 BYTE   N06  Ds1  v052
 BYTE   W07
 BYTE   N03  Ds1  v116
 BYTE   W05
 BYTE   N06  Ds1  v052
 BYTE   W07
 BYTE   N03  Ds1  v116
 BYTE   W05
 BYTE   N06  Ds1  v052
 BYTE   W07
 BYTE   N03  Ds1  v116
 BYTE   W05
 BYTE   N06  Ds1  v052
 BYTE   W07
 BYTE   N03  Ds1  v116
 BYTE   W05
 BYTE   N06  Ds1  v052
 BYTE   W07
 BYTE   N03  Ds1  v116
 BYTE   W05
 BYTE   N06  Ds1  v052
 BYTE   W01
 BYTE   PEND 
//  #03 //002   ----------------------------------------
 BYTE   PATT
  POIN2 Label_0101C0A7
//  #03 //003   ----------------------------------------
 BYTE   PATT
  POIN2 Label_0101C0A7
//  #03 //004   ----------------------------------------
 BYTE   PATT
  POIN2 Label_0101C0A7
//  #03 //005   ----------------------------------------
 BYTE   PATT
  POIN2 Label_0101C0A7
//  #03 //006   ----------------------------------------
Label_0101C0FD:
 BYTE   W06
 BYTE   N03  Cs1  v116
 BYTE   W05
 BYTE   N06  Cs1  v052
 BYTE   W07
 BYTE   N03  Cs1  v116
 BYTE   W05
 BYTE   N06  Cs1  v052
 BYTE   W07
 BYTE   N03  Cs1  v116
 BYTE   W05
 BYTE   N06  Cs1  v052
 BYTE   W07
 BYTE   N03  Cs1  v116
 BYTE   W05
 BYTE   N06  Cs1  v052
 BYTE   W07
 BYTE   N03  Cs1  v116
 BYTE   W05
 BYTE   N06  Cs1  v052
 BYTE   W07
 BYTE   N03  Cs1  v116
 BYTE   W05
 BYTE   N06  Cs1  v052
 BYTE   W07
 BYTE   N03  Cs1  v116
 BYTE   W05
 BYTE   N06  Cs1  v052
 BYTE   W07
 BYTE   N03  Cs1  v116
 BYTE   W05
 BYTE   N06  Cs1  v052
 BYTE   W01
 BYTE   PEND 
//  #03 //007   ----------------------------------------
 BYTE   PATT
  POIN2 Label_0101C0FD
//  #03 //008   ----------------------------------------
 BYTE   PATT
  POIN2 Label_0101C0FD
//  #03 //009   ----------------------------------------
 BYTE   W06
 BYTE   N05  Ds1  v116
 BYTE   W09
 BYTE   N02  Ds1  v104
 BYTE   W03
 BYTE   N05  Ds1  v116
 BYTE   W09
 BYTE   N02  Ds1  v104
 BYTE   W03
 BYTE   N05  Ds1  v116
 BYTE   W09
 BYTE   N02  Ds1  v104
 BYTE   W03
 BYTE   N05  Ds1  v116
 BYTE   W09
 BYTE   N02  Ds1  v104
 BYTE   W03
 BYTE   N05  Ds1  v116
 BYTE   W09
 BYTE   N02  Ds1  v104
 BYTE   W03
 BYTE   N05  Ds1  v116
 BYTE   W09
 BYTE   N02  Ds1  v104
 BYTE   W03
 BYTE   N05  Ds1  v116
 BYTE   W09
 BYTE   N02  Ds1  v104
 BYTE   W03
 BYTE   N05  Ds1  v116
 BYTE   W06
//  #03 //010   ----------------------------------------
Label_0101C186:
 BYTE   W03
 BYTE   N02  Ds1  v104
 BYTE   W03
 BYTE   N05  Ds1  v116
 BYTE   W09
 BYTE   N02  Ds1  v104
 BYTE   W03
 BYTE   N05  Ds1  v116
 BYTE   W09
 BYTE   N02  Ds1  v104
 BYTE   W03
 BYTE   N05  Ds1  v116
 BYTE   W09
 BYTE   N02  Ds1  v104
 BYTE   W03
 BYTE   N05  Ds1  v116
 BYTE   W09
 BYTE   N02  Ds1  v104
 BYTE   W03
 BYTE   N05  Ds1  v116
 BYTE   W09
 BYTE   N02  Ds1  v104
 BYTE   W03
 BYTE   N05  Ds1  v116
 BYTE   W09
 BYTE   N02  Ds1  v104
 BYTE   W03
 BYTE   N05  Ds1  v116
 BYTE   W09
 BYTE   N02  Ds1  v104
 BYTE   W03
 BYTE   N05  Ds1  v116
 BYTE   W06
 BYTE   PEND 
//  #03 //011   ----------------------------------------
 BYTE   PATT
  POIN2 Label_0101C186
//  #03 //012   ----------------------------------------
 BYTE   PATT
  POIN2 Label_0101C186
//  #03 //013   ----------------------------------------
 BYTE   W03
 BYTE   N02  Ds1  v104
 BYTE   W03
 BYTE   VOICE   41
 BYTE   VOL   63*song14_mvl/mxv
 BYTE   PAN   c_v+25
 BYTE   VOL   32*song14_mvl/mxv
 BYTE   N17  Cs2
 BYTE   W01
 BYTE   VOL   34*song14_mvl/mxv
 BYTE   W01
 BYTE   VOL   35*song14_mvl/mxv
 BYTE   W01
 BYTE   VOL   37*song14_mvl/mxv
 BYTE   W01
 BYTE   VOL   39*song14_mvl/mxv
 BYTE   W01
 BYTE   VOL   41*song14_mvl/mxv
 BYTE   W01
 BYTE   VOL   42*song14_mvl/mxv
 BYTE   W01
 BYTE   VOL   44*song14_mvl/mxv
 BYTE   W01
 BYTE   VOL   46*song14_mvl/mxv
 BYTE   W01
 BYTE   VOL   48*song14_mvl/mxv
 BYTE   W01
 BYTE   VOL   50*song14_mvl/mxv
 BYTE   W01
 BYTE   VOL   52*song14_mvl/mxv
 BYTE   W01
 BYTE   VOL   54*song14_mvl/mxv
 BYTE   W01
 BYTE   VOL   56*song14_mvl/mxv
 BYTE   W01
 BYTE   VOL   58*song14_mvl/mxv
 BYTE   W01
 BYTE   VOL   59*song14_mvl/mxv
 BYTE   W01
 BYTE   VOL   61*song14_mvl/mxv
 BYTE   W01
 BYTE   VOL   63*song14_mvl/mxv
 BYTE   W01
 BYTE   N02
 BYTE   W03
 BYTE   N02
 BYTE   W03
 BYTE   N05
 BYTE   W06
 BYTE   N02
 BYTE   W03
 BYTE   N02
 BYTE   W03
 BYTE   N05
 BYTE   W06
 BYTE   N02
 BYTE   W03
 BYTE   N02
 BYTE   W03
 BYTE   N05
 BYTE   W06
 BYTE   N05
 BYTE   W06
 BYTE   N05
 BYTE   W06
 BYTE   N05
 BYTE   W06
 BYTE   VOL   54*song14_mvl/mxv
 BYTE   N17  Fn2
 BYTE   W01
 BYTE   VOL   54*song14_mvl/mxv
 BYTE   W01
 BYTE   VOL   55*song14_mvl/mxv
 BYTE   W02
 BYTE   VOL   56*song14_mvl/mxv
 BYTE   W01
 BYTE   VOL   56*song14_mvl/mxv
 BYTE   W01
 BYTE   VOL   57*song14_mvl/mxv
 BYTE   W01
 BYTE   VOL   58*song14_mvl/mxv
 BYTE   W01
 BYTE   VOL   58*song14_mvl/mxv
 BYTE   W02
 BYTE   VOL   59*song14_mvl/mxv
 BYTE   W01
 BYTE   VOL   60*song14_mvl/mxv
 BYTE   W01
 BYTE   VOL   60*song14_mvl/mxv
 BYTE   W01
 BYTE   VOL   61*song14_mvl/mxv
 BYTE   W01
 BYTE   VOL   62*song14_mvl/mxv
 BYTE   W02
 BYTE   VOL   62*song14_mvl/mxv
 BYTE   W01
 BYTE   VOL   63*song14_mvl/mxv
 BYTE   W01
//  #03 //014   ----------------------------------------
 BYTE   N02
 BYTE   W03
 BYTE   N02
 BYTE   W03
 BYTE   N05
 BYTE   W06
 BYTE   N02
 BYTE   W03
 BYTE   N02
 BYTE   W03
 BYTE   N05
 BYTE   W06
 BYTE   N02
 BYTE   W03
 BYTE   N02
 BYTE   W03
 BYTE   N05
 BYTE   W06
 BYTE   N05
 BYTE   W06
 BYTE   N05
 BYTE   W06
 BYTE   N05
 BYTE   W06
 BYTE   VOL   54*song14_mvl/mxv
 BYTE   N17  Gs2
 BYTE   W01
 BYTE   VOL   54*song14_mvl/mxv
 BYTE   W01
 BYTE   VOL   55*song14_mvl/mxv
 BYTE   W02
 BYTE   VOL   56*song14_mvl/mxv
 BYTE   W01
 BYTE   VOL   56*song14_mvl/mxv
 BYTE   W01
 BYTE   VOL   57*song14_mvl/mxv
 BYTE   W01
 BYTE   VOL   58*song14_mvl/mxv
 BYTE   W01
 BYTE   VOL   58*song14_mvl/mxv
 BYTE   W02
 BYTE   VOL   59*song14_mvl/mxv
 BYTE   W01
 BYTE   VOL   60*song14_mvl/mxv
 BYTE   W01
 BYTE   VOL   60*song14_mvl/mxv
 BYTE   W01
 BYTE   VOL   61*song14_mvl/mxv
 BYTE   W01
 BYTE   VOL   62*song14_mvl/mxv
 BYTE   W02
 BYTE   VOL   62*song14_mvl/mxv
 BYTE   W01
 BYTE   VOL   63*song14_mvl/mxv
 BYTE   W01
 BYTE   N02
 BYTE   W03
 BYTE   N02
 BYTE   W03
 BYTE   N05
 BYTE   W06
 BYTE   N02
 BYTE   W03
 BYTE   N02
 BYTE   W03
 BYTE   N05
 BYTE   W06
//  #03 //015   ----------------------------------------
 BYTE   N02
 BYTE   W03
 BYTE   N02
 BYTE   W03
 BYTE   N05
 BYTE   W06
 BYTE   N05
 BYTE   W06
 BYTE   N05
 BYTE   W06
 BYTE   N05
 BYTE   W06
 BYTE   VOL   34*song14_mvl/mxv
 BYTE   N44
 BYTE   W01
 BYTE   VOL   36*song14_mvl/mxv
 BYTE   W01
 BYTE   VOL   37*song14_mvl/mxv
 BYTE   W01
 BYTE   VOL   38*song14_mvl/mxv
 BYTE   W01
 BYTE   VOL   39*song14_mvl/mxv
 BYTE   W01
 BYTE   VOL   40*song14_mvl/mxv
 BYTE   W01
 BYTE   VOL   42*song14_mvl/mxv
 BYTE   W01
 BYTE   VOL   43*song14_mvl/mxv
 BYTE   W01
 BYTE   VOL   44*song14_mvl/mxv
 BYTE   W01
 BYTE   VOL   46*song14_mvl/mxv
 BYTE   W01
 BYTE   VOL   47*song14_mvl/mxv
 BYTE   W01
 BYTE   VOL   48*song14_mvl/mxv
 BYTE   W01
 BYTE   VOL   49*song14_mvl/mxv
 BYTE   W01
 BYTE   VOL   50*song14_mvl/mxv
 BYTE   W01
 BYTE   VOL   52*song14_mvl/mxv
 BYTE   W01
 BYTE   VOL   53*song14_mvl/mxv
 BYTE   W01
 BYTE   VOL   54*song14_mvl/mxv
 BYTE   W01
 BYTE   VOL   56*song14_mvl/mxv
 BYTE   W01
 BYTE   VOL   57*song14_mvl/mxv
 BYTE   W01
 BYTE   VOL   58*song14_mvl/mxv
 BYTE   W01
 BYTE   VOL   59*song14_mvl/mxv
 BYTE   W01
 BYTE   VOL   60*song14_mvl/mxv
 BYTE   W01
 BYTE   VOL   62*song14_mvl/mxv
 BYTE   W01
 BYTE   VOL   63*song14_mvl/mxv
 BYTE   W24
 BYTE   W01
 BYTE   VOICE   14
 BYTE   VOL   66*song14_mvl/mxv
 BYTE   PAN   c_v+14
 BYTE   N03  Cs1  v116
 BYTE   W05
 BYTE   N06  Cs1  v052
 BYTE   W07
 BYTE   N03  Cs1  v116
 BYTE   W05
 BYTE   N06  Cs1  v052
 BYTE   W01
//  #03 //016   ----------------------------------------
 BYTE   PATT
  POIN2 Label_0101C0FD
//  #03 //017   ----------------------------------------
 BYTE   PATT
  POIN2 Label_0101C0FD
//  #03 //018   ----------------------------------------
 BYTE   W06
 BYTE   N03  Cs1  v116
 BYTE   W05
 BYTE   N06  Cs1  v052
 BYTE   W07
 BYTE   N03  Cs1  v116
 BYTE   W05
 BYTE   N06  Cs1  v052
 BYTE   W07
 BYTE   N03  Cs1  v116
 BYTE   W05
 BYTE   N06  Cs1  v052
 BYTE   W07
 BYTE   N03  Cs1  v116
 BYTE   W05
 BYTE   N06  Cs1  v052
 BYTE   W07
 BYTE   N03  Cs1  v116
 BYTE   W05
 BYTE   N06  Cs1  v052
 BYTE   W07
 BYTE   N03  Cs1  v116
 BYTE   W05
 BYTE   N06  Cs1  v052
 BYTE   W07
 BYTE   GoTo
  POIN2 Label_0101C061
//  #03 //019   ----------------------------------------
 BYTE   VOICE   14
 BYTE   VOL   66*song14_mvl/mxv
 BYTE   PAN   c_v+14
 BYTE   N03  Ds1  v116
 BYTE   W05
 BYTE   N06  Ds1  v052
 BYTE   W07
 BYTE   N03  Ds1  v116
 BYTE   W05
 BYTE   N06  Ds1  v052
 BYTE   W01
//  #03 //020   ----------------------------------------
 BYTE   PATT
  POIN2 Label_0101C0A7
//  #03 //021   ----------------------------------------
 BYTE   PATT
  POIN2 Label_0101C0A7
//  #03 //022   ----------------------------------------
 BYTE   PATT
  POIN2 Label_0101C0A7
//  #03 //023   ----------------------------------------
 BYTE   PATT
  POIN2 Label_0101C0A7
//  #03 //024   ----------------------------------------
 BYTE   PATT
  POIN2 Label_0101C0A7
//  #03 //025   ----------------------------------------
 BYTE   W06
 BYTE   N03  Ds1  v116
 BYTE   W05
 BYTE   N06  Ds1  v052
 BYTE   W07
 BYTE   N03  Ds1  v116
 BYTE   W05
 BYTE   N06  Ds1  v052
 BYTE   W07
 BYTE   N03  Ds1  v116
 BYTE   W05
 BYTE   N06  Ds1  v052
 BYTE   W07
 BYTE   N03  Ds1  v116
 BYTE   W05
 BYTE   N06  Ds1  v052
 BYTE   W07
 BYTE   N03  Ds1  v116
 BYTE   W05
 BYTE   N06  Ds1  v052
 BYTE   W07
 BYTE   N03  Ds1  v116
 BYTE   W05
 BYTE   N06  Ds1  v052
 BYTE   W07
 BYTE   N03  Cs1  v116
 BYTE   W05
 BYTE   N06  Cs1  v052
 BYTE   W07
 BYTE   N03  Cs1  v116
 BYTE   W05
 BYTE   N06  Cs1  v052
 BYTE   W01
//  #03 //026   ----------------------------------------
 BYTE   PATT
  POIN2 Label_0101C0FD
//  #03 //027   ----------------------------------------
 BYTE   PATT
  POIN2 Label_0101C0FD
//  #03 //028   ----------------------------------------
 BYTE   W06
 BYTE   N03  Cs1  v116
 BYTE   W05
 BYTE   N06  Cs1  v052
 BYTE   W07
 BYTE   N03  Cs1  v116
 BYTE   W05
 BYTE   N06  Cs1  v052
 BYTE   W07
 BYTE   N03  Cs1  v116
 BYTE   W05
 BYTE   N06  Cs1  v052
 BYTE   W07
 BYTE   N03  Cs1  v116
 BYTE   W05
 BYTE   N06  Cs1  v052
 BYTE   W07
 BYTE   N03  Cs1  v116
 BYTE   W05
 BYTE   N06  Cs1  v052
 BYTE   W07
 BYTE   N03  Cs1  v116
 BYTE   W05
 BYTE   N06  Cs1  v052
 BYTE   W07
 BYTE   N05  Ds1  v116
 BYTE   W09
 BYTE   N02  Ds1  v104
 BYTE   W03
 BYTE   N05  Ds1  v116
 BYTE   W06
//  #03 //029   ----------------------------------------
 BYTE   PATT
  POIN2 Label_0101C186
//  #03 //030   ----------------------------------------
 BYTE   PATT
  POIN2 Label_0101C186
//  #03 //031   ----------------------------------------
 BYTE   PATT
  POIN2 Label_0101C186
//  #03 //032   ----------------------------------------
 BYTE   W03
 BYTE   N02  Ds1  v104
 BYTE   W03
 BYTE   N05  Ds1  v116
 BYTE   W09
 BYTE   N02  Ds1  v104
 BYTE   W03
 BYTE   N05  Ds1  v116
 BYTE   W09
 BYTE   N02  Ds1  v104
 BYTE   W03
 BYTE   N05  Ds1  v116
 BYTE   W09
 BYTE   N02  Ds1  v104
 BYTE   W03
 BYTE   N05  Ds1  v116
 BYTE   W09
 BYTE   N02  Ds1  v104
 BYTE   W03
 BYTE   N05  Ds1  v116
 BYTE   W09
 BYTE   N02  Ds1  v104
 BYTE   W03
 BYTE   N05  Ds1  v116
 BYTE   W09
 BYTE   N02  Ds1  v104
 BYTE   W03
 BYTE   VOICE   41
 BYTE   VOL   63*song14_mvl/mxv
 BYTE   PAN   c_v+25
 BYTE   VOL   30*song14_mvl/mxv
 BYTE   N17  Cs2
 BYTE   W01
 BYTE   VOL   32*song14_mvl/mxv
 BYTE   W01
 BYTE   VOL   34*song14_mvl/mxv
 BYTE   W01
 BYTE   VOL   36*song14_mvl/mxv
 BYTE   W01
 BYTE   VOL   38*song14_mvl/mxv
 BYTE   W01
 BYTE   VOL   40*song14_mvl/mxv
 BYTE   W01
 BYTE   VOL   42*song14_mvl/mxv
 BYTE   W01
 BYTE   VOL   44*song14_mvl/mxv
 BYTE   W01
 BYTE   VOL   46*song14_mvl/mxv
 BYTE   W01
 BYTE   VOL   47*song14_mvl/mxv
 BYTE   W01
 BYTE   VOL   49*song14_mvl/mxv
 BYTE   W01
 BYTE   VOL   51*song14_mvl/mxv
 BYTE   W01
 BYTE   VOL   53*song14_mvl/mxv
 BYTE   W01
 BYTE   VOL   55*song14_mvl/mxv
 BYTE   W01
 BYTE   VOL   56*song14_mvl/mxv
 BYTE   W01
 BYTE   VOL   58*song14_mvl/mxv
 BYTE   W01
 BYTE   VOL   60*song14_mvl/mxv
 BYTE   W01
 BYTE   VOL   62*song14_mvl/mxv
 BYTE   W01
//  #03 //033   ----------------------------------------
 BYTE   VOL   63*song14_mvl/mxv
 BYTE   N02
 BYTE   W03
 BYTE   N02
 BYTE   W03
 BYTE   N05
 BYTE   W06
 BYTE   N02
 BYTE   W03
 BYTE   N02
 BYTE   W03
 BYTE   N05
 BYTE   W06
 BYTE   N02
 BYTE   W03
 BYTE   N02
 BYTE   W03
 BYTE   N05
 BYTE   W06
 BYTE   N05
 BYTE   W06
 BYTE   N05
 BYTE   W06
 BYTE   N05
 BYTE   W06
 BYTE   VOL   53*song14_mvl/mxv
 BYTE   N17  Fn2
 BYTE   W01
 BYTE   VOL   54*song14_mvl/mxv
 BYTE   W01
 BYTE   VOL   54*song14_mvl/mxv
 BYTE   W01
 BYTE   VOL   55*song14_mvl/mxv
 BYTE   W01
 BYTE   VOL   56*song14_mvl/mxv
 BYTE   W01
 BYTE   VOL   56*song14_mvl/mxv
 BYTE   W02
 BYTE   VOL   57*song14_mvl/mxv
 BYTE   W01
 BYTE   VOL   58*song14_mvl/mxv
 BYTE   W01
 BYTE   VOL   58*song14_mvl/mxv
 BYTE   W01
 BYTE   VOL   59*song14_mvl/mxv
 BYTE   W01
 BYTE   VOL   60*song14_mvl/mxv
 BYTE   W02
 BYTE   VOL   60*song14_mvl/mxv
 BYTE   W01
 BYTE   VOL   61*song14_mvl/mxv
 BYTE   W01
 BYTE   VOL   62*song14_mvl/mxv
 BYTE   W01
 BYTE   VOL   62*song14_mvl/mxv
 BYTE   W01
 BYTE   VOL   63*song14_mvl/mxv
 BYTE   W01
 BYTE   N02
 BYTE   W03
 BYTE   N02
 BYTE   W03
 BYTE   N05
 BYTE   W06
 BYTE   N02
 BYTE   W03
 BYTE   N02
 BYTE   W03
 BYTE   N05
 BYTE   W06
//  #03 //034   ----------------------------------------
 BYTE   N02
 BYTE   W03
 BYTE   N02
 BYTE   W03
 BYTE   N05
 BYTE   W06
 BYTE   N05
 BYTE   W06
 BYTE   N05
 BYTE   W06
 BYTE   N05
 BYTE   W06
 BYTE   VOL   53*song14_mvl/mxv
 BYTE   N17  Gs2
 BYTE   W01
 BYTE   VOL   54*song14_mvl/mxv
 BYTE   W01
 BYTE   VOL   54*song14_mvl/mxv
 BYTE   W01
 BYTE   VOL   55*song14_mvl/mxv
 BYTE   W01
 BYTE   VOL   56*song14_mvl/mxv
 BYTE   W01
 BYTE   VOL   56*song14_mvl/mxv
 BYTE   W02
 BYTE   VOL   57*song14_mvl/mxv
 BYTE   W01
 BYTE   VOL   58*song14_mvl/mxv
 BYTE   W01
 BYTE   VOL   58*song14_mvl/mxv
 BYTE   W01
 BYTE   VOL   59*song14_mvl/mxv
 BYTE   W01
 BYTE   VOL   60*song14_mvl/mxv
 BYTE   W02
 BYTE   VOL   60*song14_mvl/mxv
 BYTE   W01
 BYTE   VOL   61*song14_mvl/mxv
 BYTE   W01
 BYTE   VOL   62*song14_mvl/mxv
 BYTE   W01
 BYTE   VOL   62*song14_mvl/mxv
 BYTE   W01
 BYTE   VOL   63*song14_mvl/mxv
 BYTE   W01
 BYTE   N02
 BYTE   W03
 BYTE   N02
 BYTE   W03
 BYTE   N05
 BYTE   W06
 BYTE   N02
 BYTE   W03
 BYTE   N02
 BYTE   W03
 BYTE   N05
 BYTE   W06
 BYTE   N02
 BYTE   W03
 BYTE   N02
 BYTE   W03
 BYTE   N05
 BYTE   W06
 BYTE   N05
 BYTE   W06
 BYTE   N05
 BYTE   W06
//  #03 //035   ----------------------------------------
 BYTE   N05
 BYTE   W06
 BYTE   VOL   34*song14_mvl/mxv
 BYTE   N44
 BYTE   W01
 BYTE   VOL   35*song14_mvl/mxv
 BYTE   W01
 BYTE   VOL   36*song14_mvl/mxv
 BYTE   W01
 BYTE   VOL   38*song14_mvl/mxv
 BYTE   W01
 BYTE   VOL   38*song14_mvl/mxv
 BYTE   W01
 BYTE   VOL   40*song14_mvl/mxv
 BYTE   W01
 BYTE   VOL   41*song14_mvl/mxv
 BYTE   W01
 BYTE   VOL   42*song14_mvl/mxv
 BYTE   W01
 BYTE   VOL   44*song14_mvl/mxv
 BYTE   W01
 BYTE   VOL   45*song14_mvl/mxv
 BYTE   W01
 BYTE   VOL   46*song14_mvl/mxv
 BYTE   W01
 BYTE   VOL   48*song14_mvl/mxv
 BYTE   W01
 BYTE   VOL   48*song14_mvl/mxv
 BYTE   W01
 BYTE   VOL   50*song14_mvl/mxv
 BYTE   W01
 BYTE   VOL   51*song14_mvl/mxv
 BYTE   W01
 BYTE   VOL   52*song14_mvl/mxv
 BYTE   W01
 BYTE   VOL   54*song14_mvl/mxv
 BYTE   W01
 BYTE   VOL   55*song14_mvl/mxv
 BYTE   W01
 BYTE   VOL   56*song14_mvl/mxv
 BYTE   W01
 BYTE   VOL   58*song14_mvl/mxv
 BYTE   W01
 BYTE   VOL   58*song14_mvl/mxv
 BYTE   W01
 BYTE   VOL   60*song14_mvl/mxv
 BYTE   W01
 BYTE   VOL   61*song14_mvl/mxv
 BYTE   W01
 BYTE   VOL   62*song14_mvl/mxv
 BYTE   W01
 BYTE   VOL   63*song14_mvl/mxv
 BYTE   W24
 BYTE   VOICE   14
 BYTE   VOL   66*song14_mvl/mxv
 BYTE   PAN   c_v+14
 BYTE   N03  Cs1  v116
 BYTE   W05
 BYTE   N06  Cs1  v052
 BYTE   W07
 BYTE   N03  Cs1  v116
 BYTE   W05
 BYTE   N06  Cs1  v052
 BYTE   W07
 BYTE   N03  Cs1  v116
 BYTE   W05
 BYTE   N06  Cs1  v052
 BYTE   W07
 BYTE   N03  Cs1  v116
 BYTE   W05
 BYTE   N06  Cs1  v052
 BYTE   W01
//  #03 //036   ----------------------------------------
 BYTE   PATT
  POIN2 Label_0101C0FD
//  #03 //037   ----------------------------------------
 BYTE   PATT
  POIN2 Label_0101C0FD
//  #03 //038   ----------------------------------------
 BYTE   W06
 BYTE   N03  Cs1  v116
 BYTE   W05
 BYTE   N06  Cs1  v052
 BYTE   W07
 BYTE   N03  Cs1  v116
 BYTE   W05
 BYTE   N06  Cs1  v052
 BYTE   W07
 BYTE   N03  Cs1  v116
 BYTE   W05
 BYTE   N06  Cs1  v052
 BYTE   W07
 BYTE   N03  Cs1  v116
 BYTE   W05
 BYTE   N06  Cs1  v052
 BYTE   W09
 BYTE   FINE

//**************** Track 4 (Midi-Chn.3) ****************//

song14_004:
//  #04 //000   ----------------------------------------
 BYTE   KEYSH   song14_key+0
 BYTE   VOICE   14
 BYTE   VOL   44*song14_mvl/mxv
 BYTE   PAN   c_v+0
 BYTE   W06
Label_0101C565:
 BYTE   VOICE   14
 BYTE   VOL   44*song14_mvl/mxv
 BYTE   PAN   c_v+0
 BYTE   N03  Ds1  v116
 BYTE   W05
 BYTE   N06  Ds1  v052
 BYTE   W07
 BYTE   N03  Ds1  v116
 BYTE   W05
 BYTE   N06  Ds1  v052
 BYTE   W07
 BYTE   N03  Ds1  v116
 BYTE   W05
 BYTE   N06  Ds1  v052
 BYTE   W07
 BYTE   N03  Ds1  v116
 BYTE   W05
 BYTE   N06  Ds1  v052
 BYTE   W07
 BYTE   N03  Ds1  v116
 BYTE   W05
 BYTE   N06  Ds1  v052
 BYTE   W07
 BYTE   N03  Ds1  v116
 BYTE   W05
 BYTE   N06  Ds1  v052
 BYTE   W07
 BYTE   N03  Ds1  v116
 BYTE   W05
 BYTE   N06  Ds1  v052
 BYTE   W07
 BYTE   N03  Ds1  v116
 BYTE   W05
 BYTE   N06  Ds1  v052
 BYTE   W01
//  #04 //001   ----------------------------------------
Label_0101C5AB:
 BYTE   W06
 BYTE   N03  Ds1  v116
 BYTE   W05
 BYTE   N06  Ds1  v052
 BYTE   W07
 BYTE   N03  Ds1  v116
 BYTE   W05
 BYTE   N06  Ds1  v052
 BYTE   W07
 BYTE   N03  Ds1  v116
 BYTE   W05
 BYTE   N06  Ds1  v052
 BYTE   W07
 BYTE   N03  Ds1  v116
 BYTE   W05
 BYTE   N06  Ds1  v052
 BYTE   W07
 BYTE   N03  Ds1  v116
 BYTE   W05
 BYTE   N06  Ds1  v052
 BYTE   W07
 BYTE   N03  Ds1  v116
 BYTE   W05
 BYTE   N06  Ds1  v052
 BYTE   W07
 BYTE   N03  Ds1  v116
 BYTE   W05
 BYTE   N06  Ds1  v052
 BYTE   W07
 BYTE   N03  Ds1  v116
 BYTE   W05
 BYTE   N06  Ds1  v052
 BYTE   W01
 BYTE   PEND 
//  #04 //002   ----------------------------------------
 BYTE   PATT
  POIN2 Label_0101C5AB
//  #04 //003   ----------------------------------------
 BYTE   PATT
  POIN2 Label_0101C5AB
//  #04 //004   ----------------------------------------
 BYTE   PATT
  POIN2 Label_0101C5AB
//  #04 //005   ----------------------------------------
 BYTE   PATT
  POIN2 Label_0101C5AB
//  #04 //006   ----------------------------------------
Label_0101C601:
 BYTE   W06
 BYTE   N03  Cs1  v116
 BYTE   W05
 BYTE   N06  Cs1  v052
 BYTE   W07
 BYTE   N03  Cs1  v116
 BYTE   W05
 BYTE   N06  Cs1  v052
 BYTE   W07
 BYTE   N03  Cs1  v116
 BYTE   W05
 BYTE   N06  Cs1  v052
 BYTE   W07
 BYTE   N03  Cs1  v116
 BYTE   W05
 BYTE   N06  Cs1  v052
 BYTE   W07
 BYTE   N03  Cs1  v116
 BYTE   W05
 BYTE   N06  Cs1  v052
 BYTE   W07
 BYTE   N03  Cs1  v116
 BYTE   W05
 BYTE   N06  Cs1  v052
 BYTE   W07
 BYTE   N03  Cs1  v116
 BYTE   W05
 BYTE   N06  Cs1  v052
 BYTE   W07
 BYTE   N03  Cs1  v116
 BYTE   W05
 BYTE   N06  Cs1  v052
 BYTE   W01
 BYTE   PEND 
//  #04 //007   ----------------------------------------
 BYTE   PATT
  POIN2 Label_0101C601
//  #04 //008   ----------------------------------------
 BYTE   PATT
  POIN2 Label_0101C601
//  #04 //009   ----------------------------------------
 BYTE   W06
 BYTE   N05  Ds1  v116
 BYTE   W09
 BYTE   N02  Ds1  v104
 BYTE   W03
 BYTE   N05  Ds1  v116
 BYTE   W09
 BYTE   N02  Ds1  v104
 BYTE   W03
 BYTE   N05  Ds1  v116
 BYTE   W09
 BYTE   N02  Ds1  v104
 BYTE   W03
 BYTE   N05  Ds1  v116
 BYTE   W09
 BYTE   N02  Ds1  v104
 BYTE   W03
 BYTE   N05  Ds1  v116
 BYTE   W09
 BYTE   N02  Ds1  v104
 BYTE   W03
 BYTE   N05  Ds1  v116
 BYTE   W09
 BYTE   N02  Ds1  v104
 BYTE   W03
 BYTE   N05  Ds1  v116
 BYTE   W09
 BYTE   N02  Ds1  v104
 BYTE   W03
 BYTE   N05  Ds1  v116
 BYTE   W06
//  #04 //010   ----------------------------------------
Label_0101C68A:
 BYTE   W03
 BYTE   N02  Ds1  v104
 BYTE   W03
 BYTE   N05  Ds1  v116
 BYTE   W09
 BYTE   N02  Ds1  v104
 BYTE   W03
 BYTE   N05  Ds1  v116
 BYTE   W09
 BYTE   N02  Ds1  v104
 BYTE   W03
 BYTE   N05  Ds1  v116
 BYTE   W09
 BYTE   N02  Ds1  v104
 BYTE   W03
 BYTE   N05  Ds1  v116
 BYTE   W09
 BYTE   N02  Ds1  v104
 BYTE   W03
 BYTE   N05  Ds1  v116
 BYTE   W09
 BYTE   N02  Ds1  v104
 BYTE   W03
 BYTE   N05  Ds1  v116
 BYTE   W09
 BYTE   N02  Ds1  v104
 BYTE   W03
 BYTE   N05  Ds1  v116
 BYTE   W09
 BYTE   N02  Ds1  v104
 BYTE   W03
 BYTE   N05  Ds1  v116
 BYTE   W06
 BYTE   PEND 
//  #04 //011   ----------------------------------------
 BYTE   PATT
  POIN2 Label_0101C68A
//  #04 //012   ----------------------------------------
 BYTE   PATT
  POIN2 Label_0101C68A
//  #04 //013   ----------------------------------------
 BYTE   W03
 BYTE   N02  Ds1  v104
 BYTE   W03
 BYTE   VOICE   41
 BYTE   VOL   60*song14_mvl/mxv
 BYTE   PAN   c_v-25
 BYTE   VOL   32*song14_mvl/mxv
 BYTE   N17  Cs3
 BYTE   W01
 BYTE   VOL   33*song14_mvl/mxv
 BYTE   W01
 BYTE   VOL   35*song14_mvl/mxv
 BYTE   W01
 BYTE   VOL   36*song14_mvl/mxv
 BYTE   W01
 BYTE   VOL   38*song14_mvl/mxv
 BYTE   W01
 BYTE   VOL   40*song14_mvl/mxv
 BYTE   W01
 BYTE   VOL   42*song14_mvl/mxv
 BYTE   W01
 BYTE   VOL   43*song14_mvl/mxv
 BYTE   W01
 BYTE   VOL   45*song14_mvl/mxv
 BYTE   W01
 BYTE   VOL   46*song14_mvl/mxv
 BYTE   W01
 BYTE   VOL   48*song14_mvl/mxv
 BYTE   W01
 BYTE   VOL   50*song14_mvl/mxv
 BYTE   W01
 BYTE   VOL   52*song14_mvl/mxv
 BYTE   W01
 BYTE   VOL   53*song14_mvl/mxv
 BYTE   W01
 BYTE   VOL   55*song14_mvl/mxv
 BYTE   W01
 BYTE   VOL   56*song14_mvl/mxv
 BYTE   W01
 BYTE   VOL   58*song14_mvl/mxv
 BYTE   W01
 BYTE   VOL   60*song14_mvl/mxv
 BYTE   W01
 BYTE   N02
 BYTE   W03
 BYTE   N02
 BYTE   W03
 BYTE   N05
 BYTE   W06
 BYTE   N02
 BYTE   W03
 BYTE   N02
 BYTE   W03
 BYTE   N05
 BYTE   W06
 BYTE   N02
 BYTE   W03
 BYTE   N02
 BYTE   W03
 BYTE   N05
 BYTE   W06
 BYTE   N05
 BYTE   W06
 BYTE   N05
 BYTE   W06
 BYTE   N05
 BYTE   W06
 BYTE   VOL   50*song14_mvl/mxv
 BYTE   N17  Fn3
 BYTE   W01
 BYTE   VOL   51*song14_mvl/mxv
 BYTE   W01
 BYTE   VOL   52*song14_mvl/mxv
 BYTE   W02
 BYTE   VOL   52*song14_mvl/mxv
 BYTE   W01
 BYTE   VOL   53*song14_mvl/mxv
 BYTE   W01
 BYTE   VOL   54*song14_mvl/mxv
 BYTE   W01
 BYTE   VOL   54*song14_mvl/mxv
 BYTE   W01
 BYTE   VOL   55*song14_mvl/mxv
 BYTE   W02
 BYTE   VOL   56*song14_mvl/mxv
 BYTE   W01
 BYTE   VOL   56*song14_mvl/mxv
 BYTE   W01
 BYTE   VOL   57*song14_mvl/mxv
 BYTE   W01
 BYTE   VOL   58*song14_mvl/mxv
 BYTE   W01
 BYTE   VOL   58*song14_mvl/mxv
 BYTE   W02
 BYTE   VOL   59*song14_mvl/mxv
 BYTE   W01
 BYTE   VOL   60*song14_mvl/mxv
 BYTE   W01
//  #04 //014   ----------------------------------------
 BYTE   N02
 BYTE   W03
 BYTE   N02
 BYTE   W03
 BYTE   N05
 BYTE   W06
 BYTE   N02
 BYTE   W03
 BYTE   N02
 BYTE   W03
 BYTE   N05
 BYTE   W06
 BYTE   N02
 BYTE   W03
 BYTE   N02
 BYTE   W03
 BYTE   N05
 BYTE   W06
 BYTE   N05
 BYTE   W06
 BYTE   N05
 BYTE   W06
 BYTE   N05
 BYTE   W06
 BYTE   VOL   50*song14_mvl/mxv
 BYTE   N17  Gs3
 BYTE   W01
 BYTE   VOL   51*song14_mvl/mxv
 BYTE   W01
 BYTE   VOL   52*song14_mvl/mxv
 BYTE   W02
 BYTE   VOL   52*song14_mvl/mxv
 BYTE   W01
 BYTE   VOL   53*song14_mvl/mxv
 BYTE   W01
 BYTE   VOL   54*song14_mvl/mxv
 BYTE   W01
 BYTE   VOL   54*song14_mvl/mxv
 BYTE   W01
 BYTE   VOL   55*song14_mvl/mxv
 BYTE   W02
 BYTE   VOL   56*song14_mvl/mxv
 BYTE   W01
 BYTE   VOL   56*song14_mvl/mxv
 BYTE   W01
 BYTE   VOL   57*song14_mvl/mxv
 BYTE   W01
 BYTE   VOL   58*song14_mvl/mxv
 BYTE   W01
 BYTE   VOL   58*song14_mvl/mxv
 BYTE   W02
 BYTE   VOL   59*song14_mvl/mxv
 BYTE   W01
 BYTE   VOL   60*song14_mvl/mxv
 BYTE   W01
 BYTE   N02
 BYTE   W03
 BYTE   N02
 BYTE   W03
 BYTE   N05
 BYTE   W06
 BYTE   N02
 BYTE   W03
 BYTE   N02
 BYTE   W03
 BYTE   N05
 BYTE   W06
//  #04 //015   ----------------------------------------
 BYTE   N02
 BYTE   W03
 BYTE   N02
 BYTE   W03
 BYTE   N05
 BYTE   W06
 BYTE   N05
 BYTE   W06
 BYTE   N05
 BYTE   W06
 BYTE   N05
 BYTE   W06
 BYTE   VOL   34*song14_mvl/mxv
 BYTE   N44
 BYTE   W01
 BYTE   VOL   35*song14_mvl/mxv
 BYTE   W01
 BYTE   VOL   36*song14_mvl/mxv
 BYTE   W01
 BYTE   VOL   38*song14_mvl/mxv
 BYTE   W01
 BYTE   VOL   38*song14_mvl/mxv
 BYTE   W01
 BYTE   VOL   40*song14_mvl/mxv
 BYTE   W01
 BYTE   VOL   41*song14_mvl/mxv
 BYTE   W01
 BYTE   VOL   42*song14_mvl/mxv
 BYTE   W01
 BYTE   VOL   43*song14_mvl/mxv
 BYTE   W01
 BYTE   VOL   44*song14_mvl/mxv
 BYTE   W01
 BYTE   VOL   45*song14_mvl/mxv
 BYTE   W01
 BYTE   VOL   46*song14_mvl/mxv
 BYTE   W01
 BYTE   VOL   48*song14_mvl/mxv
 BYTE   W01
 BYTE   VOL   48*song14_mvl/mxv
 BYTE   W01
 BYTE   VOL   50*song14_mvl/mxv
 BYTE   W01
 BYTE   VOL   51*song14_mvl/mxv
 BYTE   W01
 BYTE   VOL   52*song14_mvl/mxv
 BYTE   W01
 BYTE   VOL   53*song14_mvl/mxv
 BYTE   W01
 BYTE   VOL   54*song14_mvl/mxv
 BYTE   W01
 BYTE   VOL   55*song14_mvl/mxv
 BYTE   W01
 BYTE   VOL   56*song14_mvl/mxv
 BYTE   W01
 BYTE   VOL   58*song14_mvl/mxv
 BYTE   W01
 BYTE   VOL   58*song14_mvl/mxv
 BYTE   W01
 BYTE   VOL   60*song14_mvl/mxv
 BYTE   W24
 BYTE   W01
 BYTE   VOICE   14
 BYTE   VOL   44*song14_mvl/mxv
 BYTE   PAN   c_v+0
 BYTE   N03  Cs1  v116
 BYTE   W05
 BYTE   N06  Cs1  v052
 BYTE   W07
 BYTE   N03  Cs1  v116
 BYTE   W05
 BYTE   N06  Cs1  v052
 BYTE   W01
//  #04 //016   ----------------------------------------
 BYTE   PATT
  POIN2 Label_0101C601
//  #04 //017   ----------------------------------------
 BYTE   PATT
  POIN2 Label_0101C601
//  #04 //018   ----------------------------------------
 BYTE   W06
 BYTE   N03  Cs1  v116
 BYTE   W05
 BYTE   N06  Cs1  v052
 BYTE   W07
 BYTE   N03  Cs1  v116
 BYTE   W05
 BYTE   N06  Cs1  v052
 BYTE   W07
 BYTE   N03  Cs1  v116
 BYTE   W05
 BYTE   N06  Cs1  v052
 BYTE   W07
 BYTE   N03  Cs1  v116
 BYTE   W05
 BYTE   N06  Cs1  v052
 BYTE   W07
 BYTE   N03  Cs1  v116
 BYTE   W05
 BYTE   N06  Cs1  v052
 BYTE   W07
 BYTE   N03  Cs1  v116
 BYTE   W05
 BYTE   N06  Cs1  v052
 BYTE   W07
 BYTE   GoTo
  POIN2 Label_0101C565
//  #04 //019   ----------------------------------------
 BYTE   VOICE   14
 BYTE   VOL   44*song14_mvl/mxv
 BYTE   PAN   c_v+0
 BYTE   N03  Ds1  v116
 BYTE   W05
 BYTE   N06  Ds1  v052
 BYTE   W07
 BYTE   N03  Ds1  v116
 BYTE   W05
 BYTE   N06  Ds1  v052
 BYTE   W01
//  #04 //020   ----------------------------------------
 BYTE   PATT
  POIN2 Label_0101C5AB
//  #04 //021   ----------------------------------------
 BYTE   PATT
  POIN2 Label_0101C5AB
//  #04 //022   ----------------------------------------
 BYTE   PATT
  POIN2 Label_0101C5AB
//  #04 //023   ----------------------------------------
 BYTE   PATT
  POIN2 Label_0101C5AB
//  #04 //024   ----------------------------------------
 BYTE   PATT
  POIN2 Label_0101C5AB
//  #04 //025   ----------------------------------------
 BYTE   W06
 BYTE   N03  Ds1  v116
 BYTE   W05
 BYTE   N06  Ds1  v052
 BYTE   W07
 BYTE   N03  Ds1  v116
 BYTE   W05
 BYTE   N06  Ds1  v052
 BYTE   W07
 BYTE   N03  Ds1  v116
 BYTE   W05
 BYTE   N06  Ds1  v052
 BYTE   W07
 BYTE   N03  Ds1  v116
 BYTE   W05
 BYTE   N06  Ds1  v052
 BYTE   W07
 BYTE   N03  Ds1  v116
 BYTE   W05
 BYTE   N06  Ds1  v052
 BYTE   W07
 BYTE   N03  Ds1  v116
 BYTE   W05
 BYTE   N06  Ds1  v052
 BYTE   W07
 BYTE   N03  Cs1  v116
 BYTE   W05
 BYTE   N06  Cs1  v052
 BYTE   W07
 BYTE   N03  Cs1  v116
 BYTE   W05
 BYTE   N06  Cs1  v052
 BYTE   W01
//  #04 //026   ----------------------------------------
 BYTE   PATT
  POIN2 Label_0101C601
//  #04 //027   ----------------------------------------
 BYTE   PATT
  POIN2 Label_0101C601
//  #04 //028   ----------------------------------------
 BYTE   W06
 BYTE   N03  Cs1  v116
 BYTE   W05
 BYTE   N06  Cs1  v052
 BYTE   W07
 BYTE   N03  Cs1  v116
 BYTE   W05
 BYTE   N06  Cs1  v052
 BYTE   W07
 BYTE   N03  Cs1  v116
 BYTE   W05
 BYTE   N06  Cs1  v052
 BYTE   W07
 BYTE   N03  Cs1  v116
 BYTE   W05
 BYTE   N06  Cs1  v052
 BYTE   W07
 BYTE   N03  Cs1  v116
 BYTE   W05
 BYTE   N06  Cs1  v052
 BYTE   W07
 BYTE   N03  Cs1  v116
 BYTE   W05
 BYTE   N06  Cs1  v052
 BYTE   W07
 BYTE   N05  Ds1  v116
 BYTE   W09
 BYTE   N02  Ds1  v104
 BYTE   W03
 BYTE   N05  Ds1  v116
 BYTE   W06
//  #04 //029   ----------------------------------------
 BYTE   PATT
  POIN2 Label_0101C68A
//  #04 //030   ----------------------------------------
 BYTE   PATT
  POIN2 Label_0101C68A
//  #04 //031   ----------------------------------------
 BYTE   PATT
  POIN2 Label_0101C68A
//  #04 //032   ----------------------------------------
 BYTE   W03
 BYTE   N02  Ds1  v104
 BYTE   W03
 BYTE   N05  Ds1  v116
 BYTE   W09
 BYTE   N02  Ds1  v104
 BYTE   W03
 BYTE   N05  Ds1  v116
 BYTE   W09
 BYTE   N02  Ds1  v104
 BYTE   W03
 BYTE   N05  Ds1  v116
 BYTE   W09
 BYTE   N02  Ds1  v104
 BYTE   W03
 BYTE   N05  Ds1  v116
 BYTE   W09
 BYTE   N02  Ds1  v104
 BYTE   W03
 BYTE   N05  Ds1  v116
 BYTE   W09
 BYTE   N02  Ds1  v104
 BYTE   W03
 BYTE   N05  Ds1  v116
 BYTE   W09
 BYTE   N02  Ds1  v104
 BYTE   W03
 BYTE   VOICE   41
 BYTE   VOL   60*song14_mvl/mxv
 BYTE   PAN   c_v-25
 BYTE   VOL   30*song14_mvl/mxv
 BYTE   N17  Cs3
 BYTE   W01
 BYTE   VOL   32*song14_mvl/mxv
 BYTE   W01
 BYTE   VOL   34*song14_mvl/mxv
 BYTE   W01
 BYTE   VOL   36*song14_mvl/mxv
 BYTE   W01
 BYTE   VOL   37*song14_mvl/mxv
 BYTE   W01
 BYTE   VOL   39*song14_mvl/mxv
 BYTE   W01
 BYTE   VOL   40*song14_mvl/mxv
 BYTE   W01
 BYTE   VOL   42*song14_mvl/mxv
 BYTE   W01
 BYTE   VOL   44*song14_mvl/mxv
 BYTE   W01
 BYTE   VOL   46*song14_mvl/mxv
 BYTE   W01
 BYTE   VOL   47*song14_mvl/mxv
 BYTE   W01
 BYTE   VOL   49*song14_mvl/mxv
 BYTE   W01
 BYTE   VOL   50*song14_mvl/mxv
 BYTE   W01
 BYTE   VOL   52*song14_mvl/mxv
 BYTE   W01
 BYTE   VOL   54*song14_mvl/mxv
 BYTE   W01
 BYTE   VOL   56*song14_mvl/mxv
 BYTE   W01
 BYTE   VOL   57*song14_mvl/mxv
 BYTE   W01
 BYTE   VOL   59*song14_mvl/mxv
 BYTE   W01
//  #04 //033   ----------------------------------------
 BYTE   VOL   60*song14_mvl/mxv
 BYTE   N02
 BYTE   W03
 BYTE   N02
 BYTE   W03
 BYTE   N05
 BYTE   W06
 BYTE   N02
 BYTE   W03
 BYTE   N02
 BYTE   W03
 BYTE   N05
 BYTE   W06
 BYTE   N02
 BYTE   W03
 BYTE   N02
 BYTE   W03
 BYTE   N05
 BYTE   W06
 BYTE   N05
 BYTE   W06
 BYTE   N05
 BYTE   W06
 BYTE   N05
 BYTE   W06
 BYTE   VOL   50*song14_mvl/mxv
 BYTE   N17  Fn3
 BYTE   W01
 BYTE   VOL   50*song14_mvl/mxv
 BYTE   W01
 BYTE   VOL   51*song14_mvl/mxv
 BYTE   W01
 BYTE   VOL   52*song14_mvl/mxv
 BYTE   W01
 BYTE   VOL   52*song14_mvl/mxv
 BYTE   W01
 BYTE   VOL   53*song14_mvl/mxv
 BYTE   W02
 BYTE   VOL   54*song14_mvl/mxv
 BYTE   W01
 BYTE   VOL   54*song14_mvl/mxv
 BYTE   W01
 BYTE   VOL   55*song14_mvl/mxv
 BYTE   W01
 BYTE   VOL   56*song14_mvl/mxv
 BYTE   W01
 BYTE   VOL   56*song14_mvl/mxv
 BYTE   W02
 BYTE   VOL   57*song14_mvl/mxv
 BYTE   W01
 BYTE   VOL   58*song14_mvl/mxv
 BYTE   W01
 BYTE   VOL   58*song14_mvl/mxv
 BYTE   W01
 BYTE   VOL   59*song14_mvl/mxv
 BYTE   W01
 BYTE   VOL   60*song14_mvl/mxv
 BYTE   W01
 BYTE   N02
 BYTE   W03
 BYTE   N02
 BYTE   W03
 BYTE   N05
 BYTE   W06
 BYTE   N02
 BYTE   W03
 BYTE   N02
 BYTE   W03
 BYTE   N05
 BYTE   W06
//  #04 //034   ----------------------------------------
 BYTE   N02
 BYTE   W03
 BYTE   N02
 BYTE   W03
 BYTE   N05
 BYTE   W06
 BYTE   N05
 BYTE   W06
 BYTE   N05
 BYTE   W06
 BYTE   N05
 BYTE   W06
 BYTE   VOL   50*song14_mvl/mxv
 BYTE   N17  Gs3
 BYTE   W01
 BYTE   VOL   50*song14_mvl/mxv
 BYTE   W01
 BYTE   VOL   51*song14_mvl/mxv
 BYTE   W01
 BYTE   VOL   52*song14_mvl/mxv
 BYTE   W01
 BYTE   VOL   52*song14_mvl/mxv
 BYTE   W01
 BYTE   VOL   53*song14_mvl/mxv
 BYTE   W02
 BYTE   VOL   54*song14_mvl/mxv
 BYTE   W01
 BYTE   VOL   54*song14_mvl/mxv
 BYTE   W01
 BYTE   VOL   55*song14_mvl/mxv
 BYTE   W01
 BYTE   VOL   56*song14_mvl/mxv
 BYTE   W01
 BYTE   VOL   56*song14_mvl/mxv
 BYTE   W02
 BYTE   VOL   57*song14_mvl/mxv
 BYTE   W01
 BYTE   VOL   58*song14_mvl/mxv
 BYTE   W01
 BYTE   VOL   58*song14_mvl/mxv
 BYTE   W01
 BYTE   VOL   59*song14_mvl/mxv
 BYTE   W01
 BYTE   VOL   60*song14_mvl/mxv
 BYTE   W01
 BYTE   N02
 BYTE   W03
 BYTE   N02
 BYTE   W03
 BYTE   N05
 BYTE   W06
 BYTE   N02
 BYTE   W03
 BYTE   N02
 BYTE   W03
 BYTE   N05
 BYTE   W06
 BYTE   N02
 BYTE   W03
 BYTE   N02
 BYTE   W03
 BYTE   N05
 BYTE   W06
 BYTE   N05
 BYTE   W06
 BYTE   N05
 BYTE   W06
//  #04 //035   ----------------------------------------
 BYTE   N05
 BYTE   W06
 BYTE   VOL   34*song14_mvl/mxv
 BYTE   N44
 BYTE   W01
 BYTE   VOL   35*song14_mvl/mxv
 BYTE   W01
 BYTE   VOL   36*song14_mvl/mxv
 BYTE   W01
 BYTE   VOL   37*song14_mvl/mxv
 BYTE   W01
 BYTE   VOL   38*song14_mvl/mxv
 BYTE   W01
 BYTE   VOL   39*song14_mvl/mxv
 BYTE   W01
 BYTE   VOL   40*song14_mvl/mxv
 BYTE   W01
 BYTE   VOL   42*song14_mvl/mxv
 BYTE   W01
 BYTE   VOL   42*song14_mvl/mxv
 BYTE   W01
 BYTE   VOL   44*song14_mvl/mxv
 BYTE   W01
 BYTE   VOL   45*song14_mvl/mxv
 BYTE   W01
 BYTE   VOL   46*song14_mvl/mxv
 BYTE   W01
 BYTE   VOL   47*song14_mvl/mxv
 BYTE   W01
 BYTE   VOL   48*song14_mvl/mxv
 BYTE   W01
 BYTE   VOL   49*song14_mvl/mxv
 BYTE   W01
 BYTE   VOL   50*song14_mvl/mxv
 BYTE   W01
 BYTE   VOL   52*song14_mvl/mxv
 BYTE   W01
 BYTE   VOL   52*song14_mvl/mxv
 BYTE   W01
 BYTE   VOL   54*song14_mvl/mxv
 BYTE   W01
 BYTE   VOL   55*song14_mvl/mxv
 BYTE   W01
 BYTE   VOL   56*song14_mvl/mxv
 BYTE   W01
 BYTE   VOL   57*song14_mvl/mxv
 BYTE   W01
 BYTE   VOL   58*song14_mvl/mxv
 BYTE   W01
 BYTE   VOL   59*song14_mvl/mxv
 BYTE   W01
 BYTE   VOL   60*song14_mvl/mxv
 BYTE   W24
 BYTE   VOICE   14
 BYTE   VOL   44*song14_mvl/mxv
 BYTE   PAN   c_v+0
 BYTE   N03  Cs1  v116
 BYTE   W05
 BYTE   N06  Cs1  v052
 BYTE   W07
 BYTE   N03  Cs1  v116
 BYTE   W05
 BYTE   N06  Cs1  v052
 BYTE   W07
 BYTE   N03  Cs1  v116
 BYTE   W05
 BYTE   N06  Cs1  v052
 BYTE   W07
 BYTE   N03  Cs1  v116
 BYTE   W05
 BYTE   N06  Cs1  v052
 BYTE   W01
//  #04 //036   ----------------------------------------
 BYTE   PATT
  POIN2 Label_0101C601
//  #04 //037   ----------------------------------------
 BYTE   PATT
  POIN2 Label_0101C601
//  #04 //038   ----------------------------------------
 BYTE   W06
 BYTE   N03  Cs1  v116
 BYTE   W05
 BYTE   N06  Cs1  v052
 BYTE   W07
 BYTE   N03  Cs1  v116
 BYTE   W05
 BYTE   N06  Cs1  v052
 BYTE   W07
 BYTE   N03  Cs1  v116
 BYTE   W05
 BYTE   N06  Cs1  v052
 BYTE   W07
 BYTE   N03  Cs1  v116
 BYTE   W05
 BYTE   N06  Cs1  v052
 BYTE   W09
 BYTE   FINE

//**************** Track 5 (Midi-Chn.4) ****************//

song14_005:
//  #05 //000   ----------------------------------------
 BYTE   KEYSH   song14_key+0
 BYTE   W06
Label_0101CA63:
 BYTE   VOICE   41
 BYTE   VOL   73*song14_mvl/mxv
 BYTE   PAN   c_v-14
 BYTE   W90
//  #05 //001   ----------------------------------------
Label_0101CA6A:
 BYTE   W06
 BYTE   N11  Ds1  v116
 BYTE   W12
 BYTE   Fs1
 BYTE   W12
 BYTE   N23  Gs1
 BYTE   W24
 BYTE   Fs1
 BYTE   W24
 BYTE   N11  Fn1
 BYTE   W12
 BYTE   Cs1
 BYTE   W06
 BYTE   PEND 
//  #05 //002   ----------------------------------------
 BYTE   W06
 BYTE   N92  Ds1
 BYTE   W90
//  #05 //003   ----------------------------------------
Label_0101CA80:
 BYTE   W06
 BYTE   N11  Ds1  v116
 BYTE   W12
 BYTE   Fs1
 BYTE   W12
 BYTE   N23  Gs1
 BYTE   W24
 BYTE   Fs1
 BYTE   W24
 BYTE   N11  Fn1
 BYTE   W12
 BYTE   Bn1
 BYTE   W06
 BYTE   PEND 
//  #05 //004   ----------------------------------------
 BYTE   W06
 BYTE   N92  As1
 BYTE   W90
//  #05 //005   ----------------------------------------
 BYTE   W18
 BYTE   N11  An1
 BYTE   W12
 BYTE   Gs1
 BYTE   W12
 BYTE   Bn1
 BYTE   W12
 BYTE   N23  An1
 BYTE   W24
 BYTE   Fs1
 BYTE   W18
//  #05 //006   ----------------------------------------
 BYTE   W18
 BYTE   N11  Cs2
 BYTE   W12
 BYTE   Cn2
 BYTE   W12
 BYTE   Dn2
 BYTE   W12
 BYTE   N23  Cs2
 BYTE   W24
 BYTE   Gs1
 BYTE   W18
//  #05 //007   ----------------------------------------
 BYTE   W06
 BYTE   Fs1
 BYTE   W24
 BYTE   N68  Fn1
 BYTE   W66
//  #05 //008   ----------------------------------------
 BYTE   W96
//  #05 //009   ----------------------------------------
 BYTE   PATT
  POIN2 Label_0101CA6A
//  #05 //010   ----------------------------------------
 BYTE   W06
 BYTE   N92  Ds1  v116
 BYTE   W90
//  #05 //011   ----------------------------------------
 BYTE   PATT
  POIN2 Label_0101CA80
//  #05 //012   ----------------------------------------
 BYTE   W06
 BYTE   N92  As1  v116
 BYTE   W90
//  #05 //013   ----------------------------------------
 BYTE   W06
 BYTE   VOICE   41
 BYTE   VOL   63*song14_mvl/mxv
 BYTE   PAN   c_v+25
 BYTE   VOL   32*song14_mvl/mxv
 BYTE   N17  An2
 BYTE   W01
 BYTE   VOL   34*song14_mvl/mxv
 BYTE   W01
 BYTE   VOL   35*song14_mvl/mxv
 BYTE   W01
 BYTE   VOL   37*song14_mvl/mxv
 BYTE   W01
 BYTE   VOL   39*song14_mvl/mxv
 BYTE   W01
 BYTE   VOL   41*song14_mvl/mxv
 BYTE   W01
 BYTE   VOL   42*song14_mvl/mxv
 BYTE   W01
 BYTE   VOL   44*song14_mvl/mxv
 BYTE   W01
 BYTE   VOL   46*song14_mvl/mxv
 BYTE   W01
 BYTE   VOL   48*song14_mvl/mxv
 BYTE   W01
 BYTE   VOL   50*song14_mvl/mxv
 BYTE   W01
 BYTE   VOL   52*song14_mvl/mxv
 BYTE   W01
 BYTE   VOL   54*song14_mvl/mxv
 BYTE   W01
 BYTE   VOL   56*song14_mvl/mxv
 BYTE   W01
 BYTE   VOL   58*song14_mvl/mxv
 BYTE   W01
 BYTE   VOL   59*song14_mvl/mxv
 BYTE   W01
 BYTE   VOL   61*song14_mvl/mxv
 BYTE   W01
 BYTE   VOL   63*song14_mvl/mxv
 BYTE   W01
 BYTE   N02
 BYTE   W03
 BYTE   N02
 BYTE   W03
 BYTE   N05
 BYTE   W06
 BYTE   N02
 BYTE   W03
 BYTE   N02
 BYTE   W03
 BYTE   N05
 BYTE   W06
 BYTE   N02
 BYTE   W03
 BYTE   N02
 BYTE   W03
 BYTE   N05
 BYTE   W06
 BYTE   N05
 BYTE   W06
 BYTE   N05
 BYTE   W06
 BYTE   N05
 BYTE   W06
 BYTE   VOL   54*song14_mvl/mxv
 BYTE   N17  Cn3
 BYTE   W01
 BYTE   VOL   54*song14_mvl/mxv
 BYTE   W01
 BYTE   VOL   55*song14_mvl/mxv
 BYTE   W02
 BYTE   VOL   56*song14_mvl/mxv
 BYTE   W01
 BYTE   VOL   56*song14_mvl/mxv
 BYTE   W01
 BYTE   VOL   57*song14_mvl/mxv
 BYTE   W01
 BYTE   VOL   58*song14_mvl/mxv
 BYTE   W01
 BYTE   VOL   58*song14_mvl/mxv
 BYTE   W02
 BYTE   VOL   59*song14_mvl/mxv
 BYTE   W01
 BYTE   VOL   60*song14_mvl/mxv
 BYTE   W01
 BYTE   VOL   60*song14_mvl/mxv
 BYTE   W01
 BYTE   VOL   61*song14_mvl/mxv
 BYTE   W01
 BYTE   VOL   62*song14_mvl/mxv
 BYTE   W02
 BYTE   VOL   62*song14_mvl/mxv
 BYTE   W01
 BYTE   VOL   63*song14_mvl/mxv
 BYTE   W01
//  #05 //014   ----------------------------------------
 BYTE   N02
 BYTE   W03
 BYTE   N02
 BYTE   W03
 BYTE   N05
 BYTE   W06
 BYTE   N02
 BYTE   W03
 BYTE   N02
 BYTE   W03
 BYTE   N05
 BYTE   W06
 BYTE   N02
 BYTE   W03
 BYTE   N02
 BYTE   W03
 BYTE   N05
 BYTE   W06
 BYTE   N05
 BYTE   W06
 BYTE   N05
 BYTE   W06
 BYTE   N05
 BYTE   W06
 BYTE   VOL   54*song14_mvl/mxv
 BYTE   N17  Ds3
 BYTE   W01
 BYTE   VOL   54*song14_mvl/mxv
 BYTE   W01
 BYTE   VOL   55*song14_mvl/mxv
 BYTE   W02
 BYTE   VOL   56*song14_mvl/mxv
 BYTE   W01
 BYTE   VOL   56*song14_mvl/mxv
 BYTE   W01
 BYTE   VOL   57*song14_mvl/mxv
 BYTE   W01
 BYTE   VOL   58*song14_mvl/mxv
 BYTE   W01
 BYTE   VOL   58*song14_mvl/mxv
 BYTE   W02
 BYTE   VOL   59*song14_mvl/mxv
 BYTE   W01
 BYTE   VOL   60*song14_mvl/mxv
 BYTE   W01
 BYTE   VOL   60*song14_mvl/mxv
 BYTE   W01
 BYTE   VOL   61*song14_mvl/mxv
 BYTE   W01
 BYTE   VOL   62*song14_mvl/mxv
 BYTE   W02
 BYTE   VOL   62*song14_mvl/mxv
 BYTE   W01
 BYTE   VOL   63*song14_mvl/mxv
 BYTE   W01
 BYTE   N02
 BYTE   W03
 BYTE   N02
 BYTE   W03
 BYTE   N05
 BYTE   W06
 BYTE   N02
 BYTE   W03
 BYTE   N02
 BYTE   W03
 BYTE   N05
 BYTE   W06
//  #05 //015   ----------------------------------------
 BYTE   N02
 BYTE   W03
 BYTE   N02
 BYTE   W03
 BYTE   N05
 BYTE   W06
 BYTE   N05
 BYTE   W06
 BYTE   N05
 BYTE   W06
 BYTE   N05
 BYTE   W06
 BYTE   VOL   34*song14_mvl/mxv
 BYTE   N44
 BYTE   W01
 BYTE   VOL   36*song14_mvl/mxv
 BYTE   W01
 BYTE   VOL   37*song14_mvl/mxv
 BYTE   W01
 BYTE   VOL   38*song14_mvl/mxv
 BYTE   W01
 BYTE   VOL   39*song14_mvl/mxv
 BYTE   W01
 BYTE   VOL   40*song14_mvl/mxv
 BYTE   W01
 BYTE   VOL   42*song14_mvl/mxv
 BYTE   W01
 BYTE   VOL   43*song14_mvl/mxv
 BYTE   W01
 BYTE   VOL   44*song14_mvl/mxv
 BYTE   W01
 BYTE   VOL   46*song14_mvl/mxv
 BYTE   W01
 BYTE   VOL   47*song14_mvl/mxv
 BYTE   W01
 BYTE   VOL   48*song14_mvl/mxv
 BYTE   W01
 BYTE   VOL   49*song14_mvl/mxv
 BYTE   W01
 BYTE   VOL   50*song14_mvl/mxv
 BYTE   W01
 BYTE   VOL   52*song14_mvl/mxv
 BYTE   W01
 BYTE   VOL   53*song14_mvl/mxv
 BYTE   W01
 BYTE   VOL   54*song14_mvl/mxv
 BYTE   W01
 BYTE   VOL   56*song14_mvl/mxv
 BYTE   W01
 BYTE   VOL   57*song14_mvl/mxv
 BYTE   W01
 BYTE   VOL   58*song14_mvl/mxv
 BYTE   W01
 BYTE   VOL   59*song14_mvl/mxv
 BYTE   W01
 BYTE   VOL   60*song14_mvl/mxv
 BYTE   W01
 BYTE   VOL   62*song14_mvl/mxv
 BYTE   W01
 BYTE   VOL   63*song14_mvl/mxv
 BYTE   W42
 BYTE   W01
//  #05 //016   ----------------------------------------
 BYTE   W78
 BYTE   VOICE   41
 BYTE   VOL   73*song14_mvl/mxv
 BYTE   PAN   c_v-14
 BYTE   N11  Cs1
 BYTE   W12
 BYTE   En1
 BYTE   W06
//  #05 //017   ----------------------------------------
 BYTE   W06
 BYTE   N23  Fs1
 BYTE   W24
 BYTE   En1
 BYTE   W24
 BYTE   N11  Ds1
 BYTE   W12
 BYTE   Bn0
 BYTE   W12
 BYTE   N92  Cs1
 BYTE   W18
//  #05 //018   ----------------------------------------
 BYTE   W78
 BYTE   GoTo
  POIN2 Label_0101CA63
//  #05 //019   ----------------------------------------
 BYTE   VOICE   41
 BYTE   VOL   73*song14_mvl/mxv
 BYTE   PAN   c_v-14
 BYTE   W18
Label_0101CBE1:
 BYTE   W78
//  #05 //020   ----------------------------------------
 BYTE   N11  Ds1  v116
 BYTE   W12
 BYTE   Fs1
 BYTE   W06
 BYTE   PEND 
Label_0101CBE9:
 BYTE   W06
 BYTE   N23  Gs1  v116
 BYTE   W24
 BYTE   Fs1
 BYTE   W24
 BYTE   N11  Fn1
 BYTE   W12
 BYTE   Cs1
 BYTE   W12
//  #05 //021   ----------------------------------------
 BYTE   N92  Ds1
 BYTE   W18
 BYTE   PEND 
//  #05 //022   ----------------------------------------
 BYTE   PATT
  POIN2 Label_0101CBE1
//  #05 //023   ----------------------------------------
Label_0101CBFE:
 BYTE   W06
 BYTE   N23  Gs1  v116
 BYTE   W24
 BYTE   Fs1
 BYTE   W24
 BYTE   N11  Fn1
 BYTE   W12
 BYTE   Bn1
 BYTE   W12
 BYTE   N92  As1
 BYTE   W18
 BYTE   PEND 
//  #05 //024   ----------------------------------------
 BYTE   W90
 BYTE   N11  An1
 BYTE   W06
//  #05 //025   ----------------------------------------
 BYTE   W06
 BYTE   Gs1
 BYTE   W12
 BYTE   Bn1
 BYTE   W12
 BYTE   N23  An1
 BYTE   W24
 BYTE   Fs1
 BYTE   W36
 BYTE   N11  Cs2
 BYTE   W06
//  #05 //026   ----------------------------------------
 BYTE   W06
 BYTE   Cn2
 BYTE   W12
 BYTE   Dn2
 BYTE   W12
 BYTE   N23  Cs2
 BYTE   W24
 BYTE   Gs1
 BYTE   W24
 BYTE   Fs1
 BYTE   W18
//  #05 //027   ----------------------------------------
 BYTE   W06
 BYTE   N68  Fn1
 BYTE   W90
//  #05 //028   ----------------------------------------
 BYTE   PATT
  POIN2 Label_0101CBE1
//  #05 //029   ----------------------------------------
 BYTE   PATT
  POIN2 Label_0101CBE9
//  #05 //030   ----------------------------------------
 BYTE   PATT
  POIN2 Label_0101CBE1
//  #05 //031   ----------------------------------------
 BYTE   PATT
  POIN2 Label_0101CBFE
//  #05 //032   ----------------------------------------
 BYTE   W78
 BYTE   VOICE   41
 BYTE   VOL   63*song14_mvl/mxv
 BYTE   PAN   c_v+25
 BYTE   VOL   30*song14_mvl/mxv
 BYTE   N17  An2  v116
 BYTE   W01
 BYTE   VOL   32*song14_mvl/mxv
 BYTE   W01
 BYTE   VOL   34*song14_mvl/mxv
 BYTE   W01
 BYTE   VOL   36*song14_mvl/mxv
 BYTE   W01
 BYTE   VOL   38*song14_mvl/mxv
 BYTE   W01
 BYTE   VOL   40*song14_mvl/mxv
 BYTE   W01
 BYTE   VOL   42*song14_mvl/mxv
 BYTE   W01
 BYTE   VOL   44*song14_mvl/mxv
 BYTE   W01
 BYTE   VOL   46*song14_mvl/mxv
 BYTE   W01
 BYTE   VOL   47*song14_mvl/mxv
 BYTE   W01
 BYTE   VOL   49*song14_mvl/mxv
 BYTE   W01
 BYTE   VOL   51*song14_mvl/mxv
 BYTE   W01
 BYTE   VOL   53*song14_mvl/mxv
 BYTE   W01
 BYTE   VOL   55*song14_mvl/mxv
 BYTE   W01
 BYTE   VOL   56*song14_mvl/mxv
 BYTE   W01
 BYTE   VOL   58*song14_mvl/mxv
 BYTE   W01
 BYTE   VOL   60*song14_mvl/mxv
 BYTE   W01
 BYTE   VOL   62*song14_mvl/mxv
 BYTE   W01
//  #05 //033   ----------------------------------------
 BYTE   VOL   63*song14_mvl/mxv
 BYTE   N02
 BYTE   W03
 BYTE   N02
 BYTE   W03
 BYTE   N05
 BYTE   W06
 BYTE   N02
 BYTE   W03
 BYTE   N02
 BYTE   W03
 BYTE   N05
 BYTE   W06
 BYTE   N02
 BYTE   W03
 BYTE   N02
 BYTE   W03
 BYTE   N05
 BYTE   W06
 BYTE   N05
 BYTE   W06
 BYTE   N05
 BYTE   W06
 BYTE   N05
 BYTE   W06
 BYTE   VOL   53*song14_mvl/mxv
 BYTE   N17  Cn3
 BYTE   W01
 BYTE   VOL   54*song14_mvl/mxv
 BYTE   W01
 BYTE   VOL   54*song14_mvl/mxv
 BYTE   W01
 BYTE   VOL   55*song14_mvl/mxv
 BYTE   W01
 BYTE   VOL   56*song14_mvl/mxv
 BYTE   W01
 BYTE   VOL   56*song14_mvl/mxv
 BYTE   W02
 BYTE   VOL   57*song14_mvl/mxv
 BYTE   W01
 BYTE   VOL   58*song14_mvl/mxv
 BYTE   W01
 BYTE   VOL   58*song14_mvl/mxv
 BYTE   W01
 BYTE   VOL   59*song14_mvl/mxv
 BYTE   W01
 BYTE   VOL   60*song14_mvl/mxv
 BYTE   W02
 BYTE   VOL   60*song14_mvl/mxv
 BYTE   W01
 BYTE   VOL   61*song14_mvl/mxv
 BYTE   W01
 BYTE   VOL   62*song14_mvl/mxv
 BYTE   W01
 BYTE   VOL   62*song14_mvl/mxv
 BYTE   W01
 BYTE   VOL   63*song14_mvl/mxv
 BYTE   W01
 BYTE   N02
 BYTE   W03
 BYTE   N02
 BYTE   W03
 BYTE   N05
 BYTE   W06
 BYTE   N02
 BYTE   W03
 BYTE   N02
 BYTE   W03
 BYTE   N05
 BYTE   W06
//  #05 //034   ----------------------------------------
 BYTE   N02
 BYTE   W03
 BYTE   N02
 BYTE   W03
 BYTE   N05
 BYTE   W06
 BYTE   N05
 BYTE   W06
 BYTE   N05
 BYTE   W06
 BYTE   N05
 BYTE   W06
 BYTE   VOL   53*song14_mvl/mxv
 BYTE   N17  Ds3
 BYTE   W01
 BYTE   VOL   54*song14_mvl/mxv
 BYTE   W01
 BYTE   VOL   54*song14_mvl/mxv
 BYTE   W01
 BYTE   VOL   55*song14_mvl/mxv
 BYTE   W01
 BYTE   VOL   56*song14_mvl/mxv
 BYTE   W01
 BYTE   VOL   56*song14_mvl/mxv
 BYTE   W02
 BYTE   VOL   57*song14_mvl/mxv
 BYTE   W01
 BYTE   VOL   58*song14_mvl/mxv
 BYTE   W01
 BYTE   VOL   58*song14_mvl/mxv
 BYTE   W01
 BYTE   VOL   59*song14_mvl/mxv
 BYTE   W01
 BYTE   VOL   60*song14_mvl/mxv
 BYTE   W02
 BYTE   VOL   60*song14_mvl/mxv
 BYTE   W01
 BYTE   VOL   61*song14_mvl/mxv
 BYTE   W01
 BYTE   VOL   62*song14_mvl/mxv
 BYTE   W01
 BYTE   VOL   62*song14_mvl/mxv
 BYTE   W01
 BYTE   VOL   63*song14_mvl/mxv
 BYTE   W01
 BYTE   N02
 BYTE   W03
 BYTE   N02
 BYTE   W03
 BYTE   N05
 BYTE   W06
 BYTE   N02
 BYTE   W03
 BYTE   N02
 BYTE   W03
 BYTE   N05
 BYTE   W06
 BYTE   N02
 BYTE   W03
 BYTE   N02
 BYTE   W03
 BYTE   N05
 BYTE   W06
 BYTE   N05
 BYTE   W06
 BYTE   N05
 BYTE   W06
//  #05 //035   ----------------------------------------
 BYTE   N05
 BYTE   W06
 BYTE   VOL   34*song14_mvl/mxv
 BYTE   N44
 BYTE   W01
 BYTE   VOL   35*song14_mvl/mxv
 BYTE   W01
 BYTE   VOL   36*song14_mvl/mxv
 BYTE   W01
 BYTE   VOL   38*song14_mvl/mxv
 BYTE   W01
 BYTE   VOL   38*song14_mvl/mxv
 BYTE   W01
 BYTE   VOL   40*song14_mvl/mxv
 BYTE   W01
 BYTE   VOL   41*song14_mvl/mxv
 BYTE   W01
 BYTE   VOL   42*song14_mvl/mxv
 BYTE   W01
 BYTE   VOL   44*song14_mvl/mxv
 BYTE   W01
 BYTE   VOL   45*song14_mvl/mxv
 BYTE   W01
 BYTE   VOL   46*song14_mvl/mxv
 BYTE   W01
 BYTE   VOL   48*song14_mvl/mxv
 BYTE   W01
 BYTE   VOL   48*song14_mvl/mxv
 BYTE   W01
 BYTE   VOL   50*song14_mvl/mxv
 BYTE   W01
 BYTE   VOL   51*song14_mvl/mxv
 BYTE   W01
 BYTE   VOL   52*song14_mvl/mxv
 BYTE   W01
 BYTE   VOL   54*song14_mvl/mxv
 BYTE   W01
 BYTE   VOL   55*song14_mvl/mxv
 BYTE   W01
 BYTE   VOL   56*song14_mvl/mxv
 BYTE   W01
 BYTE   VOL   58*song14_mvl/mxv
 BYTE   W01
 BYTE   VOL   58*song14_mvl/mxv
 BYTE   W01
 BYTE   VOL   60*song14_mvl/mxv
 BYTE   W01
 BYTE   VOL   61*song14_mvl/mxv
 BYTE   W01
 BYTE   VOL   62*song14_mvl/mxv
 BYTE   W01
 BYTE   VOL   63*song14_mvl/mxv
 BYTE   W66
//  #05 //036   ----------------------------------------
 BYTE   W54
 BYTE   VOICE   41
 BYTE   VOL   73*song14_mvl/mxv
 BYTE   PAN   c_v-14
 BYTE   N11  Cs1
 BYTE   W12
 BYTE   En1
 BYTE   W12
 BYTE   N23  Fs1
 BYTE   W18
//  #05 //037   ----------------------------------------
 BYTE   W06
 BYTE   En1
 BYTE   W24
 BYTE   N11  Ds1
 BYTE   W12
 BYTE   Bn0
 BYTE   W12
 BYTE   N92  Cs1
 BYTE   W42
//  #05 //038   ----------------------------------------
 BYTE   W56
 BYTE   FINE

//**************** Track 6 (Midi-Chn.5) ****************//

song14_006:
//  #06 //000   ----------------------------------------
 BYTE   KEYSH   song14_key+0
 BYTE   VOICE   41
 BYTE   VOL   50*song14_mvl/mxv
 BYTE   PAN   c_v-25
 BYTE   W06
Label_0101CD61:
 BYTE   VOICE   41
 BYTE   VOL   50*song14_mvl/mxv
 BYTE   PAN   c_v-25
 BYTE   W90
//  #06 //001   ----------------------------------------
Label_0101CD68:
 BYTE   W08
 BYTE   N11  Ds1  v116
 BYTE   W12
 BYTE   Fs1
 BYTE   W12
 BYTE   N23  Gs1
 BYTE   W24
 BYTE   Fs1
 BYTE   W24
 BYTE   N11  Fn1
 BYTE   W12
 BYTE   Cs1
 BYTE   W04
 BYTE   PEND 
//  #06 //002   ----------------------------------------
 BYTE   W08
 BYTE   N92  Ds1
 BYTE   W88
//  #06 //003   ----------------------------------------
Label_0101CD7E:
 BYTE   W08
 BYTE   N11  Ds1  v116
 BYTE   W12
 BYTE   Fs1
 BYTE   W12
 BYTE   N23  Gs1
 BYTE   W24
 BYTE   Fs1
 BYTE   W24
 BYTE   N11  Fn1
 BYTE   W12
 BYTE   Bn1
 BYTE   W04
 BYTE   PEND 
//  #06 //004   ----------------------------------------
 BYTE   W08
 BYTE   N92  As1
 BYTE   W88
//  #06 //005   ----------------------------------------
 BYTE   W20
 BYTE   N11  An1
 BYTE   W12
 BYTE   Gs1
 BYTE   W12
 BYTE   Bn1
 BYTE   W12
 BYTE   N23  An1
 BYTE   W24
 BYTE   Fs1
 BYTE   W16
//  #06 //006   ----------------------------------------
 BYTE   W20
 BYTE   N11  Cs2
 BYTE   W12
 BYTE   Cn2
 BYTE   W12
 BYTE   Dn2
 BYTE   W12
 BYTE   N23  Cs2
 BYTE   W24
 BYTE   Gs1
 BYTE   W16
//  #06 //007   ----------------------------------------
 BYTE   W08
 BYTE   Fs1
 BYTE   W24
 BYTE   TIE  Fn1
 BYTE   W64
//  #06 //008   ----------------------------------------
 BYTE   W54
 BYTE   W01
 BYTE   EOT
 BYTE   W40
 BYTE   W01
//  #06 //009   ----------------------------------------
 BYTE   PATT
  POIN2 Label_0101CD68
//  #06 //010   ----------------------------------------
 BYTE   W08
 BYTE   N92  Ds1  v116
 BYTE   W88
//  #06 //011   ----------------------------------------
 BYTE   PATT
  POIN2 Label_0101CD7E
//  #06 //012   ----------------------------------------
 BYTE   W08
 BYTE   N92  As1  v116
 BYTE   W88
//  #06 //013   ----------------------------------------
 BYTE   W08
 BYTE   VOICE   41
 BYTE   VOL   60*song14_mvl/mxv
 BYTE   PAN   c_v-25
 BYTE   VOL   32*song14_mvl/mxv
 BYTE   N15  An1
 BYTE   W01
 BYTE   VOL   33*song14_mvl/mxv
 BYTE   W01
 BYTE   VOL   35*song14_mvl/mxv
 BYTE   W01
 BYTE   VOL   36*song14_mvl/mxv
 BYTE   W01
 BYTE   VOL   38*song14_mvl/mxv
 BYTE   W01
 BYTE   VOL   40*song14_mvl/mxv
 BYTE   W01
 BYTE   VOL   42*song14_mvl/mxv
 BYTE   W01
 BYTE   VOL   43*song14_mvl/mxv
 BYTE   W01
 BYTE   VOL   45*song14_mvl/mxv
 BYTE   W01
 BYTE   VOL   46*song14_mvl/mxv
 BYTE   W01
 BYTE   VOL   48*song14_mvl/mxv
 BYTE   W01
 BYTE   VOL   50*song14_mvl/mxv
 BYTE   W01
 BYTE   VOL   52*song14_mvl/mxv
 BYTE   W01
 BYTE   VOL   53*song14_mvl/mxv
 BYTE   W01
 BYTE   VOL   55*song14_mvl/mxv
 BYTE   W01
 BYTE   VOL   56*song14_mvl/mxv
 BYTE   W01
 BYTE   VOL   58*song14_mvl/mxv
 BYTE   N02
 BYTE   W01
 BYTE   VOL   60*song14_mvl/mxv
 BYTE   W02
 BYTE   N02  An2
 BYTE   W03
 BYTE   N05  An1
 BYTE   W06
 BYTE   N02
 BYTE   W03
 BYTE   N02
 BYTE   W03
 BYTE   N05
 BYTE   W06
 BYTE   N02
 BYTE   W03
 BYTE   N02
 BYTE   W03
 BYTE   N05
 BYTE   W06
 BYTE   N05
 BYTE   W06
 BYTE   N05
 BYTE   W06
 BYTE   N05
 BYTE   W06
 BYTE   VOL   50*song14_mvl/mxv
 BYTE   N17  Cn2
 BYTE   W01
 BYTE   VOL   51*song14_mvl/mxv
 BYTE   W01
 BYTE   VOL   52*song14_mvl/mxv
 BYTE   W02
 BYTE   VOL   52*song14_mvl/mxv
 BYTE   W01
 BYTE   VOL   53*song14_mvl/mxv
 BYTE   W01
 BYTE   VOL   54*song14_mvl/mxv
 BYTE   W01
 BYTE   VOL   54*song14_mvl/mxv
 BYTE   W01
 BYTE   VOL   55*song14_mvl/mxv
 BYTE   W02
 BYTE   VOL   56*song14_mvl/mxv
 BYTE   W01
 BYTE   VOL   56*song14_mvl/mxv
 BYTE   W01
 BYTE   VOL   57*song14_mvl/mxv
 BYTE   W01
 BYTE   VOL   58*song14_mvl/mxv
 BYTE   W01
 BYTE   VOL   58*song14_mvl/mxv
 BYTE   W02
 BYTE   VOL   59*song14_mvl/mxv
 BYTE   W01
 BYTE   VOL   60*song14_mvl/mxv
 BYTE   W01
//  #06 //014   ----------------------------------------
 BYTE   N02
 BYTE   W03
 BYTE   N02
 BYTE   W03
 BYTE   N05
 BYTE   W06
 BYTE   N02
 BYTE   W03
 BYTE   N02
 BYTE   W03
 BYTE   N05
 BYTE   W06
 BYTE   N02
 BYTE   W03
 BYTE   N02
 BYTE   W03
 BYTE   N05
 BYTE   W06
 BYTE   N05
 BYTE   W06
 BYTE   N05
 BYTE   W06
 BYTE   N05
 BYTE   W06
 BYTE   VOL   50*song14_mvl/mxv
 BYTE   N17  Ds2
 BYTE   W01
 BYTE   VOL   51*song14_mvl/mxv
 BYTE   W01
 BYTE   VOL   52*song14_mvl/mxv
 BYTE   W02
 BYTE   VOL   52*song14_mvl/mxv
 BYTE   W01
 BYTE   VOL   53*song14_mvl/mxv
 BYTE   W01
 BYTE   VOL   54*song14_mvl/mxv
 BYTE   W01
 BYTE   VOL   54*song14_mvl/mxv
 BYTE   W01
 BYTE   VOL   55*song14_mvl/mxv
 BYTE   W02
 BYTE   VOL   56*song14_mvl/mxv
 BYTE   W01
 BYTE   VOL   56*song14_mvl/mxv
 BYTE   W01
 BYTE   VOL   57*song14_mvl/mxv
 BYTE   W01
 BYTE   VOL   58*song14_mvl/mxv
 BYTE   W01
 BYTE   VOL   58*song14_mvl/mxv
 BYTE   W02
 BYTE   VOL   59*song14_mvl/mxv
 BYTE   W01
 BYTE   VOL   60*song14_mvl/mxv
 BYTE   W01
 BYTE   N02
 BYTE   W03
 BYTE   N02
 BYTE   W03
 BYTE   N05
 BYTE   W06
 BYTE   N02
 BYTE   W03
 BYTE   N02
 BYTE   W03
 BYTE   N05
 BYTE   W06
//  #06 //015   ----------------------------------------
 BYTE   N02
 BYTE   W03
 BYTE   N02
 BYTE   W03
 BYTE   N05
 BYTE   W06
 BYTE   N05
 BYTE   W06
 BYTE   N05
 BYTE   W06
 BYTE   N05
 BYTE   W06
 BYTE   VOL   34*song14_mvl/mxv
 BYTE   N44
 BYTE   W01
 BYTE   VOL   35*song14_mvl/mxv
 BYTE   W01
 BYTE   VOL   36*song14_mvl/mxv
 BYTE   W01
 BYTE   VOL   38*song14_mvl/mxv
 BYTE   W01
 BYTE   VOL   38*song14_mvl/mxv
 BYTE   W01
 BYTE   VOL   40*song14_mvl/mxv
 BYTE   W01
 BYTE   VOL   41*song14_mvl/mxv
 BYTE   W01
 BYTE   VOL   42*song14_mvl/mxv
 BYTE   W01
 BYTE   VOL   43*song14_mvl/mxv
 BYTE   W01
 BYTE   VOL   44*song14_mvl/mxv
 BYTE   W01
 BYTE   VOL   45*song14_mvl/mxv
 BYTE   W01
 BYTE   VOL   46*song14_mvl/mxv
 BYTE   W01
 BYTE   VOL   48*song14_mvl/mxv
 BYTE   W01
 BYTE   VOL   48*song14_mvl/mxv
 BYTE   W01
 BYTE   VOL   50*song14_mvl/mxv
 BYTE   W01
 BYTE   VOL   51*song14_mvl/mxv
 BYTE   W01
 BYTE   VOL   52*song14_mvl/mxv
 BYTE   W01
 BYTE   VOL   53*song14_mvl/mxv
 BYTE   W01
 BYTE   VOL   54*song14_mvl/mxv
 BYTE   W01
 BYTE   VOL   55*song14_mvl/mxv
 BYTE   W01
 BYTE   VOL   56*song14_mvl/mxv
 BYTE   W01
 BYTE   VOL   58*song14_mvl/mxv
 BYTE   W01
 BYTE   VOL   58*song14_mvl/mxv
 BYTE   W01
 BYTE   VOL   60*song14_mvl/mxv
 BYTE   W42
 BYTE   W01
//  #06 //016   ----------------------------------------
 BYTE   W78
 BYTE   VOICE   41
 BYTE   VOL   50*song14_mvl/mxv
 BYTE   PAN   c_v-25
 BYTE   W02
 BYTE   N11  Cs1
 BYTE   W12
 BYTE   En1
 BYTE   W04
//  #06 //017   ----------------------------------------
 BYTE   W08
 BYTE   N23  Fs1
 BYTE   W24
 BYTE   En1
 BYTE   W24
 BYTE   N11  Ds1
 BYTE   W12
 BYTE   Bn0
 BYTE   W12
 BYTE   N92  Cs1
 BYTE   W16
//  #06 //018   ----------------------------------------
 BYTE   W78
 BYTE   GoTo
  POIN2 Label_0101CD61
//  #06 //019   ----------------------------------------
 BYTE   VOICE   41
 BYTE   VOL   50*song14_mvl/mxv
 BYTE   PAN   c_v-25
 BYTE   W18
Label_0101CEE6:
 BYTE   W80
//  #06 //020   ----------------------------------------
 BYTE   N11  Ds1  v116
 BYTE   W12
 BYTE   Fs1
 BYTE   W04
 BYTE   PEND 
Label_0101CEEE:
 BYTE   W08
 BYTE   N23  Gs1  v116
 BYTE   W24
 BYTE   Fs1
 BYTE   W24
 BYTE   N11  Fn1
 BYTE   W12
 BYTE   Cs1
 BYTE   W12
//  #06 //021   ----------------------------------------
 BYTE   N92  Ds1
 BYTE   W16
 BYTE   PEND 
//  #06 //022   ----------------------------------------
 BYTE   PATT
  POIN2 Label_0101CEE6
//  #06 //023   ----------------------------------------
Label_0101CF03:
 BYTE   W08
 BYTE   N23  Gs1  v116
 BYTE   W24
 BYTE   Fs1
 BYTE   W24
 BYTE   N11  Fn1
 BYTE   W12
 BYTE   Bn1
 BYTE   W12
 BYTE   N92  As1
 BYTE   W16
 BYTE   PEND 
//  #06 //024   ----------------------------------------
 BYTE   W92
 BYTE   N11  An1
 BYTE   W04
//  #06 //025   ----------------------------------------
 BYTE   W08
 BYTE   Gs1
 BYTE   W12
 BYTE   Bn1
 BYTE   W12
 BYTE   N23  An1
 BYTE   W24
 BYTE   Fs1
 BYTE   W36
 BYTE   N11  Cs2
 BYTE   W04
//  #06 //026   ----------------------------------------
 BYTE   W08
 BYTE   Cn2
 BYTE   W12
 BYTE   Dn2
 BYTE   W12
 BYTE   N23  Cs2
 BYTE   W24
 BYTE   Gs1
 BYTE   W24
 BYTE   Fs1
 BYTE   W16
//  #06 //027   ----------------------------------------
 BYTE   W08
 BYTE   TIE  Fn1
 BYTE   W88
//  #06 //028   ----------------------------------------
 BYTE   W30
 BYTE   W01
 BYTE   EOT
 BYTE   W48
 BYTE   W01
 BYTE   N11  Ds1
 BYTE   W12
 BYTE   Fs1
 BYTE   W04
//  #06 //029   ----------------------------------------
 BYTE   PATT
  POIN2 Label_0101CEEE
//  #06 //030   ----------------------------------------
 BYTE   PATT
  POIN2 Label_0101CEE6
//  #06 //031   ----------------------------------------
 BYTE   PATT
  POIN2 Label_0101CF03
//  #06 //032   ----------------------------------------
 BYTE   W80
 BYTE   VOICE   41
 BYTE   VOL   60*song14_mvl/mxv
 BYTE   PAN   c_v-25
 BYTE   VOL   30*song14_mvl/mxv
 BYTE   N15  An1  v116
 BYTE   W01
 BYTE   VOL   32*song14_mvl/mxv
 BYTE   W01
 BYTE   VOL   34*song14_mvl/mxv
 BYTE   W01
 BYTE   VOL   36*song14_mvl/mxv
 BYTE   W01
 BYTE   VOL   37*song14_mvl/mxv
 BYTE   W01
 BYTE   VOL   39*song14_mvl/mxv
 BYTE   W01
 BYTE   VOL   40*song14_mvl/mxv
 BYTE   W01
 BYTE   VOL   42*song14_mvl/mxv
 BYTE   W01
 BYTE   VOL   44*song14_mvl/mxv
 BYTE   W01
 BYTE   VOL   46*song14_mvl/mxv
 BYTE   W01
 BYTE   VOL   47*song14_mvl/mxv
 BYTE   W01
 BYTE   VOL   49*song14_mvl/mxv
 BYTE   W01
 BYTE   VOL   50*song14_mvl/mxv
 BYTE   W01
 BYTE   VOL   52*song14_mvl/mxv
 BYTE   W01
 BYTE   VOL   54*song14_mvl/mxv
 BYTE   W01
 BYTE   VOL   56*song14_mvl/mxv
 BYTE   W01
//  #06 //033   ----------------------------------------
 BYTE   VOL   57*song14_mvl/mxv
 BYTE   N02
 BYTE   W01
 BYTE   VOL   59*song14_mvl/mxv
 BYTE   W01
 BYTE   VOL   60*song14_mvl/mxv
 BYTE   W01
 BYTE   N02  An2
 BYTE   W03
 BYTE   N05  An1
 BYTE   W06
 BYTE   N02
 BYTE   W03
 BYTE   N02
 BYTE   W03
 BYTE   N05
 BYTE   W06
 BYTE   N02
 BYTE   W03
 BYTE   N02
 BYTE   W03
 BYTE   N05
 BYTE   W06
 BYTE   N05
 BYTE   W06
 BYTE   N05
 BYTE   W06
 BYTE   N05
 BYTE   W06
 BYTE   VOL   50*song14_mvl/mxv
 BYTE   N17  Cn2
 BYTE   W01
 BYTE   VOL   50*song14_mvl/mxv
 BYTE   W01
 BYTE   VOL   51*song14_mvl/mxv
 BYTE   W01
 BYTE   VOL   52*song14_mvl/mxv
 BYTE   W01
 BYTE   VOL   52*song14_mvl/mxv
 BYTE   W01
 BYTE   VOL   53*song14_mvl/mxv
 BYTE   W02
 BYTE   VOL   54*song14_mvl/mxv
 BYTE   W01
 BYTE   VOL   54*song14_mvl/mxv
 BYTE   W01
 BYTE   VOL   55*song14_mvl/mxv
 BYTE   W01
 BYTE   VOL   56*song14_mvl/mxv
 BYTE   W01
 BYTE   VOL   56*song14_mvl/mxv
 BYTE   W02
 BYTE   VOL   57*song14_mvl/mxv
 BYTE   W01
 BYTE   VOL   58*song14_mvl/mxv
 BYTE   W01
 BYTE   VOL   58*song14_mvl/mxv
 BYTE   W01
 BYTE   VOL   59*song14_mvl/mxv
 BYTE   W01
 BYTE   VOL   60*song14_mvl/mxv
 BYTE   W01
 BYTE   N02
 BYTE   W03
 BYTE   N02
 BYTE   W03
 BYTE   N05
 BYTE   W06
 BYTE   N02
 BYTE   W03
 BYTE   N02
 BYTE   W03
 BYTE   N05
 BYTE   W06
//  #06 //034   ----------------------------------------
 BYTE   N02
 BYTE   W03
 BYTE   N02
 BYTE   W03
 BYTE   N05
 BYTE   W06
 BYTE   N05
 BYTE   W06
 BYTE   N05
 BYTE   W06
 BYTE   N05
 BYTE   W06
 BYTE   VOL   50*song14_mvl/mxv
 BYTE   N17  Ds2
 BYTE   W01
 BYTE   VOL   50*song14_mvl/mxv
 BYTE   W01
 BYTE   VOL   51*song14_mvl/mxv
 BYTE   W01
 BYTE   VOL   52*song14_mvl/mxv
 BYTE   W01
 BYTE   VOL   52*song14_mvl/mxv
 BYTE   W01
 BYTE   VOL   53*song14_mvl/mxv
 BYTE   W02
 BYTE   VOL   54*song14_mvl/mxv
 BYTE   W01
 BYTE   VOL   54*song14_mvl/mxv
 BYTE   W01
 BYTE   VOL   55*song14_mvl/mxv
 BYTE   W01
 BYTE   VOL   56*song14_mvl/mxv
 BYTE   W01
 BYTE   VOL   56*song14_mvl/mxv
 BYTE   W02
 BYTE   VOL   57*song14_mvl/mxv
 BYTE   W01
 BYTE   VOL   58*song14_mvl/mxv
 BYTE   W01
 BYTE   VOL   58*song14_mvl/mxv
 BYTE   W01
 BYTE   VOL   59*song14_mvl/mxv
 BYTE   W01
 BYTE   VOL   60*song14_mvl/mxv
 BYTE   W01
 BYTE   N02
 BYTE   W03
 BYTE   N02
 BYTE   W03
 BYTE   N05
 BYTE   W06
 BYTE   N02
 BYTE   W03
 BYTE   N02
 BYTE   W03
 BYTE   N05
 BYTE   W06
 BYTE   N02
 BYTE   W03
 BYTE   N02
 BYTE   W03
 BYTE   N05
 BYTE   W06
 BYTE   N05
 BYTE   W06
 BYTE   N05
 BYTE   W06
//  #06 //035   ----------------------------------------
 BYTE   N05
 BYTE   W06
 BYTE   VOL   34*song14_mvl/mxv
 BYTE   N44
 BYTE   W01
 BYTE   VOL   35*song14_mvl/mxv
 BYTE   W01
 BYTE   VOL   36*song14_mvl/mxv
 BYTE   W01
 BYTE   VOL   37*song14_mvl/mxv
 BYTE   W01
 BYTE   VOL   38*song14_mvl/mxv
 BYTE   W01
 BYTE   VOL   39*song14_mvl/mxv
 BYTE   W01
 BYTE   VOL   40*song14_mvl/mxv
 BYTE   W01
 BYTE   VOL   42*song14_mvl/mxv
 BYTE   W01
 BYTE   VOL   42*song14_mvl/mxv
 BYTE   W01
 BYTE   VOL   44*song14_mvl/mxv
 BYTE   W01
 BYTE   VOL   45*song14_mvl/mxv
 BYTE   W01
 BYTE   VOL   46*song14_mvl/mxv
 BYTE   W01
 BYTE   VOL   47*song14_mvl/mxv
 BYTE   W01
 BYTE   VOL   48*song14_mvl/mxv
 BYTE   W01
 BYTE   VOL   49*song14_mvl/mxv
 BYTE   W01
 BYTE   VOL   50*song14_mvl/mxv
 BYTE   W01
 BYTE   VOL   52*song14_mvl/mxv
 BYTE   W01
 BYTE   VOL   52*song14_mvl/mxv
 BYTE   W01
 BYTE   VOL   54*song14_mvl/mxv
 BYTE   W01
 BYTE   VOL   55*song14_mvl/mxv
 BYTE   W01
 BYTE   VOL   56*song14_mvl/mxv
 BYTE   W01
 BYTE   VOL   57*song14_mvl/mxv
 BYTE   W01
 BYTE   VOL   58*song14_mvl/mxv
 BYTE   W01
 BYTE   VOL   59*song14_mvl/mxv
 BYTE   W01
 BYTE   VOL   60*song14_mvl/mxv
 BYTE   W66
//  #06 //036   ----------------------------------------
 BYTE   W54
 BYTE   VOICE   41
 BYTE   VOL   50*song14_mvl/mxv
 BYTE   PAN   c_v-25
 BYTE   W02
 BYTE   N11  Cs1
 BYTE   W12
 BYTE   En1
 BYTE   W12
 BYTE   N23  Fs1
 BYTE   W16
//  #06 //037   ----------------------------------------
 BYTE   W08
 BYTE   En1
 BYTE   W24
 BYTE   N11  Ds1
 BYTE   W12
 BYTE   Bn0
 BYTE   W12
 BYTE   N92  Cs1
 BYTE   W40
//  #06 //038   ----------------------------------------
 BYTE   W56
 BYTE   FINE

//******************************************************//
	ALIGN 4

song14:
	BYTE	6	// NumTrks
	BYTE	0	// NumBlks
	BYTE	song14_pri	// Priority
	BYTE	song14_rev	// Reverb.
    
	POIN2	song14_grp
    
	POIN2	song14_001
	POIN2	song14_002
	POIN2	song14_003
	POIN2	song14_004
	POIN2	song14_005
	POIN2	song14_006

	
