//Event file generated from Sappy .s format.
	#include "MPlayDef.event"

	#define	song26_grp  voicegroup000
	#define	song26_pri  0
	#define	song26_rev  0
	#define	song26_mvl  127
	#define	song26_key  0
	#define	song26_tbs  1
	#define	song26_exg  0
	#define	song26_cmp  1

	// .rodata
	//	song26
	ALIGN 4


//**************** Track 1 (Midi-Chn.0) ****************//

song26_001:
//  #01 //000   ----------------------------------------
 BYTE   KEYSH   song26_key+0
 BYTE   TEMPO   96*song26_tbs/2
 BYTE   VOICE   41
 BYTE   VOL   50*song26_mvl/mxv
 BYTE   PAN   c_v-49
 BYTE   N02  Cn3  v092
 BYTE   W06
 BYTE   Gn3  v064
 BYTE   W06
 BYTE   Fs3  v072
 BYTE   W06
 BYTE   Fn3  v096
 BYTE   W06
 BYTE   As3  v072
 BYTE   W06
 BYTE   An3  v076
 BYTE   W06
 BYTE   Gs3  v104
 BYTE   W06
 BYTE   Cs4  v076
 BYTE   W06
 BYTE   Cn4  v108
 BYTE   W06
 BYTE   Bn3  v084
 BYTE   W06
 BYTE   En4  v092
 BYTE   W06
 BYTE   Ds4  v116
 BYTE   W06
 BYTE   Dn4  v092
 BYTE   W06
 BYTE   Gn4  v096
 BYTE   W06
 BYTE   Fs4  v124
 BYTE   W06
 BYTE   Fn4  v096
 BYTE   W06
//  #01 //001   ----------------------------------------
 BYTE   N36  As4  v104
 BYTE   W48
Label_0102BE1F:
 BYTE   W48
//  #01 //002   ----------------------------------------
 BYTE   W96
//  #01 //003   ----------------------------------------
 BYTE   W96
//  #01 //004   ----------------------------------------
 BYTE   W96
//  #01 //005   ----------------------------------------
 BYTE   W96
//  #01 //006   ----------------------------------------
 BYTE   W96
//  #01 //007   ----------------------------------------
 BYTE   W96
//  #01 //008   ----------------------------------------
 BYTE   W96
//  #01 //009   ----------------------------------------
 BYTE   W96
//  #01 //010   ----------------------------------------
 BYTE   W96
//  #01 //011   ----------------------------------------
 BYTE   W96
//  #01 //012   ----------------------------------------
 BYTE   W48
 BYTE   GoTo
  POIN2 Label_0102BE1F
//  #01 //013   ----------------------------------------
 BYTE   W48
 BYTE   W96
//  #01 //014   ----------------------------------------
 BYTE   W96
//  #01 //015   ----------------------------------------
 BYTE   W96
//  #01 //016   ----------------------------------------
 BYTE   W96
//  #01 //017   ----------------------------------------
 BYTE   W96
//  #01 //018   ----------------------------------------
 BYTE   W96
//  #01 //019   ----------------------------------------
 BYTE   W96
//  #01 //020   ----------------------------------------
 BYTE   W96
//  #01 //021   ----------------------------------------
 BYTE   W96
//  #01 //022   ----------------------------------------
 BYTE   W96
//  #01 //023   ----------------------------------------
 BYTE   W48
 BYTE   FINE

//**************** Track 2 (Midi-Chn.1) ****************//

song26_002:
//  #02 //000   ----------------------------------------
 BYTE   KEYSH   song26_key+0
 BYTE   VOICE   19
 BYTE   VOL   54*song26_mvl/mxv
 BYTE   PAN   c_v-25
 BYTE   N05  Cn2  v084
 BYTE   W06
 BYTE   Gn2  v076
 BYTE   W06
 BYTE   Fs2
 BYTE   W06
 BYTE   Fn2  v092
 BYTE   W06
 BYTE   As2  v084
 BYTE   W06
 BYTE   An2
 BYTE   W06
 BYTE   Gs2  v100
 BYTE   W06
 BYTE   Cs3  v092
 BYTE   W06
 BYTE   Cn3  v108
 BYTE   W06
 BYTE   Bn2  v100
 BYTE   W06
 BYTE   En3
 BYTE   W06
 BYTE   Ds3  v116
 BYTE   W06
 BYTE   Dn3  v108
 BYTE   W06
 BYTE   Gn3
 BYTE   W06
 BYTE   Fs3  v124
 BYTE   W06
 BYTE   Fn3  v116
 BYTE   W06
//  #02 //001   ----------------------------------------
 BYTE   N32  Gn3
 BYTE   W36
 BYTE   N03  Gn3  v044
 BYTE   W04
 BYTE   Gn3  v040
 BYTE   W04
 BYTE   Gn3  v032
 BYTE   W04
Label_0102BE7F:
 BYTE   W48
//  #02 //002   ----------------------------------------
 BYTE   W96
//  #02 //003   ----------------------------------------
 BYTE   W96
//  #02 //004   ----------------------------------------
 BYTE   W96
//  #02 //005   ----------------------------------------
 BYTE   W96
//  #02 //006   ----------------------------------------
 BYTE   W96
//  #02 //007   ----------------------------------------
 BYTE   W96
//  #02 //008   ----------------------------------------
 BYTE   W96
//  #02 //009   ----------------------------------------
 BYTE   W96
//  #02 //010   ----------------------------------------
 BYTE   W96
//  #02 //011   ----------------------------------------
 BYTE   W96
//  #02 //012   ----------------------------------------
 BYTE   W48
 BYTE   GoTo
  POIN2 Label_0102BE7F
//  #02 //013   ----------------------------------------
 BYTE   W48
 BYTE   W96
//  #02 //014   ----------------------------------------
 BYTE   W96
//  #02 //015   ----------------------------------------
 BYTE   W96
//  #02 //016   ----------------------------------------
 BYTE   W96
//  #02 //017   ----------------------------------------
 BYTE   W96
//  #02 //018   ----------------------------------------
 BYTE   W96
//  #02 //019   ----------------------------------------
 BYTE   W96
//  #02 //020   ----------------------------------------
 BYTE   W96
//  #02 //021   ----------------------------------------
 BYTE   W96
//  #02 //022   ----------------------------------------
 BYTE   W96
//  #02 //023   ----------------------------------------
 BYTE   W48
 BYTE   FINE

//**************** Track 3 (Midi-Chn.2) ****************//

song26_003:
//  #03 //000   ----------------------------------------
 BYTE   KEYSH   song26_key+0
 BYTE   VOICE   49
 BYTE   VOL   16*song26_mvl/mxv
 BYTE   PAN   c_v+0
 BYTE   VOL   17*song26_mvl/mxv
 BYTE   TIE  Cn5  v104
 BYTE   W02
 BYTE   VOL   18*song26_mvl/mxv
 BYTE   W02
 BYTE   VOL   28*song26_mvl/mxv
 BYTE   W02
 BYTE   VOL   29*song26_mvl/mxv
 BYTE   W02
 BYTE   VOL   30*song26_mvl/mxv
 BYTE   W02
 BYTE   VOL   30*song26_mvl/mxv
 BYTE   W01
 BYTE   VOL   31*song26_mvl/mxv
 BYTE   W02
 BYTE   VOL   32*song26_mvl/mxv
 BYTE   W02
 BYTE   VOL   32*song26_mvl/mxv
 BYTE   W02
 BYTE   VOL   33*song26_mvl/mxv
 BYTE   W02
 BYTE   VOL   34*song26_mvl/mxv
 BYTE   W01
 BYTE   VOL   34*song26_mvl/mxv
 BYTE   W02
 BYTE   VOL   35*song26_mvl/mxv
 BYTE   W02
 BYTE   VOL   36*song26_mvl/mxv
 BYTE   W02
 BYTE   VOL   36*song26_mvl/mxv
 BYTE   W02
 BYTE   VOL   37*song26_mvl/mxv
 BYTE   W02
 BYTE   VOL   38*song26_mvl/mxv
 BYTE   W01
 BYTE   VOL   38*song26_mvl/mxv
 BYTE   W02
 BYTE   VOL   39*song26_mvl/mxv
 BYTE   W02
 BYTE   VOL   40*song26_mvl/mxv
 BYTE   W02
 BYTE   VOL   40*song26_mvl/mxv
 BYTE   W02
 BYTE   VOL   41*song26_mvl/mxv
 BYTE   W01
 BYTE   VOL   42*song26_mvl/mxv
 BYTE   W02
 BYTE   VOL   42*song26_mvl/mxv
 BYTE   W02
 BYTE   VOL   43*song26_mvl/mxv
 BYTE   W02
 BYTE   VOL   44*song26_mvl/mxv
 BYTE   W02
 BYTE   VOL   44*song26_mvl/mxv
 BYTE   W02
 BYTE   VOL   45*song26_mvl/mxv
 BYTE   W01
 BYTE   VOL   46*song26_mvl/mxv
 BYTE   W02
 BYTE   VOL   46*song26_mvl/mxv
 BYTE   W02
 BYTE   VOL   47*song26_mvl/mxv
 BYTE   W02
 BYTE   VOL   48*song26_mvl/mxv
 BYTE   W02
 BYTE   VOL   48*song26_mvl/mxv
 BYTE   W02
 BYTE   VOL   49*song26_mvl/mxv
 BYTE   W01
 BYTE   VOL   50*song26_mvl/mxv
 BYTE   W02
 BYTE   VOL   50*song26_mvl/mxv
 BYTE   W02
 BYTE   VOL   51*song26_mvl/mxv
 BYTE   W02
 BYTE   VOL   52*song26_mvl/mxv
 BYTE   W02
 BYTE   VOL   52*song26_mvl/mxv
 BYTE   W01
 BYTE   VOL   53*song26_mvl/mxv
 BYTE   W02
 BYTE   VOL   54*song26_mvl/mxv
 BYTE   W02
 BYTE   VOL   54*song26_mvl/mxv
 BYTE   W02
 BYTE   VOL   55*song26_mvl/mxv
 BYTE   W02
 BYTE   VOL   56*song26_mvl/mxv
 BYTE   W02
 BYTE   VOL   56*song26_mvl/mxv
 BYTE   W01
 BYTE   VOL   57*song26_mvl/mxv
 BYTE   W02
 BYTE   VOL   58*song26_mvl/mxv
 BYTE   W02
 BYTE   VOL   58*song26_mvl/mxv
 BYTE   W02
 BYTE   VOL   59*song26_mvl/mxv
 BYTE   W02
 BYTE   VOL   60*song26_mvl/mxv
 BYTE   W01
 BYTE   VOL   60*song26_mvl/mxv
 BYTE   W02
 BYTE   VOL   61*song26_mvl/mxv
 BYTE   W02
 BYTE   VOL   62*song26_mvl/mxv
 BYTE   W01
//  #03 //001   ----------------------------------------
 BYTE   W01
 BYTE   VOL   62*song26_mvl/mxv
 BYTE   W02
 BYTE   VOL   63*song26_mvl/mxv
 BYTE   W02
 BYTE   VOL   64*song26_mvl/mxv
 BYTE   W01
 BYTE   VOL   64*song26_mvl/mxv
 BYTE   W02
 BYTE   VOL   65*song26_mvl/mxv
 BYTE   W02
 BYTE   VOL   66*song26_mvl/mxv
 BYTE   W02
 BYTE   VOL   66*song26_mvl/mxv
 BYTE   W02
 BYTE   VOL   67*song26_mvl/mxv
 BYTE   W02
 BYTE   VOL   68*song26_mvl/mxv
 BYTE   W01
 BYTE   VOL   68*song26_mvl/mxv
 BYTE   W02
 BYTE   VOL   69*song26_mvl/mxv
 BYTE   W02
 BYTE   VOL   70*song26_mvl/mxv
 BYTE   W02
 BYTE   VOL   70*song26_mvl/mxv
 BYTE   W02
 BYTE   VOL   71*song26_mvl/mxv
 BYTE   W01
 BYTE   VOL   72*song26_mvl/mxv
 BYTE   W02
 BYTE   VOL   72*song26_mvl/mxv
 BYTE   W02
 BYTE   VOL   73*song26_mvl/mxv
 BYTE   W17
 BYTE   EOT
 BYTE   W01
Label_0102BF39:
 BYTE   VOICE   109
 BYTE   VOL   61*song26_mvl/mxv
 BYTE   PAN   c_v-25
 BYTE   VOL   61*song26_mvl/mxv
 BYTE   N04  Ds3  v104
 BYTE   W05
 BYTE   N03  Ds3  v040
 BYTE   W04
 BYTE   Ds3  v032
 BYTE   W09
 BYTE   N04  Fn3  v112
 BYTE   W05
 BYTE   N03  Fn3  v044
 BYTE   W04
 BYTE   Fn3  v040
 BYTE   W21
//  #03 //002   ----------------------------------------
Label_0102BF57:
 BYTE   N04  Ds3  v104
 BYTE   W05
 BYTE   N03  Ds3  v040
 BYTE   W04
 BYTE   Ds3  v032
 BYTE   W09
 BYTE   N04  Dn3  v112
 BYTE   W05
 BYTE   N03  Dn3  v044
 BYTE   W04
 BYTE   Dn3  v040
 BYTE   W21
 BYTE   N04  Ds3  v104
 BYTE   W05
 BYTE   N03  Ds3  v040
 BYTE   W04
 BYTE   Ds3  v032
 BYTE   W09
 BYTE   N04  Fn3  v112
 BYTE   W05
 BYTE   N03  Fn3  v044
 BYTE   W04
 BYTE   Fn3  v040
 BYTE   W21
 BYTE   PEND 
//  #03 //003   ----------------------------------------
 BYTE   PATT
  POIN2 Label_0102BF57
//  #03 //004   ----------------------------------------
 BYTE   PATT
  POIN2 Label_0102BF57
//  #03 //005   ----------------------------------------
Label_0102BF8E:
 BYTE   N04  Ds3  v104
 BYTE   W05
 BYTE   N03  Ds3  v040
 BYTE   W04
 BYTE   Ds3  v032
 BYTE   W09
 BYTE   N04  Dn3  v112
 BYTE   W05
 BYTE   N03  Dn3  v044
 BYTE   W04
 BYTE   Dn3  v040
 BYTE   W21
 BYTE   VOL   75*song26_mvl/mxv
 BYTE   W48
 BYTE   PEND 
//  #03 //006   ----------------------------------------
 BYTE   W96
//  #03 //007   ----------------------------------------
Label_0102BFA9:
 BYTE   W48
 BYTE   VOICE   109
 BYTE   VOL   61*song26_mvl/mxv
 BYTE   PAN   c_v-25
 BYTE   N04  Ds4  v104
 BYTE   W05
 BYTE   N03  Ds4  v040
 BYTE   W04
 BYTE   Ds4  v032
 BYTE   W09
 BYTE   N04  Fn4  v112
 BYTE   W05
 BYTE   N03  Fn4  v044
 BYTE   W04
 BYTE   Fn4  v040
 BYTE   W21
 BYTE   PEND 
//  #03 //008   ----------------------------------------
Label_0102BFC7:
 BYTE   N04  Ds4  v104
 BYTE   W05
 BYTE   N03  Ds4  v040
 BYTE   W04
 BYTE   Ds4  v032
 BYTE   W09
 BYTE   N04  Dn4  v112
 BYTE   W05
 BYTE   N03  Dn4  v044
 BYTE   W04
 BYTE   Dn4  v040
 BYTE   W21
 BYTE   N04  Ds4  v104
 BYTE   W05
 BYTE   N03  Ds4  v040
 BYTE   W04
 BYTE   Ds4  v032
 BYTE   W09
 BYTE   N04  Fn4  v112
 BYTE   W05
 BYTE   N03  Fn4  v044
 BYTE   W04
 BYTE   Fn4  v040
 BYTE   W21
 BYTE   PEND 
//  #03 //009   ----------------------------------------
 BYTE   PATT
  POIN2 Label_0102BFC7
//  #03 //010   ----------------------------------------
 BYTE   PATT
  POIN2 Label_0102BFC7
//  #03 //011   ----------------------------------------
 BYTE   N04  Ds4  v104
 BYTE   W05
 BYTE   N03  Ds4  v040
 BYTE   W04
 BYTE   Ds4  v032
 BYTE   W09
 BYTE   N04  Dn4  v112
 BYTE   W05
 BYTE   N03  Dn4  v044
 BYTE   W04
 BYTE   Dn4  v040
 BYTE   W21
 BYTE   VOL   28*song26_mvl/mxv
 BYTE   N92  Dn4  v112
 BYTE   W02
 BYTE   VOL   29*song26_mvl/mxv
 BYTE   W01
 BYTE   VOL   40*song26_mvl/mxv
 BYTE   W02
 BYTE   VOL   40*song26_mvl/mxv
 BYTE   W01
 BYTE   VOL   41*song26_mvl/mxv
 BYTE   W02
 BYTE   VOL   42*song26_mvl/mxv
 BYTE   W01
 BYTE   VOL   42*song26_mvl/mxv
 BYTE   W02
 BYTE   VOL   43*song26_mvl/mxv
 BYTE   W01
 BYTE   VOL   44*song26_mvl/mxv
 BYTE   W02
 BYTE   VOL   44*song26_mvl/mxv
 BYTE   W01
 BYTE   VOL   45*song26_mvl/mxv
 BYTE   W01
 BYTE   VOL   46*song26_mvl/mxv
 BYTE   W02
 BYTE   VOL   46*song26_mvl/mxv
 BYTE   W01
 BYTE   VOL   47*song26_mvl/mxv
 BYTE   W02
 BYTE   VOL   48*song26_mvl/mxv
 BYTE   W01
 BYTE   VOL   48*song26_mvl/mxv
 BYTE   W02
 BYTE   VOL   49*song26_mvl/mxv
 BYTE   W01
 BYTE   VOL   50*song26_mvl/mxv
 BYTE   W02
 BYTE   VOL   50*song26_mvl/mxv
 BYTE   W01
 BYTE   VOL   51*song26_mvl/mxv
 BYTE   W02
 BYTE   VOL   52*song26_mvl/mxv
 BYTE   W01
 BYTE   VOL   52*song26_mvl/mxv
 BYTE   W02
 BYTE   VOL   53*song26_mvl/mxv
 BYTE   W01
 BYTE   VOL   54*song26_mvl/mxv
 BYTE   W02
 BYTE   VOL   54*song26_mvl/mxv
 BYTE   W01
 BYTE   VOL   55*song26_mvl/mxv
 BYTE   W02
 BYTE   VOL   56*song26_mvl/mxv
 BYTE   W01
 BYTE   VOL   56*song26_mvl/mxv
 BYTE   W02
 BYTE   VOL   57*song26_mvl/mxv
 BYTE   W01
 BYTE   VOL   58*song26_mvl/mxv
 BYTE   W02
 BYTE   VOL   58*song26_mvl/mxv
 BYTE   W01
 BYTE   VOL   59*song26_mvl/mxv
 BYTE   W01
 BYTE   VOL   60*song26_mvl/mxv
 BYTE   W01
//  #03 //012   ----------------------------------------
 BYTE   W01
 BYTE   VOL   60*song26_mvl/mxv
 BYTE   W01
 BYTE   VOL   61*song26_mvl/mxv
 BYTE   W02
 BYTE   VOL   62*song26_mvl/mxv
 BYTE   W01
 BYTE   VOL   62*song26_mvl/mxv
 BYTE   W02
 BYTE   VOL   63*song26_mvl/mxv
 BYTE   W01
 BYTE   VOL   64*song26_mvl/mxv
 BYTE   W02
 BYTE   VOL   64*song26_mvl/mxv
 BYTE   W01
 BYTE   VOL   65*song26_mvl/mxv
 BYTE   W02
 BYTE   VOL   66*song26_mvl/mxv
 BYTE   W01
 BYTE   VOL   66*song26_mvl/mxv
 BYTE   W02
 BYTE   VOL   67*song26_mvl/mxv
 BYTE   W01
 BYTE   VOL   68*song26_mvl/mxv
 BYTE   W02
 BYTE   VOL   68*song26_mvl/mxv
 BYTE   W01
 BYTE   VOL   69*song26_mvl/mxv
 BYTE   W02
 BYTE   VOL   70*song26_mvl/mxv
 BYTE   W01
 BYTE   VOL   70*song26_mvl/mxv
 BYTE   W02
 BYTE   VOL   71*song26_mvl/mxv
 BYTE   W01
 BYTE   VOL   72*song26_mvl/mxv
 BYTE   W02
 BYTE   VOL   72*song26_mvl/mxv
 BYTE   W01
 BYTE   VOL   73*song26_mvl/mxv
 BYTE   W02
 BYTE   VOL   74*song26_mvl/mxv
 BYTE   W01
 BYTE   VOL   74*song26_mvl/mxv
 BYTE   W01
 BYTE   VOL   75*song26_mvl/mxv
 BYTE   W02
 BYTE   VOL   76*song26_mvl/mxv
 BYTE   W01
 BYTE   VOL   76*song26_mvl/mxv
 BYTE   W02
 BYTE   VOL   77*song26_mvl/mxv
 BYTE   W01
 BYTE   VOL   78*song26_mvl/mxv
 BYTE   W02
 BYTE   VOL   78*song26_mvl/mxv
 BYTE   W01
 BYTE   VOL   79*song26_mvl/mxv
 BYTE   W02
 BYTE   VOL   80*song26_mvl/mxv
 BYTE   W01
 BYTE   VOL   80*song26_mvl/mxv
 BYTE   W02
 BYTE   VOL   81*song26_mvl/mxv
 BYTE   W01
 BYTE   GoTo
  POIN2 Label_0102BF39
//  #03 //013   ----------------------------------------
 BYTE   VOL   61*song26_mvl/mxv
 BYTE   N04  Ds3  v104
 BYTE   W05
 BYTE   N03  Ds3  v040
 BYTE   W04
 BYTE   Ds3  v032
 BYTE   W09
 BYTE   N04  Fn3  v112
 BYTE   W05
 BYTE   N03  Fn3  v044
 BYTE   W04
 BYTE   Fn3  v040
 BYTE   W21
//  #03 //014   ----------------------------------------
 BYTE   PATT
  POIN2 Label_0102BF57
//  #03 //015   ----------------------------------------
 BYTE   PATT
  POIN2 Label_0102BF57
//  #03 //016   ----------------------------------------
 BYTE   PATT
  POIN2 Label_0102BF57
//  #03 //017   ----------------------------------------
 BYTE   PATT
  POIN2 Label_0102BF8E
//  #03 //018   ----------------------------------------
 BYTE   W96
//  #03 //019   ----------------------------------------
 BYTE   PATT
  POIN2 Label_0102BFA9
//  #03 //020   ----------------------------------------
 BYTE   PATT
  POIN2 Label_0102BFC7
//  #03 //021   ----------------------------------------
 BYTE   PATT
  POIN2 Label_0102BFC7
//  #03 //022   ----------------------------------------
 BYTE   PATT
  POIN2 Label_0102BFC7
//  #03 //023   ----------------------------------------
 BYTE   N04  Ds4  v104
 BYTE   W05
 BYTE   N03  Ds4  v040
 BYTE   W04
 BYTE   Ds4  v032
 BYTE   W09
 BYTE   N04  Dn4  v112
 BYTE   W05
 BYTE   N03  Dn4  v044
 BYTE   W04
 BYTE   Dn4  v040
 BYTE   W21
 BYTE   VOL   28*song26_mvl/mxv
 BYTE   N92  Dn4  v112
 BYTE   W01
 BYTE   VOL   28*song26_mvl/mxv
 BYTE   W01
 BYTE   VOL   39*song26_mvl/mxv
 BYTE   W02
 BYTE   VOL   40*song26_mvl/mxv
 BYTE   W01
 BYTE   VOL   40*song26_mvl/mxv
 BYTE   W02
 BYTE   VOL   41*song26_mvl/mxv
 BYTE   W01
 BYTE   VOL   42*song26_mvl/mxv
 BYTE   W02
 BYTE   VOL   42*song26_mvl/mxv
 BYTE   W01
 BYTE   VOL   43*song26_mvl/mxv
 BYTE   W02
 BYTE   VOL   44*song26_mvl/mxv
 BYTE   W01
 BYTE   VOL   44*song26_mvl/mxv
 BYTE   W02
 BYTE   VOL   45*song26_mvl/mxv
 BYTE   W01
 BYTE   VOL   46*song26_mvl/mxv
 BYTE   W01
 BYTE   VOL   46*song26_mvl/mxv
 BYTE   W02
 BYTE   VOL   47*song26_mvl/mxv
 BYTE   W01
 BYTE   VOL   48*song26_mvl/mxv
 BYTE   W02
 BYTE   VOL   48*song26_mvl/mxv
 BYTE   W01
 BYTE   VOL   49*song26_mvl/mxv
 BYTE   W02
 BYTE   VOL   50*song26_mvl/mxv
 BYTE   W01
 BYTE   VOL   50*song26_mvl/mxv
 BYTE   W02
 BYTE   VOL   51*song26_mvl/mxv
 BYTE   W01
 BYTE   VOL   52*song26_mvl/mxv
 BYTE   W02
 BYTE   VOL   52*song26_mvl/mxv
 BYTE   W01
 BYTE   VOL   53*song26_mvl/mxv
 BYTE   W02
 BYTE   VOL   54*song26_mvl/mxv
 BYTE   W01
 BYTE   VOL   54*song26_mvl/mxv
 BYTE   W02
 BYTE   VOL   55*song26_mvl/mxv
 BYTE   W01
 BYTE   VOL   56*song26_mvl/mxv
 BYTE   W02
 BYTE   VOL   56*song26_mvl/mxv
 BYTE   W01
 BYTE   VOL   57*song26_mvl/mxv
 BYTE   W02
 BYTE   VOL   58*song26_mvl/mxv
 BYTE   W01
 BYTE   VOL   58*song26_mvl/mxv
 BYTE   W02
 BYTE   VOL   59*song26_mvl/mxv
 BYTE   W01
//  #03 //024   ----------------------------------------
 BYTE   VOL   60*song26_mvl/mxv
 BYTE   W01
 BYTE   VOL   60*song26_mvl/mxv
 BYTE   W02
 BYTE   VOL   61*song26_mvl/mxv
 BYTE   W01
 BYTE   VOL   62*song26_mvl/mxv
 BYTE   W02
 BYTE   VOL   62*song26_mvl/mxv
 BYTE   W01
 BYTE   VOL   63*song26_mvl/mxv
 BYTE   W02
 BYTE   VOL   64*song26_mvl/mxv
 BYTE   W01
 BYTE   VOL   64*song26_mvl/mxv
 BYTE   W02
 BYTE   VOL   65*song26_mvl/mxv
 BYTE   W01
 BYTE   VOL   66*song26_mvl/mxv
 BYTE   W02
 BYTE   VOL   66*song26_mvl/mxv
 BYTE   W01
 BYTE   VOL   67*song26_mvl/mxv
 BYTE   W02
 BYTE   VOL   68*song26_mvl/mxv
 BYTE   W01
 BYTE   VOL   68*song26_mvl/mxv
 BYTE   W02
 BYTE   VOL   69*song26_mvl/mxv
 BYTE   W01
 BYTE   VOL   70*song26_mvl/mxv
 BYTE   W02
 BYTE   VOL   70*song26_mvl/mxv
 BYTE   W01
 BYTE   VOL   71*song26_mvl/mxv
 BYTE   W02
 BYTE   VOL   72*song26_mvl/mxv
 BYTE   W01
 BYTE   VOL   72*song26_mvl/mxv
 BYTE   W02
 BYTE   VOL   73*song26_mvl/mxv
 BYTE   W01
 BYTE   VOL   74*song26_mvl/mxv
 BYTE   W01
 BYTE   VOL   74*song26_mvl/mxv
 BYTE   W02
 BYTE   VOL   75*song26_mvl/mxv
 BYTE   W01
 BYTE   VOL   76*song26_mvl/mxv
 BYTE   W02
 BYTE   VOL   76*song26_mvl/mxv
 BYTE   W01
 BYTE   VOL   77*song26_mvl/mxv
 BYTE   W02
 BYTE   VOL   78*song26_mvl/mxv
 BYTE   W01
 BYTE   VOL   78*song26_mvl/mxv
 BYTE   W02
 BYTE   VOL   79*song26_mvl/mxv
 BYTE   W01
 BYTE   VOL   80*song26_mvl/mxv
 BYTE   W02
 BYTE   VOL   80*song26_mvl/mxv
 BYTE   W01
 BYTE   VOL   81*song26_mvl/mxv
 BYTE   W01
 BYTE   FINE

//**************** Track 4 (Midi-Chn.3) ****************//

song26_004:
//  #04 //000   ----------------------------------------
 BYTE   KEYSH   song26_key+0
 BYTE   VOICE   41
 BYTE   VOL   50*song26_mvl/mxv
 BYTE   PAN   c_v+49
 BYTE   N02  Cn3  v092
 BYTE   W06
 BYTE   Gn3  v064
 BYTE   W06
 BYTE   Fs3  v072
 BYTE   W06
 BYTE   Fn3  v096
 BYTE   W06
 BYTE   As3  v072
 BYTE   W06
 BYTE   An3  v076
 BYTE   W06
 BYTE   Gs3  v104
 BYTE   W06
 BYTE   Cs4  v076
 BYTE   W06
 BYTE   Cn4  v108
 BYTE   W06
 BYTE   Bn3  v084
 BYTE   W06
 BYTE   En4  v092
 BYTE   W06
 BYTE   Ds4  v116
 BYTE   W06
 BYTE   Dn4  v092
 BYTE   W06
 BYTE   Gn4  v096
 BYTE   W06
 BYTE   Fs4  v124
 BYTE   W06
 BYTE   Fn4  v096
 BYTE   W06
//  #04 //001   ----------------------------------------
 BYTE   N36  As4  v104
 BYTE   W48
Label_0102C1BF:
 BYTE   W48
//  #04 //002   ----------------------------------------
Label_0102C1C0:
 BYTE   W30
 BYTE   W01
 BYTE   VOICE   48
 BYTE   VOL   46*song26_mvl/mxv
 BYTE   PAN   c_v+0
 BYTE   N05  Cn4  v092
 BYTE   W06
 BYTE   Gn4  v096
 BYTE   W06
 BYTE   Cn5
 BYTE   W06
 BYTE   N32  Dn5  v104
 BYTE   W36
 BYTE   N11  Cn5  v096
 BYTE   W11
 BYTE   PEND 
//  #04 //003   ----------------------------------------
Label_0102C1DA:
 BYTE   W01
 BYTE   N76  Gn4  v104
 BYTE   W78
 BYTE   N04  Cn4  v096
 BYTE   W06
 BYTE   Gn4  v100
 BYTE   W06
 BYTE   Cn5  v104
 BYTE   W05
 BYTE   PEND 
//  #04 //004   ----------------------------------------
Label_0102C1EA:
 BYTE   W01
 BYTE   N05  Dn5  v108
 BYTE   W06
 BYTE   Cn5  v096
 BYTE   W06
 BYTE   Fn5  v108
 BYTE   W06
 BYTE   Ds5
 BYTE   W06
 BYTE   Dn5
 BYTE   W06
 BYTE   As4
 BYTE   W06
 BYTE   Fn4
 BYTE   W06
 BYTE   Gs4
 BYTE   W06
 BYTE   N92  Gn4  v100
 BYTE   W44
 BYTE   W03
 BYTE   PEND 
//  #04 //005   ----------------------------------------
Label_0102C205:
 BYTE   W48
 BYTE   VOICE   49
 BYTE   VOL   56*song26_mvl/mxv
 BYTE   PAN   c_v+14
 BYTE   N17  Cn3  v104
 BYTE   W18
 BYTE   N05  As2
 BYTE   W06
 BYTE   N17  Dn3
 BYTE   W18
 BYTE   N05  Cn3
 BYTE   W06
 BYTE   PEND 
//  #04 //006   ----------------------------------------
Label_0102C21A:
 BYTE   N17  Ds3  v104
 BYTE   W18
 BYTE   N05  Dn3
 BYTE   W06
 BYTE   Fn3
 BYTE   W06
 BYTE   Ds3
 BYTE   W06
 BYTE   Gn3
 BYTE   W06
 BYTE   Fn3
 BYTE   W06
 BYTE   N17  Cn3
 BYTE   W18
 BYTE   N05  As2
 BYTE   W06
 BYTE   N17  Dn3
 BYTE   W18
 BYTE   N05  Cn3
 BYTE   W06
 BYTE   PEND 
//  #04 //007   ----------------------------------------
Label_0102C236:
 BYTE   N17  Ds3  v104
 BYTE   W18
 BYTE   N05  Dn3
 BYTE   W06
 BYTE   Fn3
 BYTE   W06
 BYTE   Gn3
 BYTE   W06
 BYTE   Gs3
 BYTE   W06
 BYTE   As3
 BYTE   W54
 BYTE   PEND 
//  #04 //008   ----------------------------------------
Label_0102C246:
 BYTE   W01
 BYTE   VOICE   48
 BYTE   VOL   46*song26_mvl/mxv
 BYTE   PAN   c_v+0
 BYTE   W30
 BYTE   N05  Cn4  v108
 BYTE   W06
 BYTE   Gn4
 BYTE   W06
 BYTE   Cn5
 BYTE   W06
 BYTE   N17  Dn5  v112
 BYTE   W18
 BYTE   N05  Gn5
 BYTE   W06
 BYTE   N17  Cn5
 BYTE   W18
 BYTE   N05  As5
 BYTE   W05
 BYTE   PEND 
//  #04 //009   ----------------------------------------
Label_0102C264:
 BYTE   W01
 BYTE   N11  An5  v112
 BYTE   W12
 BYTE   N05  Gn5
 BYTE   W06
 BYTE   Fn5
 BYTE   W06
 BYTE   Ds5
 BYTE   W06
 BYTE   Fn5
 BYTE   W06
 BYTE   Gn5
 BYTE   W06
 BYTE   Dn5
 BYTE   W06
 BYTE   Cn5
 BYTE   W06
 BYTE   Cn4
 BYTE   W06
 BYTE   Ds4
 BYTE   W06
 BYTE   Gn4
 BYTE   W06
 BYTE   Gs3
 BYTE   W06
 BYTE   Ds4
 BYTE   W06
 BYTE   Gn4
 BYTE   W06
 BYTE   Cn5
 BYTE   W05
 BYTE   PEND 
//  #04 //010   ----------------------------------------
Label_0102C287:
 BYTE   W01
 BYTE   N05  Dn5  v112
 BYTE   W06
 BYTE   Fn5
 BYTE   W06
 BYTE   As5
 BYTE   W06
 BYTE   Gs5
 BYTE   W06
 BYTE   Gn5
 BYTE   W06
 BYTE   Fn5
 BYTE   W06
 BYTE   Ds5
 BYTE   W06
 BYTE   Fn5
 BYTE   W06
 BYTE   Dn5
 BYTE   W06
 BYTE   Dn4
 BYTE   W06
 BYTE   Fn4
 BYTE   W06
 BYTE   Gs4
 BYTE   W06
 BYTE   Cn5
 BYTE   W06
 BYTE   Cn4
 BYTE   W06
 BYTE   Fn4
 BYTE   W06
 BYTE   Gs4
 BYTE   W05
 BYTE   PEND 
//  #04 //011   ----------------------------------------
 BYTE   W01
 BYTE   As4
 BYTE   W06
 BYTE   Cn5
 BYTE   W06
 BYTE   As4
 BYTE   W06
 BYTE   Gs4
 BYTE   W06
 BYTE   Gn4
 BYTE   W06
 BYTE   Fn4
 BYTE   W06
 BYTE   Ds4
 BYTE   W06
 BYTE   Dn4
 BYTE   W06
 BYTE   VOL   12*song26_mvl/mxv
 BYTE   PAN   c_v+0
 BYTE   VOL   13*song26_mvl/mxv
 BYTE   N92  Gn4
 BYTE   W01
 BYTE   PAN   c_v-1
 BYTE   W01
 BYTE   VOL   14*song26_mvl/mxv
 BYTE   W01
 BYTE   VOL   24*song26_mvl/mxv
 BYTE   W02
 BYTE   VOL   25*song26_mvl/mxv
 BYTE   PAN   c_v-2
 BYTE   W01
 BYTE   VOL   16*song26_mvl/mxv
 BYTE   W02
 BYTE   VOL   26*song26_mvl/mxv
 BYTE   PAN   c_v-3
 BYTE   W01
 BYTE   VOL   17*song26_mvl/mxv
 BYTE   W02
 BYTE   VOL   28*song26_mvl/mxv
 BYTE   W01
 BYTE   PAN   c_v-4
 BYTE   VOL   18*song26_mvl/mxv
 BYTE   W02
 BYTE   VOL   29*song26_mvl/mxv
 BYTE   W01
 BYTE   PAN   c_v-5
 BYTE   VOL   20*song26_mvl/mxv
 BYTE   W01
 BYTE   VOL   30*song26_mvl/mxv
 BYTE   W02
 BYTE   VOL   31*song26_mvl/mxv
 BYTE   PAN   c_v-6
 BYTE   W01
 BYTE   VOL   22*song26_mvl/mxv
 BYTE   W02
 BYTE   VOL   32*song26_mvl/mxv
 BYTE   W01
 BYTE   PAN   c_v-7
 BYTE   VOL   23*song26_mvl/mxv
 BYTE   W02
 BYTE   VOL   34*song26_mvl/mxv
 BYTE   W01
 BYTE   VOL   34*song26_mvl/mxv
 BYTE   PAN   c_v-8
 BYTE   W02
 BYTE   VOL   25*song26_mvl/mxv
 BYTE   W01
 BYTE   VOL   36*song26_mvl/mxv
 BYTE   W01
 BYTE   PAN   c_v-9
 BYTE   W01
 BYTE   VOL   26*song26_mvl/mxv
 BYTE   W01
 BYTE   VOL   37*song26_mvl/mxv
 BYTE   W01
 BYTE   PAN   c_v-10
 BYTE   W01
 BYTE   VOL   28*song26_mvl/mxv
 BYTE   W01
 BYTE   VOL   38*song26_mvl/mxv
 BYTE   W02
 BYTE   VOL   39*song26_mvl/mxv
 BYTE   PAN   c_v-11
 BYTE   W01
 BYTE   VOL   30*song26_mvl/mxv
 BYTE   W02
 BYTE   VOL   40*song26_mvl/mxv
 BYTE   PAN   c_v-12
 BYTE   W01
 BYTE   VOL   31*song26_mvl/mxv
 BYTE   W02
 BYTE   VOL   42*song26_mvl/mxv
 BYTE   PAN   c_v-13
 BYTE   W01
 BYTE   VOL   32*song26_mvl/mxv
 BYTE   W02
 BYTE   VOL   43*song26_mvl/mxv
 BYTE   W01
 BYTE   PAN   c_v-14
 BYTE   VOL   34*song26_mvl/mxv
 BYTE   W01
//  #04 //012   ----------------------------------------
 BYTE   VOL   44*song26_mvl/mxv
 BYTE   W01
 BYTE   PAN   c_v-13
 BYTE   W01
 BYTE   VOL   35*song26_mvl/mxv
 BYTE   PAN   c_v-12
 BYTE   W01
 BYTE   VOL   36*song26_mvl/mxv
 BYTE   W01
 BYTE   PAN   c_v-11
 BYTE   W01
 BYTE   VOL   36*song26_mvl/mxv
 BYTE   PAN   c_v-10
 BYTE   W01
 BYTE   VOL   37*song26_mvl/mxv
 BYTE   PAN   c_v-9
 BYTE   W01
 BYTE   PAN   c_v-8
 BYTE   W01
 BYTE   VOL   38*song26_mvl/mxv
 BYTE   PAN   c_v-7
 BYTE   W01
 BYTE   VOL   38*song26_mvl/mxv
 BYTE   W01
 BYTE   PAN   c_v-6
 BYTE   W01
 BYTE   VOL   39*song26_mvl/mxv
 BYTE   PAN   c_v-5
 BYTE   W01
 BYTE   VOL   40*song26_mvl/mxv
 BYTE   PAN   c_v-4
 BYTE   W01
 BYTE   PAN   c_v-3
 BYTE   W01
 BYTE   VOL   40*song26_mvl/mxv
 BYTE   W01
 BYTE   PAN   c_v-2
 BYTE   VOL   41*song26_mvl/mxv
 BYTE   W01
 BYTE   PAN   c_v-1
 BYTE   W01
 BYTE   VOL   42*song26_mvl/mxv
 BYTE   PAN   c_v+0
 BYTE   W01
 BYTE   VOL   42*song26_mvl/mxv
 BYTE   PAN   c_v+1
 BYTE   W02
 BYTE   VOL   43*song26_mvl/mxv
 BYTE   PAN   c_v+2
 BYTE   W01
 BYTE   PAN   c_v+3
 BYTE   VOL   44*song26_mvl/mxv
 BYTE   W01
 BYTE   PAN   c_v+4
 BYTE   W01
 BYTE   VOL   44*song26_mvl/mxv
 BYTE   PAN   c_v+5
 BYTE   W01
 BYTE   VOL   45*song26_mvl/mxv
 BYTE   PAN   c_v+6
 BYTE   W02
 BYTE   VOL   46*song26_mvl/mxv
 BYTE   PAN   c_v+7
 BYTE   W01
 BYTE   PAN   c_v+8
 BYTE   VOL   46*song26_mvl/mxv
 BYTE   W01
 BYTE   PAN   c_v+9
 BYTE   W01
 BYTE   VOL   47*song26_mvl/mxv
 BYTE   PAN   c_v+10
 BYTE   W01
 BYTE   VOL   48*song26_mvl/mxv
 BYTE   W01
 BYTE   PAN   c_v+11
 BYTE   W01
 BYTE   VOL   48*song26_mvl/mxv
 BYTE   PAN   c_v+12
 BYTE   W01
 BYTE   VOL   49*song26_mvl/mxv
 BYTE   PAN   c_v+13
 BYTE   W01
 BYTE   VOL   50*song26_mvl/mxv
 BYTE   PAN   c_v+14
 BYTE   W02
 BYTE   VOL   50*song26_mvl/mxv
 BYTE   PAN   c_v+15
 BYTE   W01
 BYTE   PAN   c_v+16
 BYTE   VOL   51*song26_mvl/mxv
 BYTE   W01
 BYTE   PAN   c_v+17
 BYTE   W01
 BYTE   VOL   52*song26_mvl/mxv
 BYTE   PAN   c_v+18
 BYTE   W01
 BYTE   VOL   52*song26_mvl/mxv
 BYTE   PAN   c_v+19
 BYTE   W02
 BYTE   VOL   53*song26_mvl/mxv
 BYTE   PAN   c_v+20
 BYTE   W01
 BYTE   PAN   c_v+21
 BYTE   VOL   54*song26_mvl/mxv
 BYTE   W01
 BYTE   PAN   c_v+22
 BYTE   W01
 BYTE   VOL   54*song26_mvl/mxv
 BYTE   PAN   c_v+23
 BYTE   W01
 BYTE   VOL   55*song26_mvl/mxv
 BYTE   W01
 BYTE   PAN   c_v+24
 BYTE   W01
 BYTE   GoTo
  POIN2 Label_0102C1BF
//  #04 //013   ----------------------------------------
 BYTE   VOL   56*song26_mvl/mxv
 BYTE   PAN   c_v+25
 BYTE   W48
//  #04 //014   ----------------------------------------
 BYTE   PATT
  POIN2 Label_0102C1C0
//  #04 //015   ----------------------------------------
 BYTE   PATT
  POIN2 Label_0102C1DA
//  #04 //016   ----------------------------------------
 BYTE   PATT
  POIN2 Label_0102C1EA
//  #04 //017   ----------------------------------------
 BYTE   PATT
  POIN2 Label_0102C205
//  #04 //018   ----------------------------------------
 BYTE   PATT
  POIN2 Label_0102C21A
//  #04 //019   ----------------------------------------
 BYTE   PATT
  POIN2 Label_0102C236
//  #04 //020   ----------------------------------------
 BYTE   PATT
  POIN2 Label_0102C246
//  #04 //021   ----------------------------------------
 BYTE   PATT
  POIN2 Label_0102C264
//  #04 //022   ----------------------------------------
 BYTE   PATT
  POIN2 Label_0102C287
//  #04 //023   ----------------------------------------
 BYTE   W01
 BYTE   N05  As4  v112
 BYTE   W06
 BYTE   Cn5
 BYTE   W06
 BYTE   As4
 BYTE   W06
 BYTE   Gs4
 BYTE   W06
 BYTE   Gn4
 BYTE   W06
 BYTE   Fn4
 BYTE   W06
 BYTE   Ds4
 BYTE   W06
 BYTE   Dn4
 BYTE   W06
 BYTE   VOL   12*song26_mvl/mxv
 BYTE   PAN   c_v+0
 BYTE   N92  Gn4
 BYTE   W01
 BYTE   VOL   13*song26_mvl/mxv
 BYTE   W01
 BYTE   PAN   c_v-1
 BYTE   VOL   14*song26_mvl/mxv
 BYTE   W02
 BYTE   VOL   24*song26_mvl/mxv
 BYTE   W01
 BYTE   VOL   25*song26_mvl/mxv
 BYTE   PAN   c_v-2
 BYTE   W02
 BYTE   VOL   16*song26_mvl/mxv
 BYTE   W01
 BYTE   VOL   26*song26_mvl/mxv
 BYTE   W01
 BYTE   PAN   c_v-3
 BYTE   W01
 BYTE   VOL   17*song26_mvl/mxv
 BYTE   W01
 BYTE   VOL   28*song26_mvl/mxv
 BYTE   W01
 BYTE   PAN   c_v-4
 BYTE   W01
 BYTE   VOL   18*song26_mvl/mxv
 BYTE   W01
 BYTE   VOL   29*song26_mvl/mxv
 BYTE   W01
 BYTE   PAN   c_v-5
 BYTE   W01
 BYTE   VOL   20*song26_mvl/mxv
 BYTE   W01
 BYTE   VOL   30*song26_mvl/mxv
 BYTE   W01
 BYTE   VOL   31*song26_mvl/mxv
 BYTE   W01
 BYTE   PAN   c_v-6
 BYTE   W01
 BYTE   VOL   22*song26_mvl/mxv
 BYTE   W01
 BYTE   VOL   32*song26_mvl/mxv
 BYTE   W01
 BYTE   PAN   c_v-7
 BYTE   W01
 BYTE   VOL   23*song26_mvl/mxv
 BYTE   W01
 BYTE   VOL   34*song26_mvl/mxv
 BYTE   W02
 BYTE   VOL   34*song26_mvl/mxv
 BYTE   PAN   c_v-8
 BYTE   W01
 BYTE   VOL   25*song26_mvl/mxv
 BYTE   W02
 BYTE   VOL   36*song26_mvl/mxv
 BYTE   PAN   c_v-9
 BYTE   W01
 BYTE   VOL   26*song26_mvl/mxv
 BYTE   W02
 BYTE   VOL   37*song26_mvl/mxv
 BYTE   W01
 BYTE   PAN   c_v-10
 BYTE   VOL   28*song26_mvl/mxv
 BYTE   W02
 BYTE   VOL   38*song26_mvl/mxv
 BYTE   W01
 BYTE   VOL   39*song26_mvl/mxv
 BYTE   PAN   c_v-11
 BYTE   W02
 BYTE   VOL   30*song26_mvl/mxv
 BYTE   W01
 BYTE   VOL   40*song26_mvl/mxv
 BYTE   PAN   c_v-12
 BYTE   W02
 BYTE   VOL   31*song26_mvl/mxv
 BYTE   W01
 BYTE   VOL   42*song26_mvl/mxv
 BYTE   W01
 BYTE   PAN   c_v-13
 BYTE   W01
 BYTE   VOL   32*song26_mvl/mxv
 BYTE   W01
 BYTE   VOL   43*song26_mvl/mxv
 BYTE   W01
 BYTE   PAN   c_v-14
 BYTE   W01
//  #04 //024   ----------------------------------------
 BYTE   VOL   34*song26_mvl/mxv
 BYTE   W01
 BYTE   VOL   44*song26_mvl/mxv
 BYTE   PAN   c_v-14
 BYTE   W01
 BYTE   PAN   c_v-13
 BYTE   VOL   35*song26_mvl/mxv
 BYTE   W01
 BYTE   PAN   c_v-12
 BYTE   W01
 BYTE   VOL   36*song26_mvl/mxv
 BYTE   PAN   c_v-11
 BYTE   W01
 BYTE   VOL   36*song26_mvl/mxv
 BYTE   PAN   c_v-10
 BYTE   W02
 BYTE   VOL   37*song26_mvl/mxv
 BYTE   PAN   c_v-9
 BYTE   W01
 BYTE   PAN   c_v-8
 BYTE   VOL   38*song26_mvl/mxv
 BYTE   W01
 BYTE   PAN   c_v-7
 BYTE   W01
 BYTE   VOL   38*song26_mvl/mxv
 BYTE   PAN   c_v-6
 BYTE   W01
 BYTE   VOL   39*song26_mvl/mxv
 BYTE   PAN   c_v-5
 BYTE   W02
 BYTE   VOL   40*song26_mvl/mxv
 BYTE   PAN   c_v-4
 BYTE   W01
 BYTE   PAN   c_v-3
 BYTE   VOL   40*song26_mvl/mxv
 BYTE   W01
 BYTE   PAN   c_v-2
 BYTE   W01
 BYTE   VOL   41*song26_mvl/mxv
 BYTE   PAN   c_v-1
 BYTE   W01
 BYTE   VOL   42*song26_mvl/mxv
 BYTE   W01
 BYTE   PAN   c_v+0
 BYTE   W01
 BYTE   VOL   42*song26_mvl/mxv
 BYTE   PAN   c_v+1
 BYTE   W01
 BYTE   VOL   43*song26_mvl/mxv
 BYTE   PAN   c_v+2
 BYTE   W01
 BYTE   PAN   c_v+3
 BYTE   W01
 BYTE   VOL   44*song26_mvl/mxv
 BYTE   W01
 BYTE   PAN   c_v+4
 BYTE   VOL   44*song26_mvl/mxv
 BYTE   W01
 BYTE   PAN   c_v+5
 BYTE   W01
 BYTE   VOL   45*song26_mvl/mxv
 BYTE   PAN   c_v+6
 BYTE   W01
 BYTE   VOL   46*song26_mvl/mxv
 BYTE   PAN   c_v+7
 BYTE   W01
 BYTE   PAN   c_v+8
 BYTE   W01
 BYTE   VOL   46*song26_mvl/mxv
 BYTE   W01
 BYTE   PAN   c_v+9
 BYTE   VOL   47*song26_mvl/mxv
 BYTE   W01
 BYTE   PAN   c_v+10
 BYTE   W01
 BYTE   VOL   48*song26_mvl/mxv
 BYTE   PAN   c_v+11
 BYTE   W01
 BYTE   VOL   48*song26_mvl/mxv
 BYTE   PAN   c_v+12
 BYTE   W01
 BYTE   VOL   49*song26_mvl/mxv
 BYTE   W01
 BYTE   PAN   c_v+13
 BYTE   W01
 BYTE   VOL   50*song26_mvl/mxv
 BYTE   PAN   c_v+14
 BYTE   W01
 BYTE   VOL   50*song26_mvl/mxv
 BYTE   PAN   c_v+15
 BYTE   W01
 BYTE   PAN   c_v+16
 BYTE   W01
 BYTE   VOL   51*song26_mvl/mxv
 BYTE   W01
 BYTE   PAN   c_v+17
 BYTE   VOL   52*song26_mvl/mxv
 BYTE   W01
 BYTE   PAN   c_v+18
 BYTE   W01
 BYTE   VOL   52*song26_mvl/mxv
 BYTE   PAN   c_v+19
 BYTE   W01
 BYTE   VOL   53*song26_mvl/mxv
 BYTE   PAN   c_v+20
 BYTE   W01
 BYTE   PAN   c_v+21
 BYTE   W01
 BYTE   VOL   54*song26_mvl/mxv
 BYTE   W01
 BYTE   PAN   c_v+22
 BYTE   VOL   54*song26_mvl/mxv
 BYTE   W01
 BYTE   PAN   c_v+23
 BYTE   W01
 BYTE   VOL   55*song26_mvl/mxv
 BYTE   PAN   c_v+24
 BYTE   W01
 BYTE   VOL   56*song26_mvl/mxv
 BYTE   PAN   c_v+25
 BYTE   FINE

//**************** Track 5 (Midi-Chn.4) ****************//

song26_005:
//  #05 //000   ----------------------------------------
 BYTE   KEYSH   song26_key+0
 BYTE   VOICE   19
 BYTE   VOL   58*song26_mvl/mxv
 BYTE   PAN   c_v+25
 BYTE   N05  Cn4  v084
 BYTE   W06
 BYTE   Gn4  v076
 BYTE   W06
 BYTE   Fs4
 BYTE   W06
 BYTE   Fn4  v092
 BYTE   W06
 BYTE   As4  v084
 BYTE   W06
 BYTE   An4
 BYTE   W06
 BYTE   Gs4  v100
 BYTE   W06
 BYTE   Cs5  v092
 BYTE   W06
 BYTE   Cn5  v108
 BYTE   W06
 BYTE   Bn4  v100
 BYTE   W06
 BYTE   En5
 BYTE   W06
 BYTE   Ds5  v116
 BYTE   W06
 BYTE   Dn5  v108
 BYTE   W06
 BYTE   Gn5
 BYTE   W06
 BYTE   Fs5  v124
 BYTE   W06
 BYTE   Fn5  v116
 BYTE   W06
//  #05 //001   ----------------------------------------
 BYTE   N32  As4
 BYTE   W36
 BYTE   N03  As4  v044
 BYTE   W04
 BYTE   As4  v040
 BYTE   W04
 BYTE   N02  As4  v032
 BYTE   W04
Label_0102C59F:
 BYTE   W48
//  #05 //002   ----------------------------------------
Label_0102C5A0:
 BYTE   W30
 BYTE   VOICE   48
 BYTE   VOL   62*song26_mvl/mxv
 BYTE   PAN   c_v+0
 BYTE   N05  Cn3  v092
 BYTE   W06
 BYTE   Gn3  v096
 BYTE   W06
 BYTE   Cn4
 BYTE   W06
 BYTE   N32  Dn4  v104
 BYTE   W36
 BYTE   N11  Cn4  v096
 BYTE   W12
 BYTE   PEND 
//  #05 //003   ----------------------------------------
Label_0102C5B9:
 BYTE   N44  Gn3  v104
 BYTE   W78
 BYTE   N04  Cn3  v096
 BYTE   W06
 BYTE   Gn3  v100
 BYTE   W06
 BYTE   Cn4  v104
 BYTE   W06
 BYTE   PEND 
//  #05 //004   ----------------------------------------
Label_0102C5C8:
 BYTE   N05  Dn4  v108
 BYTE   W06
 BYTE   Cn4  v096
 BYTE   W06
 BYTE   Fn4  v108
 BYTE   W06
 BYTE   Ds4
 BYTE   W06
 BYTE   Dn4
 BYTE   W06
 BYTE   As3
 BYTE   W06
 BYTE   Fn3
 BYTE   W06
 BYTE   Gs3
 BYTE   W06
 BYTE   N44  Gn3  v100
 BYTE   W48
 BYTE   PEND 
//  #05 //005   ----------------------------------------
Label_0102C5E1:
 BYTE   VOL   75*song26_mvl/mxv
 BYTE   W48
 BYTE   VOICE   49
 BYTE   VOL   58*song26_mvl/mxv
 BYTE   PAN   c_v+14
 BYTE   N17  Ds3  v104
 BYTE   W18
 BYTE   N05  Dn3
 BYTE   W06
 BYTE   N17  Fn3
 BYTE   W18
 BYTE   N05  Ds3
 BYTE   W06
 BYTE   PEND 
//  #05 //006   ----------------------------------------
Label_0102C5F8:
 BYTE   N17  Gn3  v104
 BYTE   W18
 BYTE   N05  Fn3
 BYTE   W06
 BYTE   Gs3
 BYTE   W06
 BYTE   Gn3
 BYTE   W06
 BYTE   As3
 BYTE   W06
 BYTE   Gs3
 BYTE   W06
 BYTE   N17  Ds3
 BYTE   W18
 BYTE   N05  Dn3
 BYTE   W06
 BYTE   N17  Fn3
 BYTE   W18
 BYTE   N05  Ds3
 BYTE   W06
 BYTE   PEND 
//  #05 //007   ----------------------------------------
Label_0102C614:
 BYTE   N17  Gn3  v104
 BYTE   W18
 BYTE   N05  Fn3
 BYTE   W06
 BYTE   Gs3
 BYTE   W06
 BYTE   As3
 BYTE   W06
 BYTE   Cn4
 BYTE   W06
 BYTE   Dn4
 BYTE   W54
 BYTE   PEND 
//  #05 //008   ----------------------------------------
Label_0102C624:
 BYTE   VOICE   48
 BYTE   VOL   62*song26_mvl/mxv
 BYTE   PAN   c_v+0
 BYTE   W30
 BYTE   N05  Cn3  v108
 BYTE   W06
 BYTE   Gn3
 BYTE   W06
 BYTE   Cn4
 BYTE   W06
 BYTE   N17  Dn4  v112
 BYTE   W18
 BYTE   N05  Gn4
 BYTE   W06
 BYTE   N17  Cn4
 BYTE   W18
 BYTE   N05  As4
 BYTE   W06
 BYTE   PEND 
//  #05 //009   ----------------------------------------
Label_0102C641:
 BYTE   N11  An4  v112
 BYTE   W12
 BYTE   N05  Gn4
 BYTE   W06
 BYTE   Fn4
 BYTE   W06
 BYTE   Ds4
 BYTE   W06
 BYTE   Fn4
 BYTE   W06
 BYTE   Gn4
 BYTE   W06
 BYTE   Dn4
 BYTE   W06
 BYTE   Cn4
 BYTE   W06
 BYTE   Cn3
 BYTE   W06
 BYTE   Ds3
 BYTE   W06
 BYTE   Gn3
 BYTE   W06
 BYTE   Gs2
 BYTE   W06
 BYTE   Ds3
 BYTE   W06
 BYTE   Gn3
 BYTE   W06
 BYTE   Cn4
 BYTE   W06
 BYTE   PEND 
//  #05 //010   ----------------------------------------
Label_0102C663:
 BYTE   N05  Dn4  v112
 BYTE   W06
 BYTE   Fn4
 BYTE   W06
 BYTE   As4
 BYTE   W06
 BYTE   Gs4
 BYTE   W06
 BYTE   Gn4
 BYTE   W06
 BYTE   Fn4
 BYTE   W06
 BYTE   Ds4
 BYTE   W06
 BYTE   Fn4
 BYTE   W06
 BYTE   Dn4
 BYTE   W06
 BYTE   Dn3
 BYTE   W06
 BYTE   Fn3
 BYTE   W06
 BYTE   Gs3
 BYTE   W06
 BYTE   Cn4
 BYTE   W06
 BYTE   Cn3
 BYTE   W06
 BYTE   Fn3
 BYTE   W06
 BYTE   Gs3
 BYTE   W06
 BYTE   PEND 
//  #05 //011   ----------------------------------------
 BYTE   As3
 BYTE   W06
 BYTE   Cn4
 BYTE   W06
 BYTE   As3
 BYTE   W06
 BYTE   Gs3
 BYTE   W06
 BYTE   Gn3
 BYTE   W06
 BYTE   Fn3
 BYTE   W06
 BYTE   Ds3
 BYTE   W06
 BYTE   Dn3
 BYTE   W06
 BYTE   VOL   28*song26_mvl/mxv
 BYTE   PAN   c_v+0
 BYTE   VOL   29*song26_mvl/mxv
 BYTE   N92  Gn3
 BYTE   W01
 BYTE   PAN   c_v+1
 BYTE   W01
 BYTE   VOL   30*song26_mvl/mxv
 BYTE   W01
 BYTE   VOL   40*song26_mvl/mxv
 BYTE   W02
 BYTE   VOL   41*song26_mvl/mxv
 BYTE   PAN   c_v+2
 BYTE   W01
 BYTE   VOL   32*song26_mvl/mxv
 BYTE   W02
 BYTE   VOL   42*song26_mvl/mxv
 BYTE   PAN   c_v+3
 BYTE   W01
 BYTE   VOL   33*song26_mvl/mxv
 BYTE   W02
 BYTE   VOL   44*song26_mvl/mxv
 BYTE   PAN   c_v+4
 BYTE   W01
 BYTE   VOL   34*song26_mvl/mxv
 BYTE   W02
 BYTE   VOL   45*song26_mvl/mxv
 BYTE   W01
 BYTE   PAN   c_v+5
 BYTE   VOL   36*song26_mvl/mxv
 BYTE   W01
 BYTE   VOL   46*song26_mvl/mxv
 BYTE   W02
 BYTE   VOL   47*song26_mvl/mxv
 BYTE   PAN   c_v+6
 BYTE   W01
 BYTE   VOL   38*song26_mvl/mxv
 BYTE   W02
 BYTE   VOL   48*song26_mvl/mxv
 BYTE   W01
 BYTE   PAN   c_v+7
 BYTE   VOL   39*song26_mvl/mxv
 BYTE   W02
 BYTE   VOL   50*song26_mvl/mxv
 BYTE   W01
 BYTE   VOL   50*song26_mvl/mxv
 BYTE   PAN   c_v+8
 BYTE   W02
 BYTE   VOL   41*song26_mvl/mxv
 BYTE   W01
 BYTE   VOL   52*song26_mvl/mxv
 BYTE   W01
 BYTE   PAN   c_v+9
 BYTE   W01
 BYTE   VOL   42*song26_mvl/mxv
 BYTE   W01
 BYTE   VOL   53*song26_mvl/mxv
 BYTE   W01
 BYTE   PAN   c_v+10
 BYTE   W01
 BYTE   VOL   44*song26_mvl/mxv
 BYTE   W01
 BYTE   VOL   54*song26_mvl/mxv
 BYTE   W01
 BYTE   PAN   c_v+11
 BYTE   W01
 BYTE   VOL   45*song26_mvl/mxv
 BYTE   W01
 BYTE   VOL   56*song26_mvl/mxv
 BYTE   W02
 BYTE   VOL   56*song26_mvl/mxv
 BYTE   PAN   c_v+12
 BYTE   W01
 BYTE   VOL   47*song26_mvl/mxv
 BYTE   W02
 BYTE   VOL   58*song26_mvl/mxv
 BYTE   PAN   c_v+13
 BYTE   W01
 BYTE   VOL   48*song26_mvl/mxv
 BYTE   W02
 BYTE   VOL   59*song26_mvl/mxv
 BYTE   W01
 BYTE   PAN   c_v+14
 BYTE   VOL   50*song26_mvl/mxv
 BYTE   W01
 BYTE   VOL   60*song26_mvl/mxv
 BYTE   W01
//  #05 //012   ----------------------------------------
 BYTE   PAN   c_v+13
 BYTE   W01
 BYTE   VOL   51*song26_mvl/mxv
 BYTE   PAN   c_v+12
 BYTE   W01
 BYTE   VOL   52*song26_mvl/mxv
 BYTE   W01
 BYTE   PAN   c_v+11
 BYTE   W01
 BYTE   VOL   52*song26_mvl/mxv
 BYTE   PAN   c_v+10
 BYTE   W01
 BYTE   VOL   53*song26_mvl/mxv
 BYTE   PAN   c_v+9
 BYTE   W01
 BYTE   PAN   c_v+8
 BYTE   W01
 BYTE   VOL   54*song26_mvl/mxv
 BYTE   W01
 BYTE   PAN   c_v+7
 BYTE   VOL   54*song26_mvl/mxv
 BYTE   W01
 BYTE   PAN   c_v+6
 BYTE   W01
 BYTE   VOL   55*song26_mvl/mxv
 BYTE   PAN   c_v+5
 BYTE   W01
 BYTE   VOL   56*song26_mvl/mxv
 BYTE   PAN   c_v+4
 BYTE   W01
 BYTE   PAN   c_v+3
 BYTE   W01
 BYTE   VOL   56*song26_mvl/mxv
 BYTE   W01
 BYTE   PAN   c_v+2
 BYTE   VOL   57*song26_mvl/mxv
 BYTE   W01
 BYTE   PAN   c_v+1
 BYTE   W01
 BYTE   VOL   58*song26_mvl/mxv
 BYTE   PAN   c_v+0
 BYTE   W01
 BYTE   VOL   58*song26_mvl/mxv
 BYTE   PAN   c_v-1
 BYTE   W02
 BYTE   VOL   59*song26_mvl/mxv
 BYTE   PAN   c_v-2
 BYTE   W01
 BYTE   PAN   c_v-3
 BYTE   VOL   60*song26_mvl/mxv
 BYTE   W01
 BYTE   PAN   c_v-4
 BYTE   W01
 BYTE   VOL   60*song26_mvl/mxv
 BYTE   PAN   c_v-5
 BYTE   W01
 BYTE   VOL   61*song26_mvl/mxv
 BYTE   W01
 BYTE   PAN   c_v-6
 BYTE   W01
 BYTE   VOL   62*song26_mvl/mxv
 BYTE   PAN   c_v-7
 BYTE   W01
 BYTE   PAN   c_v-8
 BYTE   VOL   62*song26_mvl/mxv
 BYTE   W01
 BYTE   PAN   c_v-9
 BYTE   W01
 BYTE   VOL   63*song26_mvl/mxv
 BYTE   PAN   c_v-10
 BYTE   W01
 BYTE   VOL   64*song26_mvl/mxv
 BYTE   W01
 BYTE   PAN   c_v-11
 BYTE   W01
 BYTE   VOL   64*song26_mvl/mxv
 BYTE   PAN   c_v-12
 BYTE   W01
 BYTE   VOL   65*song26_mvl/mxv
 BYTE   PAN   c_v-13
 BYTE   W01
 BYTE   VOL   66*song26_mvl/mxv
 BYTE   PAN   c_v-14
 BYTE   W02
 BYTE   VOL   66*song26_mvl/mxv
 BYTE   PAN   c_v-15
 BYTE   W01
 BYTE   PAN   c_v-16
 BYTE   VOL   67*song26_mvl/mxv
 BYTE   W01
 BYTE   PAN   c_v-17
 BYTE   W01
 BYTE   VOL   68*song26_mvl/mxv
 BYTE   PAN   c_v-18
 BYTE   W01
 BYTE   VOL   68*song26_mvl/mxv
 BYTE   W01
 BYTE   PAN   c_v-19
 BYTE   W01
 BYTE   VOL   69*song26_mvl/mxv
 BYTE   PAN   c_v-20
 BYTE   W01
 BYTE   PAN   c_v-21
 BYTE   VOL   70*song26_mvl/mxv
 BYTE   W01
 BYTE   PAN   c_v-22
 BYTE   W01
 BYTE   VOL   70*song26_mvl/mxv
 BYTE   PAN   c_v-23
 BYTE   W01
 BYTE   VOL   71*song26_mvl/mxv
 BYTE   W01
 BYTE   PAN   c_v-24
 BYTE   W01
 BYTE   VOL   72*song26_mvl/mxv
 BYTE   PAN   c_v-25
 BYTE   W01
 BYTE   GoTo
  POIN2 Label_0102C59F
//  #05 //013   ----------------------------------------
 BYTE   W48
//  #05 //014   ----------------------------------------
 BYTE   PATT
  POIN2 Label_0102C5A0
//  #05 //015   ----------------------------------------
 BYTE   PATT
  POIN2 Label_0102C5B9
//  #05 //016   ----------------------------------------
 BYTE   PATT
  POIN2 Label_0102C5C8
//  #05 //017   ----------------------------------------
 BYTE   PATT
  POIN2 Label_0102C5E1
//  #05 //018   ----------------------------------------
 BYTE   PATT
  POIN2 Label_0102C5F8
//  #05 //019   ----------------------------------------
 BYTE   PATT
  POIN2 Label_0102C614
//  #05 //020   ----------------------------------------
 BYTE   PATT
  POIN2 Label_0102C624
//  #05 //021   ----------------------------------------
 BYTE   PATT
  POIN2 Label_0102C641
//  #05 //022   ----------------------------------------
 BYTE   PATT
  POIN2 Label_0102C663
//  #05 //023   ----------------------------------------
 BYTE   N05  As3  v112
 BYTE   W06
 BYTE   Cn4
 BYTE   W06
 BYTE   As3
 BYTE   W06
 BYTE   Gs3
 BYTE   W06
 BYTE   Gn3
 BYTE   W06
 BYTE   Fn3
 BYTE   W06
 BYTE   Ds3
 BYTE   W06
 BYTE   Dn3
 BYTE   W06
 BYTE   VOL   28*song26_mvl/mxv
 BYTE   PAN   c_v+0
 BYTE   N92  Gn3
 BYTE   W01
 BYTE   VOL   29*song26_mvl/mxv
 BYTE   W01
 BYTE   PAN   c_v+1
 BYTE   VOL   30*song26_mvl/mxv
 BYTE   W02
 BYTE   VOL   40*song26_mvl/mxv
 BYTE   W01
 BYTE   VOL   41*song26_mvl/mxv
 BYTE   PAN   c_v+2
 BYTE   W02
 BYTE   VOL   32*song26_mvl/mxv
 BYTE   W01
 BYTE   VOL   42*song26_mvl/mxv
 BYTE   W01
 BYTE   PAN   c_v+3
 BYTE   W01
 BYTE   VOL   33*song26_mvl/mxv
 BYTE   W01
 BYTE   VOL   44*song26_mvl/mxv
 BYTE   W01
 BYTE   PAN   c_v+4
 BYTE   W01
 BYTE   VOL   34*song26_mvl/mxv
 BYTE   W01
 BYTE   VOL   45*song26_mvl/mxv
 BYTE   W01
 BYTE   PAN   c_v+5
 BYTE   W01
 BYTE   VOL   36*song26_mvl/mxv
 BYTE   W01
 BYTE   VOL   46*song26_mvl/mxv
 BYTE   W01
 BYTE   VOL   47*song26_mvl/mxv
 BYTE   W01
 BYTE   PAN   c_v+6
 BYTE   W01
 BYTE   VOL   38*song26_mvl/mxv
 BYTE   W01
 BYTE   VOL   48*song26_mvl/mxv
 BYTE   W01
 BYTE   PAN   c_v+7
 BYTE   W01
 BYTE   VOL   39*song26_mvl/mxv
 BYTE   W01
 BYTE   VOL   50*song26_mvl/mxv
 BYTE   W02
 BYTE   VOL   50*song26_mvl/mxv
 BYTE   PAN   c_v+8
 BYTE   W01
 BYTE   VOL   41*song26_mvl/mxv
 BYTE   W02
 BYTE   VOL   52*song26_mvl/mxv
 BYTE   PAN   c_v+9
 BYTE   W01
 BYTE   VOL   42*song26_mvl/mxv
 BYTE   W02
 BYTE   VOL   53*song26_mvl/mxv
 BYTE   W01
 BYTE   PAN   c_v+10
 BYTE   VOL   44*song26_mvl/mxv
 BYTE   W02
 BYTE   VOL   54*song26_mvl/mxv
 BYTE   W01
 BYTE   PAN   c_v+11
 BYTE   VOL   45*song26_mvl/mxv
 BYTE   W02
 BYTE   VOL   56*song26_mvl/mxv
 BYTE   W01
 BYTE   VOL   56*song26_mvl/mxv
 BYTE   PAN   c_v+12
 BYTE   W02
 BYTE   VOL   47*song26_mvl/mxv
 BYTE   W01
 BYTE   VOL   58*song26_mvl/mxv
 BYTE   W01
 BYTE   PAN   c_v+13
 BYTE   W01
 BYTE   VOL   48*song26_mvl/mxv
 BYTE   W01
 BYTE   VOL   59*song26_mvl/mxv
 BYTE   W01
 BYTE   PAN   c_v+14
 BYTE   W01
 BYTE   VOL   50*song26_mvl/mxv
 BYTE   W01
//  #05 //024   ----------------------------------------
 BYTE   VOL   60*song26_mvl/mxv
 BYTE   PAN   c_v+14
 BYTE   W01
 BYTE   PAN   c_v+13
 BYTE   VOL   51*song26_mvl/mxv
 BYTE   W01
 BYTE   PAN   c_v+12
 BYTE   W01
 BYTE   VOL   52*song26_mvl/mxv
 BYTE   PAN   c_v+11
 BYTE   W01
 BYTE   VOL   52*song26_mvl/mxv
 BYTE   PAN   c_v+10
 BYTE   W02
 BYTE   VOL   53*song26_mvl/mxv
 BYTE   PAN   c_v+9
 BYTE   W01
 BYTE   PAN   c_v+8
 BYTE   VOL   54*song26_mvl/mxv
 BYTE   W01
 BYTE   PAN   c_v+7
 BYTE   W01
 BYTE   VOL   54*song26_mvl/mxv
 BYTE   PAN   c_v+6
 BYTE   W01
 BYTE   VOL   55*song26_mvl/mxv
 BYTE   PAN   c_v+5
 BYTE   W02
 BYTE   VOL   56*song26_mvl/mxv
 BYTE   PAN   c_v+4
 BYTE   W01
 BYTE   PAN   c_v+3
 BYTE   VOL   56*song26_mvl/mxv
 BYTE   W01
 BYTE   PAN   c_v+2
 BYTE   W01
 BYTE   VOL   57*song26_mvl/mxv
 BYTE   PAN   c_v+1
 BYTE   W01
 BYTE   VOL   58*song26_mvl/mxv
 BYTE   W01
 BYTE   PAN   c_v+0
 BYTE   W01
 BYTE   VOL   58*song26_mvl/mxv
 BYTE   PAN   c_v-1
 BYTE   W01
 BYTE   VOL   59*song26_mvl/mxv
 BYTE   PAN   c_v-2
 BYTE   W01
 BYTE   PAN   c_v-3
 BYTE   W01
 BYTE   VOL   60*song26_mvl/mxv
 BYTE   W01
 BYTE   PAN   c_v-4
 BYTE   VOL   60*song26_mvl/mxv
 BYTE   W01
 BYTE   PAN   c_v-5
 BYTE   W01
 BYTE   VOL   61*song26_mvl/mxv
 BYTE   PAN   c_v-6
 BYTE   W01
 BYTE   VOL   62*song26_mvl/mxv
 BYTE   PAN   c_v-7
 BYTE   W01
 BYTE   PAN   c_v-8
 BYTE   W01
 BYTE   VOL   62*song26_mvl/mxv
 BYTE   W01
 BYTE   PAN   c_v-9
 BYTE   VOL   63*song26_mvl/mxv
 BYTE   W01
 BYTE   PAN   c_v-10
 BYTE   W01
 BYTE   VOL   64*song26_mvl/mxv
 BYTE   PAN   c_v-11
 BYTE   W01
 BYTE   VOL   64*song26_mvl/mxv
 BYTE   PAN   c_v-12
 BYTE   W01
 BYTE   VOL   65*song26_mvl/mxv
 BYTE   W01
 BYTE   PAN   c_v-13
 BYTE   W01
 BYTE   VOL   66*song26_mvl/mxv
 BYTE   PAN   c_v-14
 BYTE   W01
 BYTE   VOL   66*song26_mvl/mxv
 BYTE   PAN   c_v-15
 BYTE   W01
 BYTE   PAN   c_v-16
 BYTE   W01
 BYTE   VOL   67*song26_mvl/mxv
 BYTE   W01
 BYTE   PAN   c_v-17
 BYTE   VOL   68*song26_mvl/mxv
 BYTE   W01
 BYTE   PAN   c_v-18
 BYTE   W01
 BYTE   VOL   68*song26_mvl/mxv
 BYTE   PAN   c_v-19
 BYTE   W01
 BYTE   VOL   69*song26_mvl/mxv
 BYTE   PAN   c_v-20
 BYTE   W01
 BYTE   PAN   c_v-21
 BYTE   W01
 BYTE   VOL   70*song26_mvl/mxv
 BYTE   W01
 BYTE   PAN   c_v-22
 BYTE   VOL   70*song26_mvl/mxv
 BYTE   W01
 BYTE   PAN   c_v-23
 BYTE   W01
 BYTE   VOL   71*song26_mvl/mxv
 BYTE   PAN   c_v-24
 BYTE   W01
 BYTE   VOL   72*song26_mvl/mxv
 BYTE   PAN   c_v-25
 BYTE   W01
 BYTE   FINE

//**************** Track 6 (Midi-Chn.5) ****************//

song26_006:
//  #06 //000   ----------------------------------------
 BYTE   KEYSH   song26_key+0
 BYTE   VOICE   19
 BYTE   VOL   57*song26_mvl/mxv
 BYTE   PAN   c_v+25
 BYTE   N05  Cn3  v084
 BYTE   W06
 BYTE   Gn3  v076
 BYTE   W06
 BYTE   Fs3
 BYTE   W06
 BYTE   Fn3  v092
 BYTE   W06
 BYTE   As3  v084
 BYTE   W06
 BYTE   An3
 BYTE   W06
 BYTE   Gs3  v100
 BYTE   W06
 BYTE   Cs4  v092
 BYTE   W06
 BYTE   Cn4  v108
 BYTE   W06
 BYTE   Bn3  v100
 BYTE   W06
 BYTE   En4
 BYTE   W06
 BYTE   Ds4  v116
 BYTE   W06
 BYTE   Dn4  v108
 BYTE   W06
 BYTE   Gn4
 BYTE   W06
 BYTE   Fs4  v124
 BYTE   W06
 BYTE   Fn4  v116
 BYTE   W06
//  #06 //001   ----------------------------------------
 BYTE   N32
 BYTE   W36
 BYTE   N03  Fn4  v044
 BYTE   W04
 BYTE   Fn4  v040
 BYTE   W04
 BYTE   Fn4  v032
 BYTE   W04
Label_0102C97B:
 BYTE   VOICE   109
 BYTE   VOL   63*song26_mvl/mxv
 BYTE   PAN   c_v+25
 BYTE   VOL   63*song26_mvl/mxv
 BYTE   N04  Gn3  v104
 BYTE   W05
 BYTE   N03  Gn3  v040
 BYTE   W04
 BYTE   Gn3  v032
 BYTE   W09
 BYTE   N04  Gs3  v112
 BYTE   W05
 BYTE   N03  Gs3  v044
 BYTE   W04
 BYTE   Gs3  v040
 BYTE   W21
//  #06 //002   ----------------------------------------
Label_0102C999:
 BYTE   N04  Gn3  v104
 BYTE   W05
 BYTE   N03  Gn3  v040
 BYTE   W04
 BYTE   Gn3  v032
 BYTE   W09
 BYTE   N04  Fn3  v112
 BYTE   W05
 BYTE   N03  Fn3  v044
 BYTE   W04
 BYTE   Fn3  v040
 BYTE   W21
 BYTE   N04  Gn3  v104
 BYTE   W05
 BYTE   N03  Gn3  v040
 BYTE   W04
 BYTE   Gn3  v032
 BYTE   W09
 BYTE   N04  Gs3  v112
 BYTE   W05
 BYTE   N03  Gs3  v044
 BYTE   W04
 BYTE   Gs3  v040
 BYTE   W21
 BYTE   PEND 
//  #06 //003   ----------------------------------------
 BYTE   PATT
  POIN2 Label_0102C999
//  #06 //004   ----------------------------------------
 BYTE   PATT
  POIN2 Label_0102C999
//  #06 //005   ----------------------------------------
 BYTE   N04  Gn3  v104
 BYTE   W05
 BYTE   N03  Gn3  v040
 BYTE   W04
 BYTE   Gn3  v032
 BYTE   W09
 BYTE   N04  Fn3  v112
 BYTE   W05
 BYTE   N03  Fn3  v044
 BYTE   W04
 BYTE   Fn3  v040
 BYTE   W22
 BYTE   VOICE   49
 BYTE   VOL   46*song26_mvl/mxv
 BYTE   PAN   c_v-14
 BYTE   N17  Ds4  v104
 BYTE   W18
 BYTE   N05  Dn4
 BYTE   W06
 BYTE   N17  Fn4
 BYTE   W18
 BYTE   N05  Ds4
 BYTE   W05
//  #06 //006   ----------------------------------------
Label_0102C9F9:
 BYTE   W01
 BYTE   N17  Gn4  v104
 BYTE   W18
 BYTE   N05  Fn4
 BYTE   W06
 BYTE   Gs4
 BYTE   W06
 BYTE   Gn4
 BYTE   W06
 BYTE   As4
 BYTE   W06
 BYTE   Gs4
 BYTE   W06
 BYTE   N17  Ds4
 BYTE   W18
 BYTE   N05  Dn4
 BYTE   W06
 BYTE   N17  Fn4
 BYTE   W18
 BYTE   N05  Ds4
 BYTE   W05
 BYTE   PEND 
//  #06 //007   ----------------------------------------
 BYTE   W01
 BYTE   N17  Gn4
 BYTE   W18
 BYTE   N05  Fn4
 BYTE   W06
 BYTE   Gs4
 BYTE   W06
 BYTE   As4
 BYTE   W06
 BYTE   Cn5
 BYTE   W06
 BYTE   N04  Dn5
 BYTE   W05
 BYTE   VOICE   109
 BYTE   VOL   63*song26_mvl/mxv
 BYTE   PAN   c_v+25
 BYTE   N04  Gn4
 BYTE   W05
 BYTE   N03  Gn4  v040
 BYTE   W04
 BYTE   Gn4  v032
 BYTE   W09
 BYTE   N04  Gs4  v112
 BYTE   W05
 BYTE   N03  Gs4  v044
 BYTE   W04
 BYTE   Gs4  v040
 BYTE   W21
//  #06 //008   ----------------------------------------
Label_0102CA41:
 BYTE   N04  Gn4  v104
 BYTE   W05
 BYTE   N03  Gn4  v040
 BYTE   W04
 BYTE   Gn4  v032
 BYTE   W09
 BYTE   N04  Fn4  v112
 BYTE   W05
 BYTE   N03  Fn4  v044
 BYTE   W04
 BYTE   Fn4  v040
 BYTE   W21
 BYTE   N04  Gn4  v104
 BYTE   W05
 BYTE   N03  Gn4  v040
 BYTE   W04
 BYTE   Gn4  v032
 BYTE   W09
 BYTE   N04  Gs4  v112
 BYTE   W05
 BYTE   N03  Gs4  v044
 BYTE   W04
 BYTE   Gs4  v040
 BYTE   W21
 BYTE   PEND 
//  #06 //009   ----------------------------------------
 BYTE   PATT
  POIN2 Label_0102CA41
//  #06 //010   ----------------------------------------
 BYTE   PATT
  POIN2 Label_0102CA41
//  #06 //011   ----------------------------------------
 BYTE   N04  Gn4  v104
 BYTE   W05
 BYTE   N03  Gn4  v040
 BYTE   W04
 BYTE   Gn4  v032
 BYTE   W09
 BYTE   N04  Fn4  v112
 BYTE   W05
 BYTE   N03  Fn4  v044
 BYTE   W04
 BYTE   Fn4  v040
 BYTE   W21
 BYTE   VOL   30*song26_mvl/mxv
 BYTE   N44  Cn4  v112
 BYTE   W02
 BYTE   VOL   31*song26_mvl/mxv
 BYTE   W01
 BYTE   VOL   42*song26_mvl/mxv
 BYTE   W02
 BYTE   VOL   42*song26_mvl/mxv
 BYTE   W01
 BYTE   VOL   43*song26_mvl/mxv
 BYTE   W02
 BYTE   VOL   44*song26_mvl/mxv
 BYTE   W01
 BYTE   VOL   44*song26_mvl/mxv
 BYTE   W02
 BYTE   VOL   45*song26_mvl/mxv
 BYTE   W01
 BYTE   VOL   46*song26_mvl/mxv
 BYTE   W02
 BYTE   VOL   46*song26_mvl/mxv
 BYTE   W01
 BYTE   VOL   47*song26_mvl/mxv
 BYTE   W01
 BYTE   VOL   48*song26_mvl/mxv
 BYTE   W02
 BYTE   VOL   48*song26_mvl/mxv
 BYTE   W01
 BYTE   VOL   49*song26_mvl/mxv
 BYTE   W02
 BYTE   VOL   50*song26_mvl/mxv
 BYTE   W01
 BYTE   VOL   50*song26_mvl/mxv
 BYTE   W02
 BYTE   VOL   51*song26_mvl/mxv
 BYTE   W01
 BYTE   VOL   52*song26_mvl/mxv
 BYTE   W02
 BYTE   VOL   52*song26_mvl/mxv
 BYTE   W01
 BYTE   VOL   53*song26_mvl/mxv
 BYTE   W02
 BYTE   VOL   54*song26_mvl/mxv
 BYTE   W01
 BYTE   VOL   54*song26_mvl/mxv
 BYTE   W02
 BYTE   VOL   55*song26_mvl/mxv
 BYTE   W01
 BYTE   VOL   56*song26_mvl/mxv
 BYTE   W02
 BYTE   VOL   56*song26_mvl/mxv
 BYTE   W01
 BYTE   VOL   57*song26_mvl/mxv
 BYTE   W02
 BYTE   VOL   58*song26_mvl/mxv
 BYTE   W01
 BYTE   VOL   58*song26_mvl/mxv
 BYTE   W02
 BYTE   VOL   59*song26_mvl/mxv
 BYTE   W01
 BYTE   VOL   60*song26_mvl/mxv
 BYTE   W02
 BYTE   VOL   60*song26_mvl/mxv
 BYTE   W01
 BYTE   VOL   61*song26_mvl/mxv
 BYTE   W01
 BYTE   VOL   62*song26_mvl/mxv
 BYTE   W01
//  #06 //012   ----------------------------------------
 BYTE   N44  Bn3
 BYTE   W01
 BYTE   VOL   52*song26_mvl/mxv
 BYTE   W01
 BYTE   VOL   63*song26_mvl/mxv
 BYTE   W02
 BYTE   VOL   64*song26_mvl/mxv
 BYTE   W01
 BYTE   VOL   64*song26_mvl/mxv
 BYTE   W02
 BYTE   VOL   65*song26_mvl/mxv
 BYTE   W01
 BYTE   VOL   66*song26_mvl/mxv
 BYTE   W02
 BYTE   VOL   66*song26_mvl/mxv
 BYTE   W01
 BYTE   VOL   67*song26_mvl/mxv
 BYTE   W02
 BYTE   VOL   68*song26_mvl/mxv
 BYTE   W01
 BYTE   VOL   68*song26_mvl/mxv
 BYTE   W02
 BYTE   VOL   69*song26_mvl/mxv
 BYTE   W01
 BYTE   VOL   70*song26_mvl/mxv
 BYTE   W02
 BYTE   VOL   70*song26_mvl/mxv
 BYTE   W01
 BYTE   VOL   71*song26_mvl/mxv
 BYTE   W02
 BYTE   VOL   72*song26_mvl/mxv
 BYTE   W01
 BYTE   VOL   72*song26_mvl/mxv
 BYTE   W02
 BYTE   VOL   73*song26_mvl/mxv
 BYTE   W01
 BYTE   VOL   74*song26_mvl/mxv
 BYTE   W02
 BYTE   VOL   74*song26_mvl/mxv
 BYTE   W01
 BYTE   VOL   75*song26_mvl/mxv
 BYTE   W02
 BYTE   VOL   76*song26_mvl/mxv
 BYTE   W01
 BYTE   VOL   76*song26_mvl/mxv
 BYTE   W01
 BYTE   VOL   77*song26_mvl/mxv
 BYTE   W02
 BYTE   VOL   78*song26_mvl/mxv
 BYTE   W01
 BYTE   VOL   78*song26_mvl/mxv
 BYTE   W02
 BYTE   VOL   79*song26_mvl/mxv
 BYTE   W01
 BYTE   VOL   80*song26_mvl/mxv
 BYTE   W02
 BYTE   VOL   80*song26_mvl/mxv
 BYTE   W01
 BYTE   VOL   81*song26_mvl/mxv
 BYTE   W02
 BYTE   VOL   82*song26_mvl/mxv
 BYTE   W01
 BYTE   VOL   82*song26_mvl/mxv
 BYTE   W02
 BYTE   VOL   83*song26_mvl/mxv
 BYTE   W01
 BYTE   GoTo
  POIN2 Label_0102C97B
//  #06 //013   ----------------------------------------
 BYTE   VOL   63*song26_mvl/mxv
 BYTE   N04  Gn3  v104
 BYTE   W06
 BYTE   N03  Gn3  v040
 BYTE   W04
 BYTE   Gn3  v032
 BYTE   W08
 BYTE   N04  Gs3  v112
 BYTE   W06
 BYTE   N03  Gs3  v044
 BYTE   W04
 BYTE   Gs3  v040
 BYTE   W20
Label_0102CB36:
 BYTE   N04  Gn3  v104
 BYTE   W06
 BYTE   N03  Gn3  v040
 BYTE   W04
 BYTE   Gn3  v032
 BYTE   W08
 BYTE   N04  Fn3  v112
 BYTE   W06
 BYTE   N03  Fn3  v044
 BYTE   W04
 BYTE   Fn3  v040
 BYTE   W20
//  #06 //014   ----------------------------------------
 BYTE   N04  Gn3  v104
 BYTE   W06
 BYTE   N03  Gn3  v040
 BYTE   W04
 BYTE   Gn3  v032
 BYTE   W08
 BYTE   N04  Gs3  v112
 BYTE   W06
 BYTE   N03  Gs3  v044
 BYTE   W04
 BYTE   Gs3  v040
 BYTE   W20
 BYTE   PEND 
//  #06 //015   ----------------------------------------
 BYTE   PATT
  POIN2 Label_0102CB36
//  #06 //016   ----------------------------------------
 BYTE   PATT
  POIN2 Label_0102CB36
//  #06 //017   ----------------------------------------
 BYTE   N04  Gn3  v104
 BYTE   W06
 BYTE   N03  Gn3  v040
 BYTE   W04
 BYTE   Gn3  v032
 BYTE   W08
 BYTE   N04  Fn3  v112
 BYTE   W06
 BYTE   N03  Fn3  v044
 BYTE   W04
 BYTE   Fn3  v040
 BYTE   W21
 BYTE   VOICE   49
 BYTE   VOL   46*song26_mvl/mxv
 BYTE   PAN   c_v-14
 BYTE   N17  Ds4  v104
 BYTE   W18
 BYTE   N05  Dn4
 BYTE   W06
 BYTE   N17  Fn4
 BYTE   W18
 BYTE   N05  Ds4
 BYTE   W05
//  #06 //018   ----------------------------------------
 BYTE   PATT
  POIN2 Label_0102C9F9
//  #06 //019   ----------------------------------------
 BYTE   W01
 BYTE   N17  Gn4  v104
 BYTE   W18
 BYTE   N05  Fn4
 BYTE   W06
 BYTE   Gs4
 BYTE   W06
 BYTE   As4
 BYTE   W06
 BYTE   Cn5
 BYTE   W06
 BYTE   N04  Dn5
 BYTE   W05
 BYTE   VOICE   109
 BYTE   VOL   63*song26_mvl/mxv
 BYTE   PAN   c_v+25
 BYTE   N04  Gn4
 BYTE   W06
 BYTE   N03  Gn4  v040
 BYTE   W04
 BYTE   Gn4  v032
 BYTE   W08
 BYTE   N04  Gs4  v112
 BYTE   W06
 BYTE   N03  Gs4  v044
 BYTE   W04
 BYTE   Gs4  v040
 BYTE   W20
//  #06 //020   ----------------------------------------
Label_0102CBC7:
 BYTE   N04  Gn4  v104
 BYTE   W06
 BYTE   N03  Gn4  v040
 BYTE   W04
 BYTE   Gn4  v032
 BYTE   W08
 BYTE   N04  Fn4  v112
 BYTE   W06
 BYTE   N03  Fn4  v044
 BYTE   W04
 BYTE   Fn4  v040
 BYTE   W20
 BYTE   N04  Gn4  v104
 BYTE   W06
 BYTE   N03  Gn4  v040
 BYTE   W04
 BYTE   Gn4  v032
 BYTE   W08
 BYTE   N04  Gs4  v112
 BYTE   W06
 BYTE   N03  Gs4  v044
 BYTE   W04
 BYTE   Gs4  v040
 BYTE   W20
 BYTE   PEND 
//  #06 //021   ----------------------------------------
 BYTE   PATT
  POIN2 Label_0102CBC7
//  #06 //022   ----------------------------------------
 BYTE   PATT
  POIN2 Label_0102CBC7
//  #06 //023   ----------------------------------------
 BYTE   N04  Gn4  v104
 BYTE   W06
 BYTE   N03  Gn4  v040
 BYTE   W04
 BYTE   Gn4  v032
 BYTE   W08
 BYTE   N04  Fn4  v112
 BYTE   W06
 BYTE   N03  Fn4  v044
 BYTE   W04
 BYTE   Fn4  v040
 BYTE   W20
 BYTE   VOL   30*song26_mvl/mxv
 BYTE   N44  Cn4  v112
 BYTE   W01
 BYTE   VOL   30*song26_mvl/mxv
 BYTE   W01
 BYTE   VOL   41*song26_mvl/mxv
 BYTE   W02
 BYTE   VOL   42*song26_mvl/mxv
 BYTE   W01
 BYTE   VOL   42*song26_mvl/mxv
 BYTE   W02
 BYTE   VOL   43*song26_mvl/mxv
 BYTE   W01
 BYTE   VOL   44*song26_mvl/mxv
 BYTE   W02
 BYTE   VOL   44*song26_mvl/mxv
 BYTE   W01
 BYTE   VOL   45*song26_mvl/mxv
 BYTE   W02
 BYTE   VOL   46*song26_mvl/mxv
 BYTE   W01
 BYTE   VOL   46*song26_mvl/mxv
 BYTE   W02
 BYTE   VOL   47*song26_mvl/mxv
 BYTE   W01
 BYTE   VOL   48*song26_mvl/mxv
 BYTE   W01
 BYTE   VOL   48*song26_mvl/mxv
 BYTE   W02
 BYTE   VOL   49*song26_mvl/mxv
 BYTE   W01
 BYTE   VOL   50*song26_mvl/mxv
 BYTE   W02
 BYTE   VOL   50*song26_mvl/mxv
 BYTE   W01
 BYTE   VOL   51*song26_mvl/mxv
 BYTE   W02
 BYTE   VOL   52*song26_mvl/mxv
 BYTE   W01
 BYTE   VOL   52*song26_mvl/mxv
 BYTE   W02
 BYTE   VOL   53*song26_mvl/mxv
 BYTE   W01
 BYTE   VOL   54*song26_mvl/mxv
 BYTE   W02
 BYTE   VOL   54*song26_mvl/mxv
 BYTE   W01
 BYTE   VOL   55*song26_mvl/mxv
 BYTE   W02
 BYTE   VOL   56*song26_mvl/mxv
 BYTE   W01
 BYTE   VOL   56*song26_mvl/mxv
 BYTE   W02
 BYTE   VOL   57*song26_mvl/mxv
 BYTE   W01
 BYTE   VOL   58*song26_mvl/mxv
 BYTE   W02
 BYTE   VOL   58*song26_mvl/mxv
 BYTE   W01
 BYTE   VOL   59*song26_mvl/mxv
 BYTE   W02
 BYTE   VOL   60*song26_mvl/mxv
 BYTE   W01
 BYTE   VOL   60*song26_mvl/mxv
 BYTE   W02
 BYTE   VOL   61*song26_mvl/mxv
 BYTE   W01
//  #06 //024   ----------------------------------------
 BYTE   VOL   62*song26_mvl/mxv
 BYTE   N44  Bn3
 BYTE   W01
 BYTE   VOL   52*song26_mvl/mxv
 BYTE   W02
 BYTE   VOL   63*song26_mvl/mxv
 BYTE   W01
 BYTE   VOL   64*song26_mvl/mxv
 BYTE   W02
 BYTE   VOL   64*song26_mvl/mxv
 BYTE   W01
 BYTE   VOL   65*song26_mvl/mxv
 BYTE   W02
 BYTE   VOL   66*song26_mvl/mxv
 BYTE   W01
 BYTE   VOL   66*song26_mvl/mxv
 BYTE   W02
 BYTE   VOL   67*song26_mvl/mxv
 BYTE   W01
 BYTE   VOL   68*song26_mvl/mxv
 BYTE   W02
 BYTE   VOL   68*song26_mvl/mxv
 BYTE   W01
 BYTE   VOL   69*song26_mvl/mxv
 BYTE   W02
 BYTE   VOL   70*song26_mvl/mxv
 BYTE   W01
 BYTE   VOL   70*song26_mvl/mxv
 BYTE   W02
 BYTE   VOL   71*song26_mvl/mxv
 BYTE   W01
 BYTE   VOL   72*song26_mvl/mxv
 BYTE   W02
 BYTE   VOL   72*song26_mvl/mxv
 BYTE   W01
 BYTE   VOL   73*song26_mvl/mxv
 BYTE   W02
 BYTE   VOL   74*song26_mvl/mxv
 BYTE   W01
 BYTE   VOL   74*song26_mvl/mxv
 BYTE   W02
 BYTE   VOL   75*song26_mvl/mxv
 BYTE   W01
 BYTE   VOL   76*song26_mvl/mxv
 BYTE   W01
 BYTE   VOL   76*song26_mvl/mxv
 BYTE   W02
 BYTE   VOL   77*song26_mvl/mxv
 BYTE   W01
 BYTE   VOL   78*song26_mvl/mxv
 BYTE   W02
 BYTE   VOL   78*song26_mvl/mxv
 BYTE   W01
 BYTE   VOL   79*song26_mvl/mxv
 BYTE   W02
 BYTE   VOL   80*song26_mvl/mxv
 BYTE   W01
 BYTE   VOL   80*song26_mvl/mxv
 BYTE   W02
 BYTE   VOL   81*song26_mvl/mxv
 BYTE   W01
 BYTE   VOL   82*song26_mvl/mxv
 BYTE   W02
 BYTE   VOL   82*song26_mvl/mxv
 BYTE   W01
 BYTE   VOL   83*song26_mvl/mxv
 BYTE   W01
 BYTE   FINE

//**************** Track 7 (Midi-Chn.6) ****************//

song26_007:
//  #07 //000   ----------------------------------------
 BYTE   KEYSH   song26_key+0
 BYTE   VOICE   19
 BYTE   VOL   56*song26_mvl/mxv
 BYTE   PAN   c_v-25
 BYTE   N05  Gn2  v084
 BYTE   W06
 BYTE   Dn3  v076
 BYTE   W06
 BYTE   Ds3
 BYTE   W06
 BYTE   Cn3  v092
 BYTE   W06
 BYTE   Fn3  v084
 BYTE   W06
 BYTE   En3
 BYTE   W06
 BYTE   Ds3  v100
 BYTE   W06
 BYTE   Gs3  v092
 BYTE   W06
 BYTE   Gn3  v108
 BYTE   W06
 BYTE   Fs3  v100
 BYTE   W06
 BYTE   Bn3
 BYTE   W06
 BYTE   As3  v116
 BYTE   W06
 BYTE   An3  v108
 BYTE   W06
 BYTE   Dn4
 BYTE   W06
 BYTE   Cs4  v124
 BYTE   W06
 BYTE   Cn4  v116
 BYTE   W06
//  #07 //001   ----------------------------------------
 BYTE   N32
 BYTE   W36
 BYTE   N03  Cn4  v044
 BYTE   W04
 BYTE   Cn4  v040
 BYTE   W04
 BYTE   Cn4  v032
 BYTE   W04
Label_0102CCE2:
 BYTE   VOICE   32
 BYTE   VOL   56*song26_mvl/mxv
 BYTE   PAN   c_v+0
 BYTE   N11  Cn4  v104
 BYTE   W18
 BYTE   N05
 BYTE   W30
//  #07 //002   ----------------------------------------
Label_0102CCEE:
 BYTE   N11  Cn4  v104
 BYTE   W18
 BYTE   N05
 BYTE   W30
 BYTE   N11
 BYTE   W18
 BYTE   N05
 BYTE   W30
 BYTE   PEND 
//  #07 //003   ----------------------------------------
 BYTE   PATT
  POIN2 Label_0102CCEE
//  #07 //004   ----------------------------------------
 BYTE   PATT
  POIN2 Label_0102CCEE
//  #07 //005   ----------------------------------------
 BYTE   N11  Cn4  v104
 BYTE   W18
 BYTE   N05
 BYTE   W30
 BYTE   N11  Gs3
 BYTE   W12
 BYTE   N11
 BYTE   W12
 BYTE   N11
 BYTE   W12
 BYTE   N05
 BYTE   W06
 BYTE   Ds3
 BYTE   W06
//  #07 //006   ----------------------------------------
 BYTE   N11  Gs3
 BYTE   W12
 BYTE   N11
 BYTE   W12
 BYTE   N11
 BYTE   W12
 BYTE   N05
 BYTE   W06
 BYTE   Ds3
 BYTE   W06
 BYTE   N11  As3
 BYTE   W12
 BYTE   N11
 BYTE   W12
 BYTE   N11
 BYTE   W12
 BYTE   N05
 BYTE   W06
 BYTE   Ds3
 BYTE   W06
//  #07 //007   ----------------------------------------
 BYTE   N11  As3
 BYTE   W12
 BYTE   N11
 BYTE   W12
 BYTE   N11
 BYTE   W12
 BYTE   N02  Gs3
 BYTE   W03
 BYTE   An3
 BYTE   W03
 BYTE   As3
 BYTE   W03
 BYTE   N01  Bn3
 BYTE   W03
 BYTE   N11  Cn4
 BYTE   W18
 BYTE   N05
 BYTE   W30
//  #07 //008   ----------------------------------------
 BYTE   PATT
  POIN2 Label_0102CCEE
//  #07 //009   ----------------------------------------
Label_0102CD45:
 BYTE   N10  Cn4  v104
 BYTE   W18
 BYTE   N05
 BYTE   W18
 BYTE   N10  As3
 BYTE   W12
 BYTE   Gs3
 BYTE   W18
 BYTE   N05
 BYTE   W30
 BYTE   PEND 
//  #07 //010   ----------------------------------------
Label_0102CD53:
 BYTE   N10  Gs3  v104
 BYTE   W18
 BYTE   N05
 BYTE   W18
 BYTE   N02
 BYTE   W03
 BYTE   As3
 BYTE   W03
 BYTE   Gs3
 BYTE   W03
 BYTE   Gn3
 BYTE   W03
 BYTE   N10  Fn3
 BYTE   W18
 BYTE   N05
 BYTE   W30
 BYTE   PEND 
//  #07 //011   ----------------------------------------
Label_0102CD67:
 BYTE   N10  Fn3  v104
 BYTE   W18
 BYTE   N05
 BYTE   W18
 BYTE   N02
 BYTE   W03
 BYTE   Ds3
 BYTE   W03
 BYTE   Fn3
 BYTE   W03
 BYTE   Fs3
 BYTE   W03
 BYTE   N10  Gn3
 BYTE   W18
 BYTE   N05
 BYTE   W30
 BYTE   PEND 
//  #07 //012   ----------------------------------------
Label_0102CD7B:
 BYTE   N10  Gn3  v104
 BYTE   W12
 BYTE   N10
 BYTE   W12
 BYTE   N10
 BYTE   W12
 BYTE   N10
 BYTE   W12
 BYTE   PEND 
 BYTE   GoTo
  POIN2 Label_0102CCE2
//  #07 //013   ----------------------------------------
 BYTE   N11  Cn4  v104
 BYTE   W18
 BYTE   N05
 BYTE   W30
//  #07 //014   ----------------------------------------
 BYTE   PATT
  POIN2 Label_0102CCEE
//  #07 //015   ----------------------------------------
 BYTE   PATT
  POIN2 Label_0102CCEE
//  #07 //016   ----------------------------------------
 BYTE   PATT
  POIN2 Label_0102CCEE
//  #07 //017   ----------------------------------------
 BYTE   N11  Cn4  v104
 BYTE   W18
 BYTE   N05
 BYTE   W30
 BYTE   W01
 BYTE   N11  Gs3
 BYTE   W12
 BYTE   N11
 BYTE   W12
 BYTE   N11
 BYTE   W12
 BYTE   N05
 BYTE   W06
 BYTE   Ds3
 BYTE   W05
//  #07 //018   ----------------------------------------
 BYTE   W01
 BYTE   N11  Gs3
 BYTE   W12
 BYTE   N11
 BYTE   W12
 BYTE   N11
 BYTE   W12
 BYTE   N05
 BYTE   W06
 BYTE   Ds3
 BYTE   W06
 BYTE   N11  As3
 BYTE   W12
 BYTE   N11
 BYTE   W12
 BYTE   N11
 BYTE   W12
 BYTE   N05
 BYTE   W06
 BYTE   Ds3
 BYTE   W05
//  #07 //019   ----------------------------------------
 BYTE   W01
 BYTE   N11  As3
 BYTE   W12
 BYTE   N11
 BYTE   W12
 BYTE   N11
 BYTE   W12
 BYTE   N02  Gs3
 BYTE   W03
 BYTE   An3
 BYTE   W03
 BYTE   As3
 BYTE   W03
 BYTE   N01  Bn3
 BYTE   W02
 BYTE   N11  Cn4
 BYTE   W18
 BYTE   N05
 BYTE   W30
//  #07 //020   ----------------------------------------
 BYTE   PATT
  POIN2 Label_0102CCEE
//  #07 //021   ----------------------------------------
 BYTE   PATT
  POIN2 Label_0102CD45
//  #07 //022   ----------------------------------------
 BYTE   PATT
  POIN2 Label_0102CD53
//  #07 //023   ----------------------------------------
 BYTE   PATT
  POIN2 Label_0102CD67
//  #07 //024   ----------------------------------------
 BYTE   PATT
  POIN2 Label_0102CD7B
 BYTE   FINE

//**************** Track 8 (Midi-Chn.7) ****************//

song26_008:
//  #08 //000   ----------------------------------------
 BYTE   VOL   75*song26_mvl/mxv
 BYTE   KEYSH   song26_key+0
 BYTE   VOICE   116
 BYTE   N05  Cs0  v084
 BYTE   W06
 BYTE   Cs0  v076
 BYTE   W06
 BYTE   N05
 BYTE   W06
 BYTE   Cs0  v092
 BYTE   W06
 BYTE   Cs0  v084
 BYTE   W06
 BYTE   N05
 BYTE   W06
 BYTE   Cs0  v100
 BYTE   W06
 BYTE   Cs0  v092
 BYTE   W06
 BYTE   Cs0  v108
 BYTE   W06
 BYTE   Cs0  v100
 BYTE   W06
 BYTE   N05
 BYTE   W06
 BYTE   Cs0  v116
 BYTE   W06
 BYTE   Cs0  v108
 BYTE   W06
 BYTE   N05
 BYTE   W06
 BYTE   Cs0  v124
 BYTE   W06
 BYTE   Cs0  v116
 BYTE   W06
//  #08 //001   ----------------------------------------
 BYTE   W36
 BYTE   N10  Cs0  v127
 BYTE   W12
Label_0102CE32:
 BYTE   N17  Cs0  v108
 BYTE   W18
 BYTE   Cs0  v120
 BYTE   W18
 BYTE   N02  Dn0  v096
 BYTE   W03
 BYTE   Dn0  v080
 BYTE   W03
 BYTE   Dn0  v072
 BYTE   W03
 BYTE   N01  Dn0  v068
 BYTE   W03
//  #08 //002   ----------------------------------------
Label_0102CE47:
 BYTE   N17  Cs0  v108
 BYTE   W18
 BYTE   Cs0  v120
 BYTE   W18
 BYTE   N02  Dn0  v096
 BYTE   W03
 BYTE   Dn0  v080
 BYTE   W03
 BYTE   Dn0  v072
 BYTE   W03
 BYTE   N01  Dn0  v068
 BYTE   W03
 BYTE   N17  Cs0  v108
 BYTE   W18
 BYTE   Cs0  v120
 BYTE   W18
 BYTE   N02  Dn0  v096
 BYTE   W03
 BYTE   Dn0  v080
 BYTE   W03
 BYTE   Dn0  v072
 BYTE   W03
 BYTE   N01  Dn0  v068
 BYTE   W03
 BYTE   PEND 
//  #08 //003   ----------------------------------------
 BYTE   PATT
  POIN2 Label_0102CE47
//  #08 //004   ----------------------------------------
 BYTE   PATT
  POIN2 Label_0102CE47
//  #08 //005   ----------------------------------------
 BYTE   N11  Dn0  v092
 BYTE   W12
 BYTE   N11
 BYTE   W12
 BYTE   N11
 BYTE   W12
 BYTE   Gs0  v108
 BYTE   W01
 BYTE   N09  An0  v100
 BYTE   W11
 BYTE   N11  Cn0  v104
 BYTE   N11  Dn0  v092
 BYTE   W12
 BYTE   Cs0  v116
 BYTE   N11  Dn0  v084
 BYTE   W12
 BYTE   N08  Cn0  v104
 BYTE   N11  Dn0  v092
 BYTE   W09
 BYTE   N02  Cn0  v104
 BYTE   W03
 BYTE   N11  Cs0  v112
 BYTE   N10  Dn0  v084
 BYTE   W12
//  #08 //006   ----------------------------------------
 BYTE   N11  Cn0  v104
 BYTE   N11  Dn0  v092
 BYTE   W12
 BYTE   Cs0  v112
 BYTE   N11  Dn0  v084
 BYTE   W12
 BYTE   N08  Cn0  v104
 BYTE   N11  Dn0  v092
 BYTE   W09
 BYTE   N02  Cn0  v108
 BYTE   W03
 BYTE   N11  Cs0  v116
 BYTE   N10  Dn0  v084
 BYTE   W12
 BYTE   N11  Cn0  v104
 BYTE   N11  Dn0  v092
 BYTE   W12
 BYTE   Cs0  v112
 BYTE   N11  Dn0  v084
 BYTE   W12
 BYTE   N08  Cn0  v104
 BYTE   N11  Dn0  v092
 BYTE   W09
 BYTE   N02  Cn0  v108
 BYTE   W03
 BYTE   N11  Cs0  v112
 BYTE   N10  Dn0  v084
 BYTE   W12
//  #08 //007   ----------------------------------------
 BYTE   N11  Cn0  v104
 BYTE   N11  Dn0  v092
 BYTE   W12
 BYTE   Cs0  v116
 BYTE   N11  Dn0  v084
 BYTE   W12
 BYTE   N08  Cn0  v104
 BYTE   N11  Dn0  v092
 BYTE   W09
 BYTE   N02  Cn0  v104
 BYTE   W03
 BYTE   N10  Dn0  v084
 BYTE   N02  En0  v112
 BYTE   W03
 BYTE   Fn0  v092
 BYTE   W03
 BYTE   Fs0
 BYTE   W03
 BYTE   N01  Gn0
 BYTE   W03
 BYTE   N17  Cs0  v108
 BYTE   W18
 BYTE   Cs0  v120
 BYTE   W18
 BYTE   N02  Dn0  v096
 BYTE   W03
 BYTE   Dn0  v080
 BYTE   W03
 BYTE   Dn0  v072
 BYTE   W03
 BYTE   N01  Dn0  v068
 BYTE   W03
//  #08 //008   ----------------------------------------
 BYTE   PATT
  POIN2 Label_0102CE47
//  #08 //009   ----------------------------------------
 BYTE   PATT
  POIN2 Label_0102CE47
//  #08 //010   ----------------------------------------
 BYTE   PATT
  POIN2 Label_0102CE47
//  #08 //011   ----------------------------------------
 BYTE   PATT
  POIN2 Label_0102CE47
//  #08 //012   ----------------------------------------
Label_0102CF38:
 BYTE   N11  Cs0  v116
 BYTE   W12
 BYTE   Cn0  v104
 BYTE   W12
 BYTE   N11
 BYTE   W12
 BYTE   N02  Cs0  v120
 BYTE   W03
 BYTE   Cs0  v104
 BYTE   W03
 BYTE   Cs0  v100
 BYTE   W03
 BYTE   Cs0  v096
 BYTE   W03
 BYTE   PEND 
 BYTE   GoTo
  POIN2 Label_0102CE32
//  #08 //013   ----------------------------------------
 BYTE   N17  Cs0  v108
 BYTE   W18
 BYTE   Cs0  v120
 BYTE   W19
 BYTE   N02  Dn0  v096
 BYTE   W03
 BYTE   Dn0  v080
 BYTE   W03
 BYTE   Dn0  v072
 BYTE   W03
 BYTE   N01  Dn0  v068
 BYTE   W02
Label_0102CF69:
 BYTE   N17  Cs0  v108
 BYTE   W18
 BYTE   Cs0  v120
 BYTE   W19
 BYTE   N02  Dn0  v096
 BYTE   W03
 BYTE   Dn0  v080
 BYTE   W03
 BYTE   Dn0  v072
 BYTE   W03
 BYTE   N01  Dn0  v068
 BYTE   W02
//  #08 //014   ----------------------------------------
 BYTE   N17  Cs0  v108
 BYTE   W18
 BYTE   Cs0  v120
 BYTE   W19
 BYTE   N02  Dn0  v096
 BYTE   W03
 BYTE   Dn0  v080
 BYTE   W03
 BYTE   Dn0  v072
 BYTE   W03
 BYTE   N01  Dn0  v068
 BYTE   W02
 BYTE   PEND 
//  #08 //015   ----------------------------------------
 BYTE   PATT
  POIN2 Label_0102CF69
//  #08 //016   ----------------------------------------
 BYTE   PATT
  POIN2 Label_0102CF69
//  #08 //017   ----------------------------------------
 BYTE   W01
 BYTE   N11  Dn0  v092
 BYTE   W12
 BYTE   N11
 BYTE   W12
 BYTE   N11
 BYTE   W12
 BYTE   Gs0  v108
 BYTE   W01
 BYTE   N09  An0  v100
 BYTE   W11
 BYTE   N11  Cn0  v104
 BYTE   N11  Dn0  v092
 BYTE   W12
 BYTE   Cs0  v116
 BYTE   N11  Dn0  v084
 BYTE   W12
 BYTE   N08  Cn0  v104
 BYTE   N11  Dn0  v092
 BYTE   W09
 BYTE   N02  Cn0  v104
 BYTE   W03
 BYTE   N11  Cs0  v112
 BYTE   N10  Dn0  v084
 BYTE   W11
//  #08 //018   ----------------------------------------
 BYTE   W01
 BYTE   N11  Cn0  v104
 BYTE   N11  Dn0  v092
 BYTE   W12
 BYTE   Cs0  v112
 BYTE   N11  Dn0  v084
 BYTE   W12
 BYTE   N08  Cn0  v104
 BYTE   N11  Dn0  v092
 BYTE   W09
 BYTE   N02  Cn0  v108
 BYTE   W03
 BYTE   N11  Cs0  v116
 BYTE   N10  Dn0  v084
 BYTE   W12
 BYTE   N11  Cn0  v104
 BYTE   N11  Dn0  v092
 BYTE   W12
 BYTE   Cs0  v112
 BYTE   N11  Dn0  v084
 BYTE   W12
 BYTE   N08  Cn0  v104
 BYTE   N11  Dn0  v092
 BYTE   W09
 BYTE   N02  Cn0  v108
 BYTE   W03
 BYTE   N11  Cs0  v112
 BYTE   N10  Dn0  v084
 BYTE   W11
//  #08 //019   ----------------------------------------
 BYTE   W01
 BYTE   N11  Cn0  v104
 BYTE   N11  Dn0  v092
 BYTE   W12
 BYTE   Cs0  v116
 BYTE   N11  Dn0  v084
 BYTE   W12
 BYTE   N08  Cn0  v104
 BYTE   N11  Dn0  v092
 BYTE   W09
 BYTE   N02  Cn0  v104
 BYTE   W03
 BYTE   N10  Dn0  v084
 BYTE   N02  En0  v112
 BYTE   W03
 BYTE   Fn0  v092
 BYTE   W03
 BYTE   Fs0
 BYTE   W03
 BYTE   N01  Gn0
 BYTE   W02
 BYTE   N17  Cs0  v108
 BYTE   W18
 BYTE   Cs0  v120
 BYTE   W19
 BYTE   N02  Dn0  v096
 BYTE   W03
 BYTE   Dn0  v080
 BYTE   W03
 BYTE   Dn0  v072
 BYTE   W03
 BYTE   N01  Dn0  v068
 BYTE   W02
//  #08 //020   ----------------------------------------
 BYTE   PATT
  POIN2 Label_0102CF69
//  #08 //021   ----------------------------------------
 BYTE   PATT
  POIN2 Label_0102CF69
//  #08 //022   ----------------------------------------
 BYTE   PATT
  POIN2 Label_0102CF69
//  #08 //023   ----------------------------------------
 BYTE   PATT
  POIN2 Label_0102CF69
//  #08 //024   ----------------------------------------
 BYTE   PATT
  POIN2 Label_0102CF38
 BYTE   FINE

//******************************************************//
	ALIGN 4

song26:
	BYTE	8	// NumTrks
	BYTE	0	// NumBlks
	BYTE	song26_pri	// Priority
	BYTE	song26_rev	// Reverb.
    
	POIN2	song26_grp
    
	POIN2	song26_001
	POIN2	song26_002
	POIN2	song26_003
	POIN2	song26_004
	POIN2	song26_005
	POIN2	song26_006
	POIN2	song26_007
	POIN2	song26_008

	
