//Event file generated from Sappy .s format.
	#include "MPlayDef.event"

	#define	song2C_grp  voicegroup000
	#define	song2C_pri  0
	#define	song2C_rev  0
	#define	song2C_mvl  127
	#define	song2C_key  0
	#define	song2C_tbs  1
	#define	song2C_exg  0
	#define	song2C_cmp  1

	// .rodata
	//	song2C
	ALIGN 4


//**************** Track 1 (Midi-Chn.0) ****************//

song2C_001:
// 000   ----------------------------------------
 BYTE   KEYSH   song2C_key+0
 BYTE   TEMPO   56*song2C_tbs/2
 BYTE   W96
// 001   ----------------------------------------
 BYTE   W30
 BYTE   VOL   23*song2C_mvl/mxv
 BYTE   W01
 BYTE   Cn0
 BYTE   W01
 BYTE   Cn0
 BYTE   W02
 BYTE   Cs0
 BYTE   W02
 BYTE   Dn0
 BYTE   W01
 BYTE   Dn0
 BYTE   W02
 BYTE   Ds0
 BYTE   W01
 BYTE   En0
 BYTE   W02
 BYTE   En0
 BYTE   W02
 BYTE   Fn0
 BYTE   W01
 BYTE   Fs0
 BYTE   W02
 BYTE   Fs0
 BYTE   W01
 BYTE   Gn0
 BYTE   W02
 BYTE   Gs0
 BYTE   W02
 BYTE   Gs0
 BYTE   W01
 BYTE   An0
 BYTE   W02
 BYTE   As0
 BYTE   W01
 BYTE   As0
 BYTE   W02
 BYTE   Bn0
 BYTE   W02
 BYTE   Cn1
 BYTE   W01
 BYTE   Cn1
 BYTE   W02
 BYTE   Cs1
 BYTE   W01
 BYTE   Dn1
 BYTE   W02
 BYTE   Dn1
 BYTE   W02
 BYTE   Ds1
 BYTE   W01
 BYTE   En1
 BYTE   W02
 BYTE   En1
 BYTE   W01
 BYTE   Fn1
 BYTE   W02
 BYTE   Fs1
 BYTE   W02
 BYTE   Fs1
 BYTE   W01
 BYTE   Gn1
 BYTE   W01
 BYTE   Gs1
 BYTE   W01
 BYTE   An1
 BYTE   W01
 BYTE   As1
 BYTE   W01
 BYTE   Cn2
 BYTE   W01
 BYTE   Cn2
 BYTE   W01
 BYTE   Dn2
 BYTE   W01
 BYTE   Ds2
 BYTE   W01
 BYTE   En2
 BYTE   W01
 BYTE   Fs2
 BYTE   W01
 BYTE   Gn2
 BYTE   W01
 BYTE   Gs2
 BYTE   W01
 BYTE   As2
 BYTE   W01
 BYTE   As2
 BYTE   W01
 BYTE   Cn3
 BYTE   W01
 BYTE   Cs3
 BYTE   W01
 BYTE   Dn3
 BYTE   W01
 BYTE   En3
 BYTE   W01
 BYTE   Fn3
 BYTE   W01
// 002   ----------------------------------------
 BYTE   Fs3
 BYTE   W01
 BYTE   Gs3
 BYTE   W01
 BYTE   Gs3
 BYTE   W01
 BYTE   As3
 BYTE   W01
 BYTE   Bn3
 BYTE   W01
 BYTE   Cn4
 BYTE   W01
 BYTE   Cs4
 BYTE   W06
 BYTE   VOICE   61
 BYTE   VOL   76*song2C_mvl/mxv
 BYTE   PAN   c_v+14
 BYTE   N11  Gs3  v108
 BYTE   W12
 BYTE   Gs3  v104
 BYTE   W12
 BYTE   N11
 BYTE   W12
 BYTE   N11
 BYTE   W12
 BYTE   As3  v108
 BYTE   W12
 BYTE   As3  v104
 BYTE   W12
 BYTE   N11
 BYTE   W12
// 003   ----------------------------------------
Label_0_0142A350:
 BYTE   N11  As3  v104
 BYTE   W12
 BYTE   Gs3  v108
 BYTE   W12
 BYTE   Gs3  v104
 BYTE   W12
 BYTE   N11
 BYTE   W12
 BYTE   N11
 BYTE   W12
 BYTE   As3  v108
 BYTE   W12
 BYTE   As3  v104
 BYTE   W12
 BYTE   N11
 BYTE   W12
 BYTE   PEND 
 BYTE   PATT
  POIN2 Label_0_0142A350
// 004   ----------------------------------------
Label_0_0142A36C:
 BYTE   N11  As3  v104
 BYTE   W12
 BYTE   Cn4  v108
 BYTE   W12
 BYTE   Cn4  v104
 BYTE   W12
 BYTE   N11
 BYTE   W12
 BYTE   N11
 BYTE   W12
 BYTE   Ds4  v108
 BYTE   W12
 BYTE   Ds4  v104
 BYTE   W12
 BYTE   N11
 BYTE   W12
 BYTE   PEND 
// 005   ----------------------------------------
Label_0_0142A383:
 BYTE   N11  Ds4  v104
 BYTE   W12
 BYTE   Gs3  v108
 BYTE   W12
 BYTE   Gs3  v104
 BYTE   W12
 BYTE   N11
 BYTE   W12
 BYTE   N11
 BYTE   W12
 BYTE   As3  v108
 BYTE   W12
 BYTE   As3  v104
 BYTE   W12
 BYTE   N11
 BYTE   W12
 BYTE   PEND 
 BYTE   PATT
  POIN2 Label_0_0142A350
 BYTE   PATT
  POIN2 Label_0_0142A350
 BYTE   PATT
  POIN2 Label_0_0142A36C
 BYTE   PATT
  POIN2 Label_0_0142A383
 BYTE   PATT
  POIN2 Label_0_0142A350
 BYTE   PATT
  POIN2 Label_0_0142A350
 BYTE   PATT
  POIN2 Label_0_0142A36C
// 006   ----------------------------------------
 BYTE   N05  Ds4  v104
 BYTE   W06
 BYTE   TIE  Ds4  v108
 BYTE   W90
// 007   ----------------------------------------
 BYTE   W06
 BYTE   TEMPO   64*song2C_tbs/2
 BYTE   W44
 BYTE   W03
 BYTE   EOT
 BYTE   W42
 BYTE   W01
// 008   ----------------------------------------
 BYTE   W07
 BYTE   TEMPO   64*song2C_tbs/2
 BYTE   VOL   85*song2C_mvl/mxv
 BYTE   W88
 BYTE   W01
// 009   ----------------------------------------
 BYTE   W96
// 010   ----------------------------------------
 BYTE   W07
 BYTE   VOICE   61
 BYTE   VOL   73*song2C_mvl/mxv
 BYTE   PAN   c_v+14
 BYTE   N03  Fn2
 BYTE   W04
 BYTE   An2  v096
 BYTE   W04
 BYTE   Cn3
 BYTE   W04
 BYTE   N11  Fn3  v104
 BYTE   W12
 BYTE   Ds3
 BYTE   W12
 BYTE   N07  As2
 BYTE   W09
 BYTE   N02  Dn3
 BYTE   W03
 BYTE   N44  Cn3
 BYTE   W40
 BYTE   W01
// 011   ----------------------------------------
Label_0_0142A3F4:
 BYTE   W07
 BYTE   N03  Fn2  v108
 BYTE   W04
 BYTE   An2  v096
 BYTE   W04
 BYTE   Cn3
 BYTE   W04
 BYTE   N11  Fn3  v104
 BYTE   W12
 BYTE   Ds3
 BYTE   W12
 BYTE   N03  Gn3
 BYTE   W04
 BYTE   Ds3  v096
 BYTE   W04
 BYTE   Gn3
 BYTE   W04
 BYTE   N44  Fn3  v108
 BYTE   W40
 BYTE   W01
 BYTE   PEND 
// 012   ----------------------------------------
 BYTE   W07
 BYTE   N03  Fn2
 BYTE   W04
 BYTE   An2  v096
 BYTE   W04
 BYTE   Cn3
 BYTE   W04
 BYTE   N11  Fn3  v104
 BYTE   W12
 BYTE   Ds3
 BYTE   W12
 BYTE   N07  As2
 BYTE   W09
 BYTE   N02  Dn3
 BYTE   W03
 BYTE   N44  Cn3
 BYTE   W40
 BYTE   W01
 BYTE   PATT
  POIN2 Label_0_0142A3F4
// 013   ----------------------------------------
 BYTE   W07
 BYTE   N03  Cn4  v104
 BYTE   W06
 BYTE   N02  Fn3  v092
 BYTE   W03
 BYTE   N02
 BYTE   W03
 BYTE   N04
 BYTE   W06
 BYTE   N03  Cn4  v104
 BYTE   W06
 BYTE   N02  Fn3  v092
 BYTE   W03
 BYTE   N02
 BYTE   W03
 BYTE   N04
 BYTE   W06
 BYTE   N03  Cn4  v104
 BYTE   W06
 BYTE   Fn3  v092
 BYTE   W06
 BYTE   Cn4  v104
 BYTE   W06
 BYTE   N02  Fn3  v092
 BYTE   W03
 BYTE   N02
 BYTE   W03
 BYTE   N04
 BYTE   W06
 BYTE   N03  Cn4  v104
 BYTE   W06
 BYTE   N02  Fn3  v092
 BYTE   W03
 BYTE   N02
 BYTE   W03
 BYTE   N04
 BYTE   W06
 BYTE   N03  Cn4  v104
 BYTE   W05
// 014   ----------------------------------------
 BYTE   W01
 BYTE   Fn4  v092
 BYTE   W06
 BYTE   Fn4  v104
 BYTE   W06
 BYTE   N02  As3  v092
 BYTE   W03
 BYTE   N02
 BYTE   W03
 BYTE   N04
 BYTE   W06
 BYTE   N03  Fn4  v104
 BYTE   W06
 BYTE   N02  As3  v092
 BYTE   W03
 BYTE   N02
 BYTE   W03
 BYTE   N04
 BYTE   W06
 BYTE   N03  Fn4  v104
 BYTE   W06
 BYTE   As3  v092
 BYTE   W06
 BYTE   Fn4  v104
 BYTE   W06
 BYTE   N02  As3  v092
 BYTE   W03
 BYTE   N02
 BYTE   W03
 BYTE   N04
 BYTE   W06
 BYTE   N03  Fn4  v104
 BYTE   W06
 BYTE   N02  As3  v092
 BYTE   W03
 BYTE   N02
 BYTE   W03
 BYTE   N04
 BYTE   W06
 BYTE   N03  Fn4  v104
 BYTE   W05
// 015   ----------------------------------------
 BYTE   W01
 BYTE   As3  v092
 BYTE   W06
 BYTE   N23  Fn4  v100
 BYTE   W24
 BYTE   N03  Fn3  v108
 BYTE   W04
 BYTE   Gn3  v096
 BYTE   W04
 BYTE   An3
 BYTE   W04
 BYTE   N11  As3  v104
 BYTE   W12
 BYTE   Cn4
 BYTE   W12
 BYTE   Fn4
 BYTE   W12
 BYTE   Gn4
 BYTE   W12
 BYTE   N07  Ds4
 BYTE   W05
// 016   ----------------------------------------
Label_0_0142A4C6:
 BYTE   W04
 BYTE   N02  Fn4  v104
 BYTE   W03
 BYTE   N23  Cn4
 BYTE   W24
 BYTE   N03  As3  v108
 BYTE   W04
 BYTE   An3  v096
 BYTE   W04
 BYTE   Gn3
 BYTE   W04
 BYTE   N11  As3  v104
 BYTE   W12
 BYTE   An3
 BYTE   W12
 BYTE   N03  An3  v108
 BYTE   W04
 BYTE   Gn3  v096
 BYTE   W04
 BYTE   Fn3
 BYTE   W04
 BYTE   N11  Cn3  v104
 BYTE   W12
 BYTE   Gn3
 BYTE   W05
 BYTE   PEND 
// 017   ----------------------------------------
 BYTE   W07
 BYTE   N23  Fn3
 BYTE   W24
 BYTE   N03  Fn3  v108
 BYTE   W04
 BYTE   Gn3  v096
 BYTE   W04
 BYTE   An3
 BYTE   W04
 BYTE   N11  As3  v104
 BYTE   W12
 BYTE   Cn4
 BYTE   W12
 BYTE   Fn4
 BYTE   W12
 BYTE   Gn4
 BYTE   W12
 BYTE   N07  Ds4
 BYTE   W05
 BYTE   PATT
  POIN2 Label_0_0142A4C6
// 018   ----------------------------------------
 BYTE   W07
 BYTE   VOL   78*song2C_mvl/mxv
 BYTE   N06  Fs3  v108
 BYTE   W07
 BYTE   N04  Fs3  v040
 BYTE   W05
 BYTE   N02  Fs3  v104
 BYTE   W04
 BYTE   Fs3  v092
 BYTE   W04
 BYTE   N02
 BYTE   W04
 BYTE   N06  Gn3  v112
 BYTE   W07
 BYTE   N04  Gn3  v040
 BYTE   W05
 BYTE   N02  Gn3  v108
 BYTE   W04
 BYTE   Gn3  v096
 BYTE   W04
 BYTE   N02
 BYTE   W04
 BYTE   N04  An3  v116
 BYTE   W05
 BYTE   N02  An3  v044
 BYTE   W04
 BYTE   N01  An3  v100
 BYTE   W03
 BYTE   N02  An3  v112
 BYTE   W04
 BYTE   An3  v100
 BYTE   W04
 BYTE   N02
 BYTE   W04
 BYTE   N11  Dn4
 BYTE   W12
 BYTE   An3  v108
 BYTE   W05
// 019   ----------------------------------------
 BYTE   W07
 BYTE   N03  Cn4  v112
 BYTE   W04
 BYTE   As3  v100
 BYTE   W04
 BYTE   An3
 BYTE   W04
 BYTE   N11  As3  v104
 BYTE   W12
 BYTE   As2
 BYTE   W12
 BYTE   As3
 BYTE   W12
 BYTE   N03  As3  v112
 BYTE   W04
 BYTE   An3  v096
 BYTE   W04
 BYTE   Gn3
 BYTE   W04
 BYTE   N11  An3  v104
 BYTE   W12
 BYTE   An2
 BYTE   W12
 BYTE   An3
 BYTE   W05
// 020   ----------------------------------------
 BYTE   W07
 BYTE   N03  Gn3  v108
 BYTE   W04
 BYTE   Fn3  v096
 BYTE   W04
 BYTE   Ds3
 BYTE   W04
 BYTE   N11  Fn3  v104
 BYTE   W12
 BYTE   Cn3
 BYTE   W12
 BYTE   As3
 BYTE   W12
 BYTE   Fs3
 BYTE   W12
 BYTE   N03  Fs3  v108
 BYTE   W04
 BYTE   Fn3  v096
 BYTE   W04
 BYTE   Ds3
 BYTE   W04
 BYTE   N10  Fn3  v104
 BYTE   W12
 BYTE   As2
 BYTE   W05
// 021   ----------------------------------------
 BYTE   W07
 BYTE   N44  Cn3  v096
 BYTE   W48
 BYTE   Fn3  v104
 BYTE   W40
 BYTE   W01
// 022   ----------------------------------------
 BYTE   W07
 BYTE   TEMPO   64*song2C_tbs/2
 BYTE   VOICE   61
 BYTE   VOL   66*song2C_mvl/mxv
 BYTE   PAN   c_v+14
 BYTE   W12
 BYTE   N11  Gn3  v096
 BYTE   W12
 BYTE   N32  Dn4  v108
 BYTE   W36
 BYTE   N11  Fn4  v104
 BYTE   W12
 BYTE   En4
 BYTE   W12
 BYTE   Cn4
 BYTE   W05
// 023   ----------------------------------------
 BYTE   W07
 BYTE   N23  Dn4
 BYTE   W24
 BYTE   N32  Gn3
 BYTE   W36
 BYTE   N11
 BYTE   W12
 BYTE   Fn3
 BYTE   W12
 BYTE   An3
 BYTE   W05
// 024   ----------------------------------------
 BYTE   W07
 BYTE   N23  Gn3
 BYTE   W24
 BYTE   N32  Fn3
 BYTE   W36
 BYTE   N11  Gn3
 BYTE   W12
 BYTE   Cn4
 BYTE   W12
 BYTE   As3
 BYTE   W05
// 025   ----------------------------------------
 BYTE   W07
 BYTE   N23  Gn3
 BYTE   W24
 BYTE   N32  Fn3
 BYTE   W36
 BYTE   N11  Gn3
 BYTE   W12
 BYTE   Cn3
 BYTE   W12
 BYTE   Fn3
 BYTE   W05
// 026   ----------------------------------------
 BYTE   W07
 BYTE   N23  Gn3
 BYTE   W24
 BYTE   N32  Dn3
 BYTE   W36
 BYTE   N11  Fn3
 BYTE   W12
 BYTE   En3
 BYTE   W12
 BYTE   Cn3
 BYTE   W05
// 027   ----------------------------------------
 BYTE   W07
 BYTE   N23  Dn3
 BYTE   W24
 BYTE   Gn3
 BYTE   W24
 BYTE   Dn4
 BYTE   W24
 BYTE   Gn4
 BYTE   W17
// 028   ----------------------------------------
 BYTE   W07
 BYTE   Gn3
 BYTE   W24
 BYTE   Fn3
 BYTE   W24
 BYTE   Cn3
 BYTE   W24
 BYTE   Cn4
 BYTE   W17
// 029   ----------------------------------------
 BYTE   W07
 BYTE   Gn4
 BYTE   W24
 BYTE   Fn4
 BYTE   W24
 BYTE   Cn5
 BYTE   W24
 BYTE   Cn4
 BYTE   W17
// 030   ----------------------------------------
 BYTE   W19
 BYTE   N11  Gn3  v096
 BYTE   W12
 BYTE   N32  Dn4  v108
 BYTE   W36
 BYTE   N11  Fn4  v104
 BYTE   W12
 BYTE   En4
 BYTE   W12
 BYTE   Cn4
 BYTE   W05
// 031   ----------------------------------------
 BYTE   W07
 BYTE   N23  Dn4
 BYTE   W01
 BYTE   TEMPO   64*song2C_tbs/2
 BYTE   VOICE   61
 BYTE   VOL   73*song2C_mvl/mxv
 BYTE   PAN   c_v+14
 BYTE   N11  An3
 BYTE   W12
 BYTE   N03  An3  v108
 BYTE   W04
 BYTE   Cn4  v096
 BYTE   W04
 BYTE   Fn4
 BYTE   W04
 BYTE   N23  An4  v104
 BYTE   W24
 BYTE   N11  Gs4
 BYTE   W12
 BYTE   N03  Gs4  v108
 BYTE   W04
 BYTE   As4  v096
 BYTE   W04
 BYTE   Gs4
 BYTE   W04
 BYTE   N11  As4  v104
 BYTE   W12
 BYTE   Gs4  v096
 BYTE   W04
// 032   ----------------------------------------
Label_0_0142A648:
 BYTE   W08
 BYTE   N03  Gn4  v108
 BYTE   W04
 BYTE   Fn4  v096
 BYTE   W04
 BYTE   Ds4
 BYTE   W04
 BYTE   N11  Cs4  v104
 BYTE   W12
 BYTE   Cn4
 BYTE   W12
 BYTE   As3  v096
 BYTE   W12
 BYTE   N23  Cn4  v104
 BYTE   W24
 BYTE   Gn3  v100
 BYTE   W16
 BYTE   PEND 
// 033   ----------------------------------------
 BYTE   W08
 BYTE   N11  An3  v104
 BYTE   W12
 BYTE   N03  An3  v108
 BYTE   W04
 BYTE   Cn4  v096
 BYTE   W04
 BYTE   Fn4
 BYTE   W04
 BYTE   N23  An4  v104
 BYTE   W24
 BYTE   N11  Gs4
 BYTE   W12
 BYTE   N03  Gs4  v108
 BYTE   W04
 BYTE   As4  v096
 BYTE   W04
 BYTE   Cn5
 BYTE   W04
 BYTE   N11  As4  v104
 BYTE   W12
 BYTE   Gs4  v096
 BYTE   W04
 BYTE   PATT
  POIN2 Label_0_0142A648
// 034   ----------------------------------------
 BYTE   W08
 BYTE   N11  Fn3  v104
 BYTE   W12
 BYTE   N03  Fn3  v108
 BYTE   W04
 BYTE   Gs3  v096
 BYTE   W04
 BYTE   Cs4
 BYTE   W04
 BYTE   N23  Fn4  v104
 BYTE   W24
 BYTE   N11  Fn3  v100
 BYTE   W12
 BYTE   N03  Fn3  v104
 BYTE   W04
 BYTE   Gs3  v096
 BYTE   W04
 BYTE   Cs4
 BYTE   W04
 BYTE   N23  Fn4  v100
 BYTE   W16
// 035   ----------------------------------------
 BYTE   W08
 BYTE   N11  Fn3  v104
 BYTE   W12
 BYTE   N03  Fn3  v108
 BYTE   W04
 BYTE   As3  v096
 BYTE   W04
 BYTE   Dn4
 BYTE   W04
 BYTE   N23  Fn4  v104
 BYTE   W24
 BYTE   N11  Fn3  v108
 BYTE   W12
 BYTE   N03  Fn3  v112
 BYTE   W04
 BYTE   As3  v100
 BYTE   W04
 BYTE   En4
 BYTE   W04
 BYTE   N23  Gn4  v108
 BYTE   W16
// 036   ----------------------------------------
 BYTE   W08
 BYTE   TEMPO   64*song2C_tbs/2
 BYTE   VOICE   61
 BYTE   VOL   70*song2C_mvl/mxv
 BYTE   PAN   c_v+14
 BYTE   N23  Gn4  v104
 BYTE   W24
 BYTE   Fn4  v096
 BYTE   W24
 BYTE   Gs4  v108
 BYTE   W24
 BYTE   Ds4  v104
 BYTE   W16
// 037   ----------------------------------------
 BYTE   W08
 BYTE   N23
 BYTE   W24
 BYTE   Cs4  v100
 BYTE   W24
 BYTE   Cn4  v096
 BYTE   W24
 BYTE   Cn4  v100
 BYTE   W16
// 038   ----------------------------------------
 BYTE   W08
 BYTE   Gn4  v104
 BYTE   W24
 BYTE   Fn4  v096
 BYTE   W24
 BYTE   Gs4  v108
 BYTE   W24
 BYTE   Ds4  v104
 BYTE   W16
// 039   ----------------------------------------
 BYTE   W08
 BYTE   N11  Ds4  v108
 BYTE   W12
 BYTE   Cs4  v096
 BYTE   W12
 BYTE   Cs4  v104
 BYTE   W12
 BYTE   Cn4  v096
 BYTE   W12
 BYTE   N23  As3  v104
 BYTE   W24
 BYTE   Gs3  v096
 BYTE   W16
// 040   ----------------------------------------
 BYTE   W08
 BYTE   Gs3  v104
 BYTE   W24
 BYTE   N11  Gn3  v108
 BYTE   W12
 BYTE   Gs3  v096
 BYTE   W12
 BYTE   N44  Cn4  v104
 BYTE   W40
// 041   ----------------------------------------
 BYTE   W08
 BYTE   N23  Gs3  v096
 BYTE   W24
 BYTE   Gn3  v092
 BYTE   W24
 BYTE   VOICE   41
 BYTE   VOL   70*song2C_mvl/mxv
 BYTE   PAN   c_v+14
 BYTE   N02  Gs4  v116
 BYTE   W03
 BYTE   Gs4  v104
 BYTE   W03
 BYTE   N02
 BYTE   W03
 BYTE   Gs4  v052
 BYTE   W03
 BYTE   Gs4  v040
 BYTE   W28
// 042   ----------------------------------------
 BYTE   W14
 BYTE   N04  Fs4  v104
 BYTE   W05
 BYTE   N02  Fs4  v052
 BYTE   W04
 BYTE   Fs4  v040
 BYTE   W03
 BYTE   N04  As4  v104
 BYTE   W05
 BYTE   N02  As4  v052
 BYTE   W04
 BYTE   As4  v040
 BYTE   W03
 BYTE   N04  Cn5  v104
 BYTE   W05
 BYTE   N02  Cn5  v052
 BYTE   W04
 BYTE   Cn5  v040
 BYTE   W03
 BYTE   N04  As4  v104
 BYTE   W06
 BYTE   N02  Gs4  v116
 BYTE   W03
 BYTE   Gs4  v104
 BYTE   W03
 BYTE   N02
 BYTE   W03
 BYTE   Gs4  v052
 BYTE   W03
 BYTE   Gs4  v040
 BYTE   W28
// 043   ----------------------------------------
 BYTE   W14
 BYTE   N04  Fs4  v104
 BYTE   W05
 BYTE   N02  Fs4  v052
 BYTE   W04
 BYTE   Fs4  v040
 BYTE   W03
 BYTE   N04  As4  v104
 BYTE   W05
 BYTE   N02  As4  v052
 BYTE   W04
 BYTE   As4  v040
 BYTE   W03
 BYTE   N04  Cn5  v104
 BYTE   W05
 BYTE   N02  Cn5  v052
 BYTE   W04
 BYTE   Cn5  v040
 BYTE   W03
 BYTE   N04  Gs4  v104
 BYTE   W06
 BYTE   N02  An4  v108
 BYTE   W03
 BYTE   An4  v044
 BYTE   W03
 BYTE   An4  v096
 BYTE   W03
 BYTE   N02
 BYTE   W03
 BYTE   An4  v108
 BYTE   W03
 BYTE   An4  v044
 BYTE   W03
 BYTE   An4  v096
 BYTE   W03
 BYTE   N02
 BYTE   W03
 BYTE   An4  v108
 BYTE   W03
 BYTE   An4  v044
 BYTE   W03
 BYTE   An4  v096
 BYTE   W03
 BYTE   N02
 BYTE   W03
 BYTE   An4  v108
 BYTE   W03
 BYTE   An4  v044
 BYTE   W01
// 044   ----------------------------------------
 BYTE   W02
 BYTE   An4  v096
 BYTE   W03
 BYTE   N02
 BYTE   W03
 BYTE   Gs4  v108
 BYTE   W03
 BYTE   Gs4  v044
 BYTE   W03
 BYTE   Gs4  v096
 BYTE   W03
 BYTE   N02
 BYTE   W03
 BYTE   Gs4  v108
 BYTE   W03
 BYTE   Gs4  v044
 BYTE   W03
 BYTE   Gs4  v096
 BYTE   W03
 BYTE   N02
 BYTE   W03
 BYTE   Gs4  v108
 BYTE   W03
 BYTE   Gs4  v044
 BYTE   W03
 BYTE   Gs4  v096
 BYTE   W03
 BYTE   N02
 BYTE   W03
 BYTE   Gs4  v108
 BYTE   W03
 BYTE   Gs4  v044
 BYTE   W03
 BYTE   Gs4  v096
 BYTE   W03
 BYTE   N02
 BYTE   W04
 BYTE   TEMPO   64*song2C_tbs/2
 BYTE   VOICE   56
 BYTE   VOL   70*song2C_mvl/mxv
 BYTE   PAN   c_v+14
 BYTE   N11  En3  v104
 BYTE   W12
 BYTE   An3
 BYTE   W12
 BYTE   Bn3
 BYTE   W12
 BYTE   Dn4
 BYTE   W03
// 045   ----------------------------------------
Label_0_0142A80A:
 BYTE   W09
 BYTE   N17  Cs4  v104
 BYTE   W18
 BYTE   N02  Bn3  v108
 BYTE   W03
 BYTE   An3  v096
 BYTE   W03
 BYTE   N11  Bn3  v104
 BYTE   W12
 BYTE   Gn3
 BYTE   W12
 BYTE   En3
 BYTE   W12
 BYTE   An3
 BYTE   W12
 BYTE   Bn3
 BYTE   W12
 BYTE   Dn4
 BYTE   W03
 BYTE   PEND 
// 046   ----------------------------------------
Label_0_0142A825:
 BYTE   W09
 BYTE   N44  En4  v104
 BYTE   W48
 BYTE   N17
 BYTE   W18
 BYTE   N02  Dn4  v108
 BYTE   W03
 BYTE   En4  v096
 BYTE   W03
 BYTE   N11  Dn4  v104
 BYTE   W12
 BYTE   Gn4
 BYTE   W03
 BYTE   PEND 
// 047   ----------------------------------------
 BYTE   W09
 BYTE   N17  En4
 BYTE   W18
 BYTE   N02  Dn4  v108
 BYTE   W03
 BYTE   En4  v096
 BYTE   W03
 BYTE   N11  Dn4  v104
 BYTE   W12
 BYTE   Bn3
 BYTE   W12
 BYTE   N17  En4
 BYTE   W18
 BYTE   N02  Dn4  v108
 BYTE   W03
 BYTE   Cn4  v096
 BYTE   W03
 BYTE   N17  Dn4  v104
 BYTE   W15
// 048   ----------------------------------------
 BYTE   W03
 BYTE   N02  Cn4  v108
 BYTE   W03
 BYTE   Bn3  v096
 BYTE   W03
 BYTE   N17  Cn4  v104
 BYTE   W18
 BYTE   N02  Bn3  v108
 BYTE   W03
 BYTE   An3  v096
 BYTE   W03
 BYTE   N17  Bn3  v104
 BYTE   W18
 BYTE   N02  An3  v108
 BYTE   W03
 BYTE   Gn3  v096
 BYTE   W03
 BYTE   N11  En3  v104
 BYTE   W12
 BYTE   An3
 BYTE   W12
 BYTE   Bn3
 BYTE   W12
 BYTE   Dn4
 BYTE   W03
 BYTE   PATT
  POIN2 Label_0_0142A80A
 BYTE   PATT
  POIN2 Label_0_0142A825
// 049   ----------------------------------------
 BYTE   W09
 BYTE   N17  En4  v104
 BYTE   W18
 BYTE   N02  Dn4  v108
 BYTE   W03
 BYTE   En4  v096
 BYTE   W03
 BYTE   N11  Dn4  v104
 BYTE   W12
 BYTE   Bn3
 BYTE   W12
 BYTE   N17  Cn4
 BYTE   W18
 BYTE   N02  Bn3  v108
 BYTE   W03
 BYTE   An3  v096
 BYTE   W03
 BYTE   N17  Cn4  v104
 BYTE   W15
// 050   ----------------------------------------
 BYTE   W03
 BYTE   N02  As3  v108
 BYTE   W03
 BYTE   Gs3  v096
 BYTE   W03
 BYTE   N68  Cn4  v104
 BYTE   W84
 BYTE   W03
// 051   ----------------------------------------
 BYTE   W09
 BYTE   TEMPO   62*song2C_tbs/2
 BYTE   VOICE   67
 BYTE   VOL   76*song2C_mvl/mxv
 BYTE   PAN   c_v+14
 BYTE   N02  Cn3
 BYTE   W03
 BYTE   Gn2  v100
 BYTE   W03
 BYTE   Gn3  v124
 BYTE   W03
 BYTE   Gn2  v088
 BYTE   W03
 BYTE   Fn3  v116
 BYTE   W03
 BYTE   Gn2  v076
 BYTE   W03
 BYTE   Ds3  v112
 BYTE   W03
 BYTE   Gn2  v088
 BYTE   W03
 BYTE   Dn3  v104
 BYTE   W03
 BYTE   Gn2  v084
 BYTE   W03
 BYTE   Cn3  v100
 BYTE   W03
 BYTE   Gn2  v096
 BYTE   W03
 BYTE   Bn2  v092
 BYTE   W03
 BYTE   Gn2  v100
 BYTE   W03
 BYTE   Cn3  v104
 BYTE   W03
 BYTE   Gn2  v096
 BYTE   W03
 BYTE   Cn3  v104
 BYTE   W03
 BYTE   Gn2  v100
 BYTE   W03
 BYTE   Gn3  v124
 BYTE   W03
 BYTE   Gn2  v088
 BYTE   W03
 BYTE   Fn3  v116
 BYTE   W03
 BYTE   Gn2  v076
 BYTE   W03
 BYTE   Ds3  v112
 BYTE   W03
 BYTE   Gn2  v088
 BYTE   W03
 BYTE   Dn3  v104
 BYTE   W03
 BYTE   Gn2  v084
 BYTE   W03
 BYTE   Cn3  v100
 BYTE   W03
 BYTE   Gn2  v096
 BYTE   W03
 BYTE   Bn2  v092
 BYTE   W03
// 052   ----------------------------------------
Label_0_0142A918:
 BYTE   N02  Gn2  v100
 BYTE   W03
 BYTE   Cn3  v104
 BYTE   W03
 BYTE   Gn2  v096
 BYTE   W03
 BYTE   Dn3  v092
 BYTE   W03
 BYTE   Fn2  v088
 BYTE   W03
 BYTE   Cn3  v124
 BYTE   W03
 BYTE   Fn2  v088
 BYTE   W03
 BYTE   Fn3  v116
 BYTE   W03
 BYTE   Fn2  v076
 BYTE   W03
 BYTE   Ds3  v112
 BYTE   W03
 BYTE   Fn2  v088
 BYTE   W03
 BYTE   Dn3  v104
 BYTE   W03
 BYTE   Fn2  v096
 BYTE   W03
 BYTE   Cn3  v100
 BYTE   W03
 BYTE   Fn2  v104
 BYTE   W03
 BYTE   As2  v108
 BYTE   W03
 BYTE   Fn2  v100
 BYTE   W03
 BYTE   Gs2  v112
 BYTE   W03
 BYTE   Fn2  v108
 BYTE   W03
 BYTE   Gs2  v104
 BYTE   W03
 BYTE   Fs2  v092
 BYTE   W03
 BYTE   Gs2  v096
 BYTE   W03
 BYTE   Cs3  v092
 BYTE   W03
 BYTE   Gs2  v104
 BYTE   W03
 BYTE   Fs2  v092
 BYTE   W03
 BYTE   Gs2  v096
 BYTE   W03
 BYTE   Cs3  v092
 BYTE   W03
 BYTE   Gs2  v104
 BYTE   W03
 BYTE   Fs2  v092
 BYTE   W03
 BYTE   Gs2  v096
 BYTE   W03
 BYTE   Cs3  v092
 BYTE   W03
 BYTE   Gs2  v104
 BYTE   W03
 BYTE   PEND 
// 053   ----------------------------------------
Label_0_0142A97A:
 BYTE   N02  Fs2  v092
 BYTE   W03
 BYTE   Gs2  v096
 BYTE   W03
 BYTE   Cs3  v092
 BYTE   W03
 BYTE   Fs2  v104
 BYTE   W04
 BYTE   N01  Fs2  v052
 BYTE   W02
 BYTE   N02  Fs2  v108
 BYTE   W03
 BYTE   Gn2  v092
 BYTE   W03
 BYTE   Gs2  v104
 BYTE   W04
 BYTE   N01  Gs2  v052
 BYTE   W02
 BYTE   N02  Gs2  v108
 BYTE   W03
 BYTE   An2  v092
 BYTE   W03
 BYTE   As2  v104
 BYTE   W04
 BYTE   N01  As2  v052
 BYTE   W02
 BYTE   N02  As2  v108
 BYTE   W03
 BYTE   Bn2  v092
 BYTE   W03
 BYTE   Cn3  v104
 BYTE   W04
 BYTE   N01  Cn3  v052
 BYTE   W02
 BYTE   N02  Cn3  v108
 BYTE   W03
 BYTE   Cs3  v092
 BYTE   W03
 BYTE   Dn3  v104
 BYTE   W04
 BYTE   N01  Dn3  v052
 BYTE   W02
 BYTE   N02  Dn3  v108
 BYTE   W03
 BYTE   Ds3  v092
 BYTE   W03
 BYTE   En3  v104
 BYTE   W04
 BYTE   N01  En3  v052
 BYTE   W02
 BYTE   N02  En3  v108
 BYTE   W03
 BYTE   Fn3  v092
 BYTE   W03
 BYTE   Fs3  v104
 BYTE   W04
 BYTE   N01  Fs3  v052
 BYTE   W02
 BYTE   N02  Fs3  v108
 BYTE   W03
 BYTE   Gn3  v092
 BYTE   W03
 BYTE   Gs3  v104
 BYTE   W03
 BYTE   PEND 
// 054   ----------------------------------------
Label_0_0142A9EA:
 BYTE   W01
 BYTE   N01  Gs3  v052
 BYTE   W02
 BYTE   N02  Gs3  v108
 BYTE   W03
 BYTE   An3  v092
 BYTE   W03
 BYTE   Gs3  v104
 BYTE   W04
 BYTE   N01  Gs3  v052
 BYTE   W02
 BYTE   N02  Gs3  v108
 BYTE   W03
 BYTE   Fs3  v092
 BYTE   W03
 BYTE   Gs3  v104
 BYTE   W03
 BYTE   Cs4  v108
 BYTE   W03
 BYTE   Gs3  v104
 BYTE   W03
 BYTE   Fs3  v092
 BYTE   W03
 BYTE   Gs3  v104
 BYTE   W04
 BYTE   N01  Gs3  v052
 BYTE   W02
 BYTE   N02  Gs3  v108
 BYTE   W03
 BYTE   Fs3  v092
 BYTE   W03
 BYTE   Gs3  v104
 BYTE   W03
 BYTE   Cs4  v108
 BYTE   W03
 BYTE   Gs3  v104
 BYTE   W03
 BYTE   Fs3  v092
 BYTE   W03
 BYTE   Gs3  v104
 BYTE   W04
 BYTE   N01  Gs3  v052
 BYTE   W02
 BYTE   N02  Gs3  v108
 BYTE   W03
 BYTE   Fs3  v092
 BYTE   W03
 BYTE   Gs3  v104
 BYTE   W04
 BYTE   N01  Gs3  v052
 BYTE   W02
 BYTE   N02  Gs3  v108
 BYTE   W03
 BYTE   Fs3  v092
 BYTE   W03
 BYTE   Gs3  v104
 BYTE   W04
 BYTE   N01  Gs3  v052
 BYTE   W02
 BYTE   N02  Gs3  v108
 BYTE   W03
 BYTE   Fs3  v092
 BYTE   W03
 BYTE   Gs3  v104
 BYTE   W03
 BYTE   PEND 
// 055   ----------------------------------------
Label_0_0142AA58:
 BYTE   W01
 BYTE   N01  Gs3  v052
 BYTE   W02
 BYTE   N02  Gs3  v108
 BYTE   W03
 BYTE   Fs3  v092
 BYTE   W03
 BYTE   Gs3  v104
 BYTE   W03
 BYTE   Fs3  v108
 BYTE   W03
 BYTE   Cs3  v104
 BYTE   W03
 BYTE   Fs3  v092
 BYTE   W03
 BYTE   Gs3  v104
 BYTE   W04
 BYTE   N01  Gs3  v052
 BYTE   W02
 BYTE   N02  Fs3  v108
 BYTE   W03
 BYTE   Cs4  v092
 BYTE   W03
 BYTE   Gs3  v096
 BYTE   W03
 BYTE   Cs4  v080
 BYTE   W03
 BYTE   Gs3  v104
 BYTE   W03
 BYTE   Cs4  v088
 BYTE   W03
 BYTE   Gs3  v116
 BYTE   W03
 BYTE   Cs4  v096
 BYTE   W03
 BYTE   Gs3  v124
 BYTE   W03
 BYTE   Cs4  v104
 BYTE   W03
 BYTE   Dn4
 BYTE   W04
 BYTE   N01  Dn4  v052
 BYTE   W02
 BYTE   N02  Cn4  v108
 BYTE   W03
 BYTE   As3  v096
 BYTE   W03
 BYTE   Cn4  v104
 BYTE   W04
 BYTE   N01  Cn4  v052
 BYTE   W02
 BYTE   N02  As3  v108
 BYTE   W03
 BYTE   An3  v096
 BYTE   W03
 BYTE   As3  v104
 BYTE   W04
 BYTE   N01  As3  v052
 BYTE   W02
 BYTE   N02  An3  v108
 BYTE   W03
 BYTE   Gn3  v096
 BYTE   W03
 BYTE   An3  v104
 BYTE   W03
 BYTE   PEND 
// 056   ----------------------------------------
Label_0_0142AAC3:
 BYTE   W01
 BYTE   N01  An3  v052
 BYTE   W02
 BYTE   N02  Gn3  v108
 BYTE   W03
 BYTE   Fn3  v096
 BYTE   W03
 BYTE   Gn3  v104
 BYTE   W04
 BYTE   N01  Gn3  v052
 BYTE   W02
 BYTE   N02  Fn3  v108
 BYTE   W03
 BYTE   Ds3  v096
 BYTE   W03
 BYTE   Fn3  v104
 BYTE   W04
 BYTE   N01  Fn3  v052
 BYTE   W02
 BYTE   N02  Ds3  v108
 BYTE   W03
 BYTE   Dn3  v096
 BYTE   W03
 BYTE   Ds3  v104
 BYTE   W04
 BYTE   N01  Ds3  v052
 BYTE   W02
 BYTE   N02  Dn3  v108
 BYTE   W03
 BYTE   Cn3  v096
 BYTE   W03
 BYTE   Dn3  v104
 BYTE   W04
 BYTE   N01  Dn3  v052
 BYTE   W02
 BYTE   N02  Cn3  v108
 BYTE   W03
 BYTE   As2  v096
 BYTE   W03
 BYTE   An2  v104
 BYTE   W04
 BYTE   N01  An2  v052
 BYTE   W02
 BYTE   N02  Gn2  v108
 BYTE   W03
 BYTE   An2  v096
 BYTE   W03
 BYTE   Cn3  v104
 BYTE   W04
 BYTE   N01  Cn3  v052
 BYTE   W02
 BYTE   N02  An2  v108
 BYTE   W03
 BYTE   Gn2  v096
 BYTE   W03
 BYTE   An2  v104
 BYTE   W04
 BYTE   N01  An2  v052
 BYTE   W02
 BYTE   N02  As2  v108
 BYTE   W03
 BYTE   Cn3  v096
 BYTE   W03
 BYTE   Dn3  v108
 BYTE   W03
 BYTE   PEND 
// 057   ----------------------------------------
Label_0_0142AB35:
 BYTE   N02  Ds3  v096
 BYTE   W03
 BYTE   En3  v104
 BYTE   W03
 BYTE   Fn3  v096
 BYTE   W03
 BYTE   Gn3  v104
 BYTE   W04
 BYTE   N01  Gn3  v052
 BYTE   W02
 BYTE   N02  Fn3  v108
 BYTE   W03
 BYTE   Ds3  v096
 BYTE   W03
 BYTE   Fn3  v104
 BYTE   W04
 BYTE   N01  Fn3  v052
 BYTE   W02
 BYTE   N02  Cn4  v108
 BYTE   W03
 BYTE   Bn3  v096
 BYTE   W03
 BYTE   Cn4  v104
 BYTE   W04
 BYTE   N01  Cn4  v052
 BYTE   W02
 BYTE   N02  Gn3  v108
 BYTE   W03
 BYTE   Fn3  v096
 BYTE   W03
 BYTE   Gn3  v108
 BYTE   W04
 BYTE   N01  Gn3  v060
 BYTE   W02
 BYTE   N02  Ds3  v104
 BYTE   W04
 BYTE   N01  Ds3  v052
 BYTE   W02
 BYTE   N02  Dn3  v104
 BYTE   W04
 BYTE   N01  Dn3  v052
 BYTE   W02
 BYTE   N02  Cn3  v108
 BYTE   W03
 BYTE   Dn3  v096
 BYTE   W03
 BYTE   Fn3  v104
 BYTE   W04
 BYTE   N01  Fn3  v052
 BYTE   W02
 BYTE   N02  Ds3  v108
 BYTE   W03
 BYTE   Fn3  v096
 BYTE   W03
 BYTE   Dn3  v104
 BYTE   W04
 BYTE   N01  Dn3  v052
 BYTE   W02
 BYTE   N02  Gn2  v108
 BYTE   W03
 BYTE   Dn3  v096
 BYTE   W03
 BYTE   Fn3  v104
 BYTE   W03
 BYTE   PEND 
// 058   ----------------------------------------
Label_0_0142ABA7:
 BYTE   W01
 BYTE   N01  Fn3  v052
 BYTE   W02
 BYTE   N02  Ds3  v108
 BYTE   W03
 BYTE   Dn3  v096
 BYTE   W03
 BYTE   Cn3  v104
 BYTE   W04
 BYTE   N01  Cn3  v052
 BYTE   W02
 BYTE   N02  Cs3  v108
 BYTE   W03
 BYTE   Dn3  v096
 BYTE   W03
 BYTE   Ds3  v104
 BYTE   W04
 BYTE   N01  Ds3  v052
 BYTE   W02
 BYTE   N02  En3  v108
 BYTE   W03
 BYTE   Fn3  v096
 BYTE   W03
 BYTE   Fs3  v104
 BYTE   W04
 BYTE   N01  Fs3  v052
 BYTE   W02
 BYTE   N02  Gn3  v108
 BYTE   W03
 BYTE   Gs3  v096
 BYTE   W03
 BYTE   An3  v104
 BYTE   W04
 BYTE   N01  An3  v052
 BYTE   W02
 BYTE   N02  As3  v108
 BYTE   W03
 BYTE   Bn3  v096
 BYTE   W03
 BYTE   As3  v104
 BYTE   W04
 BYTE   N01  As3  v052
 BYTE   W02
 BYTE   N02  An3  v108
 BYTE   W03
 BYTE   Gs3  v096
 BYTE   W03
 BYTE   Gn3  v104
 BYTE   W04
 BYTE   N01  Gn3  v052
 BYTE   W02
 BYTE   N02  Fs3  v108
 BYTE   W03
 BYTE   Fn3  v096
 BYTE   W03
 BYTE   En3  v104
 BYTE   W04
 BYTE   N01  En3  v052
 BYTE   W02
 BYTE   N02  Ds3  v108
 BYTE   W03
 BYTE   Dn3  v096
 BYTE   W03
 BYTE   Cs3  v104
 BYTE   W03
 BYTE   PEND 
// 059   ----------------------------------------
Label_0_0142AC19:
 BYTE   W01
 BYTE   N01  Cs3  v052
 BYTE   W02
 BYTE   N02  Cn3  v108
 BYTE   W03
 BYTE   As2  v096
 BYTE   W03
 BYTE   Cn3  v104
 BYTE   W04
 BYTE   N01  Cn3  v052
 BYTE   W02
 BYTE   N02  Cs3  v108
 BYTE   W03
 BYTE   Dn3  v096
 BYTE   W03
 BYTE   Ds3  v104
 BYTE   W04
 BYTE   N01  Ds3  v052
 BYTE   W02
 BYTE   N02  En3  v108
 BYTE   W03
 BYTE   Fn3  v096
 BYTE   W03
 BYTE   Fs3  v104
 BYTE   W04
 BYTE   N01  Fs3  v052
 BYTE   W02
 BYTE   N02  Gn3  v108
 BYTE   W03
 BYTE   Gs3  v096
 BYTE   W03
 BYTE   An3  v104
 BYTE   W04
 BYTE   N01  An3  v052
 BYTE   W02
 BYTE   N02  As3  v108
 BYTE   W03
 BYTE   Bn3  v096
 BYTE   W03
 BYTE   As3  v108
 BYTE   W03
 BYTE   An3  v096
 BYTE   W03
 BYTE   Gs3  v108
 BYTE   W03
 BYTE   Gn3  v096
 BYTE   W03
 BYTE   Fs3  v108
 BYTE   W03
 BYTE   Fn3  v096
 BYTE   W03
 BYTE   En3  v108
 BYTE   W03
 BYTE   Ds3  v096
 BYTE   W03
 BYTE   Dn3  v108
 BYTE   W03
 BYTE   Cs3  v096
 BYTE   W03
 BYTE   Cn3  v108
 BYTE   W03
 BYTE   Bn2  v096
 BYTE   W03
 BYTE   As2  v108
 BYTE   W03
 BYTE   PEND 
// 060   ----------------------------------------
 BYTE   An2  v096
 BYTE   W03
 BYTE   Gs2  v108
 BYTE   W03
 BYTE   Gn2  v096
 BYTE   W03
 BYTE   Cn3  v104
 BYTE   W03
 BYTE   Gn2  v100
 BYTE   W03
 BYTE   Gn3  v124
 BYTE   W03
 BYTE   Gn2  v088
 BYTE   W03
 BYTE   Fn3  v116
 BYTE   W03
 BYTE   Gn2  v076
 BYTE   W03
 BYTE   Ds3  v112
 BYTE   W03
 BYTE   Gn2  v088
 BYTE   W03
 BYTE   Dn3  v104
 BYTE   W03
 BYTE   Gn2  v084
 BYTE   W03
 BYTE   Cn3  v100
 BYTE   W03
 BYTE   Gn2  v096
 BYTE   W03
 BYTE   Bn2  v092
 BYTE   W03
 BYTE   Gn2  v100
 BYTE   W03
 BYTE   Cn3  v104
 BYTE   W03
 BYTE   Gn2  v096
 BYTE   W03
 BYTE   Cn3  v104
 BYTE   W03
 BYTE   Gn2  v100
 BYTE   W03
 BYTE   Gn3  v124
 BYTE   W03
 BYTE   Gn2  v088
 BYTE   W03
 BYTE   Fn3  v116
 BYTE   W03
 BYTE   Gn2  v076
 BYTE   W03
 BYTE   Ds3  v112
 BYTE   W03
 BYTE   Gn2  v088
 BYTE   W03
 BYTE   Dn3  v104
 BYTE   W03
 BYTE   Gn2  v084
 BYTE   W03
 BYTE   Cn3  v100
 BYTE   W03
 BYTE   Gn2  v096
 BYTE   W03
 BYTE   Bn2  v092
 BYTE   W03
 BYTE   PATT
  POIN2 Label_0_0142A918
 BYTE   PATT
  POIN2 Label_0_0142A97A
 BYTE   PATT
  POIN2 Label_0_0142A9EA
 BYTE   PATT
  POIN2 Label_0_0142AA58
 BYTE   PATT
  POIN2 Label_0_0142AAC3
 BYTE   PATT
  POIN2 Label_0_0142AB35
 BYTE   PATT
  POIN2 Label_0_0142ABA7
 BYTE   PATT
  POIN2 Label_0_0142AC19
// 061   ----------------------------------------
 BYTE   N02  An2  v096
 BYTE   W03
 BYTE   Gs2  v108
 BYTE   W03
 BYTE   Gn2  v096
 BYTE   W04
 BYTE   TEMPO   64*song2C_tbs/2
 BYTE   VOICE   67
 BYTE   VOL   76*song2C_mvl/mxv
 BYTE   PAN   c_v+14
 BYTE   N02  Cn3  v108
 BYTE   W03
 BYTE   Gn2  v092
 BYTE   W03
 BYTE   Cn3  v104
 BYTE   W03
 BYTE   Dn3  v096
 BYTE   W03
 BYTE   Ds3  v108
 BYTE   W03
 BYTE   Gn2  v092
 BYTE   W03
 BYTE   Ds3  v104
 BYTE   W03
 BYTE   Fn3  v092
 BYTE   W03
 BYTE   Ds3  v104
 BYTE   W03
 BYTE   Gn2  v092
 BYTE   W03
 BYTE   Fn3  v108
 BYTE   W03
 BYTE   Gn2  v096
 BYTE   W03
 BYTE   Gn3  v116
 BYTE   W03
 BYTE   Gn2  v104
 BYTE   W03
 BYTE   Fn3  v124
 BYTE   W03
 BYTE   Gn2  v108
 BYTE   W03
 BYTE   Cn3
 BYTE   W03
 BYTE   Gn2  v092
 BYTE   W03
 BYTE   Cn3  v104
 BYTE   W03
 BYTE   Dn3  v096
 BYTE   W03
 BYTE   Ds3  v108
 BYTE   W03
 BYTE   Gn2  v092
 BYTE   W03
 BYTE   Ds3  v104
 BYTE   W03
 BYTE   Fn3  v092
 BYTE   W03
 BYTE   Ds3  v104
 BYTE   W03
 BYTE   Gn2  v092
 BYTE   W03
 BYTE   Fn3  v108
 BYTE   W03
 BYTE   Gn2  v096
 BYTE   W03
 BYTE   Gn3  v116
 BYTE   W02
// 062   ----------------------------------------
Label_0_0142AD76:
 BYTE   W01
 BYTE   N02  Gn2  v104
 BYTE   W03
 BYTE   Fn3  v124
 BYTE   W03
 BYTE   Gn2  v108
 BYTE   W03
 BYTE   Cn3
 BYTE   W03
 BYTE   Gn2  v092
 BYTE   W03
 BYTE   Cn3  v104
 BYTE   W03
 BYTE   Dn3  v096
 BYTE   W03
 BYTE   Ds3  v108
 BYTE   W03
 BYTE   Gn2  v092
 BYTE   W03
 BYTE   Ds3  v104
 BYTE   W03
 BYTE   Fn3  v092
 BYTE   W03
 BYTE   Ds3  v104
 BYTE   W03
 BYTE   Gn2  v092
 BYTE   W03
 BYTE   Fn3  v108
 BYTE   W03
 BYTE   Gn2  v096
 BYTE   W03
 BYTE   Gn3  v116
 BYTE   W03
 BYTE   Gn2  v104
 BYTE   W03
 BYTE   Fn3  v124
 BYTE   W03
 BYTE   Gn2  v108
 BYTE   W03
 BYTE   Cn3
 BYTE   W03
 BYTE   Gn2  v092
 BYTE   W03
 BYTE   Cn3  v104
 BYTE   W03
 BYTE   Dn3  v096
 BYTE   W03
 BYTE   Ds3  v108
 BYTE   W03
 BYTE   Gn2  v092
 BYTE   W03
 BYTE   Ds3  v104
 BYTE   W03
 BYTE   Fn3  v092
 BYTE   W03
 BYTE   Ds3  v104
 BYTE   W03
 BYTE   Gn2  v092
 BYTE   W03
 BYTE   Fn3  v108
 BYTE   W03
 BYTE   Gn2  v096
 BYTE   W03
 BYTE   Ds3  v116
 BYTE   W02
 BYTE   PEND 
// 063   ----------------------------------------
Label_0_0142ADD7:
 BYTE   W01
 BYTE   N02  Gn2  v104
 BYTE   W03
 BYTE   Dn3  v124
 BYTE   W03
 BYTE   Gn2  v108
 BYTE   W03
 BYTE   Cn3
 BYTE   W03
 BYTE   Gn3  v092
 BYTE   W03
 BYTE   Gn2  v104
 BYTE   W03
 BYTE   Gn3  v096
 BYTE   W03
 BYTE   Cn3  v108
 BYTE   W03
 BYTE   Gn3  v092
 BYTE   W03
 BYTE   Dn3  v104
 BYTE   W03
 BYTE   Gn3  v092
 BYTE   W03
 BYTE   Ds3  v104
 BYTE   W03
 BYTE   Gn3  v092
 BYTE   W03
 BYTE   Gn2  v108
 BYTE   W03
 BYTE   Gn3  v096
 BYTE   W03
 BYTE   Ds3  v116
 BYTE   W03
 BYTE   Gn3  v104
 BYTE   W03
 BYTE   Fn3  v124
 BYTE   W03
 BYTE   Gn3  v108
 BYTE   W03
 BYTE   Ds3
 BYTE   W03
 BYTE   Gn3  v092
 BYTE   W03
 BYTE   Gn2  v104
 BYTE   W03
 BYTE   Gn3  v096
 BYTE   W03
 BYTE   Fn3  v108
 BYTE   W03
 BYTE   Gn3  v092
 BYTE   W03
 BYTE   Gn3  v104
 BYTE   W03
 BYTE   Gn3  v092
 BYTE   W03
 BYTE   Ds3  v104
 BYTE   W03
 BYTE   Gn3  v092
 BYTE   W03
 BYTE   Gn2  v108
 BYTE   W03
 BYTE   Gn3  v096
 BYTE   W03
 BYTE   Dn3  v116
 BYTE   W02
 BYTE   PEND 
// 064   ----------------------------------------
Label_0_0142AE38:
 BYTE   W01
 BYTE   N02  Gn3  v104
 BYTE   W03
 BYTE   Gn2  v124
 BYTE   W03
 BYTE   Gn3  v108
 BYTE   W03
 BYTE   Cn3
 BYTE   W03
 BYTE   Gn3  v092
 BYTE   W03
 BYTE   Gn2  v104
 BYTE   W03
 BYTE   Gn3  v096
 BYTE   W03
 BYTE   Cn3  v108
 BYTE   W03
 BYTE   Gn3  v092
 BYTE   W03
 BYTE   Dn3  v104
 BYTE   W03
 BYTE   Gn3  v092
 BYTE   W03
 BYTE   Ds3  v104
 BYTE   W03
 BYTE   Gn3  v092
 BYTE   W03
 BYTE   Gn2  v108
 BYTE   W03
 BYTE   Gn3  v096
 BYTE   W03
 BYTE   Ds3  v116
 BYTE   W03
 BYTE   Gn3  v104
 BYTE   W03
 BYTE   Fn3  v124
 BYTE   W03
 BYTE   Gn3  v108
 BYTE   W03
 BYTE   Ds3
 BYTE   W03
 BYTE   Gn3  v092
 BYTE   W03
 BYTE   Gn2  v104
 BYTE   W03
 BYTE   Gn3  v096
 BYTE   W03
 BYTE   Fn3  v108
 BYTE   W03
 BYTE   Gn3  v092
 BYTE   W03
 BYTE   Gn3  v104
 BYTE   W03
 BYTE   Gn3  v092
 BYTE   W03
 BYTE   Ds3  v104
 BYTE   W03
 BYTE   Gn3  v092
 BYTE   W03
 BYTE   Gn2  v108
 BYTE   W03
 BYTE   Gn3  v096
 BYTE   W03
 BYTE   Dn3  v116
 BYTE   W02
 BYTE   PEND 
// 065   ----------------------------------------
 BYTE   W01
 BYTE   Gn3  v104
 BYTE   W03
 BYTE   Gn2  v124
 BYTE   W03
 BYTE   Gn3  v108
 BYTE   W03
 BYTE   Cn3
 BYTE   W03
 BYTE   Gn2  v092
 BYTE   W03
 BYTE   Cn3  v104
 BYTE   W03
 BYTE   Dn3  v096
 BYTE   W03
 BYTE   Ds3  v108
 BYTE   W03
 BYTE   Gn2  v092
 BYTE   W03
 BYTE   Ds3  v104
 BYTE   W03
 BYTE   Fn3  v092
 BYTE   W03
 BYTE   Ds3  v104
 BYTE   W03
 BYTE   Gn2  v092
 BYTE   W03
 BYTE   Fn3  v108
 BYTE   W03
 BYTE   Gn2  v096
 BYTE   W03
 BYTE   Gn3  v116
 BYTE   W03
 BYTE   Gn2  v104
 BYTE   W03
 BYTE   Fn3  v124
 BYTE   W03
 BYTE   Gn2  v108
 BYTE   W03
 BYTE   Cn3
 BYTE   W03
 BYTE   Gn2  v092
 BYTE   W03
 BYTE   Cn3  v104
 BYTE   W03
 BYTE   Dn3  v096
 BYTE   W03
 BYTE   Ds3  v108
 BYTE   W03
 BYTE   Gn2  v092
 BYTE   W03
 BYTE   Ds3  v104
 BYTE   W03
 BYTE   Fn3  v092
 BYTE   W03
 BYTE   Ds3  v104
 BYTE   W03
 BYTE   Gn2  v092
 BYTE   W03
 BYTE   Fn3  v108
 BYTE   W03
 BYTE   Gn2  v096
 BYTE   W03
 BYTE   Gn3  v116
 BYTE   W02
 BYTE   PATT
  POIN2 Label_0_0142AD76
 BYTE   PATT
  POIN2 Label_0_0142ADD7
 BYTE   PATT
  POIN2 Label_0_0142AE38
// 066   ----------------------------------------
 BYTE   W01
 BYTE   N02  Gn3  v104
 BYTE   W03
 BYTE   Gn2  v124
 BYTE   W03
 BYTE   Gn3  v108
 BYTE   W03
 BYTE   TEMPO   60*song2C_tbs/2
 BYTE   W84
 BYTE   W02
// 067   ----------------------------------------
 BYTE   W56
 BYTE   W03
 BYTE   VOICE   42
 BYTE   VOL   66*song2C_mvl/mxv
 BYTE   PAN   c_v+14
 BYTE   N11  En3  v104
 BYTE   W12
 BYTE   Fs3
 BYTE   W12
 BYTE   N44  Gn3
 BYTE   W13
// 068   ----------------------------------------
 BYTE   W32
 BYTE   W03
 BYTE   N11  Fs3
 BYTE   W12
 BYTE   Gn3
 BYTE   W12
 BYTE   N44  An3
 BYTE   W36
 BYTE   W01
// 069   ----------------------------------------
 BYTE   W11
 BYTE   N11  Fs3
 BYTE   W12
 BYTE   Gn3
 BYTE   W12
 BYTE   N44  Dn4
 BYTE   W48
 BYTE   N32
 BYTE   W13
// 070   ----------------------------------------
 BYTE   W23
 BYTE   N32
 BYTE   W36
 BYTE   N32
 BYTE   W36
 BYTE   N11  Fn4
 BYTE   W01
// 071   ----------------------------------------
 BYTE   W11
 BYTE   Ds4
 BYTE   W12
 BYTE   Dn4
 BYTE   W12
 BYTE   N32  Cn4
 BYTE   W36
 BYTE   As3
 BYTE   W24
 BYTE   W01
// 072   ----------------------------------------
 BYTE   W11
 BYTE   N23  Gs3
 BYTE   W24
 BYTE   N11  Fn3
 BYTE   W12
 BYTE   N32  Gn3
 BYTE   W36
 BYTE   TEMPO   60*song2C_tbs/2
 BYTE   VOICE   60
 BYTE   VOL   49*song2C_mvl/mxv
 BYTE   PAN   c_v-14
 BYTE   N32
 BYTE   W13
// 073   ----------------------------------------
 BYTE   W22
 BYTE   N23  Cn4
 BYTE   W24
 BYTE   N11  En4
 BYTE   W12
 BYTE   N23
 BYTE   W24
 BYTE   N11  Fn4
 BYTE   W12
 BYTE   N32  Dn4
 BYTE   W02
// 074   ----------------------------------------
 BYTE   W32
 BYTE   W02
 BYTE   N23
 BYTE   W24
 BYTE   N11  En4
 BYTE   W12
 BYTE   N23  Cn4
 BYTE   W24
 BYTE   N11  Gn3
 BYTE   W02
// 075   ----------------------------------------
 BYTE   W10
 BYTE   N23  Dn4
 BYTE   W24
 BYTE   N11  En4
 BYTE   W12
 BYTE   N32  Cn4
 BYTE   W36
 BYTE   An3
 BYTE   W14
// 076   ----------------------------------------
 BYTE   W22
 BYTE   N11  An4
 BYTE   W12
 BYTE   Gn4
 BYTE   W12
 BYTE   Fn4
 BYTE   W12
 BYTE   N32  Gn4
 BYTE   W36
 BYTE   N23  En4
 BYTE   W02
// 077   ----------------------------------------
 BYTE   W22
 BYTE   N11  Gn3
 BYTE   W12
 BYTE   N23  An3
 BYTE   W24
 BYTE   N11  Fn4
 BYTE   W12
 BYTE   N23  Dn4
 BYTE   W24
 BYTE   N11  Bn3
 BYTE   W02
// 078   ----------------------------------------
 BYTE   W10
 BYTE   N23  Dn4
 BYTE   W24
 BYTE   N11  Cn4
 BYTE   W12
 BYTE   N32
 BYTE   W36
 BYTE   N23  An4
 BYTE   W14
// 079   ----------------------------------------
 BYTE   W10
 BYTE   N11  Cn4
 BYTE   W12
 BYTE   N23  Bn3
 BYTE   W24
 BYTE   N11  An4
 BYTE   W12
 BYTE   N32  Gn4
 BYTE   W36
 BYTE   N23  Cn4
 BYTE   W02
// 080   ----------------------------------------
 BYTE   W22
 BYTE   N11  Dn4
 BYTE   W12
 BYTE   En4
 BYTE   W12
 BYTE   An3
 BYTE   W12
 BYTE   Bn3
 BYTE   W12
 BYTE   Cn4
 BYTE   W12
 BYTE   Dn4
 BYTE   W12
 BYTE   Cn4
 BYTE   W02
// 081   ----------------------------------------
 BYTE   W10
 BYTE   N32
 BYTE   W36
 BYTE   Bn3
 BYTE   W36
 BYTE   N23  An3
 BYTE   W14
// 082   ----------------------------------------
 BYTE   W10
 BYTE   N11
 BYTE   W12
 BYTE   Bn3
 BYTE   W12
 BYTE   Cn4
 BYTE   W12
 BYTE   Dn4
 BYTE   W12
 BYTE   N23  En4
 BYTE   W24
 BYTE   N11  Dn4
 BYTE   W12
 BYTE   N23  Cn4
 BYTE   W02
// 083   ----------------------------------------
 BYTE   W22
 BYTE   N11  Bn3
 BYTE   W12
 BYTE   N32  An3
 BYTE   W36
 BYTE   N23  Dn4
 BYTE   W24
 BYTE   N11  Cn4
 BYTE   W02
// 084   ----------------------------------------
Label_0_0142AFFD:
 BYTE   W10
 BYTE   N32  Cn4  v104
 BYTE   W36
 BYTE   Bn3
 BYTE   W36
 BYTE   Gn3
 BYTE   W14
 BYTE   PEND 
// 085   ----------------------------------------
 BYTE   W22
 BYTE   N23  Cn4
 BYTE   W24
 BYTE   N11  En4
 BYTE   W12
 BYTE   N32
 BYTE   W36
 BYTE   An3
 BYTE   W02
// 086   ----------------------------------------
 BYTE   W32
 BYTE   W02
 BYTE   N32
 BYTE   W36
 BYTE   N11  Bn3
 BYTE   W12
 BYTE   Cn4
 BYTE   W12
 BYTE   Dn4
 BYTE   W02
 BYTE   PATT
  POIN2 Label_0_0142AFFD
// 087   ----------------------------------------
 BYTE   W22
 BYTE   N23  Cn4  v104
 BYTE   W24
 BYTE   N11  En4
 BYTE   W12
 BYTE   N32  Gn4
 BYTE   W36
 BYTE   N23  Fn4
 BYTE   W02
// 088   ----------------------------------------
 BYTE   W22
 BYTE   N11  En4
 BYTE   W12
 BYTE   N32  An3
 BYTE   W36
 BYTE   N11  Bn3
 BYTE   W12
 BYTE   Cn4
 BYTE   W12
 BYTE   Dn4
 BYTE   W02
// 089   ----------------------------------------
 BYTE   W10
 BYTE   N56  Cn4
 BYTE   W60
 BYTE   N11  Bn3
 BYTE   W12
 BYTE   N32  An3
 BYTE   W14
// 090   ----------------------------------------
 BYTE   W22
 BYTE   N11  Fn4
 BYTE   W12
 BYTE   Dn4
 BYTE   W12
 BYTE   Bn3
 BYTE   W12
 BYTE   N23  Gn4
 BYTE   W24
 BYTE   N11  En4
 BYTE   W12
 BYTE   N23  Cn4
 BYTE   W02
// 091   ----------------------------------------
 BYTE   W22
 BYTE   N11  Bn3
 BYTE   W12
 BYTE   N32  An3
 BYTE   W36
 BYTE   N11  An4
 BYTE   W12
 BYTE   Gn4
 BYTE   W12
 BYTE   Dn4
 BYTE   W02
// 092   ----------------------------------------
 BYTE   W10
 BYTE   N68  En4
 BYTE   W72
 BYTE   N32  An3
 BYTE   W14
// 093   ----------------------------------------
 BYTE   W22
 BYTE   N11  Fn4
 BYTE   W12
 BYTE   Dn4
 BYTE   W12
 BYTE   Bn3
 BYTE   W12
 BYTE   N23  Gn4
 BYTE   W24
 BYTE   N11  En4
 BYTE   W12
 BYTE   N23  Cn5
 BYTE   W02
// 094   ----------------------------------------
 BYTE   W22
 BYTE   N11  Bn4
 BYTE   W12
 BYTE   N32  An4
 BYTE   W36
 BYTE   N11  Bn4
 BYTE   W12
 BYTE   Cn5
 BYTE   W12
 BYTE   Dn5
 BYTE   W02
// 095   ----------------------------------------
 BYTE   W10
 BYTE   N32  Cn5
 BYTE   W36
 BYTE   Bn4
 BYTE   W36
 BYTE   TEMPO   60*song2C_tbs/2
 BYTE   W01
 BYTE   TEMPO   60*song2C_tbs/2
 BYTE   W01
 BYTE   TEMPO   60*song2C_tbs/2
 BYTE   W01
 BYTE   TEMPO   60*song2C_tbs/2
 BYTE   W01
 BYTE   TEMPO   60*song2C_tbs/2
 BYTE   W01
 BYTE   TEMPO   60*song2C_tbs/2
 BYTE   W01
 BYTE   TEMPO   60*song2C_tbs/2
 BYTE   W01
 BYTE   TEMPO   60*song2C_tbs/2
 BYTE   W01
 BYTE   TEMPO   60*song2C_tbs/2
 BYTE   W01
 BYTE   TEMPO   60*song2C_tbs/2
 BYTE   W01
 BYTE   TEMPO   60*song2C_tbs/2
 BYTE   W01
 BYTE   TEMPO   60*song2C_tbs/2
 BYTE   W01
 BYTE   TEMPO   60*song2C_tbs/2
 BYTE   W01
 BYTE   TEMPO   60*song2C_tbs/2
 BYTE   W01
// 096   ----------------------------------------
 BYTE   TEMPO   60*song2C_tbs/2
 BYTE   W01
 BYTE   TEMPO   60*song2C_tbs/2
 BYTE   W01
 BYTE   TEMPO   60*song2C_tbs/2
 BYTE   W01
 BYTE   TEMPO   60*song2C_tbs/2
 BYTE   W01
 BYTE   TEMPO   60*song2C_tbs/2
 BYTE   W01
 BYTE   TEMPO   60*song2C_tbs/2
 BYTE   W01
 BYTE   TEMPO   60*song2C_tbs/2
 BYTE   W01
 BYTE   TEMPO   60*song2C_tbs/2
 BYTE   W01
 BYTE   TEMPO   60*song2C_tbs/2
 BYTE   W01
 BYTE   TEMPO   60*song2C_tbs/2
 BYTE   W01
 BYTE   TEMPO   60*song2C_tbs/2
 BYTE   W01
 BYTE   TEMPO   60*song2C_tbs/2
 BYTE   W01
 BYTE   TEMPO   60*song2C_tbs/2
 BYTE   W01
 BYTE   TEMPO   60*song2C_tbs/2
 BYTE   W01
 BYTE   TEMPO   60*song2C_tbs/2
 BYTE   W01
 BYTE   TEMPO   60*song2C_tbs/2
 BYTE   W01
 BYTE   TEMPO   60*song2C_tbs/2
 BYTE   W01
 BYTE   TEMPO   58*song2C_tbs/2
 BYTE   W01
 BYTE   TEMPO   58*song2C_tbs/2
 BYTE   W01
 BYTE   TEMPO   58*song2C_tbs/2
 BYTE   W01
 BYTE   TEMPO   58*song2C_tbs/2
 BYTE   W01
 BYTE   TEMPO   58*song2C_tbs/2
 BYTE   W01
 BYTE   TEMPO   58*song2C_tbs/2
 BYTE   W01
 BYTE   TEMPO   58*song2C_tbs/2
 BYTE   W01
 BYTE   TEMPO   58*song2C_tbs/2
 BYTE   W01
 BYTE   TEMPO   58*song2C_tbs/2
 BYTE   W01
 BYTE   TEMPO   58*song2C_tbs/2
 BYTE   W01
 BYTE   TEMPO   58*song2C_tbs/2
 BYTE   W01
 BYTE   TEMPO   58*song2C_tbs/2
 BYTE   W01
 BYTE   TEMPO   58*song2C_tbs/2
 BYTE   W01
 BYTE   TEMPO   58*song2C_tbs/2
 BYTE   W01
 BYTE   TEMPO   58*song2C_tbs/2
 BYTE   W01
 BYTE   TEMPO   58*song2C_tbs/2
 BYTE   W01
 BYTE   TEMPO   58*song2C_tbs/2
 BYTE   W01
 BYTE   TEMPO   58*song2C_tbs/2
 BYTE   W01
 BYTE   TEMPO   58*song2C_tbs/2
 BYTE   W01
 BYTE   TEMPO   58*song2C_tbs/2
 BYTE   W01
 BYTE   TEMPO   58*song2C_tbs/2
 BYTE   W01
 BYTE   TEMPO   58*song2C_tbs/2
 BYTE   W01
 BYTE   TEMPO   58*song2C_tbs/2
 BYTE   W01
 BYTE   TEMPO   58*song2C_tbs/2
 BYTE   W01
 BYTE   TEMPO   58*song2C_tbs/2
 BYTE   W01
 BYTE   TEMPO   58*song2C_tbs/2
 BYTE   W01
 BYTE   TEMPO   58*song2C_tbs/2
 BYTE   W01
 BYTE   TEMPO   58*song2C_tbs/2
 BYTE   W01
 BYTE   TEMPO   58*song2C_tbs/2
 BYTE   W01
 BYTE   TEMPO   58*song2C_tbs/2
 BYTE   W01
 BYTE   TEMPO   58*song2C_tbs/2
 BYTE   W01
 BYTE   TEMPO   58*song2C_tbs/2
 BYTE   W01
 BYTE   TEMPO   58*song2C_tbs/2
 BYTE   W01
 BYTE   TEMPO   58*song2C_tbs/2
 BYTE   W01
 BYTE   TEMPO   58*song2C_tbs/2
 BYTE   W01
 BYTE   TEMPO   58*song2C_tbs/2
 BYTE   W01
 BYTE   TEMPO   58*song2C_tbs/2
 BYTE   W01
 BYTE   TEMPO   58*song2C_tbs/2
 BYTE   W01
 BYTE   TEMPO   58*song2C_tbs/2
 BYTE   W01
 BYTE   TEMPO   58*song2C_tbs/2
 BYTE   W01
 BYTE   TEMPO   58*song2C_tbs/2
 BYTE   W01
 BYTE   TEMPO   58*song2C_tbs/2
 BYTE   W01
 BYTE   TEMPO   58*song2C_tbs/2
 BYTE   W01
 BYTE   TEMPO   58*song2C_tbs/2
 BYTE   W01
 BYTE   TEMPO   58*song2C_tbs/2
 BYTE   W01
 BYTE   TEMPO   56*song2C_tbs/2
 BYTE   W01
 BYTE   TEMPO   56*song2C_tbs/2
 BYTE   W01
 BYTE   TEMPO   56*song2C_tbs/2
 BYTE   W01
 BYTE   TEMPO   56*song2C_tbs/2
 BYTE   W01
 BYTE   TEMPO   56*song2C_tbs/2
 BYTE   W01
 BYTE   TEMPO   56*song2C_tbs/2
 BYTE   W01
 BYTE   TEMPO   56*song2C_tbs/2
 BYTE   W01
 BYTE   TEMPO   56*song2C_tbs/2
 BYTE   W01
 BYTE   TEMPO   56*song2C_tbs/2
 BYTE   W01
 BYTE   TEMPO   56*song2C_tbs/2
 BYTE   W01
 BYTE   TEMPO   56*song2C_tbs/2
 BYTE   W01
 BYTE   TEMPO   56*song2C_tbs/2
 BYTE   W01
 BYTE   TEMPO   56*song2C_tbs/2
 BYTE   W01
 BYTE   TEMPO   56*song2C_tbs/2
 BYTE   W01
 BYTE   TEMPO   56*song2C_tbs/2
 BYTE   W01
 BYTE   TEMPO   54*song2C_tbs/2
 BYTE   W01
 BYTE   TEMPO   54*song2C_tbs/2
 BYTE   W01
 BYTE   TEMPO   54*song2C_tbs/2
 BYTE   W01
 BYTE   TEMPO   54*song2C_tbs/2
 BYTE   W01
 BYTE   TEMPO   54*song2C_tbs/2
 BYTE   W01
 BYTE   TEMPO   54*song2C_tbs/2
 BYTE   W01
 BYTE   TEMPO   54*song2C_tbs/2
 BYTE   W01
 BYTE   TEMPO   54*song2C_tbs/2
 BYTE   W01
 BYTE   TEMPO   54*song2C_tbs/2
 BYTE   W01
 BYTE   TEMPO   54*song2C_tbs/2
 BYTE   W01
 BYTE   TEMPO   54*song2C_tbs/2
 BYTE   W01
 BYTE   TEMPO   54*song2C_tbs/2
 BYTE   W01
 BYTE   TEMPO   54*song2C_tbs/2
 BYTE   W01
 BYTE   TEMPO   54*song2C_tbs/2
 BYTE   W01
 BYTE   TEMPO   54*song2C_tbs/2
 BYTE   W01
 BYTE   TEMPO   52*song2C_tbs/2
 BYTE   W01
 BYTE   TEMPO   52*song2C_tbs/2
 BYTE   W01
 BYTE   TEMPO   52*song2C_tbs/2
 BYTE   W01
 BYTE   TEMPO   52*song2C_tbs/2
 BYTE   W01
// 097   ----------------------------------------
 BYTE   TEMPO   52*song2C_tbs/2
 BYTE   W01
 BYTE   TEMPO   52*song2C_tbs/2
 BYTE   W01
 BYTE   TEMPO   52*song2C_tbs/2
 BYTE   W01
 BYTE   TEMPO   52*song2C_tbs/2
 BYTE   W01
 BYTE   TEMPO   52*song2C_tbs/2
 BYTE   W01
 BYTE   TEMPO   52*song2C_tbs/2
 BYTE   W01
 BYTE   TEMPO   52*song2C_tbs/2
 BYTE   W01
 BYTE   TEMPO   52*song2C_tbs/2
 BYTE   W01
 BYTE   TEMPO   52*song2C_tbs/2
 BYTE   W01
 BYTE   TEMPO   52*song2C_tbs/2
 BYTE   W01
 BYTE   TEMPO   52*song2C_tbs/2
 BYTE   W01
 BYTE   TEMPO   50*song2C_tbs/2
 BYTE   W01
 BYTE   TEMPO   50*song2C_tbs/2
 BYTE   W01
 BYTE   TEMPO   50*song2C_tbs/2
 BYTE   W01
 BYTE   TEMPO   50*song2C_tbs/2
 BYTE   W01
 BYTE   TEMPO   50*song2C_tbs/2
 BYTE   W01
 BYTE   TEMPO   50*song2C_tbs/2
 BYTE   W01
 BYTE   TEMPO   50*song2C_tbs/2
 BYTE   W01
 BYTE   TEMPO   50*song2C_tbs/2
 BYTE   W01
 BYTE   TEMPO   50*song2C_tbs/2
 BYTE   W01
 BYTE   TEMPO   50*song2C_tbs/2
 BYTE   W01
 BYTE   TEMPO   50*song2C_tbs/2
 BYTE   W01
 BYTE   TEMPO   50*song2C_tbs/2
 BYTE   W01
 BYTE   TEMPO   50*song2C_tbs/2
 BYTE   W01
 BYTE   TEMPO   50*song2C_tbs/2
 BYTE   W01
 BYTE   TEMPO   48*song2C_tbs/2
 BYTE   W01
 BYTE   TEMPO   48*song2C_tbs/2
 BYTE   W01
 BYTE   TEMPO   48*song2C_tbs/2
 BYTE   W01
 BYTE   TEMPO   48*song2C_tbs/2
 BYTE   W01
 BYTE   TEMPO   48*song2C_tbs/2
 BYTE   W01
 BYTE   TEMPO   48*song2C_tbs/2
 BYTE   W01
 BYTE   TEMPO   48*song2C_tbs/2
 BYTE   W01
 BYTE   TEMPO   48*song2C_tbs/2
 BYTE   W01
 BYTE   TEMPO   48*song2C_tbs/2
 BYTE   W01
 BYTE   TEMPO   48*song2C_tbs/2
 BYTE   W36
 BYTE   FINE

//**************** Track 2 (Midi-Chn.1) ****************//

song2C_002:
// 000   ----------------------------------------
 BYTE   KEYSH   song2C_key+0
 BYTE   W96
// 001   ----------------------------------------
 BYTE   W30
 BYTE   W01
 BYTE   VOL   23*song2C_mvl/mxv
 BYTE   W01
 BYTE   Cn0
 BYTE   W01
 BYTE   Cn0
 BYTE   W02
 BYTE   Cs0
 BYTE   W02
 BYTE   Dn0
 BYTE   W01
 BYTE   Dn0
 BYTE   W02
 BYTE   Ds0
 BYTE   W01
 BYTE   En0
 BYTE   W02
 BYTE   En0
 BYTE   W02
 BYTE   Fn0
 BYTE   W01
 BYTE   Fs0
 BYTE   W02
 BYTE   Fs0
 BYTE   W01
 BYTE   Gn0
 BYTE   W02
 BYTE   Gs0
 BYTE   W02
 BYTE   Gs0
 BYTE   W01
 BYTE   An0
 BYTE   W02
 BYTE   As0
 BYTE   W01
 BYTE   As0
 BYTE   W02
 BYTE   Bn0
 BYTE   W02
 BYTE   Cn1
 BYTE   W01
 BYTE   Cn1
 BYTE   W02
 BYTE   Cs1
 BYTE   W01
 BYTE   Dn1
 BYTE   W02
 BYTE   Dn1
 BYTE   W02
 BYTE   Ds1
 BYTE   W01
 BYTE   En1
 BYTE   W02
 BYTE   En1
 BYTE   W01
 BYTE   Fn1
 BYTE   W02
 BYTE   Fs1
 BYTE   W02
 BYTE   Fs1
 BYTE   W01
 BYTE   Gn1
 BYTE   W01
 BYTE   Gs1
 BYTE   W01
 BYTE   An1
 BYTE   W01
 BYTE   As1
 BYTE   W01
 BYTE   Cn2
 BYTE   W01
 BYTE   Cn2
 BYTE   W01
 BYTE   Dn2
 BYTE   W01
 BYTE   Ds2
 BYTE   W01
 BYTE   En2
 BYTE   W01
 BYTE   Fs2
 BYTE   W01
 BYTE   Gn2
 BYTE   W01
 BYTE   Gs2
 BYTE   W01
 BYTE   As2
 BYTE   W01
 BYTE   As2
 BYTE   W01
 BYTE   Cn3
 BYTE   W01
 BYTE   Cs3
 BYTE   W01
 BYTE   Dn3
 BYTE   W01
 BYTE   En3
 BYTE   W01
// 002   ----------------------------------------
 BYTE   Fn3
 BYTE   W01
 BYTE   Fs3
 BYTE   W01
 BYTE   Gs3
 BYTE   W01
 BYTE   Gs3
 BYTE   W01
 BYTE   As3
 BYTE   W01
 BYTE   Bn3
 BYTE   W01
 BYTE   Cn4
 BYTE   W01
 BYTE   Cs4
 BYTE   W06
 BYTE   VOICE   61
 BYTE   VOL   46*song2C_mvl/mxv
 BYTE   PAN   c_v+0
 BYTE   N11  Gs4  v108
 BYTE   W12
 BYTE   Gs4  v104
 BYTE   W12
 BYTE   N11
 BYTE   W12
 BYTE   N11
 BYTE   W12
 BYTE   As4  v108
 BYTE   W12
 BYTE   As4  v104
 BYTE   W12
 BYTE   N11
 BYTE   W11
// 003   ----------------------------------------
Label_1_0142B2D7:
 BYTE   W01
 BYTE   N11  As4  v104
 BYTE   W12
 BYTE   Gs4  v108
 BYTE   W12
 BYTE   Gs4  v104
 BYTE   W12
 BYTE   N11
 BYTE   W12
 BYTE   N11
 BYTE   W12
 BYTE   As4  v108
 BYTE   W12
 BYTE   As4  v104
 BYTE   W12
 BYTE   N11
 BYTE   W11
 BYTE   PEND 
 BYTE   PATT
  POIN2 Label_1_0142B2D7
// 004   ----------------------------------------
Label_1_0142B2F4:
 BYTE   W01
 BYTE   N11  As4  v104
 BYTE   W12
 BYTE   Cn5  v108
 BYTE   W12
 BYTE   Cn5  v104
 BYTE   W12
 BYTE   N11
 BYTE   W12
 BYTE   N11
 BYTE   W12
 BYTE   Ds5  v108
 BYTE   W12
 BYTE   Ds5  v104
 BYTE   W12
 BYTE   N11
 BYTE   W11
 BYTE   PEND 
// 005   ----------------------------------------
Label_1_0142B30C:
 BYTE   W01
 BYTE   N11  Ds5  v104
 BYTE   W12
 BYTE   Gs4  v108
 BYTE   W12
 BYTE   Gs4  v104
 BYTE   W12
 BYTE   N11
 BYTE   W12
 BYTE   N11
 BYTE   W12
 BYTE   As4  v108
 BYTE   W12
 BYTE   As4  v104
 BYTE   W12
 BYTE   N11
 BYTE   W11
 BYTE   PEND 
 BYTE   PATT
  POIN2 Label_1_0142B2D7
 BYTE   PATT
  POIN2 Label_1_0142B2D7
 BYTE   PATT
  POIN2 Label_1_0142B2F4
 BYTE   PATT
  POIN2 Label_1_0142B30C
 BYTE   PATT
  POIN2 Label_1_0142B2D7
 BYTE   PATT
  POIN2 Label_1_0142B2D7
 BYTE   PATT
  POIN2 Label_1_0142B2F4
// 006   ----------------------------------------
 BYTE   W01
 BYTE   N05  Ds5  v104
 BYTE   W06
 BYTE   TIE  Ds5  v108
 BYTE   W88
 BYTE   W01
// 007   ----------------------------------------
 BYTE   W54
 BYTE   EOT
 BYTE   W42
// 008   ----------------------------------------
 BYTE   W07
 BYTE   VOL   85*song2C_mvl/mxv
 BYTE   W88
 BYTE   W01
// 009   ----------------------------------------
 BYTE   W96
// 010   ----------------------------------------
 BYTE   W07
 BYTE   VOICE   61
 BYTE   VOL   46*song2C_mvl/mxv
 BYTE   PAN   c_v-14
 BYTE   N03  Fn3
 BYTE   W04
 BYTE   An3  v096
 BYTE   W04
 BYTE   Cn4
 BYTE   W04
 BYTE   N11  Fn4  v104
 BYTE   W12
 BYTE   Ds4
 BYTE   W12
 BYTE   N07  As3
 BYTE   W09
 BYTE   N02  Dn4
 BYTE   W03
 BYTE   N44  Cn4
 BYTE   W40
 BYTE   W01
// 011   ----------------------------------------
Label_1_0142B379:
 BYTE   W07
 BYTE   N03  Fn3  v108
 BYTE   W04
 BYTE   An3  v096
 BYTE   W04
 BYTE   Cn4
 BYTE   W04
 BYTE   N11  Fn4  v104
 BYTE   W12
 BYTE   Ds4
 BYTE   W12
 BYTE   N03  Gn4
 BYTE   W04
 BYTE   Ds4  v096
 BYTE   W04
 BYTE   Gn4
 BYTE   W04
 BYTE   N44  Fn4  v108
 BYTE   W40
 BYTE   W01
 BYTE   PEND 
// 012   ----------------------------------------
 BYTE   W07
 BYTE   N03  Fn3
 BYTE   W04
 BYTE   An3  v096
 BYTE   W04
 BYTE   Cn4
 BYTE   W04
 BYTE   N11  Fn4  v104
 BYTE   W12
 BYTE   Ds4
 BYTE   W12
 BYTE   N07  As3
 BYTE   W09
 BYTE   N02  Dn4
 BYTE   W03
 BYTE   N44  Cn4
 BYTE   W40
 BYTE   W01
 BYTE   PATT
  POIN2 Label_1_0142B379
// 013   ----------------------------------------
 BYTE   W07
 BYTE   N03  Cn5  v104
 BYTE   W06
 BYTE   N02  Fn4  v092
 BYTE   W03
 BYTE   N02
 BYTE   W03
 BYTE   N04
 BYTE   W06
 BYTE   N03  Cn5  v104
 BYTE   W06
 BYTE   N02  Fn4  v092
 BYTE   W03
 BYTE   N02
 BYTE   W03
 BYTE   N04
 BYTE   W06
 BYTE   N03  Cn5  v104
 BYTE   W06
 BYTE   Fn4  v092
 BYTE   W06
 BYTE   Cn5  v104
 BYTE   W06
 BYTE   N02  Fn4  v092
 BYTE   W03
 BYTE   N02
 BYTE   W03
 BYTE   N04
 BYTE   W06
 BYTE   N03  Cn5  v104
 BYTE   W06
 BYTE   N02  Fn4  v092
 BYTE   W03
 BYTE   N02
 BYTE   W03
 BYTE   N04
 BYTE   W06
 BYTE   N03  Cn5  v104
 BYTE   W05
// 014   ----------------------------------------
 BYTE   W01
 BYTE   Fn5  v092
 BYTE   W06
 BYTE   Fn5  v104
 BYTE   W06
 BYTE   N02  As4  v092
 BYTE   W03
 BYTE   N02
 BYTE   W03
 BYTE   N04
 BYTE   W06
 BYTE   N03  Fn5  v104
 BYTE   W06
 BYTE   N02  As4  v092
 BYTE   W03
 BYTE   N02
 BYTE   W03
 BYTE   N04
 BYTE   W06
 BYTE   N03  Fn5  v104
 BYTE   W06
 BYTE   As4  v092
 BYTE   W06
 BYTE   Fn5  v104
 BYTE   W06
 BYTE   N02  As4  v092
 BYTE   W03
 BYTE   N02
 BYTE   W03
 BYTE   N04
 BYTE   W06
 BYTE   N03  Fn5  v104
 BYTE   W06
 BYTE   N02  As4  v092
 BYTE   W03
 BYTE   N02
 BYTE   W03
 BYTE   N04
 BYTE   W06
 BYTE   N03  Fn5  v104
 BYTE   W05
// 015   ----------------------------------------
 BYTE   W01
 BYTE   As4  v092
 BYTE   W06
 BYTE   N23  Fn5  v100
 BYTE   W24
 BYTE   N03  Fn4  v108
 BYTE   W04
 BYTE   Gn4  v096
 BYTE   W04
 BYTE   An4
 BYTE   W04
 BYTE   N11  As4  v104
 BYTE   W12
 BYTE   Cn5
 BYTE   W12
 BYTE   Fn5
 BYTE   W12
 BYTE   Gn5
 BYTE   W12
 BYTE   N07  Ds5
 BYTE   W05
// 016   ----------------------------------------
Label_1_0142B44B:
 BYTE   W04
 BYTE   N02  Fn5  v104
 BYTE   W03
 BYTE   N23  Cn5
 BYTE   W24
 BYTE   N03  As4  v108
 BYTE   W04
 BYTE   An4  v096
 BYTE   W04
 BYTE   Gn4
 BYTE   W04
 BYTE   N11  As4  v104
 BYTE   W12
 BYTE   An4
 BYTE   W12
 BYTE   N03  An4  v108
 BYTE   W04
 BYTE   Gn4  v096
 BYTE   W04
 BYTE   Fn4
 BYTE   W04
 BYTE   N11  Cn4  v104
 BYTE   W12
 BYTE   Gn4
 BYTE   W05
 BYTE   PEND 
// 017   ----------------------------------------
 BYTE   W07
 BYTE   N23  Fn4
 BYTE   W24
 BYTE   N03  Fn4  v108
 BYTE   W04
 BYTE   Gn4  v096
 BYTE   W04
 BYTE   An4
 BYTE   W04
 BYTE   N11  As4  v104
 BYTE   W12
 BYTE   Cn5
 BYTE   W12
 BYTE   Fn5
 BYTE   W12
 BYTE   Gn5
 BYTE   W12
 BYTE   N07  Ds5
 BYTE   W05
 BYTE   PATT
  POIN2 Label_1_0142B44B
// 018   ----------------------------------------
 BYTE   W07
 BYTE   VOL   54*song2C_mvl/mxv
 BYTE   N06  Fs4  v108
 BYTE   W07
 BYTE   N04  Fs4  v040
 BYTE   W05
 BYTE   N02  Fs4  v104
 BYTE   W04
 BYTE   Fs4  v092
 BYTE   W04
 BYTE   N02
 BYTE   W04
 BYTE   N06  Gn4  v112
 BYTE   W07
 BYTE   N04  Gn4  v040
 BYTE   W05
 BYTE   N02  Gn4  v108
 BYTE   W04
 BYTE   Gn4  v096
 BYTE   W04
 BYTE   N02
 BYTE   W04
 BYTE   N04  An4  v116
 BYTE   W05
 BYTE   N02  An4  v044
 BYTE   W04
 BYTE   N01  An4  v100
 BYTE   W03
 BYTE   N02  An4  v112
 BYTE   W04
 BYTE   An4  v100
 BYTE   W04
 BYTE   N02
 BYTE   W04
 BYTE   N11  Dn5
 BYTE   W12
 BYTE   An4  v108
 BYTE   W05
// 019   ----------------------------------------
 BYTE   W07
 BYTE   N03  Cn5  v112
 BYTE   W04
 BYTE   As4  v100
 BYTE   W04
 BYTE   An4
 BYTE   W04
 BYTE   N11  As4  v104
 BYTE   W12
 BYTE   As3
 BYTE   W12
 BYTE   As4
 BYTE   W12
 BYTE   N03  As4  v112
 BYTE   W04
 BYTE   An4  v096
 BYTE   W04
 BYTE   Gn4
 BYTE   W04
 BYTE   N11  An4  v104
 BYTE   W12
 BYTE   An3
 BYTE   W12
 BYTE   An4
 BYTE   W05
// 020   ----------------------------------------
 BYTE   W07
 BYTE   N03  Gn4  v108
 BYTE   W04
 BYTE   Fn4  v096
 BYTE   W04
 BYTE   Ds4
 BYTE   W04
 BYTE   N11  Fn4  v104
 BYTE   W12
 BYTE   Cn4
 BYTE   W12
 BYTE   As4
 BYTE   W12
 BYTE   Fs4
 BYTE   W12
 BYTE   N03  Fs4  v108
 BYTE   W04
 BYTE   Fn4  v096
 BYTE   W04
 BYTE   Ds4
 BYTE   W04
 BYTE   N10  Fn4  v104
 BYTE   W12
 BYTE   As3
 BYTE   W05
// 021   ----------------------------------------
 BYTE   W07
 BYTE   N44  Cn4  v096
 BYTE   W48
 BYTE   Fn4  v104
 BYTE   W40
 BYTE   W01
// 022   ----------------------------------------
 BYTE   W07
 BYTE   VOICE   61
 BYTE   VOL   63*song2C_mvl/mxv
 BYTE   PAN   c_v-14
 BYTE   W12
 BYTE   N11  Gn2  v096
 BYTE   W12
 BYTE   N32  Dn3  v108
 BYTE   W36
 BYTE   N11  Fn3  v104
 BYTE   W12
 BYTE   En3
 BYTE   W12
 BYTE   Cn3
 BYTE   W05
// 023   ----------------------------------------
 BYTE   W07
 BYTE   N23  Dn3
 BYTE   W24
 BYTE   N32  Gn2
 BYTE   W36
 BYTE   N11
 BYTE   W12
 BYTE   Fn2
 BYTE   W12
 BYTE   An2
 BYTE   W05
// 024   ----------------------------------------
 BYTE   W07
 BYTE   N23  Gn2
 BYTE   W24
 BYTE   N32  Fn2
 BYTE   W36
 BYTE   N11  Gn2
 BYTE   W12
 BYTE   Cn3
 BYTE   W12
 BYTE   As2
 BYTE   W05
// 025   ----------------------------------------
 BYTE   W07
 BYTE   N23  Gn2
 BYTE   W24
 BYTE   N32  Fn2
 BYTE   W36
 BYTE   N11  Gn2
 BYTE   W12
 BYTE   Cn2
 BYTE   W12
 BYTE   Fn2
 BYTE   W05
// 026   ----------------------------------------
 BYTE   W07
 BYTE   N23  Gn2
 BYTE   W24
 BYTE   N32  Dn2
 BYTE   W36
 BYTE   N11  Fn2
 BYTE   W12
 BYTE   En2
 BYTE   W12
 BYTE   Cn2
 BYTE   W05
// 027   ----------------------------------------
 BYTE   W07
 BYTE   N23  Dn2
 BYTE   W24
 BYTE   Gn2
 BYTE   W24
 BYTE   Dn3
 BYTE   W24
 BYTE   Gn3
 BYTE   W17
// 028   ----------------------------------------
 BYTE   W07
 BYTE   Gn2
 BYTE   W24
 BYTE   Fn2
 BYTE   W24
 BYTE   Cn2
 BYTE   W24
 BYTE   Cn3
 BYTE   W17
// 029   ----------------------------------------
 BYTE   W07
 BYTE   Gn3
 BYTE   W24
 BYTE   Fn3
 BYTE   W24
 BYTE   Cn4
 BYTE   W24
 BYTE   Cn3
 BYTE   W17
// 030   ----------------------------------------
 BYTE   W19
 BYTE   N11  Gn2  v096
 BYTE   W12
 BYTE   N32  Dn3  v108
 BYTE   W36
 BYTE   N11  Fn3  v104
 BYTE   W12
 BYTE   En3
 BYTE   W12
 BYTE   Cn3
 BYTE   W05
// 031   ----------------------------------------
 BYTE   W07
 BYTE   N23  Dn3
 BYTE   W01
 BYTE   VOICE   61
 BYTE   VOL   70*song2C_mvl/mxv
 BYTE   PAN   c_v-25
 BYTE   N11  Fn3
 BYTE   W12
 BYTE   N03  Fn3  v108
 BYTE   W04
 BYTE   An3  v096
 BYTE   W04
 BYTE   Cn4
 BYTE   W04
 BYTE   N23  Fn4  v104
 BYTE   W24
 BYTE   N11
 BYTE   W12
 BYTE   N03  Fn4  v108
 BYTE   W04
 BYTE   Gn4  v096
 BYTE   W04
 BYTE   Fn4
 BYTE   W04
 BYTE   N11  Gn4  v104
 BYTE   W12
 BYTE   Fn4  v096
 BYTE   W04
// 032   ----------------------------------------
Label_1_0142B5C8:
 BYTE   W08
 BYTE   N03  Ds4  v108
 BYTE   W04
 BYTE   Cs4  v096
 BYTE   W04
 BYTE   Cn4
 BYTE   W04
 BYTE   N11  As3  v104
 BYTE   W12
 BYTE   Gs3
 BYTE   W12
 BYTE   Gn3  v096
 BYTE   W12
 BYTE   N23  Gn3  v104
 BYTE   W24
 BYTE   En3  v100
 BYTE   W16
 BYTE   PEND 
// 033   ----------------------------------------
 BYTE   W08
 BYTE   N11  Fn3  v104
 BYTE   W12
 BYTE   N03  Fn3  v108
 BYTE   W04
 BYTE   An3  v096
 BYTE   W04
 BYTE   Cn4
 BYTE   W04
 BYTE   N23  Fn4  v104
 BYTE   W24
 BYTE   N11
 BYTE   W12
 BYTE   N03  Fn4  v108
 BYTE   W04
 BYTE   Gn4  v096
 BYTE   W04
 BYTE   Gs4
 BYTE   W04
 BYTE   N11  Gn4  v104
 BYTE   W12
 BYTE   Fn4  v096
 BYTE   W04
 BYTE   PATT
  POIN2 Label_1_0142B5C8
// 034   ----------------------------------------
 BYTE   W08
 BYTE   N11  Cs3  v104
 BYTE   W12
 BYTE   N03  Cs3  v108
 BYTE   W04
 BYTE   Fn3  v096
 BYTE   W04
 BYTE   Gs3
 BYTE   W04
 BYTE   N23  Cs4  v104
 BYTE   W24
 BYTE   N11  Cs3  v100
 BYTE   W12
 BYTE   N03  Cs3  v104
 BYTE   W04
 BYTE   Fn3  v096
 BYTE   W04
 BYTE   Gs3
 BYTE   W04
 BYTE   N23  Cs4  v100
 BYTE   W16
// 035   ----------------------------------------
 BYTE   W08
 BYTE   N11  Dn3  v104
 BYTE   W12
 BYTE   N03  Dn3  v108
 BYTE   W04
 BYTE   Fn3  v096
 BYTE   W04
 BYTE   As3
 BYTE   W04
 BYTE   N23  Dn4  v104
 BYTE   W24
 BYTE   N11  Dn3  v108
 BYTE   W12
 BYTE   N03  Dn3  v112
 BYTE   W04
 BYTE   Fn3  v100
 BYTE   W04
 BYTE   Cn4
 BYTE   W04
 BYTE   N23  En4  v108
 BYTE   W16
// 036   ----------------------------------------
 BYTE   W09
 BYTE   VOICE   61
 BYTE   VOL   46*song2C_mvl/mxv
 BYTE   PAN   c_v-14
 BYTE   N23  Gn4  v104
 BYTE   W24
 BYTE   Fn4  v096
 BYTE   W24
 BYTE   Gs4  v108
 BYTE   W24
 BYTE   Ds4  v104
 BYTE   W15
// 037   ----------------------------------------
 BYTE   W09
 BYTE   N23
 BYTE   W24
 BYTE   Cs4  v100
 BYTE   W24
 BYTE   Cn4  v096
 BYTE   W24
 BYTE   Cn4  v100
 BYTE   W15
// 038   ----------------------------------------
 BYTE   W09
 BYTE   Gn4  v104
 BYTE   W24
 BYTE   Fn4  v096
 BYTE   W24
 BYTE   Gs4  v108
 BYTE   W24
 BYTE   Ds4  v104
 BYTE   W15
// 039   ----------------------------------------
 BYTE   W09
 BYTE   N11  Ds4  v108
 BYTE   W12
 BYTE   Cs4  v096
 BYTE   W12
 BYTE   Cs4  v104
 BYTE   W12
 BYTE   Cn4  v096
 BYTE   W12
 BYTE   N23  As3  v104
 BYTE   W24
 BYTE   Gs3  v096
 BYTE   W15
// 040   ----------------------------------------
 BYTE   W09
 BYTE   Gs3  v104
 BYTE   W24
 BYTE   N11  Gn3  v108
 BYTE   W12
 BYTE   Gs3  v096
 BYTE   W12
 BYTE   N44  Cn4  v104
 BYTE   W36
 BYTE   W03
// 041   ----------------------------------------
 BYTE   W09
 BYTE   N23  Gs3  v096
 BYTE   W24
 BYTE   N22  Gn3  v092
 BYTE   W23
 BYTE   VOICE   41
 BYTE   VOL   66*song2C_mvl/mxv
 BYTE   PAN   c_v-25
 BYTE   N02  Ds4  v116
 BYTE   W03
 BYTE   Ds4  v104
 BYTE   W03
 BYTE   N02
 BYTE   W03
 BYTE   Ds4  v052
 BYTE   W03
 BYTE   Ds4  v040
 BYTE   W28
// 042   ----------------------------------------
 BYTE   W14
 BYTE   N04  Cs4  v104
 BYTE   W06
 BYTE   N02  Cs4  v052
 BYTE   W03
 BYTE   Cs4  v040
 BYTE   W03
 BYTE   N04  Fs4  v104
 BYTE   W06
 BYTE   N02  Fs4  v052
 BYTE   W03
 BYTE   Fs4  v040
 BYTE   W03
 BYTE   N04  Gs4  v104
 BYTE   W06
 BYTE   N02  Gs4  v052
 BYTE   W03
 BYTE   Gs4  v040
 BYTE   W03
 BYTE   N04  Fs4  v104
 BYTE   W06
 BYTE   N02  Ds4  v116
 BYTE   W03
 BYTE   Ds4  v104
 BYTE   W03
 BYTE   N02
 BYTE   W03
 BYTE   Ds4  v052
 BYTE   W03
 BYTE   Ds4  v040
 BYTE   W28
// 043   ----------------------------------------
 BYTE   W14
 BYTE   N04  Cs4  v104
 BYTE   W06
 BYTE   N02  Cs4  v052
 BYTE   W03
 BYTE   Cs4  v040
 BYTE   W03
 BYTE   N04  Fs4  v104
 BYTE   W06
 BYTE   N02  Fs4  v052
 BYTE   W03
 BYTE   Fs4  v040
 BYTE   W03
 BYTE   N04  Gs4  v104
 BYTE   W06
 BYTE   N02  Gs4  v052
 BYTE   W03
 BYTE   Gs4  v040
 BYTE   W03
 BYTE   N04  Ds4  v104
 BYTE   W06
 BYTE   N02  En4  v108
 BYTE   W03
 BYTE   En4  v044
 BYTE   W03
 BYTE   En4  v096
 BYTE   W03
 BYTE   N02
 BYTE   W03
 BYTE   En4  v108
 BYTE   W03
 BYTE   En4  v044
 BYTE   W03
 BYTE   En4  v096
 BYTE   W03
 BYTE   N02
 BYTE   W03
 BYTE   En4  v108
 BYTE   W03
 BYTE   En4  v044
 BYTE   W03
 BYTE   En4  v096
 BYTE   W03
 BYTE   N02
 BYTE   W03
 BYTE   En4  v108
 BYTE   W03
 BYTE   En4  v044
 BYTE   W01
// 044   ----------------------------------------
 BYTE   W02
 BYTE   En4  v096
 BYTE   W03
 BYTE   N02
 BYTE   W03
 BYTE   En4  v108
 BYTE   W03
 BYTE   En4  v044
 BYTE   W03
 BYTE   En4  v096
 BYTE   W03
 BYTE   N02
 BYTE   W03
 BYTE   En4  v108
 BYTE   W03
 BYTE   En4  v044
 BYTE   W03
 BYTE   En4  v096
 BYTE   W03
 BYTE   N02
 BYTE   W03
 BYTE   En4  v108
 BYTE   W03
 BYTE   En4  v044
 BYTE   W03
 BYTE   En4  v096
 BYTE   W03
 BYTE   N02
 BYTE   W03
 BYTE   En4  v108
 BYTE   W03
 BYTE   En4  v044
 BYTE   W03
 BYTE   En4  v096
 BYTE   W03
 BYTE   N02
 BYTE   W04
 BYTE   VOICE   56
 BYTE   VOL   40*song2C_mvl/mxv
 BYTE   PAN   c_v-43
 BYTE   N11  En4  v104
 BYTE   W12
 BYTE   An4
 BYTE   W12
 BYTE   Bn4
 BYTE   W12
 BYTE   Dn5
 BYTE   W03
// 045   ----------------------------------------
Label_1_0142B787:
 BYTE   W09
 BYTE   N17  Cs5  v104
 BYTE   W18
 BYTE   N02  Bn4  v108
 BYTE   W03
 BYTE   An4  v096
 BYTE   W03
 BYTE   N11  Bn4  v104
 BYTE   W12
 BYTE   Gn4
 BYTE   W12
 BYTE   En4
 BYTE   W12
 BYTE   An4
 BYTE   W12
 BYTE   Bn4
 BYTE   W12
 BYTE   Dn5
 BYTE   W03
 BYTE   PEND 
// 046   ----------------------------------------
Label_1_0142B7A2:
 BYTE   W09
 BYTE   N44  En5  v104
 BYTE   W48
 BYTE   N17
 BYTE   W18
 BYTE   N02  Dn5  v108
 BYTE   W03
 BYTE   En5  v096
 BYTE   W03
 BYTE   N11  Dn5  v104
 BYTE   W12
 BYTE   Gn5
 BYTE   W03
 BYTE   PEND 
// 047   ----------------------------------------
 BYTE   W09
 BYTE   N17  En5
 BYTE   W18
 BYTE   N02  Dn5  v108
 BYTE   W03
 BYTE   En5  v096
 BYTE   W03
 BYTE   N11  Dn5  v104
 BYTE   W12
 BYTE   Bn4
 BYTE   W12
 BYTE   N17  En5
 BYTE   W18
 BYTE   N02  Dn5  v108
 BYTE   W03
 BYTE   Cn5  v096
 BYTE   W03
 BYTE   N17  Dn5  v104
 BYTE   W15
// 048   ----------------------------------------
 BYTE   W03
 BYTE   N02  Cn5  v108
 BYTE   W03
 BYTE   Bn4  v096
 BYTE   W03
 BYTE   N17  Cn5  v104
 BYTE   W18
 BYTE   N02  Bn4  v108
 BYTE   W03
 BYTE   An4  v096
 BYTE   W03
 BYTE   N17  Bn4  v104
 BYTE   W18
 BYTE   N02  An4  v108
 BYTE   W03
 BYTE   Gn4  v096
 BYTE   W03
 BYTE   N11  En4  v104
 BYTE   W12
 BYTE   An4
 BYTE   W12
 BYTE   Bn4
 BYTE   W12
 BYTE   Dn5
 BYTE   W03
 BYTE   PATT
  POIN2 Label_1_0142B787
 BYTE   PATT
  POIN2 Label_1_0142B7A2
// 049   ----------------------------------------
 BYTE   W09
 BYTE   N17  En5  v104
 BYTE   W18
 BYTE   N02  Dn5  v108
 BYTE   W03
 BYTE   En5  v096
 BYTE   W03
 BYTE   N11  Dn5  v104
 BYTE   W12
 BYTE   Bn4
 BYTE   W12
 BYTE   N17  Cn5
 BYTE   W18
 BYTE   N02  Bn4  v108
 BYTE   W03
 BYTE   An4  v096
 BYTE   W03
 BYTE   N17  Cn5  v104
 BYTE   W15
// 050   ----------------------------------------
 BYTE   W03
 BYTE   N02  As4  v108
 BYTE   W03
 BYTE   Gs4  v096
 BYTE   W03
 BYTE   N68  Cn5  v104
 BYTE   W84
 BYTE   W03
// 051   ----------------------------------------
 BYTE   W09
 BYTE   VOICE   67
 BYTE   VOL   73*song2C_mvl/mxv
 BYTE   PAN   c_v-14
 BYTE   N02  Cn2
 BYTE   W03
 BYTE   Gn1  v100
 BYTE   W03
 BYTE   Gn2  v124
 BYTE   W03
 BYTE   Gn1  v088
 BYTE   W03
 BYTE   Fn2  v116
 BYTE   W03
 BYTE   Gn1  v076
 BYTE   W03
 BYTE   Ds2  v112
 BYTE   W03
 BYTE   Gn1  v088
 BYTE   W03
 BYTE   Dn2  v104
 BYTE   W03
 BYTE   Gn1  v084
 BYTE   W03
 BYTE   Cn2  v100
 BYTE   W03
 BYTE   Gn1  v096
 BYTE   W03
 BYTE   Bn1  v092
 BYTE   W03
 BYTE   Gn1  v100
 BYTE   W03
 BYTE   Cn2  v104
 BYTE   W03
 BYTE   Gn1  v096
 BYTE   W03
 BYTE   Cn2  v104
 BYTE   W03
 BYTE   Gn1  v100
 BYTE   W03
 BYTE   Gn2  v124
 BYTE   W03
 BYTE   Gn1  v088
 BYTE   W03
 BYTE   Fn2  v116
 BYTE   W03
 BYTE   Gn1  v076
 BYTE   W03
 BYTE   Ds2  v112
 BYTE   W03
 BYTE   Gn1  v088
 BYTE   W03
 BYTE   Dn2  v104
 BYTE   W03
 BYTE   Gn1  v084
 BYTE   W03
 BYTE   Cn2  v100
 BYTE   W03
 BYTE   Gn1  v096
 BYTE   W03
 BYTE   Bn1  v092
 BYTE   W03
// 052   ----------------------------------------
Label_1_0142B893:
 BYTE   N02  Gn1  v100
 BYTE   W03
 BYTE   Cn2  v104
 BYTE   W03
 BYTE   Gn1  v096
 BYTE   W03
 BYTE   Dn2  v092
 BYTE   W03
 BYTE   Fn1  v088
 BYTE   W03
 BYTE   Cn2  v124
 BYTE   W03
 BYTE   Fn1  v088
 BYTE   W03
 BYTE   Fn2  v116
 BYTE   W03
 BYTE   Fn1  v076
 BYTE   W03
 BYTE   Ds2  v112
 BYTE   W03
 BYTE   Fn1  v088
 BYTE   W03
 BYTE   Dn2  v104
 BYTE   W03
 BYTE   Fn1  v096
 BYTE   W03
 BYTE   Cn2  v100
 BYTE   W03
 BYTE   Fn1  v104
 BYTE   W03
 BYTE   As1  v108
 BYTE   W03
 BYTE   Fn1  v100
 BYTE   W03
 BYTE   Gs1  v112
 BYTE   W03
 BYTE   Fn1  v108
 BYTE   W03
 BYTE   Gs1  v104
 BYTE   W03
 BYTE   Fs1  v092
 BYTE   W03
 BYTE   Gs1  v096
 BYTE   W03
 BYTE   Cs2  v092
 BYTE   W03
 BYTE   Gs1  v104
 BYTE   W03
 BYTE   Fs1  v092
 BYTE   W03
 BYTE   Gs1  v096
 BYTE   W03
 BYTE   Cs2  v092
 BYTE   W03
 BYTE   Gs1  v104
 BYTE   W03
 BYTE   Fs1  v092
 BYTE   W03
 BYTE   Gs1  v096
 BYTE   W03
 BYTE   Cs2  v092
 BYTE   W03
 BYTE   Gs1  v104
 BYTE   W03
 BYTE   PEND 
// 053   ----------------------------------------
Label_1_0142B8F5:
 BYTE   N02  Fs1  v092
 BYTE   W03
 BYTE   Gs1  v096
 BYTE   W03
 BYTE   Cs2  v092
 BYTE   W03
 BYTE   Fs1  v104
 BYTE   W04
 BYTE   N01  Fs1  v052
 BYTE   W02
 BYTE   N02  Fs1  v108
 BYTE   W03
 BYTE   Gn1  v092
 BYTE   W03
 BYTE   Gs1  v104
 BYTE   W04
 BYTE   N01  Gs1  v052
 BYTE   W02
 BYTE   N02  Gs1  v108
 BYTE   W03
 BYTE   An1  v092
 BYTE   W03
 BYTE   As1  v104
 BYTE   W04
 BYTE   N01  As1  v052
 BYTE   W02
 BYTE   N02  As1  v108
 BYTE   W03
 BYTE   Bn1  v092
 BYTE   W03
 BYTE   Cn2  v104
 BYTE   W04
 BYTE   N01  Cn2  v052
 BYTE   W02
 BYTE   N02  Cn2  v108
 BYTE   W03
 BYTE   Cs2  v092
 BYTE   W03
 BYTE   Dn2  v104
 BYTE   W04
 BYTE   N01  Dn2  v052
 BYTE   W02
 BYTE   N02  Dn2  v108
 BYTE   W03
 BYTE   Ds2  v092
 BYTE   W03
 BYTE   En2  v104
 BYTE   W04
 BYTE   N01  En2  v052
 BYTE   W02
 BYTE   N02  En2  v108
 BYTE   W03
 BYTE   Fn2  v092
 BYTE   W03
 BYTE   Fs2  v104
 BYTE   W04
 BYTE   N01  Fs2  v052
 BYTE   W02
 BYTE   N02  Fs2  v108
 BYTE   W03
 BYTE   Gn2  v092
 BYTE   W03
 BYTE   Gs2  v104
 BYTE   W03
 BYTE   PEND 
// 054   ----------------------------------------
Label_1_0142B965:
 BYTE   W01
 BYTE   N01  Gs2  v052
 BYTE   W02
 BYTE   N02  Gs2  v108
 BYTE   W03
 BYTE   An2  v092
 BYTE   W03
 BYTE   Gs2  v104
 BYTE   W04
 BYTE   N01  Gs2  v052
 BYTE   W02
 BYTE   N02  Gs2  v108
 BYTE   W03
 BYTE   Fs2  v092
 BYTE   W03
 BYTE   Gs2  v104
 BYTE   W03
 BYTE   Cs3  v108
 BYTE   W03
 BYTE   Gs2  v104
 BYTE   W03
 BYTE   Fs2  v092
 BYTE   W03
 BYTE   Gs2  v104
 BYTE   W04
 BYTE   N01  Gs2  v052
 BYTE   W02
 BYTE   N02  Gs2  v108
 BYTE   W03
 BYTE   Fs2  v092
 BYTE   W03
 BYTE   Gs2  v104
 BYTE   W03
 BYTE   Cs3  v108
 BYTE   W03
 BYTE   Gs2  v104
 BYTE   W03
 BYTE   Fs2  v092
 BYTE   W03
 BYTE   Gs2  v104
 BYTE   W04
 BYTE   N01  Gs2  v052
 BYTE   W02
 BYTE   N02  Gs2  v108
 BYTE   W03
 BYTE   Fs2  v092
 BYTE   W03
 BYTE   Gs2  v104
 BYTE   W04
 BYTE   N01  Gs2  v052
 BYTE   W02
 BYTE   N02  Gs2  v108
 BYTE   W03
 BYTE   Fs2  v092
 BYTE   W03
 BYTE   Gs2  v104
 BYTE   W04
 BYTE   N01  Gs2  v052
 BYTE   W02
 BYTE   N02  Gs2  v108
 BYTE   W03
 BYTE   Fs2  v092
 BYTE   W03
 BYTE   Gs2  v104
 BYTE   W03
 BYTE   PEND 
// 055   ----------------------------------------
Label_1_0142B9D3:
 BYTE   W01
 BYTE   N01  Gs2  v052
 BYTE   W02
 BYTE   N02  Gs2  v108
 BYTE   W03
 BYTE   Fs2  v092
 BYTE   W03
 BYTE   Gs2  v104
 BYTE   W03
 BYTE   Fs2  v108
 BYTE   W03
 BYTE   Cs2  v104
 BYTE   W03
 BYTE   Fs2  v092
 BYTE   W03
 BYTE   Gs2  v104
 BYTE   W04
 BYTE   N01  Gs2  v052
 BYTE   W02
 BYTE   N02  Fs2  v108
 BYTE   W03
 BYTE   Cs3  v092
 BYTE   W03
 BYTE   Gs2  v096
 BYTE   W03
 BYTE   Cs3  v080
 BYTE   W03
 BYTE   Gs2  v104
 BYTE   W03
 BYTE   Cs3  v088
 BYTE   W03
 BYTE   Gs2  v116
 BYTE   W03
 BYTE   Cs3  v096
 BYTE   W03
 BYTE   Gs2  v124
 BYTE   W03
 BYTE   Cs3  v104
 BYTE   W03
 BYTE   Dn3
 BYTE   W04
 BYTE   N01  Dn3  v052
 BYTE   W02
 BYTE   N02  Cn3  v108
 BYTE   W03
 BYTE   As2  v096
 BYTE   W03
 BYTE   Cn3  v104
 BYTE   W04
 BYTE   N01  Cn3  v052
 BYTE   W02
 BYTE   N02  As2  v108
 BYTE   W03
 BYTE   An2  v096
 BYTE   W03
 BYTE   As2  v104
 BYTE   W04
 BYTE   N01  As2  v052
 BYTE   W02
 BYTE   N02  An2  v108
 BYTE   W03
 BYTE   Gn2  v096
 BYTE   W03
 BYTE   An2  v104
 BYTE   W03
 BYTE   PEND 
// 056   ----------------------------------------
Label_1_0142BA3E:
 BYTE   W01
 BYTE   N01  An2  v052
 BYTE   W02
 BYTE   N02  Gn2  v108
 BYTE   W03
 BYTE   Fn2  v096
 BYTE   W03
 BYTE   Gn2  v104
 BYTE   W04
 BYTE   N01  Gn2  v052
 BYTE   W02
 BYTE   N02  Fn2  v108
 BYTE   W03
 BYTE   Ds2  v096
 BYTE   W03
 BYTE   Fn2  v104
 BYTE   W04
 BYTE   N01  Fn2  v052
 BYTE   W02
 BYTE   N02  Ds2  v108
 BYTE   W03
 BYTE   Dn2  v096
 BYTE   W03
 BYTE   Ds2  v104
 BYTE   W04
 BYTE   N01  Ds2  v052
 BYTE   W02
 BYTE   N02  Dn2  v108
 BYTE   W03
 BYTE   Cn2  v096
 BYTE   W03
 BYTE   Dn2  v104
 BYTE   W04
 BYTE   N01  Dn2  v052
 BYTE   W02
 BYTE   N02  Cn2  v108
 BYTE   W03
 BYTE   As1  v096
 BYTE   W03
 BYTE   An1  v104
 BYTE   W04
 BYTE   N01  An1  v052
 BYTE   W02
 BYTE   N02  Gn1  v108
 BYTE   W03
 BYTE   An1  v096
 BYTE   W03
 BYTE   Cn2  v104
 BYTE   W04
 BYTE   N01  Cn2  v052
 BYTE   W02
 BYTE   N02  An1  v108
 BYTE   W03
 BYTE   Gn1  v096
 BYTE   W03
 BYTE   An1  v104
 BYTE   W04
 BYTE   N01  An1  v052
 BYTE   W02
 BYTE   N02  As1  v108
 BYTE   W03
 BYTE   Cn2  v096
 BYTE   W03
 BYTE   Dn2  v108
 BYTE   W03
 BYTE   PEND 
// 057   ----------------------------------------
Label_1_0142BAB0:
 BYTE   N02  Ds2  v096
 BYTE   W03
 BYTE   En2  v104
 BYTE   W03
 BYTE   Fn2  v096
 BYTE   W03
 BYTE   Gn2  v104
 BYTE   W04
 BYTE   N01  Gn2  v052
 BYTE   W02
 BYTE   N02  Fn2  v108
 BYTE   W03
 BYTE   Ds2  v096
 BYTE   W03
 BYTE   Fn2  v104
 BYTE   W04
 BYTE   N01  Fn2  v052
 BYTE   W02
 BYTE   N02  Cn3  v108
 BYTE   W03
 BYTE   Bn2  v096
 BYTE   W03
 BYTE   Cn3  v104
 BYTE   W04
 BYTE   N01  Cn3  v052
 BYTE   W02
 BYTE   N02  Gn2  v108
 BYTE   W03
 BYTE   Fn2  v096
 BYTE   W03
 BYTE   Gn2  v108
 BYTE   W04
 BYTE   N01  Gn2  v060
 BYTE   W02
 BYTE   N02  Ds2  v104
 BYTE   W04
 BYTE   N01  Ds2  v052
 BYTE   W02
 BYTE   N02  Dn2  v104
 BYTE   W04
 BYTE   N01  Dn2  v052
 BYTE   W02
 BYTE   N02  Cn2  v108
 BYTE   W03
 BYTE   Dn2  v096
 BYTE   W03
 BYTE   Fn2  v104
 BYTE   W04
 BYTE   N01  Fn2  v052
 BYTE   W02
 BYTE   N02  Ds2  v108
 BYTE   W03
 BYTE   Fn2  v096
 BYTE   W03
 BYTE   Dn2  v104
 BYTE   W04
 BYTE   N01  Dn2  v052
 BYTE   W02
 BYTE   N02  Gn1  v108
 BYTE   W03
 BYTE   Dn2  v096
 BYTE   W03
 BYTE   Fn2  v104
 BYTE   W03
 BYTE   PEND 
// 058   ----------------------------------------
Label_1_0142BB22:
 BYTE   W01
 BYTE   N01  Fn2  v052
 BYTE   W02
 BYTE   N02  Ds2  v108
 BYTE   W03
 BYTE   Dn2  v096
 BYTE   W03
 BYTE   Cn2  v104
 BYTE   W04
 BYTE   N01  Cn2  v052
 BYTE   W02
 BYTE   N02  Cs2  v108
 BYTE   W03
 BYTE   Dn2  v096
 BYTE   W03
 BYTE   Ds2  v104
 BYTE   W04
 BYTE   N01  Ds2  v052
 BYTE   W02
 BYTE   N02  En2  v108
 BYTE   W03
 BYTE   Fn2  v096
 BYTE   W03
 BYTE   Fs2  v104
 BYTE   W04
 BYTE   N01  Fs2  v052
 BYTE   W02
 BYTE   N02  Gn2  v108
 BYTE   W03
 BYTE   Gs2  v096
 BYTE   W03
 BYTE   An2  v104
 BYTE   W04
 BYTE   N01  An2  v052
 BYTE   W02
 BYTE   N02  As2  v108
 BYTE   W03
 BYTE   Bn2  v096
 BYTE   W03
 BYTE   As2  v104
 BYTE   W04
 BYTE   N01  As2  v052
 BYTE   W02
 BYTE   N02  An2  v108
 BYTE   W03
 BYTE   Gs2  v096
 BYTE   W03
 BYTE   Gn2  v104
 BYTE   W04
 BYTE   N01  Gn2  v052
 BYTE   W02
 BYTE   N02  Fs2  v108
 BYTE   W03
 BYTE   Fn2  v096
 BYTE   W03
 BYTE   En2  v104
 BYTE   W04
 BYTE   N01  En2  v052
 BYTE   W02
 BYTE   N02  Ds2  v108
 BYTE   W03
 BYTE   Dn2  v096
 BYTE   W03
 BYTE   Cs2  v104
 BYTE   W03
 BYTE   PEND 
// 059   ----------------------------------------
Label_1_0142BB94:
 BYTE   W01
 BYTE   N01  Cs2  v052
 BYTE   W02
 BYTE   N02  Cn2  v108
 BYTE   W03
 BYTE   As1  v096
 BYTE   W03
 BYTE   Cn2  v104
 BYTE   W04
 BYTE   N01  Cn2  v052
 BYTE   W02
 BYTE   N02  Cs2  v108
 BYTE   W03
 BYTE   Dn2  v096
 BYTE   W03
 BYTE   Ds2  v104
 BYTE   W04
 BYTE   N01  Ds2  v052
 BYTE   W02
 BYTE   N02  En2  v108
 BYTE   W03
 BYTE   Fn2  v096
 BYTE   W03
 BYTE   Fs2  v104
 BYTE   W04
 BYTE   N01  Fs2  v052
 BYTE   W02
 BYTE   N02  Gn2  v108
 BYTE   W03
 BYTE   Gs2  v096
 BYTE   W03
 BYTE   An2  v104
 BYTE   W04
 BYTE   N01  An2  v052
 BYTE   W02
 BYTE   N02  As2  v108
 BYTE   W03
 BYTE   Bn2  v096
 BYTE   W03
 BYTE   As2  v108
 BYTE   W03
 BYTE   An2  v096
 BYTE   W03
 BYTE   Gs2  v108
 BYTE   W03
 BYTE   Gn2  v096
 BYTE   W03
 BYTE   Fs2  v108
 BYTE   W03
 BYTE   Fn2  v096
 BYTE   W03
 BYTE   En2  v108
 BYTE   W03
 BYTE   Ds2  v096
 BYTE   W03
 BYTE   Dn2  v108
 BYTE   W03
 BYTE   Cs2  v096
 BYTE   W03
 BYTE   Cn2  v108
 BYTE   W03
 BYTE   Bn1  v096
 BYTE   W03
 BYTE   As1  v108
 BYTE   W03
 BYTE   PEND 
// 060   ----------------------------------------
 BYTE   An1  v096
 BYTE   W03
 BYTE   Gs1  v108
 BYTE   W03
 BYTE   Gn1  v096
 BYTE   W03
 BYTE   Cn2  v104
 BYTE   W03
 BYTE   Gn1  v100
 BYTE   W03
 BYTE   Gn2  v124
 BYTE   W03
 BYTE   Gn1  v088
 BYTE   W03
 BYTE   Fn2  v116
 BYTE   W03
 BYTE   Gn1  v076
 BYTE   W03
 BYTE   Ds2  v112
 BYTE   W03
 BYTE   Gn1  v088
 BYTE   W03
 BYTE   Dn2  v104
 BYTE   W03
 BYTE   Gn1  v084
 BYTE   W03
 BYTE   Cn2  v100
 BYTE   W03
 BYTE   Gn1  v096
 BYTE   W03
 BYTE   Bn1  v092
 BYTE   W03
 BYTE   Gn1  v100
 BYTE   W03
 BYTE   Cn2  v104
 BYTE   W03
 BYTE   Gn1  v096
 BYTE   W03
 BYTE   Cn2  v104
 BYTE   W03
 BYTE   Gn1  v100
 BYTE   W03
 BYTE   Gn2  v124
 BYTE   W03
 BYTE   Gn1  v088
 BYTE   W03
 BYTE   Fn2  v116
 BYTE   W03
 BYTE   Gn1  v076
 BYTE   W03
 BYTE   Ds2  v112
 BYTE   W03
 BYTE   Gn1  v088
 BYTE   W03
 BYTE   Dn2  v104
 BYTE   W03
 BYTE   Gn1  v084
 BYTE   W03
 BYTE   Cn2  v100
 BYTE   W03
 BYTE   Gn1  v096
 BYTE   W03
 BYTE   Bn1  v092
 BYTE   W03
 BYTE   PATT
  POIN2 Label_1_0142B893
 BYTE   PATT
  POIN2 Label_1_0142B8F5
 BYTE   PATT
  POIN2 Label_1_0142B965
 BYTE   PATT
  POIN2 Label_1_0142B9D3
 BYTE   PATT
  POIN2 Label_1_0142BA3E
 BYTE   PATT
  POIN2 Label_1_0142BAB0
 BYTE   PATT
  POIN2 Label_1_0142BB22
 BYTE   PATT
  POIN2 Label_1_0142BB94
// 061   ----------------------------------------
 BYTE   N02  An1  v096
 BYTE   W03
 BYTE   Gs1  v108
 BYTE   W03
 BYTE   Gn1  v096
 BYTE   W04
 BYTE   VOICE   56
 BYTE   VOL   60*song2C_mvl/mxv
 BYTE   PAN   c_v-14
 BYTE   N02  Cn4  v108
 BYTE   W03
 BYTE   Gn3  v092
 BYTE   W03
 BYTE   Cn4  v104
 BYTE   W03
 BYTE   Dn4  v096
 BYTE   W03
 BYTE   Ds4  v108
 BYTE   W03
 BYTE   Gn3  v092
 BYTE   W03
 BYTE   Ds4  v104
 BYTE   W03
 BYTE   Fn4  v092
 BYTE   W03
 BYTE   Ds4  v104
 BYTE   W03
 BYTE   Gn3  v092
 BYTE   W03
 BYTE   Fn4  v108
 BYTE   W03
 BYTE   Gn3  v096
 BYTE   W03
 BYTE   Gn4  v116
 BYTE   W03
 BYTE   Gn3  v104
 BYTE   W03
 BYTE   Fn4  v124
 BYTE   W03
 BYTE   Gn3  v108
 BYTE   W03
 BYTE   Cn4
 BYTE   W03
 BYTE   Gn3  v092
 BYTE   W03
 BYTE   Cn4  v104
 BYTE   W03
 BYTE   Dn4  v096
 BYTE   W03
 BYTE   Ds4  v108
 BYTE   W03
 BYTE   Gn3  v092
 BYTE   W03
 BYTE   Ds4  v104
 BYTE   W03
 BYTE   Fn4  v092
 BYTE   W03
 BYTE   Ds4  v104
 BYTE   W03
 BYTE   Gn3  v092
 BYTE   W03
 BYTE   Fn4  v108
 BYTE   W03
 BYTE   Gn3  v096
 BYTE   W03
 BYTE   Gn4  v116
 BYTE   W02
// 062   ----------------------------------------
Label_1_0142BCEF:
 BYTE   W01
 BYTE   N02  Gn3  v104
 BYTE   W03
 BYTE   Fn4  v124
 BYTE   W03
 BYTE   Gn3  v108
 BYTE   W03
 BYTE   Cn4
 BYTE   W03
 BYTE   Gn3  v092
 BYTE   W03
 BYTE   Cn4  v104
 BYTE   W03
 BYTE   Dn4  v096
 BYTE   W03
 BYTE   Ds4  v108
 BYTE   W03
 BYTE   Gn3  v092
 BYTE   W03
 BYTE   Ds4  v104
 BYTE   W03
 BYTE   Fn4  v092
 BYTE   W03
 BYTE   Ds4  v104
 BYTE   W03
 BYTE   Gn3  v092
 BYTE   W03
 BYTE   Fn4  v108
 BYTE   W03
 BYTE   Gn3  v096
 BYTE   W03
 BYTE   Gn4  v116
 BYTE   W03
 BYTE   Gn3  v104
 BYTE   W03
 BYTE   Fn4  v124
 BYTE   W03
 BYTE   Gn3  v108
 BYTE   W03
 BYTE   Cn4
 BYTE   W03
 BYTE   Gn3  v092
 BYTE   W03
 BYTE   Cn4  v104
 BYTE   W03
 BYTE   Dn4  v096
 BYTE   W03
 BYTE   Ds4  v108
 BYTE   W03
 BYTE   Gn3  v092
 BYTE   W03
 BYTE   Ds4  v104
 BYTE   W03
 BYTE   Fn4  v092
 BYTE   W03
 BYTE   Ds4  v104
 BYTE   W03
 BYTE   Gn3  v092
 BYTE   W03
 BYTE   Fn4  v108
 BYTE   W03
 BYTE   Gn3  v096
 BYTE   W03
 BYTE   Ds4  v116
 BYTE   W02
 BYTE   PEND 
// 063   ----------------------------------------
Label_1_0142BD50:
 BYTE   W01
 BYTE   N02  Gn3  v104
 BYTE   W03
 BYTE   Dn4  v124
 BYTE   W03
 BYTE   Gn3  v108
 BYTE   W03
 BYTE   Cn4
 BYTE   W03
 BYTE   Gn4  v092
 BYTE   W03
 BYTE   Gn3  v104
 BYTE   W03
 BYTE   Gn4  v096
 BYTE   W03
 BYTE   Cn4  v108
 BYTE   W03
 BYTE   Gn4  v092
 BYTE   W03
 BYTE   Dn4  v104
 BYTE   W03
 BYTE   Gn4  v092
 BYTE   W03
 BYTE   Ds4  v104
 BYTE   W03
 BYTE   Gn4  v092
 BYTE   W03
 BYTE   Gn3  v108
 BYTE   W03
 BYTE   Gn4  v096
 BYTE   W03
 BYTE   Ds4  v116
 BYTE   W03
 BYTE   Gn4  v104
 BYTE   W03
 BYTE   Fn4  v124
 BYTE   W03
 BYTE   Gn4  v108
 BYTE   W03
 BYTE   Ds4
 BYTE   W03
 BYTE   Gn4  v092
 BYTE   W03
 BYTE   Gn3  v104
 BYTE   W03
 BYTE   Gn4  v096
 BYTE   W03
 BYTE   Fn4  v108
 BYTE   W03
 BYTE   Gn4  v092
 BYTE   W03
 BYTE   Gn4  v104
 BYTE   W03
 BYTE   Gn4  v092
 BYTE   W03
 BYTE   Ds4  v104
 BYTE   W03
 BYTE   Gn4  v092
 BYTE   W03
 BYTE   Gn3  v108
 BYTE   W03
 BYTE   Gn4  v096
 BYTE   W03
 BYTE   Dn4  v116
 BYTE   W02
 BYTE   PEND 
// 064   ----------------------------------------
Label_1_0142BDB1:
 BYTE   W01
 BYTE   N02  Gn4  v104
 BYTE   W03
 BYTE   Gn3  v124
 BYTE   W03
 BYTE   Gn4  v108
 BYTE   W03
 BYTE   Cn4
 BYTE   W03
 BYTE   Gn4  v092
 BYTE   W03
 BYTE   Gn3  v104
 BYTE   W03
 BYTE   Gn4  v096
 BYTE   W03
 BYTE   Cn4  v108
 BYTE   W03
 BYTE   Gn4  v092
 BYTE   W03
 BYTE   Dn4  v104
 BYTE   W03
 BYTE   Gn4  v092
 BYTE   W03
 BYTE   Ds4  v104
 BYTE   W03
 BYTE   Gn4  v092
 BYTE   W03
 BYTE   Gn3  v108
 BYTE   W03
 BYTE   Gn4  v096
 BYTE   W03
 BYTE   Ds4  v116
 BYTE   W03
 BYTE   Gn4  v104
 BYTE   W03
 BYTE   Fn4  v124
 BYTE   W03
 BYTE   Gn4  v108
 BYTE   W03
 BYTE   Ds4
 BYTE   W03
 BYTE   Gn4  v092
 BYTE   W03
 BYTE   Gn3  v104
 BYTE   W03
 BYTE   Gn4  v096
 BYTE   W03
 BYTE   Fn4  v108
 BYTE   W03
 BYTE   Gn4  v092
 BYTE   W03
 BYTE   Gn4  v104
 BYTE   W03
 BYTE   Gn4  v092
 BYTE   W03
 BYTE   Ds4  v104
 BYTE   W03
 BYTE   Gn4  v092
 BYTE   W03
 BYTE   Gn3  v108
 BYTE   W03
 BYTE   Gn4  v096
 BYTE   W03
 BYTE   Dn4  v116
 BYTE   W02
 BYTE   PEND 
// 065   ----------------------------------------
 BYTE   W01
 BYTE   Gn4  v104
 BYTE   W03
 BYTE   Gn3  v124
 BYTE   W03
 BYTE   Gn4  v108
 BYTE   W03
 BYTE   Cn4
 BYTE   W03
 BYTE   Gn3  v092
 BYTE   W03
 BYTE   Cn4  v104
 BYTE   W03
 BYTE   Dn4  v096
 BYTE   W03
 BYTE   Ds4  v108
 BYTE   W03
 BYTE   Gn3  v092
 BYTE   W03
 BYTE   Ds4  v104
 BYTE   W03
 BYTE   Fn4  v092
 BYTE   W03
 BYTE   Ds4  v104
 BYTE   W03
 BYTE   Gn3  v092
 BYTE   W03
 BYTE   Fn4  v108
 BYTE   W03
 BYTE   Gn3  v096
 BYTE   W03
 BYTE   Gn4  v116
 BYTE   W03
 BYTE   Gn3  v104
 BYTE   W03
 BYTE   Fn4  v124
 BYTE   W03
 BYTE   Gn3  v108
 BYTE   W03
 BYTE   Cn4
 BYTE   W03
 BYTE   Gn3  v092
 BYTE   W03
 BYTE   Cn4  v104
 BYTE   W03
 BYTE   Dn4  v096
 BYTE   W03
 BYTE   Ds4  v108
 BYTE   W03
 BYTE   Gn3  v092
 BYTE   W03
 BYTE   Ds4  v104
 BYTE   W03
 BYTE   Fn4  v092
 BYTE   W03
 BYTE   Ds4  v104
 BYTE   W03
 BYTE   Gn3  v092
 BYTE   W03
 BYTE   Fn4  v108
 BYTE   W03
 BYTE   Gn3  v096
 BYTE   W03
 BYTE   Gn4  v116
 BYTE   W02
 BYTE   PATT
  POIN2 Label_1_0142BCEF
 BYTE   PATT
  POIN2 Label_1_0142BD50
 BYTE   PATT
  POIN2 Label_1_0142BDB1
// 066   ----------------------------------------
 BYTE   W01
 BYTE   N02  Gn4  v104
 BYTE   W03
 BYTE   Gn3  v124
 BYTE   W03
 BYTE   N01  Gn4  v108
 BYTE   W88
 BYTE   W01
// 067   ----------------------------------------
 BYTE   W56
 BYTE   W03
 BYTE   VOICE   42
 BYTE   VOL   36*song2C_mvl/mxv
 BYTE   PAN   c_v+0
 BYTE   N11  En4  v104
 BYTE   W12
 BYTE   Fs4
 BYTE   W12
 BYTE   N44  Gn4
 BYTE   W13
// 068   ----------------------------------------
 BYTE   W32
 BYTE   W03
 BYTE   N11  Fs4
 BYTE   W12
 BYTE   Gn4
 BYTE   W12
 BYTE   N44  An4
 BYTE   W36
 BYTE   W01
// 069   ----------------------------------------
 BYTE   W11
 BYTE   N11  Fs4
 BYTE   W12
 BYTE   Gn4
 BYTE   W12
 BYTE   TIE  Dn5
 BYTE   W60
 BYTE   W01
// 070   ----------------------------------------
 BYTE   W92
 BYTE   W02
 BYTE   EOT
 BYTE   W01
 BYTE   N11  Fn5
 BYTE   W01
// 071   ----------------------------------------
 BYTE   W11
 BYTE   Ds5
 BYTE   W12
 BYTE   Dn5
 BYTE   W12
 BYTE   N32  Cn5
 BYTE   W36
 BYTE   As4
 BYTE   W24
 BYTE   W01
// 072   ----------------------------------------
 BYTE   W11
 BYTE   N23  Gs4
 BYTE   W24
 BYTE   N11  Fn4
 BYTE   W12
 BYTE   N32  Gn4
 BYTE   W36
 BYTE   VOICE   60
 BYTE   VOL   46*song2C_mvl/mxv
 BYTE   PAN   c_v+14
 BYTE   N32  En3
 BYTE   W13
// 073   ----------------------------------------
 BYTE   W22
 BYTE   N23  Gn3
 BYTE   W24
 BYTE   N11  Cn4
 BYTE   W12
 BYTE   N23
 BYTE   W24
 BYTE   N11  Dn4
 BYTE   W12
 BYTE   N32  As3
 BYTE   W02
// 074   ----------------------------------------
 BYTE   W32
 BYTE   W02
 BYTE   N23
 BYTE   W24
 BYTE   N11  Cn4
 BYTE   W12
 BYTE   N23  Gn3
 BYTE   W24
 BYTE   N11  En3
 BYTE   W02
// 075   ----------------------------------------
 BYTE   W10
 BYTE   N23  As3
 BYTE   W24
 BYTE   N11  Cn4
 BYTE   W12
 BYTE   N32  Gn3
 BYTE   W36
 BYTE   Fn3
 BYTE   W14
// 076   ----------------------------------------
 BYTE   W22
 BYTE   N11  Fn4
 BYTE   W12
 BYTE   En4
 BYTE   W12
 BYTE   Dn4
 BYTE   W12
 BYTE   N32  En4
 BYTE   W36
 BYTE   N23  Cn4
 BYTE   W02
// 077   ----------------------------------------
 BYTE   W22
 BYTE   N11  En3
 BYTE   W12
 BYTE   N23  Fn3
 BYTE   W24
 BYTE   N11  Dn4
 BYTE   W12
 BYTE   N23  Bn3
 BYTE   W24
 BYTE   N11  Gn3
 BYTE   W02
// 078   ----------------------------------------
 BYTE   W10
 BYTE   N23  Bn3
 BYTE   W24
 BYTE   N11  Gn3
 BYTE   W12
 BYTE   N32  En3
 BYTE   W36
 BYTE   N23  Fn4
 BYTE   W14
// 079   ----------------------------------------
 BYTE   W10
 BYTE   N11  An3
 BYTE   W12
 BYTE   N23  Gn3
 BYTE   W24
 BYTE   N11  Fn4
 BYTE   W12
 BYTE   N32  En4
 BYTE   W36
 BYTE   N23  An3
 BYTE   W02
// 080   ----------------------------------------
 BYTE   W22
 BYTE   N11  Bn3
 BYTE   W12
 BYTE   Cn4
 BYTE   W12
 BYTE   Fn3
 BYTE   W12
 BYTE   Gn3
 BYTE   W12
 BYTE   An3
 BYTE   W12
 BYTE   Bn3
 BYTE   W12
 BYTE   An3
 BYTE   W02
// 081   ----------------------------------------
 BYTE   W10
 BYTE   N32  Gn3
 BYTE   W36
 BYTE   Dn3
 BYTE   W36
 BYTE   N23  Fn3
 BYTE   W14
// 082   ----------------------------------------
 BYTE   W10
 BYTE   N11
 BYTE   W12
 BYTE   Gn3
 BYTE   W12
 BYTE   An3
 BYTE   W12
 BYTE   Bn3
 BYTE   W12
 BYTE   N23  Cn4
 BYTE   W24
 BYTE   N11  Bn3
 BYTE   W12
 BYTE   N23  An3
 BYTE   W02
// 083   ----------------------------------------
 BYTE   W22
 BYTE   N11  Gn3
 BYTE   W12
 BYTE   N32  Fn3
 BYTE   W36
 BYTE   N23  Bn3
 BYTE   W24
 BYTE   N11  An3
 BYTE   W02
// 084   ----------------------------------------
 BYTE   W10
 BYTE   N32  Gn3
 BYTE   W36
 BYTE   Dn3
 BYTE   W36
 BYTE   En3
 BYTE   W14
// 085   ----------------------------------------
 BYTE   W22
 BYTE   N23  Gn3
 BYTE   W24
 BYTE   N11  Cn4
 BYTE   W12
 BYTE   N32
 BYTE   W36
 BYTE   Fn3
 BYTE   W02
// 086   ----------------------------------------
 BYTE   W32
 BYTE   W02
 BYTE   N32
 BYTE   W36
 BYTE   N11  Gn3
 BYTE   W12
 BYTE   An3
 BYTE   W12
 BYTE   Bn3
 BYTE   W02
// 087   ----------------------------------------
 BYTE   W10
 BYTE   N32  An3
 BYTE   W36
 BYTE   Gn3
 BYTE   W36
 BYTE   En3
 BYTE   W14
// 088   ----------------------------------------
 BYTE   W22
 BYTE   N23  Gn3
 BYTE   W24
 BYTE   N11  Cn4
 BYTE   W12
 BYTE   N32  En4
 BYTE   W36
 BYTE   N23  Dn4
 BYTE   W02
// 089   ----------------------------------------
 BYTE   W22
 BYTE   N11  Cn4
 BYTE   W12
 BYTE   N32  Fn3
 BYTE   W36
 BYTE   N11  Gn3
 BYTE   W12
 BYTE   An3
 BYTE   W12
 BYTE   Bn3
 BYTE   W02
// 090   ----------------------------------------
 BYTE   W10
 BYTE   N56  En3
 BYTE   W60
 BYTE   N11
 BYTE   W12
 BYTE   N32  Fn3
 BYTE   W14
// 091   ----------------------------------------
 BYTE   W22
 BYTE   N11  Dn4
 BYTE   W12
 BYTE   Bn3
 BYTE   W12
 BYTE   Gn3
 BYTE   W12
 BYTE   N23  En4
 BYTE   W24
 BYTE   N11  Bn3
 BYTE   W12
 BYTE   N23  En3
 BYTE   W02
// 092   ----------------------------------------
 BYTE   W22
 BYTE   N11  Gn3
 BYTE   W12
 BYTE   N32  Fn3
 BYTE   W36
 BYTE   N11  Fn4
 BYTE   W12
 BYTE   En4
 BYTE   W12
 BYTE   Bn3
 BYTE   W02
// 093   ----------------------------------------
 BYTE   W10
 BYTE   N68  Cn4
 BYTE   W72
 BYTE   N32  Fn3
 BYTE   W14
// 094   ----------------------------------------
 BYTE   W22
 BYTE   N11  Dn4
 BYTE   W12
 BYTE   Bn3
 BYTE   W12
 BYTE   Gn3
 BYTE   W12
 BYTE   N23  En4
 BYTE   W24
 BYTE   N11  Bn3
 BYTE   W12
 BYTE   N23  An4
 BYTE   W02
// 095   ----------------------------------------
 BYTE   W22
 BYTE   N11  Gn4
 BYTE   W12
 BYTE   N32  Fn4
 BYTE   W36
 BYTE   N11  Gs4
 BYTE   W12
 BYTE   An4
 BYTE   W12
 BYTE   Bn4
 BYTE   W02
// 096   ----------------------------------------
 BYTE   W10
 BYTE   N32  An4
 BYTE   W36
 BYTE   Gn4
 BYTE   W48
 BYTE   W02
// 097   ----------------------------------------
 BYTE   W96
// 098   ----------------------------------------
 BYTE   W68
 BYTE   W02
 BYTE   FINE

//**************** Track 3 (Midi-Chn.2) ****************//

song2C_003:
// 000   ----------------------------------------
 BYTE   KEYSH   song2C_key+0
 BYTE   W06
 BYTE   VOICE   41
 BYTE   VOL   73*song2C_mvl/mxv
 BYTE   PAN   c_v+14
 BYTE   N03  Fn3  v108
 BYTE   W04
 BYTE   Fn3  v096
 BYTE   W04
 BYTE   As3  v104
 BYTE   W04
 BYTE   N11  Dn4  v108
 BYTE   W24
 BYTE   N03  Fn3
 BYTE   W04
 BYTE   Fn3  v096
 BYTE   W04
 BYTE   As3  v104
 BYTE   W04
 BYTE   N10  Dn4  v108
 BYTE   W18
 BYTE   N05  As3
 BYTE   W06
 BYTE   Fn3  v096
 BYTE   W06
 BYTE   As3  v104
 BYTE   W06
 BYTE   N11  Dn4  v108
 BYTE   W06
// 001   ----------------------------------------
 BYTE   W12
 BYTE   N05  As3
 BYTE   W06
 BYTE   Fn3  v096
 BYTE   W06
 BYTE   As3  v104
 BYTE   W06
 BYTE   N68  Cn4  v108
 BYTE   W66
// 002   ----------------------------------------
 BYTE   W12
 BYTE   VOICE   61
 BYTE   VOL   73*song2C_mvl/mxv
 BYTE   PAN   c_v-25
 BYTE   N11  Ds3
 BYTE   W12
 BYTE   Ds3  v104
 BYTE   W12
 BYTE   N11
 BYTE   W12
 BYTE   N11
 BYTE   W12
 BYTE   Fn3  v108
 BYTE   W12
 BYTE   Fn3  v104
 BYTE   W12
 BYTE   N11
 BYTE   W12
// 003   ----------------------------------------
Label_2_0142C068:
 BYTE   N11  Fn3  v104
 BYTE   W12
 BYTE   Ds3  v108
 BYTE   W12
 BYTE   Ds3  v104
 BYTE   W12
 BYTE   N11
 BYTE   W12
 BYTE   N11
 BYTE   W12
 BYTE   Fn3  v108
 BYTE   W12
 BYTE   Fn3  v104
 BYTE   W12
 BYTE   N11
 BYTE   W12
 BYTE   PEND 
 BYTE   PATT
  POIN2 Label_2_0142C068
// 004   ----------------------------------------
Label_2_0142C084:
 BYTE   N11  Fn3  v104
 BYTE   W12
 BYTE   Gn3  v108
 BYTE   W12
 BYTE   Gn3  v104
 BYTE   W12
 BYTE   N11
 BYTE   W12
 BYTE   N11
 BYTE   W12
 BYTE   As3  v108
 BYTE   W12
 BYTE   As3  v104
 BYTE   W12
 BYTE   N11
 BYTE   W12
 BYTE   PEND 
// 005   ----------------------------------------
Label_2_0142C09B:
 BYTE   N11  As3  v104
 BYTE   W12
 BYTE   Ds3  v108
 BYTE   W12
 BYTE   Ds3  v104
 BYTE   W12
 BYTE   N11
 BYTE   W12
 BYTE   N11
 BYTE   W12
 BYTE   Fn3  v108
 BYTE   W12
 BYTE   Fn3  v104
 BYTE   W12
 BYTE   N11
 BYTE   W12
 BYTE   PEND 
 BYTE   PATT
  POIN2 Label_2_0142C068
 BYTE   PATT
  POIN2 Label_2_0142C068
 BYTE   PATT
  POIN2 Label_2_0142C084
 BYTE   PATT
  POIN2 Label_2_0142C09B
 BYTE   PATT
  POIN2 Label_2_0142C068
 BYTE   PATT
  POIN2 Label_2_0142C068
 BYTE   PATT
  POIN2 Label_2_0142C084
// 006   ----------------------------------------
 BYTE   N05  As3  v104
 BYTE   W06
 BYTE   TIE  As3  v108
 BYTE   W90
// 007   ----------------------------------------
 BYTE   W52
 BYTE   W01
 BYTE   EOT
 BYTE   W42
 BYTE   W01
// 008   ----------------------------------------
 BYTE   W07
 BYTE   VOICE   67
 BYTE   VOL   66*song2C_mvl/mxv
 BYTE   PAN   c_v+14
 BYTE   N02  Cn3  v096
 BYTE   W03
 BYTE   PAN   c_v+34
 BYTE   N01  Cn3  v040
 BYTE   W03
 BYTE   PAN   c_v+14
 BYTE   N03  Cn3  v108
 BYTE   W04
 BYTE   PAN   c_v+34
 BYTE   N03  Cn3  v044
 BYTE   W04
 BYTE   PAN   c_v+49
 BYTE   N02  Cn3  v040
 BYTE   W04
 BYTE   PAN   c_v+0
 BYTE   N03  Cn3  v104
 BYTE   W04
 BYTE   PAN   c_v+25
 BYTE   N03  Cn3  v044
 BYTE   W04
 BYTE   PAN   c_v+43
 BYTE   N02  Cn3  v040
 BYTE   W04
 BYTE   PAN   c_v+14
 BYTE   N03  As2  v104
 BYTE   W04
 BYTE   PAN   c_v+34
 BYTE   N03  As2  v044
 BYTE   W04
 BYTE   PAN   c_v+49
 BYTE   N02  As2  v040
 BYTE   W04
 BYTE   PAN   c_v+25
 BYTE   N02  As2  v096
 BYTE   W03
 BYTE   PAN   c_v+43
 BYTE   N01  As2  v040
 BYTE   W03
 BYTE   PAN   c_v+14
 BYTE   N02  Cn3  v096
 BYTE   W03
 BYTE   PAN   c_v+34
 BYTE   N01  Cn3  v040
 BYTE   W03
 BYTE   PAN   c_v+14
 BYTE   N03  Cn3  v108
 BYTE   W04
 BYTE   PAN   c_v+34
 BYTE   N03  Cn3  v044
 BYTE   W04
 BYTE   PAN   c_v+49
 BYTE   N02  Cn3  v040
 BYTE   W04
 BYTE   PAN   c_v+0
 BYTE   N03  Cn3  v104
 BYTE   W04
 BYTE   PAN   c_v+25
 BYTE   N03  Cn3  v044
 BYTE   W04
 BYTE   PAN   c_v+43
 BYTE   N02  Cn3  v040
 BYTE   W04
 BYTE   PAN   c_v+14
 BYTE   N03  Ds3  v104
 BYTE   W04
 BYTE   PAN   c_v+34
 BYTE   N03  Ds3  v044
 BYTE   W04
 BYTE   PAN   c_v+49
 BYTE   N02  Ds3  v040
 BYTE   W03
// 009   ----------------------------------------
Label_2_0142C177:
 BYTE   W01
 BYTE   PAN   c_v+25
 BYTE   N02  Ds3  v096
 BYTE   W03
 BYTE   PAN   c_v+43
 BYTE   N01  Ds3  v040
 BYTE   W03
 BYTE   N02  Cn3  v096
 BYTE   W03
 BYTE   PAN   c_v+34
 BYTE   N01  Cn3  v040
 BYTE   W03
 BYTE   PAN   c_v+14
 BYTE   N03  Cn3  v108
 BYTE   W04
 BYTE   PAN   c_v+34
 BYTE   N03  Cn3  v044
 BYTE   W04
 BYTE   PAN   c_v+49
 BYTE   N02  Cn3  v040
 BYTE   W04
 BYTE   PAN   c_v+0
 BYTE   N03  Cn3  v104
 BYTE   W04
 BYTE   PAN   c_v+25
 BYTE   N03  Cn3  v044
 BYTE   W04
 BYTE   PAN   c_v+43
 BYTE   N02  Cn3  v040
 BYTE   W04
 BYTE   PAN   c_v+14
 BYTE   N03  As2  v104
 BYTE   W04
 BYTE   PAN   c_v+34
 BYTE   N03  As2  v044
 BYTE   W04
 BYTE   PAN   c_v+49
 BYTE   N02  As2  v040
 BYTE   W04
 BYTE   PAN   c_v+25
 BYTE   N02  As2  v096
 BYTE   W03
 BYTE   PAN   c_v+43
 BYTE   N01  As2  v040
 BYTE   W03
 BYTE   PAN   c_v+14
 BYTE   N02  Cn3  v096
 BYTE   W03
 BYTE   PAN   c_v+34
 BYTE   N01  Cn3  v040
 BYTE   W03
 BYTE   PAN   c_v+14
 BYTE   N03  Cn3  v108
 BYTE   W04
 BYTE   PAN   c_v+34
 BYTE   N03  Cn3  v044
 BYTE   W04
 BYTE   PAN   c_v+49
 BYTE   N02  Cn3  v040
 BYTE   W04
 BYTE   PAN   c_v+0
 BYTE   N03  Cn3  v104
 BYTE   W04
 BYTE   PAN   c_v+25
 BYTE   N03  Cn3  v044
 BYTE   W04
 BYTE   PAN   c_v+43
 BYTE   N02  Cn3  v040
 BYTE   W04
 BYTE   PAN   c_v+14
 BYTE   N03  Ds3  v104
 BYTE   W04
 BYTE   PAN   c_v+34
 BYTE   N03  Ds3  v044
 BYTE   W04
 BYTE   PAN   c_v+49
 BYTE   N02  Ds3  v040
 BYTE   W03
 BYTE   PEND 
// 010   ----------------------------------------
 BYTE   W01
 BYTE   PAN   c_v+25
 BYTE   N02  Ds3  v096
 BYTE   W03
 BYTE   PAN   c_v+43
 BYTE   N01  Ds3  v040
 BYTE   W03
 BYTE   VOL   58*song2C_mvl/mxv
 BYTE   N02  Cn3  v096
 BYTE   W03
 BYTE   PAN   c_v+34
 BYTE   N01  Cn3  v040
 BYTE   W03
 BYTE   PAN   c_v+14
 BYTE   N03  Cn3  v108
 BYTE   W04
 BYTE   PAN   c_v+34
 BYTE   N03  Cn3  v044
 BYTE   W04
 BYTE   PAN   c_v+49
 BYTE   N02  Cn3  v040
 BYTE   W04
 BYTE   PAN   c_v+0
 BYTE   N03  Cn3  v104
 BYTE   W04
 BYTE   PAN   c_v+25
 BYTE   N03  Cn3  v044
 BYTE   W04
 BYTE   PAN   c_v+43
 BYTE   N02  Cn3  v040
 BYTE   W04
 BYTE   PAN   c_v+14
 BYTE   N03  As2  v104
 BYTE   W04
 BYTE   PAN   c_v+34
 BYTE   N03  As2  v044
 BYTE   W04
 BYTE   PAN   c_v+49
 BYTE   N02  As2  v040
 BYTE   W04
 BYTE   PAN   c_v+25
 BYTE   N02  As2  v096
 BYTE   W03
 BYTE   PAN   c_v+43
 BYTE   N01  As2  v040
 BYTE   W03
 BYTE   PAN   c_v+14
 BYTE   N02  Cn3  v096
 BYTE   W03
 BYTE   PAN   c_v+34
 BYTE   N01  Cn3  v040
 BYTE   W03
 BYTE   PAN   c_v+14
 BYTE   N03  Cn3  v108
 BYTE   W04
 BYTE   PAN   c_v+34
 BYTE   N03  Cn3  v044
 BYTE   W04
 BYTE   PAN   c_v+49
 BYTE   N02  Cn3  v040
 BYTE   W04
 BYTE   PAN   c_v+0
 BYTE   N03  Cn3  v104
 BYTE   W04
 BYTE   PAN   c_v+25
 BYTE   N03  Cn3  v044
 BYTE   W04
 BYTE   PAN   c_v+43
 BYTE   N02  Cn3  v040
 BYTE   W04
 BYTE   PAN   c_v+14
 BYTE   N03  Ds3  v104
 BYTE   W04
 BYTE   PAN   c_v+34
 BYTE   N03  Ds3  v044
 BYTE   W04
 BYTE   PAN   c_v+49
 BYTE   N02  Ds3  v040
 BYTE   W03
 BYTE   PATT
  POIN2 Label_2_0142C177
 BYTE   PATT
  POIN2 Label_2_0142C177
 BYTE   PATT
  POIN2 Label_2_0142C177
// 011   ----------------------------------------
 BYTE   W01
 BYTE   PAN   c_v+25
 BYTE   N02  Ds3  v096
 BYTE   W03
 BYTE   PAN   c_v+43
 BYTE   N01  Ds3  v040
 BYTE   W03
 BYTE   VOL   53*song2C_mvl/mxv
 BYTE   N03  Cn4  v104
 BYTE   W06
 BYTE   N02  Fn3  v092
 BYTE   W03
 BYTE   N02
 BYTE   W03
 BYTE   N04
 BYTE   W06
 BYTE   N03  Cn4  v104
 BYTE   W06
 BYTE   N02  Fn3  v092
 BYTE   W03
 BYTE   N02
 BYTE   W03
 BYTE   N04
 BYTE   W06
 BYTE   N03  Cn4  v104
 BYTE   W06
 BYTE   Fn3  v092
 BYTE   W06
 BYTE   Cn4  v104
 BYTE   W06
 BYTE   N02  Fn3  v092
 BYTE   W03
 BYTE   N02
 BYTE   W03
 BYTE   N04
 BYTE   W06
 BYTE   N03  Cn4  v104
 BYTE   W06
 BYTE   N02  Fn3  v092
 BYTE   W03
 BYTE   N02
 BYTE   W03
 BYTE   N04
 BYTE   W06
 BYTE   N03  Cn4  v104
 BYTE   W05
// 012   ----------------------------------------
 BYTE   W01
 BYTE   Fn4  v092
 BYTE   W06
 BYTE   Fn4  v104
 BYTE   W06
 BYTE   N02  As3  v092
 BYTE   W03
 BYTE   N02
 BYTE   W03
 BYTE   N04
 BYTE   W06
 BYTE   N03  Fn4  v104
 BYTE   W06
 BYTE   N02  As3  v092
 BYTE   W03
 BYTE   N02
 BYTE   W03
 BYTE   N04
 BYTE   W06
 BYTE   N03  Fn4  v104
 BYTE   W06
 BYTE   As3  v092
 BYTE   W06
 BYTE   Fn4  v104
 BYTE   W06
 BYTE   N02  As3  v092
 BYTE   W03
 BYTE   N02
 BYTE   W03
 BYTE   N04
 BYTE   W06
 BYTE   N03  Fn4  v104
 BYTE   W06
 BYTE   N02  As3  v092
 BYTE   W03
 BYTE   N02
 BYTE   W03
 BYTE   N04
 BYTE   W06
 BYTE   N03  Fn4  v104
 BYTE   W05
// 013   ----------------------------------------
 BYTE   W01
 BYTE   As3  v092
 BYTE   W06
 BYTE   VOICE   67
 BYTE   VOL   61*song2C_mvl/mxv
 BYTE   PAN   c_v-14
 BYTE   N05  An2  v108
 BYTE   W06
 BYTE   PAN   c_v-34
 BYTE   N02  An2  v044
 BYTE   W03
 BYTE   PAN   c_v-49
 BYTE   N02  An2  v040
 BYTE   W03
 BYTE   PAN   c_v-25
 BYTE   N05  An2  v104
 BYTE   W06
 BYTE   PAN   c_v-34
 BYTE   N02  An2  v040
 BYTE   W03
 BYTE   PAN   c_v-49
 BYTE   N02  An2  v032
 BYTE   W03
 BYTE   PAN   c_v-25
 BYTE   N05  An2  v104
 BYTE   W06
 BYTE   PAN   c_v-34
 BYTE   N02  An2  v040
 BYTE   W03
 BYTE   PAN   c_v-49
 BYTE   N02  An2  v032
 BYTE   W03
 BYTE   PAN   c_v-25
 BYTE   N05  An2  v104
 BYTE   W06
 BYTE   PAN   c_v-34
 BYTE   N02  An2  v040
 BYTE   W03
 BYTE   PAN   c_v-49
 BYTE   N02  An2  v032
 BYTE   W03
 BYTE   PAN   c_v-25
 BYTE   N05  Gn2  v108
 BYTE   W06
 BYTE   PAN   c_v-34
 BYTE   N02  Gn2  v044
 BYTE   W03
 BYTE   PAN   c_v-49
 BYTE   N02  Gn2  v040
 BYTE   W03
 BYTE   PAN   c_v-25
 BYTE   N05  Gn2  v104
 BYTE   W06
 BYTE   PAN   c_v-34
 BYTE   N02  Gn2  v040
 BYTE   W03
 BYTE   PAN   c_v-49
 BYTE   N02  Gn2  v032
 BYTE   W03
 BYTE   PAN   c_v-25
 BYTE   N05  Gn2  v104
 BYTE   W06
 BYTE   PAN   c_v-34
 BYTE   N02  Gn2  v040
 BYTE   W03
 BYTE   PAN   c_v-49
 BYTE   N02  Gn2  v032
 BYTE   W03
 BYTE   PAN   c_v-25
 BYTE   N05  Gn2  v104
 BYTE   W05
// 014   ----------------------------------------
Label_2_0142C3D1:
 BYTE   W01
 BYTE   PAN   c_v-34
 BYTE   N02  Gn2  v040
 BYTE   W03
 BYTE   PAN   c_v-49
 BYTE   N02  Gn2  v032
 BYTE   W03
 BYTE   PAN   c_v-25
 BYTE   N05  An2  v108
 BYTE   W06
 BYTE   PAN   c_v-34
 BYTE   N02  An2  v044
 BYTE   W03
 BYTE   PAN   c_v-49
 BYTE   N02  An2  v040
 BYTE   W03
 BYTE   PAN   c_v-25
 BYTE   N05  An2  v104
 BYTE   W06
 BYTE   PAN   c_v-34
 BYTE   N02  An2  v040
 BYTE   W03
 BYTE   PAN   c_v-49
 BYTE   N02  An2  v032
 BYTE   W03
 BYTE   PAN   c_v-25
 BYTE   N05  An2  v104
 BYTE   W06
 BYTE   PAN   c_v-34
 BYTE   N02  An2  v040
 BYTE   W03
 BYTE   PAN   c_v-49
 BYTE   N02  An2  v032
 BYTE   W03
 BYTE   PAN   c_v-25
 BYTE   N05  An2  v104
 BYTE   W06
 BYTE   PAN   c_v-34
 BYTE   N02  An2  v040
 BYTE   W03
 BYTE   PAN   c_v-49
 BYTE   N02  An2  v032
 BYTE   W03
 BYTE   PAN   c_v-25
 BYTE   N05  Gn2  v108
 BYTE   W06
 BYTE   PAN   c_v-34
 BYTE   N02  Gn2  v044
 BYTE   W03
 BYTE   PAN   c_v-49
 BYTE   N02  Gn2  v040
 BYTE   W03
 BYTE   PAN   c_v-25
 BYTE   N05  Gn2  v104
 BYTE   W06
 BYTE   PAN   c_v-34
 BYTE   N02  Gn2  v040
 BYTE   W03
 BYTE   PAN   c_v-49
 BYTE   N02  Gn2  v032
 BYTE   W09
 BYTE   PAN   c_v-25
 BYTE   N05  Gn2  v104
 BYTE   W06
 BYTE   PAN   c_v-34
 BYTE   N02  Gn2  v040
 BYTE   W03
 BYTE   PAN   c_v-49
 BYTE   N02  Gn2  v032
 BYTE   W02
 BYTE   PEND 
// 015   ----------------------------------------
 BYTE   W01
 BYTE   PAN   c_v-25
 BYTE   N03  Gn2  v104
 BYTE   W04
 BYTE   PAN   c_v-34
 BYTE   N01  Gn2  v040
 BYTE   W02
 BYTE   PAN   c_v-25
 BYTE   N05  An2  v108
 BYTE   W06
 BYTE   PAN   c_v-34
 BYTE   N02  An2  v044
 BYTE   W03
 BYTE   PAN   c_v-49
 BYTE   N02  An2  v040
 BYTE   W03
 BYTE   PAN   c_v-25
 BYTE   N05  An2  v104
 BYTE   W06
 BYTE   PAN   c_v-34
 BYTE   N02  An2  v040
 BYTE   W03
 BYTE   PAN   c_v-49
 BYTE   N02  An2  v032
 BYTE   W03
 BYTE   PAN   c_v-25
 BYTE   N05  An2  v104
 BYTE   W06
 BYTE   PAN   c_v-34
 BYTE   N02  An2  v040
 BYTE   W03
 BYTE   PAN   c_v-49
 BYTE   N02  An2  v032
 BYTE   W03
 BYTE   PAN   c_v-25
 BYTE   N05  An2  v104
 BYTE   W06
 BYTE   PAN   c_v-34
 BYTE   N02  An2  v040
 BYTE   W03
 BYTE   PAN   c_v-49
 BYTE   N02  An2  v032
 BYTE   W03
 BYTE   PAN   c_v-25
 BYTE   N05  Gn2  v108
 BYTE   W06
 BYTE   PAN   c_v-34
 BYTE   N02  Gn2  v044
 BYTE   W03
 BYTE   PAN   c_v-49
 BYTE   N02  Gn2  v040
 BYTE   W03
 BYTE   PAN   c_v-25
 BYTE   N05  Gn2  v104
 BYTE   W06
 BYTE   PAN   c_v-34
 BYTE   N02  Gn2  v040
 BYTE   W03
 BYTE   PAN   c_v-49
 BYTE   N02  Gn2  v032
 BYTE   W03
 BYTE   PAN   c_v-25
 BYTE   N05  Gn2  v104
 BYTE   W06
 BYTE   PAN   c_v-34
 BYTE   N02  Gn2  v040
 BYTE   W03
 BYTE   PAN   c_v-49
 BYTE   N02  Gn2  v032
 BYTE   W03
 BYTE   PAN   c_v-25
 BYTE   N05  Gn2  v104
 BYTE   W05
 BYTE   PATT
  POIN2 Label_2_0142C3D1
// 016   ----------------------------------------
 BYTE   W01
 BYTE   PAN   c_v-25
 BYTE   N03  Gn2  v104
 BYTE   W04
 BYTE   PAN   c_v-34
 BYTE   N01  Gn2  v040
 BYTE   W02
 BYTE   PAN   c_v-25
 BYTE   VOL   64*song2C_mvl/mxv
 BYTE   N05  Fs2  v108
 BYTE   W06
 BYTE   PAN   c_v-34
 BYTE   N02  Fs2  v044
 BYTE   W03
 BYTE   PAN   c_v-49
 BYTE   N02  Fs2  v040
 BYTE   W03
 BYTE   PAN   c_v-25
 BYTE   N05  Fs2  v104
 BYTE   W06
 BYTE   PAN   c_v-34
 BYTE   N02  Fs2  v040
 BYTE   W03
 BYTE   PAN   c_v-49
 BYTE   N02  Fs2  v032
 BYTE   W03
 BYTE   PAN   c_v-25
 BYTE   N05  Fs2  v104
 BYTE   W06
 BYTE   PAN   c_v-34
 BYTE   N02  Fs2  v040
 BYTE   W03
 BYTE   PAN   c_v-49
 BYTE   N02  Fs2  v032
 BYTE   W03
 BYTE   PAN   c_v-25
 BYTE   N05  Fs2  v104
 BYTE   W06
 BYTE   PAN   c_v-34
 BYTE   N02  Fs2  v040
 BYTE   W03
 BYTE   PAN   c_v-49
 BYTE   N02  Fs2  v032
 BYTE   W03
 BYTE   PAN   c_v-25
 BYTE   VOL   68*song2C_mvl/mxv
 BYTE   N05  Fs2  v108
 BYTE   W06
 BYTE   PAN   c_v-34
 BYTE   N02  Fs2  v044
 BYTE   W03
 BYTE   PAN   c_v-49
 BYTE   N02  Fs2  v040
 BYTE   W03
 BYTE   PAN   c_v-25
 BYTE   N05  Fs2  v104
 BYTE   W06
 BYTE   PAN   c_v-34
 BYTE   N02  Fs2  v040
 BYTE   W03
 BYTE   PAN   c_v-49
 BYTE   N02  Fs2  v032
 BYTE   W03
 BYTE   PAN   c_v-25
 BYTE   N05  Fs2  v104
 BYTE   W06
 BYTE   PAN   c_v-34
 BYTE   N02  Fs2  v040
 BYTE   W03
 BYTE   PAN   c_v-49
 BYTE   W03
 BYTE   Ds1
 BYTE   N05  An2  v104
 BYTE   W05
// 017   ----------------------------------------
 BYTE   W01
 BYTE   PAN   c_v-34
 BYTE   N02  An2  v040
 BYTE   W03
 BYTE   PAN   c_v-49
 BYTE   N02  An2  v032
 BYTE   W03
 BYTE   PAN   c_v-25
 BYTE   VOL   71*song2C_mvl/mxv
 BYTE   N05  Gn2  v108
 BYTE   W06
 BYTE   PAN   c_v-34
 BYTE   N02  Gn2  v044
 BYTE   W03
 BYTE   PAN   c_v-49
 BYTE   N02  Gn2  v040
 BYTE   W03
 BYTE   PAN   c_v-25
 BYTE   N05  Gn2  v104
 BYTE   W06
 BYTE   PAN   c_v-34
 BYTE   N02  Gn2  v040
 BYTE   W03
 BYTE   PAN   c_v-49
 BYTE   N02  Gn2  v032
 BYTE   W03
 BYTE   PAN   c_v-25
 BYTE   N05  Gn2  v104
 BYTE   W06
 BYTE   PAN   c_v-34
 BYTE   N02  Gn2  v040
 BYTE   W03
 BYTE   PAN   c_v-49
 BYTE   N02  Gn2  v032
 BYTE   W03
 BYTE   PAN   c_v-25
 BYTE   N05  Gn2  v104
 BYTE   W06
 BYTE   PAN   c_v-34
 BYTE   N02  Gn2  v040
 BYTE   W03
 BYTE   PAN   c_v-49
 BYTE   N02  Gn2  v032
 BYTE   W03
 BYTE   PAN   c_v-25
 BYTE   VOL   74*song2C_mvl/mxv
 BYTE   N05  An2  v108
 BYTE   W06
 BYTE   PAN   c_v-34
 BYTE   N02  An2  v044
 BYTE   W03
 BYTE   PAN   c_v-49
 BYTE   N02  An2  v040
 BYTE   W03
 BYTE   PAN   c_v-25
 BYTE   N05  An2  v104
 BYTE   W06
 BYTE   PAN   c_v-34
 BYTE   N02  An2  v040
 BYTE   W03
 BYTE   PAN   c_v-49
 BYTE   N02  An2  v032
 BYTE   W03
 BYTE   PAN   c_v-25
 BYTE   N05  An2  v104
 BYTE   W06
 BYTE   PAN   c_v-34
 BYTE   N02  An2  v040
 BYTE   W03
 BYTE   PAN   c_v-49
 BYTE   N02  An2  v032
 BYTE   W03
 BYTE   PAN   c_v-25
 BYTE   N05  An2  v104
 BYTE   W05
// 018   ----------------------------------------
 BYTE   W01
 BYTE   PAN   c_v-34
 BYTE   N02  An2  v040
 BYTE   W03
 BYTE   PAN   c_v-49
 BYTE   N02  An2  v032
 BYTE   W03
 BYTE   PAN   c_v-25
 BYTE   VOL   74*song2C_mvl/mxv
 BYTE   N05  Cn3  v108
 BYTE   W05
 BYTE   VOL   74*song2C_mvl/mxv
 BYTE   W01
 BYTE   PAN   c_v-34
 BYTE   N02  Cn3  v044
 BYTE   W03
 BYTE   PAN   c_v-49
 BYTE   N02  Cn3  v040
 BYTE   W03
 BYTE   PAN   c_v-25
 BYTE   N05  Cn3  v104
 BYTE   W03
 BYTE   VOL   73*song2C_mvl/mxv
 BYTE   W03
 BYTE   PAN   c_v-34
 BYTE   N02  Cn3  v040
 BYTE   W03
 BYTE   PAN   c_v-49
 BYTE   N02  Cn3  v032
 BYTE   W03
 BYTE   PAN   c_v-25
 BYTE   N05  Cn3  v104
 BYTE   W02
 BYTE   VOL   72*song2C_mvl/mxv
 BYTE   W04
 BYTE   PAN   c_v-34
 BYTE   N02  Cn3  v040
 BYTE   W03
 BYTE   PAN   c_v-49
 BYTE   N02  Cn3  v032
 BYTE   W03
 BYTE   VOL   72*song2C_mvl/mxv
 BYTE   PAN   c_v-25
 BYTE   N05  Cn3  v104
 BYTE   W06
 BYTE   PAN   c_v-34
 BYTE   N02  Cn3  v040
 BYTE   W03
 BYTE   PAN   c_v-49
 BYTE   N02  Cn3  v032
 BYTE   W01
 BYTE   VOL   71*song2C_mvl/mxv
 BYTE   W02
 BYTE   PAN   c_v-25
 BYTE   N05  As2  v108
 BYTE   W06
 BYTE   PAN   c_v-34
 BYTE   N02  As2  v044
 BYTE   W03
 BYTE   VOL   70*song2C_mvl/mxv
 BYTE   PAN   c_v-49
 BYTE   N02  As2  v040
 BYTE   W03
 BYTE   PAN   c_v-25
 BYTE   N05  As2  v104
 BYTE   W06
 BYTE   PAN   c_v-34
 BYTE   N02  As2  v040
 BYTE   W01
 BYTE   VOL   70*song2C_mvl/mxv
 BYTE   W02
 BYTE   PAN   c_v-49
 BYTE   N02  As2  v032
 BYTE   W03
 BYTE   PAN   c_v-25
 BYTE   N05  As2  v104
 BYTE   W06
 BYTE   VOL   69*song2C_mvl/mxv
 BYTE   PAN   c_v-34
 BYTE   N02  As2  v040
 BYTE   W03
 BYTE   PAN   c_v-49
 BYTE   N02  As2  v032
 BYTE   W03
 BYTE   PAN   c_v-25
 BYTE   N05  As2  v104
 BYTE   W04
 BYTE   VOL   68*song2C_mvl/mxv
 BYTE   W01
// 019   ----------------------------------------
 BYTE   W01
 BYTE   PAN   c_v-34
 BYTE   N02  As2  v040
 BYTE   W03
 BYTE   PAN   c_v-49
 BYTE   N02  As2  v032
 BYTE   W03
 BYTE   PAN   c_v-25
 BYTE   N05  An2  v108
 BYTE   W02
 BYTE   VOL   68*song2C_mvl/mxv
 BYTE   W04
 BYTE   PAN   c_v-34
 BYTE   N02  An2  v044
 BYTE   W03
 BYTE   PAN   c_v-49
 BYTE   N02  An2  v040
 BYTE   W03
 BYTE   PAN   c_v-25
 BYTE   N05  An2  v104
 BYTE   W01
 BYTE   VOL   67*song2C_mvl/mxv
 BYTE   W05
 BYTE   PAN   c_v-34
 BYTE   N02  An2  v040
 BYTE   W03
 BYTE   PAN   c_v-49
 BYTE   N02  An2  v032
 BYTE   W02
 BYTE   VOL   66*song2C_mvl/mxv
 BYTE   W01
 BYTE   PAN   c_v-25
 BYTE   N05  An2  v104
 BYTE   W06
 BYTE   PAN   c_v-34
 BYTE   N02  An2  v040
 BYTE   W03
 BYTE   PAN   c_v-49
 BYTE   N02  An2  v032
 BYTE   W03
 BYTE   PAN   c_v-25
 BYTE   N05  An2  v104
 BYTE   W06
 BYTE   PAN   c_v-34
 BYTE   N02  An2  v040
 BYTE   W03
 BYTE   PAN   c_v-49
 BYTE   N02  An2  v032
 BYTE   W03
 BYTE   PAN   c_v-25
 BYTE   N05  An2  v108
 BYTE   W06
 BYTE   PAN   c_v-34
 BYTE   N02  An2  v044
 BYTE   W03
 BYTE   PAN   c_v-49
 BYTE   N02  An2  v040
 BYTE   W03
 BYTE   PAN   c_v-25
 BYTE   N05  An2  v104
 BYTE   W06
 BYTE   PAN   c_v-34
 BYTE   N02  An2  v040
 BYTE   W03
 BYTE   PAN   c_v-49
 BYTE   N02  An2  v032
 BYTE   W09
 BYTE   PAN   c_v-25
 BYTE   N05  An2  v104
 BYTE   W06
 BYTE   PAN   c_v-34
 BYTE   N02  An2  v040
 BYTE   W03
 BYTE   PAN   c_v-49
 BYTE   N02  An2  v032
 BYTE   W02
// 020   ----------------------------------------
 BYTE   W01
 BYTE   PAN   c_v-25
 BYTE   N03  An2  v104
 BYTE   W04
 BYTE   PAN   c_v-34
 BYTE   N01  An2  v040
 BYTE   W90
 BYTE   W01
// 021   ----------------------------------------
 BYTE   W96
// 022   ----------------------------------------
 BYTE   W96
// 023   ----------------------------------------
 BYTE   W96
// 024   ----------------------------------------
 BYTE   W96
// 025   ----------------------------------------
 BYTE   W96
// 026   ----------------------------------------
 BYTE   W96
// 027   ----------------------------------------
 BYTE   W96
// 028   ----------------------------------------
 BYTE   W96
// 029   ----------------------------------------
 BYTE   W08
 BYTE   VOICE   61
 BYTE   VOL   46*song2C_mvl/mxv
 BYTE   PAN   c_v+0
 BYTE   N11  An3  v104
 BYTE   W12
 BYTE   N03  An3  v108
 BYTE   W04
 BYTE   Cn4  v096
 BYTE   W04
 BYTE   Fn4
 BYTE   W04
 BYTE   N23  An4  v104
 BYTE   W24
 BYTE   N11  Gs4
 BYTE   W12
 BYTE   N03  Gs4  v108
 BYTE   W04
 BYTE   As4  v096
 BYTE   W04
 BYTE   Gs4
 BYTE   W04
 BYTE   N11  As4  v104
 BYTE   W12
 BYTE   Gs4  v096
 BYTE   W04
// 030   ----------------------------------------
Label_2_0142C799:
 BYTE   W08
 BYTE   N03  Gn4  v108
 BYTE   W04
 BYTE   Fn4  v096
 BYTE   W04
 BYTE   Ds4
 BYTE   W04
 BYTE   N11  Cs4  v104
 BYTE   W12
 BYTE   Cn4
 BYTE   W12
 BYTE   As3  v096
 BYTE   W12
 BYTE   N23  Cn4  v104
 BYTE   W24
 BYTE   Gn3  v100
 BYTE   W16
 BYTE   PEND 
// 031   ----------------------------------------
 BYTE   W08
 BYTE   N11  An3  v104
 BYTE   W12
 BYTE   N03  An3  v108
 BYTE   W04
 BYTE   Cn4  v096
 BYTE   W04
 BYTE   Fn4
 BYTE   W04
 BYTE   N23  An4  v104
 BYTE   W24
 BYTE   N11  Gs4
 BYTE   W12
 BYTE   N03  Gs4  v108
 BYTE   W04
 BYTE   As4  v096
 BYTE   W04
 BYTE   Cn5
 BYTE   W04
 BYTE   N11  As4  v104
 BYTE   W12
 BYTE   Gs4  v096
 BYTE   W04
 BYTE   PATT
  POIN2 Label_2_0142C799
// 032   ----------------------------------------
 BYTE   W08
 BYTE   N11  Fn3  v104
 BYTE   W12
 BYTE   N03  Fn3  v108
 BYTE   W04
 BYTE   Gs3  v096
 BYTE   W04
 BYTE   Cs4
 BYTE   W04
 BYTE   N23  Fn4  v104
 BYTE   W24
 BYTE   N11  Fn3  v100
 BYTE   W12
 BYTE   N03  Fn3  v104
 BYTE   W04
 BYTE   Gs3  v096
 BYTE   W04
 BYTE   Cs4
 BYTE   W04
 BYTE   N23  Fn4  v100
 BYTE   W16
// 033   ----------------------------------------
 BYTE   W08
 BYTE   N11  Fn3  v104
 BYTE   W12
 BYTE   N03  Fn3  v108
 BYTE   W04
 BYTE   As3  v096
 BYTE   W04
 BYTE   Dn4
 BYTE   W04
 BYTE   N23  Fn4  v104
 BYTE   W24
 BYTE   N11  Fn3  v108
 BYTE   W12
 BYTE   N03  Fn3  v112
 BYTE   W04
 BYTE   As3  v100
 BYTE   W04
 BYTE   En4
 BYTE   W04
 BYTE   N22  Gn4  v108
 BYTE   W16
// 034   ----------------------------------------
 BYTE   W08
 BYTE   VOICE   56
 BYTE   VOL   54*song2C_mvl/mxv
 BYTE   PAN   c_v-25
 BYTE   N23  Gn3  v104
 BYTE   W24
 BYTE   Fn3
 BYTE   W24
 BYTE   Gs3
 BYTE   W24
 BYTE   Ds3
 BYTE   W16
// 035   ----------------------------------------
 BYTE   W08
 BYTE   N23
 BYTE   W24
 BYTE   Cs3
 BYTE   W24
 BYTE   Cn3
 BYTE   W24
 BYTE   N23
 BYTE   W16
// 036   ----------------------------------------
 BYTE   W08
 BYTE   Gn3
 BYTE   W24
 BYTE   Fn3
 BYTE   W24
 BYTE   Gs3
 BYTE   W24
 BYTE   Ds3
 BYTE   W16
// 037   ----------------------------------------
 BYTE   W08
 BYTE   N11
 BYTE   W12
 BYTE   Cs3
 BYTE   W12
 BYTE   N11
 BYTE   W12
 BYTE   Cn3
 BYTE   W12
 BYTE   N23  As2
 BYTE   W24
 BYTE   Gs2
 BYTE   W16
// 038   ----------------------------------------
 BYTE   W08
 BYTE   N23
 BYTE   W24
 BYTE   N11  Gn2  v108
 BYTE   W12
 BYTE   Gs2  v104
 BYTE   W12
 BYTE   N44  Cn3
 BYTE   W40
// 039   ----------------------------------------
 BYTE   W08
 BYTE   N23  As2  v100
 BYTE   W24
 BYTE   Gn2  v104
 BYTE   W24
 BYTE   VOICE   41
 BYTE   VOL   63*song2C_mvl/mxv
 BYTE   PAN   c_v+0
 BYTE   N02  Cn4  v116
 BYTE   W03
 BYTE   Cn4  v104
 BYTE   W03
 BYTE   N02
 BYTE   W03
 BYTE   Cn4  v052
 BYTE   W03
 BYTE   Cn4  v040
 BYTE   W28
// 040   ----------------------------------------
 BYTE   W14
 BYTE   N05  As3  v104
 BYTE   W06
 BYTE   N02  As3  v052
 BYTE   W04
 BYTE   N01  As3  v040
 BYTE   W02
 BYTE   N05  Cs4  v104
 BYTE   W06
 BYTE   N02  Cs4  v052
 BYTE   W04
 BYTE   N01  Cs4  v040
 BYTE   W02
 BYTE   N05  Ds4  v104
 BYTE   W06
 BYTE   N02  Ds4  v052
 BYTE   W04
 BYTE   N01  Ds4  v040
 BYTE   W02
 BYTE   N05  Cs4  v104
 BYTE   W06
 BYTE   N02  Cn4  v116
 BYTE   W03
 BYTE   Cn4  v104
 BYTE   W03
 BYTE   N02
 BYTE   W03
 BYTE   Cn4  v052
 BYTE   W03
 BYTE   Cn4  v040
 BYTE   W28
// 041   ----------------------------------------
 BYTE   W14
 BYTE   N05  As3  v104
 BYTE   W06
 BYTE   N02  As3  v052
 BYTE   W04
 BYTE   N01  As3  v040
 BYTE   W02
 BYTE   N05  Cs4  v104
 BYTE   W06
 BYTE   N02  Cs4  v052
 BYTE   W04
 BYTE   N01  Cs4  v040
 BYTE   W02
 BYTE   N05  Ds4  v104
 BYTE   W06
 BYTE   N02  Ds4  v052
 BYTE   W04
 BYTE   N01  Ds4  v040
 BYTE   W02
 BYTE   N05  Cs4  v104
 BYTE   W06
 BYTE   N02  Dn4  v108
 BYTE   W03
 BYTE   Dn4  v044
 BYTE   W03
 BYTE   Dn4  v096
 BYTE   W03
 BYTE   N02
 BYTE   W03
 BYTE   Dn4  v108
 BYTE   W03
 BYTE   Dn4  v044
 BYTE   W03
 BYTE   Dn4  v096
 BYTE   W03
 BYTE   N02
 BYTE   W03
 BYTE   Dn4  v108
 BYTE   W03
 BYTE   Dn4  v044
 BYTE   W03
 BYTE   Dn4  v096
 BYTE   W03
 BYTE   N02
 BYTE   W03
 BYTE   Dn4  v108
 BYTE   W03
 BYTE   Dn4  v044
 BYTE   W01
// 042   ----------------------------------------
 BYTE   W02
 BYTE   Dn4  v096
 BYTE   W03
 BYTE   N02
 BYTE   W03
 BYTE   Dn4  v108
 BYTE   W03
 BYTE   Dn4  v044
 BYTE   W03
 BYTE   Dn4  v096
 BYTE   W03
 BYTE   N02
 BYTE   W03
 BYTE   Dn4  v108
 BYTE   W03
 BYTE   Dn4  v044
 BYTE   W03
 BYTE   Dn4  v096
 BYTE   W03
 BYTE   N02
 BYTE   W03
 BYTE   Dn4  v108
 BYTE   W03
 BYTE   Dn4  v044
 BYTE   W03
 BYTE   Dn4  v096
 BYTE   W03
 BYTE   N02
 BYTE   W03
 BYTE   Dn4  v108
 BYTE   W03
 BYTE   Dn4  v044
 BYTE   W03
 BYTE   Dn4  v096
 BYTE   W03
 BYTE   N02
 BYTE   W04
 BYTE   VOICE   56
 BYTE   VOL   66*song2C_mvl/mxv
 BYTE   PAN   c_v-14
 BYTE   N11  Cs3  v104
 BYTE   W12
 BYTE   En3
 BYTE   W12
 BYTE   Gn3
 BYTE   W12
 BYTE   Bn3
 BYTE   W03
// 043   ----------------------------------------
Label_2_0142C94A:
 BYTE   W09
 BYTE   N17  An3  v104
 BYTE   W18
 BYTE   N02  Gn3  v108
 BYTE   W03
 BYTE   Fn3  v096
 BYTE   W03
 BYTE   N11  Gn3  v104
 BYTE   W12
 BYTE   En3
 BYTE   W12
 BYTE   Cs3
 BYTE   W12
 BYTE   En3
 BYTE   W12
 BYTE   Gn3
 BYTE   W12
 BYTE   Bn3
 BYTE   W03
 BYTE   PEND 
// 044   ----------------------------------------
Label_2_0142C965:
 BYTE   W09
 BYTE   N44  Cs4  v104
 BYTE   W48
 BYTE   N17  Cn4
 BYTE   W18
 BYTE   N02  Bn3  v108
 BYTE   W03
 BYTE   Cn4  v096
 BYTE   W03
 BYTE   N11  Bn3  v104
 BYTE   W12
 BYTE   Dn4
 BYTE   W03
 BYTE   PEND 
// 045   ----------------------------------------
 BYTE   W09
 BYTE   N17  Cn4
 BYTE   W18
 BYTE   N02  Bn3  v108
 BYTE   W03
 BYTE   Dn4  v096
 BYTE   W03
 BYTE   N11  Bn3  v104
 BYTE   W12
 BYTE   Gn3
 BYTE   W12
 BYTE   N17  Cn4
 BYTE   W18
 BYTE   N02  Bn3  v108
 BYTE   W03
 BYTE   An3  v096
 BYTE   W03
 BYTE   N17  Bn3  v104
 BYTE   W15
// 046   ----------------------------------------
 BYTE   W03
 BYTE   N02  An3  v108
 BYTE   W03
 BYTE   Gn3  v096
 BYTE   W03
 BYTE   N17  An3  v104
 BYTE   W18
 BYTE   N02  Gn3  v108
 BYTE   W03
 BYTE   Fn3  v096
 BYTE   W03
 BYTE   N17  Gn3  v104
 BYTE   W18
 BYTE   N02  Fn3  v108
 BYTE   W03
 BYTE   En3  v096
 BYTE   W03
 BYTE   N11  Cs3  v104
 BYTE   W12
 BYTE   En3
 BYTE   W12
 BYTE   Gn3
 BYTE   W12
 BYTE   Bn3
 BYTE   W03
 BYTE   PATT
  POIN2 Label_2_0142C94A
 BYTE   PATT
  POIN2 Label_2_0142C965
// 047   ----------------------------------------
 BYTE   W09
 BYTE   N17  Cn4  v104
 BYTE   W18
 BYTE   N02  Bn3  v108
 BYTE   W03
 BYTE   Dn4  v096
 BYTE   W03
 BYTE   N11  Bn3  v104
 BYTE   W12
 BYTE   Gn3
 BYTE   W12
 BYTE   N17  An3
 BYTE   W18
 BYTE   N02  Gn3  v108
 BYTE   W03
 BYTE   Gn3  v096
 BYTE   W03
 BYTE   N17  Gs3  v104
 BYTE   W15
// 048   ----------------------------------------
 BYTE   W03
 BYTE   N02  Fs3  v108
 BYTE   W03
 BYTE   Fn3  v096
 BYTE   W03
 BYTE   N68  Gn3  v104
 BYTE   W84
 BYTE   W03
// 049   ----------------------------------------
 BYTE   W10
 BYTE   VOICE   56
 BYTE   VOL   60*song2C_mvl/mxv
 BYTE   PAN   c_v-14
 BYTE   N02  Cn4
 BYTE   W03
 BYTE   Gn3  v100
 BYTE   W03
 BYTE   Gn4  v124
 BYTE   W03
 BYTE   Gn3  v088
 BYTE   W03
 BYTE   Fn4  v116
 BYTE   W03
 BYTE   Gn3  v076
 BYTE   W03
 BYTE   Ds4  v112
 BYTE   W03
 BYTE   Gn3  v088
 BYTE   W03
 BYTE   Dn4  v104
 BYTE   W03
 BYTE   Gn3  v084
 BYTE   W03
 BYTE   Cn4  v100
 BYTE   W03
 BYTE   Gn3  v096
 BYTE   W03
 BYTE   Bn3  v092
 BYTE   W03
 BYTE   Gn3  v100
 BYTE   W03
 BYTE   Cn4  v104
 BYTE   W03
 BYTE   Gn3  v096
 BYTE   W03
 BYTE   Cn4  v104
 BYTE   W03
 BYTE   Gn3  v100
 BYTE   W03
 BYTE   Gn4  v124
 BYTE   W03
 BYTE   Gn3  v088
 BYTE   W03
 BYTE   Fn4  v116
 BYTE   W03
 BYTE   Gn3  v076
 BYTE   W03
 BYTE   Ds4  v112
 BYTE   W03
 BYTE   Gn3  v088
 BYTE   W03
 BYTE   Dn4  v104
 BYTE   W03
 BYTE   Gn3  v084
 BYTE   W03
 BYTE   Cn4  v100
 BYTE   W03
 BYTE   Gn3  v096
 BYTE   W03
 BYTE   Bn3  v092
 BYTE   W02
// 050   ----------------------------------------
Label_2_0142CA57:
 BYTE   W01
 BYTE   N02  Gn3  v100
 BYTE   W03
 BYTE   Cn4  v104
 BYTE   W03
 BYTE   Gn3  v096
 BYTE   W03
 BYTE   Dn4  v092
 BYTE   W03
 BYTE   Fn3  v088
 BYTE   W03
 BYTE   Cn4  v124
 BYTE   W03
 BYTE   Fn3  v088
 BYTE   W03
 BYTE   Fn4  v116
 BYTE   W03
 BYTE   Fn3  v076
 BYTE   W03
 BYTE   Ds4  v112
 BYTE   W03
 BYTE   Fn3  v088
 BYTE   W03
 BYTE   Dn4  v104
 BYTE   W03
 BYTE   Fn3  v096
 BYTE   W03
 BYTE   Cn4  v100
 BYTE   W03
 BYTE   Fn3  v104
 BYTE   W03
 BYTE   As3  v108
 BYTE   W03
 BYTE   Fn3  v100
 BYTE   W03
 BYTE   Gs3  v112
 BYTE   W03
 BYTE   Fn3  v108
 BYTE   W03
 BYTE   Gs3  v104
 BYTE   W03
 BYTE   Fs3  v092
 BYTE   W03
 BYTE   Gs3  v096
 BYTE   W03
 BYTE   Cs4  v092
 BYTE   W03
 BYTE   Gs3  v104
 BYTE   W03
 BYTE   Fs3  v092
 BYTE   W03
 BYTE   Gs3  v096
 BYTE   W03
 BYTE   Cs4  v092
 BYTE   W03
 BYTE   Gs3  v104
 BYTE   W03
 BYTE   Fs3  v092
 BYTE   W03
 BYTE   Gs3  v096
 BYTE   W03
 BYTE   Cs4  v092
 BYTE   W03
 BYTE   Gs3  v104
 BYTE   W02
 BYTE   PEND 
// 051   ----------------------------------------
Label_2_0142CABA:
 BYTE   W01
 BYTE   N02  Fs3  v092
 BYTE   W03
 BYTE   Gs3  v096
 BYTE   W03
 BYTE   Cs4  v092
 BYTE   W03
 BYTE   Fs3  v104
 BYTE   W03
 BYTE   N01  Fs3  v052
 BYTE   W03
 BYTE   N02  Fs3  v108
 BYTE   W03
 BYTE   Gn3  v092
 BYTE   W03
 BYTE   Gs3  v104
 BYTE   W03
 BYTE   N01  Gs3  v052
 BYTE   W03
 BYTE   N02  Gs3  v108
 BYTE   W03
 BYTE   An3  v092
 BYTE   W03
 BYTE   As3  v104
 BYTE   W03
 BYTE   N01  As3  v052
 BYTE   W03
 BYTE   N02  As3  v108
 BYTE   W03
 BYTE   Bn3  v092
 BYTE   W03
 BYTE   Cn4  v104
 BYTE   W03
 BYTE   N01  Cn4  v052
 BYTE   W03
 BYTE   N02  Cn4  v108
 BYTE   W03
 BYTE   Cs4  v092
 BYTE   W03
 BYTE   Dn4  v104
 BYTE   W03
 BYTE   N01  Dn4  v052
 BYTE   W03
 BYTE   N02  Dn4  v108
 BYTE   W03
 BYTE   Ds4  v092
 BYTE   W03
 BYTE   En4  v104
 BYTE   W03
 BYTE   N01  En4  v052
 BYTE   W03
 BYTE   N02  En4  v108
 BYTE   W03
 BYTE   Fn4  v092
 BYTE   W03
 BYTE   Fs4  v104
 BYTE   W03
 BYTE   N01  Fs4  v052
 BYTE   W03
 BYTE   N02  Fs4  v108
 BYTE   W03
 BYTE   Gn4  v092
 BYTE   W03
 BYTE   Gs4  v104
 BYTE   W02
 BYTE   PEND 
// 052   ----------------------------------------
Label_2_0142CB2B:
 BYTE   W01
 BYTE   N01  Gs4  v052
 BYTE   W03
 BYTE   N02  Gs4  v108
 BYTE   W03
 BYTE   An4  v092
 BYTE   W03
 BYTE   Gs4  v104
 BYTE   W03
 BYTE   N01  Gs4  v052
 BYTE   W03
 BYTE   N02  Gs4  v108
 BYTE   W03
 BYTE   Fs4  v092
 BYTE   W03
 BYTE   Gs4  v104
 BYTE   W03
 BYTE   Cs5  v108
 BYTE   W03
 BYTE   Gs4  v104
 BYTE   W03
 BYTE   Fs4  v092
 BYTE   W03
 BYTE   Gs4  v104
 BYTE   W03
 BYTE   N01  Gs4  v052
 BYTE   W03
 BYTE   N02  Gs4  v108
 BYTE   W03
 BYTE   Fs4  v092
 BYTE   W03
 BYTE   Gs4  v104
 BYTE   W03
 BYTE   Cs5  v108
 BYTE   W03
 BYTE   Gs4  v104
 BYTE   W03
 BYTE   Fs4  v092
 BYTE   W03
 BYTE   Gs4  v104
 BYTE   W03
 BYTE   N01  Gs4  v052
 BYTE   W03
 BYTE   N02  Gs4  v108
 BYTE   W03
 BYTE   Fs4  v092
 BYTE   W03
 BYTE   Gs4  v104
 BYTE   W03
 BYTE   N01  Gs4  v052
 BYTE   W03
 BYTE   N02  Gs4  v108
 BYTE   W03
 BYTE   Fs4  v092
 BYTE   W03
 BYTE   Gs4  v104
 BYTE   W03
 BYTE   N01  Gs4  v052
 BYTE   W03
 BYTE   N02  Gs4  v108
 BYTE   W03
 BYTE   Fs4  v092
 BYTE   W03
 BYTE   Gs4  v104
 BYTE   W02
 BYTE   PEND 
// 053   ----------------------------------------
Label_2_0142CB99:
 BYTE   W01
 BYTE   N01  Gs4  v052
 BYTE   W03
 BYTE   N02  Gs4  v108
 BYTE   W03
 BYTE   Fs4  v092
 BYTE   W03
 BYTE   Gs4  v104
 BYTE   W03
 BYTE   Fs4  v108
 BYTE   W03
 BYTE   Cs4  v104
 BYTE   W03
 BYTE   Fs4  v092
 BYTE   W03
 BYTE   Gs4  v104
 BYTE   W03
 BYTE   N01  Gs4  v052
 BYTE   W03
 BYTE   N02  Fs4  v108
 BYTE   W03
 BYTE   Cs5  v092
 BYTE   W03
 BYTE   Gs4  v096
 BYTE   W03
 BYTE   Cs5  v080
 BYTE   W03
 BYTE   Gs4  v104
 BYTE   W03
 BYTE   Cs5  v088
 BYTE   W03
 BYTE   Gs4  v116
 BYTE   W03
 BYTE   Cs5  v096
 BYTE   W03
 BYTE   Gs4  v124
 BYTE   W03
 BYTE   Cs5  v104
 BYTE   W03
 BYTE   Dn5
 BYTE   W03
 BYTE   N01  Dn5  v052
 BYTE   W03
 BYTE   N02  Cn5  v108
 BYTE   W03
 BYTE   As4  v096
 BYTE   W03
 BYTE   Cn5  v104
 BYTE   W03
 BYTE   N01  Cn5  v052
 BYTE   W03
 BYTE   N02  As4  v108
 BYTE   W03
 BYTE   An4  v096
 BYTE   W03
 BYTE   As4  v104
 BYTE   W03
 BYTE   N01  As4  v052
 BYTE   W03
 BYTE   N02  An4  v108
 BYTE   W03
 BYTE   Gn4  v096
 BYTE   W03
 BYTE   An4  v104
 BYTE   W02
 BYTE   PEND 
// 054   ----------------------------------------
Label_2_0142CC04:
 BYTE   W01
 BYTE   N01  An4  v052
 BYTE   W03
 BYTE   N02  Gn4  v108
 BYTE   W03
 BYTE   Fn4  v096
 BYTE   W03
 BYTE   Gn4  v104
 BYTE   W03
 BYTE   N01  Gn4  v052
 BYTE   W03
 BYTE   N02  Fn4  v108
 BYTE   W03
 BYTE   Ds4  v096
 BYTE   W03
 BYTE   Fn4  v104
 BYTE   W03
 BYTE   N01  Fn4  v052
 BYTE   W03
 BYTE   N02  Ds4  v108
 BYTE   W03
 BYTE   Dn4  v096
 BYTE   W03
 BYTE   Ds4  v104
 BYTE   W03
 BYTE   N01  Ds4  v052
 BYTE   W03
 BYTE   N02  Dn4  v108
 BYTE   W03
 BYTE   Cn4  v096
 BYTE   W03
 BYTE   Dn4  v104
 BYTE   W03
 BYTE   N01  Dn4  v052
 BYTE   W03
 BYTE   N02  Cn4  v108
 BYTE   W03
 BYTE   As3  v096
 BYTE   W03
 BYTE   An3  v104
 BYTE   W03
 BYTE   N01  An3  v052
 BYTE   W03
 BYTE   N02  Gn3  v108
 BYTE   W03
 BYTE   An3  v096
 BYTE   W03
 BYTE   Cn4  v104
 BYTE   W03
 BYTE   N01  Cn4  v052
 BYTE   W03
 BYTE   N02  An3  v108
 BYTE   W03
 BYTE   Gn3  v096
 BYTE   W03
 BYTE   An3  v104
 BYTE   W03
 BYTE   N01  An3  v052
 BYTE   W03
 BYTE   N02  As3  v108
 BYTE   W03
 BYTE   Cn4  v096
 BYTE   W03
 BYTE   Dn4  v108
 BYTE   W02
 BYTE   PEND 
// 055   ----------------------------------------
Label_2_0142CC76:
 BYTE   W01
 BYTE   N02  Ds4  v096
 BYTE   W03
 BYTE   En4  v104
 BYTE   W03
 BYTE   Fn4  v096
 BYTE   W03
 BYTE   Gn4  v104
 BYTE   W03
 BYTE   N01  Gn4  v052
 BYTE   W03
 BYTE   N02  Fn4  v108
 BYTE   W03
 BYTE   Ds4  v096
 BYTE   W03
 BYTE   Fn4  v104
 BYTE   W03
 BYTE   N01  Fn4  v052
 BYTE   W03
 BYTE   N02  Cn5  v108
 BYTE   W03
 BYTE   Bn4  v096
 BYTE   W03
 BYTE   Cn5  v104
 BYTE   W03
 BYTE   N01  Cn5  v052
 BYTE   W03
 BYTE   N02  Gn4  v108
 BYTE   W03
 BYTE   Fn4  v096
 BYTE   W03
 BYTE   Gn4  v108
 BYTE   W03
 BYTE   N01  Gn4  v060
 BYTE   W03
 BYTE   N02  Ds4  v104
 BYTE   W03
 BYTE   N01  Ds4  v052
 BYTE   W03
 BYTE   N02  Dn4  v104
 BYTE   W03
 BYTE   N01  Dn4  v052
 BYTE   W03
 BYTE   N02  Cn4  v108
 BYTE   W03
 BYTE   Dn4  v096
 BYTE   W03
 BYTE   Fn4  v104
 BYTE   W03
 BYTE   N01  Fn4  v052
 BYTE   W03
 BYTE   N02  Ds4  v108
 BYTE   W03
 BYTE   Fn4  v096
 BYTE   W03
 BYTE   Dn4  v104
 BYTE   W03
 BYTE   N01  Dn4  v052
 BYTE   W03
 BYTE   N02  Gn3  v108
 BYTE   W03
 BYTE   Dn4  v096
 BYTE   W03
 BYTE   Fn4  v104
 BYTE   W02
 BYTE   PEND 
// 056   ----------------------------------------
Label_2_0142CCE9:
 BYTE   W01
 BYTE   N01  Fn4  v052
 BYTE   W03
 BYTE   N02  Ds4  v108
 BYTE   W03
 BYTE   Dn4  v096
 BYTE   W03
 BYTE   Cn4  v104
 BYTE   W03
 BYTE   N01  Cn4  v052
 BYTE   W03
 BYTE   N02  Cs4  v108
 BYTE   W03
 BYTE   Dn4  v096
 BYTE   W03
 BYTE   Ds4  v104
 BYTE   W03
 BYTE   N01  Ds4  v052
 BYTE   W03
 BYTE   N02  En4  v108
 BYTE   W03
 BYTE   Fn4  v096
 BYTE   W03
 BYTE   Fs4  v104
 BYTE   W03
 BYTE   N01  Fs4  v052
 BYTE   W03
 BYTE   N02  Gn4  v108
 BYTE   W03
 BYTE   Gs4  v096
 BYTE   W03
 BYTE   An4  v104
 BYTE   W03
 BYTE   N01  An4  v052
 BYTE   W03
 BYTE   N02  As4  v108
 BYTE   W03
 BYTE   Bn4  v096
 BYTE   W03
 BYTE   As4  v104
 BYTE   W03
 BYTE   N01  As4  v052
 BYTE   W03
 BYTE   N02  An4  v108
 BYTE   W03
 BYTE   Gs4  v096
 BYTE   W03
 BYTE   Gn4  v104
 BYTE   W03
 BYTE   N01  Gn4  v052
 BYTE   W03
 BYTE   N02  Fs4  v108
 BYTE   W03
 BYTE   Fn4  v096
 BYTE   W03
 BYTE   En4  v104
 BYTE   W03
 BYTE   N01  En4  v052
 BYTE   W03
 BYTE   N02  Ds4  v108
 BYTE   W03
 BYTE   Dn4  v096
 BYTE   W03
 BYTE   Cs4  v104
 BYTE   W02
 BYTE   PEND 
// 057   ----------------------------------------
Label_2_0142CD5B:
 BYTE   W01
 BYTE   N01  Cs4  v052
 BYTE   W03
 BYTE   N02  Cn4  v108
 BYTE   W03
 BYTE   As3  v096
 BYTE   W03
 BYTE   Cn4  v104
 BYTE   W03
 BYTE   N01  Cn4  v052
 BYTE   W03
 BYTE   N02  Cs4  v108
 BYTE   W03
 BYTE   Dn4  v096
 BYTE   W03
 BYTE   Ds4  v104
 BYTE   W03
 BYTE   N01  Ds4  v052
 BYTE   W03
 BYTE   N02  En4  v108
 BYTE   W03
 BYTE   Fn4  v096
 BYTE   W03
 BYTE   Fs4  v104
 BYTE   W03
 BYTE   N01  Fs4  v052
 BYTE   W03
 BYTE   N02  Gn4  v108
 BYTE   W03
 BYTE   Gs4  v096
 BYTE   W03
 BYTE   An4  v104
 BYTE   W03
 BYTE   N01  An4  v052
 BYTE   W03
 BYTE   N02  As4  v108
 BYTE   W03
 BYTE   Bn4  v096
 BYTE   W03
 BYTE   As4  v108
 BYTE   W03
 BYTE   An4  v096
 BYTE   W03
 BYTE   Gs4  v108
 BYTE   W03
 BYTE   Gn4  v096
 BYTE   W03
 BYTE   Fs4  v108
 BYTE   W03
 BYTE   Fn4  v096
 BYTE   W03
 BYTE   En4  v108
 BYTE   W03
 BYTE   Ds4  v096
 BYTE   W03
 BYTE   Dn4  v108
 BYTE   W03
 BYTE   Cs4  v096
 BYTE   W03
 BYTE   Cn4  v108
 BYTE   W03
 BYTE   Bn3  v096
 BYTE   W03
 BYTE   As3  v108
 BYTE   W02
 BYTE   PEND 
// 058   ----------------------------------------
 BYTE   W01
 BYTE   An3  v096
 BYTE   W03
 BYTE   Gs3  v108
 BYTE   W03
 BYTE   Gn3  v096
 BYTE   W03
 BYTE   Cn4  v104
 BYTE   W03
 BYTE   Gn3  v100
 BYTE   W03
 BYTE   Gn4  v124
 BYTE   W03
 BYTE   Gn3  v088
 BYTE   W03
 BYTE   Fn4  v116
 BYTE   W03
 BYTE   Gn3  v076
 BYTE   W03
 BYTE   Ds4  v112
 BYTE   W03
 BYTE   Gn3  v088
 BYTE   W03
 BYTE   Dn4  v104
 BYTE   W03
 BYTE   Gn3  v084
 BYTE   W03
 BYTE   Cn4  v100
 BYTE   W03
 BYTE   Gn3  v096
 BYTE   W03
 BYTE   Bn3  v092
 BYTE   W03
 BYTE   Gn3  v100
 BYTE   W03
 BYTE   Cn4  v104
 BYTE   W03
 BYTE   Gn3  v096
 BYTE   W03
 BYTE   Cn4  v104
 BYTE   W03
 BYTE   Gn3  v100
 BYTE   W03
 BYTE   Gn4  v124
 BYTE   W03
 BYTE   Gn3  v088
 BYTE   W03
 BYTE   Fn4  v116
 BYTE   W03
 BYTE   Gn3  v076
 BYTE   W03
 BYTE   Ds4  v112
 BYTE   W03
 BYTE   Gn3  v088
 BYTE   W03
 BYTE   Dn4  v104
 BYTE   W03
 BYTE   Gn3  v084
 BYTE   W03
 BYTE   Cn4  v100
 BYTE   W03
 BYTE   Gn3  v096
 BYTE   W03
 BYTE   Bn3  v092
 BYTE   W02
 BYTE   PATT
  POIN2 Label_2_0142CA57
 BYTE   PATT
  POIN2 Label_2_0142CABA
 BYTE   PATT
  POIN2 Label_2_0142CB2B
 BYTE   PATT
  POIN2 Label_2_0142CB99
 BYTE   PATT
  POIN2 Label_2_0142CC04
 BYTE   PATT
  POIN2 Label_2_0142CC76
 BYTE   PATT
  POIN2 Label_2_0142CCE9
 BYTE   PATT
  POIN2 Label_2_0142CD5B
// 059   ----------------------------------------
 BYTE   W01
 BYTE   N02  An3  v096
 BYTE   W03
 BYTE   Gs3  v108
 BYTE   W03
 BYTE   N01  Gn3  v096
 BYTE   W03
 BYTE   VOICE   67
 BYTE   VOL   73*song2C_mvl/mxv
 BYTE   PAN   c_v-14
 BYTE   N02  Cn2  v108
 BYTE   W03
 BYTE   Gn1  v092
 BYTE   W03
 BYTE   Cn2  v104
 BYTE   W03
 BYTE   Dn2  v096
 BYTE   W03
 BYTE   Ds2  v108
 BYTE   W03
 BYTE   Gn1  v092
 BYTE   W03
 BYTE   Ds2  v104
 BYTE   W03
 BYTE   Fn2  v092
 BYTE   W03
 BYTE   Ds2  v104
 BYTE   W03
 BYTE   Gn1  v092
 BYTE   W03
 BYTE   Fn2  v108
 BYTE   W03
 BYTE   Gn1  v096
 BYTE   W03
 BYTE   Gn2  v116
 BYTE   W03
 BYTE   Gn1  v104
 BYTE   W03
 BYTE   Fn2  v124
 BYTE   W03
 BYTE   Gn1  v108
 BYTE   W03
 BYTE   Cn2
 BYTE   W03
 BYTE   Gn1  v092
 BYTE   W03
 BYTE   Cn2  v104
 BYTE   W03
 BYTE   Dn2  v096
 BYTE   W03
 BYTE   Ds2  v108
 BYTE   W03
 BYTE   Gn1  v092
 BYTE   W03
 BYTE   Ds2  v104
 BYTE   W03
 BYTE   Fn2  v092
 BYTE   W03
 BYTE   Ds2  v104
 BYTE   W03
 BYTE   Gn1  v092
 BYTE   W03
 BYTE   Fn2  v108
 BYTE   W03
 BYTE   Gn1  v096
 BYTE   W03
 BYTE   Gn2  v116
 BYTE   W02
// 060   ----------------------------------------
Label_2_0142CEB9:
 BYTE   W01
 BYTE   N02  Gn1  v104
 BYTE   W03
 BYTE   Fn2  v124
 BYTE   W03
 BYTE   Gn1  v108
 BYTE   W03
 BYTE   Cn2
 BYTE   W03
 BYTE   Gn1  v092
 BYTE   W03
 BYTE   Cn2  v104
 BYTE   W03
 BYTE   Dn2  v096
 BYTE   W03
 BYTE   Ds2  v108
 BYTE   W03
 BYTE   Gn1  v092
 BYTE   W03
 BYTE   Ds2  v104
 BYTE   W03
 BYTE   Fn2  v092
 BYTE   W03
 BYTE   Ds2  v104
 BYTE   W03
 BYTE   Gn1  v092
 BYTE   W03
 BYTE   Fn2  v108
 BYTE   W03
 BYTE   Gn1  v096
 BYTE   W03
 BYTE   Gn2  v116
 BYTE   W03
 BYTE   Gn1  v104
 BYTE   W03
 BYTE   Fn2  v124
 BYTE   W03
 BYTE   Gn1  v108
 BYTE   W03
 BYTE   Cn2
 BYTE   W03
 BYTE   Gn1  v092
 BYTE   W03
 BYTE   Cn2  v104
 BYTE   W03
 BYTE   Dn2  v096
 BYTE   W03
 BYTE   Ds2  v108
 BYTE   W03
 BYTE   Gn1  v092
 BYTE   W03
 BYTE   Ds2  v104
 BYTE   W03
 BYTE   Fn2  v092
 BYTE   W03
 BYTE   Ds2  v104
 BYTE   W03
 BYTE   Gn1  v092
 BYTE   W03
 BYTE   Fn2  v108
 BYTE   W03
 BYTE   Gn1  v096
 BYTE   W03
 BYTE   Ds2  v116
 BYTE   W02
 BYTE   PEND 
// 061   ----------------------------------------
Label_2_0142CF1A:
 BYTE   W01
 BYTE   N02  Gn1  v104
 BYTE   W03
 BYTE   Dn2  v124
 BYTE   W03
 BYTE   Gn1  v108
 BYTE   W03
 BYTE   Cn2
 BYTE   W03
 BYTE   Gn2  v092
 BYTE   W03
 BYTE   Gn1  v104
 BYTE   W03
 BYTE   Gn2  v096
 BYTE   W03
 BYTE   Cn2  v108
 BYTE   W03
 BYTE   Gn2  v092
 BYTE   W03
 BYTE   Dn2  v104
 BYTE   W03
 BYTE   Gn2  v092
 BYTE   W03
 BYTE   Ds2  v104
 BYTE   W03
 BYTE   Gn2  v092
 BYTE   W03
 BYTE   Gn1  v108
 BYTE   W03
 BYTE   Gn2  v096
 BYTE   W03
 BYTE   Ds2  v116
 BYTE   W03
 BYTE   Gn2  v104
 BYTE   W03
 BYTE   Fn2  v124
 BYTE   W03
 BYTE   Gn2  v108
 BYTE   W03
 BYTE   Ds2
 BYTE   W03
 BYTE   Gn2  v092
 BYTE   W03
 BYTE   Gn1  v104
 BYTE   W03
 BYTE   Gn2  v096
 BYTE   W03
 BYTE   Fn2  v108
 BYTE   W03
 BYTE   Gn2  v092
 BYTE   W03
 BYTE   Gn2  v104
 BYTE   W03
 BYTE   Gn2  v092
 BYTE   W03
 BYTE   Ds2  v104
 BYTE   W03
 BYTE   Gn2  v092
 BYTE   W03
 BYTE   Gn1  v108
 BYTE   W03
 BYTE   Gn2  v096
 BYTE   W03
 BYTE   Dn2  v116
 BYTE   W02
 BYTE   PEND 
// 062   ----------------------------------------
Label_2_0142CF7B:
 BYTE   W01
 BYTE   N02  Gn2  v104
 BYTE   W03
 BYTE   Gn1  v124
 BYTE   W03
 BYTE   Gn2  v108
 BYTE   W03
 BYTE   Cn2
 BYTE   W03
 BYTE   Gn2  v092
 BYTE   W03
 BYTE   Gn1  v104
 BYTE   W03
 BYTE   Gn2  v096
 BYTE   W03
 BYTE   Cn2  v108
 BYTE   W03
 BYTE   Gn2  v092
 BYTE   W03
 BYTE   Dn2  v104
 BYTE   W03
 BYTE   Gn2  v092
 BYTE   W03
 BYTE   Ds2  v104
 BYTE   W03
 BYTE   Gn2  v092
 BYTE   W03
 BYTE   Gn1  v108
 BYTE   W03
 BYTE   Gn2  v096
 BYTE   W03
 BYTE   Ds2  v116
 BYTE   W03
 BYTE   Gn2  v104
 BYTE   W03
 BYTE   Fn2  v124
 BYTE   W03
 BYTE   Gn2  v108
 BYTE   W03
 BYTE   Ds2
 BYTE   W03
 BYTE   Gn2  v092
 BYTE   W03
 BYTE   Gn1  v104
 BYTE   W03
 BYTE   Gn2  v096
 BYTE   W03
 BYTE   Fn2  v108
 BYTE   W03
 BYTE   Gn2  v092
 BYTE   W03
 BYTE   Gn2  v104
 BYTE   W03
 BYTE   Gn2  v092
 BYTE   W03
 BYTE   Ds2  v104
 BYTE   W03
 BYTE   Gn2  v092
 BYTE   W03
 BYTE   Gn1  v108
 BYTE   W03
 BYTE   Gn2  v096
 BYTE   W03
 BYTE   Dn2  v116
 BYTE   W02
 BYTE   PEND 
// 063   ----------------------------------------
 BYTE   W01
 BYTE   Gn2  v104
 BYTE   W03
 BYTE   Gn1  v124
 BYTE   W03
 BYTE   Gn2  v108
 BYTE   W03
 BYTE   Cn2
 BYTE   W03
 BYTE   Gn1  v092
 BYTE   W03
 BYTE   Cn2  v104
 BYTE   W03
 BYTE   Dn2  v096
 BYTE   W03
 BYTE   Ds2  v108
 BYTE   W03
 BYTE   Gn1  v092
 BYTE   W03
 BYTE   Ds2  v104
 BYTE   W03
 BYTE   Fn2  v092
 BYTE   W03
 BYTE   Ds2  v104
 BYTE   W03
 BYTE   Gn1  v092
 BYTE   W03
 BYTE   Fn2  v108
 BYTE   W03
 BYTE   Gn1  v096
 BYTE   W03
 BYTE   Gn2  v116
 BYTE   W03
 BYTE   Gn1  v104
 BYTE   W03
 BYTE   Fn2  v124
 BYTE   W03
 BYTE   Gn1  v108
 BYTE   W03
 BYTE   Cn2
 BYTE   W03
 BYTE   Gn1  v092
 BYTE   W03
 BYTE   Cn2  v104
 BYTE   W03
 BYTE   Dn2  v096
 BYTE   W03
 BYTE   Ds2  v108
 BYTE   W03
 BYTE   Gn1  v092
 BYTE   W03
 BYTE   Ds2  v104
 BYTE   W03
 BYTE   Fn2  v092
 BYTE   W03
 BYTE   Ds2  v104
 BYTE   W03
 BYTE   Gn1  v092
 BYTE   W03
 BYTE   Fn2  v108
 BYTE   W03
 BYTE   Gn1  v096
 BYTE   W03
 BYTE   Gn2  v116
 BYTE   W02
 BYTE   PATT
  POIN2 Label_2_0142CEB9
 BYTE   PATT
  POIN2 Label_2_0142CF1A
 BYTE   PATT
  POIN2 Label_2_0142CF7B
// 064   ----------------------------------------
 BYTE   W01
 BYTE   N02  Gn2  v104
 BYTE   W03
 BYTE   Gn1  v124
 BYTE   W03
 BYTE   Gn2  v108
 BYTE   W03
 BYTE   VOICE   67
 BYTE   VOL   73*song2C_mvl/mxv
 BYTE   PAN   c_v+14
 BYTE   N02  Ds3  v112
 BYTE   W04
 BYTE   N01  Ds3  v060
 BYTE   W02
 BYTE   N02  Ds3  v096
 BYTE   W04
 BYTE   N03  Ds3  v052
 BYTE   W04
 BYTE   Ds3  v040
 BYTE   W04
 BYTE   N02  Ds3  v104
 BYTE   W04
 BYTE   N03  Ds3  v052
 BYTE   W04
 BYTE   Ds3  v040
 BYTE   W04
 BYTE   N02  Ds3  v096
 BYTE   W04
 BYTE   N01  Ds3  v052
 BYTE   W02
 BYTE   N02  Fn3  v116
 BYTE   W04
 BYTE   N01  Fn3  v060
 BYTE   W02
 BYTE   N02  Fn3  v100
 BYTE   W04
 BYTE   N03  Fn3  v052
 BYTE   W04
 BYTE   Fn3  v040
 BYTE   W04
 BYTE   N02  Fn3  v104
 BYTE   W04
 BYTE   N03  Fn3  v052
 BYTE   W04
 BYTE   Fn3  v040
 BYTE   W04
 BYTE   N02  Fn3  v100
 BYTE   W04
 BYTE   N01  Fn3  v052
 BYTE   W02
 BYTE   N02  Ds3  v120
 BYTE   W04
 BYTE   N01  Ds3  v060
 BYTE   W02
 BYTE   N02  Ds3  v100
 BYTE   W04
 BYTE   N03  Ds3  v052
 BYTE   W04
// 065   ----------------------------------------
 BYTE   Ds3  v040
 BYTE   W04
 BYTE   N02  Ds3  v108
 BYTE   W04
 BYTE   N03  Ds3  v052
 BYTE   W04
 BYTE   Ds3  v040
 BYTE   W04
 BYTE   N02  Ds3  v100
 BYTE   W04
 BYTE   N01  Ds3  v052
 BYTE   W02
 BYTE   N02  En3  v120
 BYTE   W04
 BYTE   N01  En3  v060
 BYTE   W02
 BYTE   N02  En3  v104
 BYTE   W04
 BYTE   N03  En3  v052
 BYTE   W04
 BYTE   En3  v040
 BYTE   W04
 BYTE   N02  En3  v112
 BYTE   W04
 BYTE   N03  En3  v052
 BYTE   W04
 BYTE   En3  v040
 BYTE   W04
 BYTE   N02  En3  v104
 BYTE   W04
 BYTE   N01  En3  v052
 BYTE   W02
 BYTE   VOICE   42
 BYTE   VOL   63*song2C_mvl/mxv
 BYTE   PAN   c_v+14
 BYTE   N11  Cn3  v104
 BYTE   W12
 BYTE   Dn3
 BYTE   W12
 BYTE   N44  En3
 BYTE   W14
// 066   ----------------------------------------
 BYTE   W32
 BYTE   W02
 BYTE   N11  Dn3
 BYTE   W12
 BYTE   En3
 BYTE   W12
 BYTE   N44  Fs3
 BYTE   W36
 BYTE   W02
// 067   ----------------------------------------
 BYTE   W10
 BYTE   N11  Dn3
 BYTE   W12
 BYTE   En3
 BYTE   W12
 BYTE   N44  Fs3
 BYTE   W48
 BYTE   N32  Fn3
 BYTE   W14
// 068   ----------------------------------------
 BYTE   W22
 BYTE   N32
 BYTE   W36
 BYTE   N32
 BYTE   W36
 BYTE   N11  Gs3
 BYTE   W02
// 069   ----------------------------------------
 BYTE   W10
 BYTE   Gn3
 BYTE   W12
 BYTE   Fn3
 BYTE   W12
 BYTE   N32  Ds3
 BYTE   W36
 BYTE   Dn3
 BYTE   W24
 BYTE   W02
// 070   ----------------------------------------
 BYTE   W10
 BYTE   N23  Cn3
 BYTE   W24
 BYTE   N11  Gs2
 BYTE   W12
 BYTE   N32  As2
 BYTE   W36
 BYTE   W01
 BYTE   VOICE   42
 BYTE   VOL   53*song2C_mvl/mxv
 BYTE   PAN   c_v+25
 BYTE   N32  Gn2
 BYTE   W13
// 071   ----------------------------------------
 BYTE   W23
 BYTE   N23  Cn3
 BYTE   W24
 BYTE   N11  En3
 BYTE   W12
 BYTE   N23
 BYTE   W24
 BYTE   N11  Fn3
 BYTE   W12
 BYTE   N32  Dn3
 BYTE   W01
// 072   ----------------------------------------
 BYTE   W32
 BYTE   W03
 BYTE   N23
 BYTE   W24
 BYTE   N11  En3
 BYTE   W12
 BYTE   N23  Cn3
 BYTE   W24
 BYTE   N11  Gn2
 BYTE   W01
// 073   ----------------------------------------
 BYTE   W11
 BYTE   N23  Dn3
 BYTE   W24
 BYTE   N11  En3
 BYTE   W12
 BYTE   N32  Cn3
 BYTE   W36
 BYTE   An2
 BYTE   W13
// 074   ----------------------------------------
 BYTE   W23
 BYTE   N11  An3
 BYTE   W12
 BYTE   Gn3
 BYTE   W12
 BYTE   Fn3
 BYTE   W12
 BYTE   N32  Gn3
 BYTE   W36
 BYTE   N23  En3
 BYTE   W01
// 075   ----------------------------------------
 BYTE   W23
 BYTE   N11  Gn2
 BYTE   W12
 BYTE   N23  An2
 BYTE   W24
 BYTE   N11  Fn3
 BYTE   W12
 BYTE   N23  Dn3
 BYTE   W24
 BYTE   N11  Bn2
 BYTE   W01
// 076   ----------------------------------------
 BYTE   W11
 BYTE   N23  Dn3
 BYTE   W24
 BYTE   N11  Cn3
 BYTE   W12
 BYTE   N32
 BYTE   W36
 BYTE   N23  An3
 BYTE   W13
// 077   ----------------------------------------
 BYTE   W11
 BYTE   N11  Cn3
 BYTE   W12
 BYTE   N23  Bn2
 BYTE   W24
 BYTE   N11  An3
 BYTE   W12
 BYTE   N32  Gn3
 BYTE   W36
 BYTE   N23  Cn3
 BYTE   W01
// 078   ----------------------------------------
 BYTE   W23
 BYTE   N11  Dn3
 BYTE   W12
 BYTE   En3
 BYTE   W12
 BYTE   An2
 BYTE   W12
 BYTE   Bn2
 BYTE   W12
 BYTE   Cn3
 BYTE   W12
 BYTE   Dn3
 BYTE   W12
 BYTE   Cn3
 BYTE   W01
// 079   ----------------------------------------
 BYTE   W11
 BYTE   N32
 BYTE   W36
 BYTE   Bn2
 BYTE   W36
 BYTE   N23  An2
 BYTE   W13
// 080   ----------------------------------------
 BYTE   W11
 BYTE   N11
 BYTE   W12
 BYTE   Bn2
 BYTE   W12
 BYTE   Cn3
 BYTE   W12
 BYTE   Dn3
 BYTE   W12
 BYTE   N23  En3
 BYTE   W24
 BYTE   N11  Dn3
 BYTE   W12
 BYTE   N23  Cn3
 BYTE   W01
// 081   ----------------------------------------
 BYTE   W23
 BYTE   N11  Bn2
 BYTE   W12
 BYTE   N32  An2
 BYTE   W36
 BYTE   N23  Dn3
 BYTE   W24
 BYTE   N11  Cn3
 BYTE   W01
// 082   ----------------------------------------
Label_2_0142D1D9:
 BYTE   W11
 BYTE   N32  Cn3  v104
 BYTE   W36
 BYTE   Bn2
 BYTE   W36
 BYTE   Gn2
 BYTE   W13
 BYTE   PEND 
// 083   ----------------------------------------
 BYTE   W23
 BYTE   N23  Cn3
 BYTE   W24
 BYTE   N11  En3
 BYTE   W12
 BYTE   N32
 BYTE   W36
 BYTE   An2
 BYTE   W01
// 084   ----------------------------------------
 BYTE   W32
 BYTE   W03
 BYTE   N32
 BYTE   W36
 BYTE   N11  Bn2
 BYTE   W12
 BYTE   Cn3
 BYTE   W12
 BYTE   Dn3
 BYTE   W01
 BYTE   PATT
  POIN2 Label_2_0142D1D9
// 085   ----------------------------------------
 BYTE   W23
 BYTE   N23  Cn3  v104
 BYTE   W24
 BYTE   N11  En3
 BYTE   W12
 BYTE   N32  Gn3
 BYTE   W36
 BYTE   N23  Fn3
 BYTE   W01
// 086   ----------------------------------------
 BYTE   W23
 BYTE   N11  En3
 BYTE   W12
 BYTE   N32  An2
 BYTE   W36
 BYTE   N11  Bn2
 BYTE   W12
 BYTE   Cn3
 BYTE   W12
 BYTE   Dn3
 BYTE   W01
// 087   ----------------------------------------
 BYTE   W11
 BYTE   N56  Cn3
 BYTE   W60
 BYTE   N11  Bn2
 BYTE   W12
 BYTE   N32  An2
 BYTE   W13
// 088   ----------------------------------------
 BYTE   W23
 BYTE   N11  Fn3
 BYTE   W12
 BYTE   Dn3
 BYTE   W12
 BYTE   Bn2
 BYTE   W12
 BYTE   N23  Gn3
 BYTE   W24
 BYTE   N11  En3
 BYTE   W12
 BYTE   N23  Cn3
 BYTE   W01
// 089   ----------------------------------------
 BYTE   W23
 BYTE   N11  Bn2
 BYTE   W12
 BYTE   N32  An2
 BYTE   W36
 BYTE   N11  An3
 BYTE   W12
 BYTE   Gn3
 BYTE   W12
 BYTE   Dn3
 BYTE   W01
// 090   ----------------------------------------
 BYTE   W11
 BYTE   N68  En3
 BYTE   W72
 BYTE   N32  An2
 BYTE   W13
// 091   ----------------------------------------
 BYTE   W23
 BYTE   N11  Fn3
 BYTE   W12
 BYTE   Dn3
 BYTE   W12
 BYTE   Bn2
 BYTE   W12
 BYTE   N23  Gn3
 BYTE   W24
 BYTE   N11  En3
 BYTE   W12
 BYTE   N23  Cn4
 BYTE   W01
// 092   ----------------------------------------
 BYTE   W23
 BYTE   N11  Bn3
 BYTE   W12
 BYTE   N32  An3
 BYTE   W36
 BYTE   N11  Bn3
 BYTE   W12
 BYTE   Cn4
 BYTE   W12
 BYTE   Dn4
 BYTE   W01
// 093   ----------------------------------------
 BYTE   W11
 BYTE   N32  Cn4
 BYTE   W36
 BYTE   Bn3
 BYTE   W48
 BYTE   W01
// 094   ----------------------------------------
 BYTE   W96
// 095   ----------------------------------------
 BYTE   W68
 BYTE   W02
 BYTE   FINE

//**************** Track 4 (Midi-Chn.3) ****************//

song2C_004:
// 000   ----------------------------------------
 BYTE   KEYSH   song2C_key+0
 BYTE   W06
 BYTE   VOICE   41
 BYTE   VOL   46*song2C_mvl/mxv
 BYTE   PAN   c_v-49
 BYTE   W01
 BYTE   N03  Fn3  v108
 BYTE   W04
 BYTE   Fn3  v096
 BYTE   W04
 BYTE   As3  v104
 BYTE   W04
 BYTE   N11  Dn4  v108
 BYTE   W24
 BYTE   N03  Fn3
 BYTE   W04
 BYTE   Fn3  v096
 BYTE   W04
 BYTE   As3  v104
 BYTE   W04
 BYTE   N10  Dn4  v108
 BYTE   W18
 BYTE   N05  As3
 BYTE   W06
 BYTE   Fn3  v096
 BYTE   W06
 BYTE   As3  v104
 BYTE   W06
 BYTE   N11  Dn4  v108
 BYTE   W05
// 001   ----------------------------------------
 BYTE   W13
 BYTE   N05  As3
 BYTE   W06
 BYTE   Fn3  v096
 BYTE   W06
 BYTE   As3  v104
 BYTE   W06
 BYTE   N68  Cn4  v108
 BYTE   W64
 BYTE   W01
// 002   ----------------------------------------
 BYTE   W12
 BYTE   VOICE   61
 BYTE   VOL   70*song2C_mvl/mxv
 BYTE   PAN   c_v+25
 BYTE   N11  As2
 BYTE   W12
 BYTE   As2  v104
 BYTE   W12
 BYTE   N11
 BYTE   W12
 BYTE   N11
 BYTE   W12
 BYTE   Cn3  v108
 BYTE   W12
 BYTE   Cn3  v104
 BYTE   W12
 BYTE   N11
 BYTE   W12
// 003   ----------------------------------------
Label_3_0142D2CE:
 BYTE   N11  Cn3  v104
 BYTE   W12
 BYTE   As2  v108
 BYTE   W12
 BYTE   As2  v104
 BYTE   W12
 BYTE   N11
 BYTE   W12
 BYTE   N11
 BYTE   W12
 BYTE   Cn3  v108
 BYTE   W12
 BYTE   Cn3  v104
 BYTE   W12
 BYTE   N11
 BYTE   W12
 BYTE   PEND 
 BYTE   PATT
  POIN2 Label_3_0142D2CE
// 004   ----------------------------------------
Label_3_0142D2EA:
 BYTE   N11  Cn3  v104
 BYTE   W12
 BYTE   Dn3  v108
 BYTE   W12
 BYTE   Dn3  v104
 BYTE   W12
 BYTE   N11
 BYTE   W12
 BYTE   N11
 BYTE   W12
 BYTE   Fn3  v108
 BYTE   W12
 BYTE   Fn3  v104
 BYTE   W12
 BYTE   N11
 BYTE   W12
 BYTE   PEND 
// 005   ----------------------------------------
Label_3_0142D301:
 BYTE   N11  Fn3  v104
 BYTE   W12
 BYTE   As2  v108
 BYTE   W12
 BYTE   As2  v104
 BYTE   W12
 BYTE   N11
 BYTE   W12
 BYTE   N11
 BYTE   W12
 BYTE   Cn3  v108
 BYTE   W12
 BYTE   Cn3  v104
 BYTE   W12
 BYTE   N11
 BYTE   W12
 BYTE   PEND 
 BYTE   PATT
  POIN2 Label_3_0142D2CE
 BYTE   PATT
  POIN2 Label_3_0142D2CE
 BYTE   PATT
  POIN2 Label_3_0142D2EA
 BYTE   PATT
  POIN2 Label_3_0142D301
 BYTE   PATT
  POIN2 Label_3_0142D2CE
 BYTE   PATT
  POIN2 Label_3_0142D2CE
 BYTE   PATT
  POIN2 Label_3_0142D2EA
// 006   ----------------------------------------
 BYTE   N05  Fn3  v104
 BYTE   W06
 BYTE   TIE  Fn3  v108
 BYTE   W90
// 007   ----------------------------------------
 BYTE   W52
 BYTE   W01
 BYTE   EOT
 BYTE   W42
 BYTE   W01
// 008   ----------------------------------------
 BYTE   W07
 BYTE   VOICE   67
 BYTE   VOL   63*song2C_mvl/mxv
 BYTE   PAN   c_v-14
 BYTE   N02  An2  v096
 BYTE   W03
 BYTE   PAN   c_v-34
 BYTE   N01  An2  v040
 BYTE   W03
 BYTE   PAN   c_v-14
 BYTE   N03  An2  v108
 BYTE   W04
 BYTE   PAN   c_v-34
 BYTE   N03  An2  v044
 BYTE   W04
 BYTE   PAN   c_v-49
 BYTE   N02  An2  v040
 BYTE   W04
 BYTE   PAN   c_v-25
 BYTE   N03  An2  v104
 BYTE   W04
 BYTE   PAN   c_v-43
 BYTE   N03  An2  v044
 BYTE   W04
 BYTE   PAN   c_v-54
 BYTE   N02  An2  v040
 BYTE   W04
 BYTE   PAN   c_v-14
 BYTE   N03  Gn2  v104
 BYTE   W04
 BYTE   PAN   c_v-34
 BYTE   N03  Gn2  v044
 BYTE   W04
 BYTE   PAN   c_v-49
 BYTE   N02  Gn2  v040
 BYTE   W04
 BYTE   PAN   c_v+0
 BYTE   N02  Gn2  v096
 BYTE   W03
 BYTE   PAN   c_v-34
 BYTE   N01  Gn2  v040
 BYTE   W03
 BYTE   PAN   c_v-14
 BYTE   N02  An2  v096
 BYTE   W03
 BYTE   PAN   c_v-34
 BYTE   N01  An2  v040
 BYTE   W03
 BYTE   PAN   c_v-14
 BYTE   N03  An2  v108
 BYTE   W04
 BYTE   PAN   c_v-34
 BYTE   N03  An2  v044
 BYTE   W04
 BYTE   PAN   c_v-49
 BYTE   N02  An2  v040
 BYTE   W04
 BYTE   PAN   c_v-25
 BYTE   N03  An2  v104
 BYTE   W04
 BYTE   PAN   c_v-34
 BYTE   N03  An2  v044
 BYTE   W04
 BYTE   PAN   c_v-49
 BYTE   N02  An2  v040
 BYTE   W04
 BYTE   PAN   c_v-14
 BYTE   N03  Cn3  v104
 BYTE   W04
 BYTE   PAN   c_v-34
 BYTE   N03  Cn3  v044
 BYTE   W04
 BYTE   PAN   c_v-49
 BYTE   N02  Cn3  v040
 BYTE   W03
// 009   ----------------------------------------
Label_3_0142D3DD:
 BYTE   W01
 BYTE   PAN   c_v+0
 BYTE   N02  Cn3  v096
 BYTE   W03
 BYTE   PAN   c_v-34
 BYTE   N01  Cn3  v040
 BYTE   W03
 BYTE   N02  An2  v096
 BYTE   W03
 BYTE   PAN   c_v-34
 BYTE   N01  An2  v040
 BYTE   W03
 BYTE   PAN   c_v-14
 BYTE   N03  An2  v108
 BYTE   W04
 BYTE   PAN   c_v-34
 BYTE   N03  An2  v044
 BYTE   W04
 BYTE   PAN   c_v-49
 BYTE   N02  An2  v040
 BYTE   W04
 BYTE   PAN   c_v-25
 BYTE   N03  An2  v104
 BYTE   W04
 BYTE   PAN   c_v-43
 BYTE   N03  An2  v044
 BYTE   W04
 BYTE   PAN   c_v-54
 BYTE   N02  An2  v040
 BYTE   W04
 BYTE   PAN   c_v-14
 BYTE   N03  Gn2  v104
 BYTE   W04
 BYTE   PAN   c_v-34
 BYTE   N03  Gn2  v044
 BYTE   W04
 BYTE   PAN   c_v-49
 BYTE   N02  Gn2  v040
 BYTE   W04
 BYTE   PAN   c_v+0
 BYTE   N02  Gn2  v096
 BYTE   W03
 BYTE   PAN   c_v-34
 BYTE   N01  Gn2  v040
 BYTE   W03
 BYTE   PAN   c_v-14
 BYTE   N02  An2  v096
 BYTE   W03
 BYTE   PAN   c_v-34
 BYTE   N01  An2  v040
 BYTE   W03
 BYTE   PAN   c_v-14
 BYTE   N03  An2  v108
 BYTE   W04
 BYTE   PAN   c_v-34
 BYTE   N03  An2  v044
 BYTE   W04
 BYTE   PAN   c_v-49
 BYTE   N02  An2  v040
 BYTE   W04
 BYTE   PAN   c_v-25
 BYTE   N03  An2  v104
 BYTE   W04
 BYTE   PAN   c_v-34
 BYTE   N03  An2  v044
 BYTE   W04
 BYTE   PAN   c_v-49
 BYTE   N02  An2  v040
 BYTE   W04
 BYTE   PAN   c_v-14
 BYTE   N03  Cn3  v104
 BYTE   W04
 BYTE   PAN   c_v-34
 BYTE   N03  Cn3  v044
 BYTE   W04
 BYTE   PAN   c_v-49
 BYTE   N02  Cn3  v040
 BYTE   W03
 BYTE   PEND 
// 010   ----------------------------------------
 BYTE   W01
 BYTE   PAN   c_v+0
 BYTE   N02  Cn3  v096
 BYTE   W03
 BYTE   PAN   c_v-34
 BYTE   N01  Cn3  v040
 BYTE   W03
 BYTE   VOL   54*song2C_mvl/mxv
 BYTE   N02  An2  v096
 BYTE   W03
 BYTE   PAN   c_v-34
 BYTE   N01  An2  v040
 BYTE   W03
 BYTE   PAN   c_v-14
 BYTE   N03  An2  v108
 BYTE   W04
 BYTE   PAN   c_v-34
 BYTE   N03  An2  v044
 BYTE   W04
 BYTE   PAN   c_v-49
 BYTE   N02  An2  v040
 BYTE   W04
 BYTE   PAN   c_v-25
 BYTE   N03  An2  v104
 BYTE   W04
 BYTE   PAN   c_v-43
 BYTE   N03  An2  v044
 BYTE   W04
 BYTE   PAN   c_v-54
 BYTE   N02  An2  v040
 BYTE   W04
 BYTE   PAN   c_v-14
 BYTE   N03  Gn2  v104
 BYTE   W04
 BYTE   PAN   c_v-34
 BYTE   N03  Gn2  v044
 BYTE   W04
 BYTE   PAN   c_v-49
 BYTE   N02  Gn2  v040
 BYTE   W04
 BYTE   PAN   c_v+0
 BYTE   N02  Gn2  v096
 BYTE   W03
 BYTE   PAN   c_v-34
 BYTE   N01  Gn2  v040
 BYTE   W03
 BYTE   PAN   c_v-14
 BYTE   N02  An2  v096
 BYTE   W03
 BYTE   PAN   c_v-34
 BYTE   N01  An2  v040
 BYTE   W03
 BYTE   PAN   c_v-14
 BYTE   N03  An2  v108
 BYTE   W04
 BYTE   PAN   c_v-34
 BYTE   N03  An2  v044
 BYTE   W04
 BYTE   PAN   c_v-49
 BYTE   N02  An2  v040
 BYTE   W04
 BYTE   PAN   c_v-25
 BYTE   N03  An2  v104
 BYTE   W04
 BYTE   PAN   c_v-34
 BYTE   N03  An2  v044
 BYTE   W04
 BYTE   PAN   c_v-49
 BYTE   N02  An2  v040
 BYTE   W04
 BYTE   PAN   c_v-14
 BYTE   N03  Cn3  v104
 BYTE   W04
 BYTE   PAN   c_v-34
 BYTE   N03  Cn3  v044
 BYTE   W04
 BYTE   PAN   c_v-49
 BYTE   N02  Cn3  v040
 BYTE   W03
 BYTE   PATT
  POIN2 Label_3_0142D3DD
 BYTE   PATT
  POIN2 Label_3_0142D3DD
 BYTE   PATT
  POIN2 Label_3_0142D3DD
// 011   ----------------------------------------
 BYTE   W01
 BYTE   PAN   c_v+0
 BYTE   N02  Cn3  v096
 BYTE   W03
 BYTE   PAN   c_v-34
 BYTE   N01  Cn3  v040
 BYTE   W03
 BYTE   VOICE   61
 BYTE   VOL   70*song2C_mvl/mxv
 BYTE   PAN   c_v-14
 BYTE   N03  Fn3  v104
 BYTE   W06
 BYTE   N02  Cn3  v092
 BYTE   W03
 BYTE   N02
 BYTE   W03
 BYTE   N04
 BYTE   W06
 BYTE   N03  Fn3  v104
 BYTE   W06
 BYTE   N02  Cn3  v092
 BYTE   W03
 BYTE   N02
 BYTE   W03
 BYTE   N04
 BYTE   W06
 BYTE   N03  Fn3  v104
 BYTE   W06
 BYTE   Cn3  v092
 BYTE   W06
 BYTE   Fn3  v104
 BYTE   W06
 BYTE   N02  Cn3  v092
 BYTE   W03
 BYTE   N02
 BYTE   W03
 BYTE   N04
 BYTE   W06
 BYTE   N03  Fn3  v104
 BYTE   W06
 BYTE   N02  Cn3  v092
 BYTE   W03
 BYTE   N02
 BYTE   W03
 BYTE   N04
 BYTE   W06
 BYTE   N03  Fn3  v104
 BYTE   W05
// 012   ----------------------------------------
 BYTE   W01
 BYTE   Cn4  v092
 BYTE   W06
 BYTE   As3  v104
 BYTE   W06
 BYTE   N02  Fn3  v092
 BYTE   W03
 BYTE   N02
 BYTE   W03
 BYTE   N04
 BYTE   W06
 BYTE   N03  As3  v104
 BYTE   W06
 BYTE   N02  Fn3  v092
 BYTE   W03
 BYTE   N02
 BYTE   W03
 BYTE   N04
 BYTE   W06
 BYTE   N03  As3  v104
 BYTE   W06
 BYTE   Fn3  v092
 BYTE   W06
 BYTE   As3  v104
 BYTE   W06
 BYTE   N02  Fn3  v092
 BYTE   W03
 BYTE   N02
 BYTE   W03
 BYTE   N04
 BYTE   W06
 BYTE   N03  As3  v104
 BYTE   W06
 BYTE   N02  Fn3  v092
 BYTE   W03
 BYTE   N02
 BYTE   W03
 BYTE   N04
 BYTE   W06
 BYTE   N03  As3  v104
 BYTE   W05
// 013   ----------------------------------------
 BYTE   W01
 BYTE   Fn3  v092
 BYTE   W06
 BYTE   VOICE   67
 BYTE   VOL   58*song2C_mvl/mxv
 BYTE   PAN   c_v+14
 BYTE   N05  Fn2  v108
 BYTE   W06
 BYTE   PAN   c_v+34
 BYTE   N02  Fn2  v044
 BYTE   W03
 BYTE   PAN   c_v+49
 BYTE   N02  Fn2  v040
 BYTE   W03
 BYTE   PAN   c_v+14
 BYTE   N05  Fn2  v104
 BYTE   W06
 BYTE   PAN   c_v+34
 BYTE   N02  Fn2  v040
 BYTE   W03
 BYTE   PAN   c_v+49
 BYTE   N02  Fn2  v032
 BYTE   W03
 BYTE   PAN   c_v+14
 BYTE   N05  Fn2  v104
 BYTE   W06
 BYTE   PAN   c_v+34
 BYTE   N02  Fn2  v040
 BYTE   W03
 BYTE   PAN   c_v+49
 BYTE   N02  Fn2  v032
 BYTE   W03
 BYTE   PAN   c_v+14
 BYTE   N05  Fn2  v104
 BYTE   W06
 BYTE   PAN   c_v+34
 BYTE   N02  Fn2  v040
 BYTE   W03
 BYTE   PAN   c_v+49
 BYTE   N02  Fn2  v032
 BYTE   W03
 BYTE   PAN   c_v+14
 BYTE   N05  Ds2  v108
 BYTE   W06
 BYTE   PAN   c_v+34
 BYTE   N02  Ds2  v044
 BYTE   W03
 BYTE   PAN   c_v+49
 BYTE   N02  Ds2  v040
 BYTE   W03
 BYTE   PAN   c_v+14
 BYTE   N05  Ds2  v104
 BYTE   W06
 BYTE   PAN   c_v+34
 BYTE   N02  Ds2  v040
 BYTE   W03
 BYTE   PAN   c_v+49
 BYTE   N02  Ds2  v032
 BYTE   W03
 BYTE   PAN   c_v+14
 BYTE   N05  Ds2  v104
 BYTE   W06
 BYTE   PAN   c_v+34
 BYTE   N02  Ds2  v040
 BYTE   W03
 BYTE   PAN   c_v+49
 BYTE   N02  Ds2  v032
 BYTE   W03
 BYTE   PAN   c_v+14
 BYTE   N05  Ds2  v104
 BYTE   W05
// 014   ----------------------------------------
Label_3_0142D63B:
 BYTE   W01
 BYTE   PAN   c_v+34
 BYTE   N02  Ds2  v040
 BYTE   W03
 BYTE   PAN   c_v+49
 BYTE   N02  Ds2  v032
 BYTE   W03
 BYTE   PAN   c_v+14
 BYTE   N05  Fn2  v108
 BYTE   W06
 BYTE   PAN   c_v+34
 BYTE   N02  Fn2  v044
 BYTE   W03
 BYTE   PAN   c_v+49
 BYTE   N02  Fn2  v040
 BYTE   W03
 BYTE   PAN   c_v+14
 BYTE   N05  Fn2  v104
 BYTE   W06
 BYTE   PAN   c_v+34
 BYTE   N02  Fn2  v040
 BYTE   W03
 BYTE   PAN   c_v+49
 BYTE   N02  Fn2  v032
 BYTE   W03
 BYTE   PAN   c_v+14
 BYTE   N05  Fn2  v104
 BYTE   W06
 BYTE   PAN   c_v+34
 BYTE   N02  Fn2  v040
 BYTE   W03
 BYTE   PAN   c_v+49
 BYTE   N02  Fn2  v032
 BYTE   W03
 BYTE   PAN   c_v+14
 BYTE   N05  Fn2  v104
 BYTE   W06
 BYTE   PAN   c_v+34
 BYTE   N02  Fn2  v040
 BYTE   W03
 BYTE   PAN   c_v+49
 BYTE   N02  Fn2  v032
 BYTE   W03
 BYTE   PAN   c_v+14
 BYTE   N05  Ds2  v108
 BYTE   W06
 BYTE   PAN   c_v+34
 BYTE   N02  Ds2  v044
 BYTE   W03
 BYTE   PAN   c_v+49
 BYTE   N02  Ds2  v040
 BYTE   W03
 BYTE   PAN   c_v+14
 BYTE   N05  Ds2  v104
 BYTE   W06
 BYTE   PAN   c_v+34
 BYTE   N02  Ds2  v040
 BYTE   W03
 BYTE   PAN   c_v+49
 BYTE   N02  Ds2  v032
 BYTE   W09
 BYTE   PAN   c_v+14
 BYTE   N05  Ds2  v104
 BYTE   W06
 BYTE   PAN   c_v+34
 BYTE   N02  Ds2  v040
 BYTE   W03
 BYTE   PAN   c_v+49
 BYTE   N02  Ds2  v032
 BYTE   W02
 BYTE   PEND 
// 015   ----------------------------------------
 BYTE   W01
 BYTE   PAN   c_v+14
 BYTE   N03  Ds2  v104
 BYTE   W04
 BYTE   PAN   c_v+34
 BYTE   N01  Ds2  v040
 BYTE   W02
 BYTE   PAN   c_v-34
 BYTE   N05  Fn2  v108
 BYTE   W06
 BYTE   PAN   c_v+34
 BYTE   N02  Fn2  v044
 BYTE   W03
 BYTE   PAN   c_v+49
 BYTE   N02  Fn2  v040
 BYTE   W03
 BYTE   PAN   c_v+14
 BYTE   N05  Fn2  v104
 BYTE   W06
 BYTE   PAN   c_v+34
 BYTE   N02  Fn2  v040
 BYTE   W03
 BYTE   PAN   c_v+49
 BYTE   N02  Fn2  v032
 BYTE   W03
 BYTE   PAN   c_v+14
 BYTE   N05  Fn2  v104
 BYTE   W06
 BYTE   PAN   c_v+34
 BYTE   N02  Fn2  v040
 BYTE   W03
 BYTE   PAN   c_v+49
 BYTE   N02  Fn2  v032
 BYTE   W03
 BYTE   PAN   c_v+14
 BYTE   N05  Fn2  v104
 BYTE   W06
 BYTE   PAN   c_v+34
 BYTE   N02  Fn2  v040
 BYTE   W03
 BYTE   PAN   c_v+49
 BYTE   N02  Fn2  v032
 BYTE   W03
 BYTE   PAN   c_v+14
 BYTE   N05  Ds2  v108
 BYTE   W06
 BYTE   PAN   c_v+34
 BYTE   N02  Ds2  v044
 BYTE   W03
 BYTE   PAN   c_v+49
 BYTE   N02  Ds2  v040
 BYTE   W03
 BYTE   PAN   c_v+14
 BYTE   N05  Ds2  v104
 BYTE   W06
 BYTE   PAN   c_v+34
 BYTE   N02  Ds2  v040
 BYTE   W03
 BYTE   PAN   c_v+49
 BYTE   N02  Ds2  v032
 BYTE   W03
 BYTE   PAN   c_v+14
 BYTE   N05  Ds2  v104
 BYTE   W06
 BYTE   PAN   c_v+34
 BYTE   N02  Ds2  v040
 BYTE   W03
 BYTE   PAN   c_v+49
 BYTE   N02  Ds2  v032
 BYTE   W03
 BYTE   PAN   c_v+14
 BYTE   N05  Ds2  v104
 BYTE   W05
 BYTE   PATT
  POIN2 Label_3_0142D63B
// 016   ----------------------------------------
 BYTE   W01
 BYTE   PAN   c_v+14
 BYTE   N03  Ds2  v104
 BYTE   W04
 BYTE   PAN   c_v+34
 BYTE   N01  Ds2  v040
 BYTE   W02
 BYTE   PAN   c_v-34
 BYTE   VOL   61*song2C_mvl/mxv
 BYTE   N05  Dn2  v108
 BYTE   W06
 BYTE   PAN   c_v+34
 BYTE   N02  Dn2  v044
 BYTE   W03
 BYTE   PAN   c_v+49
 BYTE   N02  Dn2  v040
 BYTE   W03
 BYTE   PAN   c_v+14
 BYTE   N05  Dn2  v104
 BYTE   W06
 BYTE   PAN   c_v+34
 BYTE   N02  Dn2  v040
 BYTE   W03
 BYTE   PAN   c_v+49
 BYTE   N02  Dn2  v032
 BYTE   W03
 BYTE   PAN   c_v+14
 BYTE   N05  Dn2  v104
 BYTE   W06
 BYTE   PAN   c_v+34
 BYTE   N02  Dn2  v040
 BYTE   W03
 BYTE   PAN   c_v+49
 BYTE   N02  Dn2  v032
 BYTE   W03
 BYTE   PAN   c_v+14
 BYTE   N05  Dn2  v104
 BYTE   W06
 BYTE   PAN   c_v+34
 BYTE   N02  Dn2  v040
 BYTE   W03
 BYTE   PAN   c_v+49
 BYTE   N02  Dn2  v032
 BYTE   W03
 BYTE   PAN   c_v+14
 BYTE   VOL   64*song2C_mvl/mxv
 BYTE   PAN   c_v+14
 BYTE   N05  Dn2  v108
 BYTE   W06
 BYTE   PAN   c_v+34
 BYTE   N02  Dn2  v044
 BYTE   W03
 BYTE   PAN   c_v+49
 BYTE   N02  Dn2  v040
 BYTE   W03
 BYTE   PAN   c_v+14
 BYTE   N05  Dn2  v104
 BYTE   W06
 BYTE   PAN   c_v+34
 BYTE   N02  Dn2  v040
 BYTE   W03
 BYTE   PAN   c_v+49
 BYTE   N02  Dn2  v032
 BYTE   W03
 BYTE   PAN   c_v+14
 BYTE   N05  Dn2  v104
 BYTE   W06
 BYTE   PAN   c_v+34
 BYTE   N02  Dn2  v040
 BYTE   W06
 BYTE   PAN   c_v+14
 BYTE   N05  Fn2  v104
 BYTE   W05
// 017   ----------------------------------------
 BYTE   W01
 BYTE   PAN   c_v+34
 BYTE   N02  Fn2  v040
 BYTE   W03
 BYTE   PAN   c_v+49
 BYTE   N02  Fn2  v032
 BYTE   W03
 BYTE   PAN   c_v+14
 BYTE   VOL   68*song2C_mvl/mxv
 BYTE   N05  Ds2  v108
 BYTE   W06
 BYTE   PAN   c_v+34
 BYTE   N02  Ds2  v044
 BYTE   W03
 BYTE   PAN   c_v+49
 BYTE   N02  Ds2  v040
 BYTE   W03
 BYTE   PAN   c_v+14
 BYTE   N05  Ds2  v104
 BYTE   W06
 BYTE   PAN   c_v+34
 BYTE   N02  Ds2  v040
 BYTE   W03
 BYTE   PAN   c_v+49
 BYTE   N02  Ds2  v032
 BYTE   W03
 BYTE   PAN   c_v+14
 BYTE   N05  Ds2  v104
 BYTE   W06
 BYTE   PAN   c_v+34
 BYTE   N02  Ds2  v040
 BYTE   W03
 BYTE   PAN   c_v+49
 BYTE   N02  Ds2  v032
 BYTE   W03
 BYTE   PAN   c_v+14
 BYTE   N05  Ds2  v104
 BYTE   W06
 BYTE   PAN   c_v+34
 BYTE   N02  Ds2  v040
 BYTE   W03
 BYTE   PAN   c_v+49
 BYTE   N02  Ds2  v032
 BYTE   W03
 BYTE   PAN   c_v+14
 BYTE   VOL   71*song2C_mvl/mxv
 BYTE   N05  Fn2  v108
 BYTE   W06
 BYTE   PAN   c_v+34
 BYTE   N02  Fn2  v044
 BYTE   W03
 BYTE   PAN   c_v+49
 BYTE   N02  Fn2  v040
 BYTE   W03
 BYTE   PAN   c_v+14
 BYTE   N05  Fn2  v104
 BYTE   W06
 BYTE   PAN   c_v+34
 BYTE   N02  Fn2  v040
 BYTE   W03
 BYTE   PAN   c_v+49
 BYTE   N02  Fn2  v032
 BYTE   W03
 BYTE   PAN   c_v+14
 BYTE   N05  Fn2  v104
 BYTE   W06
 BYTE   PAN   c_v+34
 BYTE   N02  Fn2  v040
 BYTE   W03
 BYTE   PAN   c_v+49
 BYTE   N02  Fn2  v032
 BYTE   W03
 BYTE   PAN   c_v+14
 BYTE   N05  Fn2  v104
 BYTE   W05
// 018   ----------------------------------------
 BYTE   W01
 BYTE   PAN   c_v+34
 BYTE   N02  Fn2  v040
 BYTE   W03
 BYTE   PAN   c_v+49
 BYTE   N02  Fn2  v032
 BYTE   W03
 BYTE   PAN   c_v+14
 BYTE   VOL   71*song2C_mvl/mxv
 BYTE   N05  Gs2  v108
 BYTE   W03
 BYTE   VOL   70*song2C_mvl/mxv
 BYTE   W03
 BYTE   PAN   c_v+34
 BYTE   N02  Gs2  v044
 BYTE   W03
 BYTE   PAN   c_v+49
 BYTE   N02  Gs2  v040
 BYTE   W02
 BYTE   VOL   70*song2C_mvl/mxv
 BYTE   W01
 BYTE   PAN   c_v+14
 BYTE   N05  Gs2  v104
 BYTE   W06
 BYTE   VOL   69*song2C_mvl/mxv
 BYTE   PAN   c_v+34
 BYTE   N02  Gs2  v040
 BYTE   W03
 BYTE   PAN   c_v+49
 BYTE   N02  Gs2  v032
 BYTE   W03
 BYTE   PAN   c_v+14
 BYTE   N05  Gs2  v104
 BYTE   W01
 BYTE   VOL   68*song2C_mvl/mxv
 BYTE   W05
 BYTE   PAN   c_v+34
 BYTE   N02  Gs2  v040
 BYTE   W03
 BYTE   VOL   68*song2C_mvl/mxv
 BYTE   PAN   c_v+49
 BYTE   N02  Gs2  v032
 BYTE   W03
 BYTE   PAN   c_v+14
 BYTE   N05  Gs2  v104
 BYTE   W04
 BYTE   VOL   67*song2C_mvl/mxv
 BYTE   W02
 BYTE   PAN   c_v+34
 BYTE   N02  Gs2  v040
 BYTE   W03
 BYTE   PAN   c_v+49
 BYTE   N02  Gs2  v032
 BYTE   W02
 BYTE   VOL   66*song2C_mvl/mxv
 BYTE   W01
 BYTE   PAN   c_v+14
 BYTE   N05  Fs2  v108
 BYTE   W06
 BYTE   PAN   c_v+34
 BYTE   N02  Fs2  v044
 BYTE   W01
 BYTE   VOL   66*song2C_mvl/mxv
 BYTE   W02
 BYTE   PAN   c_v+49
 BYTE   N02  Fs2  v040
 BYTE   W03
 BYTE   PAN   c_v+14
 BYTE   N05  Fs2  v104
 BYTE   W02
 BYTE   VOL   65*song2C_mvl/mxv
 BYTE   W04
 BYTE   PAN   c_v+34
 BYTE   N02  Fs2  v040
 BYTE   W03
 BYTE   PAN   c_v+49
 BYTE   VOL   64*song2C_mvl/mxv
 BYTE   N02  Fs2  v032
 BYTE   W03
 BYTE   PAN   c_v+14
 BYTE   N05  Fs2  v104
 BYTE   W05
 BYTE   VOL   64*song2C_mvl/mxv
 BYTE   W01
 BYTE   PAN   c_v+34
 BYTE   N02  Fs2  v040
 BYTE   W03
 BYTE   PAN   c_v+49
 BYTE   N02  Fs2  v032
 BYTE   W03
 BYTE   PAN   c_v+14
 BYTE   VOL   63*song2C_mvl/mxv
 BYTE   N05  Fs2  v104
 BYTE   W05
// 019   ----------------------------------------
 BYTE   W01
 BYTE   PAN   c_v+34
 BYTE   N02  Fs2  v040
 BYTE   W01
 BYTE   VOL   62*song2C_mvl/mxv
 BYTE   W02
 BYTE   PAN   c_v+49
 BYTE   N02  Fs2  v032
 BYTE   W03
 BYTE   PAN   c_v+14
 BYTE   N05  Fn2  v108
 BYTE   W03
 BYTE   VOL   62*song2C_mvl/mxv
 BYTE   W03
 BYTE   PAN   c_v+34
 BYTE   N02  Fn2  v044
 BYTE   W03
 BYTE   PAN   c_v+49
 BYTE   N02  Fn2  v040
 BYTE   W01
 BYTE   VOL   61*song2C_mvl/mxv
 BYTE   W02
 BYTE   PAN   c_v+14
 BYTE   N05  Fn2  v104
 BYTE   W05
 BYTE   VOL   60*song2C_mvl/mxv
 BYTE   W01
 BYTE   PAN   c_v+34
 BYTE   N02  Fn2  v040
 BYTE   W03
 BYTE   PAN   c_v+49
 BYTE   N02  Fn2  v032
 BYTE   W03
 BYTE   PAN   c_v+14
 BYTE   N05  Fn2  v104
 BYTE   W01
 BYTE   VOL   60*song2C_mvl/mxv
 BYTE   W05
 BYTE   PAN   c_v+34
 BYTE   N02  Fn2  v040
 BYTE   W03
 BYTE   PAN   c_v+49
 BYTE   N02  Fn2  v032
 BYTE   W03
 BYTE   PAN   c_v+14
 BYTE   N05  Fn2  v104
 BYTE   W06
 BYTE   PAN   c_v+34
 BYTE   N02  Fn2  v040
 BYTE   W03
 BYTE   PAN   c_v+49
 BYTE   N02  Fn2  v032
 BYTE   W03
 BYTE   PAN   c_v+14
 BYTE   Fs4
 BYTE   N05  Fn2  v108
 BYTE   W06
 BYTE   PAN   c_v+34
 BYTE   N02  Fn2  v044
 BYTE   W03
 BYTE   PAN   c_v+49
 BYTE   N02  Fn2  v040
 BYTE   W03
 BYTE   PAN   c_v+14
 BYTE   N05  Fn2  v104
 BYTE   W06
 BYTE   PAN   c_v+34
 BYTE   N02  Fn2  v040
 BYTE   W03
 BYTE   PAN   c_v+49
 BYTE   N02  Fn2  v032
 BYTE   W09
 BYTE   PAN   c_v+14
 BYTE   N05  Fn2  v104
 BYTE   W06
 BYTE   PAN   c_v+34
 BYTE   N02  Fn2  v040
 BYTE   W03
 BYTE   PAN   c_v+49
 BYTE   N02  Fn2  v032
 BYTE   W02
// 020   ----------------------------------------
 BYTE   W01
 BYTE   PAN   c_v+14
 BYTE   N03  Fn2  v104
 BYTE   W04
 BYTE   PAN   c_v+34
 BYTE   N01  Fn2  v040
 BYTE   W02
 BYTE   VOICE   67
 BYTE   VOL   73*song2C_mvl/mxv
 BYTE   PAN   c_v+14
 BYTE   N02  Dn3  v104
 BYTE   W04
 BYTE   Dn3  v044
 BYTE   W03
 BYTE   Dn3  v040
 BYTE   W05
 BYTE   N06  Dn3  v108
 BYTE   W08
 BYTE   N03  Dn3  v060
 BYTE   W04
 BYTE   N02  En3  v104
 BYTE   W04
 BYTE   En3  v044
 BYTE   W03
 BYTE   En3  v040
 BYTE   W05
 BYTE   N06  En3  v108
 BYTE   W08
 BYTE   N03  En3  v060
 BYTE   W04
 BYTE   N02  Dn3  v104
 BYTE   W04
 BYTE   Dn3  v044
 BYTE   W03
 BYTE   Dn3  v040
 BYTE   W05
 BYTE   N06  Dn3  v108
 BYTE   W08
 BYTE   N03  Dn3  v060
 BYTE   W04
 BYTE   N02  En3  v104
 BYTE   W04
 BYTE   En3  v044
 BYTE   W03
 BYTE   En3  v040
 BYTE   W05
 BYTE   N06  En3  v108
 BYTE   W05
// 021   ----------------------------------------
Label_3_0142DA28:
 BYTE   W03
 BYTE   N03  En3  v060
 BYTE   W04
 BYTE   N02  Dn3  v104
 BYTE   W04
 BYTE   Dn3  v044
 BYTE   W03
 BYTE   Dn3  v040
 BYTE   W05
 BYTE   N06  Dn3  v108
 BYTE   W08
 BYTE   N03  Dn3  v060
 BYTE   W04
 BYTE   N02  En3  v104
 BYTE   W04
 BYTE   En3  v044
 BYTE   W03
 BYTE   En3  v040
 BYTE   W05
 BYTE   N06  En3  v108
 BYTE   W08
 BYTE   N03  En3  v060
 BYTE   W04
 BYTE   N02  Dn3  v104
 BYTE   W04
 BYTE   Dn3  v044
 BYTE   W03
 BYTE   Dn3  v040
 BYTE   W05
 BYTE   N06  Dn3  v108
 BYTE   W08
 BYTE   N03  Dn3  v060
 BYTE   W04
 BYTE   N02  En3  v104
 BYTE   W04
 BYTE   En3  v044
 BYTE   W03
 BYTE   En3  v040
 BYTE   W05
 BYTE   N06  En3  v108
 BYTE   W05
 BYTE   PEND 
// 022   ----------------------------------------
Label_3_0142DA72:
 BYTE   W03
 BYTE   N03  En3  v060
 BYTE   W04
 BYTE   N02  Cn3  v104
 BYTE   W04
 BYTE   Cn3  v044
 BYTE   W03
 BYTE   Cn3  v040
 BYTE   W05
 BYTE   N06  Cn3  v108
 BYTE   W08
 BYTE   N03  Cn3  v060
 BYTE   W04
 BYTE   N02  Ds3  v104
 BYTE   W04
 BYTE   Ds3  v044
 BYTE   W03
 BYTE   Ds3  v040
 BYTE   W05
 BYTE   N06  Ds3  v108
 BYTE   W08
 BYTE   N03  Ds3  v060
 BYTE   W04
 BYTE   N02  Dn3  v104
 BYTE   W04
 BYTE   Dn3  v044
 BYTE   W03
 BYTE   Dn3  v040
 BYTE   W05
 BYTE   N06  Dn3  v108
 BYTE   W08
 BYTE   N03  Dn3  v060
 BYTE   W04
 BYTE   N02  Cs3  v104
 BYTE   W04
 BYTE   Cs3  v044
 BYTE   W03
 BYTE   Cs3  v040
 BYTE   W05
 BYTE   N06  Cs3  v108
 BYTE   W05
 BYTE   PEND 
// 023   ----------------------------------------
Label_3_0142DABC:
 BYTE   W03
 BYTE   N03  Cs3  v060
 BYTE   W04
 BYTE   N02  Cn3  v104
 BYTE   W04
 BYTE   Cn3  v044
 BYTE   W03
 BYTE   Cn3  v040
 BYTE   W05
 BYTE   N06  Cn3  v108
 BYTE   W08
 BYTE   N03  Cn3  v060
 BYTE   W04
 BYTE   N02  Ds3  v104
 BYTE   W04
 BYTE   Ds3  v044
 BYTE   W03
 BYTE   Ds3  v040
 BYTE   W05
 BYTE   N06  Ds3  v108
 BYTE   W08
 BYTE   N03  Ds3  v060
 BYTE   W04
 BYTE   N02  Dn3  v104
 BYTE   W04
 BYTE   Dn3  v044
 BYTE   W03
 BYTE   Dn3  v040
 BYTE   W05
 BYTE   N06  Dn3  v108
 BYTE   W08
 BYTE   N03  Dn3  v060
 BYTE   W04
 BYTE   N02  Cs3  v104
 BYTE   W04
 BYTE   Cs3  v044
 BYTE   W03
 BYTE   Cs3  v040
 BYTE   W05
 BYTE   N06  Cs3  v108
 BYTE   W05
 BYTE   PEND 
// 024   ----------------------------------------
Label_3_0142DB06:
 BYTE   W03
 BYTE   N03  Cs3  v060
 BYTE   W04
 BYTE   N02  Dn3  v104
 BYTE   W04
 BYTE   Dn3  v044
 BYTE   W03
 BYTE   Dn3  v040
 BYTE   W05
 BYTE   N06  Dn3  v108
 BYTE   W08
 BYTE   N03  Dn3  v060
 BYTE   W04
 BYTE   N02  En3  v104
 BYTE   W04
 BYTE   En3  v044
 BYTE   W03
 BYTE   En3  v040
 BYTE   W05
 BYTE   N06  En3  v108
 BYTE   W08
 BYTE   N03  En3  v060
 BYTE   W04
 BYTE   N02  Dn3  v104
 BYTE   W04
 BYTE   Dn3  v044
 BYTE   W03
 BYTE   Dn3  v040
 BYTE   W05
 BYTE   N06  Dn3  v108
 BYTE   W08
 BYTE   N03  Dn3  v060
 BYTE   W04
 BYTE   N02  En3  v104
 BYTE   W04
 BYTE   En3  v044
 BYTE   W03
 BYTE   En3  v040
 BYTE   W05
 BYTE   N06  En3  v108
 BYTE   W05
 BYTE   PEND 
 BYTE   PATT
  POIN2 Label_3_0142DA28
 BYTE   PATT
  POIN2 Label_3_0142DA72
 BYTE   PATT
  POIN2 Label_3_0142DABC
 BYTE   PATT
  POIN2 Label_3_0142DB06
// 025   ----------------------------------------
 BYTE   W03
 BYTE   N03  En3  v060
 BYTE   W04
 BYTE   N02  Dn3  v104
 BYTE   W01
 BYTE   VOICE   67
 BYTE   VOL   70*song2C_mvl/mxv
 BYTE   PAN   c_v-43
 BYTE   N03  Cn3
 BYTE   W04
 BYTE   Cn3  v052
 BYTE   W04
 BYTE   N02  Cn3  v040
 BYTE   W04
 BYTE   N03  Cn3  v104
 BYTE   W04
 BYTE   Cn3  v052
 BYTE   W04
 BYTE   Cn3  v040
 BYTE   W10
 BYTE   Cn3  v104
 BYTE   W04
 BYTE   Cn3  v052
 BYTE   W04
 BYTE   N02  Cn3  v040
 BYTE   W04
 BYTE   N03  Cn3  v104
 BYTE   W04
 BYTE   N01  Cn3  v052
 BYTE   W02
 BYTE   N03  Gs2  v104
 BYTE   W04
 BYTE   Gs2  v052
 BYTE   W04
 BYTE   N02  Gs2  v040
 BYTE   W04
 BYTE   N03  Gs2  v104
 BYTE   W04
 BYTE   Gs2  v052
 BYTE   W04
 BYTE   Gs2  v040
 BYTE   W10
 BYTE   Gs2  v104
 BYTE   W04
 BYTE   Gs2  v052
 BYTE   W04
 BYTE   N02  Gs2  v040
 BYTE   W02
// 026   ----------------------------------------
 BYTE   W02
 BYTE   N03  Gs2  v104
 BYTE   W04
 BYTE   N01  Gs2  v052
 BYTE   W02
 BYTE   N03  Fn2  v104
 BYTE   W04
 BYTE   Fn2  v052
 BYTE   W04
 BYTE   N02  Fn2  v040
 BYTE   W04
 BYTE   N03  Fn2  v104
 BYTE   W04
 BYTE   Fn2  v052
 BYTE   W04
 BYTE   Fn2  v040
 BYTE   W10
 BYTE   Fn2  v104
 BYTE   W04
 BYTE   Fn2  v052
 BYTE   W04
 BYTE   N02  Fn2  v040
 BYTE   W04
 BYTE   N03  Fn2  v104
 BYTE   W04
 BYTE   N01  Fn2  v052
 BYTE   W02
 BYTE   N03  Gn2  v104
 BYTE   W04
 BYTE   Gn2  v052
 BYTE   W04
 BYTE   N02  Gn2  v040
 BYTE   W04
 BYTE   N03  Gn2  v104
 BYTE   W04
 BYTE   Gn2  v052
 BYTE   W04
 BYTE   Gn2  v040
 BYTE   W10
 BYTE   Gn2  v104
 BYTE   W04
 BYTE   Gn2  v052
 BYTE   W04
 BYTE   N02  Gn2  v040
 BYTE   W02
// 027   ----------------------------------------
 BYTE   W02
 BYTE   N03  Gn2  v104
 BYTE   W04
 BYTE   N01  Gn2  v052
 BYTE   W02
 BYTE   N03  Cn3  v104
 BYTE   W04
 BYTE   Cn3  v052
 BYTE   W04
 BYTE   N02  Cn3  v040
 BYTE   W04
 BYTE   N03  Cn3  v104
 BYTE   W04
 BYTE   Cn3  v052
 BYTE   W04
 BYTE   Cn3  v040
 BYTE   W10
 BYTE   Cn3  v104
 BYTE   W04
 BYTE   Cn3  v052
 BYTE   W04
 BYTE   N02  Cn3  v040
 BYTE   W04
 BYTE   N03  Cn3  v104
 BYTE   W04
 BYTE   N01  Cn3  v052
 BYTE   W02
 BYTE   N03  As2  v104
 BYTE   W04
 BYTE   As2  v052
 BYTE   W04
 BYTE   N02  As2  v040
 BYTE   W04
 BYTE   N03  As2  v104
 BYTE   W04
 BYTE   As2  v052
 BYTE   W04
 BYTE   As2  v040
 BYTE   W10
 BYTE   As2  v104
 BYTE   W04
 BYTE   As2  v052
 BYTE   W04
 BYTE   N02  As2  v040
 BYTE   W02
// 028   ----------------------------------------
 BYTE   W02
 BYTE   N03  As2  v104
 BYTE   W04
 BYTE   N01  As2  v052
 BYTE   W02
 BYTE   N03  Fn2  v104
 BYTE   W04
 BYTE   Fn2  v052
 BYTE   W04
 BYTE   N02  Fn2  v040
 BYTE   W04
 BYTE   N03  Fn2  v104
 BYTE   W04
 BYTE   Fn2  v052
 BYTE   W04
 BYTE   Fn2  v040
 BYTE   W10
 BYTE   Fn2  v104
 BYTE   W04
 BYTE   Fn2  v052
 BYTE   W04
 BYTE   N02  Fn2  v040
 BYTE   W04
 BYTE   N03  Fn2  v104
 BYTE   W04
 BYTE   N01  Fn2  v052
 BYTE   W02
 BYTE   N03  Gn2  v104
 BYTE   W04
 BYTE   Gn2  v052
 BYTE   W04
 BYTE   N02  Gn2  v040
 BYTE   W04
 BYTE   N03  Gn2  v104
 BYTE   W04
 BYTE   Gn2  v052
 BYTE   W04
 BYTE   Gn2  v040
 BYTE   W10
 BYTE   Gn2  v104
 BYTE   W04
 BYTE   Gn2  v052
 BYTE   W04
 BYTE   N02  Gn2  v040
 BYTE   W02
// 029   ----------------------------------------
 BYTE   W02
 BYTE   N03  Gn2  v104
 BYTE   W04
 BYTE   N01  Gn2  v052
 BYTE   W02
 BYTE   N03  As2  v104
 BYTE   W04
 BYTE   As2  v052
 BYTE   W04
 BYTE   N02  As2  v040
 BYTE   W04
 BYTE   N03  As2  v104
 BYTE   W04
 BYTE   As2  v052
 BYTE   W04
 BYTE   As2  v040
 BYTE   W10
 BYTE   As2  v104
 BYTE   W04
 BYTE   As2  v052
 BYTE   W04
 BYTE   N02  As2  v040
 BYTE   W04
 BYTE   N03  As2  v104
 BYTE   W04
 BYTE   N01  As2  v052
 BYTE   W02
 BYTE   N03  Fn2  v104
 BYTE   W04
 BYTE   Fn2  v052
 BYTE   W04
 BYTE   N02  Fn2  v040
 BYTE   W04
 BYTE   N03  Fn2  v104
 BYTE   W04
 BYTE   Fn2  v052
 BYTE   W04
 BYTE   Fn2  v040
 BYTE   W10
 BYTE   Fn2  v104
 BYTE   W04
 BYTE   Fn2  v052
 BYTE   W04
 BYTE   N02  Fn2  v040
 BYTE   W02
// 030   ----------------------------------------
 BYTE   W02
 BYTE   N03  Fn2  v104
 BYTE   W04
 BYTE   N01  Fn2  v052
 BYTE   W02
 BYTE   N03  Gn2  v104
 BYTE   W04
 BYTE   Gn2  v052
 BYTE   W04
 BYTE   N02  Gn2  v040
 BYTE   W04
 BYTE   N03  Gn2  v104
 BYTE   W04
 BYTE   Gn2  v052
 BYTE   W04
 BYTE   Gn2  v040
 BYTE   W10
 BYTE   Gn2  v104
 BYTE   W04
 BYTE   Gn2  v052
 BYTE   W04
 BYTE   N02  Gn2  v040
 BYTE   W04
 BYTE   N03  Gn2  v104
 BYTE   W04
 BYTE   N01  Gn2  v052
 BYTE   W02
 BYTE   N03  Gn2  v104
 BYTE   W04
 BYTE   Gn2  v052
 BYTE   W04
 BYTE   N02  Gn2  v040
 BYTE   W04
 BYTE   N03  Gn2  v104
 BYTE   W04
 BYTE   Gn2  v052
 BYTE   W04
 BYTE   Gn2  v040
 BYTE   W10
 BYTE   Gn2  v104
 BYTE   W04
 BYTE   Gn2  v052
 BYTE   W04
 BYTE   N02  Gn2  v040
 BYTE   W02
// 031   ----------------------------------------
 BYTE   W02
 BYTE   N03  Gn2  v104
 BYTE   W04
 BYTE   N01  Gn2  v052
 BYTE   W02
 BYTE   VOICE   56
 BYTE   VOL   51*song2C_mvl/mxv
 BYTE   PAN   c_v-34
 BYTE   N23  Cs3  v104
 BYTE   W24
 BYTE   N23
 BYTE   W24
 BYTE   Ds3
 BYTE   W24
 BYTE   As2
 BYTE   W16
// 032   ----------------------------------------
 BYTE   W08
 BYTE   Gs2
 BYTE   W24
 BYTE   N23
 BYTE   W24
 BYTE   Gn2
 BYTE   W24
 BYTE   N23
 BYTE   W16
// 033   ----------------------------------------
 BYTE   W08
 BYTE   Cs3
 BYTE   W24
 BYTE   N23
 BYTE   W24
 BYTE   Ds3
 BYTE   W24
 BYTE   As2
 BYTE   W16
// 034   ----------------------------------------
 BYTE   W08
 BYTE   Gs2
 BYTE   W24
 BYTE   Gn2
 BYTE   W24
 BYTE   N23
 BYTE   W24
 BYTE   Fn2
 BYTE   W16
// 035   ----------------------------------------
 BYTE   W08
 BYTE   N23
 BYTE   W24
 BYTE   Fn2  v108
 BYTE   W24
 BYTE   N44  Gs2  v104
 BYTE   W40
// 036   ----------------------------------------
 BYTE   W08
 BYTE   Gs2  v100
 BYTE   W88
// 037   ----------------------------------------
 BYTE   W96
// 038   ----------------------------------------
 BYTE   W96
// 039   ----------------------------------------
 BYTE   W56
 BYTE   W01
 BYTE   VOICE   56
 BYTE   VOL   40*song2C_mvl/mxv
 BYTE   PAN   c_v+43
 BYTE   N11  Cs4  v104
 BYTE   W12
 BYTE   En4
 BYTE   W12
 BYTE   Gn4
 BYTE   W12
 BYTE   Bn4
 BYTE   W03
// 040   ----------------------------------------
Label_3_0142DD99:
 BYTE   W09
 BYTE   N17  An4  v104
 BYTE   W18
 BYTE   N02  Gn4  v108
 BYTE   W03
 BYTE   Fn4  v096
 BYTE   W03
 BYTE   N11  Gn4  v104
 BYTE   W12
 BYTE   En4
 BYTE   W12
 BYTE   Cs4
 BYTE   W12
 BYTE   En4
 BYTE   W12
 BYTE   Gn4
 BYTE   W12
 BYTE   Bn4
 BYTE   W03
 BYTE   PEND 
// 041   ----------------------------------------
Label_3_0142DDB4:
 BYTE   W09
 BYTE   N44  Cs5  v104
 BYTE   W48
 BYTE   N17  Cn5
 BYTE   W18
 BYTE   N02  Bn4  v108
 BYTE   W03
 BYTE   Cn5  v096
 BYTE   W03
 BYTE   N11  Bn4  v104
 BYTE   W12
 BYTE   Dn5
 BYTE   W03
 BYTE   PEND 
// 042   ----------------------------------------
 BYTE   W09
 BYTE   N17  Cn5
 BYTE   W18
 BYTE   N02  Bn4  v108
 BYTE   W03
 BYTE   Dn5  v096
 BYTE   W03
 BYTE   N11  Bn4  v104
 BYTE   W12
 BYTE   Gn4
 BYTE   W12
 BYTE   N17  Cn5
 BYTE   W18
 BYTE   N02  Bn4  v108
 BYTE   W03
 BYTE   An4  v096
 BYTE   W03
 BYTE   N17  Bn4  v104
 BYTE   W15
// 043   ----------------------------------------
 BYTE   W03
 BYTE   N02  An4  v108
 BYTE   W03
 BYTE   Gn4  v096
 BYTE   W03
 BYTE   N17  An4  v104
 BYTE   W18
 BYTE   N02  Gn4  v108
 BYTE   W03
 BYTE   Fn4  v096
 BYTE   W03
 BYTE   N17  Gn4  v104
 BYTE   W18
 BYTE   N02  Fn4  v108
 BYTE   W03
 BYTE   En4  v096
 BYTE   W03
 BYTE   N11  Cs4  v104
 BYTE   W12
 BYTE   En4
 BYTE   W12
 BYTE   Gn4
 BYTE   W12
 BYTE   Bn4
 BYTE   W03
 BYTE   PATT
  POIN2 Label_3_0142DD99
 BYTE   PATT
  POIN2 Label_3_0142DDB4
// 044   ----------------------------------------
 BYTE   W09
 BYTE   N17  Cn5  v104
 BYTE   W18
 BYTE   N02  Bn4  v108
 BYTE   W03
 BYTE   Dn5  v096
 BYTE   W03
 BYTE   N11  Bn4  v104
 BYTE   W12
 BYTE   Gn4
 BYTE   W12
 BYTE   N17  An4
 BYTE   W18
 BYTE   N02  Gn4  v108
 BYTE   W03
 BYTE   Gn4  v096
 BYTE   W03
 BYTE   N17  Gs4  v104
 BYTE   W15
// 045   ----------------------------------------
 BYTE   W03
 BYTE   N02  Fs4  v108
 BYTE   W03
 BYTE   Fn4  v096
 BYTE   W03
 BYTE   N68  Gn4  v104
 BYTE   W84
 BYTE   W03
// 046   ----------------------------------------
 BYTE   W09
 BYTE   VOICE   67
 BYTE   VOL   73*song2C_mvl/mxv
 BYTE   PAN   c_v-25
 BYTE   N02  Gn2  v116
 BYTE   W03
 BYTE   Gn2  v060
 BYTE   W03
 BYTE   Gn2  v092
 BYTE   W03
 BYTE   Gn2  v044
 BYTE   W03
 BYTE   Gn2  v092
 BYTE   W03
 BYTE   Gn2  v044
 BYTE   W03
 BYTE   Gn2  v092
 BYTE   W03
 BYTE   Gn2  v044
 BYTE   W03
 BYTE   Gn2  v096
 BYTE   W03
 BYTE   Gn2  v052
 BYTE   W03
 BYTE   Gn2  v092
 BYTE   W03
 BYTE   Gn2  v044
 BYTE   W03
 BYTE   Gn2  v092
 BYTE   W03
 BYTE   Gn2  v044
 BYTE   W03
 BYTE   Gn2  v092
 BYTE   W03
 BYTE   Gn2  v044
 BYTE   W03
 BYTE   Gs2  v116
 BYTE   W03
 BYTE   Gs2  v060
 BYTE   W03
 BYTE   Gs2  v092
 BYTE   W03
 BYTE   Gs2  v044
 BYTE   W03
 BYTE   Gs2  v092
 BYTE   W03
 BYTE   Gs2  v044
 BYTE   W03
 BYTE   Gs2  v092
 BYTE   W03
 BYTE   Gs2  v044
 BYTE   W03
 BYTE   Gs2  v096
 BYTE   W03
 BYTE   Gs2  v052
 BYTE   W03
 BYTE   Gs2  v092
 BYTE   W03
 BYTE   Gs2  v044
 BYTE   W03
 BYTE   Gs2  v092
 BYTE   W03
// 047   ----------------------------------------
 BYTE   Gs2  v044
 BYTE   W03
 BYTE   Gs2  v092
 BYTE   W03
 BYTE   Gs2  v044
 BYTE   W03
 BYTE   Gs2  v116
 BYTE   W03
 BYTE   Gs2  v060
 BYTE   W03
 BYTE   Gs2  v092
 BYTE   W03
 BYTE   Gs2  v044
 BYTE   W03
 BYTE   Gs2  v092
 BYTE   W03
 BYTE   Gs2  v044
 BYTE   W03
 BYTE   Gs2  v092
 BYTE   W03
 BYTE   Gs2  v044
 BYTE   W03
 BYTE   Gs2  v096
 BYTE   W03
 BYTE   Gs2  v052
 BYTE   W03
 BYTE   Gs2  v092
 BYTE   W03
 BYTE   Gs2  v044
 BYTE   W03
 BYTE   Gs2  v092
 BYTE   W03
 BYTE   Gs2  v044
 BYTE   W03
 BYTE   Gs2  v092
 BYTE   W03
 BYTE   Gs2  v044
 BYTE   W03
 BYTE   As2  v116
 BYTE   W03
 BYTE   As2  v060
 BYTE   W03
 BYTE   As2  v092
 BYTE   W03
 BYTE   As2  v044
 BYTE   W03
 BYTE   As2  v092
 BYTE   W03
 BYTE   As2  v044
 BYTE   W03
 BYTE   As2  v092
 BYTE   W03
 BYTE   As2  v044
 BYTE   W03
 BYTE   As2  v096
 BYTE   W03
 BYTE   As2  v052
 BYTE   W03
 BYTE   As2  v092
 BYTE   W03
 BYTE   As2  v044
 BYTE   W03
 BYTE   As2  v092
 BYTE   W03
// 048   ----------------------------------------
 BYTE   As2  v044
 BYTE   W03
 BYTE   As2  v092
 BYTE   W03
 BYTE   As2  v044
 BYTE   W03
 BYTE   An2  v116
 BYTE   W03
 BYTE   An2  v060
 BYTE   W03
 BYTE   An2  v092
 BYTE   W03
 BYTE   An2  v044
 BYTE   W03
 BYTE   An2  v092
 BYTE   W03
 BYTE   An2  v044
 BYTE   W03
 BYTE   An2  v092
 BYTE   W03
 BYTE   An2  v044
 BYTE   W03
 BYTE   An2  v096
 BYTE   W03
 BYTE   An2  v052
 BYTE   W03
 BYTE   An2  v092
 BYTE   W03
 BYTE   An2  v044
 BYTE   W03
 BYTE   An2  v092
 BYTE   W03
 BYTE   An2  v044
 BYTE   W03
 BYTE   An2  v092
 BYTE   W03
 BYTE   An2  v044
 BYTE   W03
 BYTE   Fs2  v116
 BYTE   W03
 BYTE   Fs2  v060
 BYTE   W03
 BYTE   Fs2  v092
 BYTE   W03
 BYTE   Fs2  v044
 BYTE   W03
 BYTE   Fs2  v092
 BYTE   W03
 BYTE   Fs2  v044
 BYTE   W03
 BYTE   Fs2  v092
 BYTE   W03
 BYTE   Fs2  v044
 BYTE   W03
 BYTE   Fs2  v096
 BYTE   W03
 BYTE   Fs2  v052
 BYTE   W03
 BYTE   Fs2  v092
 BYTE   W03
 BYTE   Fs2  v044
 BYTE   W03
 BYTE   Fs2  v092
 BYTE   W03
// 049   ----------------------------------------
 BYTE   Fs2  v044
 BYTE   W03
 BYTE   Fs2  v092
 BYTE   W03
 BYTE   Fs2  v044
 BYTE   W03
 BYTE   An2  v116
 BYTE   W03
 BYTE   An2  v060
 BYTE   W03
 BYTE   An2  v092
 BYTE   W03
 BYTE   An2  v044
 BYTE   W03
 BYTE   An2  v092
 BYTE   W03
 BYTE   An2  v044
 BYTE   W03
 BYTE   An2  v092
 BYTE   W03
 BYTE   An2  v044
 BYTE   W03
 BYTE   An2  v096
 BYTE   W03
 BYTE   An2  v052
 BYTE   W03
 BYTE   An2  v092
 BYTE   W03
 BYTE   An2  v044
 BYTE   W03
 BYTE   An2  v092
 BYTE   W03
 BYTE   An2  v044
 BYTE   W03
 BYTE   An2  v092
 BYTE   W03
 BYTE   An2  v044
 BYTE   W03
 BYTE   Fs2  v116
 BYTE   W03
 BYTE   Fs2  v060
 BYTE   W03
 BYTE   Fs2  v092
 BYTE   W03
 BYTE   Fs2  v044
 BYTE   W03
 BYTE   Fs2  v092
 BYTE   W03
 BYTE   Fs2  v044
 BYTE   W03
 BYTE   Fs2  v092
 BYTE   W03
 BYTE   Fs2  v044
 BYTE   W03
 BYTE   Fs2  v096
 BYTE   W03
 BYTE   Fs2  v052
 BYTE   W03
 BYTE   Fs2  v092
 BYTE   W03
 BYTE   Fs2  v044
 BYTE   W03
 BYTE   Fs2  v092
 BYTE   W03
// 050   ----------------------------------------
 BYTE   Fs2  v044
 BYTE   W03
 BYTE   Fs2  v092
 BYTE   W03
 BYTE   Fs2  v044
 BYTE   W03
 BYTE   An2  v116
 BYTE   W03
 BYTE   An2  v060
 BYTE   W03
 BYTE   An2  v092
 BYTE   W03
 BYTE   An2  v044
 BYTE   W03
 BYTE   An2  v092
 BYTE   W03
 BYTE   An2  v044
 BYTE   W03
 BYTE   An2  v092
 BYTE   W03
 BYTE   An2  v044
 BYTE   W03
 BYTE   An2  v096
 BYTE   W03
 BYTE   An2  v052
 BYTE   W03
 BYTE   An2  v092
 BYTE   W03
 BYTE   An2  v044
 BYTE   W03
 BYTE   An2  v092
 BYTE   W03
 BYTE   An2  v044
 BYTE   W03
 BYTE   An2  v092
 BYTE   W03
 BYTE   An2  v044
 BYTE   W03
 BYTE   As2  v116
 BYTE   W03
 BYTE   As2  v060
 BYTE   W03
 BYTE   As2  v092
 BYTE   W03
 BYTE   As2  v044
 BYTE   W03
 BYTE   As2  v092
 BYTE   W03
 BYTE   As2  v044
 BYTE   W03
 BYTE   As2  v092
 BYTE   W03
 BYTE   As2  v044
 BYTE   W03
 BYTE   As2  v096
 BYTE   W03
 BYTE   As2  v052
 BYTE   W03
 BYTE   As2  v092
 BYTE   W03
 BYTE   As2  v044
 BYTE   W03
 BYTE   As2  v092
 BYTE   W03
// 051   ----------------------------------------
Label_3_0142E027:
 BYTE   N02  As2  v044
 BYTE   W03
 BYTE   As2  v092
 BYTE   W03
 BYTE   As2  v044
 BYTE   W03
 BYTE   Gn2  v116
 BYTE   W03
 BYTE   Gn2  v060
 BYTE   W03
 BYTE   Gn2  v092
 BYTE   W03
 BYTE   Gn2  v044
 BYTE   W03
 BYTE   Gn2  v092
 BYTE   W03
 BYTE   Gn2  v044
 BYTE   W03
 BYTE   Gn2  v092
 BYTE   W03
 BYTE   Gn2  v044
 BYTE   W03
 BYTE   Gn2  v096
 BYTE   W03
 BYTE   Gn2  v052
 BYTE   W03
 BYTE   Gn2  v092
 BYTE   W03
 BYTE   Gn2  v044
 BYTE   W03
 BYTE   Gn2  v092
 BYTE   W03
 BYTE   Gn2  v044
 BYTE   W03
 BYTE   Gn2  v092
 BYTE   W03
 BYTE   Gn2  v044
 BYTE   W03
 BYTE   As2  v116
 BYTE   W03
 BYTE   As2  v060
 BYTE   W03
 BYTE   As2  v092
 BYTE   W03
 BYTE   As2  v044
 BYTE   W03
 BYTE   As2  v092
 BYTE   W03
 BYTE   As2  v044
 BYTE   W03
 BYTE   As2  v092
 BYTE   W03
 BYTE   As2  v044
 BYTE   W03
 BYTE   As2  v096
 BYTE   W03
 BYTE   As2  v052
 BYTE   W03
 BYTE   As2  v092
 BYTE   W03
 BYTE   As2  v044
 BYTE   W03
 BYTE   As2  v092
 BYTE   W03
 BYTE   PEND 
 BYTE   PATT
  POIN2 Label_3_0142E027
// 052   ----------------------------------------
 BYTE   N02  As2  v044
 BYTE   W03
 BYTE   As2  v092
 BYTE   W03
 BYTE   As2  v044
 BYTE   W03
 BYTE   Cn3  v116
 BYTE   W03
 BYTE   Cn3  v060
 BYTE   W03
 BYTE   Cn3  v092
 BYTE   W03
 BYTE   Cn3  v044
 BYTE   W03
 BYTE   Cn3  v092
 BYTE   W03
 BYTE   Cn3  v044
 BYTE   W03
 BYTE   Cn3  v092
 BYTE   W03
 BYTE   Cn3  v044
 BYTE   W03
 BYTE   Cn3  v096
 BYTE   W03
 BYTE   Cn3  v052
 BYTE   W03
 BYTE   Cn3  v092
 BYTE   W03
 BYTE   Cn3  v044
 BYTE   W03
 BYTE   Cn3  v092
 BYTE   W03
 BYTE   Cn3  v044
 BYTE   W03
 BYTE   Cn3  v092
 BYTE   W03
 BYTE   Cn3  v044
 BYTE   W03
 BYTE   Cn3  v116
 BYTE   W03
 BYTE   Cn3  v060
 BYTE   W03
 BYTE   Cn3  v092
 BYTE   W03
 BYTE   Cn3  v044
 BYTE   W03
 BYTE   Cn3  v092
 BYTE   W03
 BYTE   Cn3  v044
 BYTE   W03
 BYTE   Cn3  v092
 BYTE   W03
 BYTE   Cn3  v044
 BYTE   W03
 BYTE   Cn3  v096
 BYTE   W03
 BYTE   Cn3  v052
 BYTE   W03
 BYTE   Cn3  v092
 BYTE   W03
 BYTE   Cn3  v044
 BYTE   W03
 BYTE   Cn3  v092
 BYTE   W03
// 053   ----------------------------------------
 BYTE   Cn3  v044
 BYTE   W03
 BYTE   Cn3  v092
 BYTE   W03
 BYTE   Cn3  v044
 BYTE   W03
 BYTE   Cn3  v116
 BYTE   W03
 BYTE   Cn3  v060
 BYTE   W03
 BYTE   Cn3  v092
 BYTE   W03
 BYTE   Cn3  v044
 BYTE   W03
 BYTE   Cn3  v092
 BYTE   W03
 BYTE   Cn3  v044
 BYTE   W03
 BYTE   Cn3  v092
 BYTE   W03
 BYTE   Cn3  v044
 BYTE   W03
 BYTE   Cn3  v096
 BYTE   W03
 BYTE   Cn3  v052
 BYTE   W03
 BYTE   Cn3  v092
 BYTE   W03
 BYTE   Cn3  v044
 BYTE   W03
 BYTE   Cn3  v092
 BYTE   W03
 BYTE   Cn3  v044
 BYTE   W03
 BYTE   Cn3  v092
 BYTE   W03
 BYTE   Cn3  v044
 BYTE   W03
 BYTE   Bn2  v116
 BYTE   W03
 BYTE   Bn2  v060
 BYTE   W03
 BYTE   Bn2  v092
 BYTE   W03
 BYTE   Bn2  v044
 BYTE   W03
 BYTE   Bn2  v092
 BYTE   W03
 BYTE   Bn2  v044
 BYTE   W03
 BYTE   Bn2  v092
 BYTE   W03
 BYTE   Bn2  v044
 BYTE   W03
 BYTE   Bn2  v096
 BYTE   W03
 BYTE   Bn2  v052
 BYTE   W03
 BYTE   Bn2  v092
 BYTE   W03
 BYTE   Bn2  v044
 BYTE   W03
 BYTE   Bn2  v092
 BYTE   W03
// 054   ----------------------------------------
 BYTE   Bn2  v044
 BYTE   W03
 BYTE   Bn2  v092
 BYTE   W03
 BYTE   Bn2  v044
 BYTE   W03
 BYTE   N06  Gn2  v116
 BYTE   W08
 BYTE   PAN   c_v+14
 BYTE   N03  Gn2  v060
 BYTE   W04
 BYTE   PAN   c_v+25
 BYTE   N03  Gn2  v052
 BYTE   W04
 BYTE   PAN   c_v+34
 BYTE   N03  Gn2  v044
 BYTE   W04
 BYTE   PAN   c_v+43
 BYTE   N03  Gn2  v040
 BYTE   W04
 BYTE   PAN   c_v-25
 BYTE   W24
 BYTE   N06  Gs2  v116
 BYTE   W08
 BYTE   PAN   c_v-34
 BYTE   N03  Gs2  v060
 BYTE   W04
 BYTE   PAN   c_v-43
 BYTE   N03  Gs2  v052
 BYTE   W04
 BYTE   PAN   c_v-49
 BYTE   N03  Gs2  v044
 BYTE   W04
 BYTE   PAN   c_v-54
 BYTE   N03  Gs2  v040
 BYTE   W04
 BYTE   PAN   c_v-25
 BYTE   W15
// 055   ----------------------------------------
 BYTE   W09
 BYTE   N06  Gs2  v116
 BYTE   W08
 BYTE   PAN   c_v+14
 BYTE   N03  Gs2  v060
 BYTE   W04
 BYTE   PAN   c_v+25
 BYTE   N03  Gs2  v052
 BYTE   W04
 BYTE   PAN   c_v+34
 BYTE   N03  Gs2  v044
 BYTE   W04
 BYTE   PAN   c_v+43
 BYTE   N03  Gs2  v040
 BYTE   W04
 BYTE   PAN   c_v-25
 BYTE   W24
 BYTE   N06  As2  v116
 BYTE   W08
 BYTE   PAN   c_v-34
 BYTE   N03  As2  v060
 BYTE   W04
 BYTE   PAN   c_v-43
 BYTE   N03  As2  v052
 BYTE   W04
 BYTE   PAN   c_v-49
 BYTE   N03  As2  v044
 BYTE   W04
 BYTE   PAN   c_v-54
 BYTE   N03  As2  v040
 BYTE   W04
 BYTE   PAN   c_v-25
 BYTE   W15
// 056   ----------------------------------------
Label_3_0142E1D5:
 BYTE   W09
 BYTE   N06  An2  v116
 BYTE   W08
 BYTE   PAN   c_v+14
 BYTE   N03  An2  v060
 BYTE   W04
 BYTE   PAN   c_v+25
 BYTE   N03  An2  v052
 BYTE   W04
 BYTE   PAN   c_v+34
 BYTE   N03  An2  v044
 BYTE   W04
 BYTE   PAN   c_v+43
 BYTE   N03  An2  v040
 BYTE   W04
 BYTE   PAN   c_v-25
 BYTE   W24
 BYTE   N06  Fs2  v116
 BYTE   W08
 BYTE   PAN   c_v-34
 BYTE   N03  Fs2  v060
 BYTE   W04
 BYTE   PAN   c_v-43
 BYTE   N03  Fs2  v052
 BYTE   W04
 BYTE   PAN   c_v-49
 BYTE   N03  Fs2  v044
 BYTE   W04
 BYTE   PAN   c_v-54
 BYTE   N03  Fs2  v040
 BYTE   W04
 BYTE   PAN   c_v-25
 BYTE   W15
 BYTE   PEND 
 BYTE   PATT
  POIN2 Label_3_0142E1D5
// 057   ----------------------------------------
 BYTE   W09
 BYTE   N06  An2  v116
 BYTE   W08
 BYTE   PAN   c_v+14
 BYTE   N03  An2  v060
 BYTE   W04
 BYTE   PAN   c_v+25
 BYTE   N03  An2  v052
 BYTE   W04
 BYTE   PAN   c_v+34
 BYTE   N03  An2  v044
 BYTE   W04
 BYTE   PAN   c_v+43
 BYTE   N03  An2  v040
 BYTE   W04
 BYTE   PAN   c_v-25
 BYTE   W24
 BYTE   N06  As2  v116
 BYTE   W08
 BYTE   PAN   c_v-34
 BYTE   N03  As2  v060
 BYTE   W04
 BYTE   PAN   c_v-43
 BYTE   N03  As2  v052
 BYTE   W04
 BYTE   PAN   c_v-49
 BYTE   N03  As2  v044
 BYTE   W04
 BYTE   PAN   c_v-54
 BYTE   N03  As2  v040
 BYTE   W04
 BYTE   PAN   c_v-25
 BYTE   W15
// 058   ----------------------------------------
Label_3_0142E259:
 BYTE   W09
 BYTE   N06  Gn2  v116
 BYTE   W08
 BYTE   PAN   c_v+14
 BYTE   N03  Gn2  v060
 BYTE   W04
 BYTE   PAN   c_v+25
 BYTE   N03  Gn2  v052
 BYTE   W04
 BYTE   PAN   c_v+34
 BYTE   N03  Gn2  v044
 BYTE   W04
 BYTE   PAN   c_v+43
 BYTE   N03  Gn2  v040
 BYTE   W04
 BYTE   PAN   c_v-25
 BYTE   W24
 BYTE   N06  As2  v116
 BYTE   W08
 BYTE   PAN   c_v-34
 BYTE   N03  As2  v060
 BYTE   W04
 BYTE   PAN   c_v-43
 BYTE   N03  As2  v052
 BYTE   W04
 BYTE   PAN   c_v-49
 BYTE   N03  As2  v044
 BYTE   W04
 BYTE   PAN   c_v-54
 BYTE   N03  As2  v040
 BYTE   W04
 BYTE   PAN   c_v-25
 BYTE   W15
 BYTE   PEND 
 BYTE   PATT
  POIN2 Label_3_0142E259
// 059   ----------------------------------------
 BYTE   W09
 BYTE   N06  Cn3  v116
 BYTE   W08
 BYTE   PAN   c_v+14
 BYTE   N03  Cn3  v060
 BYTE   W04
 BYTE   PAN   c_v+25
 BYTE   N03  Cn3  v052
 BYTE   W04
 BYTE   PAN   c_v+34
 BYTE   N03  Cn3  v044
 BYTE   W04
 BYTE   PAN   c_v+43
 BYTE   N03  Cn3  v040
 BYTE   W04
 BYTE   PAN   c_v-25
 BYTE   W24
 BYTE   N06  Cn3  v116
 BYTE   W08
 BYTE   PAN   c_v-34
 BYTE   N03  Cn3  v060
 BYTE   W04
 BYTE   PAN   c_v-43
 BYTE   N03  Cn3  v052
 BYTE   W04
 BYTE   PAN   c_v-49
 BYTE   N03  Cn3  v044
 BYTE   W04
 BYTE   PAN   c_v-54
 BYTE   N03  Cn3  v040
 BYTE   W04
 BYTE   PAN   c_v-25
 BYTE   W15
// 060   ----------------------------------------
 BYTE   W09
 BYTE   N06  Cn3  v116
 BYTE   W08
 BYTE   PAN   c_v+14
 BYTE   N03  Cn3  v060
 BYTE   W04
 BYTE   PAN   c_v+25
 BYTE   N03  Cn3  v052
 BYTE   W04
 BYTE   PAN   c_v+34
 BYTE   N03  Cn3  v044
 BYTE   W04
 BYTE   PAN   c_v+43
 BYTE   N03  Cn3  v040
 BYTE   W04
 BYTE   PAN   c_v-25
 BYTE   W24
 BYTE   N06  Bn2  v116
 BYTE   W08
 BYTE   PAN   c_v-34
 BYTE   N03  Bn2  v060
 BYTE   W04
 BYTE   PAN   c_v-43
 BYTE   N03  Bn2  v052
 BYTE   W04
 BYTE   PAN   c_v-49
 BYTE   N03  Bn2  v044
 BYTE   W04
 BYTE   PAN   c_v-54
 BYTE   N03  Bn2  v040
 BYTE   W04
 BYTE   PAN   c_v-25
 BYTE   W15
// 061   ----------------------------------------
 BYTE   W10
 BYTE   VOICE   67
 BYTE   VOL   70*song2C_mvl/mxv
 BYTE   PAN   c_v-34
 BYTE   N04  Ds3  v116
 BYTE   W05
 BYTE   PAN   c_v-34
 BYTE   N03  Ds3  v060
 BYTE   W04
 BYTE   PAN   c_v-43
 BYTE   N03  Ds3  v052
 BYTE   W04
 BYTE   PAN   c_v-49
 BYTE   N03  Ds3  v044
 BYTE   W04
 BYTE   PAN   c_v-54
 BYTE   N03  Ds3  v040
 BYTE   W04
 BYTE   PAN   c_v-58
 BYTE   N03  Ds3  v032
 BYTE   W04
 BYTE   PAN   c_v-34
 BYTE   W23
 BYTE   N04  Ds3  v116
 BYTE   W05
 BYTE   PAN   c_v-34
 BYTE   N03  Ds3  v060
 BYTE   W04
 BYTE   PAN   c_v-43
 BYTE   N03  Ds3  v052
 BYTE   W04
 BYTE   PAN   c_v-49
 BYTE   N03  Ds3  v044
 BYTE   W04
 BYTE   PAN   c_v-54
 BYTE   N03  Ds3  v040
 BYTE   W04
 BYTE   PAN   c_v-58
 BYTE   N03  Ds3  v032
 BYTE   W04
 BYTE   PAN   c_v-34
 BYTE   W13
// 062   ----------------------------------------
Label_3_0142E36D:
 BYTE   W10
 BYTE   N04  Ds3  v116
 BYTE   W05
 BYTE   PAN   c_v-34
 BYTE   N03  Ds3  v060
 BYTE   W04
 BYTE   PAN   c_v-43
 BYTE   N03  Ds3  v052
 BYTE   W04
 BYTE   PAN   c_v-49
 BYTE   N03  Ds3  v044
 BYTE   W04
 BYTE   PAN   c_v-54
 BYTE   N03  Ds3  v040
 BYTE   W04
 BYTE   PAN   c_v-58
 BYTE   N03  Ds3  v032
 BYTE   W04
 BYTE   PAN   c_v-34
 BYTE   W23
 BYTE   N04  Ds3  v116
 BYTE   W05
 BYTE   PAN   c_v-34
 BYTE   N03  Ds3  v060
 BYTE   W04
 BYTE   PAN   c_v-43
 BYTE   N03  Ds3  v052
 BYTE   W04
 BYTE   PAN   c_v-49
 BYTE   N03  Ds3  v044
 BYTE   W04
 BYTE   PAN   c_v-54
 BYTE   N03  Ds3  v040
 BYTE   W04
 BYTE   PAN   c_v-58
 BYTE   N03  Ds3  v032
 BYTE   W04
 BYTE   PAN   c_v-34
 BYTE   W11
 BYTE   N06  Dn3  v124
 BYTE   W02
 BYTE   PEND 
// 063   ----------------------------------------
Label_3_0142E3BD:
 BYTE   W05
 BYTE   PAN   c_v-43
 BYTE   N02  Dn3  v060
 BYTE   W03
 BYTE   PAN   c_v-34
 BYTE   W02
 BYTE   N04  Ds3  v116
 BYTE   W05
 BYTE   PAN   c_v-34
 BYTE   N03  Ds3  v060
 BYTE   W04
 BYTE   PAN   c_v-43
 BYTE   N03  Ds3  v052
 BYTE   W04
 BYTE   PAN   c_v-49
 BYTE   N03  Ds3  v044
 BYTE   W04
 BYTE   PAN   c_v-54
 BYTE   N03  Ds3  v040
 BYTE   W04
 BYTE   PAN   c_v-58
 BYTE   N03  Ds3  v032
 BYTE   W04
 BYTE   PAN   c_v-34
 BYTE   W23
 BYTE   N04  Ds3  v116
 BYTE   W05
 BYTE   PAN   c_v-34
 BYTE   N03  Ds3  v060
 BYTE   W04
 BYTE   PAN   c_v-43
 BYTE   N03  Ds3  v052
 BYTE   W04
 BYTE   PAN   c_v-49
 BYTE   N03  Ds3  v044
 BYTE   W04
 BYTE   PAN   c_v-54
 BYTE   N03  Ds3  v040
 BYTE   W04
 BYTE   PAN   c_v-58
 BYTE   N03  Ds3  v032
 BYTE   W04
 BYTE   PAN   c_v-34
 BYTE   W13
 BYTE   PEND 
 BYTE   PATT
  POIN2 Label_3_0142E36D
 BYTE   PATT
  POIN2 Label_3_0142E3BD
 BYTE   PATT
  POIN2 Label_3_0142E36D
 BYTE   PATT
  POIN2 Label_3_0142E3BD
 BYTE   PATT
  POIN2 Label_3_0142E36D
// 064   ----------------------------------------
 BYTE   W05
 BYTE   PAN   c_v-43
 BYTE   N02  Dn3  v060
 BYTE   W03
 BYTE   PAN   c_v-34
 BYTE   W02
 BYTE   VOICE   67
 BYTE   VOL   70*song2C_mvl/mxv
 BYTE   PAN   c_v-14
 BYTE   N03  Cn3  v112
 BYTE   W04
 BYTE   N01  Cn3  v060
 BYTE   W02
 BYTE   N03  Cn3  v096
 BYTE   W04
 BYTE   Cn3  v052
 BYTE   W04
 BYTE   Cn3  v040
 BYTE   W04
 BYTE   Cn3  v104
 BYTE   W04
 BYTE   Cn3  v052
 BYTE   W04
 BYTE   Cn3  v040
 BYTE   W04
 BYTE   Cn3  v096
 BYTE   W04
 BYTE   N01  Cn3  v052
 BYTE   W02
 BYTE   N03  Dn3  v116
 BYTE   W04
 BYTE   N01  Dn3  v060
 BYTE   W02
 BYTE   N03  Dn3  v100
 BYTE   W04
 BYTE   Dn3  v052
 BYTE   W04
 BYTE   Dn3  v040
 BYTE   W04
 BYTE   Dn3  v104
 BYTE   W04
 BYTE   Dn3  v052
 BYTE   W04
 BYTE   Dn3  v040
 BYTE   W04
 BYTE   Dn3  v100
 BYTE   W04
 BYTE   N01  Dn3  v052
 BYTE   W02
 BYTE   N03  Cn3  v120
 BYTE   W04
 BYTE   N01  Cn3  v060
 BYTE   W02
 BYTE   N03  Cn3  v100
 BYTE   W04
 BYTE   Cn3  v052
 BYTE   W04
// 065   ----------------------------------------
 BYTE   Cn3  v040
 BYTE   W04
 BYTE   Cn3  v108
 BYTE   W04
 BYTE   Cn3  v052
 BYTE   W04
 BYTE   Cn3  v040
 BYTE   W04
 BYTE   Cn3  v100
 BYTE   W04
 BYTE   N01  Cn3  v052
 BYTE   W02
 BYTE   N03  Cn3  v120
 BYTE   W04
 BYTE   N01  Cn3  v060
 BYTE   W02
 BYTE   N03  Cn3  v104
 BYTE   W04
 BYTE   Cn3  v052
 BYTE   W04
 BYTE   Cn3  v040
 BYTE   W04
 BYTE   Cn3  v112
 BYTE   W04
 BYTE   Cn3  v052
 BYTE   W04
 BYTE   Cn3  v040
 BYTE   W04
 BYTE   Cn3  v104
 BYTE   W04
 BYTE   N01  Cn3  v052
 BYTE   W02
 BYTE   VOICE   60
 BYTE   VOL   53*song2C_mvl/mxv
 BYTE   PAN   c_v-25
 BYTE   N11  En3  v104
 BYTE   W12
 BYTE   Fs3
 BYTE   W12
 BYTE   N44  Gn3
 BYTE   W14
// 066   ----------------------------------------
 BYTE   W32
 BYTE   W02
 BYTE   N11  Fs3
 BYTE   W12
 BYTE   Gn3
 BYTE   W12
 BYTE   N44  An3
 BYTE   W36
 BYTE   W02
// 067   ----------------------------------------
 BYTE   W10
 BYTE   N11  Fs3
 BYTE   W12
 BYTE   Gn3
 BYTE   W12
 BYTE   TIE  Dn4
 BYTE   W60
 BYTE   W02
// 068   ----------------------------------------
 BYTE   W92
 BYTE   W01
 BYTE   EOT
 BYTE   W01
 BYTE   N11  Fn4
 BYTE   W02
// 069   ----------------------------------------
 BYTE   W10
 BYTE   Ds4
 BYTE   W12
 BYTE   Dn4
 BYTE   W12
 BYTE   N32  Cn4
 BYTE   W36
 BYTE   As3
 BYTE   W24
 BYTE   W02
// 070   ----------------------------------------
 BYTE   W10
 BYTE   N23  Gs3
 BYTE   W24
 BYTE   N11  Fn3
 BYTE   W12
 BYTE   N32  Gn3
 BYTE   W36
 BYTE   W01
 BYTE   VOICE   42
 BYTE   VOL   50*song2C_mvl/mxv
 BYTE   PAN   c_v-25
 BYTE   N32  En2
 BYTE   W13
// 071   ----------------------------------------
 BYTE   W23
 BYTE   N23  Gn2
 BYTE   W24
 BYTE   N11  Cn3
 BYTE   W12
 BYTE   N23
 BYTE   W24
 BYTE   N11  Dn3
 BYTE   W12
 BYTE   N32  As2
 BYTE   W01
// 072   ----------------------------------------
 BYTE   W32
 BYTE   W03
 BYTE   N23
 BYTE   W24
 BYTE   N11  Cn3
 BYTE   W12
 BYTE   N23  Gn2
 BYTE   W24
 BYTE   N11  En2
 BYTE   W01
// 073   ----------------------------------------
 BYTE   W11
 BYTE   N23  As2
 BYTE   W24
 BYTE   N11  Cn3
 BYTE   W12
 BYTE   N32  Gn2
 BYTE   W36
 BYTE   Fn2
 BYTE   W13
// 074   ----------------------------------------
 BYTE   W23
 BYTE   N11  Fn3
 BYTE   W12
 BYTE   En3
 BYTE   W12
 BYTE   Dn3
 BYTE   W12
 BYTE   N32  En3
 BYTE   W36
 BYTE   N23  Cn3
 BYTE   W01
// 075   ----------------------------------------
 BYTE   W23
 BYTE   N11  En2
 BYTE   W12
 BYTE   N23  Fn2
 BYTE   W24
 BYTE   N11  Dn3
 BYTE   W12
 BYTE   N23  Bn2
 BYTE   W24
 BYTE   N11  Gn2
 BYTE   W01
// 076   ----------------------------------------
 BYTE   W11
 BYTE   N23  Bn2
 BYTE   W24
 BYTE   N11  Gn2
 BYTE   W12
 BYTE   N32  En2
 BYTE   W36
 BYTE   N23  Fn3
 BYTE   W13
// 077   ----------------------------------------
 BYTE   W11
 BYTE   N11  An2
 BYTE   W12
 BYTE   N23  Gn2
 BYTE   W24
 BYTE   N11  Fn3
 BYTE   W12
 BYTE   N32  En3
 BYTE   W36
 BYTE   N23  An2
 BYTE   W01
// 078   ----------------------------------------
 BYTE   W23
 BYTE   N11  Bn2
 BYTE   W12
 BYTE   Cn3
 BYTE   W12
 BYTE   Fn2
 BYTE   W12
 BYTE   Gn2
 BYTE   W12
 BYTE   An2
 BYTE   W12
 BYTE   Bn2
 BYTE   W12
 BYTE   An2
 BYTE   W01
// 079   ----------------------------------------
 BYTE   W11
 BYTE   N32  Gn2
 BYTE   W36
 BYTE   Dn2
 BYTE   W36
 BYTE   N23  Fn2
 BYTE   W13
// 080   ----------------------------------------
 BYTE   W11
 BYTE   N11
 BYTE   W12
 BYTE   Gn2
 BYTE   W12
 BYTE   An2
 BYTE   W12
 BYTE   Bn2
 BYTE   W12
 BYTE   N23  Cn3
 BYTE   W24
 BYTE   N11  Bn2
 BYTE   W12
 BYTE   N23  An2
 BYTE   W01
// 081   ----------------------------------------
 BYTE   W23
 BYTE   N11  Gn2
 BYTE   W12
 BYTE   N32  Fn2
 BYTE   W36
 BYTE   N23  Bn2
 BYTE   W24
 BYTE   N11  An2
 BYTE   W01
// 082   ----------------------------------------
 BYTE   W11
 BYTE   N32  Gn2
 BYTE   W36
 BYTE   Dn2
 BYTE   W36
 BYTE   En2
 BYTE   W13
// 083   ----------------------------------------
 BYTE   W23
 BYTE   N23  Gn2
 BYTE   W24
 BYTE   N11  Cn3
 BYTE   W12
 BYTE   N32
 BYTE   W36
 BYTE   Fn2
 BYTE   W01
// 084   ----------------------------------------
 BYTE   W32
 BYTE   W03
 BYTE   N32
 BYTE   W36
 BYTE   N11  Gn2
 BYTE   W12
 BYTE   An2
 BYTE   W12
 BYTE   Bn2
 BYTE   W01
// 085   ----------------------------------------
 BYTE   W11
 BYTE   N32  An2
 BYTE   W36
 BYTE   Gn2
 BYTE   W36
 BYTE   En2
 BYTE   W13
// 086   ----------------------------------------
 BYTE   W23
 BYTE   N23  Gn2
 BYTE   W24
 BYTE   N11  Cn3
 BYTE   W12
 BYTE   N32  En3
 BYTE   W36
 BYTE   N23  Dn3
 BYTE   W01
// 087   ----------------------------------------
 BYTE   W23
 BYTE   N11  Cn3
 BYTE   W12
 BYTE   N32  Fn2
 BYTE   W36
 BYTE   N11  Gn2
 BYTE   W12
 BYTE   An2
 BYTE   W12
 BYTE   Bn2
 BYTE   W01
// 088   ----------------------------------------
 BYTE   W11
 BYTE   N56  En2
 BYTE   W60
 BYTE   N11
 BYTE   W12
 BYTE   N32  Fn2
 BYTE   W13
// 089   ----------------------------------------
 BYTE   W23
 BYTE   N11  Dn3
 BYTE   W12
 BYTE   Bn2
 BYTE   W12
 BYTE   Gn2
 BYTE   W12
 BYTE   N23  En3
 BYTE   W24
 BYTE   N11  Bn2
 BYTE   W12
 BYTE   N23  En2
 BYTE   W01
// 090   ----------------------------------------
 BYTE   W23
 BYTE   N11  Gn2
 BYTE   W12
 BYTE   N32  Fn2
 BYTE   W36
 BYTE   N11  Fn3
 BYTE   W12
 BYTE   En3
 BYTE   W12
 BYTE   Bn2
 BYTE   W01
// 091   ----------------------------------------
 BYTE   W11
 BYTE   N68  Cn3
 BYTE   W72
 BYTE   N32  Fn2
 BYTE   W13
// 092   ----------------------------------------
 BYTE   W23
 BYTE   N11  Dn3
 BYTE   W12
 BYTE   Bn2
 BYTE   W12
 BYTE   Gn2
 BYTE   W12
 BYTE   N23  En3
 BYTE   W24
 BYTE   N11  Bn2
 BYTE   W12
 BYTE   N23  An3
 BYTE   W01
// 093   ----------------------------------------
 BYTE   W23
 BYTE   N11  Gn3
 BYTE   W12
 BYTE   N32  Fn3
 BYTE   W36
 BYTE   N11  Gs3
 BYTE   W12
 BYTE   An3
 BYTE   W12
 BYTE   Bn3
 BYTE   W01
// 094   ----------------------------------------
 BYTE   W11
 BYTE   N32  An3
 BYTE   W36
 BYTE   Gn3
 BYTE   W48
 BYTE   W01
// 095   ----------------------------------------
 BYTE   W96
// 096   ----------------------------------------
 BYTE   W68
 BYTE   W02
 BYTE   FINE

//**************** Track 5 (Midi-Chn.4) ****************//

song2C_005:
// 000   ----------------------------------------
 BYTE   KEYSH   song2C_key+0
 BYTE   W06
 BYTE   VOICE   41
 BYTE   VOL   73*song2C_mvl/mxv
 BYTE   PAN   c_v-14
 BYTE   N03  As2  v108
 BYTE   W04
 BYTE   Dn3  v096
 BYTE   W04
 BYTE   Fn3  v104
 BYTE   W04
 BYTE   N11  As3  v108
 BYTE   W24
 BYTE   N03  As2
 BYTE   W04
 BYTE   Dn3  v096
 BYTE   W04
 BYTE   Fn3  v104
 BYTE   W04
 BYTE   N10  As3  v108
 BYTE   W18
 BYTE   N05  Dn3
 BYTE   W06
 BYTE   As2  v096
 BYTE   W06
 BYTE   Dn3  v104
 BYTE   W06
 BYTE   N11  Fn3  v108
 BYTE   W06
// 001   ----------------------------------------
 BYTE   W12
 BYTE   N05  Dn3
 BYTE   W06
 BYTE   As2  v096
 BYTE   W06
 BYTE   Dn3  v104
 BYTE   W06
 BYTE   N68  Fn3  v108
 BYTE   W66
// 002   ----------------------------------------
 BYTE   W06
 BYTE   VOICE   33
 BYTE   VOL   70*song2C_mvl/mxv
 BYTE   PAN   c_v+43
 BYTE   N11  As2
 BYTE   W12
 BYTE   As2  v104
 BYTE   W12
 BYTE   N11
 BYTE   W12
 BYTE   N11
 BYTE   W12
 BYTE   As2  v108
 BYTE   W12
 BYTE   As2  v104
 BYTE   W12
 BYTE   N11
 BYTE   W12
 BYTE   N11
 BYTE   W06
// 003   ----------------------------------------
Label_4_0142E69E:
 BYTE   W06
 BYTE   N11  As2  v108
 BYTE   W12
 BYTE   As2  v104
 BYTE   W12
 BYTE   N11
 BYTE   W12
 BYTE   N11
 BYTE   W12
 BYTE   As2  v108
 BYTE   W12
 BYTE   As2  v104
 BYTE   W12
 BYTE   N11
 BYTE   W12
 BYTE   N11
 BYTE   W06
 BYTE   PEND 
 BYTE   PATT
  POIN2 Label_4_0142E69E
 BYTE   PATT
  POIN2 Label_4_0142E69E
 BYTE   PATT
  POIN2 Label_4_0142E69E
 BYTE   PATT
  POIN2 Label_4_0142E69E
 BYTE   PATT
  POIN2 Label_4_0142E69E
 BYTE   PATT
  POIN2 Label_4_0142E69E
 BYTE   PATT
  POIN2 Label_4_0142E69E
 BYTE   PATT
  POIN2 Label_4_0142E69E
 BYTE   PATT
  POIN2 Label_4_0142E69E
 BYTE   PATT
  POIN2 Label_4_0142E69E
// 004   ----------------------------------------
 BYTE   W06
 BYTE   TIE  As2  v116
 BYTE   W90
// 005   ----------------------------------------
 BYTE   W96
// 006   ----------------------------------------
 BYTE   W05
 BYTE   EOT
 BYTE   W02
 BYTE   VOICE   67
 BYTE   VOL   63*song2C_mvl/mxv
 BYTE   PAN   c_v-14
 BYTE   N03  Fn2  v096
 BYTE   W04
 BYTE   PAN   c_v-43
 BYTE   N01  Fn2  v040
 BYTE   W02
 BYTE   PAN   c_v-25
 BYTE   N04  Fn2  v108
 BYTE   W05
 BYTE   PAN   c_v-43
 BYTE   N03  Fn2  v044
 BYTE   W04
 BYTE   PAN   c_v-54
 BYTE   N02  Fn2  v040
 BYTE   W03
 BYTE   PAN   c_v-34
 BYTE   N04  Fn2  v104
 BYTE   W05
 BYTE   PAN   c_v-49
 BYTE   N03  Fn2  v044
 BYTE   W04
 BYTE   PAN   c_v-58
 BYTE   N02  Fn2  v040
 BYTE   W03
 BYTE   PAN   c_v-25
 BYTE   N04  Ds2  v104
 BYTE   W05
 BYTE   PAN   c_v-43
 BYTE   N03  Ds2  v044
 BYTE   W04
 BYTE   PAN   c_v-54
 BYTE   N02  Ds2  v040
 BYTE   W03
 BYTE   PAN   c_v-14
 BYTE   N03  Ds2  v096
 BYTE   W04
 BYTE   PAN   c_v-34
 BYTE   N01  Ds2  v040
 BYTE   W02
 BYTE   PAN   c_v-25
 BYTE   N03  Fn2  v096
 BYTE   W04
 BYTE   PAN   c_v-43
 BYTE   N01  Fn2  v040
 BYTE   W02
 BYTE   PAN   c_v-25
 BYTE   N04  Fn2  v108
 BYTE   W05
 BYTE   PAN   c_v-43
 BYTE   N03  Fn2  v044
 BYTE   W04
 BYTE   PAN   c_v-54
 BYTE   N02  Fn2  v040
 BYTE   W03
 BYTE   PAN   c_v-34
 BYTE   N04  Fn2  v104
 BYTE   W05
 BYTE   PAN   c_v-49
 BYTE   N03  Fn2  v044
 BYTE   W04
 BYTE   PAN   c_v-58
 BYTE   N02  Fn2  v040
 BYTE   W03
 BYTE   PAN   c_v-25
 BYTE   N04  Gs2  v104
 BYTE   W05
 BYTE   PAN   c_v-43
 BYTE   N03  Gs2  v044
 BYTE   W04
 BYTE   PAN   c_v-54
 BYTE   N02  Gs2  v040
 BYTE   W02
// 007   ----------------------------------------
Label_4_0142E784:
 BYTE   W01
 BYTE   PAN   c_v-14
 BYTE   N03  Gs2  v096
 BYTE   W04
 BYTE   PAN   c_v-34
 BYTE   N01  Gs2  v040
 BYTE   W02
 BYTE   N03  Fn2  v096
 BYTE   W04
 BYTE   PAN   c_v-43
 BYTE   N01  Fn2  v040
 BYTE   W02
 BYTE   PAN   c_v-25
 BYTE   N04  Fn2  v108
 BYTE   W05
 BYTE   PAN   c_v-43
 BYTE   N03  Fn2  v044
 BYTE   W04
 BYTE   PAN   c_v-54
 BYTE   N02  Fn2  v040
 BYTE   W03
 BYTE   PAN   c_v-34
 BYTE   N04  Fn2  v104
 BYTE   W05
 BYTE   PAN   c_v-49
 BYTE   N03  Fn2  v044
 BYTE   W04
 BYTE   PAN   c_v-58
 BYTE   N02  Fn2  v040
 BYTE   W03
 BYTE   PAN   c_v-25
 BYTE   N04  Ds2  v104
 BYTE   W05
 BYTE   PAN   c_v-43
 BYTE   N03  Ds2  v044
 BYTE   W04
 BYTE   PAN   c_v-54
 BYTE   N02  Ds2  v040
 BYTE   W03
 BYTE   PAN   c_v-14
 BYTE   N03  Ds2  v096
 BYTE   W04
 BYTE   PAN   c_v-34
 BYTE   N01  Ds2  v040
 BYTE   W02
 BYTE   PAN   c_v-25
 BYTE   N03  Fn2  v096
 BYTE   W04
 BYTE   PAN   c_v-43
 BYTE   N01  Fn2  v040
 BYTE   W02
 BYTE   PAN   c_v-25
 BYTE   N04  Fn2  v108
 BYTE   W05
 BYTE   PAN   c_v-43
 BYTE   N03  Fn2  v044
 BYTE   W04
 BYTE   PAN   c_v-54
 BYTE   N02  Fn2  v040
 BYTE   W03
 BYTE   PAN   c_v-34
 BYTE   N04  Fn2  v104
 BYTE   W05
 BYTE   PAN   c_v-49
 BYTE   N03  Fn2  v044
 BYTE   W04
 BYTE   PAN   c_v-58
 BYTE   N02  Fn2  v040
 BYTE   W03
 BYTE   PAN   c_v-25
 BYTE   N04  Gs2  v104
 BYTE   W05
 BYTE   PAN   c_v-43
 BYTE   N03  Gs2  v044
 BYTE   W04
 BYTE   PAN   c_v-54
 BYTE   N02  Gs2  v040
 BYTE   W02
 BYTE   PEND 
// 008   ----------------------------------------
 BYTE   W01
 BYTE   PAN   c_v-14
 BYTE   N03  Gs2  v096
 BYTE   W04
 BYTE   PAN   c_v-34
 BYTE   N01  Gs2  v040
 BYTE   W02
 BYTE   VOL   54*song2C_mvl/mxv
 BYTE   N03  Fn2  v096
 BYTE   W04
 BYTE   PAN   c_v-43
 BYTE   N01  Fn2  v040
 BYTE   W02
 BYTE   PAN   c_v-25
 BYTE   N04  Fn2  v108
 BYTE   W05
 BYTE   PAN   c_v-43
 BYTE   N03  Fn2  v044
 BYTE   W04
 BYTE   PAN   c_v-54
 BYTE   N02  Fn2  v040
 BYTE   W03
 BYTE   PAN   c_v-34
 BYTE   N04  Fn2  v104
 BYTE   W05
 BYTE   PAN   c_v-49
 BYTE   N03  Fn2  v044
 BYTE   W04
 BYTE   PAN   c_v-58
 BYTE   N02  Fn2  v040
 BYTE   W03
 BYTE   PAN   c_v-25
 BYTE   N04  Ds2  v104
 BYTE   W05
 BYTE   PAN   c_v-43
 BYTE   N03  Ds2  v044
 BYTE   W04
 BYTE   PAN   c_v-54
 BYTE   N02  Ds2  v040
 BYTE   W03
 BYTE   PAN   c_v-14
 BYTE   N03  Ds2  v096
 BYTE   W04
 BYTE   PAN   c_v-34
 BYTE   N01  Ds2  v040
 BYTE   W02
 BYTE   PAN   c_v-25
 BYTE   N03  Fn2  v096
 BYTE   W04
 BYTE   PAN   c_v-43
 BYTE   N01  Fn2  v040
 BYTE   W02
 BYTE   PAN   c_v-25
 BYTE   N04  Fn2  v108
 BYTE   W05
 BYTE   PAN   c_v-43
 BYTE   N03  Fn2  v044
 BYTE   W04
 BYTE   PAN   c_v-54
 BYTE   N02  Fn2  v040
 BYTE   W03
 BYTE   PAN   c_v-34
 BYTE   N04  Fn2  v104
 BYTE   W05
 BYTE   PAN   c_v-49
 BYTE   N03  Fn2  v044
 BYTE   W04
 BYTE   PAN   c_v-58
 BYTE   N02  Fn2  v040
 BYTE   W03
 BYTE   PAN   c_v-25
 BYTE   N04  Gs2  v104
 BYTE   W05
 BYTE   PAN   c_v-43
 BYTE   N03  Gs2  v044
 BYTE   W04
 BYTE   PAN   c_v-54
 BYTE   N02  Gs2  v040
 BYTE   W02
 BYTE   PATT
  POIN2 Label_4_0142E784
 BYTE   PATT
  POIN2 Label_4_0142E784
 BYTE   PATT
  POIN2 Label_4_0142E784
// 009   ----------------------------------------
 BYTE   W01
 BYTE   PAN   c_v-14
 BYTE   N03  Gs2  v096
 BYTE   W04
 BYTE   PAN   c_v-34
 BYTE   N01  Gs2  v040
 BYTE   W02
 BYTE   VOICE   41
 BYTE   VOL   70*song2C_mvl/mxv
 BYTE   PAN   c_v-25
 BYTE   N03  Ds3  v104
 BYTE   W04
 BYTE   Ds3  v052
 BYTE   W04
 BYTE   Ds3  v040
 BYTE   W04
 BYTE   Ds3  v028
 BYTE   W06
 BYTE   Ds3  v108
 BYTE   W04
 BYTE   Ds3  v060
 BYTE   W04
 BYTE   Ds3  v044
 BYTE   W04
 BYTE   Ds3  v032
 BYTE   W06
 BYTE   Ds3  v104
 BYTE   W04
 BYTE   Ds3  v052
 BYTE   W04
 BYTE   Ds3  v040
 BYTE   W04
 BYTE   Dn3  v104
 BYTE   W04
 BYTE   Dn3  v052
 BYTE   W04
 BYTE   Dn3  v040
 BYTE   W04
 BYTE   Dn3  v028
 BYTE   W06
 BYTE   Dn3  v108
 BYTE   W04
 BYTE   Dn3  v060
 BYTE   W04
 BYTE   Dn3  v044
 BYTE   W04
 BYTE   Dn3  v032
 BYTE   W06
 BYTE   Dn3  v104
 BYTE   W04
 BYTE   Dn3  v052
 BYTE   W01
// 010   ----------------------------------------
 BYTE   W03
 BYTE   Dn3  v040
 BYTE   W04
 BYTE   Cn3  v104
 BYTE   W04
 BYTE   Cn3  v052
 BYTE   W04
 BYTE   Cn3  v040
 BYTE   W04
 BYTE   Cn3  v028
 BYTE   W06
 BYTE   Cn3  v108
 BYTE   W04
 BYTE   Cn3  v060
 BYTE   W04
 BYTE   Cn3  v044
 BYTE   W04
 BYTE   Cn3  v032
 BYTE   W06
 BYTE   Cn3  v104
 BYTE   W04
 BYTE   Cn3  v052
 BYTE   W04
 BYTE   Cn3  v040
 BYTE   W04
 BYTE   As2  v104
 BYTE   W04
 BYTE   As2  v052
 BYTE   W04
 BYTE   As2  v040
 BYTE   W04
 BYTE   As2  v028
 BYTE   W06
 BYTE   As2  v108
 BYTE   W04
 BYTE   As2  v060
 BYTE   W04
 BYTE   As2  v044
 BYTE   W04
 BYTE   As2  v032
 BYTE   W06
 BYTE   Ds3  v104
 BYTE   W04
 BYTE   Ds3  v052
 BYTE   W01
// 011   ----------------------------------------
 BYTE   W03
 BYTE   Ds3  v040
 BYTE   W92
 BYTE   W01
// 012   ----------------------------------------
 BYTE   W96
// 013   ----------------------------------------
 BYTE   W96
// 014   ----------------------------------------
 BYTE   W96
// 015   ----------------------------------------
 BYTE   W96
// 016   ----------------------------------------
 BYTE   W96
// 017   ----------------------------------------
 BYTE   W96
// 018   ----------------------------------------
 BYTE   W96
// 019   ----------------------------------------
 BYTE   W07
 BYTE   VOICE   67
 BYTE   VOL   70*song2C_mvl/mxv
 BYTE   PAN   c_v-25
 BYTE   N02  As2  v104
 BYTE   W04
 BYTE   As2  v044
 BYTE   W03
 BYTE   As2  v040
 BYTE   W05
 BYTE   N06  As2  v108
 BYTE   W08
 BYTE   N03  As2  v060
 BYTE   W04
 BYTE   N02  Cn3  v104
 BYTE   W04
 BYTE   Cn3  v044
 BYTE   W03
 BYTE   Cn3  v040
 BYTE   W05
 BYTE   N06  Cn3  v108
 BYTE   W08
 BYTE   N03  Cn3  v060
 BYTE   W04
 BYTE   N02  As2  v104
 BYTE   W04
 BYTE   As2  v044
 BYTE   W03
 BYTE   As2  v040
 BYTE   W05
 BYTE   N06  As2  v108
 BYTE   W08
 BYTE   N03  As2  v060
 BYTE   W04
 BYTE   N02  Cn3  v104
 BYTE   W04
 BYTE   Cn3  v044
 BYTE   W03
 BYTE   Cn3  v040
 BYTE   W05
 BYTE   N06  Cn3  v108
 BYTE   W05
// 020   ----------------------------------------
Label_4_0142E9B9:
 BYTE   W03
 BYTE   N03  Cn3  v060
 BYTE   W04
 BYTE   N02  As2  v104
 BYTE   W04
 BYTE   As2  v044
 BYTE   W03
 BYTE   As2  v040
 BYTE   W05
 BYTE   N06  As2  v108
 BYTE   W08
 BYTE   N03  As2  v060
 BYTE   W04
 BYTE   N02  Cn3  v104
 BYTE   W04
 BYTE   Cn3  v044
 BYTE   W03
 BYTE   Cn3  v040
 BYTE   W05
 BYTE   N06  Cn3  v108
 BYTE   W08
 BYTE   N03  Cn3  v060
 BYTE   W04
 BYTE   N02  As2  v104
 BYTE   W04
 BYTE   As2  v044
 BYTE   W03
 BYTE   As2  v040
 BYTE   W05
 BYTE   N06  As2  v108
 BYTE   W08
 BYTE   N03  As2  v060
 BYTE   W04
 BYTE   N02  Cn3  v104
 BYTE   W04
 BYTE   Cn3  v044
 BYTE   W03
 BYTE   Cn3  v040
 BYTE   W05
 BYTE   N06  Cn3  v108
 BYTE   W05
 BYTE   PEND 
 BYTE   PATT
  POIN2 Label_4_0142E9B9
 BYTE   PATT
  POIN2 Label_4_0142E9B9
 BYTE   PATT
  POIN2 Label_4_0142E9B9
 BYTE   PATT
  POIN2 Label_4_0142E9B9
 BYTE   PATT
  POIN2 Label_4_0142E9B9
 BYTE   PATT
  POIN2 Label_4_0142E9B9
 BYTE   PATT
  POIN2 Label_4_0142E9B9
// 021   ----------------------------------------
 BYTE   W03
 BYTE   N03  Cn3  v060
 BYTE   W05
 BYTE   VOICE   61
 BYTE   VOL   46*song2C_mvl/mxv
 BYTE   PAN   c_v-25
 BYTE   En1
 BYTE   N02  Fn4  v108
 BYTE   W01
 BYTE   PAN   c_v-22
 BYTE   W01
 BYTE   Gn1
 BYTE   W01
 BYTE   An1
 BYTE   N02  Cn5  v104
 BYTE   W01
 BYTE   PAN   c_v-18
 BYTE   W01
 BYTE   Bn1
 BYTE   W01
 BYTE   Cs2
 BYTE   N02  Fn5  v096
 BYTE   W01
 BYTE   PAN   c_v-14
 BYTE   W01
 BYTE   En2
 BYTE   W01
 BYTE   Fn2
 BYTE   N02  Cn5  v104
 BYTE   W01
 BYTE   PAN   c_v-10
 BYTE   W01
 BYTE   Gs2
 BYTE   W01
 BYTE   An2
 BYTE   N02  Fn4  v108
 BYTE   W01
 BYTE   PAN   c_v-6
 BYTE   W01
 BYTE   Cn3
 BYTE   W01
 BYTE   Cs3
 BYTE   N02  Cn5  v104
 BYTE   W01
 BYTE   PAN   c_v-1
 BYTE   W01
 BYTE   En3
 BYTE   W01
 BYTE   Fn3
 BYTE   N02  Fn5  v096
 BYTE   W01
 BYTE   PAN   c_v+3
 BYTE   W01
 BYTE   Gs3
 BYTE   W01
 BYTE   As3
 BYTE   N02  Cn5  v104
 BYTE   W01
 BYTE   PAN   c_v+7
 BYTE   W01
 BYTE   Cn4
 BYTE   W01
 BYTE   Dn4
 BYTE   N02  Fn4  v108
 BYTE   W01
 BYTE   PAN   c_v+11
 BYTE   W01
 BYTE   Fn4
 BYTE   W01
 BYTE   Fs4
 BYTE   N02  Cn5  v104
 BYTE   W01
 BYTE   PAN   c_v+15
 BYTE   W01
 BYTE   An4
 BYTE   W01
 BYTE   As4
 BYTE   N02  Fn5  v096
 BYTE   W01
 BYTE   PAN   c_v+19
 BYTE   W01
 BYTE   Cs5
 BYTE   W01
 BYTE   Dn5
 BYTE   N02  Cn5  v104
 BYTE   W01
 BYTE   PAN   c_v+24
 BYTE   W01
 BYTE   Fn5
 BYTE   W01
 BYTE   En5
 BYTE   N02  Fn4  v108
 BYTE   W01
 BYTE   PAN   c_v+22
 BYTE   W01
 BYTE   Cs5
 BYTE   W01
 BYTE   Bn4
 BYTE   N02  Cn5  v104
 BYTE   W01
 BYTE   PAN   c_v+18
 BYTE   W01
 BYTE   An4
 BYTE   W01
 BYTE   Gn4
 BYTE   N02  Fn5  v096
 BYTE   W01
 BYTE   PAN   c_v+14
 BYTE   W01
 BYTE   Fn4
 BYTE   W01
 BYTE   Ds4
 BYTE   N02  Cn5  v104
 BYTE   W01
 BYTE   PAN   c_v+10
 BYTE   W01
 BYTE   Cn4
 BYTE   W01
 BYTE   Bn3
 BYTE   N02  Fn4  v108
 BYTE   W01
 BYTE   PAN   c_v+6
 BYTE   W01
 BYTE   Gs3
 BYTE   W01
 BYTE   Gn3
 BYTE   N02  Cn5  v104
 BYTE   W01
 BYTE   PAN   c_v+1
 BYTE   W01
 BYTE   En3
 BYTE   W01
 BYTE   Ds3
 BYTE   N02  Fn5  v096
 BYTE   W01
 BYTE   PAN   c_v-3
 BYTE   W01
 BYTE   Cn3
 BYTE   W01
 BYTE   As2
 BYTE   N02  Cn5  v104
 BYTE   W01
 BYTE   PAN   c_v-7
 BYTE   W01
 BYTE   Gs2
 BYTE   W01
 BYTE   Fs2
 BYTE   N02  Fn4  v108
 BYTE   W01
 BYTE   PAN   c_v-11
 BYTE   W01
 BYTE   En2
 BYTE   W01
 BYTE   Dn2
 BYTE   N02  Cn5  v104
 BYTE   W01
 BYTE   PAN   c_v-15
 BYTE   W01
 BYTE   Bn1
 BYTE   W01
 BYTE   As1
 BYTE   N02  Fn5  v096
 BYTE   W01
 BYTE   PAN   c_v-19
 BYTE   W01
 BYTE   Gn1
 BYTE   W01
 BYTE   Fs1
 BYTE   N02  Cn5  v104
 BYTE   W01
 BYTE   PAN   c_v-24
 BYTE   W01
 BYTE   Ds1
 BYTE   W01
 BYTE   En1
 BYTE   N02  Fn4  v108
 BYTE   W01
 BYTE   PAN   c_v-22
 BYTE   W01
 BYTE   Gn1
 BYTE   W01
 BYTE   An1
 BYTE   N02  Cn5  v104
 BYTE   W01
 BYTE   PAN   c_v-18
 BYTE   W01
 BYTE   Bn1
 BYTE   W01
 BYTE   Cs2
 BYTE   N02  Fn5  v096
 BYTE   W01
 BYTE   PAN   c_v-14
 BYTE   W01
 BYTE   En2
 BYTE   W01
 BYTE   Fn2
 BYTE   N02  Cn5  v104
 BYTE   W01
 BYTE   PAN   c_v-10
 BYTE   W01
 BYTE   Gs2
 BYTE   W01
 BYTE   An2
 BYTE   N02  Fn4  v108
 BYTE   W01
 BYTE   PAN   c_v-6
 BYTE   W01
 BYTE   Cn3
 BYTE   W01
 BYTE   Cs3
 BYTE   N02  Cn5  v104
 BYTE   W01
// 022   ----------------------------------------
Label_4_0142EB58:
 BYTE   PAN   c_v-1
 BYTE   W01
 BYTE   En3
 BYTE   W01
 BYTE   Fn3
 BYTE   N02  Fn5  v096
 BYTE   W01
 BYTE   PAN   c_v+3
 BYTE   W01
 BYTE   Gs3
 BYTE   W01
 BYTE   As3
 BYTE   N02  Cn5  v104
 BYTE   W01
 BYTE   PAN   c_v+7
 BYTE   W01
 BYTE   Cn4
 BYTE   W01
 BYTE   Dn4
 BYTE   N02  Fn4  v108
 BYTE   W01
 BYTE   PAN   c_v+11
 BYTE   W01
 BYTE   Fn4
 BYTE   W01
 BYTE   Fs4
 BYTE   N02  Cn5  v104
 BYTE   W01
 BYTE   PAN   c_v+15
 BYTE   W01
 BYTE   An4
 BYTE   W01
 BYTE   As4
 BYTE   N02  Fn5  v096
 BYTE   W01
 BYTE   PAN   c_v+19
 BYTE   W01
 BYTE   Cs5
 BYTE   W01
 BYTE   Dn5
 BYTE   N02  Cn5  v104
 BYTE   W01
 BYTE   PAN   c_v+24
 BYTE   W01
 BYTE   Fn5
 BYTE   W01
 BYTE   En5
 BYTE   N02  Fn4  v108
 BYTE   W01
 BYTE   PAN   c_v+22
 BYTE   W01
 BYTE   Cs5
 BYTE   W01
 BYTE   Bn4
 BYTE   N02  Cn5  v104
 BYTE   W01
 BYTE   PAN   c_v+18
 BYTE   W01
 BYTE   An4
 BYTE   W01
 BYTE   Gn4
 BYTE   N02  Fn5  v096
 BYTE   W01
 BYTE   PAN   c_v+14
 BYTE   W01
 BYTE   Fn4
 BYTE   W01
 BYTE   Ds4
 BYTE   N02  Cn5  v104
 BYTE   W01
 BYTE   PAN   c_v+10
 BYTE   W01
 BYTE   Cn4
 BYTE   W01
 BYTE   Bn3
 BYTE   N02  Fn4  v108
 BYTE   W01
 BYTE   PAN   c_v+6
 BYTE   W01
 BYTE   Gs3
 BYTE   W01
 BYTE   Gn3
 BYTE   N02  Cn5  v104
 BYTE   W01
 BYTE   PAN   c_v+1
 BYTE   W01
 BYTE   En3
 BYTE   W01
 BYTE   Ds3
 BYTE   N02  Fn5  v096
 BYTE   W01
 BYTE   PAN   c_v-3
 BYTE   W01
 BYTE   Cn3
 BYTE   W01
 BYTE   As2
 BYTE   N02  Cn5  v104
 BYTE   W01
 BYTE   PAN   c_v-7
 BYTE   W01
 BYTE   Gs2
 BYTE   W01
 BYTE   Fs2
 BYTE   N02  Fn4  v108
 BYTE   W01
 BYTE   PAN   c_v-11
 BYTE   W01
 BYTE   En2
 BYTE   W01
 BYTE   Dn2
 BYTE   N02  Cn5  v104
 BYTE   W01
 BYTE   PAN   c_v-15
 BYTE   W01
 BYTE   Bn1
 BYTE   W01
 BYTE   As1
 BYTE   N02  Fn5  v096
 BYTE   W01
 BYTE   PAN   c_v-19
 BYTE   W01
 BYTE   Gn1
 BYTE   W01
 BYTE   Fs1
 BYTE   N02  Cn5  v104
 BYTE   W01
 BYTE   PAN   c_v-24
 BYTE   W01
 BYTE   Ds1
 BYTE   W01
 BYTE   En1
 BYTE   N02  Fn4  v108
 BYTE   W01
 BYTE   PAN   c_v-22
 BYTE   W01
 BYTE   Gn1
 BYTE   W01
 BYTE   An1
 BYTE   N02  Cn5  v104
 BYTE   W01
 BYTE   PAN   c_v-18
 BYTE   W01
 BYTE   Bn1
 BYTE   W01
 BYTE   Cs2
 BYTE   N02  Fn5  v096
 BYTE   W01
 BYTE   PAN   c_v-14
 BYTE   W01
 BYTE   En2
 BYTE   W01
 BYTE   Fn2
 BYTE   N02  Cn5  v104
 BYTE   W01
 BYTE   PAN   c_v-10
 BYTE   W01
 BYTE   Gs2
 BYTE   W01
 BYTE   An2
 BYTE   N02  Fn4  v108
 BYTE   W01
 BYTE   PAN   c_v-6
 BYTE   W01
 BYTE   Cn3
 BYTE   W01
 BYTE   Cs3
 BYTE   N02  Cn5  v104
 BYTE   W01
 BYTE   PAN   c_v-1
 BYTE   W01
 BYTE   En3
 BYTE   W01
 BYTE   Fn3
 BYTE   N02  Fn5  v096
 BYTE   W01
 BYTE   PAN   c_v+3
 BYTE   W01
 BYTE   Gs3
 BYTE   W01
 BYTE   As3
 BYTE   N02  Cn5  v104
 BYTE   W01
 BYTE   PAN   c_v+7
 BYTE   W01
 BYTE   Cn4
 BYTE   W01
 BYTE   Dn4
 BYTE   N02  Fn4  v108
 BYTE   W01
 BYTE   PAN   c_v+11
 BYTE   W01
 BYTE   Fn4
 BYTE   W01
 BYTE   Fs4
 BYTE   N02  Cn5  v104
 BYTE   W01
 BYTE   PAN   c_v+15
 BYTE   W01
 BYTE   An4
 BYTE   W01
 BYTE   As4
 BYTE   N02  Fn5  v096
 BYTE   W01
 BYTE   PAN   c_v+19
 BYTE   W01
 BYTE   Cs5
 BYTE   W01
 BYTE   Dn5
 BYTE   N02  Cn5  v104
 BYTE   W01
 BYTE   PAN   c_v+24
 BYTE   W01
 BYTE   Fn5
 BYTE   W01
 BYTE   En5
 BYTE   N02  Fn4  v108
 BYTE   W01
 BYTE   PAN   c_v+22
 BYTE   W01
 BYTE   Cs5
 BYTE   W01
 BYTE   Bn4
 BYTE   N02  Cn5  v104
 BYTE   W01
 BYTE   PEND 
// 023   ----------------------------------------
 BYTE   PAN   c_v+18
 BYTE   W01
 BYTE   An4
 BYTE   W01
 BYTE   Gn4
 BYTE   N02  Fn5  v096
 BYTE   W01
 BYTE   PAN   c_v+14
 BYTE   W01
 BYTE   Fn4
 BYTE   W01
 BYTE   Ds4
 BYTE   N02  Cn5  v104
 BYTE   W01
 BYTE   PAN   c_v+10
 BYTE   W01
 BYTE   Cn4
 BYTE   W01
 BYTE   Bn3
 BYTE   N02  Fn4  v108
 BYTE   W01
 BYTE   PAN   c_v+6
 BYTE   W01
 BYTE   Gs3
 BYTE   W01
 BYTE   Gn3
 BYTE   N02  Cn5  v104
 BYTE   W01
 BYTE   PAN   c_v+1
 BYTE   W01
 BYTE   En3
 BYTE   W01
 BYTE   Ds3
 BYTE   N02  Fn5  v096
 BYTE   W01
 BYTE   PAN   c_v-3
 BYTE   W01
 BYTE   Cn3
 BYTE   W01
 BYTE   As2
 BYTE   N02  Cn5  v104
 BYTE   W01
 BYTE   PAN   c_v-7
 BYTE   W01
 BYTE   Gs2
 BYTE   W01
 BYTE   Fs2
 BYTE   N02  Fn4  v108
 BYTE   W01
 BYTE   PAN   c_v-11
 BYTE   W01
 BYTE   En2
 BYTE   W01
 BYTE   Dn2
 BYTE   N02  Cn5  v104
 BYTE   W01
 BYTE   PAN   c_v-15
 BYTE   W01
 BYTE   Bn1
 BYTE   W01
 BYTE   As1
 BYTE   N02  Fn5  v096
 BYTE   W01
 BYTE   PAN   c_v-19
 BYTE   W01
 BYTE   Gn1
 BYTE   W01
 BYTE   Fs1
 BYTE   N02  Cn5  v104
 BYTE   W01
 BYTE   PAN   c_v-24
 BYTE   W01
 BYTE   Ds1
 BYTE   W01
 BYTE   En1
 BYTE   N02  Fn4  v108
 BYTE   W01
 BYTE   PAN   c_v-22
 BYTE   W01
 BYTE   Gn1
 BYTE   W01
 BYTE   An1
 BYTE   N02  Cn5  v104
 BYTE   W01
 BYTE   PAN   c_v-18
 BYTE   W01
 BYTE   Bn1
 BYTE   W01
 BYTE   Cs2
 BYTE   N02  Fn5  v096
 BYTE   W01
 BYTE   PAN   c_v-14
 BYTE   W01
 BYTE   En2
 BYTE   W01
 BYTE   Fn2
 BYTE   N02  Cn5  v104
 BYTE   W01
 BYTE   PAN   c_v-10
 BYTE   W01
 BYTE   Gs2
 BYTE   W01
 BYTE   An2
 BYTE   N02  Fn4  v108
 BYTE   W01
 BYTE   PAN   c_v-6
 BYTE   W01
 BYTE   Cn3
 BYTE   W01
 BYTE   Cs3
 BYTE   N02  Cn5  v104
 BYTE   W01
 BYTE   PAN   c_v-1
 BYTE   W01
 BYTE   En3
 BYTE   W01
 BYTE   Fn3
 BYTE   N02  Fn5  v096
 BYTE   W01
 BYTE   PAN   c_v+3
 BYTE   W01
 BYTE   Gs3
 BYTE   W01
 BYTE   As3
 BYTE   N02  Cn5  v104
 BYTE   W01
 BYTE   PAN   c_v+7
 BYTE   W01
 BYTE   Cn4
 BYTE   W01
 BYTE   Dn4
 BYTE   N02  Fn4  v108
 BYTE   W01
 BYTE   PAN   c_v+11
 BYTE   W01
 BYTE   Fn4
 BYTE   W01
 BYTE   Fs4
 BYTE   N02  Cn5  v104
 BYTE   W01
 BYTE   PAN   c_v+15
 BYTE   W01
 BYTE   An4
 BYTE   W01
 BYTE   As4
 BYTE   N02  Fn5  v096
 BYTE   W01
 BYTE   PAN   c_v+19
 BYTE   W01
 BYTE   Cs5
 BYTE   W01
 BYTE   Dn5
 BYTE   N02  Cn5  v104
 BYTE   W01
 BYTE   PAN   c_v+24
 BYTE   W01
 BYTE   Fn5
 BYTE   W01
 BYTE   En5
 BYTE   N02  Fn4  v108
 BYTE   W01
 BYTE   PAN   c_v+22
 BYTE   W01
 BYTE   Cs5
 BYTE   W01
 BYTE   Bn4
 BYTE   N02  Cn5  v104
 BYTE   W01
 BYTE   PAN   c_v+18
 BYTE   W01
 BYTE   An4
 BYTE   W01
 BYTE   Gn4
 BYTE   N02  Fn5  v096
 BYTE   W01
 BYTE   PAN   c_v+14
 BYTE   W01
 BYTE   Fn4
 BYTE   W01
 BYTE   Ds4
 BYTE   N02  Cn5  v104
 BYTE   W01
 BYTE   PAN   c_v+10
 BYTE   W01
 BYTE   Cn4
 BYTE   W01
 BYTE   Bn3
 BYTE   N02  Fn4  v108
 BYTE   W01
 BYTE   PAN   c_v+6
 BYTE   W01
 BYTE   Gs3
 BYTE   W01
 BYTE   Gn3
 BYTE   N02  Cn5  v104
 BYTE   W01
 BYTE   PAN   c_v+1
 BYTE   W01
 BYTE   En3
 BYTE   W01
 BYTE   Ds3
 BYTE   N02  Fn5  v096
 BYTE   W01
 BYTE   PAN   c_v-3
 BYTE   W01
 BYTE   Cn3
 BYTE   W01
 BYTE   As2
 BYTE   N02  Cn5  v104
 BYTE   W01
 BYTE   PAN   c_v-7
 BYTE   W01
 BYTE   Gs2
 BYTE   W01
 BYTE   Fs2
 BYTE   N02  Fn4  v108
 BYTE   W01
 BYTE   PAN   c_v-11
 BYTE   W01
 BYTE   En2
 BYTE   W01
 BYTE   Dn2
 BYTE   N02  Cn5  v104
 BYTE   W01
// 024   ----------------------------------------
 BYTE   PAN   c_v-15
 BYTE   W01
 BYTE   Bn1
 BYTE   W01
 BYTE   As1
 BYTE   N02  Fn5  v096
 BYTE   W01
 BYTE   PAN   c_v-19
 BYTE   W01
 BYTE   Gn1
 BYTE   W01
 BYTE   Fs1
 BYTE   N02  Cn5  v104
 BYTE   W01
 BYTE   PAN   c_v-24
 BYTE   W01
 BYTE   Ds1
 BYTE   W01
 BYTE   En1
 BYTE   N02  Fn4  v108
 BYTE   W01
 BYTE   PAN   c_v-22
 BYTE   W01
 BYTE   Gn1
 BYTE   W01
 BYTE   An1
 BYTE   N02  Cn5  v104
 BYTE   W01
 BYTE   PAN   c_v-18
 BYTE   W01
 BYTE   Bn1
 BYTE   W01
 BYTE   Cs2
 BYTE   N02  Fn5  v096
 BYTE   W01
 BYTE   PAN   c_v-14
 BYTE   W01
 BYTE   En2
 BYTE   W01
 BYTE   Fn2
 BYTE   N02  Cn5  v104
 BYTE   W01
 BYTE   PAN   c_v-10
 BYTE   W01
 BYTE   Gs2
 BYTE   W01
 BYTE   An2
 BYTE   N02  Fn4  v108
 BYTE   W01
 BYTE   PAN   c_v-6
 BYTE   W01
 BYTE   Cn3
 BYTE   W01
 BYTE   Cs3
 BYTE   N02  Cn5  v104
 BYTE   W01
 BYTE   PAN   c_v-1
 BYTE   W01
 BYTE   En3
 BYTE   W01
 BYTE   Fn3
 BYTE   N02  Fn5  v096
 BYTE   W01
 BYTE   PAN   c_v+3
 BYTE   W01
 BYTE   Gs3
 BYTE   W01
 BYTE   As3
 BYTE   N02  Cn5  v104
 BYTE   W01
 BYTE   PAN   c_v+7
 BYTE   W01
 BYTE   Cn4
 BYTE   W01
 BYTE   Dn4
 BYTE   N02  Fn4  v108
 BYTE   W01
 BYTE   PAN   c_v+11
 BYTE   W01
 BYTE   Fn4
 BYTE   W01
 BYTE   Fs4
 BYTE   N02  Cn5  v104
 BYTE   W01
 BYTE   PAN   c_v+15
 BYTE   W01
 BYTE   An4
 BYTE   W01
 BYTE   As4
 BYTE   N02  Fn5  v096
 BYTE   W01
 BYTE   PAN   c_v+19
 BYTE   W01
 BYTE   Cs5
 BYTE   W01
 BYTE   Dn5
 BYTE   N02  Cn5  v104
 BYTE   W01
 BYTE   PAN   c_v+24
 BYTE   W01
 BYTE   Fn5
 BYTE   W01
 BYTE   En5
 BYTE   N02  Fn4  v108
 BYTE   W01
 BYTE   PAN   c_v+22
 BYTE   W01
 BYTE   Cs5
 BYTE   W01
 BYTE   Bn4
 BYTE   N02  Cn5  v104
 BYTE   W01
 BYTE   PAN   c_v+18
 BYTE   W01
 BYTE   An4
 BYTE   W01
 BYTE   Gn4
 BYTE   N02  Fn5  v096
 BYTE   W01
 BYTE   PAN   c_v+14
 BYTE   W01
 BYTE   Fn4
 BYTE   W01
 BYTE   Ds4
 BYTE   N02  Cn5  v104
 BYTE   W01
 BYTE   PAN   c_v+10
 BYTE   W01
 BYTE   Cn4
 BYTE   W01
 BYTE   Bn3
 BYTE   N02  Fn4  v108
 BYTE   W01
 BYTE   PAN   c_v+6
 BYTE   W01
 BYTE   Gs3
 BYTE   W01
 BYTE   Gn3
 BYTE   N02  Cn5  v104
 BYTE   W01
 BYTE   PAN   c_v+1
 BYTE   W01
 BYTE   En3
 BYTE   W01
 BYTE   Ds3
 BYTE   N02  Fn5  v096
 BYTE   W01
 BYTE   PAN   c_v-3
 BYTE   W01
 BYTE   Cn3
 BYTE   W01
 BYTE   As2
 BYTE   N02  Cn5  v104
 BYTE   W01
 BYTE   PAN   c_v-7
 BYTE   W01
 BYTE   Gs2
 BYTE   W01
 BYTE   Fs2
 BYTE   N02  Fn4  v108
 BYTE   W01
 BYTE   PAN   c_v-11
 BYTE   W01
 BYTE   En2
 BYTE   W01
 BYTE   Dn2
 BYTE   N02  Cn5  v104
 BYTE   W01
 BYTE   PAN   c_v-15
 BYTE   W01
 BYTE   Bn1
 BYTE   W01
 BYTE   As1
 BYTE   N02  Fn5  v096
 BYTE   W01
 BYTE   PAN   c_v-19
 BYTE   W01
 BYTE   Gn1
 BYTE   W01
 BYTE   Fs1
 BYTE   N02  Cn5  v104
 BYTE   W01
 BYTE   PAN   c_v-24
 BYTE   W01
 BYTE   Ds1
 BYTE   W01
 BYTE   En1
 BYTE   N02  Fn4  v108
 BYTE   W01
 BYTE   PAN   c_v-22
 BYTE   W01
 BYTE   Gn1
 BYTE   W01
 BYTE   An1
 BYTE   N02  Cn5  v104
 BYTE   W01
 BYTE   PAN   c_v-18
 BYTE   W01
 BYTE   Bn1
 BYTE   W01
 BYTE   Cs2
 BYTE   N02  Fn5  v096
 BYTE   W01
 BYTE   PAN   c_v-14
 BYTE   W01
 BYTE   En2
 BYTE   W01
 BYTE   Fn2
 BYTE   N02  Cn5  v104
 BYTE   W01
 BYTE   PAN   c_v-10
 BYTE   W01
 BYTE   Gs2
 BYTE   W01
 BYTE   An2
 BYTE   N02  Fn4  v108
 BYTE   W01
 BYTE   PAN   c_v-6
 BYTE   W01
 BYTE   Cn3
 BYTE   W01
 BYTE   Cs3
 BYTE   N02  Cn5  v104
 BYTE   W01
 BYTE   PATT
  POIN2 Label_4_0142EB58
// 025   ----------------------------------------
 BYTE   PAN   c_v+18
 BYTE   W01
 BYTE   An4
 BYTE   W01
 BYTE   Gn4
 BYTE   N02  Fn5  v096
 BYTE   W01
 BYTE   PAN   c_v+14
 BYTE   W01
 BYTE   Fn4
 BYTE   W01
 BYTE   Ds4
 BYTE   N02  Cn5  v104
 BYTE   W01
 BYTE   PAN   c_v+10
 BYTE   W01
 BYTE   Cn4
 BYTE   W01
 BYTE   Bn3
 BYTE   N02  Fn4  v108
 BYTE   W01
 BYTE   PAN   c_v+6
 BYTE   W01
 BYTE   Gs3
 BYTE   W01
 BYTE   Gn3
 BYTE   N02  Cn5  v104
 BYTE   W01
 BYTE   PAN   c_v+1
 BYTE   W01
 BYTE   En3
 BYTE   W01
 BYTE   Ds3
 BYTE   N02  Fn5  v096
 BYTE   W01
 BYTE   PAN   c_v-3
 BYTE   W01
 BYTE   Cn3
 BYTE   W01
 BYTE   As2
 BYTE   N02  Cn5  v104
 BYTE   W01
 BYTE   PAN   c_v-7
 BYTE   W01
 BYTE   Gs2
 BYTE   W01
 BYTE   Fs2
 BYTE   N02  Fn4  v108
 BYTE   W01
 BYTE   PAN   c_v-11
 BYTE   W01
 BYTE   En2
 BYTE   W01
 BYTE   Dn2
 BYTE   N02  Cn5  v104
 BYTE   W01
 BYTE   PAN   c_v-15
 BYTE   W01
 BYTE   Bn1
 BYTE   W01
 BYTE   As1
 BYTE   N02  Fn5  v096
 BYTE   W01
 BYTE   PAN   c_v-19
 BYTE   W01
 BYTE   Gn1
 BYTE   W01
 BYTE   Fs1
 BYTE   N02  Cn5  v104
 BYTE   W01
 BYTE   PAN   c_v-24
 BYTE   W01
 BYTE   Ds1
 BYTE   W01
 BYTE   En1
 BYTE   N02  Fn4  v108
 BYTE   W01
 BYTE   PAN   c_v-22
 BYTE   W01
 BYTE   Gn1
 BYTE   W01
 BYTE   An1
 BYTE   N02  Cn5  v104
 BYTE   W01
 BYTE   PAN   c_v-18
 BYTE   W01
 BYTE   Bn1
 BYTE   W01
 BYTE   Cs2
 BYTE   N02  Fn5  v096
 BYTE   W01
 BYTE   PAN   c_v-14
 BYTE   W01
 BYTE   En2
 BYTE   W01
 BYTE   Fn2
 BYTE   N02  Cn5  v104
 BYTE   W01
 BYTE   PAN   c_v-10
 BYTE   W01
 BYTE   Gs2
 BYTE   W01
 BYTE   An2
 BYTE   N02  Fn4  v108
 BYTE   W01
 BYTE   PAN   c_v-6
 BYTE   W01
 BYTE   Cn3
 BYTE   W01
 BYTE   Cs3
 BYTE   N02  Cn5  v104
 BYTE   W01
 BYTE   PAN   c_v-1
 BYTE   W01
 BYTE   En3
 BYTE   W01
 BYTE   Fn3
 BYTE   N02  Fn5  v096
 BYTE   W01
 BYTE   PAN   c_v+3
 BYTE   W01
 BYTE   Gs3
 BYTE   W01
 BYTE   As3
 BYTE   N02  Cn5  v104
 BYTE   W01
 BYTE   PAN   c_v+7
 BYTE   W01
 BYTE   Cn4
 BYTE   W01
 BYTE   Dn4
 BYTE   N02  Gn4  v108
 BYTE   W01
 BYTE   PAN   c_v+11
 BYTE   W01
 BYTE   Fn4
 BYTE   W01
 BYTE   Fs4
 BYTE   N02  Cn5  v104
 BYTE   W01
 BYTE   PAN   c_v+15
 BYTE   W01
 BYTE   An4
 BYTE   W01
 BYTE   As4
 BYTE   N02  En5  v096
 BYTE   W01
 BYTE   PAN   c_v+19
 BYTE   W01
 BYTE   Cs5
 BYTE   W01
 BYTE   Dn5
 BYTE   N02  Cn5  v104
 BYTE   W01
 BYTE   PAN   c_v+24
 BYTE   W01
 BYTE   Fn5
 BYTE   W01
 BYTE   En5
 BYTE   N02  Gn4  v108
 BYTE   W01
 BYTE   PAN   c_v+22
 BYTE   W01
 BYTE   Cs5
 BYTE   W01
 BYTE   Bn4
 BYTE   N02  Cn5  v104
 BYTE   W01
 BYTE   PAN   c_v+18
 BYTE   W01
 BYTE   An4
 BYTE   W01
 BYTE   Gn4
 BYTE   N02  En5  v096
 BYTE   W01
 BYTE   PAN   c_v+14
 BYTE   W01
 BYTE   Fn4
 BYTE   W01
 BYTE   Ds4
 BYTE   N02  Cn5  v104
 BYTE   W01
 BYTE   PAN   c_v+10
 BYTE   W01
 BYTE   Cn4
 BYTE   W01
 BYTE   Bn3
 BYTE   N02  Gn4  v108
 BYTE   W01
 BYTE   PAN   c_v+6
 BYTE   W01
 BYTE   Gs3
 BYTE   W01
 BYTE   Gn3
 BYTE   N02  Cn5  v104
 BYTE   W01
 BYTE   PAN   c_v+1
 BYTE   W01
 BYTE   En3
 BYTE   W01
 BYTE   Ds3
 BYTE   N02  En5  v096
 BYTE   W01
 BYTE   PAN   c_v-3
 BYTE   W01
 BYTE   Cn3
 BYTE   W01
 BYTE   As2
 BYTE   N02  Cn5  v104
 BYTE   W01
 BYTE   PAN   c_v-7
 BYTE   W01
 BYTE   Gs2
 BYTE   W01
 BYTE   Fs2
 BYTE   N02  Gn4  v108
 BYTE   W01
 BYTE   PAN   c_v-11
 BYTE   W01
 BYTE   En2
 BYTE   W01
 BYTE   Dn2
 BYTE   N02  Cn5  v104
 BYTE   W01
// 026   ----------------------------------------
 BYTE   PAN   c_v-15
 BYTE   W01
 BYTE   Bn1
 BYTE   W01
 BYTE   As1
 BYTE   N02  En5  v096
 BYTE   W01
 BYTE   PAN   c_v-19
 BYTE   W01
 BYTE   Gn1
 BYTE   W01
 BYTE   Fs1
 BYTE   N02  Cn5  v104
 BYTE   W01
 BYTE   PAN   c_v-24
 BYTE   W01
 BYTE   Ds1
 BYTE   W01
 BYTE   VOICE   56
 BYTE   VOL   48*song2C_mvl/mxv
 BYTE   PAN   c_v+34
 BYTE   N23  Gs2
 BYTE   W24
 BYTE   N23
 BYTE   W24
 BYTE   As2
 BYTE   W24
 BYTE   Gn2
 BYTE   W16
// 027   ----------------------------------------
 BYTE   W08
 BYTE   Fn2
 BYTE   W24
 BYTE   N23
 BYTE   W24
 BYTE   N23
 BYTE   W24
 BYTE   En2
 BYTE   W16
// 028   ----------------------------------------
 BYTE   W08
 BYTE   Gs2
 BYTE   W24
 BYTE   N23
 BYTE   W24
 BYTE   As2
 BYTE   W24
 BYTE   Gn2
 BYTE   W16
// 029   ----------------------------------------
 BYTE   W08
 BYTE   Fn2
 BYTE   W24
 BYTE   En2
 BYTE   W24
 BYTE   Ds2
 BYTE   W24
 BYTE   N23
 BYTE   W16
// 030   ----------------------------------------
 BYTE   W08
 BYTE   Cs2
 BYTE   W24
 BYTE   Cs2  v108
 BYTE   W24
 BYTE   N44  Ds2  v104
 BYTE   W40
// 031   ----------------------------------------
 BYTE   W08
 BYTE   Ds2  v100
 BYTE   W88
// 032   ----------------------------------------
 BYTE   W96
// 033   ----------------------------------------
 BYTE   W96
// 034   ----------------------------------------
 BYTE   W56
 BYTE   W01
 BYTE   VOICE   45
 BYTE   VOL   76*song2C_mvl/mxv
 BYTE   PAN   c_v+14
 BYTE   N11  An2  v108
 BYTE   W12
 BYTE   N05  En2  v092
 BYTE   W06
 BYTE   An2  v104
 BYTE   W12
 BYTE   En2  v092
 BYTE   W06
 BYTE   An2  v104
 BYTE   W03
// 035   ----------------------------------------
Label_4_0142F0CA:
 BYTE   W03
 BYTE   N05  En2  v092
 BYTE   W06
 BYTE   N11  An2  v108
 BYTE   W12
 BYTE   N05  En2  v092
 BYTE   W06
 BYTE   An2  v104
 BYTE   W12
 BYTE   En2  v092
 BYTE   W06
 BYTE   An2  v104
 BYTE   W06
 BYTE   En2  v092
 BYTE   W06
 BYTE   N11  An2  v108
 BYTE   W12
 BYTE   N05  En2  v092
 BYTE   W06
 BYTE   An2  v104
 BYTE   W12
 BYTE   En2  v092
 BYTE   W06
 BYTE   An2  v104
 BYTE   W03
 BYTE   PEND 
// 036   ----------------------------------------
Label_4_0142F0F5:
 BYTE   W03
 BYTE   N05  En2  v092
 BYTE   W06
 BYTE   N11  An2  v108
 BYTE   W12
 BYTE   N05  En2  v092
 BYTE   W06
 BYTE   An2  v104
 BYTE   W12
 BYTE   En2  v092
 BYTE   W06
 BYTE   An2  v104
 BYTE   W06
 BYTE   En2  v092
 BYTE   W06
 BYTE   N11  Fn2  v108
 BYTE   W12
 BYTE   N05  Cn2  v092
 BYTE   W06
 BYTE   Fn2  v104
 BYTE   W12
 BYTE   Cn2  v092
 BYTE   W06
 BYTE   Fn2  v104
 BYTE   W03
 BYTE   PEND 
// 037   ----------------------------------------
Label_4_0142F120:
 BYTE   W03
 BYTE   N05  Cn2  v092
 BYTE   W06
 BYTE   N11  Fn2  v108
 BYTE   W12
 BYTE   N05  Cn2  v092
 BYTE   W06
 BYTE   Fn2  v104
 BYTE   W12
 BYTE   Cn2  v092
 BYTE   W06
 BYTE   Fn2  v104
 BYTE   W06
 BYTE   Cn2  v092
 BYTE   W06
 BYTE   N11  Fn2  v108
 BYTE   W12
 BYTE   N05  Cn2  v092
 BYTE   W06
 BYTE   Fn2  v104
 BYTE   W12
 BYTE   Cn2  v092
 BYTE   W06
 BYTE   Fn2  v104
 BYTE   W03
 BYTE   PEND 
// 038   ----------------------------------------
 BYTE   W03
 BYTE   Cn2  v092
 BYTE   W06
 BYTE   N11  Fn2  v108
 BYTE   W12
 BYTE   N05  Cn2  v092
 BYTE   W06
 BYTE   Fn2  v104
 BYTE   W12
 BYTE   Cn2  v092
 BYTE   W06
 BYTE   Fn2  v104
 BYTE   W06
 BYTE   Cn2  v092
 BYTE   W06
 BYTE   N11  An2  v108
 BYTE   W12
 BYTE   N05  En2  v092
 BYTE   W06
 BYTE   An2  v104
 BYTE   W12
 BYTE   En2  v092
 BYTE   W06
 BYTE   An2  v104
 BYTE   W03
 BYTE   PATT
  POIN2 Label_4_0142F0CA
 BYTE   PATT
  POIN2 Label_4_0142F0F5
 BYTE   PATT
  POIN2 Label_4_0142F120
// 039   ----------------------------------------
 BYTE   W03
 BYTE   N05  Cn2  v092
 BYTE   W06
 BYTE   N11  Cn3  v108
 BYTE   W12
 BYTE   N05  Gn2  v092
 BYTE   W06
 BYTE   Cn3  v104
 BYTE   W12
 BYTE   Gn2  v092
 BYTE   W06
 BYTE   Cn3  v104
 BYTE   W06
 BYTE   Gn2  v092
 BYTE   W06
 BYTE   Cn3  v084
 BYTE   W06
 BYTE   Gn2  v072
 BYTE   W06
 BYTE   Cn3  v096
 BYTE   W06
 BYTE   Gn2  v084
 BYTE   W06
 BYTE   Cn3  v108
 BYTE   W06
 BYTE   Gn2  v092
 BYTE   W06
 BYTE   Cn3  v124
 BYTE   W03
// 040   ----------------------------------------
 BYTE   W03
 BYTE   Gn2  v104
 BYTE   W06
 BYTE   VOICE   67
 BYTE   VOL   70*song2C_mvl/mxv
 BYTE   PAN   c_v+25
 BYTE   N02  Ds2  v116
 BYTE   W03
 BYTE   Ds2  v060
 BYTE   W03
 BYTE   Ds2  v092
 BYTE   W03
 BYTE   Ds2  v044
 BYTE   W03
 BYTE   Ds2  v092
 BYTE   W03
 BYTE   Ds2  v044
 BYTE   W03
 BYTE   Ds2  v092
 BYTE   W03
 BYTE   Ds2  v044
 BYTE   W03
 BYTE   Ds2  v096
 BYTE   W03
 BYTE   Ds2  v052
 BYTE   W03
 BYTE   Ds2  v092
 BYTE   W03
 BYTE   Ds2  v044
 BYTE   W03
 BYTE   Ds2  v092
 BYTE   W03
 BYTE   Ds2  v044
 BYTE   W03
 BYTE   Ds2  v092
 BYTE   W03
 BYTE   Ds2  v044
 BYTE   W03
 BYTE   Cn2  v116
 BYTE   W03
 BYTE   Cn2  v060
 BYTE   W03
 BYTE   Cn2  v092
 BYTE   W03
 BYTE   Cn2  v044
 BYTE   W03
 BYTE   Cn2  v092
 BYTE   W03
 BYTE   Cn2  v044
 BYTE   W03
 BYTE   Cn2  v092
 BYTE   W03
 BYTE   Cn2  v044
 BYTE   W03
 BYTE   Cn2  v096
 BYTE   W03
 BYTE   Cn2  v052
 BYTE   W03
 BYTE   Cn2  v092
 BYTE   W03
 BYTE   Cn2  v044
 BYTE   W03
 BYTE   Cn2  v092
 BYTE   W03
// 041   ----------------------------------------
 BYTE   Cn2  v044
 BYTE   W03
 BYTE   Cn2  v092
 BYTE   W03
 BYTE   Cn2  v044
 BYTE   W03
 BYTE   Cn2  v116
 BYTE   W03
 BYTE   Cn2  v060
 BYTE   W03
 BYTE   Cn2  v092
 BYTE   W03
 BYTE   Cn2  v044
 BYTE   W03
 BYTE   Cn2  v092
 BYTE   W03
 BYTE   Cn2  v044
 BYTE   W03
 BYTE   Cn2  v092
 BYTE   W03
 BYTE   Cn2  v044
 BYTE   W03
 BYTE   Cn2  v096
 BYTE   W03
 BYTE   Cn2  v052
 BYTE   W03
 BYTE   Cn2  v092
 BYTE   W03
 BYTE   Cn2  v044
 BYTE   W03
 BYTE   Cn2  v092
 BYTE   W03
 BYTE   Cn2  v044
 BYTE   W03
 BYTE   Cn2  v092
 BYTE   W03
 BYTE   Cn2  v044
 BYTE   W03
 BYTE   Cs2  v116
 BYTE   W03
 BYTE   Cs2  v060
 BYTE   W03
 BYTE   Cs2  v092
 BYTE   W03
 BYTE   Cs2  v044
 BYTE   W03
 BYTE   Cs2  v092
 BYTE   W03
 BYTE   Cs2  v044
 BYTE   W03
 BYTE   Cs2  v092
 BYTE   W03
 BYTE   Cs2  v044
 BYTE   W03
 BYTE   Cs2  v096
 BYTE   W03
 BYTE   Cs2  v052
 BYTE   W03
 BYTE   Cs2  v092
 BYTE   W03
 BYTE   Cs2  v044
 BYTE   W03
 BYTE   Cs2  v092
 BYTE   W03
// 042   ----------------------------------------
 BYTE   Cs2  v044
 BYTE   W03
 BYTE   Cs2  v092
 BYTE   W03
 BYTE   Cs2  v044
 BYTE   W03
 BYTE   Cs2  v116
 BYTE   W03
 BYTE   Cs2  v060
 BYTE   W03
 BYTE   Cs2  v092
 BYTE   W03
 BYTE   Cs2  v044
 BYTE   W03
 BYTE   Cs2  v092
 BYTE   W03
 BYTE   Cs2  v044
 BYTE   W03
 BYTE   Cs2  v092
 BYTE   W03
 BYTE   Cs2  v044
 BYTE   W03
 BYTE   Cs2  v096
 BYTE   W03
 BYTE   Cs2  v052
 BYTE   W03
 BYTE   Cs2  v092
 BYTE   W03
 BYTE   Cs2  v044
 BYTE   W03
 BYTE   Cs2  v092
 BYTE   W03
 BYTE   Cs2  v044
 BYTE   W03
 BYTE   Cs2  v092
 BYTE   W03
 BYTE   Cs2  v044
 BYTE   W03
 BYTE   An1  v116
 BYTE   W03
 BYTE   An1  v060
 BYTE   W03
 BYTE   An1  v092
 BYTE   W03
 BYTE   An1  v044
 BYTE   W03
 BYTE   An1  v092
 BYTE   W03
 BYTE   An1  v044
 BYTE   W03
 BYTE   An1  v092
 BYTE   W03
 BYTE   An1  v044
 BYTE   W03
 BYTE   An1  v096
 BYTE   W03
 BYTE   An1  v052
 BYTE   W03
 BYTE   An1  v092
 BYTE   W03
 BYTE   An1  v044
 BYTE   W03
 BYTE   An1  v092
 BYTE   W03
// 043   ----------------------------------------
 BYTE   An1  v044
 BYTE   W03
 BYTE   An1  v092
 BYTE   W03
 BYTE   An1  v044
 BYTE   W03
 BYTE   Cs2  v116
 BYTE   W03
 BYTE   Cs2  v060
 BYTE   W03
 BYTE   Cs2  v092
 BYTE   W03
 BYTE   Cs2  v044
 BYTE   W03
 BYTE   Cs2  v092
 BYTE   W03
 BYTE   Cs2  v044
 BYTE   W03
 BYTE   Cs2  v092
 BYTE   W03
 BYTE   Cs2  v044
 BYTE   W03
 BYTE   Cs2  v096
 BYTE   W03
 BYTE   Cs2  v052
 BYTE   W03
 BYTE   Cs2  v092
 BYTE   W03
 BYTE   Cs2  v044
 BYTE   W03
 BYTE   Cs2  v092
 BYTE   W03
 BYTE   Cs2  v044
 BYTE   W03
 BYTE   Cs2  v092
 BYTE   W03
 BYTE   Cs2  v044
 BYTE   W03
 BYTE   An1  v116
 BYTE   W03
 BYTE   An1  v060
 BYTE   W03
 BYTE   An1  v092
 BYTE   W03
 BYTE   An1  v044
 BYTE   W03
 BYTE   An1  v092
 BYTE   W03
 BYTE   An1  v044
 BYTE   W03
 BYTE   An1  v092
 BYTE   W03
 BYTE   An1  v044
 BYTE   W03
 BYTE   An1  v096
 BYTE   W03
 BYTE   An1  v052
 BYTE   W03
 BYTE   An1  v092
 BYTE   W03
 BYTE   An1  v044
 BYTE   W03
 BYTE   An1  v092
 BYTE   W03
// 044   ----------------------------------------
 BYTE   An1  v044
 BYTE   W03
 BYTE   An1  v092
 BYTE   W03
 BYTE   An1  v044
 BYTE   W03
 BYTE   Cs2  v116
 BYTE   W03
 BYTE   Cs2  v060
 BYTE   W03
 BYTE   Cs2  v092
 BYTE   W03
 BYTE   Cs2  v044
 BYTE   W03
 BYTE   Cs2  v092
 BYTE   W03
 BYTE   Cs2  v044
 BYTE   W03
 BYTE   Cs2  v092
 BYTE   W03
 BYTE   Cs2  v044
 BYTE   W03
 BYTE   Cs2  v096
 BYTE   W03
 BYTE   Cs2  v052
 BYTE   W03
 BYTE   Cs2  v092
 BYTE   W03
 BYTE   Cs2  v044
 BYTE   W03
 BYTE   Cs2  v092
 BYTE   W03
 BYTE   Cs2  v044
 BYTE   W03
 BYTE   Cs2  v092
 BYTE   W03
 BYTE   Cs2  v044
 BYTE   W03
 BYTE   Dn2  v116
 BYTE   W03
 BYTE   Dn2  v060
 BYTE   W03
 BYTE   Dn2  v092
 BYTE   W03
 BYTE   Dn2  v044
 BYTE   W03
 BYTE   Dn2  v092
 BYTE   W03
 BYTE   Dn2  v044
 BYTE   W03
 BYTE   Dn2  v092
 BYTE   W03
 BYTE   Dn2  v044
 BYTE   W03
 BYTE   Dn2  v096
 BYTE   W03
 BYTE   Dn2  v052
 BYTE   W03
 BYTE   Dn2  v092
 BYTE   W03
 BYTE   Dn2  v044
 BYTE   W03
 BYTE   Dn2  v092
 BYTE   W03
// 045   ----------------------------------------
Label_4_0142F393:
 BYTE   N02  Dn2  v044
 BYTE   W03
 BYTE   Dn2  v092
 BYTE   W03
 BYTE   Dn2  v044
 BYTE   W03
 BYTE   Ds2  v116
 BYTE   W03
 BYTE   Ds2  v060
 BYTE   W03
 BYTE   Ds2  v092
 BYTE   W03
 BYTE   Ds2  v044
 BYTE   W03
 BYTE   Ds2  v092
 BYTE   W03
 BYTE   Ds2  v044
 BYTE   W03
 BYTE   Ds2  v092
 BYTE   W03
 BYTE   Ds2  v044
 BYTE   W03
 BYTE   Ds2  v096
 BYTE   W03
 BYTE   Ds2  v052
 BYTE   W03
 BYTE   Ds2  v092
 BYTE   W03
 BYTE   Ds2  v044
 BYTE   W03
 BYTE   Ds2  v092
 BYTE   W03
 BYTE   Ds2  v044
 BYTE   W03
 BYTE   Ds2  v092
 BYTE   W03
 BYTE   Ds2  v044
 BYTE   W03
 BYTE   Dn2  v116
 BYTE   W03
 BYTE   Dn2  v060
 BYTE   W03
 BYTE   Dn2  v092
 BYTE   W03
 BYTE   Dn2  v044
 BYTE   W03
 BYTE   Dn2  v092
 BYTE   W03
 BYTE   Dn2  v044
 BYTE   W03
 BYTE   Dn2  v092
 BYTE   W03
 BYTE   Dn2  v044
 BYTE   W03
 BYTE   Dn2  v096
 BYTE   W03
 BYTE   Dn2  v052
 BYTE   W03
 BYTE   Dn2  v092
 BYTE   W03
 BYTE   Dn2  v044
 BYTE   W03
 BYTE   Dn2  v092
 BYTE   W03
 BYTE   PEND 
 BYTE   PATT
  POIN2 Label_4_0142F393
// 046   ----------------------------------------
 BYTE   N02  Dn2  v044
 BYTE   W03
 BYTE   Dn2  v092
 BYTE   W03
 BYTE   Dn2  v044
 BYTE   W03
 BYTE   Ds2  v116
 BYTE   W03
 BYTE   Ds2  v060
 BYTE   W03
 BYTE   Ds2  v092
 BYTE   W03
 BYTE   Ds2  v044
 BYTE   W03
 BYTE   Ds2  v092
 BYTE   W03
 BYTE   Ds2  v044
 BYTE   W03
 BYTE   Ds2  v092
 BYTE   W03
 BYTE   Ds2  v044
 BYTE   W03
 BYTE   Ds2  v096
 BYTE   W03
 BYTE   Ds2  v052
 BYTE   W03
 BYTE   Ds2  v092
 BYTE   W03
 BYTE   Ds2  v044
 BYTE   W03
 BYTE   Ds2  v092
 BYTE   W03
 BYTE   Ds2  v044
 BYTE   W03
 BYTE   Ds2  v092
 BYTE   W03
 BYTE   Ds2  v044
 BYTE   W03
 BYTE   Fn2  v116
 BYTE   W03
 BYTE   Fn2  v060
 BYTE   W03
 BYTE   Fn2  v092
 BYTE   W03
 BYTE   Fn2  v044
 BYTE   W03
 BYTE   Fn2  v092
 BYTE   W03
 BYTE   Fn2  v044
 BYTE   W03
 BYTE   Fn2  v092
 BYTE   W03
 BYTE   Fn2  v044
 BYTE   W03
 BYTE   Fn2  v096
 BYTE   W03
 BYTE   Fn2  v052
 BYTE   W03
 BYTE   Fn2  v092
 BYTE   W03
 BYTE   Fn2  v044
 BYTE   W03
 BYTE   Fn2  v092
 BYTE   W03
// 047   ----------------------------------------
 BYTE   Fn2  v044
 BYTE   W03
 BYTE   Fn2  v092
 BYTE   W03
 BYTE   Fn2  v044
 BYTE   W03
 BYTE   Dn2  v116
 BYTE   W03
 BYTE   Dn2  v060
 BYTE   W03
 BYTE   Dn2  v092
 BYTE   W03
 BYTE   Dn2  v044
 BYTE   W03
 BYTE   Dn2  v092
 BYTE   W03
 BYTE   Dn2  v044
 BYTE   W03
 BYTE   Dn2  v092
 BYTE   W03
 BYTE   Dn2  v044
 BYTE   W03
 BYTE   Dn2  v096
 BYTE   W03
 BYTE   Dn2  v052
 BYTE   W03
 BYTE   Dn2  v092
 BYTE   W03
 BYTE   Dn2  v044
 BYTE   W03
 BYTE   Dn2  v092
 BYTE   W03
 BYTE   Dn2  v044
 BYTE   W03
 BYTE   Dn2  v092
 BYTE   W03
 BYTE   Dn2  v044
 BYTE   W03
 BYTE   Dn2  v116
 BYTE   W03
 BYTE   Dn2  v060
 BYTE   W03
 BYTE   Dn2  v092
 BYTE   W03
 BYTE   Dn2  v044
 BYTE   W03
 BYTE   Dn2  v092
 BYTE   W03
 BYTE   Dn2  v044
 BYTE   W03
 BYTE   Dn2  v092
 BYTE   W03
 BYTE   Dn2  v044
 BYTE   W03
 BYTE   Dn2  v096
 BYTE   W03
 BYTE   Dn2  v052
 BYTE   W03
 BYTE   Dn2  v092
 BYTE   W03
 BYTE   Dn2  v044
 BYTE   W03
 BYTE   Dn2  v092
 BYTE   W03
// 048   ----------------------------------------
 BYTE   Dn2  v044
 BYTE   W03
 BYTE   Dn2  v092
 BYTE   W03
 BYTE   Dn2  v044
 BYTE   W03
 BYTE   N07  Ds2  v116
 BYTE   W08
 BYTE   PAN   c_v-14
 BYTE   N03  Ds2  v060
 BYTE   W04
 BYTE   PAN   c_v-25
 BYTE   N03  Ds2  v052
 BYTE   W04
 BYTE   PAN   c_v-34
 BYTE   N03  Ds2  v044
 BYTE   W04
 BYTE   PAN   c_v-43
 BYTE   N03  Ds2  v040
 BYTE   W04
 BYTE   PAN   c_v+25
 BYTE   W24
 BYTE   N07  Cn2  v116
 BYTE   W08
 BYTE   PAN   c_v+34
 BYTE   N03  Cn2  v060
 BYTE   W04
 BYTE   PAN   c_v+43
 BYTE   N03  Cn2  v052
 BYTE   W04
 BYTE   PAN   c_v+49
 BYTE   N03  Cn2  v044
 BYTE   W04
 BYTE   PAN   c_v+54
 BYTE   N03  Cn2  v040
 BYTE   W04
 BYTE   PAN   c_v+25
 BYTE   W15
// 049   ----------------------------------------
 BYTE   W09
 BYTE   N07  Cn2  v116
 BYTE   W08
 BYTE   PAN   c_v-14
 BYTE   N03  Cn2  v060
 BYTE   W04
 BYTE   PAN   c_v-25
 BYTE   N03  Cn2  v052
 BYTE   W04
 BYTE   PAN   c_v-34
 BYTE   N03  Cn2  v044
 BYTE   W04
 BYTE   PAN   c_v-43
 BYTE   N03  Cn2  v040
 BYTE   W04
 BYTE   PAN   c_v+25
 BYTE   W24
 BYTE   N07  Cs2  v116
 BYTE   W08
 BYTE   PAN   c_v+34
 BYTE   N03  Cs2  v060
 BYTE   W04
 BYTE   PAN   c_v+43
 BYTE   N03  Cs2  v052
 BYTE   W04
 BYTE   PAN   c_v+49
 BYTE   N03  Cs2  v044
 BYTE   W04
 BYTE   PAN   c_v+54
 BYTE   N03  Cs2  v040
 BYTE   W04
 BYTE   PAN   c_v+25
 BYTE   W15
// 050   ----------------------------------------
Label_4_0142F541:
 BYTE   W09
 BYTE   N07  Cs2  v116
 BYTE   W08
 BYTE   PAN   c_v-14
 BYTE   N03  Cs2  v060
 BYTE   W04
 BYTE   PAN   c_v-25
 BYTE   N03  Cs2  v052
 BYTE   W04
 BYTE   PAN   c_v-34
 BYTE   N03  Cs2  v044
 BYTE   W04
 BYTE   PAN   c_v-43
 BYTE   N03  Cs2  v040
 BYTE   W04
 BYTE   PAN   c_v+25
 BYTE   W24
 BYTE   N07  An1  v116
 BYTE   W08
 BYTE   PAN   c_v+34
 BYTE   N03  An1  v060
 BYTE   W04
 BYTE   PAN   c_v+43
 BYTE   N03  An1  v052
 BYTE   W04
 BYTE   PAN   c_v+49
 BYTE   N03  An1  v044
 BYTE   W04
 BYTE   PAN   c_v+54
 BYTE   N03  An1  v040
 BYTE   W04
 BYTE   PAN   c_v+25
 BYTE   W15
 BYTE   PEND 
 BYTE   PATT
  POIN2 Label_4_0142F541
// 051   ----------------------------------------
 BYTE   W09
 BYTE   N07  Cs2  v116
 BYTE   W08
 BYTE   PAN   c_v-14
 BYTE   N03  Cs2  v060
 BYTE   W04
 BYTE   PAN   c_v-25
 BYTE   N03  Cs2  v052
 BYTE   W04
 BYTE   PAN   c_v-34
 BYTE   N03  Cs2  v044
 BYTE   W04
 BYTE   PAN   c_v-43
 BYTE   N03  Cs2  v040
 BYTE   W04
 BYTE   PAN   c_v+25
 BYTE   W24
 BYTE   N07  Dn2  v116
 BYTE   W08
 BYTE   PAN   c_v+34
 BYTE   N03  Dn2  v060
 BYTE   W04
 BYTE   PAN   c_v+43
 BYTE   N03  Dn2  v052
 BYTE   W04
 BYTE   PAN   c_v+49
 BYTE   N03  Dn2  v044
 BYTE   W04
 BYTE   PAN   c_v+54
 BYTE   N03  Dn2  v040
 BYTE   W04
 BYTE   PAN   c_v+25
 BYTE   W15
// 052   ----------------------------------------
Label_4_0142F5C5:
 BYTE   W09
 BYTE   N07  Ds2  v116
 BYTE   W08
 BYTE   PAN   c_v-14
 BYTE   N03  Ds2  v060
 BYTE   W04
 BYTE   PAN   c_v-25
 BYTE   N03  Ds2  v052
 BYTE   W04
 BYTE   PAN   c_v-34
 BYTE   N03  Ds2  v044
 BYTE   W04
 BYTE   PAN   c_v-43
 BYTE   N03  Ds2  v040
 BYTE   W04
 BYTE   PAN   c_v+25
 BYTE   W24
 BYTE   N07  Dn2  v116
 BYTE   W08
 BYTE   PAN   c_v+34
 BYTE   N03  Dn2  v060
 BYTE   W04
 BYTE   PAN   c_v+43
 BYTE   N03  Dn2  v052
 BYTE   W04
 BYTE   PAN   c_v+49
 BYTE   N03  Dn2  v044
 BYTE   W04
 BYTE   PAN   c_v+54
 BYTE   N03  Dn2  v040
 BYTE   W04
 BYTE   PAN   c_v+25
 BYTE   W15
 BYTE   PEND 
 BYTE   PATT
  POIN2 Label_4_0142F5C5
// 053   ----------------------------------------
 BYTE   W09
 BYTE   N07  Ds2  v116
 BYTE   W08
 BYTE   PAN   c_v-14
 BYTE   N03  Ds2  v060
 BYTE   W04
 BYTE   PAN   c_v-25
 BYTE   N03  Ds2  v052
 BYTE   W04
 BYTE   PAN   c_v-34
 BYTE   N03  Ds2  v044
 BYTE   W04
 BYTE   PAN   c_v-43
 BYTE   N03  Ds2  v040
 BYTE   W04
 BYTE   PAN   c_v+25
 BYTE   W24
 BYTE   N07  Fn2  v116
 BYTE   W08
 BYTE   PAN   c_v+34
 BYTE   N03  Fn2  v060
 BYTE   W04
 BYTE   PAN   c_v+43
 BYTE   N03  Fn2  v052
 BYTE   W04
 BYTE   PAN   c_v+49
 BYTE   N03  Fn2  v044
 BYTE   W04
 BYTE   PAN   c_v+54
 BYTE   N03  Fn2  v040
 BYTE   W04
 BYTE   PAN   c_v+25
 BYTE   W15
// 054   ----------------------------------------
 BYTE   W09
 BYTE   N07  Dn2  v116
 BYTE   W08
 BYTE   PAN   c_v-14
 BYTE   N03  Dn2  v060
 BYTE   W04
 BYTE   PAN   c_v-25
 BYTE   N03  Dn2  v052
 BYTE   W04
 BYTE   PAN   c_v-34
 BYTE   N03  Dn2  v044
 BYTE   W04
 BYTE   PAN   c_v-43
 BYTE   N03  Dn2  v040
 BYTE   W04
 BYTE   PAN   c_v+25
 BYTE   W24
 BYTE   N07  Dn2  v116
 BYTE   W08
 BYTE   PAN   c_v+34
 BYTE   N03  Dn2  v060
 BYTE   W04
 BYTE   PAN   c_v+43
 BYTE   N03  Dn2  v052
 BYTE   W04
 BYTE   PAN   c_v+49
 BYTE   N03  Dn2  v044
 BYTE   W04
 BYTE   PAN   c_v+54
 BYTE   N03  Dn2  v040
 BYTE   W04
 BYTE   PAN   c_v+25
 BYTE   W15
// 055   ----------------------------------------
 BYTE   W10
 BYTE   VOICE   67
 BYTE   VOL   66*song2C_mvl/mxv
 BYTE   PAN   c_v+14
 BYTE   N04  Cn3  v116
 BYTE   W05
 BYTE   N03  Cn3  v060
 BYTE   W04
 BYTE   Cn3  v052
 BYTE   W04
 BYTE   Cn3  v044
 BYTE   W04
 BYTE   Cn3  v040
 BYTE   W04
 BYTE   Cn3  v032
 BYTE   W24
 BYTE   W03
 BYTE   N04  Cn3  v116
 BYTE   W05
 BYTE   N03  Cn3  v060
 BYTE   W04
 BYTE   Cn3  v052
 BYTE   W04
 BYTE   Cn3  v044
 BYTE   W04
 BYTE   Cn3  v040
 BYTE   W04
 BYTE   Cn3  v032
 BYTE   W17
// 056   ----------------------------------------
Label_4_0142F6B8:
 BYTE   W10
 BYTE   N04  Cn3  v116
 BYTE   W05
 BYTE   N03  Cn3  v060
 BYTE   W04
 BYTE   Cn3  v052
 BYTE   W04
 BYTE   Cn3  v044
 BYTE   W04
 BYTE   Cn3  v040
 BYTE   W04
 BYTE   Cn3  v032
 BYTE   W24
 BYTE   W03
 BYTE   N04  Cn3  v116
 BYTE   W05
 BYTE   N03  Cn3  v060
 BYTE   W04
 BYTE   Cn3  v052
 BYTE   W04
 BYTE   Cn3  v044
 BYTE   W04
 BYTE   Cn3  v040
 BYTE   W04
 BYTE   Cn3  v032
 BYTE   W15
 BYTE   N06  Bn2  v124
 BYTE   W02
 BYTE   PEND 
// 057   ----------------------------------------
Label_4_0142F6E7:
 BYTE   W05
 BYTE   N02  Bn2  v060
 BYTE   W05
 BYTE   N04  Cn3  v116
 BYTE   W05
 BYTE   N03  Cn3  v060
 BYTE   W04
 BYTE   Cn3  v052
 BYTE   W04
 BYTE   Cn3  v044
 BYTE   W04
 BYTE   Cn3  v040
 BYTE   W04
 BYTE   Cn3  v032
 BYTE   W24
 BYTE   W03
 BYTE   N04  Cn3  v116
 BYTE   W05
 BYTE   N03  Cn3  v060
 BYTE   W04
 BYTE   Cn3  v052
 BYTE   W04
 BYTE   Cn3  v044
 BYTE   W04
 BYTE   Cn3  v040
 BYTE   W04
 BYTE   Cn3  v032
 BYTE   W17
 BYTE   PEND 
 BYTE   PATT
  POIN2 Label_4_0142F6B8
 BYTE   PATT
  POIN2 Label_4_0142F6E7
 BYTE   PATT
  POIN2 Label_4_0142F6B8
 BYTE   PATT
  POIN2 Label_4_0142F6E7
 BYTE   PATT
  POIN2 Label_4_0142F6B8
// 058   ----------------------------------------
 BYTE   W05
 BYTE   N02  Bn2  v060
 BYTE   W05
 BYTE   VOICE   67
 BYTE   VOL   66*song2C_mvl/mxv
 BYTE   PAN   c_v-25
 BYTE   N03  Gn2  v112
 BYTE   W04
 BYTE   N01  Gn2  v060
 BYTE   W02
 BYTE   N03  Gn2  v096
 BYTE   W04
 BYTE   Gn2  v052
 BYTE   W04
 BYTE   Gn2  v040
 BYTE   W04
 BYTE   Gn2  v104
 BYTE   W04
 BYTE   Gn2  v052
 BYTE   W04
 BYTE   Gn2  v040
 BYTE   W04
 BYTE   Gn2  v096
 BYTE   W04
 BYTE   N01  Gn2  v052
 BYTE   W02
 BYTE   N03  Gn2  v116
 BYTE   W04
 BYTE   N01  Gn2  v060
 BYTE   W02
 BYTE   N03  Gn2  v100
 BYTE   W04
 BYTE   Gn2  v052
 BYTE   W04
 BYTE   Gn2  v040
 BYTE   W04
 BYTE   Gn2  v104
 BYTE   W04
 BYTE   Gn2  v052
 BYTE   W04
 BYTE   Gn2  v040
 BYTE   W04
 BYTE   Gn2  v100
 BYTE   W04
 BYTE   N01  Gn2  v052
 BYTE   W02
 BYTE   N03  Gn2  v120
 BYTE   W04
 BYTE   N01  Gn2  v060
 BYTE   W02
 BYTE   N03  Gn2  v100
 BYTE   W04
 BYTE   Gn2  v052
 BYTE   W04
// 059   ----------------------------------------
 BYTE   Gn2  v040
 BYTE   W04
 BYTE   Gn2  v108
 BYTE   W04
 BYTE   Gn2  v052
 BYTE   W04
 BYTE   Gn2  v040
 BYTE   W04
 BYTE   Gn2  v100
 BYTE   W04
 BYTE   N01  Gn2  v052
 BYTE   W02
 BYTE   N03  Gn2  v120
 BYTE   W04
 BYTE   N01  Gn2  v060
 BYTE   W02
 BYTE   N03  Gn2  v104
 BYTE   W04
 BYTE   Gn2  v052
 BYTE   W04
 BYTE   Gn2  v040
 BYTE   W04
 BYTE   Gn2  v112
 BYTE   W04
 BYTE   Gn2  v052
 BYTE   W04
 BYTE   Gn2  v040
 BYTE   W04
 BYTE   Gn2  v104
 BYTE   W04
 BYTE   N01  Gn2  v052
 BYTE   W02
 BYTE   VOICE   67
 BYTE   VOL   80*song2C_mvl/mxv
 BYTE   PAN   c_v-14
 BYTE   N02  Gn2  v108
 BYTE   W04
 BYTE   PAN   c_v+14
 BYTE   N01  Gn2  v044
 BYTE   W02
 BYTE   PAN   c_v+0
 BYTE   N06  Gn2  v104
 BYTE   W08
 BYTE   PAN   c_v+25
 BYTE   N03  Gn2  v060
 BYTE   W04
 BYTE   PAN   c_v+14
 BYTE   N06  Gn2  v108
 BYTE   W08
 BYTE   PAN   c_v+34
 BYTE   N03  Gn2  v060
 BYTE   W04
 BYTE   PAN   c_v+25
 BYTE   N02  Gn2  v104
 BYTE   W03
 BYTE   PAN   c_v+43
 BYTE   N02  Gn2  v040
 BYTE   W03
 BYTE   PAN   c_v-14
 BYTE   N02  Gn2  v108
 BYTE   W02
// 060   ----------------------------------------
 BYTE   W02
 BYTE   PAN   c_v+14
 BYTE   N01  Gn2  v044
 BYTE   W02
 BYTE   PAN   c_v+0
 BYTE   N06  Gn2  v104
 BYTE   W08
 BYTE   PAN   c_v+25
 BYTE   N03  Gn2  v060
 BYTE   W04
 BYTE   PAN   c_v+14
 BYTE   N06  Gn2  v108
 BYTE   W08
 BYTE   PAN   c_v+34
 BYTE   N03  Gn2  v060
 BYTE   W04
 BYTE   PAN   c_v+25
 BYTE   N02  Gn2  v104
 BYTE   W03
 BYTE   PAN   c_v+43
 BYTE   N02  Gn2  v040
 BYTE   W03
 BYTE   PAN   c_v-14
 BYTE   N02  An2  v108
 BYTE   W04
 BYTE   PAN   c_v+14
 BYTE   N01  An2  v044
 BYTE   W02
 BYTE   PAN   c_v+0
 BYTE   N06  An2  v104
 BYTE   W08
 BYTE   PAN   c_v+25
 BYTE   N03  An2  v060
 BYTE   W04
 BYTE   PAN   c_v+14
 BYTE   N06  An2  v108
 BYTE   W08
 BYTE   PAN   c_v+34
 BYTE   N03  An2  v060
 BYTE   W04
 BYTE   PAN   c_v+25
 BYTE   N02  An2  v104
 BYTE   W03
 BYTE   PAN   c_v+43
 BYTE   N02  An2  v040
 BYTE   W03
 BYTE   PAN   c_v-14
 BYTE   N02  An2  v108
 BYTE   W04
 BYTE   PAN   c_v+14
 BYTE   N01  An2  v044
 BYTE   W02
 BYTE   PAN   c_v+0
 BYTE   N06  An2  v104
 BYTE   W08
 BYTE   PAN   c_v+25
 BYTE   N03  An2  v060
 BYTE   W04
 BYTE   PAN   c_v+14
 BYTE   N06  An2  v108
 BYTE   W08
// 061   ----------------------------------------
 BYTE   PAN   c_v+34
 BYTE   N03  An2  v060
 BYTE   W04
 BYTE   PAN   c_v+25
 BYTE   N02  An2  v104
 BYTE   W03
 BYTE   PAN   c_v+43
 BYTE   N02  An2  v040
 BYTE   W03
 BYTE   PAN   c_v-14
 BYTE   N02  An2  v108
 BYTE   W04
 BYTE   PAN   c_v+14
 BYTE   N01  An2  v044
 BYTE   W02
 BYTE   PAN   c_v+0
 BYTE   N06  An2  v104
 BYTE   W08
 BYTE   PAN   c_v+25
 BYTE   N03  An2  v060
 BYTE   W04
 BYTE   PAN   c_v+14
 BYTE   N06  An2  v108
 BYTE   W08
 BYTE   PAN   c_v+34
 BYTE   N03  An2  v060
 BYTE   W04
 BYTE   PAN   c_v+25
 BYTE   N02  An2  v104
 BYTE   W03
 BYTE   PAN   c_v+43
 BYTE   N02  An2  v040
 BYTE   W03
 BYTE   PAN   c_v-14
 BYTE   N02  An2  v108
 BYTE   W04
 BYTE   PAN   c_v+14
 BYTE   N01  An2  v044
 BYTE   W02
 BYTE   PAN   c_v+0
 BYTE   N06  An2  v104
 BYTE   W08
 BYTE   PAN   c_v+25
 BYTE   N03  An2  v060
 BYTE   W04
 BYTE   PAN   c_v+14
 BYTE   N06  An2  v108
 BYTE   W08
 BYTE   PAN   c_v+34
 BYTE   N03  An2  v060
 BYTE   W04
 BYTE   PAN   c_v+25
 BYTE   N02  An2  v104
 BYTE   W03
 BYTE   PAN   c_v+43
 BYTE   N02  An2  v040
 BYTE   W03
 BYTE   PAN   c_v-14
 BYTE   N02  Fn2  v108
 BYTE   W04
 BYTE   PAN   c_v+14
 BYTE   N01  Fn2  v044
 BYTE   W02
 BYTE   PAN   c_v+0
 BYTE   N06  Fn2  v104
 BYTE   W08
// 062   ----------------------------------------
 BYTE   PAN   c_v+25
 BYTE   N03  Fn2  v060
 BYTE   W04
 BYTE   PAN   c_v+14
 BYTE   N06  Fn2  v108
 BYTE   W08
 BYTE   PAN   c_v+34
 BYTE   N03  Fn2  v060
 BYTE   W04
 BYTE   PAN   c_v+25
 BYTE   N02  Fn2  v104
 BYTE   W03
 BYTE   PAN   c_v+43
 BYTE   N02  Fn2  v040
 BYTE   W03
 BYTE   PAN   c_v-14
 BYTE   N02  Fn2  v108
 BYTE   W04
 BYTE   PAN   c_v+14
 BYTE   N01  Fn2  v044
 BYTE   W02
 BYTE   PAN   c_v+0
 BYTE   N06  Fn2  v104
 BYTE   W08
 BYTE   PAN   c_v+25
 BYTE   N03  Fn2  v060
 BYTE   W04
 BYTE   PAN   c_v+14
 BYTE   N06  Fn2  v108
 BYTE   W08
 BYTE   PAN   c_v+34
 BYTE   N03  Fn2  v060
 BYTE   W04
 BYTE   PAN   c_v+25
 BYTE   N02  Fn2  v104
 BYTE   W03
 BYTE   PAN   c_v+43
 BYTE   N02  Fn2  v040
 BYTE   W03
 BYTE   PAN   c_v-14
 BYTE   N02  Fn2  v108
 BYTE   W04
 BYTE   PAN   c_v+14
 BYTE   N01  Fn2  v044
 BYTE   W02
 BYTE   PAN   c_v+0
 BYTE   N06  Fn2  v104
 BYTE   W08
 BYTE   PAN   c_v+25
 BYTE   N03  Fn2  v060
 BYTE   W04
 BYTE   PAN   c_v+14
 BYTE   N06  Fn2  v108
 BYTE   W08
 BYTE   PAN   c_v+34
 BYTE   N03  Fn2  v060
 BYTE   W04
 BYTE   PAN   c_v+25
 BYTE   N02  Fn2  v104
 BYTE   W03
 BYTE   PAN   c_v+43
 BYTE   N02  Fn2  v040
 BYTE   W03
 BYTE   PAN   c_v-14
 BYTE   N02  Fn2  v108
 BYTE   W02
// 063   ----------------------------------------
 BYTE   W02
 BYTE   PAN   c_v+14
 BYTE   N01  Fn2  v044
 BYTE   W02
 BYTE   PAN   c_v+0
 BYTE   N06  Fn2  v104
 BYTE   W08
 BYTE   PAN   c_v+25
 BYTE   N03  Fn2  v060
 BYTE   W04
 BYTE   PAN   c_v+14
 BYTE   N06  Fn2  v108
 BYTE   W08
 BYTE   PAN   c_v+34
 BYTE   N03  Fn2  v060
 BYTE   W04
 BYTE   PAN   c_v+25
 BYTE   N02  Fn2  v104
 BYTE   W03
 BYTE   PAN   c_v+43
 BYTE   N02  Fn2  v040
 BYTE   W03
 BYTE   PAN   c_v-14
 BYTE   N02  Gn2  v108
 BYTE   W04
 BYTE   PAN   c_v+14
 BYTE   N01  Gn2  v044
 BYTE   W02
 BYTE   PAN   c_v+0
 BYTE   N06  Gn2  v104
 BYTE   W08
 BYTE   PAN   c_v+25
 BYTE   N03  Gn2  v060
 BYTE   W04
 BYTE   PAN   c_v+14
 BYTE   N06  Gn2  v108
 BYTE   W08
 BYTE   PAN   c_v+34
 BYTE   N03  Gn2  v060
 BYTE   W04
 BYTE   PAN   c_v+25
 BYTE   N02  Gn2  v104
 BYTE   W03
 BYTE   PAN   c_v+43
 BYTE   N02  Gn2  v040
 BYTE   W03
 BYTE   PAN   c_v-14
 BYTE   N02  Gn2  v108
 BYTE   W04
 BYTE   PAN   c_v+14
 BYTE   N01  Gn2  v044
 BYTE   W02
 BYTE   PAN   c_v+0
 BYTE   N06  Gn2  v104
 BYTE   W08
 BYTE   PAN   c_v+25
 BYTE   N03  Gn2  v060
 BYTE   W04
 BYTE   PAN   c_v+14
 BYTE   N06  Gn2  v108
 BYTE   W08
// 064   ----------------------------------------
 BYTE   PAN   c_v+34
 BYTE   N03  Gn2  v060
 BYTE   W04
 BYTE   PAN   c_v+25
 BYTE   N02  Gn2  v104
 BYTE   W03
 BYTE   PAN   c_v+43
 BYTE   N02  Gn2  v040
 BYTE   W03
 BYTE   PAN   c_v-14
 BYTE   N02  Gn2  v108
 BYTE   W04
 BYTE   PAN   c_v+14
 BYTE   N01  Gn2  v044
 BYTE   W02
 BYTE   PAN   c_v+0
 BYTE   N06  Gn2  v104
 BYTE   W08
 BYTE   PAN   c_v+25
 BYTE   N03  Gn2  v060
 BYTE   W04
 BYTE   PAN   c_v+14
 BYTE   N06  Gn2  v108
 BYTE   W08
 BYTE   PAN   c_v+34
 BYTE   N03  Gn2  v060
 BYTE   W04
 BYTE   PAN   c_v+25
 BYTE   N02  Gn2  v104
 BYTE   W03
 BYTE   PAN   c_v+43
 BYTE   N02  Gn2  v040
 BYTE   W03
 BYTE   PAN   c_v-14
 BYTE   N02  Gn2  v108
 BYTE   W04
 BYTE   PAN   c_v+14
 BYTE   N01  Gn2  v044
 BYTE   W02
 BYTE   PAN   c_v+0
 BYTE   N06  Gn2  v104
 BYTE   W08
 BYTE   PAN   c_v+25
 BYTE   N03  Gn2  v060
 BYTE   W04
 BYTE   PAN   c_v+14
 BYTE   N06  Gn2  v108
 BYTE   W08
 BYTE   PAN   c_v+34
 BYTE   N03  Gn2  v060
 BYTE   W04
 BYTE   PAN   c_v+25
 BYTE   N02  Gn2  v104
 BYTE   W03
 BYTE   PAN   c_v+43
 BYTE   N02  Gn2  v040
 BYTE   W04
 BYTE   VOICE   67
 BYTE   VOL   76*song2C_mvl/mxv
 BYTE   PAN   c_v-14
 BYTE   N02  Cn3  v108
 BYTE   W03
 BYTE   PAN   c_v+14
 BYTE   N01  Cn3  v044
 BYTE   W03
 BYTE   PAN   c_v+0
 BYTE   N06  Cn3  v104
 BYTE   W07
// 065   ----------------------------------------
Label_4_0142FA7E:
 BYTE   PAN   c_v+25
 BYTE   N03  Cn3  v060
 BYTE   W05
 BYTE   PAN   c_v+14
 BYTE   N06  Cn3  v108
 BYTE   W07
 BYTE   PAN   c_v+34
 BYTE   N03  Cn3  v060
 BYTE   W05
 BYTE   PAN   c_v+25
 BYTE   N02  Cn3  v104
 BYTE   W03
 BYTE   PAN   c_v+43
 BYTE   N02  Cn3  v040
 BYTE   W03
 BYTE   PAN   c_v-14
 BYTE   N02  Cn3  v108
 BYTE   W03
 BYTE   PAN   c_v+14
 BYTE   N01  Cn3  v044
 BYTE   W03
 BYTE   PAN   c_v+0
 BYTE   N06  Cn3  v104
 BYTE   W07
 BYTE   PAN   c_v+25
 BYTE   N03  Cn3  v060
 BYTE   W05
 BYTE   PAN   c_v+14
 BYTE   N06  Cn3  v108
 BYTE   W07
 BYTE   PAN   c_v+34
 BYTE   N03  Cn3  v060
 BYTE   W05
 BYTE   PAN   c_v+25
 BYTE   N02  Cn3  v104
 BYTE   W03
 BYTE   PAN   c_v+43
 BYTE   N02  Cn3  v040
 BYTE   W03
 BYTE   PAN   c_v-14
 BYTE   N02  Cn3  v108
 BYTE   W03
 BYTE   PAN   c_v+14
 BYTE   N01  Cn3  v044
 BYTE   W03
 BYTE   PAN   c_v+0
 BYTE   N06  Cn3  v104
 BYTE   W07
 BYTE   PAN   c_v+25
 BYTE   N03  Cn3  v060
 BYTE   W05
 BYTE   PAN   c_v+14
 BYTE   N06  Cn3  v108
 BYTE   W07
 BYTE   PAN   c_v+34
 BYTE   N03  Cn3  v060
 BYTE   W05
 BYTE   PAN   c_v+25
 BYTE   N02  Cn3  v104
 BYTE   W03
 BYTE   PAN   c_v+43
 BYTE   N02  Cn3  v040
 BYTE   W03
 BYTE   PAN   c_v-14
 BYTE   N02  Cn3  v108
 BYTE   W01
 BYTE   PEND 
// 066   ----------------------------------------
 BYTE   W02
 BYTE   PAN   c_v+14
 BYTE   N01  Cn3  v044
 BYTE   W03
 BYTE   PAN   c_v+0
 BYTE   N06  Cn3  v104
 BYTE   W07
 BYTE   PAN   c_v+25
 BYTE   N03  Cn3  v060
 BYTE   W05
 BYTE   PAN   c_v+14
 BYTE   N06  Cn3  v108
 BYTE   W07
 BYTE   PAN   c_v+34
 BYTE   N03  Cn3  v060
 BYTE   W05
 BYTE   PAN   c_v+25
 BYTE   N02  Cn3  v104
 BYTE   W03
 BYTE   PAN   c_v+43
 BYTE   N02  Cn3  v040
 BYTE   W03
 BYTE   PAN   c_v-14
 BYTE   N02  Cn3  v108
 BYTE   W03
 BYTE   PAN   c_v+14
 BYTE   N01  Cn3  v044
 BYTE   W03
 BYTE   PAN   c_v+0
 BYTE   N06  Cn3  v104
 BYTE   W07
 BYTE   PAN   c_v+25
 BYTE   N03  Cn3  v060
 BYTE   W05
 BYTE   PAN   c_v+14
 BYTE   N06  Cn3  v108
 BYTE   W07
 BYTE   PAN   c_v+34
 BYTE   N03  Cn3  v060
 BYTE   W05
 BYTE   PAN   c_v+25
 BYTE   N02  Cn3  v104
 BYTE   W03
 BYTE   PAN   c_v+43
 BYTE   N02  Cn3  v040
 BYTE   W03
 BYTE   PAN   c_v-14
 BYTE   N02  Cn3  v108
 BYTE   W03
 BYTE   PAN   c_v+14
 BYTE   N01  Cn3  v044
 BYTE   W03
 BYTE   PAN   c_v+0
 BYTE   N06  Cn3  v104
 BYTE   W07
 BYTE   PAN   c_v+25
 BYTE   N03  Cn3  v060
 BYTE   W05
 BYTE   PAN   c_v+14
 BYTE   N06  Cn3  v108
 BYTE   W07
// 067   ----------------------------------------
 BYTE   PAN   c_v+34
 BYTE   N03  Cn3  v060
 BYTE   W05
 BYTE   PAN   c_v+25
 BYTE   N02  Cn3  v104
 BYTE   W03
 BYTE   PAN   c_v+43
 BYTE   N02  Cn3  v040
 BYTE   W03
 BYTE   PAN   c_v-14
 BYTE   N02  Cn3  v108
 BYTE   W03
 BYTE   PAN   c_v+14
 BYTE   N01  Cn3  v044
 BYTE   W03
 BYTE   PAN   c_v+0
 BYTE   N06  Cn3  v104
 BYTE   W07
 BYTE   PAN   c_v+25
 BYTE   N03  Cn3  v060
 BYTE   W05
 BYTE   PAN   c_v+14
 BYTE   N06  Cn3  v108
 BYTE   W07
 BYTE   PAN   c_v+34
 BYTE   N03  Cn3  v060
 BYTE   W05
 BYTE   PAN   c_v+25
 BYTE   N02  Cn3  v104
 BYTE   W03
 BYTE   PAN   c_v+43
 BYTE   N02  Cn3  v040
 BYTE   W03
 BYTE   PAN   c_v-14
 BYTE   N02  Cn3  v108
 BYTE   W03
 BYTE   PAN   c_v+14
 BYTE   N01  Cn3  v044
 BYTE   W03
 BYTE   PAN   c_v+0
 BYTE   N06  Cn3  v104
 BYTE   W07
 BYTE   PAN   c_v+25
 BYTE   N03  Cn3  v060
 BYTE   W05
 BYTE   PAN   c_v+14
 BYTE   N06  Cn3  v108
 BYTE   W07
 BYTE   PAN   c_v+34
 BYTE   N03  Cn3  v060
 BYTE   W05
 BYTE   PAN   c_v+25
 BYTE   N02  Cn3  v104
 BYTE   W03
 BYTE   PAN   c_v+43
 BYTE   N02  Cn3  v040
 BYTE   W03
 BYTE   PAN   c_v-14
 BYTE   N02  Cn3  v108
 BYTE   W03
 BYTE   PAN   c_v+14
 BYTE   N01  Cn3  v044
 BYTE   W03
 BYTE   PAN   c_v+0
 BYTE   N06  Cn3  v104
 BYTE   W07
// 068   ----------------------------------------
 BYTE   PAN   c_v+25
 BYTE   N03  Cn3  v060
 BYTE   W05
 BYTE   PAN   c_v+14
 BYTE   N06  Cn3  v108
 BYTE   W07
 BYTE   PAN   c_v+34
 BYTE   N03  Cn3  v060
 BYTE   W05
 BYTE   PAN   c_v+25
 BYTE   N02  Cn3  v104
 BYTE   W03
 BYTE   PAN   c_v+43
 BYTE   N02  Cn3  v040
 BYTE   W03
 BYTE   PAN   c_v-14
 BYTE   N02  Cn3  v108
 BYTE   W03
 BYTE   PAN   c_v+14
 BYTE   N01  Cn3  v044
 BYTE   W03
 BYTE   PAN   c_v+0
 BYTE   N06  Cn3  v104
 BYTE   W07
 BYTE   PAN   c_v+25
 BYTE   N03  Cn3  v060
 BYTE   W05
 BYTE   PAN   c_v+14
 BYTE   N06  Cn3  v108
 BYTE   W07
 BYTE   PAN   c_v+34
 BYTE   N03  Cn3  v060
 BYTE   W05
 BYTE   PAN   c_v+25
 BYTE   N02  Cn3  v104
 BYTE   W03
 BYTE   PAN   c_v+43
 BYTE   N02  Cn3  v040
 BYTE   W03
 BYTE   PAN   c_v-14
 BYTE   N02  En3  v108
 BYTE   W03
 BYTE   PAN   c_v+14
 BYTE   N01  En3  v044
 BYTE   W03
 BYTE   PAN   c_v+0
 BYTE   N06  En3  v104
 BYTE   W07
 BYTE   PAN   c_v+25
 BYTE   N03  En3  v060
 BYTE   W05
 BYTE   PAN   c_v+14
 BYTE   N06  En3  v108
 BYTE   W07
 BYTE   PAN   c_v+34
 BYTE   N03  En3  v060
 BYTE   W05
 BYTE   PAN   c_v+25
 BYTE   N02  En3  v104
 BYTE   W03
 BYTE   PAN   c_v+43
 BYTE   N02  En3  v040
 BYTE   W03
 BYTE   PAN   c_v-14
 BYTE   N02  En3  v108
 BYTE   W01
// 069   ----------------------------------------
 BYTE   W02
 BYTE   PAN   c_v+14
 BYTE   N01  En3  v044
 BYTE   W03
 BYTE   PAN   c_v+0
 BYTE   N06  En3  v104
 BYTE   W07
 BYTE   PAN   c_v+25
 BYTE   N03  En3  v060
 BYTE   W05
 BYTE   PAN   c_v+14
 BYTE   N06  En3  v108
 BYTE   W07
 BYTE   PAN   c_v+34
 BYTE   N03  En3  v060
 BYTE   W05
 BYTE   PAN   c_v+25
 BYTE   N02  En3  v104
 BYTE   W03
 BYTE   PAN   c_v+43
 BYTE   N02  En3  v040
 BYTE   W03
 BYTE   PAN   c_v-14
 BYTE   N02  Cn3  v108
 BYTE   W03
 BYTE   PAN   c_v+14
 BYTE   N01  Cn3  v044
 BYTE   W03
 BYTE   PAN   c_v+0
 BYTE   N06  Cn3  v104
 BYTE   W07
 BYTE   PAN   c_v+25
 BYTE   N03  Cn3  v060
 BYTE   W05
 BYTE   PAN   c_v+14
 BYTE   N06  Cn3  v108
 BYTE   W07
 BYTE   PAN   c_v+34
 BYTE   N03  Cn3  v060
 BYTE   W05
 BYTE   PAN   c_v+25
 BYTE   N02  Cn3  v104
 BYTE   W03
 BYTE   PAN   c_v+43
 BYTE   N02  Cn3  v040
 BYTE   W03
 BYTE   PAN   c_v-14
 BYTE   N02  Dn3  v108
 BYTE   W03
 BYTE   PAN   c_v+14
 BYTE   N01  Dn3  v044
 BYTE   W03
 BYTE   PAN   c_v+0
 BYTE   N06  Dn3  v104
 BYTE   W07
 BYTE   PAN   c_v+25
 BYTE   N03  Dn3  v060
 BYTE   W05
 BYTE   PAN   c_v+14
 BYTE   N06  Dn3  v108
 BYTE   W07
// 070   ----------------------------------------
 BYTE   PAN   c_v+34
 BYTE   N03  Dn3  v060
 BYTE   W05
 BYTE   PAN   c_v+25
 BYTE   N02  Dn3  v104
 BYTE   W03
 BYTE   PAN   c_v+43
 BYTE   N02  Dn3  v040
 BYTE   W03
 BYTE   PAN   c_v-14
 BYTE   N02  En3  v108
 BYTE   W03
 BYTE   PAN   c_v+14
 BYTE   N01  En3  v044
 BYTE   W03
 BYTE   PAN   c_v+0
 BYTE   N06  En3  v104
 BYTE   W07
 BYTE   PAN   c_v+25
 BYTE   N03  En3  v060
 BYTE   W05
 BYTE   PAN   c_v+14
 BYTE   N06  En3  v108
 BYTE   W07
 BYTE   PAN   c_v+34
 BYTE   N03  En3  v060
 BYTE   W05
 BYTE   PAN   c_v+25
 BYTE   N02  En3  v104
 BYTE   W03
 BYTE   PAN   c_v+43
 BYTE   N02  En3  v040
 BYTE   W03
 BYTE   PAN   c_v-14
 BYTE   N02  En3  v108
 BYTE   W03
 BYTE   PAN   c_v+14
 BYTE   N01  En3  v044
 BYTE   W03
 BYTE   PAN   c_v+0
 BYTE   N06  En3  v104
 BYTE   W07
 BYTE   PAN   c_v+25
 BYTE   N03  En3  v060
 BYTE   W05
 BYTE   PAN   c_v+14
 BYTE   N06  En3  v108
 BYTE   W07
 BYTE   PAN   c_v+34
 BYTE   N03  En3  v060
 BYTE   W05
 BYTE   PAN   c_v+25
 BYTE   N02  En3  v104
 BYTE   W03
 BYTE   PAN   c_v+43
 BYTE   N02  En3  v040
 BYTE   W03
 BYTE   PAN   c_v-14
 BYTE   N02  Cn3  v108
 BYTE   W03
 BYTE   PAN   c_v+14
 BYTE   N01  Cn3  v044
 BYTE   W03
 BYTE   PAN   c_v+0
 BYTE   N06  Cn3  v104
 BYTE   W07
// 071   ----------------------------------------
 BYTE   PAN   c_v+25
 BYTE   N03  Cn3  v060
 BYTE   W05
 BYTE   PAN   c_v+14
 BYTE   N06  Cn3  v108
 BYTE   W07
 BYTE   PAN   c_v+34
 BYTE   N03  Cn3  v060
 BYTE   W05
 BYTE   PAN   c_v+25
 BYTE   N02  Cn3  v104
 BYTE   W03
 BYTE   PAN   c_v+43
 BYTE   N02  Cn3  v040
 BYTE   W03
 BYTE   PAN   c_v-14
 BYTE   N02  Dn3  v108
 BYTE   W03
 BYTE   PAN   c_v+14
 BYTE   N01  Dn3  v044
 BYTE   W03
 BYTE   PAN   c_v+0
 BYTE   N06  Dn3  v104
 BYTE   W07
 BYTE   PAN   c_v+25
 BYTE   N03  Dn3  v060
 BYTE   W05
 BYTE   PAN   c_v+14
 BYTE   N06  Dn3  v108
 BYTE   W07
 BYTE   PAN   c_v+34
 BYTE   N03  Dn3  v060
 BYTE   W05
 BYTE   PAN   c_v+25
 BYTE   N02  Dn3  v104
 BYTE   W03
 BYTE   PAN   c_v+43
 BYTE   N02  Dn3  v040
 BYTE   W03
 BYTE   PAN   c_v-14
 BYTE   N02  Dn3  v108
 BYTE   W03
 BYTE   PAN   c_v+14
 BYTE   N01  Dn3  v044
 BYTE   W03
 BYTE   PAN   c_v+0
 BYTE   N06  Dn3  v104
 BYTE   W07
 BYTE   PAN   c_v+25
 BYTE   N03  Dn3  v060
 BYTE   W05
 BYTE   PAN   c_v+14
 BYTE   N06  Dn3  v108
 BYTE   W07
 BYTE   PAN   c_v+34
 BYTE   N03  Dn3  v060
 BYTE   W05
 BYTE   PAN   c_v+25
 BYTE   N02  Dn3  v104
 BYTE   W03
 BYTE   PAN   c_v+43
 BYTE   N02  Dn3  v040
 BYTE   W03
 BYTE   PAN   c_v-14
 BYTE   N02  En3  v108
 BYTE   W01
// 072   ----------------------------------------
 BYTE   W02
 BYTE   PAN   c_v+14
 BYTE   N01  En3  v044
 BYTE   W03
 BYTE   PAN   c_v+0
 BYTE   N06  En3  v104
 BYTE   W07
 BYTE   PAN   c_v+25
 BYTE   N03  En3  v060
 BYTE   W05
 BYTE   PAN   c_v+14
 BYTE   N06  En3  v108
 BYTE   W07
 BYTE   PAN   c_v+34
 BYTE   N03  En3  v060
 BYTE   W05
 BYTE   PAN   c_v+25
 BYTE   N02  En3  v104
 BYTE   W03
 BYTE   PAN   c_v+43
 BYTE   N02  En3  v040
 BYTE   W03
 BYTE   PAN   c_v-14
 BYTE   N02  Cn3  v108
 BYTE   W03
 BYTE   PAN   c_v+14
 BYTE   N01  Cn3  v044
 BYTE   W03
 BYTE   PAN   c_v+0
 BYTE   N06  Cn3  v104
 BYTE   W07
 BYTE   PAN   c_v+25
 BYTE   N03  Cn3  v060
 BYTE   W05
 BYTE   PAN   c_v+14
 BYTE   N06  Cn3  v108
 BYTE   W07
 BYTE   PAN   c_v+34
 BYTE   N03  Cn3  v060
 BYTE   W05
 BYTE   PAN   c_v+25
 BYTE   N02  Cn3  v104
 BYTE   W03
 BYTE   PAN   c_v+43
 BYTE   N02  Cn3  v040
 BYTE   W03
 BYTE   PAN   c_v-14
 BYTE   N02  Cn3  v108
 BYTE   W03
 BYTE   PAN   c_v+14
 BYTE   N01  Cn3  v044
 BYTE   W03
 BYTE   PAN   c_v+0
 BYTE   N06  Cn3  v104
 BYTE   W07
 BYTE   PAN   c_v+25
 BYTE   N03  Cn3  v060
 BYTE   W05
 BYTE   PAN   c_v+14
 BYTE   N06  Cn3  v108
 BYTE   W07
// 073   ----------------------------------------
 BYTE   PAN   c_v+34
 BYTE   N03  Cn3  v060
 BYTE   W05
 BYTE   PAN   c_v+25
 BYTE   N02  Cn3  v104
 BYTE   W03
 BYTE   PAN   c_v+43
 BYTE   N02  Cn3  v040
 BYTE   W03
 BYTE   PAN   c_v-14
 BYTE   N02  Bn2  v108
 BYTE   W03
 BYTE   PAN   c_v+14
 BYTE   N01  Bn2  v044
 BYTE   W03
 BYTE   PAN   c_v+0
 BYTE   N06  Bn2  v104
 BYTE   W07
 BYTE   PAN   c_v+25
 BYTE   N03  Bn2  v060
 BYTE   W05
 BYTE   PAN   c_v+14
 BYTE   N06  Bn2  v108
 BYTE   W07
 BYTE   PAN   c_v+34
 BYTE   N03  Bn2  v060
 BYTE   W05
 BYTE   PAN   c_v+25
 BYTE   N02  Bn2  v104
 BYTE   W03
 BYTE   PAN   c_v+43
 BYTE   N02  Bn2  v040
 BYTE   W03
 BYTE   PAN   c_v-14
 BYTE   N02  Bn2  v108
 BYTE   W03
 BYTE   PAN   c_v+14
 BYTE   N01  Bn2  v044
 BYTE   W03
 BYTE   PAN   c_v+0
 BYTE   N06  Bn2  v104
 BYTE   W07
 BYTE   PAN   c_v+25
 BYTE   N03  Bn2  v060
 BYTE   W05
 BYTE   PAN   c_v+14
 BYTE   N06  Bn2  v108
 BYTE   W07
 BYTE   PAN   c_v+34
 BYTE   N03  Bn2  v060
 BYTE   W05
 BYTE   PAN   c_v+25
 BYTE   N02  Bn2  v104
 BYTE   W03
 BYTE   PAN   c_v+43
 BYTE   N02  Bn2  v040
 BYTE   W03
 BYTE   PAN   c_v-14
 BYTE   N02  Cn3  v108
 BYTE   W03
 BYTE   PAN   c_v+14
 BYTE   N01  Cn3  v044
 BYTE   W03
 BYTE   PAN   c_v+0
 BYTE   N06  Cn3  v104
 BYTE   W07
// 074   ----------------------------------------
 BYTE   PAN   c_v+25
 BYTE   N03  Cn3  v060
 BYTE   W05
 BYTE   PAN   c_v+14
 BYTE   N06  Cn3  v108
 BYTE   W07
 BYTE   PAN   c_v+34
 BYTE   N03  Cn3  v060
 BYTE   W05
 BYTE   PAN   c_v+25
 BYTE   N02  Cn3  v104
 BYTE   W03
 BYTE   PAN   c_v+43
 BYTE   N02  Cn3  v040
 BYTE   W03
 BYTE   PAN   c_v-14
 BYTE   N02  Dn3  v108
 BYTE   W03
 BYTE   PAN   c_v+14
 BYTE   N01  Dn3  v044
 BYTE   W03
 BYTE   PAN   c_v+0
 BYTE   N06  Dn3  v104
 BYTE   W07
 BYTE   PAN   c_v+25
 BYTE   N03  Dn3  v060
 BYTE   W05
 BYTE   PAN   c_v+14
 BYTE   N06  Dn3  v108
 BYTE   W07
 BYTE   PAN   c_v+34
 BYTE   N03  Dn3  v060
 BYTE   W05
 BYTE   PAN   c_v+25
 BYTE   N02  Dn3  v104
 BYTE   W03
 BYTE   PAN   c_v+43
 BYTE   N02  Dn3  v040
 BYTE   W03
 BYTE   PAN   c_v-14
 BYTE   N02  En3  v108
 BYTE   W03
 BYTE   PAN   c_v+14
 BYTE   N01  En3  v044
 BYTE   W03
 BYTE   PAN   c_v+0
 BYTE   N06  En3  v104
 BYTE   W07
 BYTE   PAN   c_v+25
 BYTE   N03  En3  v060
 BYTE   W05
 BYTE   PAN   c_v+14
 BYTE   N06  En3  v108
 BYTE   W07
 BYTE   PAN   c_v+34
 BYTE   N03  En2  v060
 BYTE   W05
 BYTE   PAN   c_v+25
 BYTE   N02  Dn3  v104
 BYTE   W03
 BYTE   PAN   c_v+43
 BYTE   N02  Dn3  v040
 BYTE   W03
 BYTE   PAN   c_v-14
 BYTE   N02  Cn3  v108
 BYTE   W01
// 075   ----------------------------------------
 BYTE   W02
 BYTE   PAN   c_v+14
 BYTE   N01  Cn3  v044
 BYTE   W03
 BYTE   PAN   c_v+0
 BYTE   N06  Cn3  v104
 BYTE   W07
 BYTE   PAN   c_v+25
 BYTE   N03  Cn3  v060
 BYTE   W05
 BYTE   PAN   c_v+14
 BYTE   N06  Cn3  v108
 BYTE   W07
 BYTE   PAN   c_v+34
 BYTE   N03  Cn3  v060
 BYTE   W05
 BYTE   PAN   c_v+25
 BYTE   N02  Bn2  v104
 BYTE   W03
 BYTE   PAN   c_v+43
 BYTE   N02  Bn2  v040
 BYTE   W03
 BYTE   PAN   c_v-14
 BYTE   N02  An2  v108
 BYTE   W03
 BYTE   PAN   c_v+14
 BYTE   N01  An2  v044
 BYTE   W03
 BYTE   PAN   c_v+0
 BYTE   N06  An2  v104
 BYTE   W07
 BYTE   PAN   c_v+25
 BYTE   N03  An2  v060
 BYTE   W05
 BYTE   PAN   c_v+14
 BYTE   N06  Cn3  v108
 BYTE   W07
 BYTE   PAN   c_v+34
 BYTE   N03  Cn3  v060
 BYTE   W05
 BYTE   PAN   c_v+25
 BYTE   N02  Cn3  v104
 BYTE   W03
 BYTE   PAN   c_v+43
 BYTE   N02  Cn3  v040
 BYTE   W03
 BYTE   PAN   c_v-14
 BYTE   N02  Cn3  v108
 BYTE   W03
 BYTE   PAN   c_v+14
 BYTE   N01  Cn3  v044
 BYTE   W03
 BYTE   PAN   c_v+0
 BYTE   N06  Cn3  v104
 BYTE   W07
 BYTE   PAN   c_v+25
 BYTE   N03  Cn3  v060
 BYTE   W05
 BYTE   PAN   c_v+14
 BYTE   N06  Cn3  v108
 BYTE   W07
// 076   ----------------------------------------
 BYTE   PAN   c_v+34
 BYTE   N03  Cn3  v060
 BYTE   W05
 BYTE   PAN   c_v+25
 BYTE   N02  Cn3  v104
 BYTE   W03
 BYTE   PAN   c_v+43
 BYTE   N02  Cn3  v040
 BYTE   W03
 BYTE   PAN   c_v-14
 BYTE   N02  Dn3  v108
 BYTE   W03
 BYTE   PAN   c_v+14
 BYTE   N01  Dn3  v044
 BYTE   W03
 BYTE   PAN   c_v+0
 BYTE   N06  Dn3  v104
 BYTE   W07
 BYTE   PAN   c_v+25
 BYTE   N03  Dn3  v060
 BYTE   W05
 BYTE   PAN   c_v+14
 BYTE   N06  Dn3  v108
 BYTE   W07
 BYTE   PAN   c_v+34
 BYTE   N03  Dn3  v060
 BYTE   W05
 BYTE   PAN   c_v+25
 BYTE   N02  Dn3  v104
 BYTE   W03
 BYTE   PAN   c_v+43
 BYTE   N02  Dn3  v040
 BYTE   W03
 BYTE   PAN   c_v-14
 BYTE   N02  Cn3  v108
 BYTE   W03
 BYTE   PAN   c_v+14
 BYTE   N01  Cn3  v044
 BYTE   W03
 BYTE   PAN   c_v+0
 BYTE   N06  Cn3  v104
 BYTE   W07
 BYTE   PAN   c_v+25
 BYTE   N03  Cn3  v060
 BYTE   W05
 BYTE   N02  Cn3  v108
 BYTE   W03
 BYTE   PAN   c_v+14
 BYTE   N01  Cn3  v044
 BYTE   W03
 BYTE   PAN   c_v+34
 BYTE   N06  Bn2  v112
 BYTE   W07
 BYTE   PAN   c_v+25
 BYTE   N03  Bn2  v060
 BYTE   W05
 BYTE   PAN   c_v-14
 BYTE   N02  Cn3  v108
 BYTE   W03
 BYTE   PAN   c_v+14
 BYTE   N01  Cn3  v044
 BYTE   W03
 BYTE   PAN   c_v+0
 BYTE   N06  Cn3  v104
 BYTE   W07
 BYTE   PATT
  POIN2 Label_4_0142FA7E
// 077   ----------------------------------------
 BYTE   W02
 BYTE   PAN   c_v+14
 BYTE   N01  Cn3  v044
 BYTE   W03
 BYTE   PAN   c_v+0
 BYTE   N06  Cn3  v104
 BYTE   W07
 BYTE   PAN   c_v+25
 BYTE   N03  Cn3  v060
 BYTE   W05
 BYTE   PAN   c_v+14
 BYTE   N06  Cn3  v108
 BYTE   W07
 BYTE   PAN   c_v+34
 BYTE   N03  Cn3  v060
 BYTE   W05
 BYTE   PAN   c_v+25
 BYTE   N02  Cn3  v104
 BYTE   W03
 BYTE   PAN   c_v+43
 BYTE   N02  Cn3  v040
 BYTE   W03
 BYTE   PAN   c_v-14
 BYTE   N02  An2  v108
 BYTE   W03
 BYTE   PAN   c_v+14
 BYTE   N01  An2  v044
 BYTE   W03
 BYTE   PAN   c_v+0
 BYTE   N06  An2  v104
 BYTE   W07
 BYTE   PAN   c_v+25
 BYTE   N03  An2  v060
 BYTE   W05
 BYTE   PAN   c_v+14
 BYTE   N06  An2  v108
 BYTE   W07
 BYTE   PAN   c_v+34
 BYTE   N03  An2  v060
 BYTE   W05
 BYTE   PAN   c_v+25
 BYTE   N02  An2  v104
 BYTE   W03
 BYTE   PAN   c_v+43
 BYTE   N02  An2  v040
 BYTE   W03
 BYTE   PAN   c_v-14
 BYTE   N02  An2  v108
 BYTE   W03
 BYTE   PAN   c_v+14
 BYTE   N01  An2  v044
 BYTE   W03
 BYTE   PAN   c_v+0
 BYTE   N06  An2  v104
 BYTE   W07
 BYTE   PAN   c_v+25
 BYTE   N03  An2  v060
 BYTE   W05
 BYTE   PAN   c_v+14
 BYTE   N06  An2  v108
 BYTE   W07
// 078   ----------------------------------------
 BYTE   PAN   c_v+34
 BYTE   N03  An2  v060
 BYTE   W05
 BYTE   PAN   c_v+25
 BYTE   N02  An2  v104
 BYTE   W03
 BYTE   PAN   c_v+43
 BYTE   N02  An2  v040
 BYTE   W03
 BYTE   PAN   c_v-14
 BYTE   N02  Dn3  v108
 BYTE   W03
 BYTE   PAN   c_v+14
 BYTE   N01  Dn3  v044
 BYTE   W03
 BYTE   PAN   c_v+0
 BYTE   N06  Dn3  v104
 BYTE   W07
 BYTE   PAN   c_v+25
 BYTE   N03  Dn3  v060
 BYTE   W05
 BYTE   PAN   c_v+14
 BYTE   N06  Dn3  v108
 BYTE   W07
 BYTE   PAN   c_v+34
 BYTE   N03  Dn3  v060
 BYTE   W05
 BYTE   PAN   c_v+25
 BYTE   N02  Dn3  v104
 BYTE   W03
 BYTE   PAN   c_v+43
 BYTE   N02  Dn3  v040
 BYTE   W03
 BYTE   PAN   c_v-14
 BYTE   N02  Bn2  v108
 BYTE   W03
 BYTE   PAN   c_v+14
 BYTE   N01  Bn2  v044
 BYTE   W03
 BYTE   PAN   c_v+0
 BYTE   N06  Bn2  v104
 BYTE   W07
 BYTE   PAN   c_v+25
 BYTE   N03  Bn2  v060
 BYTE   W05
 BYTE   PAN   c_v+14
 BYTE   N06  Bn2  v108
 BYTE   W07
 BYTE   PAN   c_v+34
 BYTE   N03  Bn2  v060
 BYTE   W05
 BYTE   PAN   c_v+25
 BYTE   N02  Bn2  v104
 BYTE   W03
 BYTE   PAN   c_v+43
 BYTE   N02  Bn2  v040
 BYTE   W03
 BYTE   PAN   c_v-14
 BYTE   N02  Gn2  v108
 BYTE   W03
 BYTE   PAN   c_v+14
 BYTE   N01  Gn2  v044
 BYTE   W03
 BYTE   PAN   c_v+0
 BYTE   N06  Gn2  v104
 BYTE   W07
// 079   ----------------------------------------
 BYTE   PAN   c_v+25
 BYTE   N03  Gn2  v060
 BYTE   W05
 BYTE   PAN   c_v+14
 BYTE   N06  Gn2  v108
 BYTE   W07
 BYTE   PAN   c_v+34
 BYTE   N03  Gn2  v060
 BYTE   W05
 BYTE   PAN   c_v+25
 BYTE   N02  Gn2  v104
 BYTE   W03
 BYTE   PAN   c_v+43
 BYTE   N02  Gn2  v040
 BYTE   W03
 BYTE   PAN   c_v-14
 BYTE   N02  Gn2  v108
 BYTE   W03
 BYTE   PAN   c_v+14
 BYTE   N01  Gn2  v044
 BYTE   W03
 BYTE   PAN   c_v+0
 BYTE   N06  Gn2  v104
 BYTE   W07
 BYTE   PAN   c_v+25
 BYTE   N03  Gn2  v060
 BYTE   W05
 BYTE   PAN   c_v+14
 BYTE   N06  Gn2  v108
 BYTE   W07
 BYTE   PAN   c_v+34
 BYTE   N03  Gn2  v060
 BYTE   W05
 BYTE   PAN   c_v+25
 BYTE   N02  Gn2  v104
 BYTE   W03
 BYTE   PAN   c_v+43
 BYTE   N02  Gn2  v040
 BYTE   W03
 BYTE   PAN   c_v-14
 BYTE   N02  Cn3  v108
 BYTE   W03
 BYTE   PAN   c_v+14
 BYTE   N01  Cn3  v044
 BYTE   W03
 BYTE   PAN   c_v+0
 BYTE   N06  Cn3  v104
 BYTE   W07
 BYTE   PAN   c_v+25
 BYTE   N03  Cn3  v060
 BYTE   W05
 BYTE   PAN   c_v+14
 BYTE   N06  Cn3  v108
 BYTE   W07
 BYTE   PAN   c_v+34
 BYTE   N03  Cn3  v060
 BYTE   W05
 BYTE   PAN   c_v+25
 BYTE   N02  Cn3  v104
 BYTE   W03
 BYTE   PAN   c_v+43
 BYTE   N02  Cn3  v040
 BYTE   W03
 BYTE   PAN   c_v-14
 BYTE   N02  Cn3  v108
 BYTE   W01
// 080   ----------------------------------------
 BYTE   W02
 BYTE   PAN   c_v+14
 BYTE   N01  Cn3  v044
 BYTE   W03
 BYTE   PAN   c_v+0
 BYTE   N06  Cn3  v104
 BYTE   W07
 BYTE   PAN   c_v+25
 BYTE   N03  Cn3  v060
 BYTE   W05
 BYTE   PAN   c_v+14
 BYTE   N06  Cn3  v108
 BYTE   W07
 BYTE   PAN   c_v+34
 BYTE   N03  Cn3  v060
 BYTE   W05
 BYTE   PAN   c_v+25
 BYTE   N02  Cn3  v104
 BYTE   W03
 BYTE   PAN   c_v+43
 BYTE   N02  Cn3  v040
 BYTE   W03
 BYTE   PAN   c_v-14
 BYTE   N02  An2  v108
 BYTE   W03
 BYTE   PAN   c_v+14
 BYTE   N01  An2  v044
 BYTE   W03
 BYTE   PAN   c_v+0
 BYTE   N06  An2  v104
 BYTE   W07
 BYTE   PAN   c_v+25
 BYTE   N03  An2  v060
 BYTE   W05
 BYTE   PAN   c_v+14
 BYTE   N06  An2  v108
 BYTE   W07
 BYTE   PAN   c_v+34
 BYTE   N03  An2  v060
 BYTE   W05
 BYTE   PAN   c_v+25
 BYTE   N02  An2  v104
 BYTE   W03
 BYTE   PAN   c_v+43
 BYTE   N02  An2  v040
 BYTE   W03
 BYTE   PAN   c_v-14
 BYTE   N02  Dn3  v108
 BYTE   W03
 BYTE   PAN   c_v+14
 BYTE   N01  Dn3  v044
 BYTE   W03
 BYTE   PAN   c_v+0
 BYTE   N06  Dn3  v104
 BYTE   W07
 BYTE   PAN   c_v+25
 BYTE   N03  Dn3  v060
 BYTE   W05
 BYTE   PAN   c_v+14
 BYTE   N06  Dn3  v108
 BYTE   W07
// 081   ----------------------------------------
 BYTE   PAN   c_v+34
 BYTE   N03  Dn3  v060
 BYTE   W05
 BYTE   PAN   c_v+25
 BYTE   N02  Dn3  v104
 BYTE   W03
 BYTE   PAN   c_v+43
 BYTE   N02  Dn3  v040
 BYTE   W03
 BYTE   PAN   c_v-14
 BYTE   N02  Cn3  v108
 BYTE   W03
 BYTE   PAN   c_v+14
 BYTE   N01  Cn3  v044
 BYTE   W03
 BYTE   PAN   c_v+0
 BYTE   N06  Cn3  v104
 BYTE   W07
 BYTE   PAN   c_v+25
 BYTE   N03  Cn3  v060
 BYTE   W05
 BYTE   PAN   c_v+14
 BYTE   N06  Cn3  v108
 BYTE   W07
 BYTE   PAN   c_v+34
 BYTE   N03  Cn3  v060
 BYTE   W05
 BYTE   PAN   c_v+25
 BYTE   N02  Cn3  v104
 BYTE   W03
 BYTE   PAN   c_v+43
 BYTE   N02  Cn3  v040
 BYTE   W03
 BYTE   PAN   c_v-14
 BYTE   N02  Cn3  v108
 BYTE   W03
 BYTE   PAN   c_v+14
 BYTE   N01  Cn3  v044
 BYTE   W03
 BYTE   PAN   c_v+0
 BYTE   N06  Cn3  v104
 BYTE   W07
 BYTE   PAN   c_v+25
 BYTE   N03  Cn3  v060
 BYTE   W05
 BYTE   PAN   c_v+14
 BYTE   N06  Cn3  v108
 BYTE   W07
 BYTE   PAN   c_v+34
 BYTE   N03  Cn3  v060
 BYTE   W05
 BYTE   PAN   c_v+25
 BYTE   N02  Cn3  v104
 BYTE   W03
 BYTE   PAN   c_v+43
 BYTE   N02  Cn3  v040
 BYTE   W03
 BYTE   PAN   c_v-14
 BYTE   N02  Cn3  v108
 BYTE   W03
 BYTE   PAN   c_v+14
 BYTE   N01  Cn3  v044
 BYTE   W03
 BYTE   PAN   c_v+0
 BYTE   N06  Cn3  v104
 BYTE   W07
// 082   ----------------------------------------
 BYTE   PAN   c_v+25
 BYTE   N03  Cn3  v060
 BYTE   W05
 BYTE   PAN   c_v+14
 BYTE   N06  Cn3  v108
 BYTE   W07
 BYTE   PAN   c_v+34
 BYTE   N03  Cn3  v060
 BYTE   W05
 BYTE   PAN   c_v+25
 BYTE   N02  Cn3  v104
 BYTE   W03
 BYTE   PAN   c_v+43
 BYTE   N02  Cn3  v040
 BYTE   W03
 BYTE   PAN   c_v-14
 BYTE   N02  Dn3  v108
 BYTE   W03
 BYTE   PAN   c_v+14
 BYTE   N01  Dn3  v044
 BYTE   W03
 BYTE   PAN   c_v+0
 BYTE   N06  Dn3  v104
 BYTE   W07
 BYTE   PAN   c_v+25
 BYTE   N03  Dn3  v060
 BYTE   W05
 BYTE   PAN   c_v+14
 BYTE   N06  Dn3  v108
 BYTE   W07
 BYTE   PAN   c_v+34
 BYTE   N03  Dn3  v060
 BYTE   W05
 BYTE   PAN   c_v+25
 BYTE   N02  Dn3  v104
 BYTE   W03
 BYTE   PAN   c_v+43
 BYTE   N02  Dn3  v040
 BYTE   W03
 BYTE   PAN   c_v-14
 BYTE   N02  Bn2  v108
 BYTE   W03
 BYTE   PAN   c_v+14
 BYTE   N01  Bn2  v044
 BYTE   W03
 BYTE   PAN   c_v+0
 BYTE   N06  Bn2  v104
 BYTE   W07
 BYTE   PAN   c_v+25
 BYTE   N03  Bn2  v060
 BYTE   W05
 BYTE   PAN   c_v+14
 BYTE   N06  Bn2  v108
 BYTE   W07
 BYTE   PAN   c_v+34
 BYTE   N03  Bn2  v060
 BYTE   W05
 BYTE   PAN   c_v+25
 BYTE   N02  Bn2  v104
 BYTE   W03
 BYTE   PAN   c_v+43
 BYTE   N02  Bn2  v040
 BYTE   W03
 BYTE   PAN   c_v-14
 BYTE   N02  En3  v108
 BYTE   W01
// 083   ----------------------------------------
 BYTE   W02
 BYTE   PAN   c_v+14
 BYTE   N01  En3  v044
 BYTE   W03
 BYTE   PAN   c_v+0
 BYTE   N06  En3  v104
 BYTE   W07
 BYTE   PAN   c_v+25
 BYTE   N03  En3  v060
 BYTE   W05
 BYTE   PAN   c_v+14
 BYTE   N06  En3  v108
 BYTE   W07
 BYTE   PAN   c_v+34
 BYTE   N03  En2  v060
 BYTE   W05
 BYTE   PAN   c_v+25
 BYTE   N02  Dn3  v104
 BYTE   W03
 BYTE   PAN   c_v+43
 BYTE   N02  Dn3  v040
 BYTE   W03
 BYTE   PAN   c_v-14
 BYTE   N02  Cn3  v108
 BYTE   W03
 BYTE   PAN   c_v+14
 BYTE   N01  Cn3  v044
 BYTE   W03
 BYTE   PAN   c_v+0
 BYTE   N06  Cn3  v104
 BYTE   W07
 BYTE   PAN   c_v+25
 BYTE   N03  Cn3  v060
 BYTE   W05
 BYTE   PAN   c_v+14
 BYTE   N06  Cn3  v108
 BYTE   W07
 BYTE   PAN   c_v+34
 BYTE   N03  Cn3  v060
 BYTE   W05
 BYTE   PAN   c_v+25
 BYTE   N02  Cn3  v104
 BYTE   W03
 BYTE   PAN   c_v+43
 BYTE   N02  Cn3  v040
 BYTE   W03
 BYTE   PAN   c_v-14
 BYTE   N02  Cn3  v108
 BYTE   W03
 BYTE   PAN   c_v+14
 BYTE   N01  Cn3  v044
 BYTE   W03
 BYTE   PAN   c_v+0
 BYTE   N06  Cn3  v104
 BYTE   W07
 BYTE   PAN   c_v+25
 BYTE   N03  Cn3  v060
 BYTE   W05
 BYTE   PAN   c_v+14
 BYTE   N06  Dn3  v108
 BYTE   W07
// 084   ----------------------------------------
 BYTE   PAN   c_v+34
 BYTE   N03  Dn3  v060
 BYTE   W05
 BYTE   PAN   c_v+25
 BYTE   N02  Dn3  v104
 BYTE   W03
 BYTE   PAN   c_v+43
 BYTE   N02  Dn3  v040
 BYTE   W03
 BYTE   PAN   c_v-14
 BYTE   N02  En3  v108
 BYTE   W03
 BYTE   PAN   c_v+14
 BYTE   N01  En3  v044
 BYTE   W03
 BYTE   PAN   c_v+0
 BYTE   N06  En3  v104
 BYTE   W07
 BYTE   PAN   c_v+25
 BYTE   N03  En3  v060
 BYTE   W05
 BYTE   PAN   c_v+14
 BYTE   N06  En3  v108
 BYTE   W07
 BYTE   PAN   c_v+34
 BYTE   N03  En3  v060
 BYTE   W05
 BYTE   PAN   c_v+25
 BYTE   N02  En3  v104
 BYTE   W03
 BYTE   PAN   c_v+43
 BYTE   N02  En3  v040
 BYTE   W03
 BYTE   PAN   c_v-14
 BYTE   N02  En3  v108
 BYTE   W03
 BYTE   PAN   c_v+14
 BYTE   N01  En3  v044
 BYTE   W03
 BYTE   PAN   c_v+0
 BYTE   N06  En3  v104
 BYTE   W07
 BYTE   PAN   c_v+25
 BYTE   N03  En3  v060
 BYTE   W05
 BYTE   PAN   c_v+14
 BYTE   N06  En3  v108
 BYTE   W07
 BYTE   PAN   c_v+34
 BYTE   N03  En3  v060
 BYTE   W05
 BYTE   PAN   c_v+25
 BYTE   N02  En3  v104
 BYTE   W03
 BYTE   PAN   c_v+43
 BYTE   N02  En3  v040
 BYTE   W03
 BYTE   PAN   c_v-14
 BYTE   N02  An2  v108
 BYTE   W03
 BYTE   PAN   c_v+14
 BYTE   N01  An2  v044
 BYTE   W03
 BYTE   PAN   c_v+0
 BYTE   N06  An2  v104
 BYTE   W07
// 085   ----------------------------------------
 BYTE   PAN   c_v+25
 BYTE   N03  An2  v060
 BYTE   W05
 BYTE   PAN   c_v+14
 BYTE   N06  An2  v108
 BYTE   W07
 BYTE   PAN   c_v+34
 BYTE   N03  An2  v060
 BYTE   W05
 BYTE   PAN   c_v+25
 BYTE   N02  An2  v104
 BYTE   W03
 BYTE   PAN   c_v+43
 BYTE   N02  An2  v040
 BYTE   W03
 BYTE   PAN   c_v-14
 BYTE   N02  Dn3  v108
 BYTE   W03
 BYTE   PAN   c_v+14
 BYTE   N01  Dn3  v044
 BYTE   W03
 BYTE   PAN   c_v+0
 BYTE   N06  Dn3  v104
 BYTE   W07
 BYTE   PAN   c_v+25
 BYTE   N03  Dn3  v060
 BYTE   W05
 BYTE   PAN   c_v+14
 BYTE   N06  Dn3  v108
 BYTE   W07
 BYTE   PAN   c_v+34
 BYTE   N03  Dn3  v060
 BYTE   W05
 BYTE   PAN   c_v+25
 BYTE   N02  Dn3  v104
 BYTE   W03
 BYTE   PAN   c_v+43
 BYTE   N02  Dn3  v040
 BYTE   W03
 BYTE   PAN   c_v-14
 BYTE   N02  Bn2  v108
 BYTE   W03
 BYTE   PAN   c_v+14
 BYTE   N01  Bn2  v044
 BYTE   W03
 BYTE   PAN   c_v+0
 BYTE   N06  Bn2  v104
 BYTE   W07
 BYTE   PAN   c_v+25
 BYTE   N03  Bn2  v060
 BYTE   W05
 BYTE   PAN   c_v+14
 BYTE   N06  Bn2  v108
 BYTE   W07
 BYTE   PAN   c_v+34
 BYTE   N03  Bn2  v060
 BYTE   W05
 BYTE   PAN   c_v+25
 BYTE   N02  Bn2  v104
 BYTE   W03
 BYTE   PAN   c_v+43
 BYTE   N02  Bn2  v040
 BYTE   W03
 BYTE   PAN   c_v-14
 BYTE   N02  En3  v108
 BYTE   W01
// 086   ----------------------------------------
 BYTE   W02
 BYTE   PAN   c_v+14
 BYTE   N01  En3  v044
 BYTE   W03
 BYTE   PAN   c_v+0
 BYTE   N06  En3  v104
 BYTE   W07
 BYTE   PAN   c_v+25
 BYTE   N03  En3  v060
 BYTE   W05
 BYTE   PAN   c_v+14
 BYTE   N06  En3  v108
 BYTE   W07
 BYTE   PAN   c_v+34
 BYTE   N03  En2  v060
 BYTE   W05
 BYTE   PAN   c_v+25
 BYTE   N02  Dn3  v104
 BYTE   W03
 BYTE   PAN   c_v+43
 BYTE   N02  Dn3  v040
 BYTE   W03
 BYTE   PAN   c_v-14
 BYTE   N02  Cn3  v108
 BYTE   W03
 BYTE   PAN   c_v+14
 BYTE   N01  Cn3  v044
 BYTE   W03
 BYTE   PAN   c_v+0
 BYTE   N06  Cn3  v104
 BYTE   W07
 BYTE   PAN   c_v+25
 BYTE   N03  Cn3  v060
 BYTE   W05
 BYTE   PAN   c_v+14
 BYTE   N06  Cn3  v108
 BYTE   W07
 BYTE   PAN   c_v+34
 BYTE   N03  Cn3  v060
 BYTE   W05
 BYTE   PAN   c_v+25
 BYTE   N02  Cn3  v104
 BYTE   W03
 BYTE   PAN   c_v+43
 BYTE   N02  Cn3  v040
 BYTE   W03
 BYTE   PAN   c_v-14
 BYTE   N02  Cn3  v108
 BYTE   W03
 BYTE   PAN   c_v+14
 BYTE   N01  Cn3  v044
 BYTE   W03
 BYTE   PAN   c_v+0
 BYTE   N06  Cn3  v104
 BYTE   W07
 BYTE   PAN   c_v+25
 BYTE   N03  Cn3  v060
 BYTE   W05
 BYTE   PAN   c_v+14
 BYTE   N06  Cn3  v108
 BYTE   W07
// 087   ----------------------------------------
 BYTE   PAN   c_v+34
 BYTE   N03  Cn3  v060
 BYTE   W05
 BYTE   PAN   c_v+25
 BYTE   N02  Cn3  v104
 BYTE   W03
 BYTE   PAN   c_v+43
 BYTE   N02  Cn3  v040
 BYTE   W03
 BYTE   PAN   c_v-14
 BYTE   N02  Cn3  v108
 BYTE   W03
 BYTE   PAN   c_v+14
 BYTE   N01  Cn3  v044
 BYTE   W03
 BYTE   PAN   c_v+0
 BYTE   N06  Cn3  v104
 BYTE   W07
 BYTE   PAN   c_v+25
 BYTE   N03  Cn3  v060
 BYTE   W05
 BYTE   PAN   c_v+14
 BYTE   N06  Cn3  v108
 BYTE   W07
 BYTE   PAN   c_v+34
 BYTE   N03  Cn3  v060
 BYTE   W05
 BYTE   PAN   c_v+25
 BYTE   N02  Cn3  v104
 BYTE   W03
 BYTE   PAN   c_v+43
 BYTE   N02  Cn3  v040
 BYTE   W03
 BYTE   PAN   c_v-14
 BYTE   N02  Bn2  v108
 BYTE   W03
 BYTE   PAN   c_v+14
 BYTE   N01  Bn2  v044
 BYTE   W03
 BYTE   PAN   c_v+0
 BYTE   N06  Bn2  v104
 BYTE   W07
 BYTE   PAN   c_v+25
 BYTE   N03  Bn2  v060
 BYTE   W05
 BYTE   N02  Bn2  v108
 BYTE   W03
 BYTE   PAN   c_v+14
 BYTE   N01  Bn2  v044
 BYTE   W03
 BYTE   PAN   c_v+34
 BYTE   N06  Bn2  v112
 BYTE   W07
 BYTE   PAN   c_v+25
 BYTE   N03  Bn2  v060
 BYTE   W05
 BYTE   PAN   c_v-14
 BYTE   VOL   70*song2C_mvl/mxv
 BYTE   N04  En3  v104
 BYTE   W05
 BYTE   PAN   c_v+14
 BYTE   N02  En3  v060
 BYTE   W04
 BYTE   PAN   c_v+34
 BYTE   N02  En3  v044
 BYTE   W03
 BYTE   PAN   c_v+0
 BYTE   N04  En3  v104
 BYTE   W01
// 088   ----------------------------------------
 BYTE   W04
 BYTE   PAN   c_v+25
 BYTE   N02  En3  v060
 BYTE   W04
 BYTE   PAN   c_v+43
 BYTE   N02  En3  v044
 BYTE   W03
 BYTE   PAN   c_v+14
 BYTE   N04  En3  v104
 BYTE   W05
 BYTE   PAN   c_v+34
 BYTE   N02  En3  v060
 BYTE   W04
 BYTE   PAN   c_v+49
 BYTE   N02  En3  v044
 BYTE   W03
 BYTE   PAN   c_v+0
 BYTE   N04  Fn3  v104
 BYTE   W05
 BYTE   PAN   c_v+25
 BYTE   N02  Fn3  v060
 BYTE   W04
 BYTE   PAN   c_v+43
 BYTE   N02  Fn3  v044
 BYTE   W03
 BYTE   PAN   c_v+14
 BYTE   N04  Fn3  v104
 BYTE   W05
 BYTE   PAN   c_v+34
 BYTE   N02  Fn3  v060
 BYTE   W04
 BYTE   PAN   c_v+49
 BYTE   N02  Fn3  v044
 BYTE   W03
 BYTE   PAN   c_v+25
 BYTE   N04  Fn3  v104
 BYTE   W05
 BYTE   PAN   c_v+43
 BYTE   N02  Fn3  v060
 BYTE   W04
 BYTE   PAN   c_v+54
 BYTE   N02  Fn3  v044
 BYTE   W03
 BYTE   PAN   c_v+14
 BYTE   N04  En3  v104
 BYTE   W05
 BYTE   PAN   c_v+25
 BYTE   N02  En3  v052
 BYTE   W04
 BYTE   PAN   c_v+34
 BYTE   N02  En3  v044
 BYTE   W03
 BYTE   PAN   c_v+14
 BYTE   Fs4
 BYTE   N05  Gn2  v028
 BYTE   W01
 BYTE   PAN   c_v+15
 BYTE   W03
 BYTE   Gs4
 BYTE   W02
 BYTE   N05  Fn2  v032
 BYTE   W01
 BYTE   PAN   c_v+17
 BYTE   W03
 BYTE   As4
 BYTE   W02
 BYTE   N05  Dn2  v040
 BYTE   W01
 BYTE   PAN   c_v+19
 BYTE   W03
 BYTE   Cn5
 BYTE   W02
 BYTE   N05  En2  v044
 BYTE   W01
 BYTE   PAN   c_v+21
 BYTE   W03
 BYTE   Dn5
 BYTE   W02
 BYTE   N68  Cn2  v052
 BYTE   W01
// 089   ----------------------------------------
 BYTE   PAN   c_v+23
 BYTE   W03
 BYTE   En5
 BYTE   W03
 BYTE   Fn5
 BYTE   W03
 BYTE   Fs5
 BYTE   W03
 BYTE   Gn5
 BYTE   W03
 BYTE   Gs5
 BYTE   W03
 BYTE   An5
 BYTE   W03
 BYTE   As5
 BYTE   W03
 BYTE   Bn5
 BYTE   W03
 BYTE   Cn6
 BYTE   W03
 BYTE   Cs6
 BYTE   W03
 BYTE   Dn6
 BYTE   W36
 BYTE   W01
 BYTE   FINE

//**************** Track 6 (Midi-Chn.5) ****************//

song2C_006:
// 000   ----------------------------------------
 BYTE   KEYSH   song2C_key+0
 BYTE   W06
 BYTE   VOICE   41
 BYTE   VOL   46*song2C_mvl/mxv
 BYTE   PAN   c_v+49
 BYTE   W01
 BYTE   N03  As2  v108
 BYTE   W04
 BYTE   Dn3  v096
 BYTE   W04
 BYTE   Fn3  v104
 BYTE   W04
 BYTE   N11  As3  v108
 BYTE   W24
 BYTE   N03  As2
 BYTE   W04
 BYTE   Dn3  v096
 BYTE   W04
 BYTE   Fn3  v104
 BYTE   W04
 BYTE   N10  As3  v108
 BYTE   W18
 BYTE   N05  Dn3
 BYTE   W06
 BYTE   As2  v096
 BYTE   W06
 BYTE   Dn3  v104
 BYTE   W06
 BYTE   N11  Fn3  v108
 BYTE   W05
// 001   ----------------------------------------
 BYTE   W13
 BYTE   N05  Dn3
 BYTE   W06
 BYTE   As2  v096
 BYTE   W06
 BYTE   Dn3  v104
 BYTE   W06
 BYTE   N68  Fn3  v108
 BYTE   W64
 BYTE   W01
// 002   ----------------------------------------
 BYTE   W06
 BYTE   VOICE   33
 BYTE   VOL   72*song2C_mvl/mxv
 BYTE   PAN   c_v-43
 BYTE   N11  As2
 BYTE   W12
 BYTE   As2  v104
 BYTE   W12
 BYTE   N11
 BYTE   W12
 BYTE   N11
 BYTE   W12
 BYTE   As2  v108
 BYTE   W12
 BYTE   As2  v104
 BYTE   W12
 BYTE   N11
 BYTE   W12
 BYTE   N11
 BYTE   W06
// 003   ----------------------------------------
Label_5_01430718:
 BYTE   W06
 BYTE   N11  As2  v108
 BYTE   W12
 BYTE   As2  v104
 BYTE   W12
 BYTE   N11
 BYTE   W12
 BYTE   N11
 BYTE   W12
 BYTE   As2  v108
 BYTE   W12
 BYTE   As2  v104
 BYTE   W12
 BYTE   N11
 BYTE   W12
 BYTE   N11
 BYTE   W06
 BYTE   PEND 
 BYTE   PATT
  POIN2 Label_5_01430718
 BYTE   PATT
  POIN2 Label_5_01430718
 BYTE   PATT
  POIN2 Label_5_01430718
 BYTE   PATT
  POIN2 Label_5_01430718
 BYTE   PATT
  POIN2 Label_5_01430718
 BYTE   PATT
  POIN2 Label_5_01430718
 BYTE   PATT
  POIN2 Label_5_01430718
 BYTE   PATT
  POIN2 Label_5_01430718
 BYTE   PATT
  POIN2 Label_5_01430718
 BYTE   PATT
  POIN2 Label_5_01430718
// 004   ----------------------------------------
 BYTE   W06
 BYTE   TIE  As2  v116
 BYTE   W90
// 005   ----------------------------------------
 BYTE   W96
// 006   ----------------------------------------
 BYTE   W05
 BYTE   EOT
 BYTE   W02
 BYTE   VOICE   41
 BYTE   VOL   53*song2C_mvl/mxv
 BYTE   PAN   c_v-25
 BYTE   N05  Fn3  v104
 BYTE   W06
 BYTE   Fn3  v116
 BYTE   W12
 BYTE   Cn3  v104
 BYTE   W12
 BYTE   Ds3  v108
 BYTE   W12
 BYTE   Ds3  v096
 BYTE   W06
 BYTE   Fn3  v104
 BYTE   W06
 BYTE   Fn3  v116
 BYTE   W12
 BYTE   Cn3  v104
 BYTE   W12
 BYTE   Ds3  v108
 BYTE   W11
// 007   ----------------------------------------
 BYTE   W01
 BYTE   Ds3  v096
 BYTE   W06
 BYTE   Fn3  v104
 BYTE   W06
 BYTE   Fn3  v116
 BYTE   W12
 BYTE   Cn3  v104
 BYTE   W12
 BYTE   Ds3  v108
 BYTE   W12
 BYTE   Ds3  v096
 BYTE   W06
 BYTE   Fn3  v104
 BYTE   W06
 BYTE   Fn3  v116
 BYTE   W12
 BYTE   Cn3  v104
 BYTE   W12
 BYTE   Ds3  v108
 BYTE   W11
// 008   ----------------------------------------
 BYTE   W01
 BYTE   Ds3  v096
 BYTE   W06
 BYTE   VOICE   41
 BYTE   VOL   73*song2C_mvl/mxv
 BYTE   PAN   c_v-14
 BYTE   W88
 BYTE   W01
// 009   ----------------------------------------
 BYTE   W96
// 010   ----------------------------------------
 BYTE   W96
// 011   ----------------------------------------
 BYTE   W96
// 012   ----------------------------------------
 BYTE   W07
 BYTE   VOICE   41
 BYTE   VOL   73*song2C_mvl/mxv
 BYTE   PAN   c_v-14
 BYTE   N03  Gs2  v104
 BYTE   W04
 BYTE   Gs2  v052
 BYTE   W04
 BYTE   Gs2  v040
 BYTE   W04
 BYTE   Gs2  v028
 BYTE   W06
 BYTE   Gs2  v108
 BYTE   W04
 BYTE   Gs2  v060
 BYTE   W04
 BYTE   Gs2  v044
 BYTE   W04
 BYTE   Gs2  v032
 BYTE   W06
 BYTE   Gs2  v104
 BYTE   W04
 BYTE   Gs2  v052
 BYTE   W04
 BYTE   Gs2  v040
 BYTE   W04
 BYTE   Gn2  v104
 BYTE   W04
 BYTE   Gn2  v052
 BYTE   W04
 BYTE   Gn2  v040
 BYTE   W04
 BYTE   Gn2  v028
 BYTE   W06
 BYTE   Gn2  v108
 BYTE   W04
 BYTE   Gn2  v060
 BYTE   W04
 BYTE   Gn2  v044
 BYTE   W04
 BYTE   Gn2  v032
 BYTE   W06
 BYTE   Gn2  v104
 BYTE   W04
 BYTE   Gn2  v052
 BYTE   W01
// 013   ----------------------------------------
 BYTE   W03
 BYTE   Gn2  v040
 BYTE   W04
 BYTE   Fn2  v104
 BYTE   W04
 BYTE   Fn2  v052
 BYTE   W04
 BYTE   Fn2  v040
 BYTE   W04
 BYTE   Fn2  v028
 BYTE   W06
 BYTE   Fn2  v108
 BYTE   W04
 BYTE   Fn2  v060
 BYTE   W04
 BYTE   Fn2  v044
 BYTE   W04
 BYTE   Fn2  v032
 BYTE   W06
 BYTE   Fn2  v104
 BYTE   W04
 BYTE   Fn2  v052
 BYTE   W04
 BYTE   Fn2  v040
 BYTE   W04
 BYTE   Ds2  v104
 BYTE   W04
 BYTE   Ds2  v052
 BYTE   W04
 BYTE   Ds2  v040
 BYTE   W04
 BYTE   Ds2  v028
 BYTE   W06
 BYTE   Ds2  v108
 BYTE   W04
 BYTE   Ds2  v060
 BYTE   W04
 BYTE   Ds2  v044
 BYTE   W04
 BYTE   Ds2  v032
 BYTE   W06
 BYTE   Gs2  v104
 BYTE   W04
 BYTE   Gs2  v052
 BYTE   W01
// 014   ----------------------------------------
 BYTE   W03
 BYTE   Gs2  v040
 BYTE   W92
 BYTE   W01
// 015   ----------------------------------------
 BYTE   W96
// 016   ----------------------------------------
 BYTE   W96
// 017   ----------------------------------------
 BYTE   W96
// 018   ----------------------------------------
 BYTE   W96
// 019   ----------------------------------------
 BYTE   W96
// 020   ----------------------------------------
 BYTE   W96
// 021   ----------------------------------------
 BYTE   W96
// 022   ----------------------------------------
 BYTE   W07
 BYTE   VOICE   41
 BYTE   VOL   70*song2C_mvl/mxv
 BYTE   PAN   c_v-14
 BYTE   N02  Gn2  v104
 BYTE   W03
 BYTE   Gn2  v044
 BYTE   W03
 BYTE   Gn2  v040
 BYTE   W06
 BYTE   Gn2  v104
 BYTE   W03
 BYTE   Gn2  v044
 BYTE   W03
 BYTE   Gn2  v108
 BYTE   W03
 BYTE   Gn2  v092
 BYTE   W03
 BYTE   Gn2  v104
 BYTE   W03
 BYTE   Gn2  v040
 BYTE   W09
 BYTE   N03  Gn2  v104
 BYTE   W04
 BYTE   Gn2  v052
 BYTE   W04
 BYTE   Gn2  v040
 BYTE   W04
 BYTE   N02  Gn2  v104
 BYTE   W03
 BYTE   Gn2  v044
 BYTE   W03
 BYTE   Gn2  v040
 BYTE   W06
 BYTE   Gn2  v104
 BYTE   W03
 BYTE   Gn2  v044
 BYTE   W03
 BYTE   Gn2  v108
 BYTE   W03
 BYTE   Gn2  v092
 BYTE   W03
 BYTE   Gn2  v104
 BYTE   W03
 BYTE   Gn2  v040
 BYTE   W09
 BYTE   N03  Dn2  v104
 BYTE   W04
 BYTE   Dn2  v052
 BYTE   W01
// 023   ----------------------------------------
Label_5_014308A0:
 BYTE   W03
 BYTE   N03  Dn2  v040
 BYTE   W04
 BYTE   N02  Gn2  v104
 BYTE   W03
 BYTE   Gn2  v044
 BYTE   W03
 BYTE   Gn2  v040
 BYTE   W06
 BYTE   Gn2  v104
 BYTE   W03
 BYTE   Gn2  v044
 BYTE   W03
 BYTE   Gn2  v108
 BYTE   W03
 BYTE   Gn2  v092
 BYTE   W03
 BYTE   Gn2  v104
 BYTE   W03
 BYTE   Gn2  v040
 BYTE   W09
 BYTE   N03  Gn2  v104
 BYTE   W04
 BYTE   Gn2  v052
 BYTE   W04
 BYTE   Gn2  v040
 BYTE   W04
 BYTE   N02  Gn2  v104
 BYTE   W03
 BYTE   Gn2  v044
 BYTE   W03
 BYTE   Gn2  v040
 BYTE   W06
 BYTE   Gn2  v104
 BYTE   W03
 BYTE   Gn2  v044
 BYTE   W03
 BYTE   Gn2  v108
 BYTE   W03
 BYTE   Gn2  v092
 BYTE   W03
 BYTE   Gn2  v104
 BYTE   W03
 BYTE   Gn2  v040
 BYTE   W09
 BYTE   N03  Dn2  v104
 BYTE   W04
 BYTE   Dn2  v052
 BYTE   W01
 BYTE   PEND 
// 024   ----------------------------------------
Label_5_014308EF:
 BYTE   W03
 BYTE   N03  Dn2  v040
 BYTE   W04
 BYTE   N02  Fn2  v104
 BYTE   W03
 BYTE   Fn2  v044
 BYTE   W03
 BYTE   Fn2  v040
 BYTE   W06
 BYTE   Fn2  v104
 BYTE   W03
 BYTE   Fn2  v044
 BYTE   W03
 BYTE   Fn2  v108
 BYTE   W03
 BYTE   Fn2  v092
 BYTE   W03
 BYTE   Fn2  v104
 BYTE   W03
 BYTE   Fn2  v040
 BYTE   W09
 BYTE   N03  Fn2  v104
 BYTE   W04
 BYTE   Fn2  v052
 BYTE   W04
 BYTE   Fn2  v040
 BYTE   W04
 BYTE   N02  Fn2  v104
 BYTE   W03
 BYTE   Fn2  v044
 BYTE   W03
 BYTE   Fn2  v040
 BYTE   W06
 BYTE   Fn2  v104
 BYTE   W03
 BYTE   Fn2  v044
 BYTE   W03
 BYTE   Fn2  v108
 BYTE   W03
 BYTE   Fn2  v092
 BYTE   W03
 BYTE   Fn2  v104
 BYTE   W03
 BYTE   Fn2  v040
 BYTE   W09
 BYTE   N03  Fn2  v104
 BYTE   W04
 BYTE   Fn2  v052
 BYTE   W01
 BYTE   PEND 
// 025   ----------------------------------------
Label_5_0143093E:
 BYTE   W03
 BYTE   N03  Fn2  v040
 BYTE   W04
 BYTE   N02  Fn2  v104
 BYTE   W03
 BYTE   Fn2  v044
 BYTE   W03
 BYTE   Fn2  v040
 BYTE   W06
 BYTE   Fn2  v104
 BYTE   W03
 BYTE   Fn2  v044
 BYTE   W03
 BYTE   Fn2  v108
 BYTE   W03
 BYTE   Fn2  v092
 BYTE   W03
 BYTE   Fn2  v104
 BYTE   W03
 BYTE   Fn2  v040
 BYTE   W09
 BYTE   N03  Fn2  v104
 BYTE   W04
 BYTE   Fn2  v052
 BYTE   W04
 BYTE   Fn2  v040
 BYTE   W04
 BYTE   N02  Fn2  v104
 BYTE   W03
 BYTE   Fn2  v044
 BYTE   W03
 BYTE   Fn2  v040
 BYTE   W06
 BYTE   Fn2  v104
 BYTE   W03
 BYTE   Fn2  v044
 BYTE   W03
 BYTE   Fn2  v108
 BYTE   W03
 BYTE   Fn2  v092
 BYTE   W03
 BYTE   Fn2  v104
 BYTE   W03
 BYTE   Fn2  v040
 BYTE   W09
 BYTE   N03  Fn2  v104
 BYTE   W04
 BYTE   Fn2  v052
 BYTE   W01
 BYTE   PEND 
// 026   ----------------------------------------
Label_5_0143098D:
 BYTE   W03
 BYTE   N03  Fn2  v040
 BYTE   W04
 BYTE   N02  Gn2  v104
 BYTE   W03
 BYTE   Gn2  v044
 BYTE   W03
 BYTE   Gn2  v040
 BYTE   W06
 BYTE   Gn2  v104
 BYTE   W03
 BYTE   Gn2  v044
 BYTE   W03
 BYTE   Gn2  v108
 BYTE   W03
 BYTE   Gn2  v092
 BYTE   W03
 BYTE   Gn2  v104
 BYTE   W03
 BYTE   Gn2  v040
 BYTE   W09
 BYTE   N03  Gn2  v104
 BYTE   W04
 BYTE   Gn2  v052
 BYTE   W04
 BYTE   Gn2  v040
 BYTE   W04
 BYTE   N02  Gn2  v104
 BYTE   W03
 BYTE   Gn2  v044
 BYTE   W03
 BYTE   Gn2  v040
 BYTE   W06
 BYTE   Gn2  v104
 BYTE   W03
 BYTE   Gn2  v044
 BYTE   W03
 BYTE   Gn2  v108
 BYTE   W03
 BYTE   Gn2  v092
 BYTE   W03
 BYTE   Gn2  v104
 BYTE   W03
 BYTE   Gn2  v040
 BYTE   W09
 BYTE   N03  Dn2  v104
 BYTE   W04
 BYTE   Dn2  v052
 BYTE   W01
 BYTE   PEND 
 BYTE   PATT
  POIN2 Label_5_014308A0
 BYTE   PATT
  POIN2 Label_5_014308EF
 BYTE   PATT
  POIN2 Label_5_0143093E
 BYTE   PATT
  POIN2 Label_5_0143098D
// 027   ----------------------------------------
 BYTE   W03
 BYTE   N03  Dn2  v040
 BYTE   W05
 BYTE   VOICE   67
 BYTE   VOL   70*song2C_mvl/mxv
 BYTE   PAN   c_v+43
 BYTE   N03  Cn3  v104
 BYTE   W04
 BYTE   Cn3  v052
 BYTE   W04
 BYTE   Cn3  v040
 BYTE   W04
 BYTE   Cn3  v104
 BYTE   W04
 BYTE   Cn3  v052
 BYTE   W04
 BYTE   Cn3  v040
 BYTE   W10
 BYTE   Cn3  v104
 BYTE   W04
 BYTE   Cn3  v052
 BYTE   W04
 BYTE   Cn3  v040
 BYTE   W04
 BYTE   N02  Cn3  v104
 BYTE   W03
 BYTE   N01  Cn3  v052
 BYTE   W03
 BYTE   N03  Gs2  v104
 BYTE   W04
 BYTE   Gs2  v052
 BYTE   W04
 BYTE   Gs2  v040
 BYTE   W04
 BYTE   Gs2  v104
 BYTE   W04
 BYTE   Gs2  v052
 BYTE   W04
 BYTE   Gs2  v040
 BYTE   W10
 BYTE   Gs2  v104
 BYTE   W04
 BYTE   Gs2  v052
 BYTE   W04
 BYTE   Gs2  v040
 BYTE   W02
// 028   ----------------------------------------
 BYTE   W02
 BYTE   N02  Gs2  v104
 BYTE   W03
 BYTE   N01  Gs2  v052
 BYTE   W03
 BYTE   N03  Fn2  v104
 BYTE   W04
 BYTE   Fn2  v052
 BYTE   W04
 BYTE   Fn2  v040
 BYTE   W04
 BYTE   Fn2  v104
 BYTE   W04
 BYTE   Fn2  v052
 BYTE   W04
 BYTE   Fn2  v040
 BYTE   W10
 BYTE   Fn2  v104
 BYTE   W04
 BYTE   Fn2  v052
 BYTE   W04
 BYTE   Fn2  v040
 BYTE   W04
 BYTE   N02  Fn2  v104
 BYTE   W03
 BYTE   N01  Fn2  v052
 BYTE   W03
 BYTE   N03  Gn2  v104
 BYTE   W04
 BYTE   Gn2  v052
 BYTE   W04
 BYTE   Gn2  v040
 BYTE   W04
 BYTE   Gn2  v104
 BYTE   W04
 BYTE   Gn2  v052
 BYTE   W04
 BYTE   Gn2  v040
 BYTE   W10
 BYTE   Gn2  v104
 BYTE   W04
 BYTE   Gn2  v052
 BYTE   W04
 BYTE   Gn2  v040
 BYTE   W02
// 029   ----------------------------------------
 BYTE   W02
 BYTE   N02  Gn2  v104
 BYTE   W03
 BYTE   N01  Gn2  v052
 BYTE   W03
 BYTE   N03  Cn3  v104
 BYTE   W04
 BYTE   Cn3  v052
 BYTE   W04
 BYTE   Cn3  v040
 BYTE   W04
 BYTE   Cn3  v104
 BYTE   W04
 BYTE   Cn3  v052
 BYTE   W04
 BYTE   Cn3  v040
 BYTE   W10
 BYTE   Cn3  v104
 BYTE   W04
 BYTE   Cn3  v052
 BYTE   W04
 BYTE   Cn3  v040
 BYTE   W04
 BYTE   N02  Cn3  v104
 BYTE   W03
 BYTE   N01  Cn3  v052
 BYTE   W03
 BYTE   N03  As2  v104
 BYTE   W04
 BYTE   As2  v052
 BYTE   W04
 BYTE   As2  v040
 BYTE   W04
 BYTE   As2  v104
 BYTE   W04
 BYTE   As2  v052
 BYTE   W04
 BYTE   As2  v040
 BYTE   W10
 BYTE   As2  v104
 BYTE   W04
 BYTE   As2  v052
 BYTE   W04
 BYTE   As2  v040
 BYTE   W02
// 030   ----------------------------------------
 BYTE   W02
 BYTE   N02  As2  v104
 BYTE   W03
 BYTE   N01  As2  v052
 BYTE   W03
 BYTE   N03  Fn2  v104
 BYTE   W04
 BYTE   Fn2  v052
 BYTE   W04
 BYTE   Fn2  v040
 BYTE   W04
 BYTE   Fn2  v104
 BYTE   W04
 BYTE   Fn2  v052
 BYTE   W04
 BYTE   Fn2  v040
 BYTE   W10
 BYTE   Fn2  v104
 BYTE   W04
 BYTE   Fn2  v052
 BYTE   W04
 BYTE   Fn2  v040
 BYTE   W04
 BYTE   N02  Fn2  v104
 BYTE   W03
 BYTE   N01  Fn2  v052
 BYTE   W03
 BYTE   N03  Gn2  v104
 BYTE   W04
 BYTE   Gn2  v052
 BYTE   W04
 BYTE   Gn2  v040
 BYTE   W04
 BYTE   Gn2  v104
 BYTE   W04
 BYTE   Gn2  v052
 BYTE   W04
 BYTE   Gn2  v040
 BYTE   W10
 BYTE   Gn2  v104
 BYTE   W04
 BYTE   Gn2  v052
 BYTE   W04
 BYTE   Gn2  v040
 BYTE   W02
// 031   ----------------------------------------
 BYTE   W02
 BYTE   N02  Gn2  v104
 BYTE   W03
 BYTE   N01  Gn2  v052
 BYTE   W03
 BYTE   N03  As2  v104
 BYTE   W04
 BYTE   As2  v052
 BYTE   W04
 BYTE   As2  v040
 BYTE   W04
 BYTE   As2  v104
 BYTE   W04
 BYTE   As2  v052
 BYTE   W04
 BYTE   As2  v040
 BYTE   W10
 BYTE   As2  v104
 BYTE   W04
 BYTE   As2  v052
 BYTE   W04
 BYTE   As2  v040
 BYTE   W04
 BYTE   N02  As2  v104
 BYTE   W03
 BYTE   N01  As2  v052
 BYTE   W03
 BYTE   N03  Fn2  v104
 BYTE   W04
 BYTE   Fn2  v052
 BYTE   W04
 BYTE   Fn2  v040
 BYTE   W04
 BYTE   Fn2  v104
 BYTE   W04
 BYTE   Fn2  v052
 BYTE   W04
 BYTE   Fn2  v040
 BYTE   W10
 BYTE   Fn2  v104
 BYTE   W04
 BYTE   Fn2  v052
 BYTE   W04
 BYTE   Fn2  v040
 BYTE   W02
// 032   ----------------------------------------
 BYTE   W02
 BYTE   N02  Fn2  v104
 BYTE   W03
 BYTE   N01  Fn2  v052
 BYTE   W03
 BYTE   N03  Gn2  v104
 BYTE   W04
 BYTE   Gn2  v052
 BYTE   W04
 BYTE   Gn2  v040
 BYTE   W04
 BYTE   Gn2  v104
 BYTE   W04
 BYTE   Gn2  v052
 BYTE   W04
 BYTE   Gn2  v040
 BYTE   W10
 BYTE   Gn2  v104
 BYTE   W04
 BYTE   Gn2  v052
 BYTE   W04
 BYTE   Gn2  v040
 BYTE   W04
 BYTE   N02  Gn2  v104
 BYTE   W03
 BYTE   N01  Gn2  v052
 BYTE   W03
 BYTE   N03  Gn2  v104
 BYTE   W04
 BYTE   Gn2  v052
 BYTE   W04
 BYTE   Gn2  v040
 BYTE   W04
 BYTE   Gn2  v104
 BYTE   W04
 BYTE   Gn2  v052
 BYTE   W04
 BYTE   Gn2  v040
 BYTE   W10
 BYTE   Gn2  v104
 BYTE   W04
 BYTE   Gn2  v052
 BYTE   W04
 BYTE   Gn2  v040
 BYTE   W02
// 033   ----------------------------------------
 BYTE   W02
 BYTE   N02  Gn2  v104
 BYTE   W03
 BYTE   N01  Gn2  v052
 BYTE   W03
 BYTE   VOICE   67
 BYTE   VOL   70*song2C_mvl/mxv
 BYTE   PAN   c_v-14
 BYTE   N11  Cs2  v104
 BYTE   W12
 BYTE   N03  Cs2  v108
 BYTE   W04
 BYTE   Cs2  v100
 BYTE   W04
 BYTE   N03
 BYTE   W04
 BYTE   N11  Cs2  v104
 BYTE   W12
 BYTE   N03  Cs2  v108
 BYTE   W04
 BYTE   Cs2  v100
 BYTE   W04
 BYTE   N03
 BYTE   W04
 BYTE   N11  Cn2  v104
 BYTE   W12
 BYTE   N03  Cn2  v108
 BYTE   W04
 BYTE   Cn2  v100
 BYTE   W04
 BYTE   N03
 BYTE   W04
 BYTE   N11  Cn2  v104
 BYTE   W12
 BYTE   N03  Cn2  v108
 BYTE   W04
// 034   ----------------------------------------
 BYTE   Cn2  v100
 BYTE   W04
 BYTE   N03
 BYTE   W04
 BYTE   N11  As1  v104
 BYTE   W12
 BYTE   N03  As1  v108
 BYTE   W04
 BYTE   As1  v100
 BYTE   W04
 BYTE   N03
 BYTE   W04
 BYTE   N11  As1  v104
 BYTE   W12
 BYTE   N03  As1  v108
 BYTE   W04
 BYTE   As1  v100
 BYTE   W04
 BYTE   N03
 BYTE   W04
 BYTE   N11  Cn2  v104
 BYTE   W12
 BYTE   N03  Cn2  v108
 BYTE   W04
 BYTE   Cn2  v100
 BYTE   W04
 BYTE   N03
 BYTE   W04
 BYTE   N11  Cn2  v104
 BYTE   W12
 BYTE   N03  Cn2  v108
 BYTE   W04
// 035   ----------------------------------------
 BYTE   Cn2  v100
 BYTE   W04
 BYTE   N03
 BYTE   W04
 BYTE   N11  Cs2  v104
 BYTE   W12
 BYTE   N03  Cs2  v108
 BYTE   W04
 BYTE   Cs2  v100
 BYTE   W04
 BYTE   N03
 BYTE   W04
 BYTE   N11  Cs2  v104
 BYTE   W12
 BYTE   N03  Cs2  v108
 BYTE   W04
 BYTE   Cs2  v100
 BYTE   W04
 BYTE   N03
 BYTE   W04
 BYTE   N11  Cn2  v104
 BYTE   W12
 BYTE   N03  Cn2  v108
 BYTE   W04
 BYTE   Cn2  v100
 BYTE   W04
 BYTE   N03
 BYTE   W04
 BYTE   N11  Cn2  v104
 BYTE   W12
 BYTE   N03  Cn2  v108
 BYTE   W04
// 036   ----------------------------------------
 BYTE   Cn2  v100
 BYTE   W04
 BYTE   N03
 BYTE   W04
 BYTE   N11  As1  v104
 BYTE   W12
 BYTE   N03  As1  v108
 BYTE   W04
 BYTE   As1  v100
 BYTE   W04
 BYTE   N03
 BYTE   W04
 BYTE   N11  Cn2  v104
 BYTE   W12
 BYTE   N03  Cn2  v108
 BYTE   W04
 BYTE   Cn2  v100
 BYTE   W04
 BYTE   N03
 BYTE   W04
 BYTE   N11  Cs2  v104
 BYTE   W12
 BYTE   N03  Cs2  v108
 BYTE   W04
 BYTE   Cs2  v100
 BYTE   W04
 BYTE   N03
 BYTE   W04
 BYTE   N11  Cs2  v104
 BYTE   W12
 BYTE   N03  Cs2  v108
 BYTE   W04
// 037   ----------------------------------------
 BYTE   Cs2  v100
 BYTE   W04
 BYTE   N03
 BYTE   W04
 BYTE   N11  Dn2  v104
 BYTE   W12
 BYTE   N03  Dn2  v108
 BYTE   W04
 BYTE   Dn2  v100
 BYTE   W04
 BYTE   N03
 BYTE   W04
 BYTE   N11  Dn2  v104
 BYTE   W12
 BYTE   N03  Dn2  v108
 BYTE   W04
 BYTE   Dn2  v100
 BYTE   W04
 BYTE   N03
 BYTE   W04
 BYTE   N11  Ds2  v104
 BYTE   W12
 BYTE   N03  Ds2  v108
 BYTE   W04
 BYTE   Ds2  v100
 BYTE   W04
 BYTE   N03
 BYTE   W04
 BYTE   N11  Ds2  v104
 BYTE   W12
 BYTE   N03  Ds2  v108
 BYTE   W04
// 038   ----------------------------------------
 BYTE   Ds2  v100
 BYTE   W04
 BYTE   N03
 BYTE   W04
 BYTE   N11  Ds2  v104
 BYTE   W12
 BYTE   N03  Ds2  v108
 BYTE   W04
 BYTE   Ds2  v100
 BYTE   W04
 BYTE   N03
 BYTE   W04
 BYTE   N11  Ds2  v104
 BYTE   W12
 BYTE   N03  Ds2  v108
 BYTE   W04
 BYTE   Ds2  v100
 BYTE   W04
 BYTE   N03
 BYTE   W04
 BYTE   N11  Gs2  v108
 BYTE   W18
 BYTE   N05  Gs2  v068
 BYTE   W06
 BYTE   Gs2  v080
 BYTE   W06
 BYTE   Gs2  v092
 BYTE   W06
 BYTE   Gs2  v100
 BYTE   W04
// 039   ----------------------------------------
 BYTE   W02
 BYTE   Gs2  v112
 BYTE   W06
 BYTE   Gs2  v108
 BYTE   W06
 BYTE   Ds2  v060
 BYTE   W06
 BYTE   Ds2  v068
 BYTE   W06
 BYTE   Ds2  v076
 BYTE   W06
 BYTE   Ds2  v088
 BYTE   W06
 BYTE   Ds2  v096
 BYTE   W06
 BYTE   Ds2  v108
 BYTE   W06
 BYTE   Ds2  v120
 BYTE   W06
 BYTE   N11  Gs2  v108
 BYTE   W18
 BYTE   N05  Gs2  v068
 BYTE   W06
 BYTE   Gs2  v080
 BYTE   W06
 BYTE   Gs2  v092
 BYTE   W06
 BYTE   Gs2  v100
 BYTE   W04
// 040   ----------------------------------------
 BYTE   W02
 BYTE   Gs2  v112
 BYTE   W06
 BYTE   Gs2  v108
 BYTE   W06
 BYTE   Ds2  v060
 BYTE   W06
 BYTE   Ds2  v068
 BYTE   W06
 BYTE   Ds2  v076
 BYTE   W06
 BYTE   Ds2  v088
 BYTE   W06
 BYTE   Ds2  v096
 BYTE   W06
 BYTE   Ds2  v108
 BYTE   W06
 BYTE   Ds2  v120
 BYTE   W06
 BYTE   N11  En2  v108
 BYTE   W36
 BYTE   N05
 BYTE   W04
// 041   ----------------------------------------
 BYTE   W08
 BYTE   N11  En2  v104
 BYTE   W12
 BYTE   N11
 BYTE   W12
 BYTE   N11
 BYTE   W12
 BYTE   N03  En2  v108
 BYTE   W04
 BYTE   En2  v096
 BYTE   W04
 BYTE   En2  v104
 BYTE   W05
 BYTE   VOICE   41
 BYTE   VOL   66*song2C_mvl/mxv
 BYTE   PAN   c_v-14
 BYTE   N05  En3  v108
 BYTE   W06
 BYTE   En3  v096
 BYTE   W12
 BYTE   En3  v104
 BYTE   W12
 BYTE   Dn3  v108
 BYTE   W09
// 042   ----------------------------------------
Label_5_01430D5B:
 BYTE   W03
 BYTE   N05  Dn3  v096
 BYTE   W06
 BYTE   En3  v108
 BYTE   W06
 BYTE   En3  v096
 BYTE   W12
 BYTE   En3  v104
 BYTE   W12
 BYTE   Dn3  v108
 BYTE   W12
 BYTE   Dn3  v096
 BYTE   W06
 BYTE   En3  v108
 BYTE   W06
 BYTE   En3  v096
 BYTE   W12
 BYTE   En3  v104
 BYTE   W12
 BYTE   Dn3  v108
 BYTE   W09
 BYTE   PEND 
// 043   ----------------------------------------
Label_5_01430D7C:
 BYTE   W03
 BYTE   N05  Dn3  v096
 BYTE   W06
 BYTE   En3  v108
 BYTE   W06
 BYTE   En3  v096
 BYTE   W12
 BYTE   En3  v104
 BYTE   W12
 BYTE   Dn3  v108
 BYTE   W12
 BYTE   Dn3  v096
 BYTE   W06
 BYTE   Cn3  v108
 BYTE   W06
 BYTE   Cn3  v096
 BYTE   W12
 BYTE   Cn3  v104
 BYTE   W12
 BYTE   Bn2  v108
 BYTE   W09
 BYTE   PEND 
// 044   ----------------------------------------
 BYTE   W03
 BYTE   Bn2  v096
 BYTE   W06
 BYTE   Cn3  v108
 BYTE   W06
 BYTE   Cn3  v096
 BYTE   W12
 BYTE   Cn3  v104
 BYTE   W12
 BYTE   Bn2  v108
 BYTE   W12
 BYTE   Bn2  v096
 BYTE   W06
 BYTE   Cn3  v108
 BYTE   W06
 BYTE   Cn3  v096
 BYTE   W12
 BYTE   Cn3  v104
 BYTE   W12
 BYTE   Bn2  v108
 BYTE   W09
// 045   ----------------------------------------
 BYTE   W03
 BYTE   Bn2  v096
 BYTE   W06
 BYTE   Cn3  v108
 BYTE   W06
 BYTE   Cn3  v096
 BYTE   W12
 BYTE   Cn3  v104
 BYTE   W12
 BYTE   Dn3  v108
 BYTE   W12
 BYTE   Dn3  v096
 BYTE   W06
 BYTE   En3  v108
 BYTE   W06
 BYTE   En3  v096
 BYTE   W12
 BYTE   En3  v104
 BYTE   W12
 BYTE   Dn3  v108
 BYTE   W09
 BYTE   PATT
  POIN2 Label_5_01430D5B
 BYTE   PATT
  POIN2 Label_5_01430D7C
// 046   ----------------------------------------
 BYTE   W03
 BYTE   N05  Bn2  v096
 BYTE   W06
 BYTE   Cn3  v108
 BYTE   W06
 BYTE   Cn3  v096
 BYTE   W12
 BYTE   Cn3  v104
 BYTE   W12
 BYTE   Bn2  v108
 BYTE   W12
 BYTE   Bn2  v096
 BYTE   W06
 BYTE   Cn3  v108
 BYTE   W06
 BYTE   Cn3  v096
 BYTE   W12
 BYTE   Cn3  v104
 BYTE   W12
 BYTE   Ds3  v108
 BYTE   W09
// 047   ----------------------------------------
 BYTE   W03
 BYTE   Ds3  v096
 BYTE   W06
 BYTE   Gn3  v108
 BYTE   W06
 BYTE   Gn3  v096
 BYTE   W12
 BYTE   Gn3  v104
 BYTE   W12
 BYTE   Gn3  v108
 BYTE   W12
 BYTE   Gn3  v096
 BYTE   W06
 BYTE   Cn3  v060
 BYTE   W06
 BYTE   Cn3  v064
 BYTE   W06
 BYTE   Cn3  v076
 BYTE   W06
 BYTE   Cn3  v084
 BYTE   W06
 BYTE   Cn3  v096
 BYTE   W06
 BYTE   Cn3  v104
 BYTE   W06
 BYTE   Cn3  v116
 BYTE   W03
// 048   ----------------------------------------
 BYTE   W03
 BYTE   Cn3  v124
 BYTE   W06
 BYTE   VOICE   67
 BYTE   VOL   60*song2C_mvl/mxv
 BYTE   PAN   c_v+0
 BYTE   N44  Cn2  v104
 BYTE   W48
 BYTE   Gs1
 BYTE   W36
 BYTE   W03
// 049   ----------------------------------------
 BYTE   W09
 BYTE   Fn1
 BYTE   W48
 BYTE   Fs1
 BYTE   W36
 BYTE   W03
// 050   ----------------------------------------
Label_5_01430E44:
 BYTE   W09
 BYTE   N44  Fs1  v104
 BYTE   W48
 BYTE   Dn1
 BYTE   W36
 BYTE   W03
 BYTE   PEND 
 BYTE   PATT
  POIN2 Label_5_01430E44
// 051   ----------------------------------------
 BYTE   W09
 BYTE   N44  Fs1  v104
 BYTE   W48
 BYTE   Gn1
 BYTE   W36
 BYTE   W03
// 052   ----------------------------------------
Label_5_01430E5A:
 BYTE   W09
 BYTE   N44  Cn1  v104
 BYTE   W48
 BYTE   Gn1
 BYTE   W36
 BYTE   W03
 BYTE   PEND 
 BYTE   PATT
  POIN2 Label_5_01430E5A
// 053   ----------------------------------------
 BYTE   W09
 BYTE   N44  Gs1  v104
 BYTE   W48
 BYTE   Fn1
 BYTE   W36
 BYTE   W03
// 054   ----------------------------------------
 BYTE   W09
 BYTE   Gn1
 BYTE   W48
 BYTE   N44
 BYTE   W36
 BYTE   W03
// 055   ----------------------------------------
 BYTE   W09
 BYTE   N05  Cn2
 BYTE   W06
 BYTE   N03  Cn2  v060
 BYTE   W04
 BYTE   Cn2  v044
 BYTE   W04
 BYTE   Cn2  v032
 BYTE   W32
 BYTE   W02
 BYTE   N05  Gs1  v104
 BYTE   W06
 BYTE   N03  Gs1  v060
 BYTE   W04
 BYTE   Gs1  v044
 BYTE   W04
 BYTE   Gs1  v032
 BYTE   W24
 BYTE   W01
// 056   ----------------------------------------
 BYTE   W09
 BYTE   N05  Fn1  v104
 BYTE   W06
 BYTE   N03  Fn1  v060
 BYTE   W04
 BYTE   Fn1  v044
 BYTE   W04
 BYTE   Fn1  v032
 BYTE   W32
 BYTE   W02
 BYTE   N05  Fs1  v104
 BYTE   W06
 BYTE   N03  Fs1  v060
 BYTE   W04
 BYTE   Fs1  v044
 BYTE   W04
 BYTE   Fs1  v032
 BYTE   W24
 BYTE   W01
// 057   ----------------------------------------
Label_5_01430EB3:
 BYTE   W09
 BYTE   N05  Fs1  v104
 BYTE   W06
 BYTE   N03  Fs1  v060
 BYTE   W04
 BYTE   Fs1  v044
 BYTE   W04
 BYTE   Fs1  v032
 BYTE   W32
 BYTE   W02
 BYTE   N05  Dn1  v104
 BYTE   W06
 BYTE   N03  Dn1  v060
 BYTE   W04
 BYTE   Dn1  v044
 BYTE   W04
 BYTE   Dn1  v032
 BYTE   W24
 BYTE   W01
 BYTE   PEND 
 BYTE   PATT
  POIN2 Label_5_01430EB3
// 058   ----------------------------------------
 BYTE   W09
 BYTE   N05  Fs1  v104
 BYTE   W06
 BYTE   N03  Fs1  v060
 BYTE   W04
 BYTE   Fs1  v044
 BYTE   W04
 BYTE   Fs1  v032
 BYTE   W32
 BYTE   W02
 BYTE   N05  Gn1  v104
 BYTE   W06
 BYTE   N03  Gn1  v060
 BYTE   W04
 BYTE   Gn1  v044
 BYTE   W04
 BYTE   Gn1  v032
 BYTE   W24
 BYTE   W01
// 059   ----------------------------------------
Label_5_01430EF7:
 BYTE   W09
 BYTE   N05  Cn1  v104
 BYTE   W06
 BYTE   N03  Cn1  v060
 BYTE   W04
 BYTE   Cn1  v044
 BYTE   W04
 BYTE   Cn1  v032
 BYTE   W32
 BYTE   W02
 BYTE   N05  Gn1  v104
 BYTE   W06
 BYTE   N03  Gn1  v060
 BYTE   W04
 BYTE   Gn1  v044
 BYTE   W04
 BYTE   Gn1  v032
 BYTE   W24
 BYTE   W01
 BYTE   PEND 
 BYTE   PATT
  POIN2 Label_5_01430EF7
// 060   ----------------------------------------
 BYTE   W09
 BYTE   N05  Gs1  v104
 BYTE   W06
 BYTE   N03  Gs1  v060
 BYTE   W04
 BYTE   Gs1  v044
 BYTE   W04
 BYTE   Gs1  v032
 BYTE   W32
 BYTE   W02
 BYTE   N05  Fn1  v104
 BYTE   W06
 BYTE   N03  Fn1  v060
 BYTE   W04
 BYTE   Fn1  v044
 BYTE   W04
 BYTE   Fn1  v032
 BYTE   W24
 BYTE   W01
// 061   ----------------------------------------
 BYTE   W09
 BYTE   N05  Gn1  v104
 BYTE   W06
 BYTE   N03  Gn1  v060
 BYTE   W04
 BYTE   Gn1  v044
 BYTE   W04
 BYTE   Gn1  v032
 BYTE   W32
 BYTE   W02
 BYTE   N05  Gn1  v104
 BYTE   W06
 BYTE   N03  Gn1  v060
 BYTE   W04
 BYTE   Gn1  v044
 BYTE   W04
 BYTE   Gn1  v032
 BYTE   W24
 BYTE   W01
// 062   ----------------------------------------
 BYTE   W10
 BYTE   VOICE   67
 BYTE   VOL   63*song2C_mvl/mxv
 BYTE   PAN   c_v+34
 BYTE   N05  Cn2  v116
 BYTE   W06
 BYTE   PAN   c_v+43
 BYTE   N03  Cn2  v060
 BYTE   W04
 BYTE   PAN   c_v+49
 BYTE   N03  Cn2  v052
 BYTE   W04
 BYTE   PAN   c_v+54
 BYTE   N03  Cn2  v044
 BYTE   W04
 BYTE   PAN   c_v+58
 BYTE   N03  Cn2  v040
 BYTE   W04
 BYTE   PAN   c_v+61
 BYTE   N03  Cn2  v032
 BYTE   W04
 BYTE   PAN   c_v+34
 BYTE   W22
 BYTE   N05  As1  v116
 BYTE   W06
 BYTE   PAN   c_v+43
 BYTE   N03  As1  v060
 BYTE   W04
 BYTE   PAN   c_v+49
 BYTE   N03  As1  v052
 BYTE   W04
 BYTE   PAN   c_v+54
 BYTE   N03  As1  v044
 BYTE   W04
 BYTE   PAN   c_v+58
 BYTE   N03  As1  v040
 BYTE   W04
 BYTE   PAN   c_v+61
 BYTE   N03  As1  v032
 BYTE   W04
 BYTE   PAN   c_v+34
 BYTE   W12
// 063   ----------------------------------------
Label_5_01430FAB:
 BYTE   W10
 BYTE   N05  Gs1  v116
 BYTE   W06
 BYTE   PAN   c_v+43
 BYTE   N03  Gs1  v060
 BYTE   W04
 BYTE   PAN   c_v+49
 BYTE   N03  Gs1  v052
 BYTE   W04
 BYTE   PAN   c_v+54
 BYTE   N03  Gs1  v044
 BYTE   W04
 BYTE   PAN   c_v+58
 BYTE   N03  Gs1  v040
 BYTE   W04
 BYTE   PAN   c_v+61
 BYTE   N03  Gs1  v032
 BYTE   W04
 BYTE   PAN   c_v+34
 BYTE   W22
 BYTE   N05  Gn1  v116
 BYTE   W06
 BYTE   PAN   c_v+43
 BYTE   N03  Gn1  v060
 BYTE   W04
 BYTE   PAN   c_v+49
 BYTE   N03  Gn1  v052
 BYTE   W04
 BYTE   PAN   c_v+54
 BYTE   N03  Gn1  v044
 BYTE   W04
 BYTE   PAN   c_v+58
 BYTE   N03  Gn1  v040
 BYTE   W04
 BYTE   PAN   c_v+61
 BYTE   N03  Gn1  v032
 BYTE   W04
 BYTE   PAN   c_v+34
 BYTE   W10
 BYTE   N07  Gn1  v124
 BYTE   W02
 BYTE   PEND 
// 064   ----------------------------------------
Label_5_01430FFB:
 BYTE   W06
 BYTE   PAN   c_v+49
 BYTE   N02  Gn1  v060
 BYTE   W03
 BYTE   PAN   c_v+34
 BYTE   W01
 BYTE   N05  Cn2  v116
 BYTE   W06
 BYTE   PAN   c_v+43
 BYTE   N03  Cn2  v060
 BYTE   W04
 BYTE   PAN   c_v+49
 BYTE   N03  Cn2  v052
 BYTE   W04
 BYTE   PAN   c_v+54
 BYTE   N03  Cn2  v044
 BYTE   W04
 BYTE   PAN   c_v+58
 BYTE   N03  Cn2  v040
 BYTE   W04
 BYTE   PAN   c_v+61
 BYTE   N03  Cn2  v032
 BYTE   W04
 BYTE   PAN   c_v+34
 BYTE   W22
 BYTE   N05  As1  v116
 BYTE   W06
 BYTE   PAN   c_v+43
 BYTE   N03  As1  v060
 BYTE   W04
 BYTE   PAN   c_v+49
 BYTE   N03  As1  v052
 BYTE   W04
 BYTE   PAN   c_v+54
 BYTE   N03  As1  v044
 BYTE   W04
 BYTE   PAN   c_v+58
 BYTE   N03  As1  v040
 BYTE   W04
 BYTE   PAN   c_v+61
 BYTE   N03  As1  v032
 BYTE   W04
 BYTE   PAN   c_v+34
 BYTE   W12
 BYTE   PEND 
 BYTE   PATT
  POIN2 Label_5_01430FAB
 BYTE   PATT
  POIN2 Label_5_01430FFB
 BYTE   PATT
  POIN2 Label_5_01430FAB
 BYTE   PATT
  POIN2 Label_5_01430FFB
 BYTE   PATT
  POIN2 Label_5_01430FAB
// 065   ----------------------------------------
 BYTE   W06
 BYTE   PAN   c_v+49
 BYTE   N02  Gn1  v060
 BYTE   W03
 BYTE   PAN   c_v+34
 BYTE   W01
 BYTE   VOICE   57
 BYTE   VOL   60*song2C_mvl/mxv
 BYTE   PAN   c_v-14
 BYTE   N03  Cn2  v108
 BYTE   W04
 BYTE   Cn2  v052
 BYTE   W04
 BYTE   Cn2  v040
 BYTE   W04
 BYTE   Cn2  v104
 BYTE   W04
 BYTE   Cn2  v044
 BYTE   W04
 BYTE   Cn2  v040
 BYTE   W04
 BYTE   Cn2  v108
 BYTE   W04
 BYTE   Cn2  v052
 BYTE   W04
 BYTE   Cn2  v040
 BYTE   W04
 BYTE   Cn2  v108
 BYTE   W04
 BYTE   Cn2  v052
 BYTE   W04
 BYTE   Cn2  v040
 BYTE   W04
 BYTE   Cn2  v104
 BYTE   W04
 BYTE   Cn2  v044
 BYTE   W04
 BYTE   Cn2  v040
 BYTE   W04
 BYTE   Cn2  v108
 BYTE   W04
 BYTE   Cn2  v052
 BYTE   W04
 BYTE   Cn2  v040
 BYTE   W04
 BYTE   Cn2  v108
 BYTE   W04
 BYTE   Cn2  v052
 BYTE   W04
 BYTE   Cn2  v040
 BYTE   W04
 BYTE   Cn2  v104
 BYTE   W02
// 066   ----------------------------------------
 BYTE   W02
 BYTE   Cn2  v044
 BYTE   W04
 BYTE   Cn2  v040
 BYTE   W04
 BYTE   Cn2  v108
 BYTE   W04
 BYTE   Cn2  v052
 BYTE   W04
 BYTE   Cn2  v040
 BYTE   W04
 BYTE   Cn2  v108
 BYTE   W04
 BYTE   Cn2  v052
 BYTE   W04
 BYTE   Cn2  v040
 BYTE   W04
 BYTE   Cn2  v104
 BYTE   W04
 BYTE   Cn2  v044
 BYTE   W04
 BYTE   Cn2  v040
 BYTE   W04
 BYTE   Cn2  v108
 BYTE   W04
 BYTE   Cn2  v052
 BYTE   W04
 BYTE   Cn2  v040
 BYTE   W04
 BYTE   VOICE   67
 BYTE   VOL   76*song2C_mvl/mxv
 BYTE   PAN   c_v-34
 BYTE   N03  Cn2  v108
 BYTE   W04
 BYTE   PAN   c_v-14
 BYTE   N01  Cn2  v044
 BYTE   W02
 BYTE   PAN   c_v-25
 BYTE   N07  Cn2  v104
 BYTE   W08
 BYTE   PAN   c_v+0
 BYTE   N03  Cn2  v060
 BYTE   W04
 BYTE   PAN   c_v-14
 BYTE   N07  Cn2  v108
 BYTE   W08
 BYTE   PAN   c_v+14
 BYTE   N03  Cn2  v060
 BYTE   W04
 BYTE   PAN   c_v+0
 BYTE   N02  Cn2  v104
 BYTE   W04
 BYTE   PAN   c_v+25
 BYTE   N01  Cn2  v040
 BYTE   W02
 BYTE   PAN   c_v-34
 BYTE   N03  Cn2  v108
 BYTE   W02
// 067   ----------------------------------------
 BYTE   W02
 BYTE   PAN   c_v-14
 BYTE   N01  Cn2  v044
 BYTE   W02
 BYTE   PAN   c_v-25
 BYTE   N07  Cn2  v104
 BYTE   W08
 BYTE   PAN   c_v+0
 BYTE   N03  Cn2  v060
 BYTE   W04
 BYTE   PAN   c_v-14
 BYTE   N07  Cn2  v108
 BYTE   W08
 BYTE   PAN   c_v+14
 BYTE   N03  Cn2  v060
 BYTE   W04
 BYTE   PAN   c_v+0
 BYTE   N02  Cn2  v104
 BYTE   W04
 BYTE   PAN   c_v+25
 BYTE   N01  Cn2  v040
 BYTE   W02
 BYTE   PAN   c_v-34
 BYTE   N03  Cn2  v108
 BYTE   W04
 BYTE   PAN   c_v-14
 BYTE   N01  Cn2  v044
 BYTE   W02
 BYTE   PAN   c_v-25
 BYTE   N07  Cn2  v104
 BYTE   W08
 BYTE   PAN   c_v+0
 BYTE   N03  Cn2  v060
 BYTE   W04
 BYTE   PAN   c_v-14
 BYTE   N07  Cn2  v108
 BYTE   W08
 BYTE   PAN   c_v+14
 BYTE   N03  Cn2  v060
 BYTE   W04
 BYTE   PAN   c_v+0
 BYTE   N02  Cn2  v104
 BYTE   W04
 BYTE   PAN   c_v+25
 BYTE   N01  Cn2  v040
 BYTE   W02
 BYTE   PAN   c_v-34
 BYTE   N03  Cn2  v108
 BYTE   W04
 BYTE   PAN   c_v-14
 BYTE   N01  Cn2  v044
 BYTE   W02
 BYTE   PAN   c_v-25
 BYTE   N07  Cn2  v104
 BYTE   W08
 BYTE   PAN   c_v+0
 BYTE   N03  Cn2  v060
 BYTE   W04
 BYTE   PAN   c_v-14
 BYTE   N07  Cn2  v108
 BYTE   W08
// 068   ----------------------------------------
 BYTE   PAN   c_v+14
 BYTE   N03  Cn2  v060
 BYTE   W04
 BYTE   PAN   c_v+0
 BYTE   N02  Cn2  v104
 BYTE   W04
 BYTE   PAN   c_v+25
 BYTE   N01  Cn2  v040
 BYTE   W02
 BYTE   PAN   c_v-34
 BYTE   N03  Bn1  v108
 BYTE   W04
 BYTE   PAN   c_v-14
 BYTE   N01  Bn1  v044
 BYTE   W02
 BYTE   PAN   c_v-25
 BYTE   N07  Bn1  v104
 BYTE   W08
 BYTE   PAN   c_v+0
 BYTE   N03  Bn1  v060
 BYTE   W04
 BYTE   PAN   c_v-14
 BYTE   N07  Bn1  v108
 BYTE   W08
 BYTE   PAN   c_v+14
 BYTE   N03  Bn1  v060
 BYTE   W04
 BYTE   PAN   c_v+0
 BYTE   N02  Bn1  v104
 BYTE   W04
 BYTE   PAN   c_v+25
 BYTE   N01  Bn1  v040
 BYTE   W02
 BYTE   PAN   c_v-34
 BYTE   N03  Bn1  v108
 BYTE   W04
 BYTE   PAN   c_v-14
 BYTE   N01  Bn1  v044
 BYTE   W02
 BYTE   PAN   c_v-25
 BYTE   N07  Bn1  v104
 BYTE   W08
 BYTE   PAN   c_v+0
 BYTE   N03  Bn1  v060
 BYTE   W04
 BYTE   PAN   c_v-14
 BYTE   N07  Bn1  v108
 BYTE   W08
 BYTE   PAN   c_v+14
 BYTE   N03  Bn1  v060
 BYTE   W04
 BYTE   PAN   c_v+0
 BYTE   N02  Bn1  v104
 BYTE   W04
 BYTE   PAN   c_v+25
 BYTE   N01  Bn1  v040
 BYTE   W02
 BYTE   PAN   c_v-34
 BYTE   N03  As1  v108
 BYTE   W04
 BYTE   PAN   c_v-14
 BYTE   N01  As1  v044
 BYTE   W02
 BYTE   PAN   c_v-25
 BYTE   N07  As1  v104
 BYTE   W08
// 069   ----------------------------------------
 BYTE   PAN   c_v+0
 BYTE   N03  As1  v060
 BYTE   W04
 BYTE   PAN   c_v-14
 BYTE   N07  As1  v108
 BYTE   W08
 BYTE   PAN   c_v+14
 BYTE   N03  As1  v060
 BYTE   W04
 BYTE   PAN   c_v+0
 BYTE   N02  As1  v104
 BYTE   W04
 BYTE   PAN   c_v+25
 BYTE   N01  As1  v040
 BYTE   W02
 BYTE   PAN   c_v-34
 BYTE   N03  An1  v108
 BYTE   W04
 BYTE   PAN   c_v-14
 BYTE   N01  An1  v044
 BYTE   W02
 BYTE   PAN   c_v-25
 BYTE   N07  An1  v104
 BYTE   W08
 BYTE   PAN   c_v+0
 BYTE   N03  An1  v060
 BYTE   W04
 BYTE   PAN   c_v-14
 BYTE   N07  An1  v108
 BYTE   W08
 BYTE   PAN   c_v+14
 BYTE   N03  An1  v060
 BYTE   W04
 BYTE   PAN   c_v+0
 BYTE   N02  An1  v104
 BYTE   W04
 BYTE   PAN   c_v+25
 BYTE   N01  An1  v040
 BYTE   W02
 BYTE   PAN   c_v-34
 BYTE   N03  Gs1  v108
 BYTE   W04
 BYTE   PAN   c_v-14
 BYTE   N01  Gs1  v044
 BYTE   W02
 BYTE   PAN   c_v-25
 BYTE   N07  Gs1  v104
 BYTE   W08
 BYTE   PAN   c_v+0
 BYTE   N03  Gs1  v060
 BYTE   W04
 BYTE   PAN   c_v-14
 BYTE   N07  Gs1  v108
 BYTE   W08
 BYTE   PAN   c_v+14
 BYTE   N03  Gs1  v060
 BYTE   W04
 BYTE   PAN   c_v+0
 BYTE   N02  Gs1  v104
 BYTE   W04
 BYTE   PAN   c_v+25
 BYTE   N01  Gs1  v040
 BYTE   W02
 BYTE   PAN   c_v-34
 BYTE   N03  Gn1  v108
 BYTE   W02
// 070   ----------------------------------------
 BYTE   W02
 BYTE   PAN   c_v-14
 BYTE   N01  Gn1  v044
 BYTE   W02
 BYTE   PAN   c_v-25
 BYTE   N07  Gn1  v104
 BYTE   W08
 BYTE   PAN   c_v+0
 BYTE   N03  Gn1  v060
 BYTE   W04
 BYTE   PAN   c_v-14
 BYTE   N07  Gn1  v108
 BYTE   W08
 BYTE   PAN   c_v+14
 BYTE   N03  Gn1  v060
 BYTE   W04
 BYTE   PAN   c_v+0
 BYTE   N02  Gn1  v104
 BYTE   W04
 BYTE   PAN   c_v+25
 BYTE   N01  Gn1  v040
 BYTE   W02
 BYTE   PAN   c_v-34
 BYTE   N03  Cn2  v108
 BYTE   W04
 BYTE   PAN   c_v-14
 BYTE   N01  Cn2  v044
 BYTE   W02
 BYTE   PAN   c_v-25
 BYTE   N07  Cn2  v104
 BYTE   W08
 BYTE   PAN   c_v+0
 BYTE   N03  Cn2  v060
 BYTE   W04
 BYTE   PAN   c_v-14
 BYTE   N07  Cn2  v108
 BYTE   W08
 BYTE   PAN   c_v+14
 BYTE   N03  Cn2  v060
 BYTE   W04
 BYTE   PAN   c_v+0
 BYTE   N02  Cn2  v104
 BYTE   W04
 BYTE   PAN   c_v+25
 BYTE   N01  Cn2  v040
 BYTE   W02
 BYTE   PAN   c_v-34
 BYTE   N03  Cn2  v108
 BYTE   W04
 BYTE   PAN   c_v-14
 BYTE   N01  Cn2  v044
 BYTE   W02
 BYTE   PAN   c_v-25
 BYTE   N07  Cn2  v104
 BYTE   W08
 BYTE   PAN   c_v+0
 BYTE   N03  Cn2  v060
 BYTE   W04
 BYTE   PAN   c_v-14
 BYTE   N07  Cn2  v108
 BYTE   W08
// 071   ----------------------------------------
 BYTE   PAN   c_v+14
 BYTE   N03  Cn2  v060
 BYTE   W04
 BYTE   PAN   c_v+0
 BYTE   N02  Cn2  v104
 BYTE   W04
 BYTE   PAN   c_v+25
 BYTE   N01  Cn2  v040
 BYTE   W02
 BYTE   PAN   c_v-34
 BYTE   N03  Cn2  v108
 BYTE   W04
 BYTE   PAN   c_v-14
 BYTE   N01  Cn2  v044
 BYTE   W02
 BYTE   PAN   c_v-25
 BYTE   N07  Cn2  v104
 BYTE   W08
 BYTE   PAN   c_v+0
 BYTE   N03  Cn2  v060
 BYTE   W04
 BYTE   PAN   c_v-14
 BYTE   N07  Cn2  v108
 BYTE   W08
 BYTE   PAN   c_v+14
 BYTE   N03  Cn2  v060
 BYTE   W04
 BYTE   PAN   c_v+0
 BYTE   N02  Cn2  v104
 BYTE   W04
 BYTE   PAN   c_v+25
 BYTE   N01  Cn2  v040
 BYTE   W02
 BYTE   PAN   c_v-34
 BYTE   N03  Cn2  v108
 BYTE   W04
 BYTE   PAN   c_v-14
 BYTE   N01  Cn2  v044
 BYTE   W02
 BYTE   PAN   c_v-25
 BYTE   N07  Cn2  v104
 BYTE   W08
 BYTE   PAN   c_v+0
 BYTE   N03  Cn2  v060
 BYTE   W04
 BYTE   PAN   c_v-14
 BYTE   N07  Cn2  v108
 BYTE   W08
 BYTE   PAN   c_v+14
 BYTE   N03  Cn2  v060
 BYTE   W04
 BYTE   PAN   c_v+0
 BYTE   N02  Cn2  v104
 BYTE   W04
 BYTE   PAN   c_v+25
 BYTE   N01  Cn2  v040
 BYTE   W03
 BYTE   VOICE   67
 BYTE   VOL   73*song2C_mvl/mxv
 BYTE   PAN   c_v-34
 BYTE   N03  En2  v108
 BYTE   W04
 BYTE   PAN   c_v-14
 BYTE   N01  En2  v044
 BYTE   W02
 BYTE   PAN   c_v-25
 BYTE   N07  En2  v104
 BYTE   W07
// 072   ----------------------------------------
 BYTE   W01
 BYTE   PAN   c_v+0
 BYTE   N03  En2  v060
 BYTE   W04
 BYTE   PAN   c_v-14
 BYTE   N07  En2  v108
 BYTE   W08
 BYTE   PAN   c_v+14
 BYTE   N03  En2  v060
 BYTE   W04
 BYTE   PAN   c_v+0
 BYTE   N02  En2  v104
 BYTE   W03
 BYTE   PAN   c_v+25
 BYTE   N01  En2  v040
 BYTE   W03
 BYTE   PAN   c_v-34
 BYTE   N03  En2  v108
 BYTE   W04
 BYTE   PAN   c_v-14
 BYTE   N01  En2  v044
 BYTE   W02
 BYTE   PAN   c_v-25
 BYTE   N07  En2  v104
 BYTE   W08
 BYTE   PAN   c_v+0
 BYTE   N03  En2  v060
 BYTE   W04
 BYTE   PAN   c_v-14
 BYTE   N07  En2  v108
 BYTE   W08
 BYTE   PAN   c_v+14
 BYTE   N03  En2  v060
 BYTE   W04
 BYTE   PAN   c_v+0
 BYTE   N02  En2  v104
 BYTE   W03
 BYTE   PAN   c_v+25
 BYTE   N01  En2  v040
 BYTE   W03
 BYTE   PAN   c_v-34
 BYTE   N03  Gn2  v108
 BYTE   W04
 BYTE   PAN   c_v-14
 BYTE   N01  Gn2  v044
 BYTE   W02
 BYTE   PAN   c_v-25
 BYTE   N07  Gn2  v104
 BYTE   W08
 BYTE   PAN   c_v+0
 BYTE   N03  Gn2  v060
 BYTE   W04
 BYTE   PAN   c_v-14
 BYTE   N07  Gn2  v108
 BYTE   W08
 BYTE   PAN   c_v+14
 BYTE   N03  Gn2  v060
 BYTE   W04
 BYTE   PAN   c_v+0
 BYTE   N02  Gn2  v104
 BYTE   W03
 BYTE   PAN   c_v+25
 BYTE   N01  Gn2  v040
 BYTE   W03
 BYTE   PAN   c_v-34
 BYTE   N03  Gn2  v108
 BYTE   W01
// 073   ----------------------------------------
 BYTE   W03
 BYTE   PAN   c_v-14
 BYTE   N01  Gn2  v044
 BYTE   W02
 BYTE   PAN   c_v-25
 BYTE   N07  Gn2  v104
 BYTE   W08
 BYTE   PAN   c_v+0
 BYTE   N03  Gn2  v060
 BYTE   W04
 BYTE   PAN   c_v-14
 BYTE   N07  Gn2  v108
 BYTE   W08
 BYTE   PAN   c_v+14
 BYTE   N03  Gn2  v060
 BYTE   W04
 BYTE   PAN   c_v+0
 BYTE   N02  Gn2  v104
 BYTE   W03
 BYTE   PAN   c_v+25
 BYTE   N01  Gn2  v040
 BYTE   W03
 BYTE   PAN   c_v-34
 BYTE   N03  En2  v108
 BYTE   W04
 BYTE   PAN   c_v-14
 BYTE   N01  En2  v044
 BYTE   W02
 BYTE   PAN   c_v-25
 BYTE   N07  En2  v104
 BYTE   W08
 BYTE   PAN   c_v+0
 BYTE   N03  En2  v060
 BYTE   W04
 BYTE   PAN   c_v-14
 BYTE   N07  En2  v108
 BYTE   W08
 BYTE   PAN   c_v+14
 BYTE   N03  En2  v060
 BYTE   W04
 BYTE   PAN   c_v+0
 BYTE   N02  En2  v104
 BYTE   W03
 BYTE   PAN   c_v+25
 BYTE   N01  En2  v040
 BYTE   W03
 BYTE   PAN   c_v-34
 BYTE   N03  En2  v108
 BYTE   W04
 BYTE   PAN   c_v-14
 BYTE   N01  En2  v044
 BYTE   W02
 BYTE   PAN   c_v-25
 BYTE   N07  En2  v104
 BYTE   W08
 BYTE   PAN   c_v+0
 BYTE   N03  En2  v060
 BYTE   W04
 BYTE   PAN   c_v-14
 BYTE   N07  En2  v108
 BYTE   W07
// 074   ----------------------------------------
 BYTE   W01
 BYTE   PAN   c_v+14
 BYTE   N03  En2  v060
 BYTE   W04
 BYTE   PAN   c_v+0
 BYTE   N02  En2  v104
 BYTE   W03
 BYTE   PAN   c_v+25
 BYTE   N01  En2  v040
 BYTE   W03
 BYTE   PAN   c_v-34
 BYTE   N03  Gn2  v108
 BYTE   W04
 BYTE   PAN   c_v-14
 BYTE   N01  Gn2  v044
 BYTE   W02
 BYTE   PAN   c_v-25
 BYTE   N07  Gn2  v104
 BYTE   W08
 BYTE   PAN   c_v+0
 BYTE   N03  Gn2  v060
 BYTE   W04
 BYTE   PAN   c_v-14
 BYTE   N07  Gn2  v108
 BYTE   W08
 BYTE   PAN   c_v+14
 BYTE   N03  Gn2  v060
 BYTE   W04
 BYTE   PAN   c_v+0
 BYTE   N02  Gn2  v104
 BYTE   W03
 BYTE   PAN   c_v+25
 BYTE   N01  Gn2  v040
 BYTE   W03
 BYTE   PAN   c_v-34
 BYTE   N03  Gn2  v108
 BYTE   W04
 BYTE   PAN   c_v-14
 BYTE   N01  Gn2  v044
 BYTE   W02
 BYTE   PAN   c_v-25
 BYTE   N07  Gn2  v104
 BYTE   W08
 BYTE   PAN   c_v+0
 BYTE   N03  Gn2  v060
 BYTE   W04
 BYTE   PAN   c_v-14
 BYTE   N07  Gn2  v108
 BYTE   W08
 BYTE   PAN   c_v+14
 BYTE   N03  Gn2  v060
 BYTE   W04
 BYTE   PAN   c_v+0
 BYTE   N02  Gn2  v104
 BYTE   W03
 BYTE   PAN   c_v+25
 BYTE   N01  Gn2  v040
 BYTE   W03
 BYTE   PAN   c_v-34
 BYTE   N03  An2  v108
 BYTE   W04
 BYTE   PAN   c_v-14
 BYTE   N01  An2  v044
 BYTE   W02
 BYTE   PAN   c_v-25
 BYTE   N07  An2  v104
 BYTE   W07
// 075   ----------------------------------------
 BYTE   W01
 BYTE   PAN   c_v+0
 BYTE   N03  An2  v060
 BYTE   W04
 BYTE   PAN   c_v-14
 BYTE   N07  An2  v108
 BYTE   W08
 BYTE   PAN   c_v+14
 BYTE   N03  An2  v060
 BYTE   W04
 BYTE   PAN   c_v+0
 BYTE   N02  An2  v104
 BYTE   W03
 BYTE   PAN   c_v+25
 BYTE   N01  An2  v040
 BYTE   W03
 BYTE   PAN   c_v-34
 BYTE   N03  An2  v108
 BYTE   W04
 BYTE   PAN   c_v-14
 BYTE   N01  An2  v044
 BYTE   W02
 BYTE   PAN   c_v-25
 BYTE   N07  An2  v104
 BYTE   W08
 BYTE   PAN   c_v+0
 BYTE   N03  An2  v060
 BYTE   W04
 BYTE   PAN   c_v-14
 BYTE   N07  An2  v108
 BYTE   W08
 BYTE   PAN   c_v+14
 BYTE   N03  An2  v060
 BYTE   W04
 BYTE   PAN   c_v+0
 BYTE   N02  An2  v104
 BYTE   W03
 BYTE   PAN   c_v+25
 BYTE   N01  An2  v040
 BYTE   W03
 BYTE   PAN   c_v-34
 BYTE   N03  Gn2  v108
 BYTE   W04
 BYTE   PAN   c_v-14
 BYTE   N01  Gn2  v044
 BYTE   W02
 BYTE   PAN   c_v-25
 BYTE   N07  Gn2  v104
 BYTE   W08
 BYTE   PAN   c_v+0
 BYTE   N03  Gn2  v060
 BYTE   W04
 BYTE   PAN   c_v-14
 BYTE   N07  Gn2  v108
 BYTE   W08
 BYTE   PAN   c_v+14
 BYTE   N03  Gn2  v060
 BYTE   W04
 BYTE   PAN   c_v+0
 BYTE   N02  Gn2  v104
 BYTE   W03
 BYTE   PAN   c_v+25
 BYTE   N01  Gn2  v040
 BYTE   W03
 BYTE   PAN   c_v-34
 BYTE   N03  Gn2  v108
 BYTE   W01
// 076   ----------------------------------------
 BYTE   W03
 BYTE   PAN   c_v-14
 BYTE   N01  Gn2  v044
 BYTE   W02
 BYTE   PAN   c_v-25
 BYTE   N07  Gn2  v104
 BYTE   W08
 BYTE   PAN   c_v+0
 BYTE   N03  Gn2  v060
 BYTE   W04
 BYTE   PAN   c_v-14
 BYTE   N07  Gn2  v108
 BYTE   W08
 BYTE   PAN   c_v+14
 BYTE   N03  Gn2  v060
 BYTE   W04
 BYTE   PAN   c_v+0
 BYTE   N02  Gn2  v104
 BYTE   W03
 BYTE   PAN   c_v+25
 BYTE   N01  Gn2  v040
 BYTE   W03
 BYTE   PAN   c_v-34
 BYTE   N03  An2  v108
 BYTE   W04
 BYTE   PAN   c_v-14
 BYTE   N01  An2  v044
 BYTE   W02
 BYTE   PAN   c_v-25
 BYTE   N07  An2  v104
 BYTE   W08
 BYTE   PAN   c_v+0
 BYTE   N03  An2  v060
 BYTE   W04
 BYTE   PAN   c_v-14
 BYTE   N07  An2  v108
 BYTE   W08
 BYTE   PAN   c_v+14
 BYTE   N03  An2  v060
 BYTE   W04
 BYTE   PAN   c_v+0
 BYTE   N02  An2  v104
 BYTE   W03
 BYTE   PAN   c_v+25
 BYTE   N01  An2  v040
 BYTE   W03
 BYTE   PAN   c_v-34
 BYTE   N03  Bn2  v108
 BYTE   W04
 BYTE   PAN   c_v-14
 BYTE   N01  Bn2  v044
 BYTE   W02
 BYTE   PAN   c_v-25
 BYTE   N07  Bn2  v104
 BYTE   W08
 BYTE   PAN   c_v+0
 BYTE   N03  Bn2  v060
 BYTE   W04
 BYTE   PAN   c_v-14
 BYTE   N07  Bn2  v108
 BYTE   W07
// 077   ----------------------------------------
 BYTE   W01
 BYTE   PAN   c_v+14
 BYTE   N03  Bn2  v060
 BYTE   W04
 BYTE   PAN   c_v+0
 BYTE   N02  Bn2  v104
 BYTE   W03
 BYTE   PAN   c_v+25
 BYTE   N01  Bn2  v040
 BYTE   W03
 BYTE   PAN   c_v-34
 BYTE   N03  Gn2  v108
 BYTE   W04
 BYTE   PAN   c_v-14
 BYTE   N01  Gn2  v044
 BYTE   W02
 BYTE   PAN   c_v-25
 BYTE   N07  Gn2  v104
 BYTE   W08
 BYTE   PAN   c_v+0
 BYTE   N03  Gn2  v060
 BYTE   W04
 BYTE   PAN   c_v-14
 BYTE   N07  Gn2  v108
 BYTE   W08
 BYTE   PAN   c_v+14
 BYTE   N03  Gn2  v060
 BYTE   W04
 BYTE   PAN   c_v+0
 BYTE   N02  Gn2  v104
 BYTE   W03
 BYTE   PAN   c_v+25
 BYTE   N01  Gn2  v040
 BYTE   W03
 BYTE   PAN   c_v-34
 BYTE   N03  Gn2  v108
 BYTE   W04
 BYTE   PAN   c_v-14
 BYTE   N01  Gn2  v044
 BYTE   W02
 BYTE   PAN   c_v-25
 BYTE   N07  Gn2  v104
 BYTE   W08
 BYTE   PAN   c_v+0
 BYTE   N03  Gn2  v060
 BYTE   W04
 BYTE   PAN   c_v-14
 BYTE   N07  Gn2  v108
 BYTE   W08
 BYTE   PAN   c_v+14
 BYTE   N03  Gn2  v060
 BYTE   W04
 BYTE   PAN   c_v+0
 BYTE   N02  Gn2  v104
 BYTE   W03
 BYTE   PAN   c_v+25
 BYTE   N01  Gn2  v040
 BYTE   W03
 BYTE   PAN   c_v-34
 BYTE   N03  An2  v108
 BYTE   W04
 BYTE   PAN   c_v-14
 BYTE   N01  An2  v044
 BYTE   W02
 BYTE   PAN   c_v-25
 BYTE   N07  An2  v104
 BYTE   W07
// 078   ----------------------------------------
 BYTE   W01
 BYTE   PAN   c_v+0
 BYTE   N03  An2  v060
 BYTE   W04
 BYTE   PAN   c_v-14
 BYTE   N07  An2  v108
 BYTE   W08
 BYTE   PAN   c_v+14
 BYTE   N03  An2  v060
 BYTE   W04
 BYTE   PAN   c_v+0
 BYTE   N02  An2  v104
 BYTE   W03
 BYTE   PAN   c_v+25
 BYTE   N01  An2  v040
 BYTE   W03
 BYTE   PAN   c_v-34
 BYTE   N03  Bn2  v108
 BYTE   W04
 BYTE   PAN   c_v-14
 BYTE   N01  Bn2  v044
 BYTE   W02
 BYTE   PAN   c_v-25
 BYTE   N07  Bn2  v104
 BYTE   W08
 BYTE   PAN   c_v+0
 BYTE   N03  Bn2  v060
 BYTE   W04
 BYTE   PAN   c_v-14
 BYTE   N07  Bn2  v108
 BYTE   W08
 BYTE   PAN   c_v+14
 BYTE   N03  Bn2  v060
 BYTE   W04
 BYTE   PAN   c_v+0
 BYTE   N02  Bn2  v104
 BYTE   W03
 BYTE   PAN   c_v+25
 BYTE   N01  Bn2  v040
 BYTE   W03
 BYTE   PAN   c_v-34
 BYTE   N03  Bn2  v108
 BYTE   W04
 BYTE   PAN   c_v-14
 BYTE   N01  Bn2  v044
 BYTE   W02
 BYTE   PAN   c_v-25
 BYTE   N07  Bn2  v104
 BYTE   W08
 BYTE   PAN   c_v+0
 BYTE   N03  Bn2  v060
 BYTE   W04
 BYTE   PAN   c_v-14
 BYTE   N07  Bn2  v108
 BYTE   W08
 BYTE   PAN   c_v+14
 BYTE   N03  Bn2  v060
 BYTE   W04
 BYTE   PAN   c_v+0
 BYTE   N02  Bn2  v104
 BYTE   W03
 BYTE   PAN   c_v+25
 BYTE   N01  Bn2  v040
 BYTE   W03
 BYTE   PAN   c_v-34
 BYTE   N03  Cn3  v108
 BYTE   W01
// 079   ----------------------------------------
 BYTE   W03
 BYTE   PAN   c_v-14
 BYTE   N01  Cn3  v044
 BYTE   W02
 BYTE   PAN   c_v-25
 BYTE   N07  Cn3  v104
 BYTE   W08
 BYTE   PAN   c_v+0
 BYTE   N03  Cn3  v060
 BYTE   W04
 BYTE   PAN   c_v-14
 BYTE   N07  Cn3  v108
 BYTE   W08
 BYTE   PAN   c_v+14
 BYTE   N03  Cn3  v060
 BYTE   W04
 BYTE   PAN   c_v+0
 BYTE   N02  Cn3  v104
 BYTE   W03
 BYTE   PAN   c_v+25
 BYTE   N01  Cn3  v040
 BYTE   W03
 BYTE   PAN   c_v-34
 BYTE   N03  An2  v108
 BYTE   W04
 BYTE   PAN   c_v-14
 BYTE   N01  An2  v044
 BYTE   W02
 BYTE   PAN   c_v-25
 BYTE   N07  An2  v104
 BYTE   W08
 BYTE   PAN   c_v+0
 BYTE   N03  An2  v060
 BYTE   W04
 BYTE   PAN   c_v-14
 BYTE   N07  An2  v108
 BYTE   W08
 BYTE   PAN   c_v+14
 BYTE   N03  An2  v060
 BYTE   W04
 BYTE   PAN   c_v+0
 BYTE   N02  An2  v104
 BYTE   W03
 BYTE   PAN   c_v+25
 BYTE   N01  An2  v040
 BYTE   W03
 BYTE   PAN   c_v-34
 BYTE   N03  An2  v108
 BYTE   W04
 BYTE   PAN   c_v-14
 BYTE   N01  An2  v044
 BYTE   W02
 BYTE   PAN   c_v-25
 BYTE   N07  An2  v104
 BYTE   W08
 BYTE   PAN   c_v+0
 BYTE   N03  An2  v060
 BYTE   W04
 BYTE   PAN   c_v-14
 BYTE   N07  An2  v108
 BYTE   W07
// 080   ----------------------------------------
 BYTE   W01
 BYTE   PAN   c_v+14
 BYTE   N03  An2  v060
 BYTE   W04
 BYTE   PAN   c_v+0
 BYTE   N02  An2  v104
 BYTE   W03
 BYTE   PAN   c_v+25
 BYTE   N01  An2  v040
 BYTE   W03
 BYTE   PAN   c_v-34
 BYTE   N03  Gn2  v108
 BYTE   W04
 BYTE   PAN   c_v-14
 BYTE   N01  Gn2  v044
 BYTE   W02
 BYTE   PAN   c_v-25
 BYTE   N07  Gn2  v104
 BYTE   W08
 BYTE   PAN   c_v+0
 BYTE   N03  Gn2  v060
 BYTE   W04
 BYTE   PAN   c_v-14
 BYTE   N07  Gn2  v108
 BYTE   W08
 BYTE   PAN   c_v+14
 BYTE   N03  Gn2  v060
 BYTE   W04
 BYTE   PAN   c_v+0
 BYTE   N02  Gn2  v104
 BYTE   W03
 BYTE   PAN   c_v+25
 BYTE   N01  Gn2  v040
 BYTE   W03
 BYTE   PAN   c_v-34
 BYTE   N03  Gn2  v108
 BYTE   W04
 BYTE   PAN   c_v-14
 BYTE   N01  Gn2  v044
 BYTE   W02
 BYTE   PAN   c_v-25
 BYTE   N07  Gn2  v104
 BYTE   W08
 BYTE   PAN   c_v+0
 BYTE   N03  Gn2  v060
 BYTE   W04
 BYTE   PAN   c_v-14
 BYTE   N07  Gn2  v108
 BYTE   W08
 BYTE   PAN   c_v+14
 BYTE   N03  Gn2  v060
 BYTE   W04
 BYTE   PAN   c_v+0
 BYTE   N02  Gn2  v104
 BYTE   W03
 BYTE   PAN   c_v+25
 BYTE   N01  Gn2  v040
 BYTE   W03
 BYTE   PAN   c_v-34
 BYTE   N03  An2  v108
 BYTE   W04
 BYTE   PAN   c_v-14
 BYTE   N01  An2  v044
 BYTE   W02
 BYTE   PAN   c_v-25
 BYTE   N07  An2  v104
 BYTE   W07
// 081   ----------------------------------------
 BYTE   W01
 BYTE   PAN   c_v+0
 BYTE   N03  An2  v060
 BYTE   W04
 BYTE   PAN   c_v-14
 BYTE   N07  An2  v108
 BYTE   W08
 BYTE   PAN   c_v+14
 BYTE   N03  An2  v060
 BYTE   W04
 BYTE   PAN   c_v+0
 BYTE   N02  An2  v104
 BYTE   W03
 BYTE   PAN   c_v+25
 BYTE   N01  An2  v040
 BYTE   W03
 BYTE   PAN   c_v-34
 BYTE   N03  Bn2  v108
 BYTE   W04
 BYTE   PAN   c_v-14
 BYTE   N01  Bn2  v044
 BYTE   W02
 BYTE   PAN   c_v-25
 BYTE   N07  Bn2  v104
 BYTE   W08
 BYTE   PAN   c_v+0
 BYTE   N03  Bn2  v060
 BYTE   W04
 BYTE   PAN   c_v-14
 BYTE   N07  Bn2  v108
 BYTE   W08
 BYTE   PAN   c_v+14
 BYTE   N03  Bn2  v060
 BYTE   W04
 BYTE   PAN   c_v+0
 BYTE   N02  Bn2  v104
 BYTE   W03
 BYTE   PAN   c_v+25
 BYTE   N01  Bn2  v040
 BYTE   W03
 BYTE   PAN   c_v-34
 BYTE   N03  Gn2  v108
 BYTE   W04
 BYTE   PAN   c_v-14
 BYTE   N01  Gn2  v044
 BYTE   W02
 BYTE   PAN   c_v-25
 BYTE   N07  Gn2  v104
 BYTE   W08
 BYTE   PAN   c_v+0
 BYTE   N03  Gn2  v060
 BYTE   W04
 BYTE   PAN   c_v-14
 BYTE   N07  Gn2  v108
 BYTE   W08
 BYTE   PAN   c_v+14
 BYTE   N03  Gn2  v060
 BYTE   W04
 BYTE   PAN   c_v+0
 BYTE   N02  Fn2  v104
 BYTE   W03
 BYTE   PAN   c_v+25
 BYTE   N01  Fn2  v040
 BYTE   W03
 BYTE   PAN   c_v-34
 BYTE   N03  En2  v108
 BYTE   W01
// 082   ----------------------------------------
 BYTE   W03
 BYTE   PAN   c_v-14
 BYTE   N01  En2  v044
 BYTE   W02
 BYTE   PAN   c_v-25
 BYTE   N07  En2  v104
 BYTE   W08
 BYTE   PAN   c_v+0
 BYTE   N03  En2  v060
 BYTE   W04
 BYTE   PAN   c_v-14
 BYTE   N07  En2  v108
 BYTE   W08
 BYTE   PAN   c_v+14
 BYTE   N03  En2  v060
 BYTE   W04
 BYTE   PAN   c_v+0
 BYTE   N02  Dn2  v104
 BYTE   W03
 BYTE   PAN   c_v+25
 BYTE   N01  Dn2  v040
 BYTE   W03
 BYTE   PAN   c_v-34
 BYTE   N03  Fn2  v108
 BYTE   W04
 BYTE   PAN   c_v-14
 BYTE   N01  Fn2  v044
 BYTE   W02
 BYTE   PAN   c_v-25
 BYTE   N07  Fn2  v104
 BYTE   W08
 BYTE   PAN   c_v+0
 BYTE   N03  Fn2  v060
 BYTE   W04
 BYTE   PAN   c_v-14
 BYTE   N07  An2  v108
 BYTE   W08
 BYTE   PAN   c_v+14
 BYTE   N03  An2  v060
 BYTE   W04
 BYTE   PAN   c_v+0
 BYTE   N02  An2  v104
 BYTE   W03
 BYTE   PAN   c_v+25
 BYTE   N01  An2  v040
 BYTE   W03
 BYTE   PAN   c_v-34
 BYTE   N03  An2  v108
 BYTE   W04
 BYTE   PAN   c_v-14
 BYTE   N01  An2  v044
 BYTE   W02
 BYTE   PAN   c_v-25
 BYTE   N07  An2  v104
 BYTE   W08
 BYTE   PAN   c_v+0
 BYTE   N03  An2  v060
 BYTE   W04
 BYTE   PAN   c_v-14
 BYTE   N07  An2  v108
 BYTE   W07
// 083   ----------------------------------------
 BYTE   W01
 BYTE   PAN   c_v+14
 BYTE   N03  An2  v060
 BYTE   W04
 BYTE   PAN   c_v+0
 BYTE   N02  An2  v104
 BYTE   W03
 BYTE   PAN   c_v+25
 BYTE   N01  An2  v040
 BYTE   W03
 BYTE   PAN   c_v-34
 BYTE   N03  Bn2  v108
 BYTE   W04
 BYTE   PAN   c_v-14
 BYTE   N01  Bn2  v044
 BYTE   W02
 BYTE   PAN   c_v-25
 BYTE   N07  Bn2  v104
 BYTE   W08
 BYTE   PAN   c_v+0
 BYTE   N03  Bn2  v060
 BYTE   W04
 BYTE   PAN   c_v-14
 BYTE   N07  Bn2  v108
 BYTE   W08
 BYTE   PAN   c_v+14
 BYTE   N03  Bn2  v060
 BYTE   W04
 BYTE   PAN   c_v+0
 BYTE   N02  Bn2  v104
 BYTE   W03
 BYTE   PAN   c_v+25
 BYTE   N01  Bn2  v040
 BYTE   W03
 BYTE   PAN   c_v-34
 BYTE   N03  Gn2  v108
 BYTE   W04
 BYTE   PAN   c_v-14
 BYTE   N01  Gn2  v044
 BYTE   W02
 BYTE   PAN   c_v-25
 BYTE   N07  Gn2  v104
 BYTE   W08
 BYTE   PAN   c_v+0
 BYTE   N03  Gn2  v060
 BYTE   W04
 BYTE   PAN   c_v-14
 BYTE   N03  Gn2  v108
 BYTE   W04
 BYTE   PAN   c_v+14
 BYTE   N01  Gn2  v044
 BYTE   W02
 BYTE   PAN   c_v+0
 BYTE   N07  Dn2  v104
 BYTE   W08
 BYTE   PAN   c_v+25
 BYTE   N03  Dn2  v060
 BYTE   W04
 BYTE   PAN   c_v-34
 BYTE   N03  En2  v108
 BYTE   W04
 BYTE   PAN   c_v-14
 BYTE   N01  En2  v044
 BYTE   W02
 BYTE   PAN   c_v-25
 BYTE   N07  En2  v104
 BYTE   W07
// 084   ----------------------------------------
 BYTE   W01
 BYTE   PAN   c_v+0
 BYTE   N03  En2  v060
 BYTE   W04
 BYTE   PAN   c_v-14
 BYTE   N07  En2  v108
 BYTE   W08
 BYTE   PAN   c_v+14
 BYTE   N03  En2  v060
 BYTE   W04
 BYTE   PAN   c_v+0
 BYTE   N02  En2  v104
 BYTE   W03
 BYTE   PAN   c_v+25
 BYTE   N01  En2  v040
 BYTE   W03
 BYTE   PAN   c_v-34
 BYTE   N03  En2  v108
 BYTE   W04
 BYTE   PAN   c_v-14
 BYTE   N01  En2  v044
 BYTE   W02
 BYTE   PAN   c_v-25
 BYTE   N07  En2  v104
 BYTE   W08
 BYTE   PAN   c_v+0
 BYTE   N03  En2  v060
 BYTE   W04
 BYTE   PAN   c_v-14
 BYTE   N07  En2  v108
 BYTE   W08
 BYTE   PAN   c_v+14
 BYTE   N03  En2  v060
 BYTE   W04
 BYTE   PAN   c_v+0
 BYTE   N02  En2  v104
 BYTE   W03
 BYTE   PAN   c_v+25
 BYTE   N01  En2  v040
 BYTE   W03
 BYTE   PAN   c_v-34
 BYTE   N03  Fn2  v108
 BYTE   W04
 BYTE   PAN   c_v-14
 BYTE   N01  Fn2  v044
 BYTE   W02
 BYTE   PAN   c_v-25
 BYTE   N07  Fn2  v104
 BYTE   W08
 BYTE   PAN   c_v+0
 BYTE   N03  Fn2  v060
 BYTE   W04
 BYTE   PAN   c_v-14
 BYTE   N07  Fn2  v108
 BYTE   W08
 BYTE   PAN   c_v+14
 BYTE   N03  Fn2  v060
 BYTE   W04
 BYTE   PAN   c_v+0
 BYTE   N02  Fn2  v104
 BYTE   W03
 BYTE   PAN   c_v+25
 BYTE   N01  Fn2  v040
 BYTE   W03
 BYTE   PAN   c_v-34
 BYTE   N03  Fn2  v108
 BYTE   W01
// 085   ----------------------------------------
 BYTE   W03
 BYTE   PAN   c_v-14
 BYTE   N01  Fn2  v044
 BYTE   W02
 BYTE   PAN   c_v-25
 BYTE   N07  Fn2  v104
 BYTE   W08
 BYTE   PAN   c_v+0
 BYTE   N03  Fn2  v060
 BYTE   W04
 BYTE   PAN   c_v-14
 BYTE   N07  Fn2  v108
 BYTE   W08
 BYTE   PAN   c_v+14
 BYTE   N03  Fn2  v060
 BYTE   W04
 BYTE   PAN   c_v+0
 BYTE   N02  Fn2  v104
 BYTE   W03
 BYTE   PAN   c_v+25
 BYTE   N01  Fn2  v040
 BYTE   W03
 BYTE   PAN   c_v-34
 BYTE   N03  Dn2  v108
 BYTE   W04
 BYTE   PAN   c_v-14
 BYTE   N01  Dn2  v044
 BYTE   W02
 BYTE   PAN   c_v-25
 BYTE   N07  Dn2  v104
 BYTE   W08
 BYTE   PAN   c_v+0
 BYTE   N03  Dn2  v060
 BYTE   W04
 BYTE   PAN   c_v-14
 BYTE   N07  Dn2  v108
 BYTE   W08
 BYTE   PAN   c_v+14
 BYTE   N03  Dn2  v060
 BYTE   W04
 BYTE   PAN   c_v+0
 BYTE   N02  Dn2  v104
 BYTE   W03
 BYTE   PAN   c_v+25
 BYTE   N01  Dn2  v040
 BYTE   W03
 BYTE   PAN   c_v-34
 BYTE   N03  Dn2  v108
 BYTE   W04
 BYTE   PAN   c_v-14
 BYTE   N01  Dn2  v044
 BYTE   W02
 BYTE   PAN   c_v-25
 BYTE   N07  Dn2  v104
 BYTE   W08
 BYTE   PAN   c_v+0
 BYTE   N03  Dn2  v060
 BYTE   W04
 BYTE   PAN   c_v-14
 BYTE   N07  Dn2  v108
 BYTE   W07
// 086   ----------------------------------------
 BYTE   W01
 BYTE   PAN   c_v+14
 BYTE   N03  Dn2  v060
 BYTE   W04
 BYTE   PAN   c_v+0
 BYTE   N02  Dn2  v104
 BYTE   W03
 BYTE   PAN   c_v+25
 BYTE   N01  Dn2  v040
 BYTE   W03
 BYTE   PAN   c_v-34
 BYTE   N03  Gn2  v108
 BYTE   W04
 BYTE   PAN   c_v-14
 BYTE   N01  Gn2  v044
 BYTE   W02
 BYTE   PAN   c_v-25
 BYTE   N07  Gn2  v104
 BYTE   W08
 BYTE   PAN   c_v+0
 BYTE   N03  Gn2  v060
 BYTE   W04
 BYTE   PAN   c_v-14
 BYTE   N07  Gn2  v108
 BYTE   W08
 BYTE   PAN   c_v+14
 BYTE   N03  Gn2  v060
 BYTE   W04
 BYTE   PAN   c_v+0
 BYTE   N02  Gn2  v104
 BYTE   W03
 BYTE   PAN   c_v+25
 BYTE   N01  Gn2  v040
 BYTE   W03
 BYTE   PAN   c_v-34
 BYTE   N03  Dn2  v108
 BYTE   W04
 BYTE   PAN   c_v-14
 BYTE   N01  Dn2  v044
 BYTE   W02
 BYTE   PAN   c_v-25
 BYTE   N07  Dn2  v104
 BYTE   W08
 BYTE   PAN   c_v+0
 BYTE   N03  Dn2  v060
 BYTE   W04
 BYTE   PAN   c_v-14
 BYTE   N07  Dn2  v108
 BYTE   W08
 BYTE   PAN   c_v+14
 BYTE   N03  Dn2  v060
 BYTE   W04
 BYTE   PAN   c_v+0
 BYTE   N02  Dn2  v104
 BYTE   W03
 BYTE   PAN   c_v+25
 BYTE   N01  Dn2  v040
 BYTE   W03
 BYTE   PAN   c_v-34
 BYTE   N03  Cn2  v108
 BYTE   W04
 BYTE   PAN   c_v-14
 BYTE   N01  Cn2  v044
 BYTE   W02
 BYTE   PAN   c_v-25
 BYTE   N07  Cn2  v104
 BYTE   W07
// 087   ----------------------------------------
 BYTE   W01
 BYTE   PAN   c_v+0
 BYTE   N03  Cn2  v060
 BYTE   W04
 BYTE   PAN   c_v-14
 BYTE   N07  Cn2  v108
 BYTE   W08
 BYTE   PAN   c_v+14
 BYTE   N03  Cn2  v060
 BYTE   W04
 BYTE   PAN   c_v+0
 BYTE   N02  Cn2  v104
 BYTE   W03
 BYTE   PAN   c_v+25
 BYTE   N01  Cn2  v040
 BYTE   W03
 BYTE   PAN   c_v-34
 BYTE   N03  Cn2  v108
 BYTE   W04
 BYTE   PAN   c_v-14
 BYTE   N01  Cn2  v044
 BYTE   W02
 BYTE   PAN   c_v-25
 BYTE   N07  Cn2  v104
 BYTE   W08
 BYTE   PAN   c_v+0
 BYTE   N03  Cn2  v060
 BYTE   W04
 BYTE   PAN   c_v-14
 BYTE   N07  Cn2  v108
 BYTE   W08
 BYTE   PAN   c_v+14
 BYTE   N03  Cn2  v060
 BYTE   W04
 BYTE   PAN   c_v+0
 BYTE   N02  Cn2  v104
 BYTE   W03
 BYTE   PAN   c_v+25
 BYTE   N01  Cn2  v040
 BYTE   W03
 BYTE   PAN   c_v-34
 BYTE   N03  Fn2  v108
 BYTE   W04
 BYTE   PAN   c_v-14
 BYTE   N01  Fn2  v044
 BYTE   W02
 BYTE   PAN   c_v-25
 BYTE   N07  Fn2  v104
 BYTE   W08
 BYTE   PAN   c_v+0
 BYTE   N03  Fn2  v060
 BYTE   W04
 BYTE   PAN   c_v-14
 BYTE   N07  Fn2  v108
 BYTE   W08
 BYTE   PAN   c_v+14
 BYTE   N03  Fn2  v060
 BYTE   W04
 BYTE   PAN   c_v+0
 BYTE   N02  Fn2  v104
 BYTE   W03
 BYTE   PAN   c_v+25
 BYTE   N01  Fn2  v040
 BYTE   W03
 BYTE   PAN   c_v-34
 BYTE   N03  Fn2  v108
 BYTE   W01
// 088   ----------------------------------------
 BYTE   W03
 BYTE   PAN   c_v-14
 BYTE   N01  Fn2  v044
 BYTE   W02
 BYTE   PAN   c_v-25
 BYTE   N07  Fn2  v104
 BYTE   W08
 BYTE   PAN   c_v+0
 BYTE   N03  Fn2  v060
 BYTE   W04
 BYTE   PAN   c_v-14
 BYTE   N07  Fn2  v108
 BYTE   W08
 BYTE   PAN   c_v+14
 BYTE   N03  Fn2  v060
 BYTE   W04
 BYTE   PAN   c_v+0
 BYTE   N02  Fn2  v104
 BYTE   W03
 BYTE   PAN   c_v+25
 BYTE   N01  Fn2  v040
 BYTE   W03
 BYTE   PAN   c_v-34
 BYTE   N03  Dn2  v108
 BYTE   W04
 BYTE   PAN   c_v-14
 BYTE   N01  Dn2  v044
 BYTE   W02
 BYTE   PAN   c_v-25
 BYTE   N07  Dn2  v104
 BYTE   W08
 BYTE   PAN   c_v+0
 BYTE   N03  Dn2  v060
 BYTE   W04
 BYTE   PAN   c_v-14
 BYTE   N07  Dn2  v108
 BYTE   W08
 BYTE   PAN   c_v+14
 BYTE   N03  Dn2  v060
 BYTE   W04
 BYTE   PAN   c_v+0
 BYTE   N02  Dn2  v104
 BYTE   W03
 BYTE   PAN   c_v+25
 BYTE   N01  Dn2  v040
 BYTE   W03
 BYTE   PAN   c_v-34
 BYTE   N03  Gn2  v108
 BYTE   W04
 BYTE   PAN   c_v-14
 BYTE   N01  Gn2  v044
 BYTE   W02
 BYTE   PAN   c_v-25
 BYTE   N07  Gn2  v104
 BYTE   W08
 BYTE   PAN   c_v+0
 BYTE   N03  Gn2  v060
 BYTE   W04
 BYTE   PAN   c_v-14
 BYTE   N07  Gn2  v108
 BYTE   W07
// 089   ----------------------------------------
 BYTE   W01
 BYTE   PAN   c_v+14
 BYTE   N03  Gn2  v060
 BYTE   W04
 BYTE   PAN   c_v+0
 BYTE   N02  Gn2  v104
 BYTE   W03
 BYTE   PAN   c_v+25
 BYTE   N01  Gn2  v040
 BYTE   W03
 BYTE   PAN   c_v-34
 BYTE   N03  En2  v108
 BYTE   W04
 BYTE   PAN   c_v-14
 BYTE   N01  En2  v044
 BYTE   W02
 BYTE   PAN   c_v-25
 BYTE   N07  En2  v104
 BYTE   W08
 BYTE   PAN   c_v+0
 BYTE   N03  En2  v060
 BYTE   W04
 BYTE   PAN   c_v-14
 BYTE   N07  En2  v108
 BYTE   W08
 BYTE   PAN   c_v+14
 BYTE   N03  En2  v060
 BYTE   W04
 BYTE   PAN   c_v+0
 BYTE   N02  En2  v104
 BYTE   W03
 BYTE   PAN   c_v+25
 BYTE   N01  En2  v040
 BYTE   W03
 BYTE   PAN   c_v-34
 BYTE   N03  En2  v108
 BYTE   W04
 BYTE   PAN   c_v-14
 BYTE   N01  En2  v044
 BYTE   W02
 BYTE   PAN   c_v-25
 BYTE   N07  En2  v104
 BYTE   W08
 BYTE   PAN   c_v+0
 BYTE   N03  En2  v060
 BYTE   W04
 BYTE   PAN   c_v-14
 BYTE   N07  En2  v108
 BYTE   W08
 BYTE   PAN   c_v+14
 BYTE   N03  En2  v060
 BYTE   W04
 BYTE   PAN   c_v+0
 BYTE   N02  Fn2  v104
 BYTE   W03
 BYTE   PAN   c_v+25
 BYTE   N01  Fn2  v040
 BYTE   W03
 BYTE   PAN   c_v-34
 BYTE   N03  Fn2  v108
 BYTE   W04
 BYTE   PAN   c_v-14
 BYTE   N01  Fn2  v044
 BYTE   W02
 BYTE   PAN   c_v-25
 BYTE   N07  Fn2  v104
 BYTE   W07
// 090   ----------------------------------------
 BYTE   W01
 BYTE   PAN   c_v+0
 BYTE   N03  Fn2  v060
 BYTE   W04
 BYTE   PAN   c_v-14
 BYTE   N07  Fn2  v108
 BYTE   W08
 BYTE   PAN   c_v+14
 BYTE   N03  Fn2  v060
 BYTE   W04
 BYTE   PAN   c_v+0
 BYTE   N02  Fn2  v104
 BYTE   W03
 BYTE   PAN   c_v+25
 BYTE   N01  Fn2  v040
 BYTE   W03
 BYTE   PAN   c_v-34
 BYTE   N03  Gn2  v108
 BYTE   W04
 BYTE   PAN   c_v-14
 BYTE   N01  Gn2  v044
 BYTE   W02
 BYTE   PAN   c_v-25
 BYTE   N07  Gn2  v104
 BYTE   W08
 BYTE   PAN   c_v+0
 BYTE   N03  Gn2  v060
 BYTE   W04
 BYTE   PAN   c_v-14
 BYTE   N07  Gn2  v108
 BYTE   W08
 BYTE   PAN   c_v+14
 BYTE   N03  Gn2  v060
 BYTE   W04
 BYTE   PAN   c_v+0
 BYTE   N02  Gn2  v104
 BYTE   W03
 BYTE   PAN   c_v+25
 BYTE   N01  Gn2  v040
 BYTE   W03
 BYTE   PAN   c_v-34
 BYTE   N03  En2  v108
 BYTE   W04
 BYTE   PAN   c_v-14
 BYTE   N01  En2  v044
 BYTE   W02
 BYTE   PAN   c_v-25
 BYTE   N07  En2  v104
 BYTE   W08
 BYTE   PAN   c_v+0
 BYTE   N03  En2  v060
 BYTE   W04
 BYTE   PAN   c_v-14
 BYTE   N07  En2  v108
 BYTE   W08
 BYTE   PAN   c_v+14
 BYTE   N03  En2  v060
 BYTE   W04
 BYTE   PAN   c_v+0
 BYTE   N02  En2  v104
 BYTE   W03
 BYTE   PAN   c_v+25
 BYTE   N01  En2  v040
 BYTE   W03
 BYTE   PAN   c_v-34
 BYTE   N03  An2  v108
 BYTE   W01
// 091   ----------------------------------------
 BYTE   W03
 BYTE   PAN   c_v-14
 BYTE   N01  An2  v044
 BYTE   W02
 BYTE   PAN   c_v-25
 BYTE   N07  An2  v104
 BYTE   W08
 BYTE   PAN   c_v+0
 BYTE   N03  An2  v060
 BYTE   W04
 BYTE   PAN   c_v-14
 BYTE   N07  An2  v108
 BYTE   W08
 BYTE   PAN   c_v+14
 BYTE   N03  An2  v060
 BYTE   W04
 BYTE   PAN   c_v+0
 BYTE   N02  Gn2  v104
 BYTE   W03
 BYTE   PAN   c_v+25
 BYTE   N01  Gn2  v040
 BYTE   W03
 BYTE   PAN   c_v-34
 BYTE   N03  Fn2  v108
 BYTE   W04
 BYTE   PAN   c_v-14
 BYTE   N01  Fn2  v044
 BYTE   W02
 BYTE   PAN   c_v-25
 BYTE   N07  Fn2  v104
 BYTE   W08
 BYTE   PAN   c_v+0
 BYTE   N03  Fn2  v060
 BYTE   W04
 BYTE   PAN   c_v-14
 BYTE   N07  Fn2  v108
 BYTE   W08
 BYTE   PAN   c_v+14
 BYTE   N03  Fn2  v060
 BYTE   W04
 BYTE   PAN   c_v+0
 BYTE   N02  Fn2  v104
 BYTE   W03
 BYTE   PAN   c_v+25
 BYTE   N01  Fn2  v040
 BYTE   W03
 BYTE   PAN   c_v-34
 BYTE   N03  Gn2  v108
 BYTE   W04
 BYTE   PAN   c_v-14
 BYTE   N01  Gn2  v044
 BYTE   W02
 BYTE   PAN   c_v-25
 BYTE   N07  Gn2  v104
 BYTE   W08
 BYTE   PAN   c_v+0
 BYTE   N03  Gn2  v060
 BYTE   W04
 BYTE   PAN   c_v-14
 BYTE   N07  Gn2  v108
 BYTE   W07
// 092   ----------------------------------------
 BYTE   W01
 BYTE   PAN   c_v+14
 BYTE   N03  Gn2  v060
 BYTE   W04
 BYTE   PAN   c_v+0
 BYTE   N02  Gn2  v104
 BYTE   W03
 BYTE   PAN   c_v+25
 BYTE   N01  Gn2  v040
 BYTE   W03
 BYTE   PAN   c_v-34
 BYTE   N03  Gn2  v108
 BYTE   W04
 BYTE   PAN   c_v-14
 BYTE   N01  Gn2  v044
 BYTE   W02
 BYTE   PAN   c_v-25
 BYTE   N07  Gn2  v104
 BYTE   W08
 BYTE   PAN   c_v+0
 BYTE   N03  Gn2  v060
 BYTE   W04
 BYTE   PAN   c_v-14
 BYTE   N07  Gn2  v108
 BYTE   W08
 BYTE   PAN   c_v+14
 BYTE   N03  Gn2  v060
 BYTE   W04
 BYTE   PAN   c_v+0
 BYTE   N02  Gn2  v104
 BYTE   W03
 BYTE   PAN   c_v+25
 BYTE   N01  Gn2  v040
 BYTE   W03
 BYTE   PAN   c_v-34
 BYTE   N03  Gn2  v108
 BYTE   W04
 BYTE   PAN   c_v-14
 BYTE   N01  Gn2  v044
 BYTE   W02
 BYTE   PAN   c_v-25
 BYTE   N07  Gn2  v104
 BYTE   W08
 BYTE   PAN   c_v+0
 BYTE   N03  Gn2  v060
 BYTE   W04
 BYTE   PAN   c_v-14
 BYTE   N07  Gn2  v108
 BYTE   W08
 BYTE   PAN   c_v+14
 BYTE   N03  Gn2  v060
 BYTE   W04
 BYTE   PAN   c_v+0
 BYTE   N02  Gn2  v104
 BYTE   W03
 BYTE   PAN   c_v+25
 BYTE   N01  Gn2  v040
 BYTE   W03
 BYTE   PAN   c_v-34
 BYTE   N03  Dn2  v108
 BYTE   W04
 BYTE   PAN   c_v-14
 BYTE   N01  Dn2  v044
 BYTE   W02
 BYTE   PAN   c_v-25
 BYTE   N07  Dn2  v104
 BYTE   W07
// 093   ----------------------------------------
 BYTE   W01
 BYTE   PAN   c_v+0
 BYTE   N03  Dn2  v060
 BYTE   W04
 BYTE   PAN   c_v-14
 BYTE   N07  Dn2  v108
 BYTE   W08
 BYTE   PAN   c_v+14
 BYTE   N03  Dn2  v060
 BYTE   W04
 BYTE   PAN   c_v+0
 BYTE   N02  Dn2  v104
 BYTE   W03
 BYTE   PAN   c_v+25
 BYTE   N01  Dn2  v040
 BYTE   W03
 BYTE   PAN   c_v-34
 BYTE   N03  Gn2  v108
 BYTE   W04
 BYTE   PAN   c_v-14
 BYTE   N01  Gn2  v044
 BYTE   W02
 BYTE   PAN   c_v-25
 BYTE   N07  Gn2  v104
 BYTE   W08
 BYTE   PAN   c_v+0
 BYTE   N03  Gn2  v060
 BYTE   W04
 BYTE   PAN   c_v-14
 BYTE   N07  Gn2  v108
 BYTE   W08
 BYTE   PAN   c_v+14
 BYTE   N03  Gn2  v060
 BYTE   W04
 BYTE   PAN   c_v+0
 BYTE   N02  Gn2  v104
 BYTE   W03
 BYTE   PAN   c_v+25
 BYTE   N01  Gn2  v040
 BYTE   W03
 BYTE   PAN   c_v-34
 BYTE   N03  En2  v108
 BYTE   W04
 BYTE   PAN   c_v-14
 BYTE   N01  En2  v044
 BYTE   W02
 BYTE   PAN   c_v-25
 BYTE   N07  En2  v104
 BYTE   W08
 BYTE   PAN   c_v+0
 BYTE   N03  En2  v060
 BYTE   W04
 BYTE   PAN   c_v-14
 BYTE   N07  En2  v108
 BYTE   W08
 BYTE   PAN   c_v+14
 BYTE   N03  En2  v060
 BYTE   W04
 BYTE   PAN   c_v+0
 BYTE   N02  En2  v104
 BYTE   W03
 BYTE   PAN   c_v+25
 BYTE   N01  En2  v040
 BYTE   W03
 BYTE   PAN   c_v-34
 BYTE   N03  Gn2  v108
 BYTE   W01
// 094   ----------------------------------------
 BYTE   W03
 BYTE   PAN   c_v-14
 BYTE   N01  Gn2  v044
 BYTE   W02
 BYTE   PAN   c_v-25
 BYTE   N07  Gn2  v104
 BYTE   W08
 BYTE   PAN   c_v+0
 BYTE   N03  Gn2  v060
 BYTE   W04
 BYTE   PAN   c_v-14
 BYTE   N07  Gn2  v108
 BYTE   W08
 BYTE   PAN   c_v+14
 BYTE   N03  Gn2  v060
 BYTE   W04
 BYTE   PAN   c_v+0
 BYTE   N02  Fn2  v104
 BYTE   W03
 BYTE   PAN   c_v+25
 BYTE   N01  Fn2  v040
 BYTE   W03
 BYTE   PAN   c_v-34
 BYTE   N03  Fn2  v108
 BYTE   W04
 BYTE   PAN   c_v-14
 BYTE   N01  Fn2  v044
 BYTE   W02
 BYTE   PAN   c_v-25
 BYTE   N07  Fn2  v104
 BYTE   W08
 BYTE   PAN   c_v+0
 BYTE   N03  Fn2  v060
 BYTE   W04
 BYTE   PAN   c_v-14
 BYTE   N07  Fn2  v108
 BYTE   W08
 BYTE   PAN   c_v+14
 BYTE   N03  Fn2  v060
 BYTE   W04
 BYTE   PAN   c_v+0
 BYTE   N02  Fn2  v104
 BYTE   W03
 BYTE   PAN   c_v+25
 BYTE   N01  Fn2  v040
 BYTE   W03
 BYTE   PAN   c_v-34
 BYTE   N03  Fs2  v108
 BYTE   W04
 BYTE   PAN   c_v-14
 BYTE   N01  Fs2  v044
 BYTE   W02
 BYTE   PAN   c_v-25
 BYTE   N07  Fs2  v104
 BYTE   W08
 BYTE   PAN   c_v+0
 BYTE   N03  Fs2  v060
 BYTE   W04
 BYTE   PAN   c_v-14
 BYTE   N07  Fs2  v108
 BYTE   W07
// 095   ----------------------------------------
 BYTE   W01
 BYTE   PAN   c_v+14
 BYTE   N03  Fs2  v060
 BYTE   W04
 BYTE   PAN   c_v+0
 BYTE   N02  Fs2  v104
 BYTE   W03
 BYTE   PAN   c_v+25
 BYTE   N01  Fs2  v040
 BYTE   W03
 BYTE   PAN   c_v-34
 BYTE   N03  Gn2  v108
 BYTE   W04
 BYTE   PAN   c_v-14
 BYTE   N01  Gn2  v044
 BYTE   W02
 BYTE   PAN   c_v-25
 BYTE   N07  Gn2  v104
 BYTE   W08
 BYTE   PAN   c_v+0
 BYTE   N03  Gn2  v060
 BYTE   W04
 BYTE   PAN   c_v-14
 BYTE   N07  Gn2  v108
 BYTE   W08
 BYTE   PAN   c_v+14
 BYTE   N03  Gn2  v060
 BYTE   W04
 BYTE   PAN   c_v+0
 BYTE   N02  Gn2  v104
 BYTE   W03
 BYTE   PAN   c_v+25
 BYTE   N01  Gn2  v040
 BYTE   W03
 BYTE   PAN   c_v-34
 BYTE   N03  Dn2  v108
 BYTE   W04
 BYTE   PAN   c_v-14
 BYTE   N01  Dn2  v044
 BYTE   W02
 BYTE   PAN   c_v-25
 BYTE   N07  Dn2  v104
 BYTE   W08
 BYTE   PAN   c_v+0
 BYTE   N03  Dn2  v060
 BYTE   W04
 BYTE   PAN   c_v-14
 BYTE   N03  Dn2  v108
 BYTE   W04
 BYTE   PAN   c_v+14
 BYTE   N01  Dn2  v044
 BYTE   W02
 BYTE   PAN   c_v+0
 BYTE   N07  Dn2  v104
 BYTE   W08
 BYTE   PAN   c_v+25
 BYTE   N03  Dn2  v060
 BYTE   W04
 BYTE   PAN   c_v-34
 BYTE   VOL   66*song2C_mvl/mxv
 BYTE   N05  Cn3  v104
 BYTE   W06
 BYTE   PAN   c_v-14
 BYTE   N05  Gn2  v092
 BYTE   W06
 BYTE   PAN   c_v-25
 BYTE   N05  Cn3  v104
 BYTE   W01
// 096   ----------------------------------------
 BYTE   W05
 BYTE   PAN   c_v+0
 BYTE   N05  Gn2  v092
 BYTE   W06
 BYTE   PAN   c_v-14
 BYTE   N05  Cn3  v104
 BYTE   W06
 BYTE   PAN   c_v+14
 BYTE   N05  Gn2  v092
 BYTE   W06
 BYTE   PAN   c_v-25
 BYTE   N05  Dn3  v104
 BYTE   W06
 BYTE   PAN   c_v+0
 BYTE   N05  Gn2  v092
 BYTE   W06
 BYTE   PAN   c_v-14
 BYTE   N05  Dn3  v104
 BYTE   W06
 BYTE   PAN   c_v+14
 BYTE   N05  Gn2  v092
 BYTE   W06
 BYTE   PAN   c_v+0
 BYTE   N05  Dn3  v104
 BYTE   W06
 BYTE   PAN   c_v+25
 BYTE   N05  Gn2  v092
 BYTE   W06
 BYTE   PAN   c_v+24
 BYTE   N05  Cn3  v104
 BYTE   W02
 BYTE   PAN   c_v+23
 BYTE   W02
 BYTE   Dn5
 BYTE   W02
 BYTE   Cs5
 BYTE   N05  Cn3  v092
 BYTE   W02
 BYTE   PAN   c_v+20
 BYTE   W01
 BYTE   Bn4
 BYTE   W02
 BYTE   As4
 BYTE   W01
 BYTE   N05  Gn2  v104
 BYTE   W01
 BYTE   PAN   c_v+17
 BYTE   W02
 BYTE   Gs4
 BYTE   W02
 BYTE   Gn4
 BYTE   W01
 BYTE   Fs4
 BYTE   N05  Fn2  v096
 BYTE   W02
 BYTE   PAN   c_v+13
 BYTE   W02
 BYTE   En4
 BYTE   W02
 BYTE   Ds4
 BYTE   N05  Dn2  v092
 BYTE   W02
 BYTE   PAN   c_v+10
 BYTE   W01
 BYTE   Cs4
 BYTE   W02
 BYTE   Cn4
 BYTE   W01
 BYTE   N05  En2  v096
 BYTE   W01
 BYTE   PAN   c_v+7
 BYTE   W02
 BYTE   As3
 BYTE   W02
 BYTE   An3
 BYTE   W01
 BYTE   Gs3
 BYTE   N68  Cn2  v092
 BYTE   W01
// 097   ----------------------------------------
 BYTE   W01
 BYTE   PAN   c_v+3
 BYTE   W02
 BYTE   Fs3
 BYTE   W02
 BYTE   Fn3
 BYTE   W01
 BYTE   En3
 BYTE   W02
 BYTE   Ds3
 BYTE   W02
 BYTE   Dn3
 BYTE   W02
 BYTE   Cs3
 BYTE   W02
 BYTE   Cn3
 BYTE   W01
 BYTE   Bn2
 BYTE   W02
 BYTE   As2
 BYTE   W02
 BYTE   An2
 BYTE   W02
 BYTE   Gs2
 BYTE   W02
 BYTE   Gn2
 BYTE   W01
 BYTE   Fs2
 BYTE   W02
 BYTE   Fn2
 BYTE   W02
 BYTE   En2
 BYTE   W02
 BYTE   Ds2
 BYTE   W02
 BYTE   Dn2
 BYTE   W36
 BYTE   W02
 BYTE   FINE

//**************** Track 7 (Midi-Chn.6) ****************//

song2C_007:
// 000   ----------------------------------------
 BYTE   KEYSH   song2C_key+0
 BYTE   W96
// 001   ----------------------------------------
 BYTE   W96
// 002   ----------------------------------------
 BYTE   W06
 BYTE   VOICE   41
 BYTE   VOL   53*song2C_mvl/mxv
 BYTE   PAN   c_v+0
 BYTE   N11  As3  v108
 BYTE   W12
 BYTE   As3  v104
 BYTE   W12
 BYTE   N11
 BYTE   W12
 BYTE   N11
 BYTE   W12
 BYTE   As3  v108
 BYTE   W12
 BYTE   As3  v104
 BYTE   W12
 BYTE   N11
 BYTE   W12
 BYTE   N11
 BYTE   W06
// 003   ----------------------------------------
Label_6_01432084:
 BYTE   W06
 BYTE   N11  As3  v108
 BYTE   W12
 BYTE   As3  v104
 BYTE   W12
 BYTE   N11
 BYTE   W12
 BYTE   N11
 BYTE   W12
 BYTE   As3  v108
 BYTE   W12
 BYTE   As3  v104
 BYTE   W12
 BYTE   N11
 BYTE   W12
 BYTE   N11
 BYTE   W06
 BYTE   PEND 
 BYTE   PATT
  POIN2 Label_6_01432084
 BYTE   PATT
  POIN2 Label_6_01432084
 BYTE   PATT
  POIN2 Label_6_01432084
 BYTE   PATT
  POIN2 Label_6_01432084
 BYTE   PATT
  POIN2 Label_6_01432084
 BYTE   PATT
  POIN2 Label_6_01432084
 BYTE   PATT
  POIN2 Label_6_01432084
 BYTE   PATT
  POIN2 Label_6_01432084
 BYTE   PATT
  POIN2 Label_6_01432084
 BYTE   PATT
  POIN2 Label_6_01432084
// 004   ----------------------------------------
 BYTE   W06
 BYTE   TIE  As3  v108
 BYTE   W90
// 005   ----------------------------------------
 BYTE   W96
// 006   ----------------------------------------
 BYTE   W05
 BYTE   EOT
 BYTE   W02
 BYTE   VOICE   45
 BYTE   VOL   70*song2C_mvl/mxv
 BYTE   PAN   c_v+25
 BYTE   N05  Fn2  v104
 BYTE   W06
 BYTE   Fn2  v116
 BYTE   W12
 BYTE   Cn2  v104
 BYTE   W12
 BYTE   Ds2  v108
 BYTE   W12
 BYTE   Ds2  v096
 BYTE   W06
 BYTE   Fn2  v104
 BYTE   W06
 BYTE   Fn2  v116
 BYTE   W12
 BYTE   Cn2  v104
 BYTE   W12
 BYTE   Ds2  v108
 BYTE   W11
// 007   ----------------------------------------
 BYTE   W01
 BYTE   Ds2  v096
 BYTE   W06
 BYTE   Fn2  v104
 BYTE   W06
 BYTE   Fn2  v116
 BYTE   W12
 BYTE   Cn2  v104
 BYTE   W12
 BYTE   Ds2  v108
 BYTE   W12
 BYTE   Ds2  v096
 BYTE   W06
 BYTE   Fn2  v104
 BYTE   W06
 BYTE   Fn2  v116
 BYTE   W12
 BYTE   Cn2  v104
 BYTE   W12
 BYTE   Ds2  v108
 BYTE   W11
// 008   ----------------------------------------
 BYTE   W01
 BYTE   Ds2  v096
 BYTE   W06
 BYTE   VOICE   45
 BYTE   VOL   83*song2C_mvl/mxv
 BYTE   PAN   c_v+14
 BYTE   N05  Fn2  v104
 BYTE   W06
 BYTE   Fn2  v116
 BYTE   W12
 BYTE   Cn2  v104
 BYTE   W12
 BYTE   Ds2  v108
 BYTE   W12
 BYTE   Cn2  v096
 BYTE   W06
 BYTE   Fn2  v104
 BYTE   W06
 BYTE   Fn2  v116
 BYTE   W12
 BYTE   Cn2  v104
 BYTE   W12
 BYTE   Ds2  v108
 BYTE   W11
// 009   ----------------------------------------
Label_6_0143213D:
 BYTE   W01
 BYTE   N05  Cn2  v096
 BYTE   W06
 BYTE   Fn2  v104
 BYTE   W06
 BYTE   Fn2  v116
 BYTE   W12
 BYTE   Cn2  v104
 BYTE   W12
 BYTE   Ds2  v108
 BYTE   W12
 BYTE   Cn2  v096
 BYTE   W06
 BYTE   Fn2  v104
 BYTE   W06
 BYTE   Fn2  v116
 BYTE   W12
 BYTE   Cn2  v104
 BYTE   W12
 BYTE   Ds2  v108
 BYTE   W11
 BYTE   PEND 
 BYTE   PATT
  POIN2 Label_6_0143213D
 BYTE   PATT
  POIN2 Label_6_0143213D
// 010   ----------------------------------------
 BYTE   W01
 BYTE   N05  Cn2  v096
 BYTE   W06
 BYTE   N11  Gs2  v116
 BYTE   W12
 BYTE   N05  Ds2  v092
 BYTE   W06
 BYTE   N11  Gs2  v108
 BYTE   W12
 BYTE   N05  Ds2  v092
 BYTE   W06
 BYTE   Gs2  v108
 BYTE   W06
 BYTE   Ds2  v092
 BYTE   W06
 BYTE   N11  Gn2  v116
 BYTE   W12
 BYTE   N05  Dn2  v092
 BYTE   W06
 BYTE   N11  Gn2  v108
 BYTE   W12
 BYTE   N05  Dn2  v092
 BYTE   W06
 BYTE   Gn2  v108
 BYTE   W05
// 011   ----------------------------------------
 BYTE   W01
 BYTE   Dn2  v092
 BYTE   W06
 BYTE   N11  Fn2  v116
 BYTE   W12
 BYTE   N05  Cn2  v092
 BYTE   W06
 BYTE   N11  Fn2  v108
 BYTE   W12
 BYTE   N05  Cn2  v092
 BYTE   W06
 BYTE   Fn2  v108
 BYTE   W06
 BYTE   Cn2  v092
 BYTE   W06
 BYTE   N11  Ds2  v116
 BYTE   W12
 BYTE   N05  As1  v092
 BYTE   W06
 BYTE   N11  Ds2  v108
 BYTE   W12
 BYTE   N05  As1  v092
 BYTE   W06
 BYTE   Ds2  v108
 BYTE   W05
// 012   ----------------------------------------
 BYTE   W01
 BYTE   As1  v092
 BYTE   W06
 BYTE   VOICE   41
 BYTE   VOL   70*song2C_mvl/mxv
 BYTE   PAN   c_v+0
 BYTE   N11  Fn3  v108
 BYTE   W12
 BYTE   Fn3  v104
 BYTE   W12
 BYTE   N11
 BYTE   W12
 BYTE   N11
 BYTE   W12
 BYTE   Ds3  v108
 BYTE   W12
 BYTE   Ds3  v104
 BYTE   W12
 BYTE   N11
 BYTE   W12
 BYTE   N11
 BYTE   W05
// 013   ----------------------------------------
Label_6_014321E2:
 BYTE   W07
 BYTE   N11  Fn3  v108
 BYTE   W12
 BYTE   Fn3  v104
 BYTE   W12
 BYTE   N11
 BYTE   W12
 BYTE   N11
 BYTE   W12
 BYTE   Ds3  v108
 BYTE   W12
 BYTE   Ds3  v104
 BYTE   W18
 BYTE   N05  Ds3  v108
 BYTE   W11
 BYTE   PEND 
// 014   ----------------------------------------
 BYTE   W01
 BYTE   N05
 BYTE   W06
 BYTE   N11  Fn3
 BYTE   W12
 BYTE   Fn3  v104
 BYTE   W12
 BYTE   N11
 BYTE   W12
 BYTE   N11
 BYTE   W12
 BYTE   Ds3  v108
 BYTE   W12
 BYTE   Ds3  v104
 BYTE   W12
 BYTE   N11
 BYTE   W12
 BYTE   N11
 BYTE   W05
 BYTE   PATT
  POIN2 Label_6_014321E2
// 015   ----------------------------------------
 BYTE   W01
 BYTE   N05  Ds3  v108
 BYTE   W06
 BYTE   N11  Dn3  v112
 BYTE   W12
 BYTE   Dn3  v108
 BYTE   W12
 BYTE   N11
 BYTE   W12
 BYTE   N11
 BYTE   W12
 BYTE   Dn3  v116
 BYTE   W12
 BYTE   Dn3  v112
 BYTE   W12
 BYTE   N11
 BYTE   W12
 BYTE   N11
 BYTE   W05
// 016   ----------------------------------------
 BYTE   W07
 BYTE   Ds3  v120
 BYTE   W12
 BYTE   Ds3  v116
 BYTE   W12
 BYTE   N11
 BYTE   W12
 BYTE   N11
 BYTE   W12
 BYTE   Fn3  v124
 BYTE   W12
 BYTE   Fn3  v116
 BYTE   W12
 BYTE   N11
 BYTE   W12
 BYTE   N11
 BYTE   W05
// 017   ----------------------------------------
 BYTE   W07
 BYTE   Gs3  v120
 BYTE   W12
 BYTE   Gs3  v112
 BYTE   W12
 BYTE   N11
 BYTE   W12
 BYTE   N11
 BYTE   W12
 BYTE   Fs3  v116
 BYTE   W12
 BYTE   Fs3  v108
 BYTE   W12
 BYTE   N11
 BYTE   W12
 BYTE   N11
 BYTE   W05
// 018   ----------------------------------------
 BYTE   W07
 BYTE   Fn3  v112
 BYTE   W12
 BYTE   Fn3  v108
 BYTE   W12
 BYTE   N11
 BYTE   W12
 BYTE   N11
 BYTE   W12
 BYTE   Fn3  v112
 BYTE   W12
 BYTE   Fn3  v104
 BYTE   W18
 BYTE   N05  Fn3  v112
 BYTE   W11
// 019   ----------------------------------------
 BYTE   W01
 BYTE   N05
 BYTE   W06
 BYTE   VOICE   41
 BYTE   VOL   60*song2C_mvl/mxv
 BYTE   PAN   c_v+14
 BYTE   N11  Gn3  v104
 BYTE   W12
 BYTE   N05
 BYTE   W06
 BYTE   N02  Gn3  v108
 BYTE   W03
 BYTE   Gn3  v092
 BYTE   W03
 BYTE   N05  Gn3  v104
 BYTE   W12
 BYTE   N11  Gn3  v096
 BYTE   W12
 BYTE   Gn3  v104
 BYTE   W12
 BYTE   N05
 BYTE   W06
 BYTE   N02  Gn3  v108
 BYTE   W03
 BYTE   Gn3  v092
 BYTE   W03
 BYTE   N05  Gn3  v104
 BYTE   W12
 BYTE   N11  Dn3  v096
 BYTE   W05
// 020   ----------------------------------------
Label_6_014322A0:
 BYTE   W07
 BYTE   N11  Gn3  v104
 BYTE   W12
 BYTE   N05
 BYTE   W06
 BYTE   N02  Gn3  v108
 BYTE   W03
 BYTE   Gn3  v092
 BYTE   W03
 BYTE   N05  Gn3  v104
 BYTE   W12
 BYTE   N11  Gn3  v096
 BYTE   W12
 BYTE   Gn3  v104
 BYTE   W12
 BYTE   N05
 BYTE   W06
 BYTE   N02  Gn3  v108
 BYTE   W03
 BYTE   Gn3  v092
 BYTE   W03
 BYTE   N05  Gn3  v104
 BYTE   W12
 BYTE   N11  Dn3  v096
 BYTE   W05
 BYTE   PEND 
// 021   ----------------------------------------
Label_6_014322CB:
 BYTE   W07
 BYTE   N11  Fn3  v104
 BYTE   W12
 BYTE   N05
 BYTE   W06
 BYTE   N02  Fn3  v108
 BYTE   W03
 BYTE   Fn3  v092
 BYTE   W03
 BYTE   N05  Fn3  v104
 BYTE   W12
 BYTE   N11  Fn3  v096
 BYTE   W12
 BYTE   Fn3  v104
 BYTE   W12
 BYTE   N05
 BYTE   W06
 BYTE   N02  Fn3  v108
 BYTE   W03
 BYTE   Fn3  v092
 BYTE   W03
 BYTE   N05  Fn3  v104
 BYTE   W12
 BYTE   N11  Fn3  v096
 BYTE   W05
 BYTE   PEND 
 BYTE   PATT
  POIN2 Label_6_014322CB
 BYTE   PATT
  POIN2 Label_6_014322A0
 BYTE   PATT
  POIN2 Label_6_014322A0
 BYTE   PATT
  POIN2 Label_6_014322CB
 BYTE   PATT
  POIN2 Label_6_014322CB
 BYTE   PATT
  POIN2 Label_6_014322A0
// 022   ----------------------------------------
 BYTE   W08
 BYTE   VOICE   41
 BYTE   VOL   60*song2C_mvl/mxv
 BYTE   PAN   c_v+0
 BYTE   N05  Fn3  v104
 BYTE   W12
 BYTE   N05
 BYTE   W18
 BYTE   N04
 BYTE   W12
 BYTE   N04
 BYTE   W06
 BYTE   N05  Cs3
 BYTE   W12
 BYTE   N05
 BYTE   W18
 BYTE   N04
 BYTE   W10
// 023   ----------------------------------------
Label_6_0143232C:
 BYTE   W02
 BYTE   N04  Cs3  v104
 BYTE   W06
 BYTE   N05  As2
 BYTE   W12
 BYTE   N05
 BYTE   W18
 BYTE   N04
 BYTE   W12
 BYTE   N04
 BYTE   W06
 BYTE   N05  Cn3
 BYTE   W12
 BYTE   N05
 BYTE   W18
 BYTE   N04
 BYTE   W10
 BYTE   PEND 
// 024   ----------------------------------------
 BYTE   W02
 BYTE   N04
 BYTE   W06
 BYTE   N05  Fn3
 BYTE   W12
 BYTE   N05
 BYTE   W18
 BYTE   N04
 BYTE   W12
 BYTE   N04
 BYTE   W06
 BYTE   N05  Cs3
 BYTE   W12
 BYTE   N05
 BYTE   W18
 BYTE   N04
 BYTE   W10
 BYTE   PATT
  POIN2 Label_6_0143232C
// 025   ----------------------------------------
 BYTE   W02
 BYTE   N04  Cn3  v104
 BYTE   W06
 BYTE   N05  Cs3
 BYTE   W12
 BYTE   N05
 BYTE   W18
 BYTE   N04
 BYTE   W12
 BYTE   N04
 BYTE   W06
 BYTE   N05  As2
 BYTE   W12
 BYTE   N05
 BYTE   W18
 BYTE   N04
 BYTE   W10
// 026   ----------------------------------------
 BYTE   W02
 BYTE   N04
 BYTE   W06
 BYTE   N05  Cn3
 BYTE   W12
 BYTE   N05
 BYTE   W18
 BYTE   N04
 BYTE   W12
 BYTE   N04
 BYTE   W06
 BYTE   N05
 BYTE   W12
 BYTE   N05
 BYTE   W18
 BYTE   N04
 BYTE   W10
// 027   ----------------------------------------
 BYTE   W02
 BYTE   N04
 BYTE   W06
 BYTE   VOICE   41
 BYTE   VOL   60*song2C_mvl/mxv
 BYTE   PAN   c_v+14
 BYTE   N11  Cs4
 BYTE   W12
 BYTE   N03  Cs4  v108
 BYTE   W04
 BYTE   Cs4  v100
 BYTE   W04
 BYTE   N03
 BYTE   W04
 BYTE   N11  Cs4  v104
 BYTE   W12
 BYTE   N03  Cs4  v108
 BYTE   W04
 BYTE   Cs4  v100
 BYTE   W04
 BYTE   N03
 BYTE   W04
 BYTE   N11  Cn4  v104
 BYTE   W12
 BYTE   N03  Cn4  v108
 BYTE   W04
 BYTE   Cn4  v100
 BYTE   W04
 BYTE   N03
 BYTE   W04
 BYTE   N11  Cn4  v104
 BYTE   W12
 BYTE   N03  Cn4  v108
 BYTE   W04
// 028   ----------------------------------------
 BYTE   Cn4  v100
 BYTE   W04
 BYTE   N03
 BYTE   W04
 BYTE   N11  As3  v104
 BYTE   W12
 BYTE   N03  As3  v108
 BYTE   W04
 BYTE   As3  v100
 BYTE   W04
 BYTE   N03
 BYTE   W04
 BYTE   N11  As3  v104
 BYTE   W12
 BYTE   N03  As3  v108
 BYTE   W04
 BYTE   As3  v100
 BYTE   W04
 BYTE   N03
 BYTE   W04
 BYTE   N11  Cn4  v104
 BYTE   W12
 BYTE   N03  Cn4  v108
 BYTE   W04
 BYTE   Cn4  v100
 BYTE   W04
 BYTE   N03
 BYTE   W04
 BYTE   N11  Cn4  v104
 BYTE   W12
 BYTE   N03  Cn4  v108
 BYTE   W04
// 029   ----------------------------------------
 BYTE   Cn4  v100
 BYTE   W04
 BYTE   N03
 BYTE   W04
 BYTE   N11  Cs4  v104
 BYTE   W12
 BYTE   N03  Cs4  v108
 BYTE   W04
 BYTE   Cs4  v100
 BYTE   W04
 BYTE   N03
 BYTE   W04
 BYTE   N11  Cs4  v104
 BYTE   W12
 BYTE   N03  Cs4  v108
 BYTE   W04
 BYTE   Cs4  v100
 BYTE   W04
 BYTE   N03
 BYTE   W04
 BYTE   N11  Cn4  v104
 BYTE   W12
 BYTE   N03  Cn4  v108
 BYTE   W04
 BYTE   Cn4  v100
 BYTE   W04
 BYTE   N03
 BYTE   W04
 BYTE   N11  Cn4  v104
 BYTE   W12
 BYTE   N03  Cn4  v108
 BYTE   W04
// 030   ----------------------------------------
 BYTE   Cn4  v100
 BYTE   W04
 BYTE   N03
 BYTE   W04
 BYTE   N11  As3  v104
 BYTE   W12
 BYTE   N03  As3  v108
 BYTE   W04
 BYTE   As3  v100
 BYTE   W04
 BYTE   N03
 BYTE   W04
 BYTE   N11  Cn4  v104
 BYTE   W12
 BYTE   N03  Cn4  v108
 BYTE   W04
 BYTE   Cn4  v100
 BYTE   W04
 BYTE   N03
 BYTE   W04
 BYTE   N11  Cs4  v104
 BYTE   W12
 BYTE   N03  Cs4  v108
 BYTE   W04
 BYTE   Cs4  v100
 BYTE   W04
 BYTE   N03
 BYTE   W04
 BYTE   N11  Cs4  v104
 BYTE   W12
 BYTE   N03  Cs4  v108
 BYTE   W04
// 031   ----------------------------------------
 BYTE   Cs4  v100
 BYTE   W04
 BYTE   N03
 BYTE   W04
 BYTE   N11  Dn4  v104
 BYTE   W12
 BYTE   N03  Dn4  v108
 BYTE   W04
 BYTE   Dn4  v100
 BYTE   W04
 BYTE   N03
 BYTE   W04
 BYTE   N11  Dn4  v104
 BYTE   W12
 BYTE   N03  Dn4  v108
 BYTE   W04
 BYTE   Dn4  v100
 BYTE   W04
 BYTE   N03
 BYTE   W04
 BYTE   N11  Ds4  v104
 BYTE   W12
 BYTE   N03  Ds4  v108
 BYTE   W04
 BYTE   Ds4  v100
 BYTE   W04
 BYTE   N03
 BYTE   W04
 BYTE   N11  Ds4  v104
 BYTE   W12
 BYTE   N03  Ds4  v108
 BYTE   W04
// 032   ----------------------------------------
 BYTE   Ds4  v100
 BYTE   W04
 BYTE   N03
 BYTE   W04
 BYTE   N11  Ds4  v104
 BYTE   W12
 BYTE   N03  Ds4  v108
 BYTE   W04
 BYTE   Ds4  v100
 BYTE   W04
 BYTE   N03
 BYTE   W04
 BYTE   N11  Ds4  v104
 BYTE   W12
 BYTE   N03  Ds4  v108
 BYTE   W04
 BYTE   Ds4  v100
 BYTE   W04
 BYTE   N03
 BYTE   W04
 BYTE   N11  Gs3  v108
 BYTE   W18
 BYTE   N05  Gs3  v068
 BYTE   W06
 BYTE   Gs3  v080
 BYTE   W06
 BYTE   Gs3  v092
 BYTE   W06
 BYTE   Gs3  v100
 BYTE   W04
// 033   ----------------------------------------
 BYTE   W02
 BYTE   Gs3  v112
 BYTE   W06
 BYTE   Gs3  v108
 BYTE   W06
 BYTE   Ds3  v060
 BYTE   W06
 BYTE   Ds3  v068
 BYTE   W06
 BYTE   Ds3  v076
 BYTE   W06
 BYTE   Ds3  v088
 BYTE   W06
 BYTE   Ds3  v096
 BYTE   W06
 BYTE   Ds3  v108
 BYTE   W06
 BYTE   Ds3  v120
 BYTE   W06
 BYTE   N11  Gs3  v108
 BYTE   W18
 BYTE   N05  Gs3  v068
 BYTE   W06
 BYTE   Gs3  v080
 BYTE   W06
 BYTE   Gs3  v092
 BYTE   W06
 BYTE   Gs3  v100
 BYTE   W04
// 034   ----------------------------------------
 BYTE   W02
 BYTE   Gs3  v112
 BYTE   W06
 BYTE   Gs3  v108
 BYTE   W06
 BYTE   Ds3  v060
 BYTE   W06
 BYTE   Ds3  v068
 BYTE   W06
 BYTE   Ds3  v076
 BYTE   W06
 BYTE   Ds3  v088
 BYTE   W06
 BYTE   Ds3  v096
 BYTE   W06
 BYTE   Ds3  v108
 BYTE   W06
 BYTE   Ds3  v120
 BYTE   W06
 BYTE   N11  En3  v108
 BYTE   W36
 BYTE   N05
 BYTE   W04
// 035   ----------------------------------------
 BYTE   W08
 BYTE   N11  En3  v104
 BYTE   W12
 BYTE   N11
 BYTE   W12
 BYTE   N11
 BYTE   W12
 BYTE   N03  En3  v108
 BYTE   W04
 BYTE   En3  v096
 BYTE   W04
 BYTE   En3  v104
 BYTE   W05
 BYTE   VOICE   41
 BYTE   VOL   63*song2C_mvl/mxv
 BYTE   PAN   c_v-14
 BYTE   N05  An2  v108
 BYTE   W06
 BYTE   An2  v096
 BYTE   W12
 BYTE   An2  v104
 BYTE   W12
 BYTE   Gn2  v108
 BYTE   W09
// 036   ----------------------------------------
Label_6_0143252D:
 BYTE   W03
 BYTE   N05  Gn2  v096
 BYTE   W06
 BYTE   An2  v108
 BYTE   W06
 BYTE   An2  v096
 BYTE   W12
 BYTE   An2  v104
 BYTE   W12
 BYTE   Gn2  v108
 BYTE   W12
 BYTE   Gn2  v096
 BYTE   W06
 BYTE   An2  v108
 BYTE   W06
 BYTE   An2  v096
 BYTE   W12
 BYTE   An2  v104
 BYTE   W12
 BYTE   Gn2  v108
 BYTE   W09
 BYTE   PEND 
// 037   ----------------------------------------
Label_6_0143254E:
 BYTE   W03
 BYTE   N05  Gn2  v096
 BYTE   W06
 BYTE   An2  v108
 BYTE   W06
 BYTE   An2  v096
 BYTE   W12
 BYTE   An2  v104
 BYTE   W12
 BYTE   Gn2  v108
 BYTE   W12
 BYTE   Gn2  v096
 BYTE   W06
 BYTE   Fn2  v108
 BYTE   W06
 BYTE   Fn2  v096
 BYTE   W12
 BYTE   Fn2  v104
 BYTE   W12
 BYTE   En2  v108
 BYTE   W09
 BYTE   PEND 
// 038   ----------------------------------------
 BYTE   W03
 BYTE   En2  v096
 BYTE   W06
 BYTE   Fn2  v108
 BYTE   W06
 BYTE   Fn2  v096
 BYTE   W12
 BYTE   Fn2  v104
 BYTE   W12
 BYTE   En2  v108
 BYTE   W12
 BYTE   En2  v096
 BYTE   W06
 BYTE   Fn2  v108
 BYTE   W06
 BYTE   Fn2  v096
 BYTE   W12
 BYTE   Fn2  v104
 BYTE   W12
 BYTE   En2  v108
 BYTE   W09
// 039   ----------------------------------------
 BYTE   W03
 BYTE   En2  v096
 BYTE   W06
 BYTE   Fn2  v108
 BYTE   W06
 BYTE   Fn2  v096
 BYTE   W12
 BYTE   Fn2  v104
 BYTE   W12
 BYTE   Gn2  v108
 BYTE   W12
 BYTE   Gn2  v096
 BYTE   W06
 BYTE   An2  v108
 BYTE   W06
 BYTE   An2  v096
 BYTE   W12
 BYTE   An2  v104
 BYTE   W12
 BYTE   Gn2  v108
 BYTE   W09
 BYTE   PATT
  POIN2 Label_6_0143252D
 BYTE   PATT
  POIN2 Label_6_0143254E
// 040   ----------------------------------------
 BYTE   W03
 BYTE   N05  En2  v096
 BYTE   W06
 BYTE   Fn2  v108
 BYTE   W06
 BYTE   Fn2  v096
 BYTE   W12
 BYTE   Fn2  v104
 BYTE   W12
 BYTE   En2  v108
 BYTE   W12
 BYTE   En2  v096
 BYTE   W06
 BYTE   Fn2  v108
 BYTE   W06
 BYTE   Fn2  v096
 BYTE   W12
 BYTE   Fn2  v104
 BYTE   W12
 BYTE   Gs2  v108
 BYTE   W09
// 041   ----------------------------------------
 BYTE   W03
 BYTE   Gs2  v096
 BYTE   W06
 BYTE   Cn3  v108
 BYTE   W06
 BYTE   Cn3  v096
 BYTE   W12
 BYTE   Cn3  v104
 BYTE   W12
 BYTE   Cn3  v108
 BYTE   W12
 BYTE   Cn3  v096
 BYTE   W06
 BYTE   Cn2  v060
 BYTE   W06
 BYTE   Cn2  v064
 BYTE   W06
 BYTE   Cn2  v076
 BYTE   W06
 BYTE   Cn2  v084
 BYTE   W06
 BYTE   Cn2  v096
 BYTE   W06
 BYTE   Cn2  v104
 BYTE   W06
 BYTE   Cn2  v116
 BYTE   W03
// 042   ----------------------------------------
 BYTE   W03
 BYTE   Cn2  v124
 BYTE   W06
 BYTE   VOICE   41
 BYTE   VOL   60*song2C_mvl/mxv
 BYTE   PAN   c_v-14
 BYTE   N40  Cn4  v108
 BYTE   W42
 BYTE   N05  Cn4  v092
 BYTE   W06
 BYTE   N40  Gs3  v108
 BYTE   W36
 BYTE   W03
// 043   ----------------------------------------
Label_6_01432616:
 BYTE   W03
 BYTE   N05  Gs3  v092
 BYTE   W06
 BYTE   N40  Fn3  v108
 BYTE   W42
 BYTE   N05  Fn3  v092
 BYTE   W06
 BYTE   N28  Fs3  v108
 BYTE   W30
 BYTE   N05  Fs3  v104
 BYTE   W06
 BYTE   Fs3  v092
 BYTE   W03
 BYTE   PEND 
// 044   ----------------------------------------
Label_6_0143262F:
 BYTE   W03
 BYTE   N05  Fs3  v092
 BYTE   W06
 BYTE   N40  Fs3  v108
 BYTE   W42
 BYTE   N05  Fs3  v092
 BYTE   W06
 BYTE   N40  Dn3  v108
 BYTE   W36
 BYTE   W03
 BYTE   PEND 
// 045   ----------------------------------------
Label_6_01432642:
 BYTE   W03
 BYTE   N05  Dn3  v092
 BYTE   W06
 BYTE   N40  Fs3  v108
 BYTE   W42
 BYTE   N05  Fs3  v092
 BYTE   W06
 BYTE   N40  Dn3  v108
 BYTE   W36
 BYTE   W03
 BYTE   PEND 
// 046   ----------------------------------------
Label_6_01432655:
 BYTE   W03
 BYTE   N05  Dn3  v092
 BYTE   W06
 BYTE   N40  Fs3  v108
 BYTE   W42
 BYTE   N01  Fs3  v104
 BYTE   W02
 BYTE   Fs3  v092
 BYTE   W02
 BYTE   N01
 BYTE   W02
 BYTE   N40  Gn3  v108
 BYTE   W36
 BYTE   W03
 BYTE   PEND 
// 047   ----------------------------------------
Label_6_0143266D:
 BYTE   W03
 BYTE   N05  Gn3  v092
 BYTE   W06
 BYTE   N40  Cn3  v108
 BYTE   W42
 BYTE   N05  Cn3  v092
 BYTE   W06
 BYTE   N40  Gn3  v108
 BYTE   W36
 BYTE   W03
 BYTE   PEND 
 BYTE   PATT
  POIN2 Label_6_0143266D
// 048   ----------------------------------------
Label_6_01432685:
 BYTE   W03
 BYTE   N05  Gn3  v092
 BYTE   W06
 BYTE   N40  Gs3  v108
 BYTE   W42
 BYTE   N05  Gs3  v092
 BYTE   W06
 BYTE   N40  Fn3  v108
 BYTE   W36
 BYTE   W03
 BYTE   PEND 
// 049   ----------------------------------------
Label_6_01432698:
 BYTE   W03
 BYTE   N05  Fn3  v092
 BYTE   W06
 BYTE   Gn3  v108
 BYTE   W06
 BYTE   N02  Gn3  v116
 BYTE   W03
 BYTE   Gn3  v096
 BYTE   W03
 BYTE   N05  Gn3  v108
 BYTE   W06
 BYTE   N02  Gn3  v116
 BYTE   W03
 BYTE   Gn3  v096
 BYTE   W03
 BYTE   N05  Gn3  v108
 BYTE   W06
 BYTE   N02  Gn3  v116
 BYTE   W03
 BYTE   Gn3  v096
 BYTE   W03
 BYTE   N05  Gn3  v108
 BYTE   W06
 BYTE   Gn3  v092
 BYTE   W06
 BYTE   Gn3  v084
 BYTE   W06
 BYTE   Gn3  v076
 BYTE   W06
 BYTE   Gn3  v096
 BYTE   W06
 BYTE   Gn3  v092
 BYTE   W06
 BYTE   Gn3  v108
 BYTE   W06
 BYTE   Gn3  v104
 BYTE   W06
 BYTE   Gn3  v124
 BYTE   W03
 BYTE   PEND 
// 050   ----------------------------------------
 BYTE   W03
 BYTE   Gn3  v116
 BYTE   W06
 BYTE   N40  Cn4  v108
 BYTE   W42
 BYTE   N05  Cn4  v092
 BYTE   W06
 BYTE   N40  Gs3  v108
 BYTE   W36
 BYTE   W03
 BYTE   PATT
  POIN2 Label_6_01432616
 BYTE   PATT
  POIN2 Label_6_0143262F
 BYTE   PATT
  POIN2 Label_6_01432642
 BYTE   PATT
  POIN2 Label_6_01432655
 BYTE   PATT
  POIN2 Label_6_0143266D
 BYTE   PATT
  POIN2 Label_6_0143266D
 BYTE   PATT
  POIN2 Label_6_01432685
 BYTE   PATT
  POIN2 Label_6_01432698
// 051   ----------------------------------------
 BYTE   W03
 BYTE   N05  Gn3  v116
 BYTE   W07
 BYTE   VOICE   41
 BYTE   VOL   56*song2C_mvl/mxv
 BYTE   PAN   c_v-25
 BYTE   N44  Cn4  v104
 BYTE   W48
 BYTE   As3
 BYTE   W36
 BYTE   W02
// 052   ----------------------------------------
Label_6_01432725:
 BYTE   W10
 BYTE   N44  Gs3  v104
 BYTE   W48
 BYTE   N32  Gn3
 BYTE   W36
 BYTE   N11  Gn3  v092
 BYTE   W02
 BYTE   PEND 
// 053   ----------------------------------------
Label_6_01432732:
 BYTE   W10
 BYTE   N44  Cn4  v104
 BYTE   W48
 BYTE   As3
 BYTE   W36
 BYTE   W02
 BYTE   PEND 
 BYTE   PATT
  POIN2 Label_6_01432725
 BYTE   PATT
  POIN2 Label_6_01432732
 BYTE   PATT
  POIN2 Label_6_01432725
 BYTE   PATT
  POIN2 Label_6_01432732
 BYTE   PATT
  POIN2 Label_6_01432725
// 054   ----------------------------------------
 BYTE   W10
 BYTE   VOICE   41
 BYTE   VOL   56*song2C_mvl/mxv
 BYTE   PAN   c_v-14
 BYTE   N11  Cn4  v108
 BYTE   W12
 BYTE   Cn4  v104
 BYTE   W12
 BYTE   Cn4  v108
 BYTE   W12
 BYTE   N11
 BYTE   W12
 BYTE   Cn4  v104
 BYTE   W12
 BYTE   Cn4  v108
 BYTE   W12
 BYTE   N11
 BYTE   W12
 BYTE   Cn4  v104
 BYTE   W02
// 055   ----------------------------------------
 BYTE   W10
 BYTE   Cn4  v108
 BYTE   W12
 BYTE   N11
 BYTE   W12
 BYTE   Cn4  v104
 BYTE   W12
 BYTE   Cn4  v108
 BYTE   W12
 BYTE   VOICE   57
 BYTE   VOL   60*song2C_mvl/mxv
 BYTE   PAN   c_v-14
 BYTE   VOL   60*song2C_mvl/mxv
 BYTE   N03  Cn2
 BYTE   W01
 BYTE   VOL   60*song2C_mvl/mxv
 BYTE   W02
 BYTE   Cs3
 BYTE   W01
 BYTE   Dn3
 BYTE   N03  Cn2  v052
 BYTE   W02
 BYTE   VOL   62*song2C_mvl/mxv
 BYTE   W02
 BYTE   Ds3
 BYTE   N03  Cn2  v040
 BYTE   W02
 BYTE   VOL   64*song2C_mvl/mxv
 BYTE   W02
 BYTE   En3
 BYTE   N03  Cn2  v104
 BYTE   W01
 BYTE   VOL   65*song2C_mvl/mxv
 BYTE   W02
 BYTE   Fs3
 BYTE   W01
 BYTE   N03  Cn2  v044
 BYTE   W01
 BYTE   VOL   66*song2C_mvl/mxv
 BYTE   W03
 BYTE   N03  Cn2  v040
 BYTE   W04
 BYTE   Cn2  v108
 BYTE   W04
 BYTE   Cn2  v052
 BYTE   W04
 BYTE   Cn2  v040
 BYTE   W04
 BYTE   Cn2  v108
 BYTE   W02
// 056   ----------------------------------------
 BYTE   W02
 BYTE   Cn2  v052
 BYTE   W04
 BYTE   Cn2  v040
 BYTE   W04
 BYTE   Cn2  v104
 BYTE   W04
 BYTE   Cn2  v044
 BYTE   W04
 BYTE   Cn2  v040
 BYTE   W04
 BYTE   Cn2  v108
 BYTE   W04
 BYTE   Cn2  v052
 BYTE   W04
 BYTE   Cn2  v040
 BYTE   W04
 BYTE   Cn2  v108
 BYTE   W04
 BYTE   Cn2  v052
 BYTE   W04
 BYTE   Cn2  v040
 BYTE   W04
 BYTE   Cn2  v104
 BYTE   W04
 BYTE   Cn2  v044
 BYTE   W04
 BYTE   Cn2  v040
 BYTE   W04
 BYTE   Cn2  v108
 BYTE   W04
 BYTE   Cn2  v052
 BYTE   W04
 BYTE   Cn2  v040
 BYTE   W04
 BYTE   Cn2  v108
 BYTE   W04
 BYTE   Cn2  v052
 BYTE   W04
 BYTE   Cn2  v040
 BYTE   W04
 BYTE   Cn2  v104
 BYTE   W04
 BYTE   Cn2  v044
 BYTE   W04
 BYTE   Cn2  v040
 BYTE   W04
 BYTE   Cn2  v108
 BYTE   W02
// 057   ----------------------------------------
 BYTE   W02
 BYTE   Cn2  v052
 BYTE   W04
 BYTE   Cn2  v040
 BYTE   W04
 BYTE   Bn1  v108
 BYTE   W04
 BYTE   Bn1  v052
 BYTE   W04
 BYTE   Bn1  v040
 BYTE   W04
 BYTE   Bn1  v108
 BYTE   W04
 BYTE   Bn1  v052
 BYTE   W04
 BYTE   Bn1  v040
 BYTE   W04
 BYTE   Bn1  v108
 BYTE   W04
 BYTE   Bn1  v052
 BYTE   W04
 BYTE   Bn1  v040
 BYTE   W04
 BYTE   Bn1  v108
 BYTE   W04
 BYTE   Bn1  v052
 BYTE   W04
 BYTE   Bn1  v040
 BYTE   W04
 BYTE   Bn1  v108
 BYTE   W04
 BYTE   Bn1  v052
 BYTE   W04
 BYTE   Bn1  v040
 BYTE   W04
 BYTE   Bn1  v108
 BYTE   W04
 BYTE   Bn1  v052
 BYTE   W04
 BYTE   Bn1  v040
 BYTE   W04
 BYTE   As1  v108
 BYTE   W04
 BYTE   As1  v052
 BYTE   W04
 BYTE   As1  v040
 BYTE   W04
 BYTE   As1  v108
 BYTE   W02
// 058   ----------------------------------------
 BYTE   W02
 BYTE   As1  v052
 BYTE   W04
 BYTE   As1  v040
 BYTE   W04
 BYTE   As1  v108
 BYTE   W04
 BYTE   As1  v052
 BYTE   W04
 BYTE   As1  v040
 BYTE   W04
 BYTE   An1  v108
 BYTE   W04
 BYTE   An1  v052
 BYTE   W04
 BYTE   An1  v040
 BYTE   W04
 BYTE   An1  v108
 BYTE   W04
 BYTE   An1  v052
 BYTE   W04
 BYTE   An1  v040
 BYTE   W04
 BYTE   An1  v108
 BYTE   W04
 BYTE   An1  v052
 BYTE   W04
 BYTE   An1  v040
 BYTE   W04
 BYTE   Gs1  v108
 BYTE   W04
 BYTE   Gs1  v052
 BYTE   W04
 BYTE   Gs1  v040
 BYTE   W04
 BYTE   Gs1  v108
 BYTE   W04
 BYTE   Gs1  v052
 BYTE   W04
 BYTE   Gs1  v040
 BYTE   W04
 BYTE   Gs1  v108
 BYTE   W04
 BYTE   Gs1  v052
 BYTE   W04
 BYTE   Gs1  v040
 BYTE   W04
 BYTE   Gn1  v108
 BYTE   W02
// 059   ----------------------------------------
 BYTE   W02
 BYTE   Gn1  v052
 BYTE   W04
 BYTE   Gn1  v040
 BYTE   W04
 BYTE   Gn1  v108
 BYTE   W04
 BYTE   Gn1  v052
 BYTE   W04
 BYTE   Gn1  v040
 BYTE   W04
 BYTE   Gn1  v108
 BYTE   W04
 BYTE   Gn1  v052
 BYTE   W04
 BYTE   Gn1  v040
 BYTE   W04
 BYTE   Cn2  v108
 BYTE   W04
 BYTE   Cn2  v052
 BYTE   W04
 BYTE   Cn2  v040
 BYTE   W04
 BYTE   Cn2  v104
 BYTE   W04
 BYTE   Cn2  v044
 BYTE   W04
 BYTE   Cn2  v040
 BYTE   W04
 BYTE   Cn2  v108
 BYTE   W04
 BYTE   Cn2  v052
 BYTE   W04
 BYTE   Cn2  v040
 BYTE   W04
 BYTE   Cn2  v108
 BYTE   W04
 BYTE   Cn2  v052
 BYTE   W04
 BYTE   Cn2  v040
 BYTE   W04
 BYTE   Cn2  v104
 BYTE   W04
 BYTE   Cn2  v044
 BYTE   W04
 BYTE   Cn2  v040
 BYTE   W04
 BYTE   Cn2  v108
 BYTE   W02
// 060   ----------------------------------------
 BYTE   W02
 BYTE   Cn2  v052
 BYTE   W04
 BYTE   Cn2  v040
 BYTE   W04
 BYTE   Cn2  v108
 BYTE   W04
 BYTE   Cn2  v052
 BYTE   W04
 BYTE   Cn2  v040
 BYTE   W04
 BYTE   Cn2  v104
 BYTE   W04
 BYTE   Cn2  v044
 BYTE   W04
 BYTE   Cn2  v040
 BYTE   W04
 BYTE   Cn2  v108
 BYTE   W04
 BYTE   Cn2  v052
 BYTE   W04
 BYTE   Cn2  v040
 BYTE   W04
 BYTE   Cn2  v108
 BYTE   W04
 BYTE   Cn2  v052
 BYTE   W04
 BYTE   Cn2  v040
 BYTE   W04
 BYTE   Cn2  v104
 BYTE   W04
 BYTE   Cn2  v044
 BYTE   W04
 BYTE   Cn2  v040
 BYTE   W04
 BYTE   Cn2  v108
 BYTE   W04
 BYTE   Cn2  v052
 BYTE   W04
 BYTE   Cn2  v040
 BYTE   W05
 BYTE   VOICE   57
 BYTE   VOL   66*song2C_mvl/mxv
 BYTE   PAN   c_v-14
 BYTE   N11  Cn2  v108
 BYTE   W12
 BYTE   Cn2  v104
 BYTE   W01
// 061   ----------------------------------------
 BYTE   W11
 BYTE   Cn2  v108
 BYTE   W12
 BYTE   N11
 BYTE   W12
 BYTE   Cn2  v104
 BYTE   W12
 BYTE   Cn2  v108
 BYTE   W12
 BYTE   As1
 BYTE   W12
 BYTE   As1  v104
 BYTE   W12
 BYTE   As1  v108
 BYTE   W12
 BYTE   N11
 BYTE   W01
// 062   ----------------------------------------
 BYTE   W11
 BYTE   As1  v104
 BYTE   W12
 BYTE   As1  v108
 BYTE   W12
 BYTE   Cn2
 BYTE   W12
 BYTE   Cn2  v104
 BYTE   W12
 BYTE   Cn2  v108
 BYTE   W12
 BYTE   N11
 BYTE   W12
 BYTE   Cn2  v104
 BYTE   W12
 BYTE   Cn2  v108
 BYTE   W01
// 063   ----------------------------------------
 BYTE   W11
 BYTE   As1
 BYTE   W12
 BYTE   As1  v104
 BYTE   W12
 BYTE   As1  v108
 BYTE   W12
 BYTE   N11
 BYTE   W12
 BYTE   As1  v104
 BYTE   W12
 BYTE   As1  v108
 BYTE   W12
 BYTE   Fn1
 BYTE   W12
 BYTE   Fn1  v104
 BYTE   W01
// 064   ----------------------------------------
 BYTE   W11
 BYTE   Fn1  v108
 BYTE   W12
 BYTE   N11
 BYTE   W12
 BYTE   Fn1  v104
 BYTE   W12
 BYTE   Fn1  v108
 BYTE   W12
 BYTE   Cn2
 BYTE   W12
 BYTE   Cn2  v104
 BYTE   W12
 BYTE   Cn2  v108
 BYTE   W12
 BYTE   N11
 BYTE   W01
// 065   ----------------------------------------
 BYTE   W11
 BYTE   Cn2  v104
 BYTE   W12
 BYTE   Cn2  v108
 BYTE   W12
 BYTE   Fn1
 BYTE   W12
 BYTE   Fn1  v104
 BYTE   W12
 BYTE   Fn1  v108
 BYTE   W12
 BYTE   Gn1
 BYTE   W12
 BYTE   Gn1  v104
 BYTE   W12
 BYTE   Gn1  v108
 BYTE   W01
// 066   ----------------------------------------
 BYTE   W11
 BYTE   Cn2
 BYTE   W12
 BYTE   Cn2  v104
 BYTE   W12
 BYTE   Cn2  v108
 BYTE   W12
 BYTE   N11
 BYTE   W12
 BYTE   Cn2  v104
 BYTE   W12
 BYTE   Cn2  v108
 BYTE   W12
 BYTE   Fn1
 BYTE   W12
 BYTE   Fn1  v104
 BYTE   W01
// 067   ----------------------------------------
 BYTE   W11
 BYTE   Fn1  v108
 BYTE   W12
 BYTE   Gn1
 BYTE   W12
 BYTE   Gn1  v104
 BYTE   W12
 BYTE   Gn1  v108
 BYTE   W12
 BYTE   En1
 BYTE   W12
 BYTE   En1  v104
 BYTE   W12
 BYTE   En1  v108
 BYTE   W12
 BYTE   An1
 BYTE   W01
// 068   ----------------------------------------
 BYTE   W11
 BYTE   An1  v104
 BYTE   W12
 BYTE   An1  v108
 BYTE   W12
 BYTE   Fn1
 BYTE   W12
 BYTE   Fn1  v104
 BYTE   W12
 BYTE   Fn1  v108
 BYTE   W12
 BYTE   N11
 BYTE   W12
 BYTE   Fn1  v104
 BYTE   W12
 BYTE   Fn1  v108
 BYTE   W01
// 069   ----------------------------------------
 BYTE   W11
 BYTE   Gn1
 BYTE   W12
 BYTE   Gn1  v104
 BYTE   W12
 BYTE   Gn1  v108
 BYTE   W12
 BYTE   N11
 BYTE   W12
 BYTE   Gn1  v104
 BYTE   W12
 BYTE   Gn1  v108
 BYTE   W12
 BYTE   Fn1
 BYTE   W12
 BYTE   Fn1  v104
 BYTE   W01
// 070   ----------------------------------------
 BYTE   W11
 BYTE   Fn1  v108
 BYTE   W12
 BYTE   Gn1
 BYTE   W12
 BYTE   Gn1  v104
 BYTE   W12
 BYTE   Gn1  v108
 BYTE   W12
 BYTE   Cn2
 BYTE   W12
 BYTE   Cn2  v104
 BYTE   W12
 BYTE   Bn1  v108
 BYTE   W12
 BYTE   An1
 BYTE   W01
// 071   ----------------------------------------
 BYTE   W11
 BYTE   An1  v104
 BYTE   W12
 BYTE   Gn1  v108
 BYTE   W12
 BYTE   Fn1
 BYTE   W12
 BYTE   Fn1  v104
 BYTE   W12
 BYTE   Fn1  v108
 BYTE   W12
 BYTE   N11
 BYTE   W12
 BYTE   Fn1  v104
 BYTE   W12
 BYTE   Fn1  v108
 BYTE   W01
// 072   ----------------------------------------
 BYTE   W11
 BYTE   Gn1
 BYTE   W12
 BYTE   Gn1  v104
 BYTE   W12
 BYTE   Gn1  v108
 BYTE   W12
 BYTE   N11
 BYTE   W12
 BYTE   Gn1  v104
 BYTE   W12
 BYTE   Gn1  v108
 BYTE   W12
 BYTE   Cn2
 BYTE   W12
 BYTE   Cn2  v104
 BYTE   W01
// 073   ----------------------------------------
 BYTE   W11
 BYTE   Cn2  v108
 BYTE   W12
 BYTE   N11
 BYTE   W12
 BYTE   Cn2  v104
 BYTE   W12
 BYTE   Cn2  v108
 BYTE   W12
 BYTE   Fn1
 BYTE   W12
 BYTE   Fn1  v104
 BYTE   W12
 BYTE   Fn1  v108
 BYTE   W12
 BYTE   N11
 BYTE   W01
// 074   ----------------------------------------
 BYTE   W11
 BYTE   Fn1  v104
 BYTE   W12
 BYTE   En1  v108
 BYTE   W12
 BYTE   Dn1
 BYTE   W12
 BYTE   Dn1  v104
 BYTE   W12
 BYTE   Dn1  v108
 BYTE   W12
 BYTE   N11
 BYTE   W12
 BYTE   Dn1  v104
 BYTE   W12
 BYTE   Dn1  v108
 BYTE   W01
// 075   ----------------------------------------
 BYTE   W11
 BYTE   Gn1
 BYTE   W12
 BYTE   Gn1  v104
 BYTE   W12
 BYTE   Gn1  v108
 BYTE   W12
 BYTE   Fn1
 BYTE   W12
 BYTE   Fn1  v104
 BYTE   W12
 BYTE   Fn1  v108
 BYTE   W12
 BYTE   Cn1
 BYTE   W12
 BYTE   Cn1  v104
 BYTE   W01
// 076   ----------------------------------------
 BYTE   W11
 BYTE   Cn1  v108
 BYTE   W12
 BYTE   N11
 BYTE   W12
 BYTE   Cn1  v104
 BYTE   W12
 BYTE   Cn1  v108
 BYTE   W12
 BYTE   Fn1
 BYTE   W12
 BYTE   Fn1  v104
 BYTE   W12
 BYTE   Fn1  v108
 BYTE   W12
 BYTE   N11
 BYTE   W01
// 077   ----------------------------------------
 BYTE   W11
 BYTE   Fn1  v104
 BYTE   W12
 BYTE   Fn1  v108
 BYTE   W12
 BYTE   Dn1
 BYTE   W12
 BYTE   Dn1  v104
 BYTE   W12
 BYTE   Dn1  v108
 BYTE   W12
 BYTE   Gn1
 BYTE   W12
 BYTE   Gn1  v104
 BYTE   W12
 BYTE   Gn1  v108
 BYTE   W01
// 078   ----------------------------------------
Label_6_01432AA9:
 BYTE   W11
 BYTE   N11  Cn1  v108
 BYTE   W12
 BYTE   Cn1  v104
 BYTE   W12
 BYTE   Cn1  v108
 BYTE   W12
 BYTE   N11
 BYTE   W12
 BYTE   Cn1  v104
 BYTE   W12
 BYTE   Cs1  v108
 BYTE   W12
 BYTE   Dn1
 BYTE   W12
 BYTE   Dn1  v104
 BYTE   W01
 BYTE   PEND 
// 079   ----------------------------------------
Label_6_01432AC2:
 BYTE   W11
 BYTE   N11  Dn1  v108
 BYTE   W12
 BYTE   Gn1
 BYTE   W12
 BYTE   Gn1  v104
 BYTE   W12
 BYTE   Gn1  v108
 BYTE   W12
 BYTE   En1
 BYTE   W12
 BYTE   En1  v104
 BYTE   W12
 BYTE   En1  v108
 BYTE   W12
 BYTE   An1
 BYTE   W01
 BYTE   PEND 
// 080   ----------------------------------------
 BYTE   W11
 BYTE   An1  v104
 BYTE   W12
 BYTE   Gn1  v108
 BYTE   W12
 BYTE   Fn1
 BYTE   W12
 BYTE   Fn1  v104
 BYTE   W12
 BYTE   Fn1  v108
 BYTE   W12
 BYTE   Gn1
 BYTE   W12
 BYTE   Gn1  v104
 BYTE   W12
 BYTE   Gn1  v108
 BYTE   W01
 BYTE   PATT
  POIN2 Label_6_01432AA9
 BYTE   PATT
  POIN2 Label_6_01432AC2
// 081   ----------------------------------------
 BYTE   W11
 BYTE   N11  An1  v104
 BYTE   W12
 BYTE   Gn1  v108
 BYTE   W12
 BYTE   Fn1
 BYTE   W12
 BYTE   Fn1  v104
 BYTE   W12
 BYTE   Fn1  v108
 BYTE   W12
 BYTE   Fs1
 BYTE   W12
 BYTE   Fs1  v104
 BYTE   W12
 BYTE   Fs1  v108
 BYTE   W01
// 082   ----------------------------------------
 BYTE   W11
 BYTE   Gn1
 BYTE   W12
 BYTE   Gn1  v104
 BYTE   W12
 BYTE   Gn1  v108
 BYTE   W12
 BYTE   N11
 BYTE   W12
 BYTE   Gn1  v104
 BYTE   W12
 BYTE   Gn1  v108
 BYTE   W12
 BYTE   N03  Cn2
 BYTE   W04
 BYTE   Cn2  v052
 BYTE   W04
 BYTE   Cn2  v044
 BYTE   W04
 BYTE   Cn2  v040
 BYTE   W01
// 083   ----------------------------------------
 BYTE   W03
 BYTE   Cn2  v032
 BYTE   W04
 BYTE   Cn2  v028
 BYTE   W04
 BYTE   Cn2  v108
 BYTE   W04
 BYTE   Cn2  v052
 BYTE   W04
 BYTE   Cn2  v044
 BYTE   W04
 BYTE   Cn2  v116
 BYTE   W04
 BYTE   Cn2  v060
 BYTE   W04
 BYTE   Cn2  v052
 BYTE   W04
 BYTE   Cn2  v044
 BYTE   W04
 BYTE   Cn2  v040
 BYTE   W04
 BYTE   Cn2  v032
 BYTE   W04
 BYTE   Cn2  v116
 BYTE   W04
 BYTE   Cn2  v052
 BYTE   W04
 BYTE   Cn2  v044
 BYTE   W04
 BYTE   Cn2  v108
 BYTE   W04
 BYTE   Cn2  v052
 BYTE   W04
 BYTE   Cn2  v044
 BYTE   W04
 BYTE   Cn2  v040
 BYTE   W04
 BYTE   Cn2  v032
 BYTE   W04
 BYTE   Cn2  v028
 BYTE   W04
 BYTE   Gn1  v108
 BYTE   W04
 BYTE   Gn1  v052
 BYTE   W04
 BYTE   Gn1  v044
 BYTE   W04
 BYTE   Cn1  v108
 BYTE   W01
// 084   ----------------------------------------
 BYTE   W03
 BYTE   Cn1  v052
 BYTE   W04
 BYTE   Cn1  v044
 BYTE   W04
 BYTE   Cn1  v040
 BYTE   W04
 BYTE   Cn1  v032
 BYTE   W04
 BYTE   Cn1  v028
 BYTE   W48
 BYTE   W03
 BYTE   FINE

//**************** Track 8 (Midi-Chn.7) ****************//

song2C_008:
// 000   ----------------------------------------
 BYTE   KEYSH   song2C_key+0
 BYTE   W96
// 001   ----------------------------------------
 BYTE   W96
// 002   ----------------------------------------
 BYTE   W06
 BYTE   VOL   70*song2C_mvl/mxv
 BYTE   W90
// 003   ----------------------------------------
 BYTE   W96
// 004   ----------------------------------------
 BYTE   W96
// 005   ----------------------------------------
 BYTE   W96
// 006   ----------------------------------------
 BYTE   W96
// 007   ----------------------------------------
 BYTE   W96
// 008   ----------------------------------------
 BYTE   W96
// 009   ----------------------------------------
 BYTE   W96
// 010   ----------------------------------------
 BYTE   W96
// 011   ----------------------------------------
 BYTE   W96
// 012   ----------------------------------------
 BYTE   W96
// 013   ----------------------------------------
 BYTE   W96
// 014   ----------------------------------------
 BYTE   W96
// 015   ----------------------------------------
 BYTE   W96
// 016   ----------------------------------------
Label_7_01432BA1:
 BYTE   W07
 BYTE   VOL   70*song2C_mvl/mxv
 BYTE   W88
 BYTE   W01
 BYTE   PEND 
// 017   ----------------------------------------
 BYTE   W96
// 018   ----------------------------------------
 BYTE   W07
 BYTE   Cs4
 BYTE   W88
 BYTE   W01
// 019   ----------------------------------------
 BYTE   W96
// 020   ----------------------------------------
 BYTE   W96
// 021   ----------------------------------------
 BYTE   W96
// 022   ----------------------------------------
 BYTE   W07
 BYTE   En4
 BYTE   W88
 BYTE   W01
// 023   ----------------------------------------
 BYTE   W96
// 024   ----------------------------------------
 BYTE   W96
// 025   ----------------------------------------
 BYTE   W96
// 026   ----------------------------------------
 BYTE   W96
// 027   ----------------------------------------
 BYTE   W96
// 028   ----------------------------------------
 BYTE   W07
 BYTE   En4
 BYTE   W02
 BYTE   Fn4
 BYTE   W05
 BYTE   Fs4
 BYTE   W04
 BYTE   Fs4
 BYTE   W05
 BYTE   Gn4
 BYTE   W05
 BYTE   Gs4
 BYTE   W68
// 029   ----------------------------------------
 BYTE   W96
// 030   ----------------------------------------
 BYTE   W07
 BYTE   Gs4
 BYTE   W06
 BYTE   Gn4
 BYTE   W12
 BYTE   Fs4
 BYTE   W13
 BYTE   Fs4
 BYTE   W12
 BYTE   Fn4
 BYTE   W13
 BYTE   En4
 BYTE   W12
 BYTE   En4
 BYTE   W13
 BYTE   Ds4
 BYTE   W08
// 031   ----------------------------------------
 BYTE   W04
 BYTE   Dn4
 BYTE   W13
 BYTE   Dn4
 BYTE   W12
 BYTE   Cs4
 BYTE   W66
 BYTE   W01
 BYTE   PATT
  POIN2 Label_7_01432BA1
// 032   ----------------------------------------
 BYTE   W96
// 033   ----------------------------------------
 BYTE   W96
// 034   ----------------------------------------
 BYTE   W96
// 035   ----------------------------------------
 BYTE   W96
// 036   ----------------------------------------
 BYTE   W96
// 037   ----------------------------------------
 BYTE   W96
// 038   ----------------------------------------
 BYTE   W96
// 039   ----------------------------------------
 BYTE   W96
// 040   ----------------------------------------
 BYTE   W08
 BYTE   VOL   70*song2C_mvl/mxv
 BYTE   W88
// 041   ----------------------------------------
 BYTE   W96
// 042   ----------------------------------------
 BYTE   W96
// 043   ----------------------------------------
 BYTE   W96
// 044   ----------------------------------------
 BYTE   W96
// 045   ----------------------------------------
 BYTE   W96
// 046   ----------------------------------------
 BYTE   W08
 BYTE   As3
 BYTE   W88
// 047   ----------------------------------------
 BYTE   W96
// 048   ----------------------------------------
 BYTE   W96
// 049   ----------------------------------------
 BYTE   W96
// 050   ----------------------------------------
 BYTE   W96
// 051   ----------------------------------------
 BYTE   W96
// 052   ----------------------------------------
 BYTE   W96
// 053   ----------------------------------------
 BYTE   W96
// 054   ----------------------------------------
 BYTE   W56
 BYTE   W01
 BYTE   Cs4
 BYTE   W36
 BYTE   W03
// 055   ----------------------------------------
 BYTE   W96
// 056   ----------------------------------------
 BYTE   W96
// 057   ----------------------------------------
 BYTE   W96
// 058   ----------------------------------------
 BYTE   W96
// 059   ----------------------------------------
 BYTE   W96
// 060   ----------------------------------------
 BYTE   W96
// 061   ----------------------------------------
 BYTE   W96
// 062   ----------------------------------------
 BYTE   W96
// 063   ----------------------------------------
 BYTE   W09
 BYTE   VOICE   45
 BYTE   VOL   76*song2C_mvl/mxv
 BYTE   PAN   c_v+14
 BYTE   N40  Cn3  v108
 BYTE   W42
 BYTE   N05  Cn3  v092
 BYTE   W06
 BYTE   N40  Gs2  v108
 BYTE   W36
 BYTE   W03
// 064   ----------------------------------------
Label_7_01432C20:
 BYTE   W03
 BYTE   N05  Gs2  v092
 BYTE   W06
 BYTE   N40  Fn2  v108
 BYTE   W42
 BYTE   N05  Fn2  v092
 BYTE   W06
 BYTE   N28  Fs2  v108
 BYTE   W30
 BYTE   N05  Fs2  v104
 BYTE   W06
 BYTE   Fs2  v092
 BYTE   W03
 BYTE   PEND 
// 065   ----------------------------------------
Label_7_01432C39:
 BYTE   W03
 BYTE   N05  Fs2  v092
 BYTE   W06
 BYTE   N40  Fs2  v108
 BYTE   W42
 BYTE   N05  Fs2  v092
 BYTE   W06
 BYTE   N40  Dn2  v108
 BYTE   W36
 BYTE   W03
 BYTE   PEND 
// 066   ----------------------------------------
Label_7_01432C4C:
 BYTE   W03
 BYTE   N05  Dn2  v092
 BYTE   W06
 BYTE   N40  Fs2  v108
 BYTE   W42
 BYTE   N05  Fs2  v092
 BYTE   W06
 BYTE   N40  Dn2  v108
 BYTE   W36
 BYTE   W03
 BYTE   PEND 
// 067   ----------------------------------------
Label_7_01432C5F:
 BYTE   W03
 BYTE   N05  Dn2  v092
 BYTE   W06
 BYTE   N40  Fs2  v108
 BYTE   W42
 BYTE   N01  Fs2  v104
 BYTE   W02
 BYTE   Fs2  v092
 BYTE   W02
 BYTE   N01
 BYTE   W02
 BYTE   N40  Gn2  v108
 BYTE   W36
 BYTE   W03
 BYTE   PEND 
// 068   ----------------------------------------
Label_7_01432C77:
 BYTE   W03
 BYTE   N05  Gn2  v092
 BYTE   W06
 BYTE   N40  Cn2  v108
 BYTE   W42
 BYTE   N05  Cn2  v092
 BYTE   W06
 BYTE   N40  Gn2  v108
 BYTE   W36
 BYTE   W03
 BYTE   PEND 
 BYTE   PATT
  POIN2 Label_7_01432C77
// 069   ----------------------------------------
Label_7_01432C8F:
 BYTE   W03
 BYTE   N05  Gn2  v092
 BYTE   W06
 BYTE   N40  Gs2  v108
 BYTE   W42
 BYTE   N05  Gs2  v092
 BYTE   W06
 BYTE   N40  Fn2  v108
 BYTE   W36
 BYTE   W03
 BYTE   PEND 
// 070   ----------------------------------------
Label_7_01432CA2:
 BYTE   W03
 BYTE   N05  Fn2  v092
 BYTE   W06
 BYTE   Gn2  v108
 BYTE   W06
 BYTE   N02  Gn2  v116
 BYTE   W03
 BYTE   Gn2  v096
 BYTE   W03
 BYTE   N05  Gn2  v108
 BYTE   W06
 BYTE   N02  Gn2  v116
 BYTE   W03
 BYTE   Gn2  v096
 BYTE   W03
 BYTE   N05  Gn2  v108
 BYTE   W06
 BYTE   N02  Gn2  v116
 BYTE   W03
 BYTE   Gn2  v096
 BYTE   W03
 BYTE   N05  Gn2  v108
 BYTE   W06
 BYTE   Gn2  v092
 BYTE   W06
 BYTE   Gn2  v084
 BYTE   W06
 BYTE   Dn2  v064
 BYTE   W06
 BYTE   Gn2  v096
 BYTE   W06
 BYTE   Dn2  v076
 BYTE   W06
 BYTE   Gn2  v108
 BYTE   W06
 BYTE   Dn2  v092
 BYTE   W06
 BYTE   Gn2  v124
 BYTE   W03
 BYTE   PEND 
// 071   ----------------------------------------
 BYTE   W03
 BYTE   Dn2  v104
 BYTE   W06
 BYTE   N40  Cn3  v108
 BYTE   W42
 BYTE   N05  Cn3  v092
 BYTE   W06
 BYTE   N40  Gs2  v108
 BYTE   W36
 BYTE   W03
 BYTE   PATT
  POIN2 Label_7_01432C20
 BYTE   PATT
  POIN2 Label_7_01432C39
 BYTE   PATT
  POIN2 Label_7_01432C4C
 BYTE   PATT
  POIN2 Label_7_01432C5F
 BYTE   PATT
  POIN2 Label_7_01432C77
 BYTE   PATT
  POIN2 Label_7_01432C77
 BYTE   PATT
  POIN2 Label_7_01432C8F
 BYTE   PATT
  POIN2 Label_7_01432CA2
// 072   ----------------------------------------
 BYTE   W03
 BYTE   N05  Dn2  v104
 BYTE   W07
 BYTE   VOICE   45
 BYTE   VOL   80*song2C_mvl/mxv
 BYTE   PAN   c_v+14
 BYTE   N44  Gn2  v116
 BYTE   W48
 BYTE   N44
 BYTE   W36
 BYTE   W02
// 073   ----------------------------------------
Label_7_01432D2F:
 BYTE   W10
 BYTE   N44  Gn2  v116
 BYTE   W48
 BYTE   N32
 BYTE   W36
 BYTE   N11  Dn2  v092
 BYTE   W02
 BYTE   PEND 
// 074   ----------------------------------------
Label_7_01432D3B:
 BYTE   W10
 BYTE   N05  Gn2  v124
 BYTE   W06
 BYTE   Dn2  v084
 BYTE   W06
 BYTE   Gn2  v108
 BYTE   W06
 BYTE   Dn2  v076
 BYTE   W06
 BYTE   Gn2  v112
 BYTE   W06
 BYTE   Dn2  v076
 BYTE   W06
 BYTE   Gn2  v108
 BYTE   W06
 BYTE   Dn2  v076
 BYTE   W06
 BYTE   Gn2  v124
 BYTE   W06
 BYTE   Dn2  v084
 BYTE   W06
 BYTE   Gn2  v108
 BYTE   W06
 BYTE   Dn2  v076
 BYTE   W06
 BYTE   Gn2  v112
 BYTE   W06
 BYTE   Dn2  v076
 BYTE   W06
 BYTE   Gn2  v108
 BYTE   W02
 BYTE   PEND 
// 075   ----------------------------------------
Label_7_01432D6B:
 BYTE   W04
 BYTE   N05  Dn2  v076
 BYTE   W06
 BYTE   Gn2  v124
 BYTE   W06
 BYTE   Dn2  v084
 BYTE   W06
 BYTE   Gn2  v108
 BYTE   W06
 BYTE   Dn2  v076
 BYTE   W06
 BYTE   Gn2  v112
 BYTE   W06
 BYTE   Dn2  v076
 BYTE   W06
 BYTE   Gn2  v108
 BYTE   W06
 BYTE   Dn2  v076
 BYTE   W06
 BYTE   Gn2  v124
 BYTE   W06
 BYTE   Dn2  v084
 BYTE   W06
 BYTE   Gn2  v108
 BYTE   W06
 BYTE   Dn2  v076
 BYTE   W06
 BYTE   Gn2  v112
 BYTE   W06
 BYTE   Dn2  v076
 BYTE   W06
 BYTE   Gn2  v108
 BYTE   W02
 BYTE   PEND 
// 076   ----------------------------------------
 BYTE   W04
 BYTE   Dn2  v076
 BYTE   W06
 BYTE   N44  Gn2  v116
 BYTE   W48
 BYTE   N44
 BYTE   W36
 BYTE   W02
 BYTE   PATT
  POIN2 Label_7_01432D2F
 BYTE   PATT
  POIN2 Label_7_01432D3B
 BYTE   PATT
  POIN2 Label_7_01432D6B
// 077   ----------------------------------------
 BYTE   W04
 BYTE   N05  Dn2  v076
 BYTE   W06
 BYTE   VOICE   45
 BYTE   VOL   80*song2C_mvl/mxv
 BYTE   PAN   c_v+14
 BYTE   N32  Gn2  v116
 BYTE   W84
 BYTE   W02
// 078   ----------------------------------------
 BYTE   W56
 BYTE   W02
 BYTE   VOICE   41
 BYTE   VOL   56*song2C_mvl/mxv
 BYTE   PAN   c_v-14
 BYTE   N11  Cn4  v108
 BYTE   W12
 BYTE   Cn4  v104
 BYTE   W12
 BYTE   Cn4  v108
 BYTE   W12
 BYTE   N11
 BYTE   W02
// 079   ----------------------------------------
 BYTE   W10
 BYTE   Cn4  v104
 BYTE   W12
 BYTE   Cn4  v108
 BYTE   W12
 BYTE   N11
 BYTE   W12
 BYTE   Cn4  v104
 BYTE   W12
 BYTE   Cn4  v108
 BYTE   W12
 BYTE   N11
 BYTE   W12
 BYTE   Cn4  v104
 BYTE   W12
 BYTE   Cn4  v108
 BYTE   W02
// 080   ----------------------------------------
 BYTE   W10
 BYTE   Bn3
 BYTE   W12
 BYTE   Bn3  v104
 BYTE   W12
 BYTE   Bn3  v108
 BYTE   W12
 BYTE   N11
 BYTE   W12
 BYTE   Bn3  v104
 BYTE   W12
 BYTE   Bn3  v108
 BYTE   W12
 BYTE   As3
 BYTE   W12
 BYTE   As3  v104
 BYTE   W02
// 081   ----------------------------------------
 BYTE   W10
 BYTE   As3  v108
 BYTE   W12
 BYTE   An3
 BYTE   W12
 BYTE   An3  v104
 BYTE   W12
 BYTE   An3  v108
 BYTE   W12
 BYTE   Gs3
 BYTE   W12
 BYTE   Gs3  v104
 BYTE   W12
 BYTE   Gs3  v108
 BYTE   W12
 BYTE   Gn3
 BYTE   W02
// 082   ----------------------------------------
 BYTE   W10
 BYTE   Gn3  v104
 BYTE   W12
 BYTE   Gn3  v108
 BYTE   W12
 BYTE   Cn4
 BYTE   W12
 BYTE   Cn4  v104
 BYTE   W12
 BYTE   Cn4  v108
 BYTE   W12
 BYTE   N11
 BYTE   W12
 BYTE   Cn4  v104
 BYTE   W12
 BYTE   Cn4  v108
 BYTE   W02
// 083   ----------------------------------------
 BYTE   W10
 BYTE   N11
 BYTE   W12
 BYTE   Cn4  v104
 BYTE   W12
 BYTE   Cn4  v108
 BYTE   W12
 BYTE   N11
 BYTE   W12
 BYTE   Cn4  v104
 BYTE   W12
 BYTE   Cn4  v108
 BYTE   W13
 BYTE   VOICE   41
 BYTE   VOL   56*song2C_mvl/mxv
 BYTE   PAN   c_v-14
 BYTE   N11
 BYTE   W12
 BYTE   Cn4  v104
 BYTE   W01
// 084   ----------------------------------------
 BYTE   W11
 BYTE   Cn4  v108
 BYTE   W12
 BYTE   N11
 BYTE   W12
 BYTE   Cn4  v104
 BYTE   W12
 BYTE   Cn4  v108
 BYTE   W12
 BYTE   As3
 BYTE   W12
 BYTE   As3  v104
 BYTE   W12
 BYTE   As3  v108
 BYTE   W12
 BYTE   N11
 BYTE   W01
// 085   ----------------------------------------
 BYTE   W11
 BYTE   As3  v104
 BYTE   W12
 BYTE   As3  v108
 BYTE   W12
 BYTE   Cn4
 BYTE   W12
 BYTE   Cn4  v104
 BYTE   W12
 BYTE   Cn4  v108
 BYTE   W12
 BYTE   N11
 BYTE   W12
 BYTE   Cn4  v104
 BYTE   W12
 BYTE   Cn4  v108
 BYTE   W01
// 086   ----------------------------------------
 BYTE   W11
 BYTE   As3
 BYTE   W12
 BYTE   As3  v104
 BYTE   W12
 BYTE   As3  v108
 BYTE   W12
 BYTE   N11
 BYTE   W12
 BYTE   As3  v104
 BYTE   W12
 BYTE   As3  v108
 BYTE   W12
 BYTE   Fn3
 BYTE   W12
 BYTE   Fn3  v104
 BYTE   W01
// 087   ----------------------------------------
 BYTE   W11
 BYTE   Fn3  v108
 BYTE   W12
 BYTE   N11
 BYTE   W12
 BYTE   Fn3  v104
 BYTE   W12
 BYTE   Fn3  v108
 BYTE   W12
 BYTE   Cn4
 BYTE   W12
 BYTE   Cn4  v104
 BYTE   W12
 BYTE   Cn4  v108
 BYTE   W12
 BYTE   N11
 BYTE   W01
// 088   ----------------------------------------
 BYTE   W11
 BYTE   Cn4  v104
 BYTE   W12
 BYTE   Cn4  v108
 BYTE   W12
 BYTE   Fn3
 BYTE   W12
 BYTE   Fn3  v104
 BYTE   W12
 BYTE   Fn3  v108
 BYTE   W12
 BYTE   Gn3
 BYTE   W12
 BYTE   Gn3  v104
 BYTE   W12
 BYTE   Gn3  v108
 BYTE   W01
// 089   ----------------------------------------
 BYTE   W11
 BYTE   Cn4
 BYTE   W12
 BYTE   Cn4  v104
 BYTE   W12
 BYTE   Cn4  v108
 BYTE   W12
 BYTE   N11
 BYTE   W12
 BYTE   Cn4  v104
 BYTE   W12
 BYTE   Cn4  v108
 BYTE   W12
 BYTE   Fn3
 BYTE   W12
 BYTE   Fn3  v104
 BYTE   W01
// 090   ----------------------------------------
 BYTE   W11
 BYTE   Fn3  v108
 BYTE   W12
 BYTE   Gn3
 BYTE   W12
 BYTE   Gn3  v104
 BYTE   W12
 BYTE   Gn3  v108
 BYTE   W12
 BYTE   En3
 BYTE   W12
 BYTE   En3  v104
 BYTE   W12
 BYTE   En3  v108
 BYTE   W12
 BYTE   An3
 BYTE   W01
// 091   ----------------------------------------
 BYTE   W11
 BYTE   An3  v104
 BYTE   W12
 BYTE   An3  v108
 BYTE   W12
 BYTE   Fn3
 BYTE   W12
 BYTE   Fn3  v104
 BYTE   W12
 BYTE   Fn3  v108
 BYTE   W12
 BYTE   N11
 BYTE   W12
 BYTE   Fn3  v104
 BYTE   W12
 BYTE   Fn3  v108
 BYTE   W01
// 092   ----------------------------------------
 BYTE   W11
 BYTE   Gn3
 BYTE   W12
 BYTE   Gn3  v104
 BYTE   W12
 BYTE   Gn3  v108
 BYTE   W12
 BYTE   N11
 BYTE   W12
 BYTE   Gn3  v104
 BYTE   W12
 BYTE   Gn3  v108
 BYTE   W12
 BYTE   Fn3
 BYTE   W12
 BYTE   Fn3  v104
 BYTE   W01
// 093   ----------------------------------------
 BYTE   W11
 BYTE   Fn3  v108
 BYTE   W12
 BYTE   Gn3
 BYTE   W12
 BYTE   Gn3  v104
 BYTE   W12
 BYTE   Gn3  v108
 BYTE   W12
 BYTE   Cn4
 BYTE   W12
 BYTE   Cn4  v104
 BYTE   W12
 BYTE   Bn3  v108
 BYTE   W12
 BYTE   An3
 BYTE   W01
// 094   ----------------------------------------
 BYTE   W11
 BYTE   An3  v104
 BYTE   W12
 BYTE   Gn3  v108
 BYTE   W12
 BYTE   Fn3
 BYTE   W12
 BYTE   Fn3  v104
 BYTE   W12
 BYTE   Fn3  v108
 BYTE   W12
 BYTE   N11
 BYTE   W12
 BYTE   Fn3  v104
 BYTE   W12
 BYTE   Fn3  v108
 BYTE   W01
// 095   ----------------------------------------
 BYTE   W11
 BYTE   Gn3
 BYTE   W12
 BYTE   Gn3  v104
 BYTE   W12
 BYTE   Gn3  v108
 BYTE   W12
 BYTE   N11
 BYTE   W12
 BYTE   Gn3  v104
 BYTE   W12
 BYTE   Gn3  v108
 BYTE   W12
 BYTE   Cn4
 BYTE   W12
 BYTE   Cn4  v104
 BYTE   W01
// 096   ----------------------------------------
 BYTE   W11
 BYTE   Cn4  v108
 BYTE   W12
 BYTE   N11
 BYTE   W12
 BYTE   Cn4  v104
 BYTE   W12
 BYTE   Cn4  v108
 BYTE   W12
 BYTE   Fn3
 BYTE   W12
 BYTE   Fn3  v104
 BYTE   W12
 BYTE   Fn3  v108
 BYTE   W12
 BYTE   N11
 BYTE   W01
// 097   ----------------------------------------
 BYTE   W11
 BYTE   Fn3  v104
 BYTE   W12
 BYTE   En3  v108
 BYTE   W12
 BYTE   Dn3
 BYTE   W12
 BYTE   Dn3  v104
 BYTE   W12
 BYTE   Dn3  v108
 BYTE   W12
 BYTE   N11
 BYTE   W12
 BYTE   Dn3  v104
 BYTE   W12
 BYTE   Dn3  v108
 BYTE   W01
// 098   ----------------------------------------
 BYTE   W11
 BYTE   Gn3
 BYTE   W12
 BYTE   Gn3  v104
 BYTE   W12
 BYTE   Gn3  v108
 BYTE   W12
 BYTE   Fn3
 BYTE   W12
 BYTE   Fn3  v104
 BYTE   W12
 BYTE   Fn3  v108
 BYTE   W12
 BYTE   Cn3
 BYTE   W12
 BYTE   Cn3  v104
 BYTE   W01
// 099   ----------------------------------------
 BYTE   W11
 BYTE   Cn3  v108
 BYTE   W12
 BYTE   N11
 BYTE   W12
 BYTE   Cn3  v104
 BYTE   W12
 BYTE   Cn3  v108
 BYTE   W12
 BYTE   Fn3
 BYTE   W12
 BYTE   Fn3  v104
 BYTE   W12
 BYTE   Fn3  v108
 BYTE   W12
 BYTE   N11
 BYTE   W01
// 100   ----------------------------------------
 BYTE   W11
 BYTE   Fn3  v104
 BYTE   W12
 BYTE   Fn3  v108
 BYTE   W12
 BYTE   Dn3
 BYTE   W12
 BYTE   Dn3  v104
 BYTE   W12
 BYTE   Dn3  v108
 BYTE   W12
 BYTE   Gn3
 BYTE   W12
 BYTE   Gn3  v104
 BYTE   W12
 BYTE   Gn3  v108
 BYTE   W01
// 101   ----------------------------------------
Label_7_01432FCE:
 BYTE   W11
 BYTE   N11  Cn3  v108
 BYTE   W12
 BYTE   Cn3  v104
 BYTE   W12
 BYTE   Cn3  v108
 BYTE   W12
 BYTE   N11
 BYTE   W12
 BYTE   Cn3  v104
 BYTE   W12
 BYTE   Cs3  v108
 BYTE   W12
 BYTE   Dn3
 BYTE   W12
 BYTE   Dn3  v104
 BYTE   W01
 BYTE   PEND 
// 102   ----------------------------------------
Label_7_01432FE7:
 BYTE   W11
 BYTE   N11  Dn3  v108
 BYTE   W12
 BYTE   Gn3
 BYTE   W12
 BYTE   Gn3  v104
 BYTE   W12
 BYTE   Gn3  v108
 BYTE   W12
 BYTE   En3
 BYTE   W12
 BYTE   En3  v104
 BYTE   W12
 BYTE   En3  v108
 BYTE   W12
 BYTE   An3
 BYTE   W01
 BYTE   PEND 
// 103   ----------------------------------------
 BYTE   W11
 BYTE   An3  v104
 BYTE   W12
 BYTE   Gn3  v108
 BYTE   W12
 BYTE   Fn3
 BYTE   W12
 BYTE   Fn3  v104
 BYTE   W12
 BYTE   Fn3  v108
 BYTE   W12
 BYTE   Gn3
 BYTE   W12
 BYTE   Gn3  v104
 BYTE   W12
 BYTE   Gn3  v108
 BYTE   W01
 BYTE   PATT
  POIN2 Label_7_01432FCE
 BYTE   PATT
  POIN2 Label_7_01432FE7
// 104   ----------------------------------------
 BYTE   W11
 BYTE   N11  An3  v104
 BYTE   W12
 BYTE   Gn3  v108
 BYTE   W12
 BYTE   Fn3
 BYTE   W12
 BYTE   Fn3  v104
 BYTE   W12
 BYTE   Fn3  v108
 BYTE   W12
 BYTE   Fs3
 BYTE   W12
 BYTE   Fs3  v104
 BYTE   W12
 BYTE   Fs3  v108
 BYTE   W01
// 105   ----------------------------------------
 BYTE   W11
 BYTE   Gn3
 BYTE   W12
 BYTE   Gn3  v104
 BYTE   W12
 BYTE   Gn3  v108
 BYTE   W12
 BYTE   N11
 BYTE   W12
 BYTE   Gn3  v104
 BYTE   W12
 BYTE   Gn3  v108
 BYTE   W12
 BYTE   Cn4
 BYTE   W13
// 106   ----------------------------------------
 BYTE   W11
 BYTE   N11
 BYTE   W12
 BYTE   N11
 BYTE   W24
 BYTE   N11
 BYTE   W12
 BYTE   N11
 BYTE   W24
 BYTE   Gn3
 BYTE   W12
 BYTE   N68  Cn3  v104
 BYTE   W01
// 107   ----------------------------------------
 BYTE   W68
 BYTE   W02
 BYTE   FINE

//**************** Track 9 (Midi-Chn.8) ****************//

song2C_009:
// 000   ----------------------------------------
 BYTE   VOL   85*song2C_mvl/mxv
 BYTE   KEYSH   song2C_key+0
 BYTE   VOICE   123
 BYTE   W96
// 001   ----------------------------------------
 BYTE   W30
 BYTE   N01  Cn0  v124
 BYTE   W01
 BYTE   N01
 BYTE   W02
 BYTE   N01
 BYTE   W02
 BYTE   N01
 BYTE   W02
 BYTE   N01
 BYTE   W02
 BYTE   N01
 BYTE   W02
 BYTE   N01
 BYTE   W02
 BYTE   N01
 BYTE   W02
 BYTE   N01
 BYTE   W02
 BYTE   N01
 BYTE   W02
 BYTE   N01
 BYTE   W02
 BYTE   N01
 BYTE   W02
 BYTE   N01
 BYTE   W02
 BYTE   N01
 BYTE   W02
 BYTE   N01
 BYTE   W02
 BYTE   N01
 BYTE   W02
 BYTE   N01
 BYTE   W02
 BYTE   N01
 BYTE   W02
 BYTE   N01
 BYTE   W02
 BYTE   N01
 BYTE   W02
 BYTE   N01
 BYTE   W02
 BYTE   N01
 BYTE   W02
 BYTE   N01
 BYTE   W02
 BYTE   N01
 BYTE   W02
 BYTE   N01
 BYTE   W02
 BYTE   N01
 BYTE   W02
 BYTE   N01
 BYTE   W02
 BYTE   N01
 BYTE   W02
 BYTE   N01
 BYTE   W02
 BYTE   N01
 BYTE   W02
 BYTE   N01
 BYTE   W02
 BYTE   N01
 BYTE   W02
 BYTE   N01
 BYTE   W02
 BYTE   N01
 BYTE   W01
// 002   ----------------------------------------
 BYTE   W01
 BYTE   N01
 BYTE   W02
 BYTE   N01
 BYTE   W02
 BYTE   N01
 BYTE   W01
 BYTE   N02  Cn0  v108
 BYTE   W03
 BYTE   Cn0  v092
 BYTE   W03
 BYTE   N02
 BYTE   W03
 BYTE   N02
 BYTE   W03
 BYTE   N05  Cn0  v096
 BYTE   W06
 BYTE   N02  Cn0  v104
 BYTE   W03
 BYTE   Cn0  v084
 BYTE   W03
 BYTE   N02
 BYTE   W03
 BYTE   N02
 BYTE   W03
 BYTE   N05  Cn0  v108
 BYTE   W06
 BYTE   Cn0  v104
 BYTE   W06
 BYTE   N02
 BYTE   W03
 BYTE   Cn0  v084
 BYTE   W03
 BYTE   Cn0  v108
 BYTE   W03
 BYTE   Cn0  v092
 BYTE   W03
 BYTE   N02
 BYTE   W03
 BYTE   N02
 BYTE   W03
 BYTE   N05  Cn0  v096
 BYTE   W06
 BYTE   N02  Cn0  v104
 BYTE   W03
 BYTE   Cn0  v084
 BYTE   W03
 BYTE   N02
 BYTE   W03
 BYTE   N02
 BYTE   W03
 BYTE   N05  Cn0  v108
 BYTE   W06
 BYTE   Cn0  v104
 BYTE   W06
// 003   ----------------------------------------
Label_8_014330FB:
 BYTE   N02  Cn0  v104
 BYTE   W03
 BYTE   Cn0  v084
 BYTE   W03
 BYTE   Cn0  v108
 BYTE   W03
 BYTE   Cn0  v092
 BYTE   W03
 BYTE   N02
 BYTE   W03
 BYTE   N02
 BYTE   W03
 BYTE   N05  Cn0  v096
 BYTE   W06
 BYTE   N02  Cn0  v104
 BYTE   W03
 BYTE   Cn0  v084
 BYTE   W03
 BYTE   N02
 BYTE   W03
 BYTE   N02
 BYTE   W03
 BYTE   N05  Cn0  v108
 BYTE   W06
 BYTE   Cn0  v104
 BYTE   W06
 BYTE   N02
 BYTE   W03
 BYTE   Cn0  v084
 BYTE   W03
 BYTE   Cn0  v108
 BYTE   W03
 BYTE   Cn0  v092
 BYTE   W03
 BYTE   N02
 BYTE   W03
 BYTE   N02
 BYTE   W03
 BYTE   N05  Cn0  v096
 BYTE   W06
 BYTE   N02  Cn0  v104
 BYTE   W03
 BYTE   Cn0  v084
 BYTE   W03
 BYTE   N02
 BYTE   W03
 BYTE   N02
 BYTE   W03
 BYTE   N05  Cn0  v108
 BYTE   W06
 BYTE   Cn0  v104
 BYTE   W06
 BYTE   PEND 
 BYTE   PATT
  POIN2 Label_8_014330FB
 BYTE   PATT
  POIN2 Label_8_014330FB
 BYTE   PATT
  POIN2 Label_8_014330FB
 BYTE   PATT
  POIN2 Label_8_014330FB
 BYTE   PATT
  POIN2 Label_8_014330FB
 BYTE   PATT
  POIN2 Label_8_014330FB
 BYTE   PATT
  POIN2 Label_8_014330FB
 BYTE   PATT
  POIN2 Label_8_014330FB
 BYTE   PATT
  POIN2 Label_8_014330FB
 BYTE   PATT
  POIN2 Label_8_014330FB
 BYTE   PATT
  POIN2 Label_8_014330FB
 BYTE   PATT
  POIN2 Label_8_014330FB
// 004   ----------------------------------------
 BYTE   N02  Cn0  v104
 BYTE   W03
 BYTE   Cn0  v084
 BYTE   W04
 BYTE   Cn0  v108
 BYTE   N44  Ds0  v116
 BYTE   N44  Gn0
 BYTE   W03
 BYTE   N02  Cn0  v092
 BYTE   W03
 BYTE   N02
 BYTE   W03
 BYTE   N02
 BYTE   W03
 BYTE   N05  Cn0  v096
 BYTE   W06
 BYTE   N02  Cn0  v104
 BYTE   W03
 BYTE   Cn0  v084
 BYTE   W03
 BYTE   N02
 BYTE   W03
 BYTE   N02
 BYTE   W03
 BYTE   N05  Cn0  v108
 BYTE   W06
 BYTE   Cn0  v104
 BYTE   W06
 BYTE   N02
 BYTE   W03
 BYTE   Cn0  v084
 BYTE   W03
 BYTE   Cn0  v108
 BYTE   W03
 BYTE   Cn0  v092
 BYTE   W03
 BYTE   N02
 BYTE   W03
 BYTE   N02
 BYTE   W03
 BYTE   N05  Cn0  v096
 BYTE   W06
 BYTE   N02  Cn0  v104
 BYTE   W03
 BYTE   Cn0  v084
 BYTE   W03
 BYTE   N02
 BYTE   W03
 BYTE   N02
 BYTE   W03
 BYTE   N05  Cn0  v108
 BYTE   W06
 BYTE   Cn0  v104
 BYTE   W05
// 005   ----------------------------------------
 BYTE   W01
 BYTE   N02
 BYTE   W03
 BYTE   Cn0  v084
 BYTE   W03
 BYTE   Cn0  v108
 BYTE   W03
 BYTE   Cn0  v092
 BYTE   W03
 BYTE   N02
 BYTE   W03
 BYTE   N02
 BYTE   W03
 BYTE   N05  Cn0  v096
 BYTE   W06
 BYTE   N02  Cn0  v104
 BYTE   W03
 BYTE   Cn0  v084
 BYTE   W03
 BYTE   N02
 BYTE   W03
 BYTE   N02
 BYTE   W03
 BYTE   N05  Cn0  v108
 BYTE   W06
 BYTE   Cn0  v104
 BYTE   W06
 BYTE   N02
 BYTE   W03
 BYTE   Cn0  v084
 BYTE   W03
 BYTE   Cn0  v108
 BYTE   W03
 BYTE   Cn0  v092
 BYTE   W03
 BYTE   N02
 BYTE   W03
 BYTE   N02
 BYTE   W03
 BYTE   N05  Cn0  v096
 BYTE   W06
 BYTE   N02  Cn0  v104
 BYTE   W03
 BYTE   Cn0  v084
 BYTE   W03
 BYTE   N02
 BYTE   W03
 BYTE   N02
 BYTE   W03
 BYTE   N05  Cn0  v108
 BYTE   W06
 BYTE   Cn0  v104
 BYTE   W05
// 006   ----------------------------------------
 BYTE   W01
 BYTE   N02
 BYTE   W03
 BYTE   Cn0  v084
 BYTE   W03
 BYTE   N05  Cn0  v104
 BYTE   W06
 BYTE   N01  Cn0  v096
 BYTE   W02
 BYTE   Cn0  v084
 BYTE   W02
 BYTE   N01
 BYTE   W02
 BYTE   N05  Cn0  v092
 BYTE   W06
 BYTE   Cn0  v096
 BYTE   W06
 BYTE   N01  Cn0  v092
 BYTE   W02
 BYTE   Cn0  v076
 BYTE   W02
 BYTE   N01
 BYTE   W02
 BYTE   N05  Cn0  v104
 BYTE   W06
 BYTE   Cn0  v096
 BYTE   W06
 BYTE   N01  Cs0  v072
 BYTE   W02
 BYTE   N01
 BYTE   W02
 BYTE   N01
 BYTE   W02
 BYTE   N05  Cn0  v104
 BYTE   W06
 BYTE   N01  Cn0  v096
 BYTE   W02
 BYTE   Cn0  v084
 BYTE   W02
 BYTE   N01
 BYTE   W02
 BYTE   N05  Cn0  v092
 BYTE   W06
 BYTE   Cn0  v096
 BYTE   W06
 BYTE   N01  Cn0  v092
 BYTE   W02
 BYTE   Cn0  v076
 BYTE   W02
 BYTE   N01
 BYTE   W02
 BYTE   N05  Cn0  v104
 BYTE   W06
 BYTE   Cn0  v096
 BYTE   W05
// 007   ----------------------------------------
Label_8_01433277:
 BYTE   W01
 BYTE   N01  Cs0  v072
 BYTE   W02
 BYTE   N01
 BYTE   W02
 BYTE   N01
 BYTE   W02
 BYTE   N05  Cn0  v104
 BYTE   W06
 BYTE   N01  Cn0  v096
 BYTE   W02
 BYTE   Cn0  v084
 BYTE   W02
 BYTE   N01
 BYTE   W02
 BYTE   N05  Cn0  v092
 BYTE   W06
 BYTE   Cn0  v096
 BYTE   W06
 BYTE   N01  Cn0  v092
 BYTE   W02
 BYTE   Cn0  v076
 BYTE   W02
 BYTE   N01
 BYTE   W02
 BYTE   N05  Cn0  v104
 BYTE   W06
 BYTE   Cn0  v096
 BYTE   W06
 BYTE   N01  Cs0  v072
 BYTE   W02
 BYTE   N01
 BYTE   W02
 BYTE   N01
 BYTE   W02
 BYTE   N05  Cn0  v104
 BYTE   W06
 BYTE   N01  Cn0  v096
 BYTE   W02
 BYTE   Cn0  v084
 BYTE   W02
 BYTE   N01
 BYTE   W02
 BYTE   N05  Cn0  v092
 BYTE   W06
 BYTE   Cn0  v096
 BYTE   W06
 BYTE   N01  Cn0  v092
 BYTE   W02
 BYTE   Cn0  v076
 BYTE   W02
 BYTE   N01
 BYTE   W02
 BYTE   N05  Cn0  v104
 BYTE   W06
 BYTE   Cn0  v096
 BYTE   W05
 BYTE   PEND 
 BYTE   PATT
  POIN2 Label_8_01433277
 BYTE   PATT
  POIN2 Label_8_01433277
 BYTE   PATT
  POIN2 Label_8_01433277
 BYTE   PATT
  POIN2 Label_8_01433277
// 008   ----------------------------------------
 BYTE   W01
 BYTE   N01  Cs0  v072
 BYTE   W02
 BYTE   N01
 BYTE   W02
 BYTE   N01
 BYTE   W02
 BYTE   N05  Cn0  v104
 BYTE   W06
 BYTE   N02  Cn0  v092
 BYTE   W03
 BYTE   Cn0  v068
 BYTE   W03
 BYTE   N05  Cn0  v100
 BYTE   W06
 BYTE   N02  Cn0  v092
 BYTE   W03
 BYTE   Cn0  v064
 BYTE   W03
 BYTE   N05  Cn0  v104
 BYTE   W06
 BYTE   N02  Cn0  v088
 BYTE   W03
 BYTE   Cn0  v068
 BYTE   W03
 BYTE   N05  Cn0  v104
 BYTE   W06
 BYTE   N01  Cs0  v064
 BYTE   W02
 BYTE   N01
 BYTE   W02
 BYTE   Cs0  v072
 BYTE   W02
 BYTE   N05  Cn0  v104
 BYTE   W06
 BYTE   N02  Cn0  v092
 BYTE   W03
 BYTE   Cn0  v068
 BYTE   W03
 BYTE   N05  Cn0  v100
 BYTE   W06
 BYTE   N02  Cn0  v092
 BYTE   W03
 BYTE   Cn0  v064
 BYTE   W03
 BYTE   N05  Cn0  v104
 BYTE   W06
 BYTE   N02  Cn0  v088
 BYTE   W03
 BYTE   Cn0  v068
 BYTE   W03
 BYTE   N05  Cn0  v104
 BYTE   W05
// 009   ----------------------------------------
Label_8_01433341:
 BYTE   W01
 BYTE   N01  Cs0  v064
 BYTE   W02
 BYTE   N01
 BYTE   W02
 BYTE   Cs0  v072
 BYTE   W02
 BYTE   N05  Cn0  v104
 BYTE   W06
 BYTE   N02  Cn0  v092
 BYTE   W03
 BYTE   Cn0  v068
 BYTE   W03
 BYTE   N05  Cn0  v100
 BYTE   W06
 BYTE   N02  Cn0  v092
 BYTE   W03
 BYTE   Cn0  v064
 BYTE   W03
 BYTE   N05  Cn0  v104
 BYTE   W06
 BYTE   N02  Cn0  v088
 BYTE   W03
 BYTE   Cn0  v068
 BYTE   W03
 BYTE   N05  Cn0  v104
 BYTE   W06
 BYTE   N01  Cs0  v064
 BYTE   W02
 BYTE   N01
 BYTE   W02
 BYTE   Cs0  v072
 BYTE   W02
 BYTE   N05  Cn0  v104
 BYTE   W06
 BYTE   N02  Cn0  v092
 BYTE   W03
 BYTE   Cn0  v068
 BYTE   W03
 BYTE   N05  Cn0  v100
 BYTE   W06
 BYTE   N02  Cn0  v092
 BYTE   W03
 BYTE   Cn0  v064
 BYTE   W03
 BYTE   N05  Cn0  v104
 BYTE   W06
 BYTE   N02  Cn0  v088
 BYTE   W03
 BYTE   Cn0  v068
 BYTE   W03
 BYTE   N05  Cn0  v104
 BYTE   W05
 BYTE   PEND 
 BYTE   PATT
  POIN2 Label_8_01433341
 BYTE   PATT
  POIN2 Label_8_01433341
 BYTE   PATT
  POIN2 Label_8_01433341
 BYTE   PATT
  POIN2 Label_8_01433341
 BYTE   PATT
  POIN2 Label_8_01433341
// 010   ----------------------------------------
 BYTE   W01
 BYTE   N01  Cs0  v064
 BYTE   W02
 BYTE   N01
 BYTE   W02
 BYTE   Cs0  v072
 BYTE   W02
 BYTE   N05  Cn0  v104
 BYTE   W06
 BYTE   N02  Cn0  v092
 BYTE   W03
 BYTE   Cn0  v068
 BYTE   W03
 BYTE   N05  Cn0  v100
 BYTE   W06
 BYTE   N02  Cn0  v092
 BYTE   W03
 BYTE   Cn0  v064
 BYTE   W03
 BYTE   N05  Cn0  v104
 BYTE   W06
 BYTE   N02  Cn0  v088
 BYTE   W03
 BYTE   Cn0  v068
 BYTE   W03
 BYTE   N05  Cn0  v104
 BYTE   W06
 BYTE   N01  Cs0  v064
 BYTE   W02
 BYTE   N01
 BYTE   W02
 BYTE   Cs0  v072
 BYTE   W02
 BYTE   N05  Cn0  v116
 BYTE   W06
 BYTE   N02  Cn0  v092
 BYTE   W03
 BYTE   Cn0  v068
 BYTE   W03
 BYTE   N05  Cn0  v116
 BYTE   W06
 BYTE   N02  Cn0  v092
 BYTE   W03
 BYTE   Cn0  v064
 BYTE   W03
 BYTE   N05  Cn0  v096
 BYTE   W06
 BYTE   N02  Cn0  v108
 BYTE   W03
 BYTE   Cn0  v068
 BYTE   W03
 BYTE   N05  Cn0  v104
 BYTE   W05
// 011   ----------------------------------------
 BYTE   W01
 BYTE   N01  Cs0  v064
 BYTE   W02
 BYTE   N01
 BYTE   W02
 BYTE   Cs0  v072
 BYTE   W02
 BYTE   N11  Cn0  v112
 BYTE   W12
 BYTE   N05  Cn0  v104
 BYTE   W06
 BYTE   N02
 BYTE   W03
 BYTE   Cn0  v084
 BYTE   W03
 BYTE   N11  Cn0  v120
 BYTE   W12
 BYTE   N05  Cn0  v104
 BYTE   W06
 BYTE   N01  Cs0  v076
 BYTE   W02
 BYTE   Cs0  v072
 BYTE   W02
 BYTE   Cs0  v064
 BYTE   W02
 BYTE   N11  Cn0  v112
 BYTE   W12
 BYTE   N05  Cn0  v104
 BYTE   W06
 BYTE   N02
 BYTE   W03
 BYTE   Cn0  v084
 BYTE   W03
 BYTE   N11  Cn0  v120
 BYTE   W12
 BYTE   N05  Cn0  v104
 BYTE   W05
// 012   ----------------------------------------
Label_8_01433453:
 BYTE   W01
 BYTE   N01  Cs0  v076
 BYTE   W02
 BYTE   Cs0  v072
 BYTE   W02
 BYTE   Cs0  v064
 BYTE   W02
 BYTE   N11  Cn0  v112
 BYTE   W12
 BYTE   N05  Cn0  v104
 BYTE   W06
 BYTE   N02
 BYTE   W03
 BYTE   Cn0  v084
 BYTE   W03
 BYTE   N11  Cn0  v120
 BYTE   W12
 BYTE   N05  Cn0  v104
 BYTE   W06
 BYTE   N01  Cs0  v076
 BYTE   W02
 BYTE   Cs0  v072
 BYTE   W02
 BYTE   Cs0  v064
 BYTE   W02
 BYTE   N11  Cn0  v112
 BYTE   W12
 BYTE   N05  Cn0  v104
 BYTE   W06
 BYTE   N02
 BYTE   W03
 BYTE   Cn0  v084
 BYTE   W03
 BYTE   N11  Cn0  v120
 BYTE   W12
 BYTE   N05  Cn0  v104
 BYTE   W05
 BYTE   PEND 
 BYTE   PATT
  POIN2 Label_8_01433453
 BYTE   PATT
  POIN2 Label_8_01433453
 BYTE   PATT
  POIN2 Label_8_01433453
 BYTE   PATT
  POIN2 Label_8_01433453
 BYTE   PATT
  POIN2 Label_8_01433453
 BYTE   PATT
  POIN2 Label_8_01433453
 BYTE   PATT
  POIN2 Label_8_01433453
// 013   ----------------------------------------
 BYTE   W01
 BYTE   N01  Cs0  v076
 BYTE   W02
 BYTE   Cs0  v072
 BYTE   W02
 BYTE   Cs0  v064
 BYTE   W03
 BYTE   N05  Cn0  v104
 BYTE   W06
 BYTE   N02  Cn0  v084
 BYTE   W03
 BYTE   N02
 BYTE   W03
 BYTE   N05  Cn0  v096
 BYTE   W06
 BYTE   N02  Cn0  v084
 BYTE   W03
 BYTE   N02
 BYTE   W03
 BYTE   N05  Cn0  v096
 BYTE   W06
 BYTE   N02  Cn0  v084
 BYTE   W03
 BYTE   N02
 BYTE   W03
 BYTE   N05  Cn0  v096
 BYTE   W06
 BYTE   N01  Cn0  v080
 BYTE   W02
 BYTE   Cn0  v072
 BYTE   W02
 BYTE   N01
 BYTE   W02
 BYTE   N05  Cn0  v104
 BYTE   W06
 BYTE   N02  Cn0  v084
 BYTE   W03
 BYTE   N02
 BYTE   W03
 BYTE   N05  Cn0  v096
 BYTE   W06
 BYTE   N02  Cn0  v084
 BYTE   W03
 BYTE   N02
 BYTE   W03
 BYTE   N05  Cn0  v096
 BYTE   W06
 BYTE   N02  Cn0  v084
 BYTE   W03
 BYTE   N02
 BYTE   W03
 BYTE   N05  Cn0  v096
 BYTE   W04
// 014   ----------------------------------------
Label_8_0143350E:
 BYTE   W02
 BYTE   N01  Cn0  v080
 BYTE   W02
 BYTE   Cn0  v072
 BYTE   W02
 BYTE   N01
 BYTE   W02
 BYTE   N05  Cn0  v104
 BYTE   W06
 BYTE   N02  Cn0  v084
 BYTE   W03
 BYTE   N02
 BYTE   W03
 BYTE   N05  Cn0  v096
 BYTE   W06
 BYTE   N02  Cn0  v084
 BYTE   W03
 BYTE   N02
 BYTE   W03
 BYTE   N05  Cn0  v096
 BYTE   W06
 BYTE   N02  Cn0  v084
 BYTE   W03
 BYTE   N02
 BYTE   W03
 BYTE   N05  Cn0  v096
 BYTE   W06
 BYTE   N01  Cn0  v080
 BYTE   W02
 BYTE   Cn0  v072
 BYTE   W02
 BYTE   N01
 BYTE   W02
 BYTE   N05  Cn0  v104
 BYTE   W06
 BYTE   N02  Cn0  v084
 BYTE   W03
 BYTE   N02
 BYTE   W03
 BYTE   N05  Cn0  v096
 BYTE   W06
 BYTE   N02  Cn0  v084
 BYTE   W03
 BYTE   N02
 BYTE   W03
 BYTE   N05  Cn0  v096
 BYTE   W06
 BYTE   N02  Cn0  v084
 BYTE   W03
 BYTE   N02
 BYTE   W03
 BYTE   N05  Cn0  v096
 BYTE   W04
 BYTE   PEND 
 BYTE   PATT
  POIN2 Label_8_0143350E
 BYTE   PATT
  POIN2 Label_8_0143350E
 BYTE   PATT
  POIN2 Label_8_0143350E
 BYTE   PATT
  POIN2 Label_8_0143350E
// 015   ----------------------------------------
 BYTE   W02
 BYTE   N01  Cn0  v080
 BYTE   W02
 BYTE   Cn0  v072
 BYTE   W02
 BYTE   N01
 BYTE   W02
 BYTE   N05  Cn0  v104
 BYTE   W06
 BYTE   N01  Cn0  v096
 BYTE   W02
 BYTE   Cn0  v084
 BYTE   W02
 BYTE   N01
 BYTE   W02
 BYTE   N05  Cn0  v092
 BYTE   W06
 BYTE   Cn0  v096
 BYTE   W06
 BYTE   N01  Cn0  v092
 BYTE   W02
 BYTE   Cn0  v076
 BYTE   W02
 BYTE   N01
 BYTE   W02
 BYTE   N05  Cn0  v104
 BYTE   W06
 BYTE   Cn0  v096
 BYTE   W06
 BYTE   N01  Cs0  v072
 BYTE   W02
 BYTE   N01
 BYTE   W02
 BYTE   N01
 BYTE   W02
 BYTE   N05  Cn0  v104
 BYTE   W06
 BYTE   N01  Cn0  v096
 BYTE   W02
 BYTE   Cn0  v084
 BYTE   W02
 BYTE   N01
 BYTE   W02
 BYTE   N05  Cn0  v092
 BYTE   W06
 BYTE   Cn0  v096
 BYTE   W06
 BYTE   N01  Cn0  v092
 BYTE   W02
 BYTE   Cn0  v076
 BYTE   W02
 BYTE   N01
 BYTE   W02
 BYTE   N05  Cn0  v104
 BYTE   W06
 BYTE   Cn0  v096
 BYTE   W04
// 016   ----------------------------------------
Label_8_014335D4:
 BYTE   W02
 BYTE   N01  Cs0  v072
 BYTE   W02
 BYTE   N01
 BYTE   W02
 BYTE   N01
 BYTE   W02
 BYTE   N05  Cn0  v104
 BYTE   W06
 BYTE   N01  Cn0  v096
 BYTE   W02
 BYTE   Cn0  v084
 BYTE   W02
 BYTE   N01
 BYTE   W02
 BYTE   N05  Cn0  v092
 BYTE   W06
 BYTE   Cn0  v096
 BYTE   W06
 BYTE   N01  Cn0  v092
 BYTE   W02
 BYTE   Cn0  v076
 BYTE   W02
 BYTE   N01
 BYTE   W02
 BYTE   N05  Cn0  v104
 BYTE   W06
 BYTE   Cn0  v096
 BYTE   W06
 BYTE   N01  Cs0  v072
 BYTE   W02
 BYTE   N01
 BYTE   W02
 BYTE   N01
 BYTE   W02
 BYTE   N05  Cn0  v104
 BYTE   W06
 BYTE   N01  Cn0  v096
 BYTE   W02
 BYTE   Cn0  v084
 BYTE   W02
 BYTE   N01
 BYTE   W02
 BYTE   N05  Cn0  v092
 BYTE   W06
 BYTE   Cn0  v096
 BYTE   W06
 BYTE   N01  Cn0  v092
 BYTE   W02
 BYTE   Cn0  v076
 BYTE   W02
 BYTE   N01
 BYTE   W02
 BYTE   N05  Cn0  v104
 BYTE   W06
 BYTE   Cn0  v096
 BYTE   W04
 BYTE   PEND 
 BYTE   PATT
  POIN2 Label_8_014335D4
 BYTE   PATT
  POIN2 Label_8_014335D4
 BYTE   PATT
  POIN2 Label_8_014335D4
 BYTE   PATT
  POIN2 Label_8_014335D4
 BYTE   PATT
  POIN2 Label_8_014335D4
 BYTE   PATT
  POIN2 Label_8_014335D4
// 017   ----------------------------------------
 BYTE   W02
 BYTE   N01  Cs0  v072
 BYTE   W02
 BYTE   N01
 BYTE   W02
 BYTE   N01
 BYTE   W02
 BYTE   N05  Cn0  v104
 BYTE   W06
 BYTE   N01  Cn0  v096
 BYTE   W02
 BYTE   Cn0  v084
 BYTE   W02
 BYTE   N01
 BYTE   W02
 BYTE   N05  Cn0  v092
 BYTE   W06
 BYTE   Cn0  v096
 BYTE   W06
 BYTE   N01  Cn0  v092
 BYTE   W02
 BYTE   Cn0  v076
 BYTE   W02
 BYTE   N01
 BYTE   W02
 BYTE   N05  Cn0  v104
 BYTE   W06
 BYTE   Cn0  v096
 BYTE   W06
 BYTE   N01  Cs0  v072
 BYTE   W02
 BYTE   N01
 BYTE   W02
 BYTE   N01
 BYTE   W03
 BYTE   N05  Cn0  v104
 BYTE   W06
 BYTE   N01  Cn0  v096
 BYTE   W02
 BYTE   Cn0  v084
 BYTE   W02
 BYTE   N01
 BYTE   W02
 BYTE   N05  Cn0  v092
 BYTE   W06
 BYTE   Cn0  v096
 BYTE   W06
 BYTE   N01  Cn0  v092
 BYTE   W02
 BYTE   Cn0  v076
 BYTE   W02
 BYTE   N01
 BYTE   W02
 BYTE   N05  Cn0  v104
 BYTE   W06
 BYTE   Cn0  v096
 BYTE   W03
// 018   ----------------------------------------
Label_8_014336A5:
 BYTE   W03
 BYTE   N01  Cs0  v072
 BYTE   W02
 BYTE   N01
 BYTE   W02
 BYTE   N01
 BYTE   W02
 BYTE   N05  Cn0  v104
 BYTE   W06
 BYTE   N01  Cn0  v096
 BYTE   W02
 BYTE   Cn0  v084
 BYTE   W02
 BYTE   N01
 BYTE   W02
 BYTE   N05  Cn0  v092
 BYTE   W06
 BYTE   Cn0  v096
 BYTE   W06
 BYTE   N01  Cn0  v092
 BYTE   W02
 BYTE   Cn0  v076
 BYTE   W02
 BYTE   N01
 BYTE   W02
 BYTE   N05  Cn0  v104
 BYTE   W06
 BYTE   Cn0  v096
 BYTE   W06
 BYTE   N01  Cs0  v072
 BYTE   W02
 BYTE   N01
 BYTE   W02
 BYTE   N01
 BYTE   W02
 BYTE   N05  Cn0  v104
 BYTE   W06
 BYTE   N01  Cn0  v096
 BYTE   W02
 BYTE   Cn0  v084
 BYTE   W02
 BYTE   N01
 BYTE   W02
 BYTE   N05  Cn0  v092
 BYTE   W06
 BYTE   Cn0  v096
 BYTE   W06
 BYTE   N01  Cn0  v092
 BYTE   W02
 BYTE   Cn0  v076
 BYTE   W02
 BYTE   N01
 BYTE   W02
 BYTE   N05  Cn0  v104
 BYTE   W06
 BYTE   Cn0  v096
 BYTE   W03
 BYTE   PEND 
 BYTE   PATT
  POIN2 Label_8_014336A5
 BYTE   PATT
  POIN2 Label_8_014336A5
 BYTE   PATT
  POIN2 Label_8_014336A5
 BYTE   PATT
  POIN2 Label_8_014336A5
 BYTE   PATT
  POIN2 Label_8_014336A5
 BYTE   PATT
  POIN2 Label_8_014336A5
 BYTE   PATT
  POIN2 Label_8_014336A5
// 019   ----------------------------------------
 BYTE   W03
 BYTE   N01  Cs0  v072
 BYTE   W02
 BYTE   N01
 BYTE   W02
 BYTE   N01
 BYTE   W88
 BYTE   W01
// 020   ----------------------------------------
 BYTE   W96
// 021   ----------------------------------------
 BYTE   W96
// 022   ----------------------------------------
 BYTE   W96
// 023   ----------------------------------------
 BYTE   W96
// 024   ----------------------------------------
 BYTE   W96
// 025   ----------------------------------------
 BYTE   W96
// 026   ----------------------------------------
 BYTE   W96
// 027   ----------------------------------------
 BYTE   W96
// 028   ----------------------------------------
 BYTE   W96
// 029   ----------------------------------------
 BYTE   W96
// 030   ----------------------------------------
 BYTE   W96
// 031   ----------------------------------------
 BYTE   W96
// 032   ----------------------------------------
 BYTE   W96
// 033   ----------------------------------------
 BYTE   W96
// 034   ----------------------------------------
 BYTE   W96
// 035   ----------------------------------------
 BYTE   W96
// 036   ----------------------------------------
 BYTE   W96
// 037   ----------------------------------------
 BYTE   W96
// 038   ----------------------------------------
 BYTE   W96
// 039   ----------------------------------------
 BYTE   W96
// 040   ----------------------------------------
 BYTE   W96
// 041   ----------------------------------------
 BYTE   W96
// 042   ----------------------------------------
 BYTE   W96
// 043   ----------------------------------------
 BYTE   W96
// 044   ----------------------------------------
 BYTE   W96
// 045   ----------------------------------------
 BYTE   W96
// 046   ----------------------------------------
 BYTE   W96
// 047   ----------------------------------------
 BYTE   W96
// 048   ----------------------------------------
 BYTE   W96
// 049   ----------------------------------------
 BYTE   W96
// 050   ----------------------------------------
 BYTE   W96
// 051   ----------------------------------------
 BYTE   W96
// 052   ----------------------------------------
 BYTE   W96
// 053   ----------------------------------------
 BYTE   W96
// 054   ----------------------------------------
 BYTE   W96
// 055   ----------------------------------------
 BYTE   W96
// 056   ----------------------------------------
 BYTE   W96
// 057   ----------------------------------------
 BYTE   W96
// 058   ----------------------------------------
 BYTE   W96
// 059   ----------------------------------------
 BYTE   W96
// 060   ----------------------------------------
 BYTE   W96
// 061   ----------------------------------------
 BYTE   W96
// 062   ----------------------------------------
 BYTE   W96
// 063   ----------------------------------------
 BYTE   W96
// 064   ----------------------------------------
 BYTE   W96
// 065   ----------------------------------------
 BYTE   W96
// 066   ----------------------------------------
 BYTE   W96
// 067   ----------------------------------------
 BYTE   W96
// 068   ----------------------------------------
 BYTE   W96
// 069   ----------------------------------------
 BYTE   W96
// 070   ----------------------------------------
 BYTE   W96
// 071   ----------------------------------------
 BYTE   W96
// 072   ----------------------------------------
 BYTE   W96
// 073   ----------------------------------------
 BYTE   W96
// 074   ----------------------------------------
 BYTE   W96
// 075   ----------------------------------------
 BYTE   W96
// 076   ----------------------------------------
 BYTE   W96
// 077   ----------------------------------------
 BYTE   W68
 BYTE   W02
 BYTE   FINE

//******************************************************//
	ALIGN 4

song2C:
	BYTE	9	// NumTrks
	BYTE	0	// NumBlks
	BYTE	song2C_pri	// Priority
	BYTE	song2C_rev	// Reverb.
    
	POIN2	song2C_grp
    
	POIN2	song2C_001
	POIN2	song2C_002
	POIN2	song2C_003
	POIN2	song2C_004
	POIN2	song2C_005
	POIN2	song2C_006
	POIN2	song2C_007
	POIN2	song2C_008
	POIN2	song2C_009

	
