//Event file generated from Sappy .s format.
	#include "MPlayDef.event"

	#define	song1D_grp  voicegroup000
	#define	song1D_pri  0
	#define	song1D_rev  0
	#define	song1D_mvl  127
	#define	song1D_key  0
	#define	song1D_tbs  1
	#define	song1D_exg  0
	#define	song1D_cmp  1

	// .rodata
	//	song1D
	ALIGN 4


//**************** Track 1 (Midi-Chn.0) ****************//

song1D_001:
//  #01 //000   ----------------------------------------
 BYTE   KEYSH   song1D_key+0
Label_560B06:
 BYTE   TEMPO   64*song1D_tbs/2
 BYTE   VOICE   60
 BYTE   VOL   76*song1D_mvl/mxv
 BYTE   PAN   c_v-14
 BYTE   N01  Gn1  v104
 BYTE   W02
 BYTE   Dn2
 BYTE   W02
 BYTE   Gn1
 BYTE   W02
 BYTE   Dn2
 BYTE   W02
 BYTE   Gn1
 BYTE   W02
 BYTE   Dn2
 BYTE   W02
 BYTE   Gn1
 BYTE   W02
 BYTE   Dn2
 BYTE   W02
 BYTE   Gn1
 BYTE   W02
 BYTE   Dn2
 BYTE   W02
 BYTE   Gn1
 BYTE   W02
 BYTE   Dn2
 BYTE   W02
 BYTE   Gn1
 BYTE   W02
 BYTE   Dn2
 BYTE   W02
 BYTE   Gn1
 BYTE   W02
 BYTE   Dn2
 BYTE   W02
 BYTE   Gn1
 BYTE   W02
 BYTE   Dn2
 BYTE   W02
 BYTE   Gn1
 BYTE   W02
 BYTE   Dn2
 BYTE   W02
 BYTE   Gn1
 BYTE   W02
 BYTE   Dn2
 BYTE   W02
 BYTE   Gn1
 BYTE   W02
 BYTE   Dn2
 BYTE   W02
 BYTE   Gn1
 BYTE   W02
 BYTE   Dn2
 BYTE   W02
 BYTE   Gn1
 BYTE   W02
 BYTE   Dn2
 BYTE   W02
 BYTE   Gn1
 BYTE   W02
 BYTE   Dn2
 BYTE   W02
 BYTE   Gn1
 BYTE   W02
 BYTE   Dn2
 BYTE   W02
 BYTE   Gn1
 BYTE   W02
 BYTE   Dn2
 BYTE   W02
 BYTE   Gn1
 BYTE   W02
 BYTE   Dn2
 BYTE   W02
 BYTE   Gn1
 BYTE   W02
 BYTE   Dn2
 BYTE   W02
 BYTE   Gn1
 BYTE   W02
 BYTE   Dn2
 BYTE   W02
 BYTE   Gn1
 BYTE   W02
 BYTE   Dn2
 BYTE   W02
 BYTE   Gn1
 BYTE   W02
 BYTE   Dn2
 BYTE   W02
 BYTE   Gn1
 BYTE   W02
 BYTE   Dn2
 BYTE   W02
 BYTE   Gn1
 BYTE   W02
 BYTE   Dn2
 BYTE   W02
//  #01 //001   ----------------------------------------
Label_560B70:
 BYTE   N01  Gn1  v104
 BYTE   W02
 BYTE   Dn2
 BYTE   W02
 BYTE   Gn1
 BYTE   W02
 BYTE   Dn2
 BYTE   W02
 BYTE   Gn1
 BYTE   W02
 BYTE   Dn2
 BYTE   W02
 BYTE   Gn1
 BYTE   W02
 BYTE   Dn2
 BYTE   W02
 BYTE   Gn1
 BYTE   W02
 BYTE   Dn2
 BYTE   W02
 BYTE   Gn1
 BYTE   W02
 BYTE   Dn2
 BYTE   W02
 BYTE   Gn1
 BYTE   W02
 BYTE   Dn2
 BYTE   W02
 BYTE   Gn1
 BYTE   W02
 BYTE   Dn2
 BYTE   W02
 BYTE   Gn1
 BYTE   W02
 BYTE   Dn2
 BYTE   W02
 BYTE   Gn1
 BYTE   W02
 BYTE   Dn2
 BYTE   W02
 BYTE   Gn1
 BYTE   W02
 BYTE   Dn2
 BYTE   W02
 BYTE   Gn1
 BYTE   W02
 BYTE   Dn2
 BYTE   W02
 BYTE   Gn1
 BYTE   W02
 BYTE   Dn2
 BYTE   W02
 BYTE   Gn1
 BYTE   W02
 BYTE   Dn2
 BYTE   W02
 BYTE   Gn1
 BYTE   W02
 BYTE   Dn2
 BYTE   W02
 BYTE   Gn1
 BYTE   W02
 BYTE   Dn2
 BYTE   W02
 BYTE   Gn1
 BYTE   W02
 BYTE   Dn2
 BYTE   W02
 BYTE   Gn1
 BYTE   W02
 BYTE   Dn2
 BYTE   W02
 BYTE   Gn1
 BYTE   W02
 BYTE   Dn2
 BYTE   W02
 BYTE   Gn1
 BYTE   W02
 BYTE   Dn2
 BYTE   W02
 BYTE   Gn1
 BYTE   W02
 BYTE   Dn2
 BYTE   W02
 BYTE   Gn1
 BYTE   W02
 BYTE   Dn2
 BYTE   W02
 BYTE   Gn1
 BYTE   W02
 BYTE   Dn2
 BYTE   W02
 BYTE   Gn1
 BYTE   W02
 BYTE   Dn2
 BYTE   W02
 BYTE   PEND 
//  #01 //002   ----------------------------------------
 BYTE   GoTo
  POIN2 Label_560B06
//  #01 //003   ----------------------------------------
 BYTE   PATT
  POIN2 Label_560B70
//  #01 //004   ----------------------------------------
 BYTE   N01  Gn1  v104
 BYTE   W02
 BYTE   Dn2
 BYTE   W02
 BYTE   Gn1
 BYTE   W02
 BYTE   Dn2
 BYTE   W02
 BYTE   Gn1
 BYTE   W02
 BYTE   Dn2
 BYTE   W02
 BYTE   Gn1
 BYTE   W02
 BYTE   Dn2
 BYTE   W02
 BYTE   Gn1
 BYTE   W02
 BYTE   Dn2
 BYTE   W02
 BYTE   Gn1
 BYTE   W02
 BYTE   Dn2
 BYTE   W02
 BYTE   Gn1
 BYTE   W02
 BYTE   Dn2
 BYTE   W02
 BYTE   Gn1
 BYTE   W02
 BYTE   Dn2
 BYTE   W02
 BYTE   Gn1
 BYTE   W02
 BYTE   Dn2
 BYTE   W02
 BYTE   Gn1
 BYTE   W02
 BYTE   Dn2
 BYTE   W02
 BYTE   Gn1
 BYTE   W02
 BYTE   Dn2
 BYTE   W02
 BYTE   Gn1
 BYTE   W02
 BYTE   Dn2
 BYTE   W02
 BYTE   Gn1
 BYTE   W02
 BYTE   Dn2
 BYTE   W02
 BYTE   Gn1
 BYTE   W02
 BYTE   Dn2
 BYTE   W02
 BYTE   Gn1
 BYTE   W02
 BYTE   Dn2
 BYTE   W02
 BYTE   Gn1
 BYTE   W02
 BYTE   Dn2
 BYTE   W02
 BYTE   Gn1
 BYTE   W02
 BYTE   Dn2
 BYTE   W02
 BYTE   Gn1
 BYTE   W02
 BYTE   Dn2
 BYTE   W02
 BYTE   Gn1
 BYTE   W02
 BYTE   Dn2
 BYTE   W02
 BYTE   Gn1
 BYTE   W02
 BYTE   Dn2
 BYTE   W02
 BYTE   Gn1
 BYTE   W02
 BYTE   Dn2
 BYTE   W02
 BYTE   Gn1
 BYTE   W02
 BYTE   Dn2
 BYTE   W02
 BYTE   Gn1
 BYTE   W02
 BYTE   Dn2
 BYTE   W02
 BYTE   Gn1
 BYTE   W02
 BYTE   Dn2
 BYTE   W01
 BYTE   FINE

//**************** Track 2 (Midi-Chn.1) ****************//

song1D_002:
//  #02 //000   ----------------------------------------
 BYTE   KEYSH   song1D_key+0
Label_560C42:
 BYTE   VOICE   60
 BYTE   VOL   80*song1D_mvl/mxv
 BYTE   PAN   c_v+14
 BYTE   N02  Fn3  v104
 BYTE   W03
 BYTE   Gn3  v092
 BYTE   W03
 BYTE   Cn4  v116
 BYTE   W03
 BYTE   Gn3  v100
 BYTE   W03
 BYTE   Fn3  v104
 BYTE   W03
 BYTE   Gn3  v092
 BYTE   W03
 BYTE   Cn4  v116
 BYTE   W03
 BYTE   Gn3  v100
 BYTE   W03
 BYTE   Fn3  v104
 BYTE   W03
 BYTE   Gn3  v092
 BYTE   W03
 BYTE   Cn4  v116
 BYTE   W03
 BYTE   Gn3  v100
 BYTE   W03
 BYTE   Fn3  v104
 BYTE   W03
 BYTE   Gn3  v092
 BYTE   W03
 BYTE   Cn4  v116
 BYTE   W03
 BYTE   Gn3  v100
 BYTE   W03
 BYTE   Fn3  v104
 BYTE   W03
 BYTE   Gn3  v092
 BYTE   W03
 BYTE   Cn4  v116
 BYTE   W03
 BYTE   Gn3  v100
 BYTE   W03
 BYTE   Fn3  v104
 BYTE   W03
 BYTE   Gn3  v092
 BYTE   W03
 BYTE   Cn4  v116
 BYTE   W03
 BYTE   Gn3  v100
 BYTE   W03
 BYTE   Fn3  v104
 BYTE   W03
 BYTE   Gn3  v092
 BYTE   W03
 BYTE   Cn4  v116
 BYTE   W03
 BYTE   Gn3  v100
 BYTE   W03
 BYTE   Fn3  v104
 BYTE   W03
 BYTE   Gn3  v092
 BYTE   W03
 BYTE   Cn4  v116
 BYTE   W03
 BYTE   Gn3  v100
 BYTE   W03
//  #02 //001   ----------------------------------------
Label_560CA9:
 BYTE   N02  Fn3  v104
 BYTE   W03
 BYTE   Gn3  v092
 BYTE   W03
 BYTE   Cn4  v116
 BYTE   W03
 BYTE   Gn3  v100
 BYTE   W03
 BYTE   Fn3  v104
 BYTE   W03
 BYTE   Gn3  v092
 BYTE   W03
 BYTE   Cn4  v116
 BYTE   W03
 BYTE   Gn3  v100
 BYTE   W03
 BYTE   Fn3  v104
 BYTE   W03
 BYTE   Gn3  v092
 BYTE   W03
 BYTE   Cn4  v116
 BYTE   W03
 BYTE   Gn3  v100
 BYTE   W03
 BYTE   Fn3  v104
 BYTE   W03
 BYTE   Gn3  v092
 BYTE   W03
 BYTE   Cn4  v116
 BYTE   W03
 BYTE   Gn3  v100
 BYTE   W03
 BYTE   Fn3  v104
 BYTE   W03
 BYTE   Gn3  v092
 BYTE   W03
 BYTE   Cn4  v116
 BYTE   W03
 BYTE   Gn3  v100
 BYTE   W03
 BYTE   Fn3  v104
 BYTE   W03
 BYTE   Gn3  v092
 BYTE   W03
 BYTE   Cn4  v116
 BYTE   W03
 BYTE   Gn3  v100
 BYTE   W03
 BYTE   Fn3  v104
 BYTE   W03
 BYTE   Gn3  v092
 BYTE   W03
 BYTE   Cn4  v116
 BYTE   W03
 BYTE   Gn3  v100
 BYTE   W03
 BYTE   Fn3  v104
 BYTE   W03
 BYTE   Gn3  v092
 BYTE   W03
 BYTE   Cn4  v116
 BYTE   W03
 BYTE   Gn3  v100
 BYTE   W03
 BYTE   PEND 
//  #02 //002   ----------------------------------------
 BYTE   GoTo
  POIN2 Label_560C42
//  #02 //003   ----------------------------------------
 BYTE   PATT
  POIN2 Label_560CA9
//  #02 //004   ----------------------------------------
 BYTE   N02  Fn3  v104
 BYTE   W03
 BYTE   Gn3  v092
 BYTE   W03
 BYTE   Cn4  v116
 BYTE   W03
 BYTE   Gn3  v100
 BYTE   W03
 BYTE   Fn3  v104
 BYTE   W03
 BYTE   Gn3  v092
 BYTE   W03
 BYTE   Cn4  v116
 BYTE   W03
 BYTE   Gn3  v100
 BYTE   W03
 BYTE   Fn3  v104
 BYTE   W03
 BYTE   Gn3  v092
 BYTE   W03
 BYTE   Cn4  v116
 BYTE   W03
 BYTE   Gn3  v100
 BYTE   W03
 BYTE   Fn3  v104
 BYTE   W03
 BYTE   Gn3  v092
 BYTE   W03
 BYTE   Cn4  v116
 BYTE   W03
 BYTE   Gn3  v100
 BYTE   W03
 BYTE   Fn3  v104
 BYTE   W03
 BYTE   Gn3  v092
 BYTE   W03
 BYTE   Cn4  v116
 BYTE   W03
 BYTE   Gn3  v100
 BYTE   W03
 BYTE   Fn3  v104
 BYTE   W03
 BYTE   Gn3  v092
 BYTE   W03
 BYTE   Cn4  v116
 BYTE   W03
 BYTE   Gn3  v100
 BYTE   W03
 BYTE   Fn3  v104
 BYTE   W03
 BYTE   Gn3  v092
 BYTE   W03
 BYTE   Cn4  v116
 BYTE   W03
 BYTE   Gn3  v100
 BYTE   W03
 BYTE   Fn3  v104
 BYTE   W03
 BYTE   Gn3  v092
 BYTE   W03
 BYTE   Cn4  v116
 BYTE   W03
 BYTE   Gn3  v100
 BYTE   W02
 BYTE   FINE

//**************** Track 3 (Midi-Chn.2) ****************//

song1D_003:
//  #03 //000   ----------------------------------------
 BYTE   KEYSH   song1D_key+0
Label_560966:
 BYTE   VOICE   77
 BYTE   VOL   80*song1D_mvl/mxv
 BYTE   PAN   c_v+0
 BYTE   W02
 BYTE   N03  Cs4  v072
 BYTE   W06
 BYTE   En4  v084
 BYTE   W44
 BYTE   W03
 BYTE   N02  Gn4
 BYTE   W04
 BYTE   N03  En4  v088
 BYTE   W36
 BYTE   W01
//  #03 //001   ----------------------------------------
Label_56097D:
 BYTE   W02
 BYTE   N03  Cs4  v072
 BYTE   W06
 BYTE   En4  v084
 BYTE   W44
 BYTE   W03
 BYTE   N02  Gn4
 BYTE   W04
 BYTE   N03  En4  v088
 BYTE   W36
 BYTE   W01
 BYTE   PEND 
//  #03 //002   ----------------------------------------
 BYTE   GoTo
  POIN2 Label_560966
//  #03 //003   ----------------------------------------
 BYTE   PATT
  POIN2 Label_56097D
//  #03 //004   ----------------------------------------
 BYTE   W02
 BYTE   N03  Cs4  v072
 BYTE   W06
 BYTE   En4  v084
 BYTE   W44
 BYTE   W03
 BYTE   N02  Gn4
 BYTE   W04
 BYTE   N03  En4  v088
 BYTE   W36
 BYTE   FINE

//**************** Track 4 (Midi-Chn.3) ****************//

song1D_004:
//  #04 //000   ----------------------------------------
 BYTE   KEYSH   song1D_key+0
Label_0101495A:
 BYTE   VOICE   77
 BYTE   VOL   80*song1D_mvl/mxv
 BYTE   PAN   c_v+0
 BYTE   N02  Cn4  v104
 BYTE   W05
 BYTE   Dn4  v096
 BYTE   W06
 BYTE   Fn4  v100
 BYTE   W06
 BYTE   En4  v096
 BYTE   W06
 BYTE   Dn4  v104
 BYTE   W06
 BYTE   N01  Cn4  v112
 BYTE   W06
 BYTE   VOL   64*song1D_mvl/mxv
 BYTE   N17  Gn4  v116
 BYTE   W01
 BYTE   VOL   66*song1D_mvl/mxv
 BYTE   W01
 BYTE   VOL   68*song1D_mvl/mxv
 BYTE   W01
 BYTE   VOL   71*song1D_mvl/mxv
 BYTE   W01
 BYTE   VOL   73*song1D_mvl/mxv
 BYTE   W01
 BYTE   VOL   75*song1D_mvl/mxv
 BYTE   W01
 BYTE   VOL   78*song1D_mvl/mxv
 BYTE   W01
 BYTE   VOL   80*song1D_mvl/mxv
 BYTE   W11
 BYTE   N01  Fn4  v088
 BYTE   W04
 BYTE   N02  Fn4  v096
 BYTE   W08
 BYTE   Dn4  v104
 BYTE   W06
 BYTE   Cn4  v108
 BYTE   W06
 BYTE   N01  Bn3  v096
 BYTE   W07
 BYTE   VOL   63*song1D_mvl/mxv
 BYTE   N11  Dn4  v108
 BYTE   W01
 BYTE   VOL   66*song1D_mvl/mxv
 BYTE   W01
 BYTE   VOL   69*song1D_mvl/mxv
 BYTE   W01
 BYTE   VOL   72*song1D_mvl/mxv
 BYTE   W01
 BYTE   VOL   75*song1D_mvl/mxv
 BYTE   W01
 BYTE   VOL   78*song1D_mvl/mxv
 BYTE   W01
 BYTE   VOL   80*song1D_mvl/mxv
 BYTE   W06
//  #04 //001   ----------------------------------------
 BYTE   N02  Cn4  v104
 BYTE   W05
 BYTE   Dn4  v096
 BYTE   W06
 BYTE   Fn4  v100
 BYTE   W06
 BYTE   En4  v096
 BYTE   W06
 BYTE   Dn4  v104
 BYTE   W06
 BYTE   N01  Cn4  v112
 BYTE   W06
 BYTE   VOL   64*song1D_mvl/mxv
 BYTE   N17  Gn4  v116
 BYTE   W01
 BYTE   VOL   66*song1D_mvl/mxv
 BYTE   W01
 BYTE   VOL   68*song1D_mvl/mxv
 BYTE   W01
 BYTE   VOL   71*song1D_mvl/mxv
 BYTE   W01
 BYTE   VOL   73*song1D_mvl/mxv
 BYTE   W01
 BYTE   VOL   75*song1D_mvl/mxv
 BYTE   W01
 BYTE   VOL   78*song1D_mvl/mxv
 BYTE   W01
 BYTE   VOL   80*song1D_mvl/mxv
 BYTE   W11
 BYTE   N01  Fn4  v088
 BYTE   W04
 BYTE   N02  Fn4  v096
 BYTE   W08
 BYTE   Dn4  v104
 BYTE   W06
 BYTE   Cn4  v108
 BYTE   W06
 BYTE   N01  Bn3  v096
 BYTE   W07
 BYTE   VOL   63*song1D_mvl/mxv
 BYTE   N11  Dn4  v108
 BYTE   W01
 BYTE   VOL   66*song1D_mvl/mxv
 BYTE   W01
 BYTE   VOL   69*song1D_mvl/mxv
 BYTE   W01
 BYTE   VOL   72*song1D_mvl/mxv
 BYTE   W01
 BYTE   VOL   75*song1D_mvl/mxv
 BYTE   W01
 BYTE   VOL   78*song1D_mvl/mxv
 BYTE   W01
 BYTE   VOL   80*song1D_mvl/mxv
 BYTE   W06
//  #04 //002   ----------------------------------------
 BYTE   GoTo
  POIN2 Label_0101495A
//  #04 //003   ----------------------------------------
 BYTE   N02  Cn4  v104
 BYTE   W06
 BYTE   Dn4  v096
 BYTE   W06
 BYTE   Fn4  v100
 BYTE   W06
 BYTE   En4  v096
 BYTE   W06
 BYTE   Dn4  v104
 BYTE   W06
 BYTE   N01  Cn4  v112
 BYTE   W06
 BYTE   VOL   65*song1D_mvl/mxv
 BYTE   N17  Gn4  v116
 BYTE   W01
 BYTE   VOL   68*song1D_mvl/mxv
 BYTE   W01
 BYTE   VOL   70*song1D_mvl/mxv
 BYTE   W01
 BYTE   VOL   72*song1D_mvl/mxv
 BYTE   W01
 BYTE   VOL   74*song1D_mvl/mxv
 BYTE   W01
 BYTE   VOL   76*song1D_mvl/mxv
 BYTE   W01
 BYTE   VOL   78*song1D_mvl/mxv
 BYTE   W01
 BYTE   VOL   80*song1D_mvl/mxv
 BYTE   W11
 BYTE   N01  Fn4  v088
 BYTE   W03
 BYTE   N02  Fn4  v096
 BYTE   W09
 BYTE   Dn4  v104
 BYTE   W06
 BYTE   Cn4  v108
 BYTE   W06
 BYTE   N01  Bn3  v096
 BYTE   W06
 BYTE   VOL   61*song1D_mvl/mxv
 BYTE   N11  Dn4  v108
 BYTE   W01
 BYTE   VOL   64*song1D_mvl/mxv
 BYTE   W01
 BYTE   VOL   68*song1D_mvl/mxv
 BYTE   W01
 BYTE   VOL   70*song1D_mvl/mxv
 BYTE   W01
 BYTE   VOL   74*song1D_mvl/mxv
 BYTE   W01
 BYTE   VOL   76*song1D_mvl/mxv
 BYTE   W01
 BYTE   VOL   80*song1D_mvl/mxv
 BYTE   W06
//  #04 //004   ----------------------------------------
 BYTE   N02  Cn4  v104
 BYTE   W06
 BYTE   Dn4  v096
 BYTE   W06
 BYTE   Fn4  v100
 BYTE   W06
 BYTE   En4  v096
 BYTE   W06
 BYTE   Dn4  v104
 BYTE   W06
 BYTE   N01  Cn4  v112
 BYTE   W06
 BYTE   VOL   65*song1D_mvl/mxv
 BYTE   N17  Gn4  v116
 BYTE   W01
 BYTE   VOL   68*song1D_mvl/mxv
 BYTE   W01
 BYTE   VOL   70*song1D_mvl/mxv
 BYTE   W01
 BYTE   VOL   72*song1D_mvl/mxv
 BYTE   W01
 BYTE   VOL   74*song1D_mvl/mxv
 BYTE   W01
 BYTE   VOL   76*song1D_mvl/mxv
 BYTE   W01
 BYTE   VOL   78*song1D_mvl/mxv
 BYTE   W01
 BYTE   VOL   80*song1D_mvl/mxv
 BYTE   W11
 BYTE   N01  Fn4  v088
 BYTE   W03
 BYTE   N02  Fn4  v096
 BYTE   W09
 BYTE   Dn4  v104
 BYTE   W06
 BYTE   Cn4  v108
 BYTE   W06
 BYTE   N01  Bn3  v096
 BYTE   W06
 BYTE   VOL   61*song1D_mvl/mxv
 BYTE   N11  Dn4  v108
 BYTE   W01
 BYTE   VOL   64*song1D_mvl/mxv
 BYTE   W01
 BYTE   VOL   68*song1D_mvl/mxv
 BYTE   W01
 BYTE   VOL   70*song1D_mvl/mxv
 BYTE   W01
 BYTE   VOL   74*song1D_mvl/mxv
 BYTE   W01
 BYTE   VOL   76*song1D_mvl/mxv
 BYTE   W01
 BYTE   VOL   80*song1D_mvl/mxv
 BYTE   W05
 BYTE   FINE

//**************** Track 5 (Midi-Chn.4) ****************//

song1D_005:
//  #05 //000   ----------------------------------------
 BYTE   KEYSH   song1D_key+0
Label_560D7A:
 BYTE   VOICE   34
 BYTE   VOL   80*song1D_mvl/mxv
 BYTE   PAN   c_v+0
 BYTE   N04  Dn2  v116
 BYTE   W06
 BYTE   N02  Dn2  v092
 BYTE   W06
 BYTE   N02
 BYTE   W06
 BYTE   N02
 BYTE   W06
 BYTE   N02
 BYTE   W06
 BYTE   N02
 BYTE   W06
 BYTE   N02
 BYTE   W06
 BYTE   N02
 BYTE   W06
 BYTE   N04  Dn2  v116
 BYTE   W06
 BYTE   N02  Dn2  v092
 BYTE   W06
 BYTE   N02
 BYTE   W06
 BYTE   N02
 BYTE   W06
 BYTE   N02
 BYTE   W06
 BYTE   N02
 BYTE   W06
 BYTE   N02
 BYTE   W06
 BYTE   N02
 BYTE   W06
//  #05 //001   ----------------------------------------
Label_560DA8:
 BYTE   N04  Dn2  v116
 BYTE   W06
 BYTE   N02  Dn2  v092
 BYTE   W06
 BYTE   N02
 BYTE   W06
 BYTE   N02
 BYTE   W06
 BYTE   N02
 BYTE   W06
 BYTE   N02
 BYTE   W06
 BYTE   N02
 BYTE   W06
 BYTE   N02
 BYTE   W06
 BYTE   N04  Dn2  v116
 BYTE   W06
 BYTE   N02  Dn2  v092
 BYTE   W06
 BYTE   N02
 BYTE   W06
 BYTE   N02
 BYTE   W06
 BYTE   N02
 BYTE   W06
 BYTE   N02
 BYTE   W06
 BYTE   N02
 BYTE   W06
 BYTE   N02
 BYTE   W06
 BYTE   PEND 
//  #05 //002   ----------------------------------------
 BYTE   GoTo
  POIN2 Label_560D7A
//  #05 //003   ----------------------------------------
 BYTE   PATT
  POIN2 Label_560DA8
//  #05 //004   ----------------------------------------
 BYTE   N04  Dn2  v116
 BYTE   W06
 BYTE   N02  Dn2  v092
 BYTE   W06
 BYTE   N02
 BYTE   W06
 BYTE   N02
 BYTE   W06
 BYTE   N02
 BYTE   W06
 BYTE   N02
 BYTE   W06
 BYTE   N02
 BYTE   W06
 BYTE   N02
 BYTE   W06
 BYTE   N04  Dn2  v116
 BYTE   W06
 BYTE   N02  Dn2  v092
 BYTE   W06
 BYTE   N02
 BYTE   W06
 BYTE   N02
 BYTE   W06
 BYTE   N02
 BYTE   W06
 BYTE   N02
 BYTE   W06
 BYTE   N02
 BYTE   W06
 BYTE   N02
 BYTE   W05
 BYTE   FINE

//**************** Track 6 (Midi-Chn.5) ****************//

song1D_006:
//  #06 //000   ----------------------------------------
 BYTE   KEYSH   song1D_key+0
Label_010148CE:
 BYTE   VOICE   34
 BYTE   VOL   80*song1D_mvl/mxv
 BYTE   PAN   c_v+0
 BYTE   N04  Gn1  v116
 BYTE   W06
 BYTE   N02  Gn1  v092
 BYTE   W06
 BYTE   N02
 BYTE   W06
 BYTE   N02
 BYTE   W06
 BYTE   N02
 BYTE   W06
 BYTE   N02
 BYTE   W06
 BYTE   N02
 BYTE   W06
 BYTE   N02
 BYTE   W06
 BYTE   N04  Gn1  v116
 BYTE   W06
 BYTE   N02  Gn1  v092
 BYTE   W06
 BYTE   N02
 BYTE   W06
 BYTE   N02
 BYTE   W06
 BYTE   N02
 BYTE   W06
 BYTE   N02
 BYTE   W06
 BYTE   N02
 BYTE   W06
 BYTE   N02
 BYTE   W06
//  #06 //001   ----------------------------------------
Label_010148FC:
 BYTE   N04  Gn1  v116
 BYTE   W06
 BYTE   N02  Gn1  v092
 BYTE   W06
 BYTE   N02
 BYTE   W06
 BYTE   N02
 BYTE   W06
 BYTE   N02
 BYTE   W06
 BYTE   N02
 BYTE   W06
 BYTE   N02
 BYTE   W06
 BYTE   N02
 BYTE   W06
 BYTE   N04  Gn1  v116
 BYTE   W06
 BYTE   N02  Gn1  v092
 BYTE   W06
 BYTE   N02
 BYTE   W06
 BYTE   N02
 BYTE   W06
 BYTE   N02
 BYTE   W06
 BYTE   N02
 BYTE   W06
 BYTE   N02
 BYTE   W06
 BYTE   N02
 BYTE   W06
 BYTE   PEND 
//  #06 //002   ----------------------------------------
 BYTE   GoTo
  POIN2 Label_010148CE
//  #06 //003   ----------------------------------------
 BYTE   PATT
  POIN2 Label_010148FC
//  #06 //004   ----------------------------------------
 BYTE   N04  Gn1  v116
 BYTE   W06
 BYTE   N02  Gn1  v092
 BYTE   W06
 BYTE   N02
 BYTE   W06
 BYTE   N02
 BYTE   W06
 BYTE   N02
 BYTE   W06
 BYTE   N02
 BYTE   W06
 BYTE   N02
 BYTE   W06
 BYTE   N02
 BYTE   W06
 BYTE   N04  Gn1  v116
 BYTE   W06
 BYTE   N02  Gn1  v092
 BYTE   W06
 BYTE   N02
 BYTE   W06
 BYTE   N02
 BYTE   W06
 BYTE   N02
 BYTE   W06
 BYTE   N02
 BYTE   W06
 BYTE   N02
 BYTE   W06
 BYTE   N02
 BYTE   W05
 BYTE   FINE

//******************************************************//
	ALIGN 4

song1D:
	BYTE	6	// NumTrks
	BYTE	0	// NumBlks
	BYTE	song1D_pri	// Priority
	BYTE	song1D_rev	// Reverb.
    
	POIN2	song1D_grp
    
	POIN2	song1D_001
	POIN2	song1D_002
	POIN2	song1D_003
	POIN2	song1D_004
	POIN2	song1D_005
	POIN2	song1D_006

	
